G04 (created by PCBNEW-RS274X (2012-jan-04)-stable) date Mon 18 Jun 2012 03:02:34 PM CEST*
G01*
G70*
G90*
%MOIN*%
G04 Gerber Fmt 3.4, Leading zero omitted, Abs format*
%FSLAX34Y34*%
G04 APERTURE LIST*
%ADD10C,0.006000*%
%ADD11C,0.196900*%
%ADD12O,0.137800X0.098400*%
%ADD13C,0.059100*%
%ADD14C,0.472400*%
%ADD15C,0.098400*%
%ADD16R,0.047200X0.047200*%
%ADD17C,0.160000*%
%ADD18R,0.144000X0.080000*%
%ADD19R,0.040000X0.080000*%
%ADD20R,0.051100X0.059000*%
%ADD21R,0.062900X0.070800*%
%ADD22R,0.086600X0.023600*%
%ADD23R,0.039300X0.043300*%
%ADD24C,0.393700*%
%ADD25C,0.044000*%
%ADD26C,0.157500*%
%ADD27O,0.068900X0.118100*%
%ADD28C,0.315000*%
%ADD29R,0.059000X0.051100*%
%ADD30C,0.035000*%
%ADD31C,0.025000*%
%ADD32C,0.010000*%
%ADD33C,0.008000*%
G04 APERTURE END LIST*
G54D10*
G54D11*
X51215Y-41000D03*
X40585Y-41000D03*
G54D12*
X47908Y-50764D03*
X43892Y-50764D03*
G54D13*
X46530Y-50764D03*
X45270Y-50764D03*
G54D11*
X73500Y-33300D03*
X73500Y-28900D03*
G54D14*
X56000Y-45200D03*
G54D15*
X56000Y-39294D03*
X54425Y-39294D03*
X57575Y-39294D03*
G54D16*
X55587Y-35800D03*
X56413Y-35800D03*
G54D17*
X39370Y-15354D03*
X74803Y-15354D03*
X39370Y-50787D03*
X74803Y-50787D03*
G54D18*
X45150Y-43750D03*
G54D19*
X45150Y-46350D03*
X46050Y-46350D03*
X44250Y-46350D03*
G54D20*
X44926Y-38100D03*
X45674Y-38100D03*
G54D21*
X46801Y-47750D03*
X45699Y-47750D03*
X43499Y-47750D03*
X44601Y-47750D03*
G54D22*
X44277Y-35150D03*
X44277Y-35650D03*
X44277Y-36150D03*
X44277Y-36650D03*
X46323Y-36650D03*
X46323Y-36150D03*
X46323Y-35650D03*
X46323Y-35150D03*
G54D23*
X55666Y-34900D03*
X56334Y-34900D03*
G54D24*
X73500Y-37500D03*
X73500Y-44500D03*
X68800Y-47900D03*
X63400Y-47900D03*
G54D13*
X40354Y-46496D03*
X40354Y-45496D03*
X40354Y-47496D03*
G54D25*
X40200Y-36200D03*
X39200Y-37200D03*
X40200Y-38200D03*
G54D26*
X66900Y-30504D03*
X66900Y-43496D03*
X64100Y-30504D03*
X64100Y-43496D03*
G54D20*
X45674Y-31000D03*
X44926Y-31000D03*
X44926Y-32200D03*
X45674Y-32200D03*
G54D21*
X45851Y-40200D03*
X44749Y-40200D03*
G54D20*
X44926Y-34200D03*
X45674Y-34200D03*
G54D27*
X54350Y-27750D03*
X55350Y-27750D03*
X53350Y-27750D03*
X59850Y-27750D03*
X60850Y-27750D03*
X58850Y-27750D03*
G54D28*
X73229Y-25118D03*
X40945Y-25118D03*
G54D29*
X53300Y-30574D03*
X53300Y-29826D03*
X58900Y-30574D03*
X58900Y-29826D03*
G54D30*
X45700Y-38900D03*
X43250Y-46350D03*
X47800Y-39400D03*
X43800Y-33600D03*
X43800Y-32200D03*
X43900Y-37400D03*
X47800Y-37500D03*
X46200Y-31600D03*
X48000Y-35900D03*
G54D31*
X45674Y-37374D02*
X45674Y-38100D01*
X45674Y-38874D02*
X45674Y-38100D01*
X44277Y-35150D02*
X44750Y-35150D01*
X45700Y-38900D02*
X45674Y-38874D01*
X44750Y-35150D02*
X45400Y-35800D01*
X45400Y-35800D02*
X45400Y-37100D01*
X44926Y-34200D02*
X44926Y-34501D01*
X44926Y-34501D02*
X44277Y-35150D01*
X45400Y-37100D02*
X45674Y-37374D01*
X43250Y-46350D02*
X44250Y-46350D01*
X45851Y-40200D02*
X48500Y-40200D01*
X46801Y-47750D02*
X46801Y-45501D01*
X44700Y-45150D02*
X44250Y-45600D01*
X46801Y-45501D02*
X46450Y-45150D01*
X46450Y-45150D02*
X44700Y-45150D01*
X44250Y-45600D02*
X44250Y-46350D01*
X48500Y-40200D02*
X48500Y-46051D01*
X40358Y-47500D02*
X40354Y-47496D01*
X47950Y-35150D02*
X48500Y-35700D01*
X46323Y-35150D02*
X47950Y-35150D01*
X48500Y-35700D02*
X48500Y-40200D01*
X48500Y-46051D02*
X46801Y-47750D01*
X49800Y-39100D02*
X52100Y-39100D01*
X49400Y-51100D02*
X49400Y-39500D01*
X57575Y-39294D02*
X57575Y-35275D01*
X44550Y-47050D02*
X43850Y-47050D01*
X46050Y-46350D02*
X46050Y-45750D01*
X52100Y-39100D02*
X53300Y-40300D01*
X53300Y-40300D02*
X56800Y-40300D01*
X46400Y-51800D02*
X48700Y-51800D01*
X46050Y-46900D02*
X46250Y-47100D01*
X45850Y-45550D02*
X44950Y-45550D01*
X57575Y-39525D02*
X57575Y-39294D01*
X48700Y-51800D02*
X49400Y-51100D01*
X44700Y-45800D02*
X44700Y-46900D01*
X43499Y-47401D02*
X43499Y-47750D01*
X57575Y-35275D02*
X57200Y-34900D01*
X57200Y-34900D02*
X56334Y-34900D01*
X43850Y-47050D02*
X43499Y-47401D01*
X46250Y-49350D02*
X46250Y-49950D01*
X46050Y-45750D02*
X45850Y-45550D01*
X56800Y-40300D02*
X57575Y-39525D01*
X46250Y-49950D02*
X45900Y-50300D01*
X46050Y-46350D02*
X46050Y-46900D01*
X46250Y-47100D02*
X46250Y-49350D01*
X45900Y-51300D02*
X46400Y-51800D01*
X44950Y-45550D02*
X44700Y-45800D01*
X45900Y-50300D02*
X45900Y-51300D01*
X44700Y-46900D02*
X44550Y-47050D01*
X49400Y-39500D02*
X49800Y-39100D01*
X43500Y-32900D02*
X46400Y-32900D01*
X65500Y-33400D02*
X65500Y-31904D01*
X42800Y-33600D02*
X43500Y-32900D01*
X46400Y-32900D02*
X47700Y-34200D01*
X42400Y-34000D02*
X42800Y-33600D01*
X47700Y-34200D02*
X64700Y-34200D01*
X42800Y-33600D02*
X42800Y-33600D01*
X44277Y-36150D02*
X42650Y-36150D01*
X64700Y-34200D02*
X65500Y-33400D01*
X66900Y-30504D02*
X65500Y-31904D01*
X42400Y-35900D02*
X42400Y-34000D01*
X42650Y-36150D02*
X42400Y-35900D01*
X54425Y-39294D02*
X54425Y-39275D01*
X45150Y-47750D02*
X44601Y-47750D01*
X44277Y-36650D02*
X43350Y-36650D01*
X44926Y-31000D02*
X43500Y-31000D01*
X54425Y-39294D02*
X54425Y-38575D01*
X42700Y-31800D02*
X43500Y-31000D01*
X45150Y-47750D02*
X45150Y-46350D01*
X43350Y-36650D02*
X42350Y-37650D01*
X43350Y-36650D02*
X43350Y-38550D01*
X44601Y-47750D02*
X44601Y-50055D01*
X44277Y-36650D02*
X43350Y-36650D01*
X44601Y-50055D02*
X43892Y-50764D01*
X43892Y-50342D02*
X42350Y-48800D01*
X54425Y-38575D02*
X56413Y-36587D01*
X40200Y-36200D02*
X41700Y-36200D01*
X42350Y-40200D02*
X42300Y-40200D01*
X43350Y-38550D02*
X44200Y-39400D01*
X45699Y-47750D02*
X45150Y-47750D01*
X56413Y-36587D02*
X56413Y-35800D01*
X42350Y-47500D02*
X42350Y-40200D01*
X44200Y-39400D02*
X47800Y-39400D01*
X43892Y-50764D02*
X43892Y-50342D01*
X42700Y-32300D02*
X42700Y-31800D01*
X41700Y-33300D02*
X42700Y-32300D01*
X41700Y-33300D02*
X41700Y-36200D01*
X42350Y-47500D02*
X42350Y-48800D01*
X41700Y-37000D02*
X41700Y-36200D01*
X41700Y-37000D02*
X42350Y-37650D01*
X42350Y-37650D02*
X42350Y-40200D01*
X44749Y-40200D02*
X42350Y-40200D01*
X42300Y-40200D02*
X42350Y-40200D01*
X55587Y-35800D02*
X55587Y-34979D01*
X55587Y-34979D02*
X55666Y-34900D01*
X53300Y-29826D02*
X53300Y-27800D01*
X53300Y-27800D02*
X53350Y-27750D01*
X45674Y-33674D02*
X45674Y-34200D01*
X45500Y-33500D02*
X45674Y-33674D01*
G54D32*
X45674Y-34200D02*
X45674Y-34826D01*
X45700Y-36000D02*
X45850Y-36150D01*
X45500Y-35000D02*
X45500Y-35400D01*
G54D31*
X43900Y-33500D02*
X45500Y-33500D01*
G54D32*
X45500Y-35400D02*
X45700Y-35600D01*
G54D31*
X43800Y-33600D02*
X43900Y-33500D01*
X44926Y-32200D02*
X43800Y-32200D01*
G54D32*
X45850Y-36150D02*
X46323Y-36150D01*
X45700Y-35600D02*
X45700Y-36000D01*
X45674Y-34826D02*
X45500Y-35000D01*
G54D31*
X58900Y-29826D02*
X58900Y-27800D01*
X58900Y-27800D02*
X58850Y-27750D01*
X44750Y-35650D02*
X45000Y-35900D01*
X44277Y-35650D02*
X44750Y-35650D01*
X45000Y-35900D02*
X45000Y-38026D01*
X44600Y-38100D02*
X44926Y-38100D01*
X43900Y-37400D02*
X44600Y-38100D01*
X45000Y-38026D02*
X44926Y-38100D01*
X44952Y-38126D02*
X44926Y-38100D01*
X47500Y-37500D02*
X47800Y-37500D01*
X46650Y-36650D02*
X47500Y-37500D01*
X46323Y-36650D02*
X46650Y-36650D01*
X52800Y-32000D02*
X56100Y-32000D01*
X56100Y-32000D02*
X56100Y-31600D01*
X56100Y-31600D02*
X56100Y-31300D01*
X53300Y-31300D02*
X56000Y-31300D01*
X51200Y-30400D02*
X52800Y-32000D01*
X45700Y-30400D02*
X51200Y-30400D01*
X45674Y-30426D02*
X45700Y-30400D01*
X56100Y-31300D02*
X56100Y-31400D01*
X56100Y-31400D02*
X56100Y-31300D01*
X55900Y-31300D02*
X56000Y-31300D01*
X53300Y-30574D02*
X53300Y-31300D01*
X45674Y-31000D02*
X45674Y-30426D01*
X58900Y-31300D02*
X58900Y-30574D01*
X56100Y-31300D02*
X58900Y-31300D01*
X56000Y-31300D02*
X56100Y-31300D01*
X45674Y-31074D02*
X46200Y-31600D01*
X47750Y-35650D02*
X48000Y-35900D01*
X45674Y-32200D02*
X45674Y-31000D01*
X47750Y-35650D02*
X46323Y-35650D01*
X45674Y-31000D02*
X45674Y-31074D01*
G54D10*
G36*
X76560Y-51748D02*
X76547Y-51888D01*
X76506Y-52022D01*
X76441Y-52145D01*
X76352Y-52252D01*
X76245Y-52341D01*
X76240Y-52343D01*
X76240Y-26320D01*
X76240Y-22080D01*
X76232Y-21970D01*
X76205Y-21860D01*
X76162Y-21755D01*
X76102Y-21658D01*
X76028Y-21572D01*
X75942Y-21498D01*
X75845Y-21438D01*
X75740Y-21395D01*
X75630Y-21368D01*
X75520Y-21360D01*
X38680Y-21360D01*
X38541Y-21374D01*
X38407Y-21415D01*
X38282Y-21482D01*
X38172Y-21571D01*
X38098Y-21658D01*
X38038Y-21755D01*
X37995Y-21860D01*
X37968Y-21970D01*
X37960Y-22080D01*
X37960Y-26320D01*
X37968Y-26430D01*
X37995Y-26540D01*
X38038Y-26645D01*
X38098Y-26742D01*
X38172Y-26829D01*
X38282Y-26918D01*
X38407Y-26985D01*
X38541Y-27026D01*
X38680Y-27040D01*
X39503Y-27040D01*
X39768Y-27224D01*
X40199Y-27412D01*
X40659Y-27513D01*
X41130Y-27523D01*
X41593Y-27442D01*
X42032Y-27272D01*
X42396Y-27040D01*
X53204Y-27040D01*
X53126Y-27072D01*
X53047Y-27123D01*
X52979Y-27190D01*
X52926Y-27267D01*
X52888Y-27354D01*
X52869Y-27447D01*
X52867Y-27541D01*
X52868Y-28046D01*
X52886Y-28139D01*
X52922Y-28226D01*
X52975Y-28305D01*
X53035Y-28365D01*
X53035Y-29432D01*
X52991Y-29432D01*
X52964Y-29437D01*
X52939Y-29448D01*
X52916Y-29463D01*
X52897Y-29482D01*
X52882Y-29505D01*
X52871Y-29530D01*
X52866Y-29557D01*
X52866Y-29584D01*
X52866Y-30095D01*
X52871Y-30122D01*
X52882Y-30147D01*
X52897Y-30170D01*
X52916Y-30189D01*
X52932Y-30200D01*
X52916Y-30211D01*
X52897Y-30230D01*
X52882Y-30253D01*
X52871Y-30278D01*
X52866Y-30305D01*
X52866Y-30332D01*
X52866Y-30843D01*
X52871Y-30870D01*
X52882Y-30895D01*
X52897Y-30918D01*
X52916Y-30937D01*
X52939Y-30952D01*
X52964Y-30963D01*
X52991Y-30968D01*
X53018Y-30968D01*
X53035Y-30968D01*
X53035Y-31298D01*
X53035Y-31300D01*
X53040Y-31351D01*
X53046Y-31371D01*
X53054Y-31399D01*
X53054Y-31400D01*
X53055Y-31401D01*
X53078Y-31445D01*
X53079Y-31447D01*
X53111Y-31485D01*
X53112Y-31487D01*
X53136Y-31506D01*
X53150Y-31519D01*
X53152Y-31520D01*
X53196Y-31544D01*
X53197Y-31544D01*
X53219Y-31551D01*
X53245Y-31559D01*
X53247Y-31560D01*
X53286Y-31563D01*
X53296Y-31565D01*
X53298Y-31565D01*
X53300Y-31565D01*
X55835Y-31565D01*
X55835Y-31596D01*
X55835Y-31600D01*
X55835Y-31735D01*
X52909Y-31735D01*
X51389Y-30215D01*
X51387Y-30213D01*
X51377Y-30204D01*
X51350Y-30181D01*
X51348Y-30180D01*
X51304Y-30156D01*
X51303Y-30155D01*
X51302Y-30155D01*
X51255Y-30141D01*
X51252Y-30140D01*
X51219Y-30136D01*
X51204Y-30135D01*
X51201Y-30135D01*
X51200Y-30135D01*
X45700Y-30135D01*
X45649Y-30140D01*
X45627Y-30146D01*
X45600Y-30154D01*
X45585Y-30161D01*
X45553Y-30179D01*
X45522Y-30204D01*
X45515Y-30210D01*
X45513Y-30212D01*
X45512Y-30213D01*
X45487Y-30239D01*
X45478Y-30249D01*
X45455Y-30276D01*
X45430Y-30322D01*
X45429Y-30322D01*
X45429Y-30324D01*
X45414Y-30374D01*
X45410Y-30407D01*
X45409Y-30422D01*
X45409Y-30425D01*
X45409Y-30426D01*
X45409Y-30566D01*
X45405Y-30566D01*
X45378Y-30571D01*
X45353Y-30582D01*
X45330Y-30597D01*
X45311Y-30616D01*
X45296Y-30639D01*
X45285Y-30664D01*
X45280Y-30691D01*
X45280Y-30718D01*
X45280Y-31309D01*
X45285Y-31336D01*
X45296Y-31361D01*
X45311Y-31384D01*
X45330Y-31403D01*
X45353Y-31418D01*
X45378Y-31429D01*
X45405Y-31434D01*
X45409Y-31434D01*
X45409Y-31766D01*
X45405Y-31766D01*
X45378Y-31771D01*
X45353Y-31782D01*
X45330Y-31797D01*
X45311Y-31816D01*
X45300Y-31832D01*
X45289Y-31816D01*
X45270Y-31797D01*
X45247Y-31782D01*
X45222Y-31771D01*
X45195Y-31766D01*
X45168Y-31766D01*
X44657Y-31766D01*
X44630Y-31771D01*
X44605Y-31782D01*
X44582Y-31797D01*
X44563Y-31816D01*
X44548Y-31839D01*
X44537Y-31864D01*
X44532Y-31891D01*
X44532Y-31918D01*
X44532Y-31935D01*
X43968Y-31935D01*
X43950Y-31922D01*
X43893Y-31899D01*
X43833Y-31886D01*
X43771Y-31886D01*
X43711Y-31897D01*
X43654Y-31920D01*
X43602Y-31954D01*
X43558Y-31997D01*
X43523Y-32048D01*
X43499Y-32105D01*
X43486Y-32165D01*
X43486Y-32227D01*
X43497Y-32287D01*
X43519Y-32344D01*
X43553Y-32396D01*
X43596Y-32440D01*
X43646Y-32476D01*
X43703Y-32500D01*
X43763Y-32513D01*
X43824Y-32515D01*
X43885Y-32504D01*
X43942Y-32482D01*
X43968Y-32465D01*
X44532Y-32465D01*
X44532Y-32509D01*
X44537Y-32536D01*
X44548Y-32561D01*
X44563Y-32584D01*
X44582Y-32603D01*
X44605Y-32618D01*
X44630Y-32629D01*
X44657Y-32634D01*
X44684Y-32634D01*
X45195Y-32634D01*
X45222Y-32629D01*
X45247Y-32618D01*
X45270Y-32603D01*
X45289Y-32584D01*
X45300Y-32567D01*
X45311Y-32584D01*
X45330Y-32603D01*
X45353Y-32618D01*
X45378Y-32629D01*
X45405Y-32634D01*
X45432Y-32634D01*
X45943Y-32634D01*
X45970Y-32629D01*
X45995Y-32618D01*
X46018Y-32603D01*
X46037Y-32584D01*
X46052Y-32561D01*
X46063Y-32536D01*
X46068Y-32509D01*
X46068Y-32482D01*
X46068Y-31891D01*
X46066Y-31884D01*
X46103Y-31900D01*
X46163Y-31913D01*
X46224Y-31915D01*
X46285Y-31904D01*
X46342Y-31882D01*
X46394Y-31849D01*
X46439Y-31806D01*
X46474Y-31756D01*
X46499Y-31699D01*
X46513Y-31639D01*
X46514Y-31569D01*
X46502Y-31509D01*
X46478Y-31452D01*
X46444Y-31400D01*
X46401Y-31357D01*
X46350Y-31322D01*
X46293Y-31299D01*
X46268Y-31293D01*
X46068Y-31093D01*
X46068Y-30691D01*
X46063Y-30665D01*
X51090Y-30665D01*
X52611Y-32185D01*
X52612Y-32187D01*
X52627Y-32199D01*
X52650Y-32219D01*
X52696Y-32244D01*
X52698Y-32244D01*
X52728Y-32253D01*
X52745Y-32259D01*
X52747Y-32260D01*
X52782Y-32263D01*
X52796Y-32265D01*
X52799Y-32265D01*
X52800Y-32265D01*
X56098Y-32265D01*
X56100Y-32265D01*
X56150Y-32260D01*
X56151Y-32260D01*
X56171Y-32254D01*
X56199Y-32246D01*
X56200Y-32245D01*
X56201Y-32245D01*
X56245Y-32222D01*
X56247Y-32221D01*
X56285Y-32189D01*
X56287Y-32188D01*
X56306Y-32163D01*
X56319Y-32150D01*
X56320Y-32148D01*
X56344Y-32104D01*
X56344Y-32103D01*
X56351Y-32080D01*
X56359Y-32055D01*
X56360Y-32053D01*
X56363Y-32014D01*
X56365Y-32004D01*
X56365Y-32002D01*
X56365Y-32000D01*
X56365Y-31604D01*
X56365Y-31600D01*
X56365Y-31565D01*
X58898Y-31565D01*
X58900Y-31565D01*
X58950Y-31560D01*
X58951Y-31560D01*
X58971Y-31554D01*
X58999Y-31546D01*
X59000Y-31545D01*
X59001Y-31545D01*
X59045Y-31522D01*
X59047Y-31521D01*
X59085Y-31489D01*
X59087Y-31488D01*
X59106Y-31463D01*
X59119Y-31450D01*
X59120Y-31448D01*
X59144Y-31404D01*
X59144Y-31403D01*
X59151Y-31380D01*
X59159Y-31355D01*
X59160Y-31353D01*
X59163Y-31314D01*
X59165Y-31304D01*
X59165Y-31302D01*
X59165Y-31300D01*
X59165Y-30968D01*
X59209Y-30968D01*
X59236Y-30963D01*
X59261Y-30952D01*
X59284Y-30937D01*
X59303Y-30918D01*
X59318Y-30895D01*
X59329Y-30870D01*
X59334Y-30843D01*
X59334Y-30816D01*
X59334Y-30305D01*
X59329Y-30278D01*
X59318Y-30253D01*
X59303Y-30230D01*
X59284Y-30211D01*
X59267Y-30200D01*
X59284Y-30189D01*
X59303Y-30170D01*
X59318Y-30147D01*
X59329Y-30122D01*
X59334Y-30095D01*
X59334Y-30068D01*
X59334Y-29557D01*
X59329Y-29530D01*
X59318Y-29505D01*
X59303Y-29482D01*
X59284Y-29463D01*
X59261Y-29448D01*
X59236Y-29437D01*
X59209Y-29432D01*
X59182Y-29432D01*
X59165Y-29432D01*
X59165Y-28365D01*
X59221Y-28310D01*
X59274Y-28233D01*
X59312Y-28146D01*
X59331Y-28053D01*
X59333Y-27959D01*
X59332Y-27454D01*
X59314Y-27361D01*
X59278Y-27274D01*
X59225Y-27195D01*
X59159Y-27128D01*
X59081Y-27075D01*
X58997Y-27040D01*
X59704Y-27040D01*
X59626Y-27072D01*
X59547Y-27123D01*
X59479Y-27190D01*
X59426Y-27267D01*
X59388Y-27354D01*
X59369Y-27447D01*
X59367Y-27541D01*
X59368Y-28046D01*
X59386Y-28139D01*
X59422Y-28226D01*
X59475Y-28305D01*
X59541Y-28372D01*
X59619Y-28425D01*
X59707Y-28462D01*
X59799Y-28481D01*
X59894Y-28481D01*
X59986Y-28464D01*
X60074Y-28428D01*
X60153Y-28377D01*
X60221Y-28310D01*
X60274Y-28233D01*
X60312Y-28146D01*
X60331Y-28053D01*
X60333Y-27959D01*
X60332Y-27454D01*
X60314Y-27361D01*
X60278Y-27274D01*
X60225Y-27195D01*
X60159Y-27128D01*
X60081Y-27075D01*
X59997Y-27040D01*
X60704Y-27040D01*
X60626Y-27072D01*
X60547Y-27123D01*
X60479Y-27190D01*
X60426Y-27267D01*
X60388Y-27354D01*
X60369Y-27447D01*
X60367Y-27541D01*
X60368Y-28046D01*
X60386Y-28139D01*
X60422Y-28226D01*
X60475Y-28305D01*
X60541Y-28372D01*
X60619Y-28425D01*
X60707Y-28462D01*
X60799Y-28481D01*
X60894Y-28481D01*
X60986Y-28464D01*
X61074Y-28428D01*
X61153Y-28377D01*
X61221Y-28310D01*
X61274Y-28233D01*
X61312Y-28146D01*
X61331Y-28053D01*
X61333Y-27959D01*
X61332Y-27454D01*
X61314Y-27361D01*
X61278Y-27274D01*
X61225Y-27195D01*
X61159Y-27128D01*
X61081Y-27075D01*
X60997Y-27040D01*
X71787Y-27040D01*
X72052Y-27224D01*
X72483Y-27412D01*
X72943Y-27513D01*
X73414Y-27523D01*
X73877Y-27442D01*
X74316Y-27272D01*
X74680Y-27040D01*
X75520Y-27040D01*
X75630Y-27032D01*
X75740Y-27005D01*
X75845Y-26962D01*
X75942Y-26902D01*
X76028Y-26828D01*
X76102Y-26742D01*
X76162Y-26645D01*
X76205Y-26540D01*
X76232Y-26430D01*
X76240Y-26320D01*
X76240Y-52343D01*
X76122Y-52406D01*
X75988Y-52447D01*
X75848Y-52460D01*
X75608Y-52460D01*
X75608Y-44293D01*
X75608Y-37293D01*
X75528Y-36887D01*
X75370Y-36505D01*
X75141Y-36161D01*
X74850Y-35868D01*
X74624Y-35715D01*
X74624Y-33190D01*
X74624Y-28790D01*
X74581Y-28574D01*
X74497Y-28370D01*
X74375Y-28186D01*
X74220Y-28030D01*
X74037Y-27907D01*
X73834Y-27821D01*
X73618Y-27777D01*
X73398Y-27775D01*
X73181Y-27817D01*
X72977Y-27899D01*
X72792Y-28020D01*
X72635Y-28174D01*
X72510Y-28356D01*
X72424Y-28558D01*
X72378Y-28774D01*
X72375Y-28994D01*
X72414Y-29211D01*
X72495Y-29416D01*
X72615Y-29601D01*
X72768Y-29760D01*
X72949Y-29886D01*
X73151Y-29974D01*
X73366Y-30021D01*
X73586Y-30026D01*
X73804Y-29988D01*
X74009Y-29908D01*
X74195Y-29790D01*
X74355Y-29638D01*
X74482Y-29458D01*
X74572Y-29257D01*
X74620Y-29042D01*
X74624Y-28790D01*
X74624Y-33190D01*
X74581Y-32974D01*
X74497Y-32770D01*
X74375Y-32586D01*
X74220Y-32430D01*
X74037Y-32307D01*
X73834Y-32221D01*
X73618Y-32177D01*
X73398Y-32175D01*
X73181Y-32217D01*
X72977Y-32299D01*
X72792Y-32420D01*
X72635Y-32574D01*
X72510Y-32756D01*
X72424Y-32958D01*
X72378Y-33174D01*
X72375Y-33394D01*
X72414Y-33611D01*
X72495Y-33816D01*
X72615Y-34001D01*
X72768Y-34160D01*
X72949Y-34286D01*
X73151Y-34374D01*
X73366Y-34421D01*
X73586Y-34426D01*
X73804Y-34388D01*
X74009Y-34308D01*
X74195Y-34190D01*
X74355Y-34038D01*
X74482Y-33858D01*
X74572Y-33657D01*
X74620Y-33442D01*
X74624Y-33190D01*
X74624Y-35715D01*
X74507Y-35637D01*
X74126Y-35476D01*
X73721Y-35393D01*
X73308Y-35391D01*
X72902Y-35468D01*
X72518Y-35623D01*
X72173Y-35849D01*
X71877Y-36139D01*
X71644Y-36480D01*
X71481Y-36860D01*
X71395Y-37264D01*
X71389Y-37678D01*
X71464Y-38084D01*
X71616Y-38468D01*
X71840Y-38816D01*
X72127Y-39113D01*
X72467Y-39349D01*
X72846Y-39515D01*
X73250Y-39603D01*
X73663Y-39612D01*
X74070Y-39540D01*
X74455Y-39390D01*
X74804Y-39169D01*
X75104Y-38884D01*
X75342Y-38546D01*
X75510Y-38168D01*
X75601Y-37765D01*
X75608Y-37293D01*
X75608Y-44293D01*
X75528Y-43887D01*
X75370Y-43505D01*
X75141Y-43161D01*
X74850Y-42868D01*
X74507Y-42637D01*
X74126Y-42476D01*
X73721Y-42393D01*
X73308Y-42391D01*
X72902Y-42468D01*
X72518Y-42623D01*
X72173Y-42849D01*
X71877Y-43139D01*
X71644Y-43480D01*
X71481Y-43860D01*
X71395Y-44264D01*
X71389Y-44678D01*
X71464Y-45084D01*
X71616Y-45468D01*
X71840Y-45816D01*
X72127Y-46113D01*
X72467Y-46349D01*
X72846Y-46515D01*
X73250Y-46603D01*
X73663Y-46612D01*
X74070Y-46540D01*
X74455Y-46390D01*
X74804Y-46169D01*
X75104Y-45884D01*
X75342Y-45546D01*
X75510Y-45168D01*
X75601Y-44765D01*
X75608Y-44293D01*
X75608Y-52460D01*
X67827Y-52460D01*
X67827Y-43405D01*
X67827Y-30413D01*
X67792Y-30235D01*
X67722Y-30067D01*
X67622Y-29915D01*
X67494Y-29786D01*
X67343Y-29685D01*
X67175Y-29614D01*
X66997Y-29578D01*
X66815Y-29576D01*
X66637Y-29610D01*
X66468Y-29679D01*
X66316Y-29778D01*
X66186Y-29905D01*
X66084Y-30055D01*
X66012Y-30222D01*
X65974Y-30400D01*
X65972Y-30582D01*
X66005Y-30761D01*
X66072Y-30930D01*
X66082Y-30946D01*
X65313Y-31717D01*
X65304Y-31727D01*
X65281Y-31754D01*
X65256Y-31800D01*
X65255Y-31800D01*
X65255Y-31802D01*
X65240Y-31852D01*
X65236Y-31885D01*
X65235Y-31900D01*
X65235Y-31903D01*
X65235Y-31904D01*
X65235Y-33290D01*
X65027Y-33498D01*
X65027Y-30413D01*
X64992Y-30235D01*
X64922Y-30067D01*
X64822Y-29915D01*
X64694Y-29786D01*
X64543Y-29685D01*
X64375Y-29614D01*
X64197Y-29578D01*
X64015Y-29576D01*
X63837Y-29610D01*
X63668Y-29679D01*
X63516Y-29778D01*
X63386Y-29905D01*
X63284Y-30055D01*
X63212Y-30222D01*
X63174Y-30400D01*
X63172Y-30582D01*
X63205Y-30761D01*
X63272Y-30930D01*
X63370Y-31083D01*
X63496Y-31213D01*
X63646Y-31317D01*
X63812Y-31390D01*
X63990Y-31429D01*
X64172Y-31433D01*
X64351Y-31401D01*
X64520Y-31335D01*
X64674Y-31238D01*
X64805Y-31113D01*
X64910Y-30964D01*
X64984Y-30798D01*
X65024Y-30621D01*
X65027Y-30413D01*
X65027Y-33498D01*
X64590Y-33935D01*
X47809Y-33935D01*
X46589Y-32715D01*
X46587Y-32713D01*
X46577Y-32704D01*
X46550Y-32681D01*
X46548Y-32680D01*
X46504Y-32656D01*
X46503Y-32655D01*
X46502Y-32655D01*
X46455Y-32641D01*
X46452Y-32640D01*
X46419Y-32636D01*
X46404Y-32635D01*
X46401Y-32635D01*
X46400Y-32635D01*
X43500Y-32635D01*
X43449Y-32640D01*
X43399Y-32655D01*
X43353Y-32679D01*
X43322Y-32704D01*
X43315Y-32710D01*
X43313Y-32712D01*
X43312Y-32713D01*
X42619Y-33406D01*
X42618Y-33407D01*
X42615Y-33410D01*
X42613Y-33412D01*
X42612Y-33413D01*
X42213Y-33813D01*
X42204Y-33823D01*
X42181Y-33850D01*
X42156Y-33896D01*
X42155Y-33896D01*
X42155Y-33898D01*
X42140Y-33948D01*
X42136Y-33981D01*
X42135Y-33996D01*
X42135Y-33999D01*
X42135Y-34000D01*
X42135Y-35900D01*
X42137Y-35929D01*
X42139Y-35949D01*
X42154Y-35999D01*
X42154Y-36000D01*
X42155Y-36001D01*
X42179Y-36047D01*
X42203Y-36077D01*
X42210Y-36085D01*
X42212Y-36087D01*
X42213Y-36087D01*
X42217Y-36091D01*
X42461Y-36335D01*
X42462Y-36337D01*
X42486Y-36356D01*
X42500Y-36369D01*
X42502Y-36370D01*
X42546Y-36394D01*
X42548Y-36394D01*
X42578Y-36403D01*
X42595Y-36409D01*
X42597Y-36410D01*
X42632Y-36413D01*
X42646Y-36415D01*
X42649Y-36415D01*
X42650Y-36415D01*
X44277Y-36415D01*
X44328Y-36410D01*
X44338Y-36407D01*
X44724Y-36407D01*
X44735Y-36404D01*
X44735Y-37666D01*
X44657Y-37666D01*
X44630Y-37671D01*
X44605Y-37682D01*
X44582Y-37697D01*
X44576Y-37702D01*
X44206Y-37332D01*
X44202Y-37309D01*
X44178Y-37252D01*
X44144Y-37200D01*
X44101Y-37157D01*
X44050Y-37122D01*
X43993Y-37099D01*
X43933Y-37086D01*
X43871Y-37086D01*
X43811Y-37097D01*
X43754Y-37120D01*
X43702Y-37154D01*
X43658Y-37197D01*
X43623Y-37248D01*
X43599Y-37305D01*
X43586Y-37365D01*
X43586Y-37427D01*
X43597Y-37487D01*
X43619Y-37544D01*
X43653Y-37596D01*
X43696Y-37640D01*
X43746Y-37676D01*
X43803Y-37700D01*
X43832Y-37706D01*
X44411Y-38285D01*
X44412Y-38287D01*
X44427Y-38299D01*
X44450Y-38319D01*
X44496Y-38344D01*
X44498Y-38344D01*
X44528Y-38353D01*
X44532Y-38355D01*
X44532Y-38409D01*
X44537Y-38436D01*
X44548Y-38461D01*
X44563Y-38484D01*
X44582Y-38503D01*
X44605Y-38518D01*
X44630Y-38529D01*
X44657Y-38534D01*
X44684Y-38534D01*
X45195Y-38534D01*
X45222Y-38529D01*
X45247Y-38518D01*
X45270Y-38503D01*
X45289Y-38484D01*
X45300Y-38467D01*
X45311Y-38484D01*
X45330Y-38503D01*
X45353Y-38518D01*
X45378Y-38529D01*
X45405Y-38534D01*
X45409Y-38534D01*
X45409Y-38781D01*
X45399Y-38805D01*
X45386Y-38865D01*
X45386Y-38927D01*
X45397Y-38987D01*
X45419Y-39044D01*
X45453Y-39096D01*
X45496Y-39140D01*
X45546Y-39176D01*
X45603Y-39200D01*
X45663Y-39213D01*
X45724Y-39215D01*
X45785Y-39204D01*
X45842Y-39182D01*
X45894Y-39149D01*
X45939Y-39106D01*
X45974Y-39056D01*
X45999Y-38999D01*
X46013Y-38939D01*
X46014Y-38869D01*
X46002Y-38809D01*
X45978Y-38752D01*
X45944Y-38700D01*
X45939Y-38695D01*
X45939Y-38534D01*
X45943Y-38534D01*
X45970Y-38529D01*
X45995Y-38518D01*
X46018Y-38503D01*
X46037Y-38484D01*
X46052Y-38461D01*
X46063Y-38436D01*
X46068Y-38409D01*
X46068Y-38382D01*
X46068Y-37791D01*
X46063Y-37764D01*
X46052Y-37739D01*
X46037Y-37716D01*
X46018Y-37697D01*
X45995Y-37682D01*
X45970Y-37671D01*
X45943Y-37666D01*
X45939Y-37666D01*
X45939Y-37374D01*
X45936Y-37345D01*
X45935Y-37325D01*
X45934Y-37323D01*
X45920Y-37275D01*
X45919Y-37273D01*
X45896Y-37229D01*
X45895Y-37227D01*
X45875Y-37203D01*
X45864Y-37189D01*
X45862Y-37187D01*
X45861Y-37186D01*
X45665Y-36990D01*
X45665Y-36233D01*
X45710Y-36278D01*
X45714Y-36283D01*
X45716Y-36284D01*
X45743Y-36307D01*
X45745Y-36308D01*
X45758Y-36315D01*
X45759Y-36316D01*
X45767Y-36334D01*
X45782Y-36357D01*
X45801Y-36376D01*
X45824Y-36391D01*
X45844Y-36400D01*
X45824Y-36409D01*
X45801Y-36424D01*
X45782Y-36443D01*
X45767Y-36466D01*
X45756Y-36491D01*
X45751Y-36518D01*
X45751Y-36545D01*
X45751Y-36782D01*
X45756Y-36809D01*
X45767Y-36834D01*
X45782Y-36857D01*
X45801Y-36876D01*
X45824Y-36891D01*
X45849Y-36902D01*
X45876Y-36907D01*
X45903Y-36907D01*
X46261Y-36907D01*
X46268Y-36909D01*
X46319Y-36915D01*
X46323Y-36915D01*
X46541Y-36915D01*
X47311Y-37685D01*
X47313Y-37687D01*
X47323Y-37695D01*
X47350Y-37719D01*
X47352Y-37720D01*
X47396Y-37744D01*
X47398Y-37745D01*
X47445Y-37759D01*
X47448Y-37760D01*
X47481Y-37763D01*
X47496Y-37765D01*
X47499Y-37765D01*
X47500Y-37765D01*
X47630Y-37765D01*
X47646Y-37776D01*
X47703Y-37800D01*
X47763Y-37813D01*
X47824Y-37815D01*
X47885Y-37804D01*
X47942Y-37782D01*
X47994Y-37749D01*
X48039Y-37706D01*
X48074Y-37656D01*
X48099Y-37599D01*
X48113Y-37539D01*
X48114Y-37469D01*
X48102Y-37409D01*
X48078Y-37352D01*
X48044Y-37300D01*
X48001Y-37257D01*
X47950Y-37222D01*
X47893Y-37199D01*
X47833Y-37186D01*
X47771Y-37186D01*
X47711Y-37197D01*
X47654Y-37220D01*
X47631Y-37235D01*
X47609Y-37235D01*
X46895Y-36521D01*
X46895Y-36518D01*
X46890Y-36491D01*
X46879Y-36466D01*
X46864Y-36443D01*
X46845Y-36424D01*
X46822Y-36409D01*
X46801Y-36400D01*
X46822Y-36391D01*
X46845Y-36376D01*
X46864Y-36357D01*
X46879Y-36334D01*
X46890Y-36309D01*
X46895Y-36282D01*
X46895Y-36255D01*
X46895Y-36018D01*
X46890Y-35991D01*
X46879Y-35966D01*
X46864Y-35943D01*
X46845Y-35924D01*
X46831Y-35915D01*
X47640Y-35915D01*
X47693Y-35968D01*
X47697Y-35987D01*
X47719Y-36044D01*
X47753Y-36096D01*
X47796Y-36140D01*
X47846Y-36176D01*
X47903Y-36200D01*
X47963Y-36213D01*
X48024Y-36215D01*
X48085Y-36204D01*
X48142Y-36182D01*
X48194Y-36149D01*
X48235Y-36109D01*
X48235Y-39935D01*
X46304Y-39935D01*
X46304Y-39832D01*
X46299Y-39805D01*
X46288Y-39780D01*
X46273Y-39757D01*
X46254Y-39738D01*
X46231Y-39723D01*
X46206Y-39712D01*
X46179Y-39707D01*
X46152Y-39707D01*
X45523Y-39707D01*
X45496Y-39712D01*
X45471Y-39723D01*
X45448Y-39738D01*
X45429Y-39757D01*
X45414Y-39780D01*
X45403Y-39805D01*
X45398Y-39832D01*
X45398Y-39859D01*
X45398Y-40568D01*
X45403Y-40595D01*
X45414Y-40620D01*
X45429Y-40643D01*
X45448Y-40662D01*
X45471Y-40677D01*
X45496Y-40688D01*
X45523Y-40693D01*
X45550Y-40693D01*
X46179Y-40693D01*
X46206Y-40688D01*
X46231Y-40677D01*
X46254Y-40662D01*
X46273Y-40643D01*
X46288Y-40620D01*
X46299Y-40595D01*
X46304Y-40568D01*
X46304Y-40541D01*
X46304Y-40465D01*
X48235Y-40465D01*
X48235Y-45941D01*
X47066Y-47110D01*
X47066Y-45501D01*
X47063Y-45471D01*
X47062Y-45452D01*
X47061Y-45450D01*
X47047Y-45402D01*
X47046Y-45400D01*
X47023Y-45356D01*
X47022Y-45354D01*
X47002Y-45330D01*
X46991Y-45316D01*
X46989Y-45314D01*
X46988Y-45313D01*
X46639Y-44965D01*
X46637Y-44963D01*
X46627Y-44954D01*
X46600Y-44931D01*
X46598Y-44930D01*
X46554Y-44906D01*
X46553Y-44905D01*
X46552Y-44905D01*
X46505Y-44891D01*
X46502Y-44890D01*
X46469Y-44886D01*
X46454Y-44885D01*
X46451Y-44885D01*
X46450Y-44885D01*
X46009Y-44885D01*
X46009Y-44164D01*
X46009Y-44137D01*
X46009Y-43336D01*
X46004Y-43309D01*
X45993Y-43284D01*
X45978Y-43261D01*
X45959Y-43242D01*
X45936Y-43227D01*
X45911Y-43216D01*
X45884Y-43211D01*
X45857Y-43211D01*
X44416Y-43211D01*
X44389Y-43216D01*
X44364Y-43227D01*
X44341Y-43242D01*
X44322Y-43261D01*
X44307Y-43284D01*
X44296Y-43309D01*
X44291Y-43336D01*
X44291Y-43363D01*
X44291Y-44164D01*
X44296Y-44191D01*
X44307Y-44216D01*
X44322Y-44239D01*
X44341Y-44258D01*
X44364Y-44273D01*
X44389Y-44284D01*
X44416Y-44289D01*
X44443Y-44289D01*
X45884Y-44289D01*
X45911Y-44284D01*
X45936Y-44273D01*
X45959Y-44258D01*
X45978Y-44239D01*
X45993Y-44216D01*
X46004Y-44191D01*
X46009Y-44164D01*
X46009Y-44885D01*
X44700Y-44885D01*
X44670Y-44887D01*
X44651Y-44889D01*
X44601Y-44904D01*
X44599Y-44904D01*
X44599Y-44905D01*
X44553Y-44929D01*
X44529Y-44948D01*
X44515Y-44960D01*
X44513Y-44962D01*
X44512Y-44963D01*
X44063Y-45413D01*
X44054Y-45423D01*
X44031Y-45450D01*
X44006Y-45496D01*
X44005Y-45496D01*
X44005Y-45498D01*
X43990Y-45548D01*
X43986Y-45581D01*
X43985Y-45596D01*
X43985Y-45599D01*
X43985Y-45600D01*
X43985Y-45826D01*
X43984Y-45827D01*
X43961Y-45842D01*
X43942Y-45861D01*
X43927Y-45884D01*
X43916Y-45909D01*
X43911Y-45936D01*
X43911Y-45963D01*
X43911Y-46085D01*
X43418Y-46085D01*
X43400Y-46072D01*
X43343Y-46049D01*
X43283Y-46036D01*
X43221Y-46036D01*
X43161Y-46047D01*
X43104Y-46070D01*
X43052Y-46104D01*
X43008Y-46147D01*
X42973Y-46198D01*
X42949Y-46255D01*
X42936Y-46315D01*
X42936Y-46377D01*
X42947Y-46437D01*
X42969Y-46494D01*
X43003Y-46546D01*
X43046Y-46590D01*
X43096Y-46626D01*
X43153Y-46650D01*
X43213Y-46663D01*
X43274Y-46665D01*
X43335Y-46654D01*
X43392Y-46632D01*
X43418Y-46615D01*
X43911Y-46615D01*
X43911Y-46764D01*
X43914Y-46785D01*
X43850Y-46785D01*
X43820Y-46787D01*
X43801Y-46789D01*
X43751Y-46804D01*
X43749Y-46804D01*
X43749Y-46805D01*
X43703Y-46829D01*
X43679Y-46848D01*
X43665Y-46860D01*
X43663Y-46862D01*
X43662Y-46863D01*
X43312Y-47214D01*
X43303Y-47224D01*
X43280Y-47251D01*
X43276Y-47257D01*
X43171Y-47257D01*
X43144Y-47262D01*
X43119Y-47273D01*
X43096Y-47288D01*
X43077Y-47307D01*
X43062Y-47330D01*
X43051Y-47355D01*
X43046Y-47382D01*
X43046Y-47409D01*
X43046Y-48118D01*
X43051Y-48145D01*
X43062Y-48170D01*
X43077Y-48193D01*
X43096Y-48212D01*
X43119Y-48227D01*
X43144Y-48238D01*
X43171Y-48243D01*
X43198Y-48243D01*
X43827Y-48243D01*
X43854Y-48238D01*
X43879Y-48227D01*
X43902Y-48212D01*
X43921Y-48193D01*
X43936Y-48170D01*
X43947Y-48145D01*
X43952Y-48118D01*
X43952Y-48091D01*
X43952Y-47382D01*
X43947Y-47355D01*
X43938Y-47336D01*
X43959Y-47315D01*
X44550Y-47315D01*
X44579Y-47312D01*
X44599Y-47311D01*
X44601Y-47310D01*
X44649Y-47296D01*
X44650Y-47295D01*
X44651Y-47295D01*
X44694Y-47272D01*
X44697Y-47271D01*
X44727Y-47246D01*
X44735Y-47240D01*
X44735Y-47239D01*
X44737Y-47238D01*
X44737Y-47237D01*
X44741Y-47232D01*
X44885Y-47089D01*
X44887Y-47087D01*
X44895Y-47077D01*
X44919Y-47050D01*
X44920Y-47048D01*
X44944Y-47004D01*
X44944Y-47003D01*
X44945Y-47002D01*
X44959Y-46955D01*
X44960Y-46952D01*
X44963Y-46919D01*
X44965Y-46904D01*
X44965Y-46901D01*
X44965Y-46900D01*
X44965Y-45909D01*
X45059Y-45815D01*
X45740Y-45815D01*
X45764Y-45839D01*
X45761Y-45842D01*
X45742Y-45861D01*
X45727Y-45884D01*
X45716Y-45909D01*
X45711Y-45936D01*
X45711Y-45963D01*
X45711Y-46764D01*
X45716Y-46791D01*
X45727Y-46816D01*
X45742Y-46839D01*
X45761Y-46858D01*
X45784Y-46873D01*
X45785Y-46873D01*
X45785Y-46900D01*
X45787Y-46929D01*
X45789Y-46949D01*
X45804Y-46999D01*
X45804Y-47000D01*
X45805Y-47001D01*
X45829Y-47047D01*
X45853Y-47077D01*
X45860Y-47085D01*
X45862Y-47087D01*
X45863Y-47087D01*
X45867Y-47091D01*
X45985Y-47209D01*
X45985Y-49346D01*
X45985Y-49350D01*
X45985Y-49840D01*
X45713Y-50113D01*
X45704Y-50123D01*
X45681Y-50150D01*
X45656Y-50196D01*
X45655Y-50196D01*
X45655Y-50198D01*
X45640Y-50248D01*
X45636Y-50281D01*
X45635Y-50296D01*
X45635Y-50299D01*
X45635Y-50300D01*
X45635Y-50526D01*
X45609Y-50487D01*
X45548Y-50427D01*
X45478Y-50379D01*
X45399Y-50346D01*
X45315Y-50329D01*
X45230Y-50329D01*
X45146Y-50345D01*
X45067Y-50377D01*
X44996Y-50424D01*
X44935Y-50483D01*
X44887Y-50554D01*
X44853Y-50632D01*
X44836Y-50716D01*
X44834Y-50801D01*
X44850Y-50885D01*
X44881Y-50964D01*
X44928Y-51036D01*
X44987Y-51097D01*
X45057Y-51146D01*
X45135Y-51180D01*
X45219Y-51198D01*
X45304Y-51200D01*
X45388Y-51185D01*
X45467Y-51154D01*
X45539Y-51108D01*
X45601Y-51049D01*
X45635Y-51001D01*
X45635Y-51300D01*
X45637Y-51329D01*
X45639Y-51349D01*
X45654Y-51399D01*
X45654Y-51400D01*
X45655Y-51401D01*
X45679Y-51447D01*
X45703Y-51477D01*
X45710Y-51485D01*
X45712Y-51487D01*
X45713Y-51487D01*
X45717Y-51491D01*
X46211Y-51985D01*
X46213Y-51987D01*
X46223Y-51995D01*
X46250Y-52019D01*
X46252Y-52020D01*
X46296Y-52044D01*
X46298Y-52045D01*
X46345Y-52059D01*
X46348Y-52060D01*
X46381Y-52063D01*
X46396Y-52065D01*
X46399Y-52065D01*
X46400Y-52065D01*
X48700Y-52065D01*
X48729Y-52062D01*
X48749Y-52061D01*
X48751Y-52060D01*
X48799Y-52046D01*
X48800Y-52045D01*
X48801Y-52045D01*
X48844Y-52022D01*
X48847Y-52021D01*
X48877Y-51996D01*
X48885Y-51990D01*
X48885Y-51989D01*
X48887Y-51988D01*
X48887Y-51987D01*
X48891Y-51982D01*
X49585Y-51289D01*
X49587Y-51288D01*
X49599Y-51272D01*
X49619Y-51250D01*
X49619Y-51248D01*
X49644Y-51204D01*
X49644Y-51202D01*
X49653Y-51172D01*
X49659Y-51155D01*
X49660Y-51153D01*
X49661Y-51134D01*
X49665Y-51104D01*
X49665Y-51100D01*
X49665Y-39609D01*
X49909Y-39365D01*
X51991Y-39365D01*
X53111Y-40485D01*
X53113Y-40487D01*
X53123Y-40495D01*
X53150Y-40519D01*
X53152Y-40520D01*
X53196Y-40544D01*
X53198Y-40545D01*
X53245Y-40559D01*
X53248Y-40560D01*
X53281Y-40563D01*
X53296Y-40565D01*
X53299Y-40565D01*
X53300Y-40565D01*
X56800Y-40565D01*
X56829Y-40562D01*
X56849Y-40561D01*
X56851Y-40560D01*
X56899Y-40546D01*
X56900Y-40545D01*
X56901Y-40545D01*
X56944Y-40522D01*
X56947Y-40521D01*
X56977Y-40496D01*
X56985Y-40490D01*
X56985Y-40489D01*
X56987Y-40488D01*
X56987Y-40487D01*
X56991Y-40482D01*
X57548Y-39925D01*
X57624Y-39927D01*
X57746Y-39906D01*
X57861Y-39861D01*
X57966Y-39794D01*
X58056Y-39709D01*
X58127Y-39608D01*
X58178Y-39494D01*
X58205Y-39374D01*
X58207Y-39232D01*
X58183Y-39110D01*
X58136Y-38996D01*
X58067Y-38893D01*
X57980Y-38805D01*
X57877Y-38735D01*
X57840Y-38719D01*
X57840Y-35275D01*
X57837Y-35245D01*
X57836Y-35226D01*
X57835Y-35224D01*
X57821Y-35176D01*
X57820Y-35174D01*
X57797Y-35131D01*
X57796Y-35128D01*
X57771Y-35097D01*
X57765Y-35090D01*
X57763Y-35088D01*
X57762Y-35087D01*
X57389Y-34715D01*
X57387Y-34713D01*
X57377Y-34704D01*
X57350Y-34681D01*
X57348Y-34680D01*
X57304Y-34656D01*
X57303Y-34655D01*
X57302Y-34655D01*
X57255Y-34641D01*
X57252Y-34640D01*
X57219Y-34636D01*
X57204Y-34635D01*
X57201Y-34635D01*
X57200Y-34635D01*
X56660Y-34635D01*
X56653Y-34618D01*
X56638Y-34595D01*
X56619Y-34576D01*
X56596Y-34561D01*
X56571Y-34550D01*
X56544Y-34545D01*
X56517Y-34545D01*
X56124Y-34545D01*
X56097Y-34550D01*
X56072Y-34561D01*
X56049Y-34576D01*
X56030Y-34595D01*
X56015Y-34618D01*
X56004Y-34643D01*
X56000Y-34664D01*
X55996Y-34643D01*
X55985Y-34618D01*
X55970Y-34595D01*
X55951Y-34576D01*
X55928Y-34561D01*
X55903Y-34550D01*
X55876Y-34545D01*
X55849Y-34545D01*
X55456Y-34545D01*
X55429Y-34550D01*
X55404Y-34561D01*
X55381Y-34576D01*
X55362Y-34595D01*
X55347Y-34618D01*
X55336Y-34643D01*
X55331Y-34670D01*
X55331Y-34697D01*
X55331Y-34913D01*
X55327Y-34927D01*
X55323Y-34960D01*
X55322Y-34975D01*
X55322Y-34978D01*
X55322Y-34979D01*
X55322Y-35427D01*
X55310Y-35430D01*
X55285Y-35441D01*
X55262Y-35456D01*
X55243Y-35475D01*
X55228Y-35498D01*
X55217Y-35523D01*
X55212Y-35550D01*
X55212Y-35577D01*
X55212Y-36050D01*
X55217Y-36077D01*
X55228Y-36102D01*
X55243Y-36125D01*
X55262Y-36144D01*
X55285Y-36159D01*
X55310Y-36170D01*
X55337Y-36175D01*
X55364Y-36175D01*
X55837Y-36175D01*
X55864Y-36170D01*
X55889Y-36159D01*
X55912Y-36144D01*
X55931Y-36125D01*
X55946Y-36102D01*
X55957Y-36077D01*
X55962Y-36050D01*
X55962Y-36023D01*
X55962Y-35550D01*
X55957Y-35523D01*
X55946Y-35498D01*
X55931Y-35475D01*
X55912Y-35456D01*
X55889Y-35441D01*
X55864Y-35430D01*
X55852Y-35427D01*
X55852Y-35255D01*
X55876Y-35255D01*
X55903Y-35250D01*
X55928Y-35239D01*
X55951Y-35224D01*
X55970Y-35205D01*
X55985Y-35182D01*
X55996Y-35157D01*
X56000Y-35135D01*
X56004Y-35157D01*
X56015Y-35182D01*
X56030Y-35205D01*
X56049Y-35224D01*
X56072Y-35239D01*
X56097Y-35250D01*
X56124Y-35255D01*
X56151Y-35255D01*
X56544Y-35255D01*
X56571Y-35250D01*
X56596Y-35239D01*
X56619Y-35224D01*
X56638Y-35205D01*
X56653Y-35182D01*
X56660Y-35165D01*
X57090Y-35165D01*
X57310Y-35384D01*
X57310Y-38719D01*
X57281Y-38731D01*
X57177Y-38799D01*
X57089Y-38886D01*
X57019Y-38988D01*
X56970Y-39102D01*
X56944Y-39223D01*
X56942Y-39347D01*
X56965Y-39469D01*
X57010Y-39584D01*
X57061Y-39664D01*
X56691Y-40035D01*
X56632Y-40035D01*
X56632Y-39232D01*
X56608Y-39110D01*
X56561Y-38996D01*
X56492Y-38893D01*
X56405Y-38805D01*
X56302Y-38735D01*
X56188Y-38687D01*
X56066Y-38662D01*
X55942Y-38662D01*
X55821Y-38685D01*
X55706Y-38731D01*
X55602Y-38799D01*
X55514Y-38886D01*
X55444Y-38988D01*
X55395Y-39102D01*
X55369Y-39223D01*
X55367Y-39347D01*
X55390Y-39469D01*
X55435Y-39584D01*
X55502Y-39688D01*
X55588Y-39778D01*
X55690Y-39848D01*
X55804Y-39898D01*
X55925Y-39925D01*
X56049Y-39927D01*
X56171Y-39906D01*
X56286Y-39861D01*
X56391Y-39794D01*
X56481Y-39709D01*
X56552Y-39608D01*
X56603Y-39494D01*
X56630Y-39374D01*
X56632Y-39232D01*
X56632Y-40035D01*
X53409Y-40035D01*
X52289Y-38915D01*
X52287Y-38913D01*
X52277Y-38904D01*
X52250Y-38881D01*
X52248Y-38880D01*
X52204Y-38856D01*
X52203Y-38855D01*
X52202Y-38855D01*
X52155Y-38841D01*
X52152Y-38840D01*
X52119Y-38836D01*
X52104Y-38835D01*
X52101Y-38835D01*
X52100Y-38835D01*
X49800Y-38835D01*
X49749Y-38840D01*
X49721Y-38848D01*
X49701Y-38854D01*
X49699Y-38854D01*
X49699Y-38855D01*
X49653Y-38879D01*
X49629Y-38898D01*
X49615Y-38910D01*
X49613Y-38912D01*
X49612Y-38913D01*
X49213Y-39313D01*
X49204Y-39323D01*
X49181Y-39350D01*
X49156Y-39396D01*
X49155Y-39396D01*
X49155Y-39398D01*
X49140Y-39448D01*
X49136Y-39481D01*
X49135Y-39496D01*
X49135Y-39499D01*
X49135Y-39500D01*
X49135Y-50990D01*
X48738Y-51387D01*
X48738Y-50830D01*
X48738Y-50706D01*
X48715Y-50585D01*
X48669Y-50471D01*
X48601Y-50368D01*
X48515Y-50280D01*
X48413Y-50210D01*
X48300Y-50161D01*
X48179Y-50136D01*
X48056Y-50134D01*
X47645Y-50135D01*
X47524Y-50159D01*
X47410Y-50206D01*
X47307Y-50274D01*
X47220Y-50361D01*
X47151Y-50464D01*
X47103Y-50577D01*
X47078Y-50698D01*
X47078Y-50822D01*
X47101Y-50943D01*
X47147Y-51057D01*
X47215Y-51160D01*
X47301Y-51248D01*
X47403Y-51318D01*
X47516Y-51367D01*
X47637Y-51392D01*
X47760Y-51394D01*
X48171Y-51393D01*
X48292Y-51369D01*
X48406Y-51322D01*
X48509Y-51254D01*
X48596Y-51167D01*
X48665Y-51064D01*
X48713Y-50951D01*
X48738Y-50830D01*
X48738Y-51387D01*
X48590Y-51535D01*
X46509Y-51535D01*
X46165Y-51191D01*
X46165Y-51000D01*
X46188Y-51036D01*
X46247Y-51097D01*
X46317Y-51146D01*
X46395Y-51180D01*
X46479Y-51198D01*
X46564Y-51200D01*
X46648Y-51185D01*
X46727Y-51154D01*
X46799Y-51108D01*
X46861Y-51049D01*
X46910Y-50980D01*
X46945Y-50902D01*
X46964Y-50818D01*
X46965Y-50721D01*
X46948Y-50637D01*
X46916Y-50558D01*
X46869Y-50487D01*
X46808Y-50427D01*
X46738Y-50379D01*
X46659Y-50346D01*
X46575Y-50329D01*
X46490Y-50329D01*
X46406Y-50345D01*
X46327Y-50377D01*
X46256Y-50424D01*
X46195Y-50483D01*
X46165Y-50527D01*
X46165Y-50409D01*
X46435Y-50139D01*
X46437Y-50138D01*
X46449Y-50122D01*
X46469Y-50100D01*
X46469Y-50098D01*
X46494Y-50054D01*
X46494Y-50053D01*
X46501Y-50030D01*
X46509Y-50005D01*
X46510Y-50003D01*
X46511Y-49984D01*
X46515Y-49954D01*
X46515Y-49950D01*
X46515Y-49354D01*
X46515Y-49350D01*
X46515Y-48243D01*
X47129Y-48243D01*
X47156Y-48238D01*
X47181Y-48227D01*
X47204Y-48212D01*
X47223Y-48193D01*
X47238Y-48170D01*
X47249Y-48145D01*
X47254Y-48118D01*
X47254Y-48091D01*
X47254Y-47671D01*
X48685Y-46240D01*
X48687Y-46239D01*
X48699Y-46223D01*
X48719Y-46201D01*
X48719Y-46199D01*
X48744Y-46155D01*
X48744Y-46153D01*
X48753Y-46123D01*
X48759Y-46106D01*
X48760Y-46104D01*
X48763Y-46068D01*
X48765Y-46055D01*
X48765Y-46052D01*
X48765Y-46051D01*
X48765Y-40204D01*
X48765Y-40202D01*
X48765Y-40200D01*
X48765Y-35700D01*
X48760Y-35651D01*
X48760Y-35649D01*
X48745Y-35600D01*
X48745Y-35599D01*
X48721Y-35553D01*
X48695Y-35522D01*
X48690Y-35515D01*
X48688Y-35513D01*
X48687Y-35512D01*
X48139Y-34965D01*
X48137Y-34963D01*
X48127Y-34954D01*
X48100Y-34931D01*
X48098Y-34930D01*
X48054Y-34906D01*
X48053Y-34905D01*
X48052Y-34905D01*
X48005Y-34891D01*
X48002Y-34890D01*
X47969Y-34886D01*
X47954Y-34885D01*
X47951Y-34885D01*
X47950Y-34885D01*
X46323Y-34885D01*
X46272Y-34890D01*
X46262Y-34893D01*
X45876Y-34893D01*
X45850Y-34897D01*
X45860Y-34866D01*
X45860Y-34864D01*
X45864Y-34829D01*
X45864Y-34827D01*
X45864Y-34826D01*
X45864Y-34634D01*
X45943Y-34634D01*
X45970Y-34629D01*
X45995Y-34618D01*
X46018Y-34603D01*
X46037Y-34584D01*
X46052Y-34561D01*
X46063Y-34536D01*
X46068Y-34509D01*
X46068Y-34482D01*
X46068Y-33891D01*
X46063Y-33864D01*
X46052Y-33839D01*
X46037Y-33816D01*
X46018Y-33797D01*
X45995Y-33782D01*
X45970Y-33771D01*
X45943Y-33766D01*
X45939Y-33766D01*
X45939Y-33674D01*
X45936Y-33644D01*
X45935Y-33625D01*
X45934Y-33623D01*
X45920Y-33575D01*
X45919Y-33573D01*
X45896Y-33530D01*
X45895Y-33527D01*
X45870Y-33496D01*
X45864Y-33489D01*
X45863Y-33488D01*
X45862Y-33487D01*
X45856Y-33482D01*
X45689Y-33315D01*
X45687Y-33313D01*
X45677Y-33304D01*
X45650Y-33281D01*
X45648Y-33280D01*
X45604Y-33256D01*
X45603Y-33255D01*
X45602Y-33255D01*
X45555Y-33241D01*
X45552Y-33240D01*
X45519Y-33236D01*
X45504Y-33235D01*
X45501Y-33235D01*
X45500Y-33235D01*
X43900Y-33235D01*
X43870Y-33237D01*
X43851Y-33239D01*
X43801Y-33254D01*
X43799Y-33254D01*
X43799Y-33255D01*
X43753Y-33279D01*
X43737Y-33292D01*
X43736Y-33292D01*
X43711Y-33297D01*
X43654Y-33320D01*
X43602Y-33354D01*
X43558Y-33397D01*
X43523Y-33448D01*
X43499Y-33505D01*
X43486Y-33565D01*
X43486Y-33627D01*
X43497Y-33687D01*
X43519Y-33744D01*
X43553Y-33796D01*
X43596Y-33840D01*
X43646Y-33876D01*
X43703Y-33900D01*
X43763Y-33913D01*
X43824Y-33915D01*
X43885Y-33904D01*
X43942Y-33882D01*
X43994Y-33849D01*
X44039Y-33806D01*
X44067Y-33765D01*
X45391Y-33765D01*
X45394Y-33768D01*
X45378Y-33771D01*
X45353Y-33782D01*
X45330Y-33797D01*
X45311Y-33816D01*
X45300Y-33832D01*
X45289Y-33816D01*
X45270Y-33797D01*
X45247Y-33782D01*
X45222Y-33771D01*
X45195Y-33766D01*
X45168Y-33766D01*
X44657Y-33766D01*
X44630Y-33771D01*
X44605Y-33782D01*
X44582Y-33797D01*
X44563Y-33816D01*
X44548Y-33839D01*
X44537Y-33864D01*
X44532Y-33891D01*
X44532Y-33918D01*
X44532Y-34509D01*
X44533Y-34518D01*
X44159Y-34893D01*
X43830Y-34893D01*
X43803Y-34898D01*
X43778Y-34909D01*
X43755Y-34924D01*
X43736Y-34943D01*
X43721Y-34966D01*
X43710Y-34991D01*
X43705Y-35018D01*
X43705Y-35045D01*
X43705Y-35282D01*
X43710Y-35309D01*
X43721Y-35334D01*
X43736Y-35357D01*
X43755Y-35376D01*
X43778Y-35391D01*
X43798Y-35400D01*
X43778Y-35409D01*
X43755Y-35424D01*
X43736Y-35443D01*
X43721Y-35466D01*
X43710Y-35491D01*
X43705Y-35518D01*
X43705Y-35545D01*
X43705Y-35782D01*
X43710Y-35809D01*
X43721Y-35834D01*
X43736Y-35857D01*
X43755Y-35876D01*
X43768Y-35885D01*
X42759Y-35885D01*
X42665Y-35790D01*
X42665Y-34109D01*
X42977Y-33796D01*
X42984Y-33790D01*
X42985Y-33790D01*
X42985Y-33789D01*
X42987Y-33788D01*
X42987Y-33787D01*
X42990Y-33783D01*
X42991Y-33782D01*
X43609Y-33165D01*
X46290Y-33165D01*
X47511Y-34385D01*
X47512Y-34387D01*
X47536Y-34406D01*
X47550Y-34419D01*
X47552Y-34420D01*
X47596Y-34444D01*
X47598Y-34444D01*
X47628Y-34453D01*
X47645Y-34459D01*
X47647Y-34460D01*
X47682Y-34463D01*
X47696Y-34465D01*
X47699Y-34465D01*
X47700Y-34465D01*
X64700Y-34465D01*
X64729Y-34462D01*
X64749Y-34461D01*
X64751Y-34460D01*
X64799Y-34446D01*
X64800Y-34445D01*
X64801Y-34445D01*
X64844Y-34422D01*
X64847Y-34421D01*
X64877Y-34396D01*
X64885Y-34390D01*
X64885Y-34389D01*
X64887Y-34388D01*
X64887Y-34387D01*
X64891Y-34382D01*
X65685Y-33589D01*
X65687Y-33588D01*
X65706Y-33563D01*
X65719Y-33550D01*
X65720Y-33548D01*
X65744Y-33504D01*
X65744Y-33502D01*
X65753Y-33472D01*
X65759Y-33455D01*
X65760Y-33453D01*
X65763Y-33417D01*
X65765Y-33404D01*
X65765Y-33401D01*
X65765Y-33400D01*
X65765Y-32013D01*
X66456Y-31321D01*
X66612Y-31390D01*
X66790Y-31429D01*
X66972Y-31433D01*
X67151Y-31401D01*
X67320Y-31335D01*
X67474Y-31238D01*
X67605Y-31113D01*
X67710Y-30964D01*
X67784Y-30798D01*
X67824Y-30621D01*
X67827Y-30413D01*
X67827Y-43405D01*
X67792Y-43227D01*
X67722Y-43059D01*
X67622Y-42907D01*
X67494Y-42778D01*
X67343Y-42677D01*
X67175Y-42606D01*
X66997Y-42570D01*
X66815Y-42568D01*
X66637Y-42602D01*
X66468Y-42671D01*
X66316Y-42770D01*
X66186Y-42897D01*
X66084Y-43047D01*
X66012Y-43214D01*
X65974Y-43392D01*
X65972Y-43574D01*
X66005Y-43753D01*
X66072Y-43922D01*
X66170Y-44075D01*
X66296Y-44205D01*
X66446Y-44309D01*
X66612Y-44382D01*
X66790Y-44421D01*
X66972Y-44425D01*
X67151Y-44393D01*
X67320Y-44327D01*
X67474Y-44230D01*
X67605Y-44105D01*
X67710Y-43956D01*
X67784Y-43790D01*
X67824Y-43613D01*
X67827Y-43405D01*
X67827Y-52460D01*
X65508Y-52460D01*
X65508Y-47693D01*
X65428Y-47287D01*
X65270Y-46905D01*
X65041Y-46561D01*
X65027Y-46546D01*
X65027Y-43405D01*
X64992Y-43227D01*
X64922Y-43059D01*
X64822Y-42907D01*
X64694Y-42778D01*
X64543Y-42677D01*
X64375Y-42606D01*
X64197Y-42570D01*
X64015Y-42568D01*
X63837Y-42602D01*
X63668Y-42671D01*
X63516Y-42770D01*
X63386Y-42897D01*
X63284Y-43047D01*
X63212Y-43214D01*
X63174Y-43392D01*
X63172Y-43574D01*
X63205Y-43753D01*
X63272Y-43922D01*
X63370Y-44075D01*
X63496Y-44205D01*
X63646Y-44309D01*
X63812Y-44382D01*
X63990Y-44421D01*
X64172Y-44425D01*
X64351Y-44393D01*
X64520Y-44327D01*
X64674Y-44230D01*
X64805Y-44105D01*
X64910Y-43956D01*
X64984Y-43790D01*
X65024Y-43613D01*
X65027Y-43405D01*
X65027Y-46546D01*
X64750Y-46268D01*
X64407Y-46037D01*
X64026Y-45876D01*
X63621Y-45793D01*
X63208Y-45791D01*
X62802Y-45868D01*
X62418Y-46023D01*
X62073Y-46249D01*
X61777Y-46539D01*
X61544Y-46880D01*
X61381Y-47260D01*
X61295Y-47664D01*
X61289Y-48078D01*
X61364Y-48484D01*
X61516Y-48868D01*
X61740Y-49216D01*
X62027Y-49513D01*
X62367Y-49749D01*
X62746Y-49915D01*
X63150Y-50003D01*
X63563Y-50012D01*
X63970Y-49940D01*
X64355Y-49790D01*
X64704Y-49569D01*
X65004Y-49284D01*
X65242Y-48946D01*
X65410Y-48568D01*
X65501Y-48165D01*
X65508Y-47693D01*
X65508Y-52460D01*
X58502Y-52460D01*
X58502Y-44955D01*
X58407Y-44474D01*
X58220Y-44020D01*
X57948Y-43611D01*
X57603Y-43263D01*
X57196Y-42989D01*
X56744Y-42799D01*
X56263Y-42700D01*
X55772Y-42696D01*
X55291Y-42788D01*
X54836Y-42972D01*
X54425Y-43241D01*
X54074Y-43584D01*
X53797Y-43989D01*
X53604Y-44440D01*
X53502Y-44919D01*
X53495Y-45410D01*
X53583Y-45893D01*
X53764Y-46349D01*
X54030Y-46761D01*
X54370Y-47114D01*
X54773Y-47394D01*
X55223Y-47591D01*
X55702Y-47696D01*
X56193Y-47707D01*
X56676Y-47621D01*
X57133Y-47444D01*
X57547Y-47181D01*
X57903Y-46843D01*
X58186Y-46442D01*
X58385Y-45994D01*
X58494Y-45515D01*
X58502Y-44955D01*
X58502Y-52460D01*
X52339Y-52460D01*
X52339Y-40890D01*
X52296Y-40674D01*
X52212Y-40470D01*
X52090Y-40286D01*
X51935Y-40130D01*
X51752Y-40007D01*
X51549Y-39921D01*
X51333Y-39877D01*
X51113Y-39875D01*
X50896Y-39917D01*
X50692Y-39999D01*
X50507Y-40120D01*
X50350Y-40274D01*
X50225Y-40456D01*
X50139Y-40658D01*
X50093Y-40874D01*
X50090Y-41094D01*
X50129Y-41311D01*
X50210Y-41516D01*
X50330Y-41701D01*
X50483Y-41860D01*
X50664Y-41986D01*
X50866Y-42074D01*
X51081Y-42121D01*
X51301Y-42126D01*
X51519Y-42088D01*
X51724Y-42008D01*
X51910Y-41890D01*
X52070Y-41738D01*
X52197Y-41558D01*
X52287Y-41357D01*
X52335Y-41142D01*
X52339Y-40890D01*
X52339Y-52460D01*
X41709Y-52460D01*
X41709Y-40890D01*
X41666Y-40674D01*
X41582Y-40470D01*
X41460Y-40286D01*
X41305Y-40130D01*
X41122Y-40007D01*
X40919Y-39921D01*
X40703Y-39877D01*
X40559Y-39875D01*
X40559Y-38165D01*
X40545Y-38096D01*
X40519Y-38031D01*
X40480Y-37972D01*
X40430Y-37922D01*
X40372Y-37883D01*
X40307Y-37855D01*
X40238Y-37841D01*
X40168Y-37841D01*
X40098Y-37854D01*
X40033Y-37880D01*
X39974Y-37919D01*
X39924Y-37968D01*
X39884Y-38026D01*
X39856Y-38091D01*
X39842Y-38160D01*
X39841Y-38230D01*
X39853Y-38299D01*
X39879Y-38365D01*
X39917Y-38424D01*
X39966Y-38475D01*
X40024Y-38515D01*
X40088Y-38543D01*
X40157Y-38558D01*
X40227Y-38560D01*
X40297Y-38547D01*
X40362Y-38522D01*
X40422Y-38484D01*
X40473Y-38436D01*
X40514Y-38378D01*
X40542Y-38314D01*
X40558Y-38245D01*
X40559Y-38165D01*
X40559Y-39875D01*
X40483Y-39875D01*
X40266Y-39917D01*
X40062Y-39999D01*
X39877Y-40120D01*
X39720Y-40274D01*
X39595Y-40456D01*
X39559Y-40540D01*
X39559Y-37165D01*
X39545Y-37096D01*
X39519Y-37031D01*
X39480Y-36972D01*
X39430Y-36922D01*
X39372Y-36883D01*
X39307Y-36855D01*
X39238Y-36841D01*
X39168Y-36841D01*
X39098Y-36854D01*
X39033Y-36880D01*
X38974Y-36919D01*
X38924Y-36968D01*
X38884Y-37026D01*
X38856Y-37091D01*
X38842Y-37160D01*
X38841Y-37230D01*
X38853Y-37299D01*
X38879Y-37365D01*
X38917Y-37424D01*
X38966Y-37475D01*
X39024Y-37515D01*
X39088Y-37543D01*
X39157Y-37558D01*
X39227Y-37560D01*
X39297Y-37547D01*
X39362Y-37522D01*
X39422Y-37484D01*
X39473Y-37436D01*
X39514Y-37378D01*
X39542Y-37314D01*
X39558Y-37245D01*
X39559Y-37165D01*
X39559Y-40540D01*
X39509Y-40658D01*
X39463Y-40874D01*
X39460Y-41094D01*
X39499Y-41311D01*
X39580Y-41516D01*
X39700Y-41701D01*
X39853Y-41860D01*
X40034Y-41986D01*
X40236Y-42074D01*
X40451Y-42121D01*
X40671Y-42126D01*
X40889Y-42088D01*
X41094Y-42008D01*
X41280Y-41890D01*
X41440Y-41738D01*
X41567Y-41558D01*
X41657Y-41357D01*
X41705Y-41142D01*
X41709Y-40890D01*
X41709Y-52460D01*
X40789Y-52460D01*
X40789Y-47453D01*
X40789Y-46453D01*
X40789Y-45453D01*
X40772Y-45369D01*
X40740Y-45290D01*
X40693Y-45219D01*
X40632Y-45159D01*
X40562Y-45111D01*
X40483Y-45078D01*
X40399Y-45061D01*
X40314Y-45061D01*
X40230Y-45077D01*
X40151Y-45109D01*
X40080Y-45156D01*
X40019Y-45215D01*
X39971Y-45286D01*
X39937Y-45364D01*
X39920Y-45448D01*
X39918Y-45533D01*
X39934Y-45617D01*
X39965Y-45696D01*
X40012Y-45768D01*
X40071Y-45829D01*
X40141Y-45878D01*
X40219Y-45912D01*
X40303Y-45930D01*
X40388Y-45932D01*
X40472Y-45917D01*
X40551Y-45886D01*
X40623Y-45840D01*
X40685Y-45781D01*
X40734Y-45712D01*
X40769Y-45634D01*
X40788Y-45550D01*
X40789Y-45453D01*
X40789Y-46453D01*
X40772Y-46369D01*
X40740Y-46290D01*
X40693Y-46219D01*
X40632Y-46159D01*
X40562Y-46111D01*
X40483Y-46078D01*
X40399Y-46061D01*
X40314Y-46061D01*
X40230Y-46077D01*
X40151Y-46109D01*
X40080Y-46156D01*
X40019Y-46215D01*
X39971Y-46286D01*
X39937Y-46364D01*
X39920Y-46448D01*
X39918Y-46533D01*
X39934Y-46617D01*
X39965Y-46696D01*
X40012Y-46768D01*
X40071Y-46829D01*
X40141Y-46878D01*
X40219Y-46912D01*
X40303Y-46930D01*
X40388Y-46932D01*
X40472Y-46917D01*
X40551Y-46886D01*
X40623Y-46840D01*
X40685Y-46781D01*
X40734Y-46712D01*
X40769Y-46634D01*
X40788Y-46550D01*
X40789Y-46453D01*
X40789Y-47453D01*
X40772Y-47369D01*
X40740Y-47290D01*
X40693Y-47219D01*
X40632Y-47159D01*
X40562Y-47111D01*
X40483Y-47078D01*
X40399Y-47061D01*
X40314Y-47061D01*
X40230Y-47077D01*
X40151Y-47109D01*
X40080Y-47156D01*
X40019Y-47215D01*
X39971Y-47286D01*
X39937Y-47364D01*
X39920Y-47448D01*
X39918Y-47533D01*
X39934Y-47617D01*
X39965Y-47696D01*
X40012Y-47768D01*
X40071Y-47829D01*
X40141Y-47878D01*
X40219Y-47912D01*
X40303Y-47930D01*
X40388Y-47932D01*
X40472Y-47917D01*
X40551Y-47886D01*
X40623Y-47840D01*
X40685Y-47781D01*
X40734Y-47712D01*
X40769Y-47634D01*
X40788Y-47550D01*
X40789Y-47453D01*
X40789Y-52460D01*
X38682Y-52460D01*
X38352Y-52460D01*
X38212Y-52447D01*
X38078Y-52406D01*
X37955Y-52341D01*
X37848Y-52252D01*
X37759Y-52145D01*
X37694Y-52022D01*
X37653Y-51888D01*
X37640Y-51748D01*
X37640Y-14352D01*
X37653Y-14212D01*
X37694Y-14078D01*
X37759Y-13955D01*
X37848Y-13848D01*
X37955Y-13759D01*
X38078Y-13694D01*
X38212Y-13653D01*
X38352Y-13640D01*
X75848Y-13640D01*
X75988Y-13653D01*
X76122Y-13694D01*
X76245Y-13759D01*
X76352Y-13848D01*
X76441Y-13955D01*
X76506Y-14078D01*
X76547Y-14212D01*
X76560Y-14352D01*
X76560Y-51748D01*
X76560Y-51748D01*
G37*
G54D33*
X76560Y-51748D02*
X76547Y-51888D01*
X76506Y-52022D01*
X76441Y-52145D01*
X76352Y-52252D01*
X76245Y-52341D01*
X76240Y-52343D01*
X76240Y-26320D01*
X76240Y-22080D01*
X76232Y-21970D01*
X76205Y-21860D01*
X76162Y-21755D01*
X76102Y-21658D01*
X76028Y-21572D01*
X75942Y-21498D01*
X75845Y-21438D01*
X75740Y-21395D01*
X75630Y-21368D01*
X75520Y-21360D01*
X38680Y-21360D01*
X38541Y-21374D01*
X38407Y-21415D01*
X38282Y-21482D01*
X38172Y-21571D01*
X38098Y-21658D01*
X38038Y-21755D01*
X37995Y-21860D01*
X37968Y-21970D01*
X37960Y-22080D01*
X37960Y-26320D01*
X37968Y-26430D01*
X37995Y-26540D01*
X38038Y-26645D01*
X38098Y-26742D01*
X38172Y-26829D01*
X38282Y-26918D01*
X38407Y-26985D01*
X38541Y-27026D01*
X38680Y-27040D01*
X39503Y-27040D01*
X39768Y-27224D01*
X40199Y-27412D01*
X40659Y-27513D01*
X41130Y-27523D01*
X41593Y-27442D01*
X42032Y-27272D01*
X42396Y-27040D01*
X53204Y-27040D01*
X53126Y-27072D01*
X53047Y-27123D01*
X52979Y-27190D01*
X52926Y-27267D01*
X52888Y-27354D01*
X52869Y-27447D01*
X52867Y-27541D01*
X52868Y-28046D01*
X52886Y-28139D01*
X52922Y-28226D01*
X52975Y-28305D01*
X53035Y-28365D01*
X53035Y-29432D01*
X52991Y-29432D01*
X52964Y-29437D01*
X52939Y-29448D01*
X52916Y-29463D01*
X52897Y-29482D01*
X52882Y-29505D01*
X52871Y-29530D01*
X52866Y-29557D01*
X52866Y-29584D01*
X52866Y-30095D01*
X52871Y-30122D01*
X52882Y-30147D01*
X52897Y-30170D01*
X52916Y-30189D01*
X52932Y-30200D01*
X52916Y-30211D01*
X52897Y-30230D01*
X52882Y-30253D01*
X52871Y-30278D01*
X52866Y-30305D01*
X52866Y-30332D01*
X52866Y-30843D01*
X52871Y-30870D01*
X52882Y-30895D01*
X52897Y-30918D01*
X52916Y-30937D01*
X52939Y-30952D01*
X52964Y-30963D01*
X52991Y-30968D01*
X53018Y-30968D01*
X53035Y-30968D01*
X53035Y-31298D01*
X53035Y-31300D01*
X53040Y-31351D01*
X53046Y-31371D01*
X53054Y-31399D01*
X53054Y-31400D01*
X53055Y-31401D01*
X53078Y-31445D01*
X53079Y-31447D01*
X53111Y-31485D01*
X53112Y-31487D01*
X53136Y-31506D01*
X53150Y-31519D01*
X53152Y-31520D01*
X53196Y-31544D01*
X53197Y-31544D01*
X53219Y-31551D01*
X53245Y-31559D01*
X53247Y-31560D01*
X53286Y-31563D01*
X53296Y-31565D01*
X53298Y-31565D01*
X53300Y-31565D01*
X55835Y-31565D01*
X55835Y-31596D01*
X55835Y-31600D01*
X55835Y-31735D01*
X52909Y-31735D01*
X51389Y-30215D01*
X51387Y-30213D01*
X51377Y-30204D01*
X51350Y-30181D01*
X51348Y-30180D01*
X51304Y-30156D01*
X51303Y-30155D01*
X51302Y-30155D01*
X51255Y-30141D01*
X51252Y-30140D01*
X51219Y-30136D01*
X51204Y-30135D01*
X51201Y-30135D01*
X51200Y-30135D01*
X45700Y-30135D01*
X45649Y-30140D01*
X45627Y-30146D01*
X45600Y-30154D01*
X45585Y-30161D01*
X45553Y-30179D01*
X45522Y-30204D01*
X45515Y-30210D01*
X45513Y-30212D01*
X45512Y-30213D01*
X45487Y-30239D01*
X45478Y-30249D01*
X45455Y-30276D01*
X45430Y-30322D01*
X45429Y-30322D01*
X45429Y-30324D01*
X45414Y-30374D01*
X45410Y-30407D01*
X45409Y-30422D01*
X45409Y-30425D01*
X45409Y-30426D01*
X45409Y-30566D01*
X45405Y-30566D01*
X45378Y-30571D01*
X45353Y-30582D01*
X45330Y-30597D01*
X45311Y-30616D01*
X45296Y-30639D01*
X45285Y-30664D01*
X45280Y-30691D01*
X45280Y-30718D01*
X45280Y-31309D01*
X45285Y-31336D01*
X45296Y-31361D01*
X45311Y-31384D01*
X45330Y-31403D01*
X45353Y-31418D01*
X45378Y-31429D01*
X45405Y-31434D01*
X45409Y-31434D01*
X45409Y-31766D01*
X45405Y-31766D01*
X45378Y-31771D01*
X45353Y-31782D01*
X45330Y-31797D01*
X45311Y-31816D01*
X45300Y-31832D01*
X45289Y-31816D01*
X45270Y-31797D01*
X45247Y-31782D01*
X45222Y-31771D01*
X45195Y-31766D01*
X45168Y-31766D01*
X44657Y-31766D01*
X44630Y-31771D01*
X44605Y-31782D01*
X44582Y-31797D01*
X44563Y-31816D01*
X44548Y-31839D01*
X44537Y-31864D01*
X44532Y-31891D01*
X44532Y-31918D01*
X44532Y-31935D01*
X43968Y-31935D01*
X43950Y-31922D01*
X43893Y-31899D01*
X43833Y-31886D01*
X43771Y-31886D01*
X43711Y-31897D01*
X43654Y-31920D01*
X43602Y-31954D01*
X43558Y-31997D01*
X43523Y-32048D01*
X43499Y-32105D01*
X43486Y-32165D01*
X43486Y-32227D01*
X43497Y-32287D01*
X43519Y-32344D01*
X43553Y-32396D01*
X43596Y-32440D01*
X43646Y-32476D01*
X43703Y-32500D01*
X43763Y-32513D01*
X43824Y-32515D01*
X43885Y-32504D01*
X43942Y-32482D01*
X43968Y-32465D01*
X44532Y-32465D01*
X44532Y-32509D01*
X44537Y-32536D01*
X44548Y-32561D01*
X44563Y-32584D01*
X44582Y-32603D01*
X44605Y-32618D01*
X44630Y-32629D01*
X44657Y-32634D01*
X44684Y-32634D01*
X45195Y-32634D01*
X45222Y-32629D01*
X45247Y-32618D01*
X45270Y-32603D01*
X45289Y-32584D01*
X45300Y-32567D01*
X45311Y-32584D01*
X45330Y-32603D01*
X45353Y-32618D01*
X45378Y-32629D01*
X45405Y-32634D01*
X45432Y-32634D01*
X45943Y-32634D01*
X45970Y-32629D01*
X45995Y-32618D01*
X46018Y-32603D01*
X46037Y-32584D01*
X46052Y-32561D01*
X46063Y-32536D01*
X46068Y-32509D01*
X46068Y-32482D01*
X46068Y-31891D01*
X46066Y-31884D01*
X46103Y-31900D01*
X46163Y-31913D01*
X46224Y-31915D01*
X46285Y-31904D01*
X46342Y-31882D01*
X46394Y-31849D01*
X46439Y-31806D01*
X46474Y-31756D01*
X46499Y-31699D01*
X46513Y-31639D01*
X46514Y-31569D01*
X46502Y-31509D01*
X46478Y-31452D01*
X46444Y-31400D01*
X46401Y-31357D01*
X46350Y-31322D01*
X46293Y-31299D01*
X46268Y-31293D01*
X46068Y-31093D01*
X46068Y-30691D01*
X46063Y-30665D01*
X51090Y-30665D01*
X52611Y-32185D01*
X52612Y-32187D01*
X52627Y-32199D01*
X52650Y-32219D01*
X52696Y-32244D01*
X52698Y-32244D01*
X52728Y-32253D01*
X52745Y-32259D01*
X52747Y-32260D01*
X52782Y-32263D01*
X52796Y-32265D01*
X52799Y-32265D01*
X52800Y-32265D01*
X56098Y-32265D01*
X56100Y-32265D01*
X56150Y-32260D01*
X56151Y-32260D01*
X56171Y-32254D01*
X56199Y-32246D01*
X56200Y-32245D01*
X56201Y-32245D01*
X56245Y-32222D01*
X56247Y-32221D01*
X56285Y-32189D01*
X56287Y-32188D01*
X56306Y-32163D01*
X56319Y-32150D01*
X56320Y-32148D01*
X56344Y-32104D01*
X56344Y-32103D01*
X56351Y-32080D01*
X56359Y-32055D01*
X56360Y-32053D01*
X56363Y-32014D01*
X56365Y-32004D01*
X56365Y-32002D01*
X56365Y-32000D01*
X56365Y-31604D01*
X56365Y-31600D01*
X56365Y-31565D01*
X58898Y-31565D01*
X58900Y-31565D01*
X58950Y-31560D01*
X58951Y-31560D01*
X58971Y-31554D01*
X58999Y-31546D01*
X59000Y-31545D01*
X59001Y-31545D01*
X59045Y-31522D01*
X59047Y-31521D01*
X59085Y-31489D01*
X59087Y-31488D01*
X59106Y-31463D01*
X59119Y-31450D01*
X59120Y-31448D01*
X59144Y-31404D01*
X59144Y-31403D01*
X59151Y-31380D01*
X59159Y-31355D01*
X59160Y-31353D01*
X59163Y-31314D01*
X59165Y-31304D01*
X59165Y-31302D01*
X59165Y-31300D01*
X59165Y-30968D01*
X59209Y-30968D01*
X59236Y-30963D01*
X59261Y-30952D01*
X59284Y-30937D01*
X59303Y-30918D01*
X59318Y-30895D01*
X59329Y-30870D01*
X59334Y-30843D01*
X59334Y-30816D01*
X59334Y-30305D01*
X59329Y-30278D01*
X59318Y-30253D01*
X59303Y-30230D01*
X59284Y-30211D01*
X59267Y-30200D01*
X59284Y-30189D01*
X59303Y-30170D01*
X59318Y-30147D01*
X59329Y-30122D01*
X59334Y-30095D01*
X59334Y-30068D01*
X59334Y-29557D01*
X59329Y-29530D01*
X59318Y-29505D01*
X59303Y-29482D01*
X59284Y-29463D01*
X59261Y-29448D01*
X59236Y-29437D01*
X59209Y-29432D01*
X59182Y-29432D01*
X59165Y-29432D01*
X59165Y-28365D01*
X59221Y-28310D01*
X59274Y-28233D01*
X59312Y-28146D01*
X59331Y-28053D01*
X59333Y-27959D01*
X59332Y-27454D01*
X59314Y-27361D01*
X59278Y-27274D01*
X59225Y-27195D01*
X59159Y-27128D01*
X59081Y-27075D01*
X58997Y-27040D01*
X59704Y-27040D01*
X59626Y-27072D01*
X59547Y-27123D01*
X59479Y-27190D01*
X59426Y-27267D01*
X59388Y-27354D01*
X59369Y-27447D01*
X59367Y-27541D01*
X59368Y-28046D01*
X59386Y-28139D01*
X59422Y-28226D01*
X59475Y-28305D01*
X59541Y-28372D01*
X59619Y-28425D01*
X59707Y-28462D01*
X59799Y-28481D01*
X59894Y-28481D01*
X59986Y-28464D01*
X60074Y-28428D01*
X60153Y-28377D01*
X60221Y-28310D01*
X60274Y-28233D01*
X60312Y-28146D01*
X60331Y-28053D01*
X60333Y-27959D01*
X60332Y-27454D01*
X60314Y-27361D01*
X60278Y-27274D01*
X60225Y-27195D01*
X60159Y-27128D01*
X60081Y-27075D01*
X59997Y-27040D01*
X60704Y-27040D01*
X60626Y-27072D01*
X60547Y-27123D01*
X60479Y-27190D01*
X60426Y-27267D01*
X60388Y-27354D01*
X60369Y-27447D01*
X60367Y-27541D01*
X60368Y-28046D01*
X60386Y-28139D01*
X60422Y-28226D01*
X60475Y-28305D01*
X60541Y-28372D01*
X60619Y-28425D01*
X60707Y-28462D01*
X60799Y-28481D01*
X60894Y-28481D01*
X60986Y-28464D01*
X61074Y-28428D01*
X61153Y-28377D01*
X61221Y-28310D01*
X61274Y-28233D01*
X61312Y-28146D01*
X61331Y-28053D01*
X61333Y-27959D01*
X61332Y-27454D01*
X61314Y-27361D01*
X61278Y-27274D01*
X61225Y-27195D01*
X61159Y-27128D01*
X61081Y-27075D01*
X60997Y-27040D01*
X71787Y-27040D01*
X72052Y-27224D01*
X72483Y-27412D01*
X72943Y-27513D01*
X73414Y-27523D01*
X73877Y-27442D01*
X74316Y-27272D01*
X74680Y-27040D01*
X75520Y-27040D01*
X75630Y-27032D01*
X75740Y-27005D01*
X75845Y-26962D01*
X75942Y-26902D01*
X76028Y-26828D01*
X76102Y-26742D01*
X76162Y-26645D01*
X76205Y-26540D01*
X76232Y-26430D01*
X76240Y-26320D01*
X76240Y-52343D01*
X76122Y-52406D01*
X75988Y-52447D01*
X75848Y-52460D01*
X75608Y-52460D01*
X75608Y-44293D01*
X75608Y-37293D01*
X75528Y-36887D01*
X75370Y-36505D01*
X75141Y-36161D01*
X74850Y-35868D01*
X74624Y-35715D01*
X74624Y-33190D01*
X74624Y-28790D01*
X74581Y-28574D01*
X74497Y-28370D01*
X74375Y-28186D01*
X74220Y-28030D01*
X74037Y-27907D01*
X73834Y-27821D01*
X73618Y-27777D01*
X73398Y-27775D01*
X73181Y-27817D01*
X72977Y-27899D01*
X72792Y-28020D01*
X72635Y-28174D01*
X72510Y-28356D01*
X72424Y-28558D01*
X72378Y-28774D01*
X72375Y-28994D01*
X72414Y-29211D01*
X72495Y-29416D01*
X72615Y-29601D01*
X72768Y-29760D01*
X72949Y-29886D01*
X73151Y-29974D01*
X73366Y-30021D01*
X73586Y-30026D01*
X73804Y-29988D01*
X74009Y-29908D01*
X74195Y-29790D01*
X74355Y-29638D01*
X74482Y-29458D01*
X74572Y-29257D01*
X74620Y-29042D01*
X74624Y-28790D01*
X74624Y-33190D01*
X74581Y-32974D01*
X74497Y-32770D01*
X74375Y-32586D01*
X74220Y-32430D01*
X74037Y-32307D01*
X73834Y-32221D01*
X73618Y-32177D01*
X73398Y-32175D01*
X73181Y-32217D01*
X72977Y-32299D01*
X72792Y-32420D01*
X72635Y-32574D01*
X72510Y-32756D01*
X72424Y-32958D01*
X72378Y-33174D01*
X72375Y-33394D01*
X72414Y-33611D01*
X72495Y-33816D01*
X72615Y-34001D01*
X72768Y-34160D01*
X72949Y-34286D01*
X73151Y-34374D01*
X73366Y-34421D01*
X73586Y-34426D01*
X73804Y-34388D01*
X74009Y-34308D01*
X74195Y-34190D01*
X74355Y-34038D01*
X74482Y-33858D01*
X74572Y-33657D01*
X74620Y-33442D01*
X74624Y-33190D01*
X74624Y-35715D01*
X74507Y-35637D01*
X74126Y-35476D01*
X73721Y-35393D01*
X73308Y-35391D01*
X72902Y-35468D01*
X72518Y-35623D01*
X72173Y-35849D01*
X71877Y-36139D01*
X71644Y-36480D01*
X71481Y-36860D01*
X71395Y-37264D01*
X71389Y-37678D01*
X71464Y-38084D01*
X71616Y-38468D01*
X71840Y-38816D01*
X72127Y-39113D01*
X72467Y-39349D01*
X72846Y-39515D01*
X73250Y-39603D01*
X73663Y-39612D01*
X74070Y-39540D01*
X74455Y-39390D01*
X74804Y-39169D01*
X75104Y-38884D01*
X75342Y-38546D01*
X75510Y-38168D01*
X75601Y-37765D01*
X75608Y-37293D01*
X75608Y-44293D01*
X75528Y-43887D01*
X75370Y-43505D01*
X75141Y-43161D01*
X74850Y-42868D01*
X74507Y-42637D01*
X74126Y-42476D01*
X73721Y-42393D01*
X73308Y-42391D01*
X72902Y-42468D01*
X72518Y-42623D01*
X72173Y-42849D01*
X71877Y-43139D01*
X71644Y-43480D01*
X71481Y-43860D01*
X71395Y-44264D01*
X71389Y-44678D01*
X71464Y-45084D01*
X71616Y-45468D01*
X71840Y-45816D01*
X72127Y-46113D01*
X72467Y-46349D01*
X72846Y-46515D01*
X73250Y-46603D01*
X73663Y-46612D01*
X74070Y-46540D01*
X74455Y-46390D01*
X74804Y-46169D01*
X75104Y-45884D01*
X75342Y-45546D01*
X75510Y-45168D01*
X75601Y-44765D01*
X75608Y-44293D01*
X75608Y-52460D01*
X67827Y-52460D01*
X67827Y-43405D01*
X67827Y-30413D01*
X67792Y-30235D01*
X67722Y-30067D01*
X67622Y-29915D01*
X67494Y-29786D01*
X67343Y-29685D01*
X67175Y-29614D01*
X66997Y-29578D01*
X66815Y-29576D01*
X66637Y-29610D01*
X66468Y-29679D01*
X66316Y-29778D01*
X66186Y-29905D01*
X66084Y-30055D01*
X66012Y-30222D01*
X65974Y-30400D01*
X65972Y-30582D01*
X66005Y-30761D01*
X66072Y-30930D01*
X66082Y-30946D01*
X65313Y-31717D01*
X65304Y-31727D01*
X65281Y-31754D01*
X65256Y-31800D01*
X65255Y-31800D01*
X65255Y-31802D01*
X65240Y-31852D01*
X65236Y-31885D01*
X65235Y-31900D01*
X65235Y-31903D01*
X65235Y-31904D01*
X65235Y-33290D01*
X65027Y-33498D01*
X65027Y-30413D01*
X64992Y-30235D01*
X64922Y-30067D01*
X64822Y-29915D01*
X64694Y-29786D01*
X64543Y-29685D01*
X64375Y-29614D01*
X64197Y-29578D01*
X64015Y-29576D01*
X63837Y-29610D01*
X63668Y-29679D01*
X63516Y-29778D01*
X63386Y-29905D01*
X63284Y-30055D01*
X63212Y-30222D01*
X63174Y-30400D01*
X63172Y-30582D01*
X63205Y-30761D01*
X63272Y-30930D01*
X63370Y-31083D01*
X63496Y-31213D01*
X63646Y-31317D01*
X63812Y-31390D01*
X63990Y-31429D01*
X64172Y-31433D01*
X64351Y-31401D01*
X64520Y-31335D01*
X64674Y-31238D01*
X64805Y-31113D01*
X64910Y-30964D01*
X64984Y-30798D01*
X65024Y-30621D01*
X65027Y-30413D01*
X65027Y-33498D01*
X64590Y-33935D01*
X47809Y-33935D01*
X46589Y-32715D01*
X46587Y-32713D01*
X46577Y-32704D01*
X46550Y-32681D01*
X46548Y-32680D01*
X46504Y-32656D01*
X46503Y-32655D01*
X46502Y-32655D01*
X46455Y-32641D01*
X46452Y-32640D01*
X46419Y-32636D01*
X46404Y-32635D01*
X46401Y-32635D01*
X46400Y-32635D01*
X43500Y-32635D01*
X43449Y-32640D01*
X43399Y-32655D01*
X43353Y-32679D01*
X43322Y-32704D01*
X43315Y-32710D01*
X43313Y-32712D01*
X43312Y-32713D01*
X42619Y-33406D01*
X42618Y-33407D01*
X42615Y-33410D01*
X42613Y-33412D01*
X42612Y-33413D01*
X42213Y-33813D01*
X42204Y-33823D01*
X42181Y-33850D01*
X42156Y-33896D01*
X42155Y-33896D01*
X42155Y-33898D01*
X42140Y-33948D01*
X42136Y-33981D01*
X42135Y-33996D01*
X42135Y-33999D01*
X42135Y-34000D01*
X42135Y-35900D01*
X42137Y-35929D01*
X42139Y-35949D01*
X42154Y-35999D01*
X42154Y-36000D01*
X42155Y-36001D01*
X42179Y-36047D01*
X42203Y-36077D01*
X42210Y-36085D01*
X42212Y-36087D01*
X42213Y-36087D01*
X42217Y-36091D01*
X42461Y-36335D01*
X42462Y-36337D01*
X42486Y-36356D01*
X42500Y-36369D01*
X42502Y-36370D01*
X42546Y-36394D01*
X42548Y-36394D01*
X42578Y-36403D01*
X42595Y-36409D01*
X42597Y-36410D01*
X42632Y-36413D01*
X42646Y-36415D01*
X42649Y-36415D01*
X42650Y-36415D01*
X44277Y-36415D01*
X44328Y-36410D01*
X44338Y-36407D01*
X44724Y-36407D01*
X44735Y-36404D01*
X44735Y-37666D01*
X44657Y-37666D01*
X44630Y-37671D01*
X44605Y-37682D01*
X44582Y-37697D01*
X44576Y-37702D01*
X44206Y-37332D01*
X44202Y-37309D01*
X44178Y-37252D01*
X44144Y-37200D01*
X44101Y-37157D01*
X44050Y-37122D01*
X43993Y-37099D01*
X43933Y-37086D01*
X43871Y-37086D01*
X43811Y-37097D01*
X43754Y-37120D01*
X43702Y-37154D01*
X43658Y-37197D01*
X43623Y-37248D01*
X43599Y-37305D01*
X43586Y-37365D01*
X43586Y-37427D01*
X43597Y-37487D01*
X43619Y-37544D01*
X43653Y-37596D01*
X43696Y-37640D01*
X43746Y-37676D01*
X43803Y-37700D01*
X43832Y-37706D01*
X44411Y-38285D01*
X44412Y-38287D01*
X44427Y-38299D01*
X44450Y-38319D01*
X44496Y-38344D01*
X44498Y-38344D01*
X44528Y-38353D01*
X44532Y-38355D01*
X44532Y-38409D01*
X44537Y-38436D01*
X44548Y-38461D01*
X44563Y-38484D01*
X44582Y-38503D01*
X44605Y-38518D01*
X44630Y-38529D01*
X44657Y-38534D01*
X44684Y-38534D01*
X45195Y-38534D01*
X45222Y-38529D01*
X45247Y-38518D01*
X45270Y-38503D01*
X45289Y-38484D01*
X45300Y-38467D01*
X45311Y-38484D01*
X45330Y-38503D01*
X45353Y-38518D01*
X45378Y-38529D01*
X45405Y-38534D01*
X45409Y-38534D01*
X45409Y-38781D01*
X45399Y-38805D01*
X45386Y-38865D01*
X45386Y-38927D01*
X45397Y-38987D01*
X45419Y-39044D01*
X45453Y-39096D01*
X45496Y-39140D01*
X45546Y-39176D01*
X45603Y-39200D01*
X45663Y-39213D01*
X45724Y-39215D01*
X45785Y-39204D01*
X45842Y-39182D01*
X45894Y-39149D01*
X45939Y-39106D01*
X45974Y-39056D01*
X45999Y-38999D01*
X46013Y-38939D01*
X46014Y-38869D01*
X46002Y-38809D01*
X45978Y-38752D01*
X45944Y-38700D01*
X45939Y-38695D01*
X45939Y-38534D01*
X45943Y-38534D01*
X45970Y-38529D01*
X45995Y-38518D01*
X46018Y-38503D01*
X46037Y-38484D01*
X46052Y-38461D01*
X46063Y-38436D01*
X46068Y-38409D01*
X46068Y-38382D01*
X46068Y-37791D01*
X46063Y-37764D01*
X46052Y-37739D01*
X46037Y-37716D01*
X46018Y-37697D01*
X45995Y-37682D01*
X45970Y-37671D01*
X45943Y-37666D01*
X45939Y-37666D01*
X45939Y-37374D01*
X45936Y-37345D01*
X45935Y-37325D01*
X45934Y-37323D01*
X45920Y-37275D01*
X45919Y-37273D01*
X45896Y-37229D01*
X45895Y-37227D01*
X45875Y-37203D01*
X45864Y-37189D01*
X45862Y-37187D01*
X45861Y-37186D01*
X45665Y-36990D01*
X45665Y-36233D01*
X45710Y-36278D01*
X45714Y-36283D01*
X45716Y-36284D01*
X45743Y-36307D01*
X45745Y-36308D01*
X45758Y-36315D01*
X45759Y-36316D01*
X45767Y-36334D01*
X45782Y-36357D01*
X45801Y-36376D01*
X45824Y-36391D01*
X45844Y-36400D01*
X45824Y-36409D01*
X45801Y-36424D01*
X45782Y-36443D01*
X45767Y-36466D01*
X45756Y-36491D01*
X45751Y-36518D01*
X45751Y-36545D01*
X45751Y-36782D01*
X45756Y-36809D01*
X45767Y-36834D01*
X45782Y-36857D01*
X45801Y-36876D01*
X45824Y-36891D01*
X45849Y-36902D01*
X45876Y-36907D01*
X45903Y-36907D01*
X46261Y-36907D01*
X46268Y-36909D01*
X46319Y-36915D01*
X46323Y-36915D01*
X46541Y-36915D01*
X47311Y-37685D01*
X47313Y-37687D01*
X47323Y-37695D01*
X47350Y-37719D01*
X47352Y-37720D01*
X47396Y-37744D01*
X47398Y-37745D01*
X47445Y-37759D01*
X47448Y-37760D01*
X47481Y-37763D01*
X47496Y-37765D01*
X47499Y-37765D01*
X47500Y-37765D01*
X47630Y-37765D01*
X47646Y-37776D01*
X47703Y-37800D01*
X47763Y-37813D01*
X47824Y-37815D01*
X47885Y-37804D01*
X47942Y-37782D01*
X47994Y-37749D01*
X48039Y-37706D01*
X48074Y-37656D01*
X48099Y-37599D01*
X48113Y-37539D01*
X48114Y-37469D01*
X48102Y-37409D01*
X48078Y-37352D01*
X48044Y-37300D01*
X48001Y-37257D01*
X47950Y-37222D01*
X47893Y-37199D01*
X47833Y-37186D01*
X47771Y-37186D01*
X47711Y-37197D01*
X47654Y-37220D01*
X47631Y-37235D01*
X47609Y-37235D01*
X46895Y-36521D01*
X46895Y-36518D01*
X46890Y-36491D01*
X46879Y-36466D01*
X46864Y-36443D01*
X46845Y-36424D01*
X46822Y-36409D01*
X46801Y-36400D01*
X46822Y-36391D01*
X46845Y-36376D01*
X46864Y-36357D01*
X46879Y-36334D01*
X46890Y-36309D01*
X46895Y-36282D01*
X46895Y-36255D01*
X46895Y-36018D01*
X46890Y-35991D01*
X46879Y-35966D01*
X46864Y-35943D01*
X46845Y-35924D01*
X46831Y-35915D01*
X47640Y-35915D01*
X47693Y-35968D01*
X47697Y-35987D01*
X47719Y-36044D01*
X47753Y-36096D01*
X47796Y-36140D01*
X47846Y-36176D01*
X47903Y-36200D01*
X47963Y-36213D01*
X48024Y-36215D01*
X48085Y-36204D01*
X48142Y-36182D01*
X48194Y-36149D01*
X48235Y-36109D01*
X48235Y-39935D01*
X46304Y-39935D01*
X46304Y-39832D01*
X46299Y-39805D01*
X46288Y-39780D01*
X46273Y-39757D01*
X46254Y-39738D01*
X46231Y-39723D01*
X46206Y-39712D01*
X46179Y-39707D01*
X46152Y-39707D01*
X45523Y-39707D01*
X45496Y-39712D01*
X45471Y-39723D01*
X45448Y-39738D01*
X45429Y-39757D01*
X45414Y-39780D01*
X45403Y-39805D01*
X45398Y-39832D01*
X45398Y-39859D01*
X45398Y-40568D01*
X45403Y-40595D01*
X45414Y-40620D01*
X45429Y-40643D01*
X45448Y-40662D01*
X45471Y-40677D01*
X45496Y-40688D01*
X45523Y-40693D01*
X45550Y-40693D01*
X46179Y-40693D01*
X46206Y-40688D01*
X46231Y-40677D01*
X46254Y-40662D01*
X46273Y-40643D01*
X46288Y-40620D01*
X46299Y-40595D01*
X46304Y-40568D01*
X46304Y-40541D01*
X46304Y-40465D01*
X48235Y-40465D01*
X48235Y-45941D01*
X47066Y-47110D01*
X47066Y-45501D01*
X47063Y-45471D01*
X47062Y-45452D01*
X47061Y-45450D01*
X47047Y-45402D01*
X47046Y-45400D01*
X47023Y-45356D01*
X47022Y-45354D01*
X47002Y-45330D01*
X46991Y-45316D01*
X46989Y-45314D01*
X46988Y-45313D01*
X46639Y-44965D01*
X46637Y-44963D01*
X46627Y-44954D01*
X46600Y-44931D01*
X46598Y-44930D01*
X46554Y-44906D01*
X46553Y-44905D01*
X46552Y-44905D01*
X46505Y-44891D01*
X46502Y-44890D01*
X46469Y-44886D01*
X46454Y-44885D01*
X46451Y-44885D01*
X46450Y-44885D01*
X46009Y-44885D01*
X46009Y-44164D01*
X46009Y-44137D01*
X46009Y-43336D01*
X46004Y-43309D01*
X45993Y-43284D01*
X45978Y-43261D01*
X45959Y-43242D01*
X45936Y-43227D01*
X45911Y-43216D01*
X45884Y-43211D01*
X45857Y-43211D01*
X44416Y-43211D01*
X44389Y-43216D01*
X44364Y-43227D01*
X44341Y-43242D01*
X44322Y-43261D01*
X44307Y-43284D01*
X44296Y-43309D01*
X44291Y-43336D01*
X44291Y-43363D01*
X44291Y-44164D01*
X44296Y-44191D01*
X44307Y-44216D01*
X44322Y-44239D01*
X44341Y-44258D01*
X44364Y-44273D01*
X44389Y-44284D01*
X44416Y-44289D01*
X44443Y-44289D01*
X45884Y-44289D01*
X45911Y-44284D01*
X45936Y-44273D01*
X45959Y-44258D01*
X45978Y-44239D01*
X45993Y-44216D01*
X46004Y-44191D01*
X46009Y-44164D01*
X46009Y-44885D01*
X44700Y-44885D01*
X44670Y-44887D01*
X44651Y-44889D01*
X44601Y-44904D01*
X44599Y-44904D01*
X44599Y-44905D01*
X44553Y-44929D01*
X44529Y-44948D01*
X44515Y-44960D01*
X44513Y-44962D01*
X44512Y-44963D01*
X44063Y-45413D01*
X44054Y-45423D01*
X44031Y-45450D01*
X44006Y-45496D01*
X44005Y-45496D01*
X44005Y-45498D01*
X43990Y-45548D01*
X43986Y-45581D01*
X43985Y-45596D01*
X43985Y-45599D01*
X43985Y-45600D01*
X43985Y-45826D01*
X43984Y-45827D01*
X43961Y-45842D01*
X43942Y-45861D01*
X43927Y-45884D01*
X43916Y-45909D01*
X43911Y-45936D01*
X43911Y-45963D01*
X43911Y-46085D01*
X43418Y-46085D01*
X43400Y-46072D01*
X43343Y-46049D01*
X43283Y-46036D01*
X43221Y-46036D01*
X43161Y-46047D01*
X43104Y-46070D01*
X43052Y-46104D01*
X43008Y-46147D01*
X42973Y-46198D01*
X42949Y-46255D01*
X42936Y-46315D01*
X42936Y-46377D01*
X42947Y-46437D01*
X42969Y-46494D01*
X43003Y-46546D01*
X43046Y-46590D01*
X43096Y-46626D01*
X43153Y-46650D01*
X43213Y-46663D01*
X43274Y-46665D01*
X43335Y-46654D01*
X43392Y-46632D01*
X43418Y-46615D01*
X43911Y-46615D01*
X43911Y-46764D01*
X43914Y-46785D01*
X43850Y-46785D01*
X43820Y-46787D01*
X43801Y-46789D01*
X43751Y-46804D01*
X43749Y-46804D01*
X43749Y-46805D01*
X43703Y-46829D01*
X43679Y-46848D01*
X43665Y-46860D01*
X43663Y-46862D01*
X43662Y-46863D01*
X43312Y-47214D01*
X43303Y-47224D01*
X43280Y-47251D01*
X43276Y-47257D01*
X43171Y-47257D01*
X43144Y-47262D01*
X43119Y-47273D01*
X43096Y-47288D01*
X43077Y-47307D01*
X43062Y-47330D01*
X43051Y-47355D01*
X43046Y-47382D01*
X43046Y-47409D01*
X43046Y-48118D01*
X43051Y-48145D01*
X43062Y-48170D01*
X43077Y-48193D01*
X43096Y-48212D01*
X43119Y-48227D01*
X43144Y-48238D01*
X43171Y-48243D01*
X43198Y-48243D01*
X43827Y-48243D01*
X43854Y-48238D01*
X43879Y-48227D01*
X43902Y-48212D01*
X43921Y-48193D01*
X43936Y-48170D01*
X43947Y-48145D01*
X43952Y-48118D01*
X43952Y-48091D01*
X43952Y-47382D01*
X43947Y-47355D01*
X43938Y-47336D01*
X43959Y-47315D01*
X44550Y-47315D01*
X44579Y-47312D01*
X44599Y-47311D01*
X44601Y-47310D01*
X44649Y-47296D01*
X44650Y-47295D01*
X44651Y-47295D01*
X44694Y-47272D01*
X44697Y-47271D01*
X44727Y-47246D01*
X44735Y-47240D01*
X44735Y-47239D01*
X44737Y-47238D01*
X44737Y-47237D01*
X44741Y-47232D01*
X44885Y-47089D01*
X44887Y-47087D01*
X44895Y-47077D01*
X44919Y-47050D01*
X44920Y-47048D01*
X44944Y-47004D01*
X44944Y-47003D01*
X44945Y-47002D01*
X44959Y-46955D01*
X44960Y-46952D01*
X44963Y-46919D01*
X44965Y-46904D01*
X44965Y-46901D01*
X44965Y-46900D01*
X44965Y-45909D01*
X45059Y-45815D01*
X45740Y-45815D01*
X45764Y-45839D01*
X45761Y-45842D01*
X45742Y-45861D01*
X45727Y-45884D01*
X45716Y-45909D01*
X45711Y-45936D01*
X45711Y-45963D01*
X45711Y-46764D01*
X45716Y-46791D01*
X45727Y-46816D01*
X45742Y-46839D01*
X45761Y-46858D01*
X45784Y-46873D01*
X45785Y-46873D01*
X45785Y-46900D01*
X45787Y-46929D01*
X45789Y-46949D01*
X45804Y-46999D01*
X45804Y-47000D01*
X45805Y-47001D01*
X45829Y-47047D01*
X45853Y-47077D01*
X45860Y-47085D01*
X45862Y-47087D01*
X45863Y-47087D01*
X45867Y-47091D01*
X45985Y-47209D01*
X45985Y-49346D01*
X45985Y-49350D01*
X45985Y-49840D01*
X45713Y-50113D01*
X45704Y-50123D01*
X45681Y-50150D01*
X45656Y-50196D01*
X45655Y-50196D01*
X45655Y-50198D01*
X45640Y-50248D01*
X45636Y-50281D01*
X45635Y-50296D01*
X45635Y-50299D01*
X45635Y-50300D01*
X45635Y-50526D01*
X45609Y-50487D01*
X45548Y-50427D01*
X45478Y-50379D01*
X45399Y-50346D01*
X45315Y-50329D01*
X45230Y-50329D01*
X45146Y-50345D01*
X45067Y-50377D01*
X44996Y-50424D01*
X44935Y-50483D01*
X44887Y-50554D01*
X44853Y-50632D01*
X44836Y-50716D01*
X44834Y-50801D01*
X44850Y-50885D01*
X44881Y-50964D01*
X44928Y-51036D01*
X44987Y-51097D01*
X45057Y-51146D01*
X45135Y-51180D01*
X45219Y-51198D01*
X45304Y-51200D01*
X45388Y-51185D01*
X45467Y-51154D01*
X45539Y-51108D01*
X45601Y-51049D01*
X45635Y-51001D01*
X45635Y-51300D01*
X45637Y-51329D01*
X45639Y-51349D01*
X45654Y-51399D01*
X45654Y-51400D01*
X45655Y-51401D01*
X45679Y-51447D01*
X45703Y-51477D01*
X45710Y-51485D01*
X45712Y-51487D01*
X45713Y-51487D01*
X45717Y-51491D01*
X46211Y-51985D01*
X46213Y-51987D01*
X46223Y-51995D01*
X46250Y-52019D01*
X46252Y-52020D01*
X46296Y-52044D01*
X46298Y-52045D01*
X46345Y-52059D01*
X46348Y-52060D01*
X46381Y-52063D01*
X46396Y-52065D01*
X46399Y-52065D01*
X46400Y-52065D01*
X48700Y-52065D01*
X48729Y-52062D01*
X48749Y-52061D01*
X48751Y-52060D01*
X48799Y-52046D01*
X48800Y-52045D01*
X48801Y-52045D01*
X48844Y-52022D01*
X48847Y-52021D01*
X48877Y-51996D01*
X48885Y-51990D01*
X48885Y-51989D01*
X48887Y-51988D01*
X48887Y-51987D01*
X48891Y-51982D01*
X49585Y-51289D01*
X49587Y-51288D01*
X49599Y-51272D01*
X49619Y-51250D01*
X49619Y-51248D01*
X49644Y-51204D01*
X49644Y-51202D01*
X49653Y-51172D01*
X49659Y-51155D01*
X49660Y-51153D01*
X49661Y-51134D01*
X49665Y-51104D01*
X49665Y-51100D01*
X49665Y-39609D01*
X49909Y-39365D01*
X51991Y-39365D01*
X53111Y-40485D01*
X53113Y-40487D01*
X53123Y-40495D01*
X53150Y-40519D01*
X53152Y-40520D01*
X53196Y-40544D01*
X53198Y-40545D01*
X53245Y-40559D01*
X53248Y-40560D01*
X53281Y-40563D01*
X53296Y-40565D01*
X53299Y-40565D01*
X53300Y-40565D01*
X56800Y-40565D01*
X56829Y-40562D01*
X56849Y-40561D01*
X56851Y-40560D01*
X56899Y-40546D01*
X56900Y-40545D01*
X56901Y-40545D01*
X56944Y-40522D01*
X56947Y-40521D01*
X56977Y-40496D01*
X56985Y-40490D01*
X56985Y-40489D01*
X56987Y-40488D01*
X56987Y-40487D01*
X56991Y-40482D01*
X57548Y-39925D01*
X57624Y-39927D01*
X57746Y-39906D01*
X57861Y-39861D01*
X57966Y-39794D01*
X58056Y-39709D01*
X58127Y-39608D01*
X58178Y-39494D01*
X58205Y-39374D01*
X58207Y-39232D01*
X58183Y-39110D01*
X58136Y-38996D01*
X58067Y-38893D01*
X57980Y-38805D01*
X57877Y-38735D01*
X57840Y-38719D01*
X57840Y-35275D01*
X57837Y-35245D01*
X57836Y-35226D01*
X57835Y-35224D01*
X57821Y-35176D01*
X57820Y-35174D01*
X57797Y-35131D01*
X57796Y-35128D01*
X57771Y-35097D01*
X57765Y-35090D01*
X57763Y-35088D01*
X57762Y-35087D01*
X57389Y-34715D01*
X57387Y-34713D01*
X57377Y-34704D01*
X57350Y-34681D01*
X57348Y-34680D01*
X57304Y-34656D01*
X57303Y-34655D01*
X57302Y-34655D01*
X57255Y-34641D01*
X57252Y-34640D01*
X57219Y-34636D01*
X57204Y-34635D01*
X57201Y-34635D01*
X57200Y-34635D01*
X56660Y-34635D01*
X56653Y-34618D01*
X56638Y-34595D01*
X56619Y-34576D01*
X56596Y-34561D01*
X56571Y-34550D01*
X56544Y-34545D01*
X56517Y-34545D01*
X56124Y-34545D01*
X56097Y-34550D01*
X56072Y-34561D01*
X56049Y-34576D01*
X56030Y-34595D01*
X56015Y-34618D01*
X56004Y-34643D01*
X56000Y-34664D01*
X55996Y-34643D01*
X55985Y-34618D01*
X55970Y-34595D01*
X55951Y-34576D01*
X55928Y-34561D01*
X55903Y-34550D01*
X55876Y-34545D01*
X55849Y-34545D01*
X55456Y-34545D01*
X55429Y-34550D01*
X55404Y-34561D01*
X55381Y-34576D01*
X55362Y-34595D01*
X55347Y-34618D01*
X55336Y-34643D01*
X55331Y-34670D01*
X55331Y-34697D01*
X55331Y-34913D01*
X55327Y-34927D01*
X55323Y-34960D01*
X55322Y-34975D01*
X55322Y-34978D01*
X55322Y-34979D01*
X55322Y-35427D01*
X55310Y-35430D01*
X55285Y-35441D01*
X55262Y-35456D01*
X55243Y-35475D01*
X55228Y-35498D01*
X55217Y-35523D01*
X55212Y-35550D01*
X55212Y-35577D01*
X55212Y-36050D01*
X55217Y-36077D01*
X55228Y-36102D01*
X55243Y-36125D01*
X55262Y-36144D01*
X55285Y-36159D01*
X55310Y-36170D01*
X55337Y-36175D01*
X55364Y-36175D01*
X55837Y-36175D01*
X55864Y-36170D01*
X55889Y-36159D01*
X55912Y-36144D01*
X55931Y-36125D01*
X55946Y-36102D01*
X55957Y-36077D01*
X55962Y-36050D01*
X55962Y-36023D01*
X55962Y-35550D01*
X55957Y-35523D01*
X55946Y-35498D01*
X55931Y-35475D01*
X55912Y-35456D01*
X55889Y-35441D01*
X55864Y-35430D01*
X55852Y-35427D01*
X55852Y-35255D01*
X55876Y-35255D01*
X55903Y-35250D01*
X55928Y-35239D01*
X55951Y-35224D01*
X55970Y-35205D01*
X55985Y-35182D01*
X55996Y-35157D01*
X56000Y-35135D01*
X56004Y-35157D01*
X56015Y-35182D01*
X56030Y-35205D01*
X56049Y-35224D01*
X56072Y-35239D01*
X56097Y-35250D01*
X56124Y-35255D01*
X56151Y-35255D01*
X56544Y-35255D01*
X56571Y-35250D01*
X56596Y-35239D01*
X56619Y-35224D01*
X56638Y-35205D01*
X56653Y-35182D01*
X56660Y-35165D01*
X57090Y-35165D01*
X57310Y-35384D01*
X57310Y-38719D01*
X57281Y-38731D01*
X57177Y-38799D01*
X57089Y-38886D01*
X57019Y-38988D01*
X56970Y-39102D01*
X56944Y-39223D01*
X56942Y-39347D01*
X56965Y-39469D01*
X57010Y-39584D01*
X57061Y-39664D01*
X56691Y-40035D01*
X56632Y-40035D01*
X56632Y-39232D01*
X56608Y-39110D01*
X56561Y-38996D01*
X56492Y-38893D01*
X56405Y-38805D01*
X56302Y-38735D01*
X56188Y-38687D01*
X56066Y-38662D01*
X55942Y-38662D01*
X55821Y-38685D01*
X55706Y-38731D01*
X55602Y-38799D01*
X55514Y-38886D01*
X55444Y-38988D01*
X55395Y-39102D01*
X55369Y-39223D01*
X55367Y-39347D01*
X55390Y-39469D01*
X55435Y-39584D01*
X55502Y-39688D01*
X55588Y-39778D01*
X55690Y-39848D01*
X55804Y-39898D01*
X55925Y-39925D01*
X56049Y-39927D01*
X56171Y-39906D01*
X56286Y-39861D01*
X56391Y-39794D01*
X56481Y-39709D01*
X56552Y-39608D01*
X56603Y-39494D01*
X56630Y-39374D01*
X56632Y-39232D01*
X56632Y-40035D01*
X53409Y-40035D01*
X52289Y-38915D01*
X52287Y-38913D01*
X52277Y-38904D01*
X52250Y-38881D01*
X52248Y-38880D01*
X52204Y-38856D01*
X52203Y-38855D01*
X52202Y-38855D01*
X52155Y-38841D01*
X52152Y-38840D01*
X52119Y-38836D01*
X52104Y-38835D01*
X52101Y-38835D01*
X52100Y-38835D01*
X49800Y-38835D01*
X49749Y-38840D01*
X49721Y-38848D01*
X49701Y-38854D01*
X49699Y-38854D01*
X49699Y-38855D01*
X49653Y-38879D01*
X49629Y-38898D01*
X49615Y-38910D01*
X49613Y-38912D01*
X49612Y-38913D01*
X49213Y-39313D01*
X49204Y-39323D01*
X49181Y-39350D01*
X49156Y-39396D01*
X49155Y-39396D01*
X49155Y-39398D01*
X49140Y-39448D01*
X49136Y-39481D01*
X49135Y-39496D01*
X49135Y-39499D01*
X49135Y-39500D01*
X49135Y-50990D01*
X48738Y-51387D01*
X48738Y-50830D01*
X48738Y-50706D01*
X48715Y-50585D01*
X48669Y-50471D01*
X48601Y-50368D01*
X48515Y-50280D01*
X48413Y-50210D01*
X48300Y-50161D01*
X48179Y-50136D01*
X48056Y-50134D01*
X47645Y-50135D01*
X47524Y-50159D01*
X47410Y-50206D01*
X47307Y-50274D01*
X47220Y-50361D01*
X47151Y-50464D01*
X47103Y-50577D01*
X47078Y-50698D01*
X47078Y-50822D01*
X47101Y-50943D01*
X47147Y-51057D01*
X47215Y-51160D01*
X47301Y-51248D01*
X47403Y-51318D01*
X47516Y-51367D01*
X47637Y-51392D01*
X47760Y-51394D01*
X48171Y-51393D01*
X48292Y-51369D01*
X48406Y-51322D01*
X48509Y-51254D01*
X48596Y-51167D01*
X48665Y-51064D01*
X48713Y-50951D01*
X48738Y-50830D01*
X48738Y-51387D01*
X48590Y-51535D01*
X46509Y-51535D01*
X46165Y-51191D01*
X46165Y-51000D01*
X46188Y-51036D01*
X46247Y-51097D01*
X46317Y-51146D01*
X46395Y-51180D01*
X46479Y-51198D01*
X46564Y-51200D01*
X46648Y-51185D01*
X46727Y-51154D01*
X46799Y-51108D01*
X46861Y-51049D01*
X46910Y-50980D01*
X46945Y-50902D01*
X46964Y-50818D01*
X46965Y-50721D01*
X46948Y-50637D01*
X46916Y-50558D01*
X46869Y-50487D01*
X46808Y-50427D01*
X46738Y-50379D01*
X46659Y-50346D01*
X46575Y-50329D01*
X46490Y-50329D01*
X46406Y-50345D01*
X46327Y-50377D01*
X46256Y-50424D01*
X46195Y-50483D01*
X46165Y-50527D01*
X46165Y-50409D01*
X46435Y-50139D01*
X46437Y-50138D01*
X46449Y-50122D01*
X46469Y-50100D01*
X46469Y-50098D01*
X46494Y-50054D01*
X46494Y-50053D01*
X46501Y-50030D01*
X46509Y-50005D01*
X46510Y-50003D01*
X46511Y-49984D01*
X46515Y-49954D01*
X46515Y-49950D01*
X46515Y-49354D01*
X46515Y-49350D01*
X46515Y-48243D01*
X47129Y-48243D01*
X47156Y-48238D01*
X47181Y-48227D01*
X47204Y-48212D01*
X47223Y-48193D01*
X47238Y-48170D01*
X47249Y-48145D01*
X47254Y-48118D01*
X47254Y-48091D01*
X47254Y-47671D01*
X48685Y-46240D01*
X48687Y-46239D01*
X48699Y-46223D01*
X48719Y-46201D01*
X48719Y-46199D01*
X48744Y-46155D01*
X48744Y-46153D01*
X48753Y-46123D01*
X48759Y-46106D01*
X48760Y-46104D01*
X48763Y-46068D01*
X48765Y-46055D01*
X48765Y-46052D01*
X48765Y-46051D01*
X48765Y-40204D01*
X48765Y-40202D01*
X48765Y-40200D01*
X48765Y-35700D01*
X48760Y-35651D01*
X48760Y-35649D01*
X48745Y-35600D01*
X48745Y-35599D01*
X48721Y-35553D01*
X48695Y-35522D01*
X48690Y-35515D01*
X48688Y-35513D01*
X48687Y-35512D01*
X48139Y-34965D01*
X48137Y-34963D01*
X48127Y-34954D01*
X48100Y-34931D01*
X48098Y-34930D01*
X48054Y-34906D01*
X48053Y-34905D01*
X48052Y-34905D01*
X48005Y-34891D01*
X48002Y-34890D01*
X47969Y-34886D01*
X47954Y-34885D01*
X47951Y-34885D01*
X47950Y-34885D01*
X46323Y-34885D01*
X46272Y-34890D01*
X46262Y-34893D01*
X45876Y-34893D01*
X45850Y-34897D01*
X45860Y-34866D01*
X45860Y-34864D01*
X45864Y-34829D01*
X45864Y-34827D01*
X45864Y-34826D01*
X45864Y-34634D01*
X45943Y-34634D01*
X45970Y-34629D01*
X45995Y-34618D01*
X46018Y-34603D01*
X46037Y-34584D01*
X46052Y-34561D01*
X46063Y-34536D01*
X46068Y-34509D01*
X46068Y-34482D01*
X46068Y-33891D01*
X46063Y-33864D01*
X46052Y-33839D01*
X46037Y-33816D01*
X46018Y-33797D01*
X45995Y-33782D01*
X45970Y-33771D01*
X45943Y-33766D01*
X45939Y-33766D01*
X45939Y-33674D01*
X45936Y-33644D01*
X45935Y-33625D01*
X45934Y-33623D01*
X45920Y-33575D01*
X45919Y-33573D01*
X45896Y-33530D01*
X45895Y-33527D01*
X45870Y-33496D01*
X45864Y-33489D01*
X45863Y-33488D01*
X45862Y-33487D01*
X45856Y-33482D01*
X45689Y-33315D01*
X45687Y-33313D01*
X45677Y-33304D01*
X45650Y-33281D01*
X45648Y-33280D01*
X45604Y-33256D01*
X45603Y-33255D01*
X45602Y-33255D01*
X45555Y-33241D01*
X45552Y-33240D01*
X45519Y-33236D01*
X45504Y-33235D01*
X45501Y-33235D01*
X45500Y-33235D01*
X43900Y-33235D01*
X43870Y-33237D01*
X43851Y-33239D01*
X43801Y-33254D01*
X43799Y-33254D01*
X43799Y-33255D01*
X43753Y-33279D01*
X43737Y-33292D01*
X43736Y-33292D01*
X43711Y-33297D01*
X43654Y-33320D01*
X43602Y-33354D01*
X43558Y-33397D01*
X43523Y-33448D01*
X43499Y-33505D01*
X43486Y-33565D01*
X43486Y-33627D01*
X43497Y-33687D01*
X43519Y-33744D01*
X43553Y-33796D01*
X43596Y-33840D01*
X43646Y-33876D01*
X43703Y-33900D01*
X43763Y-33913D01*
X43824Y-33915D01*
X43885Y-33904D01*
X43942Y-33882D01*
X43994Y-33849D01*
X44039Y-33806D01*
X44067Y-33765D01*
X45391Y-33765D01*
X45394Y-33768D01*
X45378Y-33771D01*
X45353Y-33782D01*
X45330Y-33797D01*
X45311Y-33816D01*
X45300Y-33832D01*
X45289Y-33816D01*
X45270Y-33797D01*
X45247Y-33782D01*
X45222Y-33771D01*
X45195Y-33766D01*
X45168Y-33766D01*
X44657Y-33766D01*
X44630Y-33771D01*
X44605Y-33782D01*
X44582Y-33797D01*
X44563Y-33816D01*
X44548Y-33839D01*
X44537Y-33864D01*
X44532Y-33891D01*
X44532Y-33918D01*
X44532Y-34509D01*
X44533Y-34518D01*
X44159Y-34893D01*
X43830Y-34893D01*
X43803Y-34898D01*
X43778Y-34909D01*
X43755Y-34924D01*
X43736Y-34943D01*
X43721Y-34966D01*
X43710Y-34991D01*
X43705Y-35018D01*
X43705Y-35045D01*
X43705Y-35282D01*
X43710Y-35309D01*
X43721Y-35334D01*
X43736Y-35357D01*
X43755Y-35376D01*
X43778Y-35391D01*
X43798Y-35400D01*
X43778Y-35409D01*
X43755Y-35424D01*
X43736Y-35443D01*
X43721Y-35466D01*
X43710Y-35491D01*
X43705Y-35518D01*
X43705Y-35545D01*
X43705Y-35782D01*
X43710Y-35809D01*
X43721Y-35834D01*
X43736Y-35857D01*
X43755Y-35876D01*
X43768Y-35885D01*
X42759Y-35885D01*
X42665Y-35790D01*
X42665Y-34109D01*
X42977Y-33796D01*
X42984Y-33790D01*
X42985Y-33790D01*
X42985Y-33789D01*
X42987Y-33788D01*
X42987Y-33787D01*
X42990Y-33783D01*
X42991Y-33782D01*
X43609Y-33165D01*
X46290Y-33165D01*
X47511Y-34385D01*
X47512Y-34387D01*
X47536Y-34406D01*
X47550Y-34419D01*
X47552Y-34420D01*
X47596Y-34444D01*
X47598Y-34444D01*
X47628Y-34453D01*
X47645Y-34459D01*
X47647Y-34460D01*
X47682Y-34463D01*
X47696Y-34465D01*
X47699Y-34465D01*
X47700Y-34465D01*
X64700Y-34465D01*
X64729Y-34462D01*
X64749Y-34461D01*
X64751Y-34460D01*
X64799Y-34446D01*
X64800Y-34445D01*
X64801Y-34445D01*
X64844Y-34422D01*
X64847Y-34421D01*
X64877Y-34396D01*
X64885Y-34390D01*
X64885Y-34389D01*
X64887Y-34388D01*
X64887Y-34387D01*
X64891Y-34382D01*
X65685Y-33589D01*
X65687Y-33588D01*
X65706Y-33563D01*
X65719Y-33550D01*
X65720Y-33548D01*
X65744Y-33504D01*
X65744Y-33502D01*
X65753Y-33472D01*
X65759Y-33455D01*
X65760Y-33453D01*
X65763Y-33417D01*
X65765Y-33404D01*
X65765Y-33401D01*
X65765Y-33400D01*
X65765Y-32013D01*
X66456Y-31321D01*
X66612Y-31390D01*
X66790Y-31429D01*
X66972Y-31433D01*
X67151Y-31401D01*
X67320Y-31335D01*
X67474Y-31238D01*
X67605Y-31113D01*
X67710Y-30964D01*
X67784Y-30798D01*
X67824Y-30621D01*
X67827Y-30413D01*
X67827Y-43405D01*
X67792Y-43227D01*
X67722Y-43059D01*
X67622Y-42907D01*
X67494Y-42778D01*
X67343Y-42677D01*
X67175Y-42606D01*
X66997Y-42570D01*
X66815Y-42568D01*
X66637Y-42602D01*
X66468Y-42671D01*
X66316Y-42770D01*
X66186Y-42897D01*
X66084Y-43047D01*
X66012Y-43214D01*
X65974Y-43392D01*
X65972Y-43574D01*
X66005Y-43753D01*
X66072Y-43922D01*
X66170Y-44075D01*
X66296Y-44205D01*
X66446Y-44309D01*
X66612Y-44382D01*
X66790Y-44421D01*
X66972Y-44425D01*
X67151Y-44393D01*
X67320Y-44327D01*
X67474Y-44230D01*
X67605Y-44105D01*
X67710Y-43956D01*
X67784Y-43790D01*
X67824Y-43613D01*
X67827Y-43405D01*
X67827Y-52460D01*
X65508Y-52460D01*
X65508Y-47693D01*
X65428Y-47287D01*
X65270Y-46905D01*
X65041Y-46561D01*
X65027Y-46546D01*
X65027Y-43405D01*
X64992Y-43227D01*
X64922Y-43059D01*
X64822Y-42907D01*
X64694Y-42778D01*
X64543Y-42677D01*
X64375Y-42606D01*
X64197Y-42570D01*
X64015Y-42568D01*
X63837Y-42602D01*
X63668Y-42671D01*
X63516Y-42770D01*
X63386Y-42897D01*
X63284Y-43047D01*
X63212Y-43214D01*
X63174Y-43392D01*
X63172Y-43574D01*
X63205Y-43753D01*
X63272Y-43922D01*
X63370Y-44075D01*
X63496Y-44205D01*
X63646Y-44309D01*
X63812Y-44382D01*
X63990Y-44421D01*
X64172Y-44425D01*
X64351Y-44393D01*
X64520Y-44327D01*
X64674Y-44230D01*
X64805Y-44105D01*
X64910Y-43956D01*
X64984Y-43790D01*
X65024Y-43613D01*
X65027Y-43405D01*
X65027Y-46546D01*
X64750Y-46268D01*
X64407Y-46037D01*
X64026Y-45876D01*
X63621Y-45793D01*
X63208Y-45791D01*
X62802Y-45868D01*
X62418Y-46023D01*
X62073Y-46249D01*
X61777Y-46539D01*
X61544Y-46880D01*
X61381Y-47260D01*
X61295Y-47664D01*
X61289Y-48078D01*
X61364Y-48484D01*
X61516Y-48868D01*
X61740Y-49216D01*
X62027Y-49513D01*
X62367Y-49749D01*
X62746Y-49915D01*
X63150Y-50003D01*
X63563Y-50012D01*
X63970Y-49940D01*
X64355Y-49790D01*
X64704Y-49569D01*
X65004Y-49284D01*
X65242Y-48946D01*
X65410Y-48568D01*
X65501Y-48165D01*
X65508Y-47693D01*
X65508Y-52460D01*
X58502Y-52460D01*
X58502Y-44955D01*
X58407Y-44474D01*
X58220Y-44020D01*
X57948Y-43611D01*
X57603Y-43263D01*
X57196Y-42989D01*
X56744Y-42799D01*
X56263Y-42700D01*
X55772Y-42696D01*
X55291Y-42788D01*
X54836Y-42972D01*
X54425Y-43241D01*
X54074Y-43584D01*
X53797Y-43989D01*
X53604Y-44440D01*
X53502Y-44919D01*
X53495Y-45410D01*
X53583Y-45893D01*
X53764Y-46349D01*
X54030Y-46761D01*
X54370Y-47114D01*
X54773Y-47394D01*
X55223Y-47591D01*
X55702Y-47696D01*
X56193Y-47707D01*
X56676Y-47621D01*
X57133Y-47444D01*
X57547Y-47181D01*
X57903Y-46843D01*
X58186Y-46442D01*
X58385Y-45994D01*
X58494Y-45515D01*
X58502Y-44955D01*
X58502Y-52460D01*
X52339Y-52460D01*
X52339Y-40890D01*
X52296Y-40674D01*
X52212Y-40470D01*
X52090Y-40286D01*
X51935Y-40130D01*
X51752Y-40007D01*
X51549Y-39921D01*
X51333Y-39877D01*
X51113Y-39875D01*
X50896Y-39917D01*
X50692Y-39999D01*
X50507Y-40120D01*
X50350Y-40274D01*
X50225Y-40456D01*
X50139Y-40658D01*
X50093Y-40874D01*
X50090Y-41094D01*
X50129Y-41311D01*
X50210Y-41516D01*
X50330Y-41701D01*
X50483Y-41860D01*
X50664Y-41986D01*
X50866Y-42074D01*
X51081Y-42121D01*
X51301Y-42126D01*
X51519Y-42088D01*
X51724Y-42008D01*
X51910Y-41890D01*
X52070Y-41738D01*
X52197Y-41558D01*
X52287Y-41357D01*
X52335Y-41142D01*
X52339Y-40890D01*
X52339Y-52460D01*
X41709Y-52460D01*
X41709Y-40890D01*
X41666Y-40674D01*
X41582Y-40470D01*
X41460Y-40286D01*
X41305Y-40130D01*
X41122Y-40007D01*
X40919Y-39921D01*
X40703Y-39877D01*
X40559Y-39875D01*
X40559Y-38165D01*
X40545Y-38096D01*
X40519Y-38031D01*
X40480Y-37972D01*
X40430Y-37922D01*
X40372Y-37883D01*
X40307Y-37855D01*
X40238Y-37841D01*
X40168Y-37841D01*
X40098Y-37854D01*
X40033Y-37880D01*
X39974Y-37919D01*
X39924Y-37968D01*
X39884Y-38026D01*
X39856Y-38091D01*
X39842Y-38160D01*
X39841Y-38230D01*
X39853Y-38299D01*
X39879Y-38365D01*
X39917Y-38424D01*
X39966Y-38475D01*
X40024Y-38515D01*
X40088Y-38543D01*
X40157Y-38558D01*
X40227Y-38560D01*
X40297Y-38547D01*
X40362Y-38522D01*
X40422Y-38484D01*
X40473Y-38436D01*
X40514Y-38378D01*
X40542Y-38314D01*
X40558Y-38245D01*
X40559Y-38165D01*
X40559Y-39875D01*
X40483Y-39875D01*
X40266Y-39917D01*
X40062Y-39999D01*
X39877Y-40120D01*
X39720Y-40274D01*
X39595Y-40456D01*
X39559Y-40540D01*
X39559Y-37165D01*
X39545Y-37096D01*
X39519Y-37031D01*
X39480Y-36972D01*
X39430Y-36922D01*
X39372Y-36883D01*
X39307Y-36855D01*
X39238Y-36841D01*
X39168Y-36841D01*
X39098Y-36854D01*
X39033Y-36880D01*
X38974Y-36919D01*
X38924Y-36968D01*
X38884Y-37026D01*
X38856Y-37091D01*
X38842Y-37160D01*
X38841Y-37230D01*
X38853Y-37299D01*
X38879Y-37365D01*
X38917Y-37424D01*
X38966Y-37475D01*
X39024Y-37515D01*
X39088Y-37543D01*
X39157Y-37558D01*
X39227Y-37560D01*
X39297Y-37547D01*
X39362Y-37522D01*
X39422Y-37484D01*
X39473Y-37436D01*
X39514Y-37378D01*
X39542Y-37314D01*
X39558Y-37245D01*
X39559Y-37165D01*
X39559Y-40540D01*
X39509Y-40658D01*
X39463Y-40874D01*
X39460Y-41094D01*
X39499Y-41311D01*
X39580Y-41516D01*
X39700Y-41701D01*
X39853Y-41860D01*
X40034Y-41986D01*
X40236Y-42074D01*
X40451Y-42121D01*
X40671Y-42126D01*
X40889Y-42088D01*
X41094Y-42008D01*
X41280Y-41890D01*
X41440Y-41738D01*
X41567Y-41558D01*
X41657Y-41357D01*
X41705Y-41142D01*
X41709Y-40890D01*
X41709Y-52460D01*
X40789Y-52460D01*
X40789Y-47453D01*
X40789Y-46453D01*
X40789Y-45453D01*
X40772Y-45369D01*
X40740Y-45290D01*
X40693Y-45219D01*
X40632Y-45159D01*
X40562Y-45111D01*
X40483Y-45078D01*
X40399Y-45061D01*
X40314Y-45061D01*
X40230Y-45077D01*
X40151Y-45109D01*
X40080Y-45156D01*
X40019Y-45215D01*
X39971Y-45286D01*
X39937Y-45364D01*
X39920Y-45448D01*
X39918Y-45533D01*
X39934Y-45617D01*
X39965Y-45696D01*
X40012Y-45768D01*
X40071Y-45829D01*
X40141Y-45878D01*
X40219Y-45912D01*
X40303Y-45930D01*
X40388Y-45932D01*
X40472Y-45917D01*
X40551Y-45886D01*
X40623Y-45840D01*
X40685Y-45781D01*
X40734Y-45712D01*
X40769Y-45634D01*
X40788Y-45550D01*
X40789Y-45453D01*
X40789Y-46453D01*
X40772Y-46369D01*
X40740Y-46290D01*
X40693Y-46219D01*
X40632Y-46159D01*
X40562Y-46111D01*
X40483Y-46078D01*
X40399Y-46061D01*
X40314Y-46061D01*
X40230Y-46077D01*
X40151Y-46109D01*
X40080Y-46156D01*
X40019Y-46215D01*
X39971Y-46286D01*
X39937Y-46364D01*
X39920Y-46448D01*
X39918Y-46533D01*
X39934Y-46617D01*
X39965Y-46696D01*
X40012Y-46768D01*
X40071Y-46829D01*
X40141Y-46878D01*
X40219Y-46912D01*
X40303Y-46930D01*
X40388Y-46932D01*
X40472Y-46917D01*
X40551Y-46886D01*
X40623Y-46840D01*
X40685Y-46781D01*
X40734Y-46712D01*
X40769Y-46634D01*
X40788Y-46550D01*
X40789Y-46453D01*
X40789Y-47453D01*
X40772Y-47369D01*
X40740Y-47290D01*
X40693Y-47219D01*
X40632Y-47159D01*
X40562Y-47111D01*
X40483Y-47078D01*
X40399Y-47061D01*
X40314Y-47061D01*
X40230Y-47077D01*
X40151Y-47109D01*
X40080Y-47156D01*
X40019Y-47215D01*
X39971Y-47286D01*
X39937Y-47364D01*
X39920Y-47448D01*
X39918Y-47533D01*
X39934Y-47617D01*
X39965Y-47696D01*
X40012Y-47768D01*
X40071Y-47829D01*
X40141Y-47878D01*
X40219Y-47912D01*
X40303Y-47930D01*
X40388Y-47932D01*
X40472Y-47917D01*
X40551Y-47886D01*
X40623Y-47840D01*
X40685Y-47781D01*
X40734Y-47712D01*
X40769Y-47634D01*
X40788Y-47550D01*
X40789Y-47453D01*
X40789Y-52460D01*
X38682Y-52460D01*
X38352Y-52460D01*
X38212Y-52447D01*
X38078Y-52406D01*
X37955Y-52341D01*
X37848Y-52252D01*
X37759Y-52145D01*
X37694Y-52022D01*
X37653Y-51888D01*
X37640Y-51748D01*
X37640Y-14352D01*
X37653Y-14212D01*
X37694Y-14078D01*
X37759Y-13955D01*
X37848Y-13848D01*
X37955Y-13759D01*
X38078Y-13694D01*
X38212Y-13653D01*
X38352Y-13640D01*
X75848Y-13640D01*
X75988Y-13653D01*
X76122Y-13694D01*
X76245Y-13759D01*
X76352Y-13848D01*
X76441Y-13955D01*
X76506Y-14078D01*
X76547Y-14212D01*
X76560Y-14352D01*
X76560Y-51748D01*
M02*
