M48
INCH,TZ
T1C0.020
T2C0.024
T3C0.032
T4C0.032
T5C0.039
T6C0.047
T7C0.059
T8C0.091
T9C0.120
T10C0.158
T11C0.167
T12C0.197
T13C0.413
%
G90
G05
T1
X043250Y-046350
X043900Y-037400
X044200Y-032200
X044200Y-033500
X046200Y-031600
X047500Y-037500
X047700Y-038300
X048000Y-035900
X049000Y-035000
X049000Y-035700
X049300Y-038300
X051400Y-037600
X054900Y-037400
X059000Y-037000
X063000Y-040300
X066300Y-047900
T2
X039200Y-037200
X040200Y-036200
X040200Y-038200
T3
X040354Y-045496
X040354Y-046496
X040354Y-047496
X054425Y-039294
X056000Y-039294
X057575Y-039294
T4
X039100Y-030200
X039100Y-031200
X039100Y-032200
X039100Y-033200
X051800Y-034100
X051800Y-035100
X051800Y-036100
X060200Y-035800
X060200Y-040800
X061600Y-035800
X061600Y-040800
T5
X043892Y-050764
X047908Y-050764
T6
X050200Y-027750
X051200Y-027750
X052200Y-027750
X056100Y-027750
X057100Y-027750
X058100Y-027750
X062000Y-027750
X063000Y-027750
X064000Y-027750
X064900Y-030504
X064900Y-043496
X067700Y-030504
X067700Y-043496
T7
X045270Y-050764
X046530Y-050764
T8
X060820Y-049707
X071780Y-049707
T9
X039370Y-015354
X039370Y-050787
X074803Y-015354
X074803Y-050787
T10
X040958Y-025290
X073242Y-025290
T11
X063400Y-047900
X069200Y-047900
X073500Y-036000
X073500Y-043000
T12
X040585Y-041000
X051215Y-041000
T13
X056000Y-045200
T0
M30
