G04 (created by PCBNEW-RS274X (2012-jan-04)-stable) date Fri 22 Jun 2012 10:19:46 PM CEST*
G01*
G70*
G90*
%MOIN*%
G04 Gerber Fmt 3.4, Leading zero omitted, Abs format*
%FSLAX34Y34*%
G04 APERTURE LIST*
%ADD10C,0.006000*%
%ADD11C,0.060000*%
%ADD12C,0.393700*%
%ADD13C,0.177200*%
%ADD14C,0.315000*%
%ADD15C,0.196900*%
%ADD16O,0.137800X0.098400*%
%ADD17C,0.059100*%
%ADD18C,0.472400*%
%ADD19C,0.098400*%
%ADD20C,0.160000*%
%ADD21C,0.157500*%
%ADD22R,0.043300X0.039300*%
%ADD23O,0.068900X0.118100*%
%ADD24R,0.070800X0.062900*%
%ADD25R,0.055000X0.055000*%
%ADD26C,0.055000*%
G04 APERTURE END LIST*
G54D10*
G54D11*
X40200Y-36200D03*
X39200Y-37200D03*
X40200Y-38200D03*
G54D12*
X69200Y-47900D03*
G54D13*
X70635Y-48905D02*
X71763Y-49695D01*
G54D12*
X63400Y-47900D03*
G54D13*
X61965Y-48905D02*
X60837Y-49695D01*
G54D14*
X73229Y-25118D03*
X40945Y-25118D03*
G54D15*
X51215Y-41000D03*
X40585Y-41000D03*
G54D16*
X47908Y-50764D03*
X43892Y-50764D03*
G54D17*
X46530Y-50764D03*
X45270Y-50764D03*
G54D18*
X56000Y-45200D03*
G54D19*
X56000Y-39294D03*
X54425Y-39294D03*
X57575Y-39294D03*
G54D20*
X39370Y-15354D03*
X74803Y-15354D03*
X39370Y-50787D03*
X74803Y-50787D03*
G54D12*
X73500Y-36000D03*
X73500Y-43000D03*
G54D17*
X40354Y-46496D03*
X40354Y-45496D03*
X40354Y-47496D03*
G54D21*
X67700Y-30504D03*
X67700Y-43496D03*
X64900Y-30504D03*
X64900Y-43496D03*
G54D22*
X73500Y-47966D03*
X73500Y-48634D03*
G54D23*
X51200Y-27750D03*
X52200Y-27750D03*
X50200Y-27750D03*
X63000Y-27750D03*
X64000Y-27750D03*
X62000Y-27750D03*
G54D24*
X72700Y-38849D03*
X72700Y-39951D03*
X74300Y-38849D03*
X74300Y-39951D03*
G54D23*
X57100Y-27750D03*
X58100Y-27750D03*
X56100Y-27750D03*
G54D25*
X39100Y-30200D03*
G54D26*
X39100Y-31200D03*
X39100Y-32200D03*
X39100Y-33200D03*
G54D25*
X50000Y-36600D03*
G54D26*
X51000Y-36600D03*
X52000Y-36600D03*
G54D11*
X60200Y-40800D03*
X60200Y-35800D03*
X61600Y-40800D03*
X61600Y-35800D03*
M02*
