G04 (created by PCBNEW-RS274X (2012-jan-04)-stable) date Wed 06 Jun 2012 12:26:46 PM CEST*
G01*
G70*
G90*
%MOIN*%
G04 Gerber Fmt 3.4, Leading zero omitted, Abs format*
%FSLAX34Y34*%
G04 APERTURE LIST*
%ADD10C,0.006000*%
%ADD11C,0.008000*%
%ADD12C,0.070000*%
%ADD13R,0.070000X0.070000*%
%ADD14C,0.160000*%
%ADD15R,0.027600X0.039400*%
%ADD16C,0.060000*%
%ADD17C,0.295300*%
%ADD18R,0.051100X0.059000*%
%ADD19R,0.059000X0.051100*%
%ADD20C,0.393700*%
%ADD21C,0.196900*%
%ADD22O,0.137800X0.098400*%
%ADD23C,0.059100*%
%ADD24C,0.044000*%
%ADD25C,0.472400*%
%ADD26C,0.098400*%
%ADD27C,0.035000*%
%ADD28C,0.025000*%
%ADD29C,0.010000*%
%ADD30C,0.070000*%
G04 APERTURE END LIST*
G54D10*
G54D11*
X72500Y-32762D02*
X72481Y-32724D01*
X72443Y-32686D01*
X72386Y-32629D01*
X72367Y-32590D01*
X72367Y-32552D01*
X72462Y-32571D02*
X72443Y-32533D01*
X72405Y-32495D01*
X72329Y-32476D01*
X72195Y-32476D01*
X72119Y-32495D01*
X72081Y-32533D01*
X72062Y-32571D01*
X72062Y-32648D01*
X72081Y-32686D01*
X72119Y-32724D01*
X72195Y-32743D01*
X72329Y-32743D01*
X72405Y-32724D01*
X72443Y-32686D01*
X72462Y-32648D01*
X72462Y-32571D01*
X72062Y-32876D02*
X72062Y-33124D01*
X72214Y-32990D01*
X72214Y-33048D01*
X72233Y-33086D01*
X72252Y-33105D01*
X72290Y-33124D01*
X72386Y-33124D01*
X72424Y-33105D01*
X72443Y-33086D01*
X72462Y-33048D01*
X72462Y-32933D01*
X72443Y-32895D01*
X72424Y-32876D01*
X74700Y-32762D02*
X74681Y-32724D01*
X74643Y-32686D01*
X74586Y-32629D01*
X74567Y-32590D01*
X74567Y-32552D01*
X74662Y-32571D02*
X74643Y-32533D01*
X74605Y-32495D01*
X74529Y-32476D01*
X74395Y-32476D01*
X74319Y-32495D01*
X74281Y-32533D01*
X74262Y-32571D01*
X74262Y-32648D01*
X74281Y-32686D01*
X74319Y-32724D01*
X74395Y-32743D01*
X74529Y-32743D01*
X74605Y-32724D01*
X74643Y-32686D01*
X74662Y-32648D01*
X74662Y-32571D01*
X74395Y-33086D02*
X74662Y-33086D01*
X74243Y-32990D02*
X74529Y-32895D01*
X74529Y-33143D01*
X70986Y-38962D02*
X70986Y-38562D01*
X70891Y-38562D01*
X70833Y-38581D01*
X70795Y-38619D01*
X70776Y-38657D01*
X70757Y-38733D01*
X70757Y-38790D01*
X70776Y-38867D01*
X70795Y-38905D01*
X70833Y-38943D01*
X70891Y-38962D01*
X70986Y-38962D01*
X70624Y-38562D02*
X70357Y-38562D01*
X70624Y-38962D01*
X70357Y-38962D01*
X69995Y-38962D02*
X70224Y-38962D01*
X70110Y-38962D02*
X70110Y-38562D01*
X70148Y-38619D01*
X70186Y-38657D01*
X70224Y-38676D01*
X74666Y-41062D02*
X74800Y-40871D01*
X74895Y-41062D02*
X74895Y-40662D01*
X74742Y-40662D01*
X74704Y-40681D01*
X74685Y-40700D01*
X74666Y-40738D01*
X74666Y-40795D01*
X74685Y-40833D01*
X74704Y-40852D01*
X74742Y-40871D01*
X74895Y-40871D01*
X74533Y-40662D02*
X74266Y-40662D01*
X74438Y-41062D01*
X74462Y-48234D02*
X74271Y-48100D01*
X74462Y-48005D02*
X74062Y-48005D01*
X74062Y-48158D01*
X74081Y-48196D01*
X74100Y-48215D01*
X74138Y-48234D01*
X74195Y-48234D01*
X74233Y-48215D01*
X74252Y-48196D01*
X74271Y-48158D01*
X74271Y-48005D01*
X74462Y-48615D02*
X74462Y-48386D01*
X74462Y-48500D02*
X74062Y-48500D01*
X74119Y-48462D01*
X74157Y-48424D01*
X74176Y-48386D01*
X46639Y-40762D02*
X46563Y-40762D01*
X46524Y-40743D01*
X46505Y-40724D01*
X46467Y-40667D01*
X46448Y-40590D01*
X46448Y-40438D01*
X46467Y-40400D01*
X46486Y-40381D01*
X46524Y-40362D01*
X46601Y-40362D01*
X46639Y-40381D01*
X46658Y-40400D01*
X46677Y-40438D01*
X46677Y-40533D01*
X46658Y-40571D01*
X46639Y-40590D01*
X46601Y-40610D01*
X46524Y-40610D01*
X46486Y-40590D01*
X46467Y-40571D01*
X46448Y-40533D01*
X46334Y-40362D02*
X46201Y-40762D01*
X46067Y-40362D01*
X45629Y-40762D02*
X45629Y-40362D01*
X45629Y-40514D02*
X45591Y-40495D01*
X45514Y-40495D01*
X45476Y-40514D01*
X45457Y-40533D01*
X45438Y-40571D01*
X45438Y-40686D01*
X45457Y-40724D01*
X45476Y-40743D01*
X45514Y-40762D01*
X45591Y-40762D01*
X45629Y-40743D01*
X45095Y-40762D02*
X45095Y-40552D01*
X45114Y-40514D01*
X45152Y-40495D01*
X45229Y-40495D01*
X45267Y-40514D01*
X45095Y-40743D02*
X45133Y-40762D01*
X45229Y-40762D01*
X45267Y-40743D01*
X45286Y-40705D01*
X45286Y-40667D01*
X45267Y-40629D01*
X45229Y-40610D01*
X45133Y-40610D01*
X45095Y-40590D01*
X44962Y-40495D02*
X44810Y-40495D01*
X44905Y-40362D02*
X44905Y-40705D01*
X44886Y-40743D01*
X44848Y-40762D01*
X44810Y-40762D01*
X44733Y-40495D02*
X44581Y-40495D01*
X44676Y-40362D02*
X44676Y-40705D01*
X44657Y-40743D01*
X44619Y-40762D01*
X44581Y-40762D01*
X44294Y-40743D02*
X44332Y-40762D01*
X44409Y-40762D01*
X44447Y-40743D01*
X44466Y-40705D01*
X44466Y-40552D01*
X44447Y-40514D01*
X44409Y-40495D01*
X44332Y-40495D01*
X44294Y-40514D01*
X44275Y-40552D01*
X44275Y-40590D01*
X44466Y-40629D01*
X44104Y-40762D02*
X44104Y-40495D01*
X44104Y-40571D02*
X44085Y-40533D01*
X44066Y-40514D01*
X44028Y-40495D01*
X43989Y-40495D01*
X43894Y-40495D02*
X43799Y-40762D01*
X43703Y-40495D02*
X43799Y-40762D01*
X43837Y-40857D01*
X43856Y-40876D01*
X43894Y-40895D01*
X48306Y-41548D02*
X48115Y-41548D01*
X48344Y-41662D02*
X48211Y-41262D01*
X48077Y-41662D01*
X48001Y-41395D02*
X47849Y-41395D01*
X47944Y-41262D02*
X47944Y-41605D01*
X47925Y-41643D01*
X47887Y-41662D01*
X47849Y-41662D01*
X47772Y-41395D02*
X47620Y-41395D01*
X47715Y-41262D02*
X47715Y-41605D01*
X47696Y-41643D01*
X47658Y-41662D01*
X47620Y-41662D01*
X47314Y-41662D02*
X47314Y-41452D01*
X47333Y-41414D01*
X47371Y-41395D01*
X47448Y-41395D01*
X47486Y-41414D01*
X47314Y-41643D02*
X47352Y-41662D01*
X47448Y-41662D01*
X47486Y-41643D01*
X47505Y-41605D01*
X47505Y-41567D01*
X47486Y-41529D01*
X47448Y-41510D01*
X47352Y-41510D01*
X47314Y-41490D01*
X46952Y-41643D02*
X46990Y-41662D01*
X47067Y-41662D01*
X47105Y-41643D01*
X47124Y-41624D01*
X47143Y-41586D01*
X47143Y-41471D01*
X47124Y-41433D01*
X47105Y-41414D01*
X47067Y-41395D01*
X46990Y-41395D01*
X46952Y-41414D01*
X46781Y-41662D02*
X46781Y-41262D01*
X46609Y-41662D02*
X46609Y-41452D01*
X46628Y-41414D01*
X46666Y-41395D01*
X46724Y-41395D01*
X46762Y-41414D01*
X46781Y-41433D01*
X46152Y-41395D02*
X46076Y-41662D01*
X45999Y-41471D01*
X45923Y-41662D01*
X45847Y-41395D01*
X45695Y-41662D02*
X45695Y-41395D01*
X45695Y-41262D02*
X45714Y-41281D01*
X45695Y-41300D01*
X45676Y-41281D01*
X45695Y-41262D01*
X45695Y-41300D01*
X45562Y-41395D02*
X45410Y-41395D01*
X45505Y-41262D02*
X45505Y-41605D01*
X45486Y-41643D01*
X45448Y-41662D01*
X45410Y-41662D01*
X45276Y-41662D02*
X45276Y-41262D01*
X45104Y-41662D02*
X45104Y-41452D01*
X45123Y-41414D01*
X45161Y-41395D01*
X45219Y-41395D01*
X45257Y-41414D01*
X45276Y-41433D01*
X44437Y-41643D02*
X44475Y-41662D01*
X44552Y-41662D01*
X44590Y-41643D01*
X44609Y-41624D01*
X44628Y-41586D01*
X44628Y-41471D01*
X44609Y-41433D01*
X44590Y-41414D01*
X44552Y-41395D01*
X44475Y-41395D01*
X44437Y-41414D01*
X44094Y-41662D02*
X44094Y-41452D01*
X44113Y-41414D01*
X44151Y-41395D01*
X44228Y-41395D01*
X44266Y-41414D01*
X44094Y-41643D02*
X44132Y-41662D01*
X44228Y-41662D01*
X44266Y-41643D01*
X44285Y-41605D01*
X44285Y-41567D01*
X44266Y-41529D01*
X44228Y-41510D01*
X44132Y-41510D01*
X44094Y-41490D01*
X43904Y-41662D02*
X43904Y-41262D01*
X43904Y-41414D02*
X43866Y-41395D01*
X43789Y-41395D01*
X43751Y-41414D01*
X43732Y-41433D01*
X43713Y-41471D01*
X43713Y-41586D01*
X43732Y-41624D01*
X43751Y-41643D01*
X43789Y-41662D01*
X43866Y-41662D01*
X43904Y-41643D01*
X43485Y-41662D02*
X43523Y-41643D01*
X43542Y-41605D01*
X43542Y-41262D01*
X43179Y-41643D02*
X43217Y-41662D01*
X43294Y-41662D01*
X43332Y-41643D01*
X43351Y-41605D01*
X43351Y-41452D01*
X43332Y-41414D01*
X43294Y-41395D01*
X43217Y-41395D01*
X43179Y-41414D01*
X43160Y-41452D01*
X43160Y-41490D01*
X43351Y-41529D01*
X42741Y-41395D02*
X42589Y-41395D01*
X42684Y-41262D02*
X42684Y-41605D01*
X42665Y-41643D01*
X42627Y-41662D01*
X42589Y-41662D01*
X42455Y-41662D02*
X42455Y-41395D01*
X42455Y-41262D02*
X42474Y-41281D01*
X42455Y-41300D01*
X42436Y-41281D01*
X42455Y-41262D01*
X42455Y-41300D01*
X42112Y-41643D02*
X42150Y-41662D01*
X42227Y-41662D01*
X42265Y-41643D01*
X42284Y-41605D01*
X42284Y-41452D01*
X42265Y-41414D01*
X42227Y-41395D01*
X42150Y-41395D01*
X42112Y-41414D01*
X42093Y-41452D01*
X42093Y-41490D01*
X42284Y-41529D01*
X59500Y-16610D02*
X59195Y-16610D01*
X58624Y-16571D02*
X58624Y-16762D01*
X58757Y-16362D02*
X58624Y-16571D01*
X58490Y-16362D01*
X58185Y-16762D02*
X58185Y-16552D01*
X58204Y-16514D01*
X58242Y-16495D01*
X58319Y-16495D01*
X58357Y-16514D01*
X58185Y-16743D02*
X58223Y-16762D01*
X58319Y-16762D01*
X58357Y-16743D01*
X58376Y-16705D01*
X58376Y-16667D01*
X58357Y-16629D01*
X58319Y-16610D01*
X58223Y-16610D01*
X58185Y-16590D01*
X57823Y-16495D02*
X57823Y-16762D01*
X57995Y-16495D02*
X57995Y-16705D01*
X57976Y-16743D01*
X57938Y-16762D01*
X57880Y-16762D01*
X57842Y-16743D01*
X57823Y-16724D01*
X57633Y-16762D02*
X57633Y-16362D01*
X57538Y-16362D01*
X57480Y-16381D01*
X57442Y-16419D01*
X57423Y-16457D01*
X57404Y-16533D01*
X57404Y-16590D01*
X57423Y-16667D01*
X57442Y-16705D01*
X57480Y-16743D01*
X57538Y-16762D01*
X57633Y-16762D01*
X57042Y-16762D02*
X57233Y-16762D01*
X57233Y-16362D01*
X56661Y-16362D02*
X56528Y-16762D01*
X56394Y-16362D01*
X56185Y-16362D02*
X56146Y-16362D01*
X56108Y-16381D01*
X56089Y-16400D01*
X56070Y-16438D01*
X56051Y-16514D01*
X56051Y-16610D01*
X56070Y-16686D01*
X56089Y-16724D01*
X56108Y-16743D01*
X56146Y-16762D01*
X56185Y-16762D01*
X56223Y-16743D01*
X56242Y-16724D01*
X56261Y-16686D01*
X56280Y-16610D01*
X56280Y-16514D01*
X56261Y-16438D01*
X56242Y-16400D01*
X56223Y-16381D01*
X56185Y-16362D01*
X55880Y-16724D02*
X55861Y-16743D01*
X55880Y-16762D01*
X55899Y-16743D01*
X55880Y-16724D01*
X55880Y-16762D01*
X55480Y-16762D02*
X55709Y-16762D01*
X55595Y-16762D02*
X55595Y-16362D01*
X55633Y-16419D01*
X55671Y-16457D01*
X55709Y-16476D01*
X55004Y-16610D02*
X54699Y-16610D01*
X63313Y-17554D02*
X63333Y-17535D01*
X63371Y-17478D01*
X63390Y-17440D01*
X63409Y-17383D01*
X63428Y-17288D01*
X63428Y-17211D01*
X63409Y-17116D01*
X63390Y-17059D01*
X63371Y-17021D01*
X63333Y-16964D01*
X63313Y-16945D01*
X63085Y-17211D02*
X63085Y-17402D01*
X63218Y-17002D02*
X63085Y-17211D01*
X62951Y-17002D01*
X62856Y-17554D02*
X62837Y-17535D01*
X62799Y-17478D01*
X62780Y-17440D01*
X62761Y-17383D01*
X62742Y-17288D01*
X62742Y-17211D01*
X62761Y-17116D01*
X62780Y-17059D01*
X62799Y-17021D01*
X62837Y-16964D01*
X62856Y-16945D01*
X62398Y-17383D02*
X62436Y-17402D01*
X62513Y-17402D01*
X62551Y-17383D01*
X62570Y-17345D01*
X62570Y-17192D01*
X62551Y-17154D01*
X62513Y-17135D01*
X62436Y-17135D01*
X62398Y-17154D01*
X62379Y-17192D01*
X62379Y-17230D01*
X62570Y-17269D01*
X62265Y-17135D02*
X62113Y-17135D01*
X62208Y-17002D02*
X62208Y-17345D01*
X62189Y-17383D01*
X62151Y-17402D01*
X62113Y-17402D01*
X61559Y-17554D02*
X61579Y-17535D01*
X61617Y-17478D01*
X61636Y-17440D01*
X61655Y-17383D01*
X61674Y-17288D01*
X61674Y-17211D01*
X61655Y-17116D01*
X61636Y-17059D01*
X61617Y-17021D01*
X61579Y-16964D01*
X61559Y-16945D01*
X61235Y-17402D02*
X61235Y-17192D01*
X61254Y-17154D01*
X61292Y-17135D01*
X61369Y-17135D01*
X61407Y-17154D01*
X61235Y-17383D02*
X61273Y-17402D01*
X61369Y-17402D01*
X61407Y-17383D01*
X61426Y-17345D01*
X61426Y-17307D01*
X61407Y-17269D01*
X61369Y-17250D01*
X61273Y-17250D01*
X61235Y-17230D01*
X61083Y-17554D02*
X61064Y-17535D01*
X61026Y-17478D01*
X61007Y-17440D01*
X60988Y-17383D01*
X60969Y-17288D01*
X60969Y-17211D01*
X60988Y-17116D01*
X61007Y-17059D01*
X61026Y-17021D01*
X61064Y-16964D01*
X61083Y-16945D01*
X60778Y-17135D02*
X60778Y-17402D01*
X60778Y-17173D02*
X60759Y-17154D01*
X60721Y-17135D01*
X60663Y-17135D01*
X60625Y-17154D01*
X60606Y-17192D01*
X60606Y-17402D01*
X60359Y-17402D02*
X60397Y-17383D01*
X60416Y-17364D01*
X60435Y-17326D01*
X60435Y-17211D01*
X60416Y-17173D01*
X60397Y-17154D01*
X60359Y-17135D01*
X60301Y-17135D01*
X60263Y-17154D01*
X60244Y-17173D01*
X60225Y-17211D01*
X60225Y-17326D01*
X60244Y-17364D01*
X60263Y-17383D01*
X60301Y-17402D01*
X60359Y-17402D01*
X60111Y-17135D02*
X59959Y-17135D01*
X60054Y-17002D02*
X60054Y-17345D01*
X60035Y-17383D01*
X59997Y-17402D01*
X59959Y-17402D01*
X59825Y-17402D02*
X59825Y-17002D01*
X59653Y-17402D02*
X59653Y-17192D01*
X59672Y-17154D01*
X59710Y-17135D01*
X59768Y-17135D01*
X59806Y-17154D01*
X59825Y-17173D01*
X59310Y-17383D02*
X59348Y-17402D01*
X59425Y-17402D01*
X59463Y-17383D01*
X59482Y-17345D01*
X59482Y-17192D01*
X59463Y-17154D01*
X59425Y-17135D01*
X59348Y-17135D01*
X59310Y-17154D01*
X59291Y-17192D01*
X59291Y-17230D01*
X59482Y-17269D01*
X59120Y-17402D02*
X59120Y-17135D01*
X59120Y-17211D02*
X59101Y-17173D01*
X59082Y-17154D01*
X59044Y-17135D01*
X59005Y-17135D01*
X58452Y-17554D02*
X58472Y-17535D01*
X58510Y-17478D01*
X58529Y-17440D01*
X58548Y-17383D01*
X58567Y-17288D01*
X58567Y-17211D01*
X58548Y-17116D01*
X58529Y-17059D01*
X58510Y-17021D01*
X58472Y-16964D01*
X58452Y-16945D01*
X58128Y-17135D02*
X58128Y-17402D01*
X58300Y-17135D02*
X58300Y-17345D01*
X58281Y-17383D01*
X58243Y-17402D01*
X58185Y-17402D01*
X58147Y-17383D01*
X58128Y-17364D01*
X57976Y-17554D02*
X57957Y-17535D01*
X57919Y-17478D01*
X57900Y-17440D01*
X57881Y-17383D01*
X57862Y-17288D01*
X57862Y-17211D01*
X57881Y-17116D01*
X57900Y-17059D01*
X57919Y-17021D01*
X57957Y-16964D01*
X57976Y-16945D01*
X57690Y-17383D02*
X57652Y-17402D01*
X57576Y-17402D01*
X57537Y-17383D01*
X57518Y-17345D01*
X57518Y-17326D01*
X57537Y-17288D01*
X57576Y-17269D01*
X57633Y-17269D01*
X57671Y-17250D01*
X57690Y-17211D01*
X57690Y-17192D01*
X57671Y-17154D01*
X57633Y-17135D01*
X57576Y-17135D01*
X57537Y-17154D01*
X57194Y-17383D02*
X57232Y-17402D01*
X57309Y-17402D01*
X57347Y-17383D01*
X57366Y-17345D01*
X57366Y-17192D01*
X57347Y-17154D01*
X57309Y-17135D01*
X57232Y-17135D01*
X57194Y-17154D01*
X57175Y-17192D01*
X57175Y-17230D01*
X57366Y-17269D01*
X56947Y-17402D02*
X56985Y-17383D01*
X57004Y-17345D01*
X57004Y-17002D01*
X56641Y-17383D02*
X56679Y-17402D01*
X56756Y-17402D01*
X56794Y-17383D01*
X56813Y-17345D01*
X56813Y-17192D01*
X56794Y-17154D01*
X56756Y-17135D01*
X56679Y-17135D01*
X56641Y-17154D01*
X56622Y-17192D01*
X56622Y-17230D01*
X56813Y-17269D01*
X56470Y-17383D02*
X56432Y-17402D01*
X56356Y-17402D01*
X56317Y-17383D01*
X56298Y-17345D01*
X56298Y-17326D01*
X56317Y-17288D01*
X56356Y-17269D01*
X56413Y-17269D01*
X56451Y-17250D01*
X56470Y-17211D01*
X56470Y-17192D01*
X56451Y-17154D01*
X56413Y-17135D01*
X56356Y-17135D01*
X56317Y-17154D01*
X56146Y-17383D02*
X56108Y-17402D01*
X56032Y-17402D01*
X55993Y-17383D01*
X55974Y-17345D01*
X55974Y-17326D01*
X55993Y-17288D01*
X56032Y-17269D01*
X56089Y-17269D01*
X56127Y-17250D01*
X56146Y-17211D01*
X56146Y-17192D01*
X56127Y-17154D01*
X56089Y-17135D01*
X56032Y-17135D01*
X55993Y-17154D01*
X55383Y-17554D02*
X55403Y-17535D01*
X55441Y-17478D01*
X55460Y-17440D01*
X55479Y-17383D01*
X55498Y-17288D01*
X55498Y-17211D01*
X55479Y-17116D01*
X55460Y-17059D01*
X55441Y-17021D01*
X55403Y-16964D01*
X55383Y-16945D01*
X55231Y-17402D02*
X55231Y-17002D01*
X55136Y-17002D01*
X55078Y-17021D01*
X55040Y-17059D01*
X55021Y-17097D01*
X55002Y-17173D01*
X55002Y-17230D01*
X55021Y-17307D01*
X55040Y-17345D01*
X55078Y-17383D01*
X55136Y-17402D01*
X55231Y-17402D01*
X54869Y-17554D02*
X54850Y-17535D01*
X54812Y-17478D01*
X54793Y-17440D01*
X54774Y-17383D01*
X54755Y-17288D01*
X54755Y-17211D01*
X54774Y-17116D01*
X54793Y-17059D01*
X54812Y-17021D01*
X54850Y-16964D01*
X54869Y-16945D01*
X54392Y-17135D02*
X54392Y-17402D01*
X54564Y-17135D02*
X54564Y-17345D01*
X54545Y-17383D01*
X54507Y-17402D01*
X54449Y-17402D01*
X54411Y-17383D01*
X54392Y-17364D01*
X54202Y-17402D02*
X54202Y-17135D01*
X54202Y-17173D02*
X54183Y-17154D01*
X54145Y-17135D01*
X54087Y-17135D01*
X54049Y-17154D01*
X54030Y-17192D01*
X54030Y-17402D01*
X54030Y-17192D02*
X54011Y-17154D01*
X53973Y-17135D01*
X53916Y-17135D01*
X53878Y-17154D01*
X53859Y-17192D01*
X53859Y-17402D01*
X53669Y-17402D02*
X53669Y-17135D01*
X53669Y-17173D02*
X53650Y-17154D01*
X53612Y-17135D01*
X53554Y-17135D01*
X53516Y-17154D01*
X53497Y-17192D01*
X53497Y-17402D01*
X53497Y-17192D02*
X53478Y-17154D01*
X53440Y-17135D01*
X53383Y-17135D01*
X53345Y-17154D01*
X53326Y-17192D01*
X53326Y-17402D01*
X53174Y-17135D02*
X53079Y-17402D01*
X52983Y-17135D02*
X53079Y-17402D01*
X53117Y-17497D01*
X53136Y-17516D01*
X53174Y-17535D01*
X52411Y-17554D02*
X52431Y-17535D01*
X52469Y-17478D01*
X52488Y-17440D01*
X52507Y-17383D01*
X52526Y-17288D01*
X52526Y-17211D01*
X52507Y-17116D01*
X52488Y-17059D01*
X52469Y-17021D01*
X52431Y-16964D01*
X52411Y-16945D01*
X52068Y-17402D02*
X52259Y-17402D01*
X52259Y-17002D01*
X51973Y-17554D02*
X51954Y-17535D01*
X51916Y-17478D01*
X51897Y-17440D01*
X51878Y-17383D01*
X51859Y-17288D01*
X51859Y-17211D01*
X51878Y-17116D01*
X51897Y-17059D01*
X51916Y-17021D01*
X51954Y-16964D01*
X51973Y-16945D01*
X51611Y-17402D02*
X51649Y-17383D01*
X51668Y-17364D01*
X51687Y-17326D01*
X51687Y-17211D01*
X51668Y-17173D01*
X51649Y-17154D01*
X51611Y-17135D01*
X51553Y-17135D01*
X51515Y-17154D01*
X51496Y-17173D01*
X51477Y-17211D01*
X51477Y-17326D01*
X51496Y-17364D01*
X51515Y-17383D01*
X51553Y-17402D01*
X51611Y-17402D01*
X51134Y-17402D02*
X51134Y-17192D01*
X51153Y-17154D01*
X51191Y-17135D01*
X51268Y-17135D01*
X51306Y-17154D01*
X51134Y-17383D02*
X51172Y-17402D01*
X51268Y-17402D01*
X51306Y-17383D01*
X51325Y-17345D01*
X51325Y-17307D01*
X51306Y-17269D01*
X51268Y-17250D01*
X51172Y-17250D01*
X51134Y-17230D01*
X50772Y-17402D02*
X50772Y-17002D01*
X50772Y-17383D02*
X50810Y-17402D01*
X50887Y-17402D01*
X50925Y-17383D01*
X50944Y-17364D01*
X50963Y-17326D01*
X50963Y-17211D01*
X50944Y-17173D01*
X50925Y-17154D01*
X50887Y-17135D01*
X50810Y-17135D01*
X50772Y-17154D01*
X61396Y-17680D02*
X61377Y-17661D01*
X61339Y-17642D01*
X61243Y-17642D01*
X61205Y-17661D01*
X61186Y-17680D01*
X61167Y-17718D01*
X61167Y-17756D01*
X61186Y-17813D01*
X61415Y-18042D01*
X61167Y-18042D01*
X60920Y-17642D02*
X60881Y-17642D01*
X60843Y-17661D01*
X60824Y-17680D01*
X60805Y-17718D01*
X60786Y-17794D01*
X60786Y-17890D01*
X60805Y-17966D01*
X60824Y-18004D01*
X60843Y-18023D01*
X60881Y-18042D01*
X60920Y-18042D01*
X60958Y-18023D01*
X60977Y-18004D01*
X60996Y-17966D01*
X61015Y-17890D01*
X61015Y-17794D01*
X60996Y-17718D01*
X60977Y-17680D01*
X60958Y-17661D01*
X60920Y-17642D01*
X60405Y-18042D02*
X60634Y-18042D01*
X60520Y-18042D02*
X60520Y-17642D01*
X60558Y-17699D01*
X60596Y-17737D01*
X60634Y-17756D01*
X60253Y-17680D02*
X60234Y-17661D01*
X60196Y-17642D01*
X60100Y-17642D01*
X60062Y-17661D01*
X60043Y-17680D01*
X60024Y-17718D01*
X60024Y-17756D01*
X60043Y-17813D01*
X60272Y-18042D01*
X60024Y-18042D01*
X59548Y-17890D02*
X59243Y-17890D01*
X58748Y-18042D02*
X58748Y-17642D01*
X58748Y-17794D02*
X58710Y-17775D01*
X58633Y-17775D01*
X58595Y-17794D01*
X58576Y-17813D01*
X58557Y-17851D01*
X58557Y-17966D01*
X58576Y-18004D01*
X58595Y-18023D01*
X58633Y-18042D01*
X58710Y-18042D01*
X58748Y-18023D01*
X58329Y-18042D02*
X58367Y-18023D01*
X58386Y-17985D01*
X58386Y-17642D01*
X58119Y-18042D02*
X58157Y-18023D01*
X58176Y-18004D01*
X58195Y-17966D01*
X58195Y-17851D01*
X58176Y-17813D01*
X58157Y-17794D01*
X58119Y-17775D01*
X58061Y-17775D01*
X58023Y-17794D01*
X58004Y-17813D01*
X57985Y-17851D01*
X57985Y-17966D01*
X58004Y-18004D01*
X58023Y-18023D01*
X58061Y-18042D01*
X58119Y-18042D01*
X57642Y-17775D02*
X57642Y-18099D01*
X57661Y-18137D01*
X57680Y-18156D01*
X57719Y-18175D01*
X57776Y-18175D01*
X57814Y-18156D01*
X57642Y-18023D02*
X57680Y-18042D01*
X57757Y-18042D01*
X57795Y-18023D01*
X57814Y-18004D01*
X57833Y-17966D01*
X57833Y-17851D01*
X57814Y-17813D01*
X57795Y-17794D01*
X57757Y-17775D01*
X57680Y-17775D01*
X57642Y-17794D01*
X57452Y-18004D02*
X57433Y-18023D01*
X57452Y-18042D01*
X57471Y-18023D01*
X57452Y-18004D01*
X57452Y-18042D01*
X57281Y-18023D02*
X57243Y-18042D01*
X57167Y-18042D01*
X57128Y-18023D01*
X57109Y-17985D01*
X57109Y-17966D01*
X57128Y-17928D01*
X57167Y-17909D01*
X57224Y-17909D01*
X57262Y-17890D01*
X57281Y-17851D01*
X57281Y-17832D01*
X57262Y-17794D01*
X57224Y-17775D01*
X57167Y-17775D01*
X57128Y-17794D01*
X56938Y-17775D02*
X56938Y-18175D01*
X56938Y-17794D02*
X56900Y-17775D01*
X56823Y-17775D01*
X56785Y-17794D01*
X56766Y-17813D01*
X56747Y-17851D01*
X56747Y-17966D01*
X56766Y-18004D01*
X56785Y-18023D01*
X56823Y-18042D01*
X56900Y-18042D01*
X56938Y-18023D01*
X56576Y-18042D02*
X56576Y-17775D01*
X56576Y-17642D02*
X56595Y-17661D01*
X56576Y-17680D01*
X56557Y-17661D01*
X56576Y-17642D01*
X56576Y-17680D01*
X56443Y-17775D02*
X56291Y-17775D01*
X56386Y-17642D02*
X56386Y-17985D01*
X56367Y-18023D01*
X56329Y-18042D01*
X56291Y-18042D01*
X56195Y-17775D02*
X55985Y-17775D01*
X56195Y-18042D01*
X55985Y-18042D01*
X55680Y-18023D02*
X55718Y-18042D01*
X55795Y-18042D01*
X55833Y-18023D01*
X55852Y-17985D01*
X55852Y-17832D01*
X55833Y-17794D01*
X55795Y-17775D01*
X55718Y-17775D01*
X55680Y-17794D01*
X55661Y-17832D01*
X55661Y-17870D01*
X55852Y-17909D01*
X55490Y-17775D02*
X55490Y-18042D01*
X55490Y-17813D02*
X55471Y-17794D01*
X55433Y-17775D01*
X55375Y-17775D01*
X55337Y-17794D01*
X55318Y-17832D01*
X55318Y-18042D01*
X55128Y-17775D02*
X55128Y-18175D01*
X55128Y-17794D02*
X55090Y-17775D01*
X55013Y-17775D01*
X54975Y-17794D01*
X54956Y-17813D01*
X54937Y-17851D01*
X54937Y-17966D01*
X54956Y-18004D01*
X54975Y-18023D01*
X55013Y-18042D01*
X55090Y-18042D01*
X55128Y-18023D01*
X54823Y-17775D02*
X54671Y-17775D01*
X54766Y-18042D02*
X54766Y-17699D01*
X54747Y-17661D01*
X54709Y-17642D01*
X54671Y-17642D01*
X54384Y-18023D02*
X54422Y-18042D01*
X54499Y-18042D01*
X54537Y-18023D01*
X54556Y-17985D01*
X54556Y-17832D01*
X54537Y-17794D01*
X54499Y-17775D01*
X54422Y-17775D01*
X54384Y-17794D01*
X54365Y-17832D01*
X54365Y-17870D01*
X54556Y-17909D01*
X54194Y-18042D02*
X54194Y-17775D01*
X54194Y-17642D02*
X54213Y-17661D01*
X54194Y-17680D01*
X54175Y-17661D01*
X54194Y-17642D01*
X54194Y-17680D01*
X53947Y-18042D02*
X53985Y-18023D01*
X54004Y-17985D01*
X54004Y-17642D01*
X53794Y-18004D02*
X53775Y-18023D01*
X53794Y-18042D01*
X53813Y-18023D01*
X53794Y-18004D01*
X53794Y-18042D01*
X53547Y-18042D02*
X53585Y-18023D01*
X53604Y-18004D01*
X53623Y-17966D01*
X53623Y-17851D01*
X53604Y-17813D01*
X53585Y-17794D01*
X53547Y-17775D01*
X53489Y-17775D01*
X53451Y-17794D01*
X53432Y-17813D01*
X53413Y-17851D01*
X53413Y-17966D01*
X53432Y-18004D01*
X53451Y-18023D01*
X53489Y-18042D01*
X53547Y-18042D01*
X53242Y-18042D02*
X53242Y-17775D01*
X53242Y-17851D02*
X53223Y-17813D01*
X53204Y-17794D01*
X53166Y-17775D01*
X53127Y-17775D01*
X52822Y-17775D02*
X52822Y-18099D01*
X52841Y-18137D01*
X52860Y-18156D01*
X52899Y-18175D01*
X52956Y-18175D01*
X52994Y-18156D01*
X52822Y-18023D02*
X52860Y-18042D01*
X52937Y-18042D01*
X52975Y-18023D01*
X52994Y-18004D01*
X53013Y-17966D01*
X53013Y-17851D01*
X52994Y-17813D01*
X52975Y-17794D01*
X52937Y-17775D01*
X52860Y-17775D01*
X52822Y-17794D01*
X37402Y-52756D02*
X37402Y-13386D01*
X76772Y-52756D02*
X37402Y-52756D01*
X76772Y-13386D02*
X76772Y-52756D01*
X37402Y-13386D02*
X76772Y-13386D01*
G54D12*
X48213Y-27559D03*
X49213Y-27559D03*
G54D13*
X50213Y-27559D03*
G54D12*
X63961Y-27559D03*
X64961Y-27559D03*
G54D13*
X65961Y-27559D03*
G54D14*
X39370Y-15354D03*
X74803Y-15354D03*
X39370Y-50787D03*
X74803Y-50787D03*
G54D15*
X71200Y-33300D03*
X71575Y-32300D03*
X70825Y-32300D03*
X73300Y-33300D03*
X73675Y-32300D03*
X72925Y-32300D03*
G54D16*
X67700Y-32100D03*
X67700Y-37100D03*
X66200Y-32100D03*
X66200Y-37100D03*
X64400Y-32100D03*
X64400Y-37100D03*
X62900Y-32100D03*
X62900Y-37100D03*
G54D17*
X72835Y-25118D03*
X41339Y-25118D03*
X57087Y-25118D03*
G54D18*
X72726Y-40900D03*
X73474Y-40900D03*
G54D15*
X70500Y-39900D03*
X70125Y-40900D03*
X70875Y-40900D03*
G54D19*
X73500Y-47926D03*
X73500Y-48674D03*
G54D20*
X73500Y-37500D03*
X73500Y-44500D03*
X68800Y-47900D03*
X63400Y-47900D03*
G54D21*
X50565Y-40950D03*
X39935Y-40950D03*
G54D22*
X47258Y-50714D03*
X43242Y-50714D03*
G54D23*
X45880Y-50714D03*
X44620Y-50714D03*
X40354Y-46496D03*
X40354Y-45496D03*
X40354Y-47496D03*
G54D24*
X56000Y-35100D03*
X55000Y-36100D03*
X56000Y-37100D03*
G54D25*
X56000Y-45200D03*
G54D26*
X56000Y-39294D03*
X54425Y-39294D03*
X57575Y-39294D03*
G54D27*
X48300Y-36600D03*
X48300Y-39400D03*
X48300Y-37500D03*
X47550Y-35650D03*
X47550Y-33350D03*
G54D28*
X63400Y-47900D02*
X61300Y-45800D01*
X57600Y-37100D02*
X56000Y-37100D01*
X61300Y-40800D02*
X61300Y-45800D01*
X48300Y-36600D02*
X54200Y-36600D01*
X57600Y-37100D02*
X61300Y-40800D01*
X54700Y-37100D02*
X56000Y-37100D01*
X54200Y-36600D02*
X54700Y-37100D01*
G54D29*
X70500Y-39900D02*
X69400Y-39900D01*
G54D30*
X65000Y-26500D02*
X65000Y-27500D01*
X68400Y-25500D02*
X66000Y-25500D01*
X58500Y-27500D02*
X60500Y-25500D01*
X50000Y-25500D02*
X53500Y-25500D01*
X55500Y-27500D02*
X58500Y-27500D01*
X64000Y-25500D02*
X65000Y-26500D01*
G54D29*
X69400Y-39900D02*
X69200Y-39700D01*
X71600Y-31600D02*
X70700Y-31600D01*
X69200Y-33100D02*
X70700Y-31600D01*
G54D30*
X65000Y-27500D02*
X64961Y-27559D01*
G54D28*
X71575Y-31725D02*
X71600Y-31700D01*
G54D29*
X69200Y-39700D02*
X69200Y-33100D01*
G54D30*
X73700Y-30800D02*
X73000Y-30100D01*
X49213Y-27559D02*
X49213Y-26287D01*
G54D28*
X71575Y-32300D02*
X71575Y-31725D01*
G54D30*
X72250Y-29550D02*
X72450Y-29550D01*
X73700Y-31700D02*
X73700Y-30800D01*
X73000Y-30100D02*
X72450Y-29550D01*
X72450Y-29550D02*
X68400Y-25500D01*
X66000Y-25500D02*
X65000Y-26500D01*
X60500Y-25500D02*
X64000Y-25500D01*
G54D28*
X73675Y-32300D02*
X73675Y-31725D01*
X73675Y-31725D02*
X73700Y-31700D01*
G54D30*
X72250Y-29550D02*
X71600Y-30200D01*
X49213Y-26287D02*
X50000Y-25500D01*
X53500Y-25500D02*
X55500Y-27500D01*
X71600Y-31600D02*
X71600Y-30200D01*
X71600Y-31700D02*
X71600Y-31600D01*
X73500Y-36300D02*
X73500Y-37500D01*
G54D28*
X73300Y-33300D02*
X73300Y-33900D01*
G54D30*
X73500Y-37000D02*
X71200Y-34700D01*
X73500Y-34100D02*
X73300Y-33900D01*
X73500Y-34100D02*
X73500Y-37500D01*
X73500Y-36200D02*
X73500Y-37500D01*
X73500Y-37500D02*
X73500Y-37000D01*
G54D28*
X71200Y-33900D02*
X71200Y-33300D01*
G54D30*
X71200Y-34700D02*
X71200Y-33900D01*
X64000Y-27500D02*
X63961Y-27559D01*
X62550Y-29950D02*
X64000Y-28500D01*
X62900Y-32100D02*
X64400Y-32100D01*
X62500Y-30000D02*
X62550Y-29950D01*
X62550Y-29950D02*
X62550Y-31750D01*
X62550Y-31750D02*
X62900Y-32100D01*
X66200Y-32100D02*
X67700Y-32100D01*
X49500Y-30000D02*
X62500Y-30000D01*
X64400Y-32100D02*
X66200Y-32100D01*
X48213Y-27559D02*
X48213Y-28713D01*
X64000Y-28500D02*
X64000Y-27500D01*
X48213Y-28713D02*
X49500Y-30000D01*
G54D28*
X38400Y-47450D02*
X38400Y-16324D01*
X38400Y-16324D02*
X39370Y-15354D01*
X73500Y-49484D02*
X74803Y-50787D01*
X73500Y-48674D02*
X73500Y-49484D01*
X39370Y-15354D02*
X74803Y-15354D01*
X38400Y-47860D02*
X38400Y-47600D01*
X38400Y-47600D02*
X38400Y-47450D01*
X48300Y-39400D02*
X49800Y-39400D01*
X49800Y-39400D02*
X54319Y-39400D01*
X68800Y-47900D02*
X70000Y-47900D01*
X40354Y-47496D02*
X38400Y-47496D01*
X39370Y-49770D02*
X38400Y-48800D01*
X39370Y-50787D02*
X39587Y-50787D01*
X39370Y-50787D02*
X39370Y-49770D01*
X38400Y-48800D02*
X38400Y-47860D01*
X40800Y-52000D02*
X73590Y-52000D01*
X39587Y-50787D02*
X40800Y-52000D01*
X54319Y-39400D02*
X54425Y-39294D01*
X38400Y-47496D02*
X38400Y-47600D01*
X72887Y-50787D02*
X74803Y-50787D01*
X73590Y-52000D02*
X74803Y-50787D01*
X70000Y-47900D02*
X72887Y-50787D01*
G54D30*
X65300Y-37100D02*
X66200Y-37100D01*
X65300Y-37100D02*
X65300Y-40800D01*
X65300Y-40800D02*
X69000Y-44500D01*
X69000Y-44500D02*
X73500Y-44500D01*
X62900Y-37100D02*
X64400Y-37100D01*
G54D29*
X73474Y-40900D02*
X73474Y-44474D01*
G54D30*
X64400Y-37100D02*
X65300Y-37100D01*
X66200Y-37100D02*
X67700Y-37100D01*
G54D28*
X73500Y-40926D02*
X73474Y-40900D01*
X73500Y-44500D02*
X73500Y-47926D01*
G54D29*
X73474Y-44474D02*
X73500Y-44500D01*
G54D28*
X48300Y-37500D02*
X54206Y-37500D01*
X54206Y-37500D02*
X56000Y-39294D01*
X47550Y-35650D02*
X47550Y-33350D01*
G54D29*
X72000Y-32300D02*
X72925Y-32300D01*
X71900Y-32400D02*
X72000Y-32300D01*
X71900Y-32600D02*
X71900Y-32400D01*
X71800Y-32700D02*
X71900Y-32600D01*
X71100Y-32700D02*
X71800Y-32700D01*
X70825Y-32300D02*
X70825Y-32425D01*
X70825Y-32425D02*
X71100Y-32700D01*
X71600Y-40900D02*
X72726Y-40900D01*
X71300Y-40900D02*
X71600Y-40900D01*
X70875Y-40900D02*
X71300Y-40900D01*
X69400Y-37600D02*
X69400Y-39300D01*
X70825Y-32300D02*
X70300Y-32300D01*
X69400Y-33200D02*
X70300Y-32300D01*
X69400Y-33225D02*
X69400Y-33200D01*
X71300Y-40000D02*
X71300Y-40900D01*
X70800Y-39500D02*
X71300Y-40000D01*
X69600Y-39500D02*
X70800Y-39500D01*
X69400Y-39300D02*
X69600Y-39500D01*
X69400Y-37600D02*
X69400Y-33225D01*
G54D10*
G36*
X75170Y-31149D02*
X75156Y-31290D01*
X75115Y-31425D01*
X75049Y-31550D01*
X74959Y-31659D01*
X74850Y-31749D01*
X74741Y-31806D01*
X74741Y-24931D01*
X74668Y-24564D01*
X74526Y-24219D01*
X74319Y-23907D01*
X74056Y-23642D01*
X73746Y-23433D01*
X73401Y-23288D01*
X73035Y-23213D01*
X72661Y-23211D01*
X72294Y-23281D01*
X71948Y-23421D01*
X71635Y-23626D01*
X71368Y-23887D01*
X71157Y-24195D01*
X71009Y-24539D01*
X70932Y-24905D01*
X70927Y-25278D01*
X70994Y-25646D01*
X71132Y-25994D01*
X71334Y-26308D01*
X71594Y-26577D01*
X71901Y-26790D01*
X72243Y-26939D01*
X72608Y-27020D01*
X72982Y-27027D01*
X73350Y-26963D01*
X73699Y-26827D01*
X74014Y-26627D01*
X74285Y-26369D01*
X74500Y-26064D01*
X74652Y-25722D01*
X74735Y-25358D01*
X74741Y-24931D01*
X74741Y-31806D01*
X74725Y-31815D01*
X74590Y-31856D01*
X74449Y-31870D01*
X70751Y-31870D01*
X70610Y-31856D01*
X70475Y-31815D01*
X70350Y-31749D01*
X70241Y-31659D01*
X70151Y-31550D01*
X70085Y-31425D01*
X70044Y-31290D01*
X70030Y-31149D01*
X70030Y-29510D01*
X70016Y-29358D01*
X69971Y-29212D01*
X69899Y-29077D01*
X69802Y-28960D01*
X69137Y-28294D01*
X69108Y-28264D01*
X67646Y-26629D01*
X67551Y-26539D01*
X67442Y-26467D01*
X67322Y-26414D01*
X67195Y-26381D01*
X67066Y-26370D01*
X63149Y-26370D01*
X62998Y-26384D01*
X62851Y-26429D01*
X62716Y-26501D01*
X62599Y-26599D01*
X62501Y-26716D01*
X62429Y-26851D01*
X62384Y-26998D01*
X62370Y-27149D01*
X62370Y-27549D01*
X62356Y-27690D01*
X62315Y-27825D01*
X62249Y-27950D01*
X62159Y-28059D01*
X62050Y-28149D01*
X61925Y-28215D01*
X61790Y-28256D01*
X61649Y-28270D01*
X58993Y-28270D01*
X58993Y-24931D01*
X58920Y-24564D01*
X58778Y-24219D01*
X58571Y-23907D01*
X58308Y-23642D01*
X57998Y-23433D01*
X57653Y-23288D01*
X57287Y-23213D01*
X56913Y-23211D01*
X56546Y-23281D01*
X56200Y-23421D01*
X55887Y-23626D01*
X55620Y-23887D01*
X55409Y-24195D01*
X55261Y-24539D01*
X55184Y-24905D01*
X55179Y-25278D01*
X55246Y-25646D01*
X55384Y-25994D01*
X55586Y-26308D01*
X55846Y-26577D01*
X56153Y-26790D01*
X56495Y-26939D01*
X56860Y-27020D01*
X57234Y-27027D01*
X57602Y-26963D01*
X57951Y-26827D01*
X58266Y-26627D01*
X58537Y-26369D01*
X58752Y-26064D01*
X58904Y-25722D01*
X58987Y-25358D01*
X58993Y-24931D01*
X58993Y-28270D01*
X52351Y-28270D01*
X52210Y-28256D01*
X52075Y-28215D01*
X51950Y-28149D01*
X51841Y-28059D01*
X51751Y-27950D01*
X51685Y-27825D01*
X51644Y-27690D01*
X51630Y-27549D01*
X51630Y-27149D01*
X51616Y-26998D01*
X51571Y-26851D01*
X51499Y-26716D01*
X51401Y-26599D01*
X51284Y-26501D01*
X51149Y-26429D01*
X51002Y-26384D01*
X50851Y-26370D01*
X48051Y-26370D01*
X47910Y-26356D01*
X47775Y-26315D01*
X47650Y-26249D01*
X47541Y-26159D01*
X47451Y-26050D01*
X47385Y-25925D01*
X47344Y-25790D01*
X47330Y-25649D01*
X47330Y-21851D01*
X47344Y-21710D01*
X47385Y-21575D01*
X47451Y-21450D01*
X47541Y-21341D01*
X47650Y-21251D01*
X47775Y-21185D01*
X47910Y-21144D01*
X48051Y-21130D01*
X74449Y-21130D01*
X74590Y-21144D01*
X74725Y-21185D01*
X74850Y-21251D01*
X74959Y-21341D01*
X75049Y-21450D01*
X75115Y-21575D01*
X75156Y-21710D01*
X75170Y-21851D01*
X75170Y-31149D01*
X75170Y-31149D01*
G37*
X75170Y-31149D02*
X75156Y-31290D01*
X75115Y-31425D01*
X75049Y-31550D01*
X74959Y-31659D01*
X74850Y-31749D01*
X74741Y-31806D01*
X74741Y-24931D01*
X74668Y-24564D01*
X74526Y-24219D01*
X74319Y-23907D01*
X74056Y-23642D01*
X73746Y-23433D01*
X73401Y-23288D01*
X73035Y-23213D01*
X72661Y-23211D01*
X72294Y-23281D01*
X71948Y-23421D01*
X71635Y-23626D01*
X71368Y-23887D01*
X71157Y-24195D01*
X71009Y-24539D01*
X70932Y-24905D01*
X70927Y-25278D01*
X70994Y-25646D01*
X71132Y-25994D01*
X71334Y-26308D01*
X71594Y-26577D01*
X71901Y-26790D01*
X72243Y-26939D01*
X72608Y-27020D01*
X72982Y-27027D01*
X73350Y-26963D01*
X73699Y-26827D01*
X74014Y-26627D01*
X74285Y-26369D01*
X74500Y-26064D01*
X74652Y-25722D01*
X74735Y-25358D01*
X74741Y-24931D01*
X74741Y-31806D01*
X74725Y-31815D01*
X74590Y-31856D01*
X74449Y-31870D01*
X70751Y-31870D01*
X70610Y-31856D01*
X70475Y-31815D01*
X70350Y-31749D01*
X70241Y-31659D01*
X70151Y-31550D01*
X70085Y-31425D01*
X70044Y-31290D01*
X70030Y-31149D01*
X70030Y-29510D01*
X70016Y-29358D01*
X69971Y-29212D01*
X69899Y-29077D01*
X69802Y-28960D01*
X69137Y-28294D01*
X69108Y-28264D01*
X67646Y-26629D01*
X67551Y-26539D01*
X67442Y-26467D01*
X67322Y-26414D01*
X67195Y-26381D01*
X67066Y-26370D01*
X63149Y-26370D01*
X62998Y-26384D01*
X62851Y-26429D01*
X62716Y-26501D01*
X62599Y-26599D01*
X62501Y-26716D01*
X62429Y-26851D01*
X62384Y-26998D01*
X62370Y-27149D01*
X62370Y-27549D01*
X62356Y-27690D01*
X62315Y-27825D01*
X62249Y-27950D01*
X62159Y-28059D01*
X62050Y-28149D01*
X61925Y-28215D01*
X61790Y-28256D01*
X61649Y-28270D01*
X58993Y-28270D01*
X58993Y-24931D01*
X58920Y-24564D01*
X58778Y-24219D01*
X58571Y-23907D01*
X58308Y-23642D01*
X57998Y-23433D01*
X57653Y-23288D01*
X57287Y-23213D01*
X56913Y-23211D01*
X56546Y-23281D01*
X56200Y-23421D01*
X55887Y-23626D01*
X55620Y-23887D01*
X55409Y-24195D01*
X55261Y-24539D01*
X55184Y-24905D01*
X55179Y-25278D01*
X55246Y-25646D01*
X55384Y-25994D01*
X55586Y-26308D01*
X55846Y-26577D01*
X56153Y-26790D01*
X56495Y-26939D01*
X56860Y-27020D01*
X57234Y-27027D01*
X57602Y-26963D01*
X57951Y-26827D01*
X58266Y-26627D01*
X58537Y-26369D01*
X58752Y-26064D01*
X58904Y-25722D01*
X58987Y-25358D01*
X58993Y-24931D01*
X58993Y-28270D01*
X52351Y-28270D01*
X52210Y-28256D01*
X52075Y-28215D01*
X51950Y-28149D01*
X51841Y-28059D01*
X51751Y-27950D01*
X51685Y-27825D01*
X51644Y-27690D01*
X51630Y-27549D01*
X51630Y-27149D01*
X51616Y-26998D01*
X51571Y-26851D01*
X51499Y-26716D01*
X51401Y-26599D01*
X51284Y-26501D01*
X51149Y-26429D01*
X51002Y-26384D01*
X50851Y-26370D01*
X48051Y-26370D01*
X47910Y-26356D01*
X47775Y-26315D01*
X47650Y-26249D01*
X47541Y-26159D01*
X47451Y-26050D01*
X47385Y-25925D01*
X47344Y-25790D01*
X47330Y-25649D01*
X47330Y-21851D01*
X47344Y-21710D01*
X47385Y-21575D01*
X47451Y-21450D01*
X47541Y-21341D01*
X47650Y-21251D01*
X47775Y-21185D01*
X47910Y-21144D01*
X48051Y-21130D01*
X74449Y-21130D01*
X74590Y-21144D01*
X74725Y-21185D01*
X74850Y-21251D01*
X74959Y-21341D01*
X75049Y-21450D01*
X75115Y-21575D01*
X75156Y-21710D01*
X75170Y-21851D01*
X75170Y-31149D01*
G36*
X75370Y-36949D02*
X75356Y-37090D01*
X75315Y-37225D01*
X75249Y-37350D01*
X75159Y-37459D01*
X75050Y-37549D01*
X74925Y-37615D01*
X74790Y-37656D01*
X74649Y-37670D01*
X71051Y-37670D01*
X70910Y-37656D01*
X70775Y-37615D01*
X70650Y-37549D01*
X70541Y-37459D01*
X70451Y-37350D01*
X70385Y-37225D01*
X70344Y-37090D01*
X70330Y-36949D01*
X70330Y-34451D01*
X70344Y-34310D01*
X70385Y-34175D01*
X70451Y-34050D01*
X70541Y-33941D01*
X70650Y-33851D01*
X70775Y-33785D01*
X70910Y-33744D01*
X71051Y-33730D01*
X74649Y-33730D01*
X74790Y-33744D01*
X74925Y-33785D01*
X75050Y-33851D01*
X75159Y-33941D01*
X75249Y-34050D01*
X75315Y-34175D01*
X75356Y-34310D01*
X75370Y-34451D01*
X75370Y-36949D01*
X75370Y-36949D01*
G37*
X75370Y-36949D02*
X75356Y-37090D01*
X75315Y-37225D01*
X75249Y-37350D01*
X75159Y-37459D01*
X75050Y-37549D01*
X74925Y-37615D01*
X74790Y-37656D01*
X74649Y-37670D01*
X71051Y-37670D01*
X70910Y-37656D01*
X70775Y-37615D01*
X70650Y-37549D01*
X70541Y-37459D01*
X70451Y-37350D01*
X70385Y-37225D01*
X70344Y-37090D01*
X70330Y-36949D01*
X70330Y-34451D01*
X70344Y-34310D01*
X70385Y-34175D01*
X70451Y-34050D01*
X70541Y-33941D01*
X70650Y-33851D01*
X70775Y-33785D01*
X70910Y-33744D01*
X71051Y-33730D01*
X74649Y-33730D01*
X74790Y-33744D01*
X74925Y-33785D01*
X75050Y-33851D01*
X75159Y-33941D01*
X75249Y-34050D01*
X75315Y-34175D01*
X75356Y-34310D01*
X75370Y-34451D01*
X75370Y-36949D01*
G36*
X68570Y-31949D02*
X68556Y-32090D01*
X68515Y-32225D01*
X68449Y-32350D01*
X68359Y-32459D01*
X68250Y-32549D01*
X68125Y-32615D01*
X67990Y-32656D01*
X67849Y-32670D01*
X48051Y-32670D01*
X47910Y-32656D01*
X47775Y-32615D01*
X47650Y-32549D01*
X47541Y-32459D01*
X47451Y-32350D01*
X47385Y-32225D01*
X47344Y-32090D01*
X47330Y-31949D01*
X47330Y-29351D01*
X47344Y-29210D01*
X47385Y-29075D01*
X47451Y-28950D01*
X47541Y-28841D01*
X47650Y-28751D01*
X47775Y-28685D01*
X47910Y-28644D01*
X48051Y-28630D01*
X50698Y-28630D01*
X50733Y-28634D01*
X50765Y-28643D01*
X50794Y-28659D01*
X50820Y-28680D01*
X50841Y-28706D01*
X50857Y-28735D01*
X50866Y-28767D01*
X50874Y-28845D01*
X50887Y-28889D01*
X50909Y-28928D01*
X50938Y-28962D01*
X50972Y-28991D01*
X51011Y-29013D01*
X51055Y-29026D01*
X51098Y-29030D01*
X62952Y-29030D01*
X62985Y-29027D01*
X63018Y-29017D01*
X63050Y-29000D01*
X63077Y-28977D01*
X63100Y-28950D01*
X63117Y-28918D01*
X63127Y-28885D01*
X63133Y-28827D01*
X63139Y-28804D01*
X63150Y-28784D01*
X63165Y-28765D01*
X63184Y-28750D01*
X63204Y-28739D01*
X63227Y-28733D01*
X63252Y-28730D01*
X66749Y-28730D01*
X66865Y-28740D01*
X66977Y-28767D01*
X67084Y-28813D01*
X67183Y-28875D01*
X68281Y-29698D01*
X68381Y-29788D01*
X68461Y-29895D01*
X68521Y-30014D01*
X68557Y-30143D01*
X68570Y-30276D01*
X68570Y-31949D01*
X68570Y-31949D01*
G37*
X68570Y-31949D02*
X68556Y-32090D01*
X68515Y-32225D01*
X68449Y-32350D01*
X68359Y-32459D01*
X68250Y-32549D01*
X68125Y-32615D01*
X67990Y-32656D01*
X67849Y-32670D01*
X48051Y-32670D01*
X47910Y-32656D01*
X47775Y-32615D01*
X47650Y-32549D01*
X47541Y-32459D01*
X47451Y-32350D01*
X47385Y-32225D01*
X47344Y-32090D01*
X47330Y-31949D01*
X47330Y-29351D01*
X47344Y-29210D01*
X47385Y-29075D01*
X47451Y-28950D01*
X47541Y-28841D01*
X47650Y-28751D01*
X47775Y-28685D01*
X47910Y-28644D01*
X48051Y-28630D01*
X50698Y-28630D01*
X50733Y-28634D01*
X50765Y-28643D01*
X50794Y-28659D01*
X50820Y-28680D01*
X50841Y-28706D01*
X50857Y-28735D01*
X50866Y-28767D01*
X50874Y-28845D01*
X50887Y-28889D01*
X50909Y-28928D01*
X50938Y-28962D01*
X50972Y-28991D01*
X51011Y-29013D01*
X51055Y-29026D01*
X51098Y-29030D01*
X62952Y-29030D01*
X62985Y-29027D01*
X63018Y-29017D01*
X63050Y-29000D01*
X63077Y-28977D01*
X63100Y-28950D01*
X63117Y-28918D01*
X63127Y-28885D01*
X63133Y-28827D01*
X63139Y-28804D01*
X63150Y-28784D01*
X63165Y-28765D01*
X63184Y-28750D01*
X63204Y-28739D01*
X63227Y-28733D01*
X63252Y-28730D01*
X66749Y-28730D01*
X66865Y-28740D01*
X66977Y-28767D01*
X67084Y-28813D01*
X67183Y-28875D01*
X68281Y-29698D01*
X68381Y-29788D01*
X68461Y-29895D01*
X68521Y-30014D01*
X68557Y-30143D01*
X68570Y-30276D01*
X68570Y-31949D01*
G36*
X73470Y-45749D02*
X73456Y-45890D01*
X73415Y-46025D01*
X73349Y-46150D01*
X73259Y-46259D01*
X73150Y-46349D01*
X73025Y-46415D01*
X72890Y-46456D01*
X72749Y-46470D01*
X71735Y-46470D01*
X71614Y-46459D01*
X71497Y-46430D01*
X71387Y-46381D01*
X71287Y-46314D01*
X71198Y-46231D01*
X70744Y-45727D01*
X70651Y-45638D01*
X70541Y-45567D01*
X70423Y-45514D01*
X70296Y-45481D01*
X70167Y-45470D01*
X63997Y-45470D01*
X63862Y-45457D01*
X63732Y-45420D01*
X63611Y-45359D01*
X63503Y-45275D01*
X62459Y-44301D01*
X62380Y-44213D01*
X62315Y-44114D01*
X62268Y-44006D01*
X62240Y-43892D01*
X62230Y-43773D01*
X62230Y-37151D01*
X62244Y-37010D01*
X62285Y-36875D01*
X62351Y-36750D01*
X62441Y-36641D01*
X62550Y-36551D01*
X62675Y-36485D01*
X62810Y-36444D01*
X62951Y-36430D01*
X67649Y-36430D01*
X67790Y-36444D01*
X67925Y-36485D01*
X68050Y-36551D01*
X68159Y-36641D01*
X68249Y-36750D01*
X68315Y-36875D01*
X68356Y-37010D01*
X68370Y-37151D01*
X68370Y-40690D01*
X68379Y-40812D01*
X68408Y-40930D01*
X68455Y-41044D01*
X68519Y-41148D01*
X68598Y-41240D01*
X69660Y-42302D01*
X69752Y-42381D01*
X69856Y-42445D01*
X69970Y-42492D01*
X70088Y-42521D01*
X70210Y-42530D01*
X72749Y-42530D01*
X72890Y-42544D01*
X73025Y-42585D01*
X73150Y-42651D01*
X73259Y-42741D01*
X73349Y-42850D01*
X73415Y-42975D01*
X73456Y-43110D01*
X73470Y-43251D01*
X73470Y-45749D01*
X73470Y-45749D01*
G37*
X73470Y-45749D02*
X73456Y-45890D01*
X73415Y-46025D01*
X73349Y-46150D01*
X73259Y-46259D01*
X73150Y-46349D01*
X73025Y-46415D01*
X72890Y-46456D01*
X72749Y-46470D01*
X71735Y-46470D01*
X71614Y-46459D01*
X71497Y-46430D01*
X71387Y-46381D01*
X71287Y-46314D01*
X71198Y-46231D01*
X70744Y-45727D01*
X70651Y-45638D01*
X70541Y-45567D01*
X70423Y-45514D01*
X70296Y-45481D01*
X70167Y-45470D01*
X63997Y-45470D01*
X63862Y-45457D01*
X63732Y-45420D01*
X63611Y-45359D01*
X63503Y-45275D01*
X62459Y-44301D01*
X62380Y-44213D01*
X62315Y-44114D01*
X62268Y-44006D01*
X62240Y-43892D01*
X62230Y-43773D01*
X62230Y-37151D01*
X62244Y-37010D01*
X62285Y-36875D01*
X62351Y-36750D01*
X62441Y-36641D01*
X62550Y-36551D01*
X62675Y-36485D01*
X62810Y-36444D01*
X62951Y-36430D01*
X67649Y-36430D01*
X67790Y-36444D01*
X67925Y-36485D01*
X68050Y-36551D01*
X68159Y-36641D01*
X68249Y-36750D01*
X68315Y-36875D01*
X68356Y-37010D01*
X68370Y-37151D01*
X68370Y-40690D01*
X68379Y-40812D01*
X68408Y-40930D01*
X68455Y-41044D01*
X68519Y-41148D01*
X68598Y-41240D01*
X69660Y-42302D01*
X69752Y-42381D01*
X69856Y-42445D01*
X69970Y-42492D01*
X70088Y-42521D01*
X70210Y-42530D01*
X72749Y-42530D01*
X72890Y-42544D01*
X73025Y-42585D01*
X73150Y-42651D01*
X73259Y-42741D01*
X73349Y-42850D01*
X73415Y-42975D01*
X73456Y-43110D01*
X73470Y-43251D01*
X73470Y-45749D01*
G36*
X76348Y-51611D02*
X76334Y-51752D01*
X76293Y-51887D01*
X76227Y-52012D01*
X76137Y-52121D01*
X76028Y-52211D01*
X75903Y-52277D01*
X75768Y-52318D01*
X75630Y-52331D01*
X75630Y-37151D01*
X75630Y-34249D01*
X75616Y-34098D01*
X75571Y-33951D01*
X75499Y-33816D01*
X75430Y-33733D01*
X75401Y-33699D01*
X75284Y-33601D01*
X75149Y-33529D01*
X75002Y-33484D01*
X74950Y-33479D01*
X74950Y-33370D01*
X74950Y-32230D01*
X73970Y-32230D01*
X73970Y-33370D01*
X74950Y-33370D01*
X74950Y-33479D01*
X74851Y-33470D01*
X73567Y-33470D01*
X73567Y-33090D01*
X73562Y-33065D01*
X73552Y-33042D01*
X73538Y-33021D01*
X73520Y-33003D01*
X73499Y-32989D01*
X73476Y-32979D01*
X73451Y-32974D01*
X73426Y-32974D01*
X73149Y-32974D01*
X73124Y-32979D01*
X73101Y-32989D01*
X73080Y-33003D01*
X73062Y-33021D01*
X73048Y-33042D01*
X73038Y-33065D01*
X73033Y-33090D01*
X73033Y-33115D01*
X73033Y-33470D01*
X71467Y-33470D01*
X71467Y-33090D01*
X71462Y-33065D01*
X71452Y-33042D01*
X71438Y-33021D01*
X71420Y-33003D01*
X71399Y-32989D01*
X71376Y-32979D01*
X71351Y-32974D01*
X71326Y-32974D01*
X71049Y-32974D01*
X71024Y-32979D01*
X71001Y-32989D01*
X70980Y-33003D01*
X70962Y-33021D01*
X70948Y-33042D01*
X70938Y-33065D01*
X70933Y-33090D01*
X70933Y-33115D01*
X70933Y-33470D01*
X70849Y-33470D01*
X70698Y-33484D01*
X70552Y-33529D01*
X70537Y-33536D01*
X70416Y-33601D01*
X70299Y-33699D01*
X70201Y-33816D01*
X70129Y-33951D01*
X70084Y-34098D01*
X70070Y-34249D01*
X70070Y-37151D01*
X70084Y-37302D01*
X70129Y-37449D01*
X70201Y-37584D01*
X70299Y-37701D01*
X70416Y-37799D01*
X70551Y-37871D01*
X70698Y-37916D01*
X70849Y-37930D01*
X71445Y-37930D01*
X71474Y-38081D01*
X71625Y-38464D01*
X71848Y-38810D01*
X72134Y-39106D01*
X72472Y-39340D01*
X72849Y-39505D01*
X73251Y-39593D01*
X73662Y-39602D01*
X74067Y-39530D01*
X74451Y-39382D01*
X74798Y-39161D01*
X75096Y-38877D01*
X75333Y-38541D01*
X75500Y-38165D01*
X75592Y-37764D01*
X75597Y-37363D01*
X75616Y-37302D01*
X75630Y-37151D01*
X75630Y-52331D01*
X75627Y-52332D01*
X75598Y-52332D01*
X75598Y-44294D01*
X75518Y-43890D01*
X75361Y-43510D01*
X75161Y-43209D01*
X75161Y-41350D01*
X75161Y-40370D01*
X74040Y-40370D01*
X74040Y-41350D01*
X75161Y-41350D01*
X75161Y-43209D01*
X75133Y-43167D01*
X74844Y-42876D01*
X74502Y-42645D01*
X74123Y-42486D01*
X73720Y-42403D01*
X73654Y-42402D01*
X73654Y-41324D01*
X73742Y-41324D01*
X73767Y-41319D01*
X73790Y-41309D01*
X73811Y-41295D01*
X73829Y-41277D01*
X73843Y-41256D01*
X73853Y-41233D01*
X73858Y-41208D01*
X73858Y-41183D01*
X73858Y-40592D01*
X73853Y-40567D01*
X73843Y-40544D01*
X73829Y-40523D01*
X73811Y-40505D01*
X73790Y-40491D01*
X73767Y-40481D01*
X73742Y-40476D01*
X73717Y-40476D01*
X73206Y-40476D01*
X73181Y-40481D01*
X73158Y-40491D01*
X73137Y-40505D01*
X73119Y-40523D01*
X73105Y-40544D01*
X73100Y-40555D01*
X73095Y-40544D01*
X73081Y-40523D01*
X73063Y-40505D01*
X73042Y-40491D01*
X73019Y-40481D01*
X72994Y-40476D01*
X72969Y-40476D01*
X72458Y-40476D01*
X72433Y-40481D01*
X72410Y-40491D01*
X72389Y-40505D01*
X72371Y-40523D01*
X72357Y-40544D01*
X72347Y-40567D01*
X72342Y-40592D01*
X72342Y-40617D01*
X72342Y-40720D01*
X71603Y-40720D01*
X71600Y-40720D01*
X71480Y-40720D01*
X71480Y-40002D01*
X71480Y-40000D01*
X71477Y-39967D01*
X71477Y-39965D01*
X71470Y-39945D01*
X71467Y-39933D01*
X71466Y-39931D01*
X71451Y-39902D01*
X71450Y-39900D01*
X71429Y-39875D01*
X71428Y-39873D01*
X71422Y-39868D01*
X71251Y-39697D01*
X71251Y-39250D01*
X71251Y-38270D01*
X69749Y-38270D01*
X69749Y-39250D01*
X71251Y-39250D01*
X71251Y-39697D01*
X70933Y-39379D01*
X70929Y-39374D01*
X70927Y-39373D01*
X70902Y-39351D01*
X70900Y-39350D01*
X70871Y-39335D01*
X70870Y-39334D01*
X70869Y-39334D01*
X70835Y-39323D01*
X70809Y-39320D01*
X70803Y-39320D01*
X70801Y-39320D01*
X70800Y-39320D01*
X69674Y-39320D01*
X69580Y-39225D01*
X69580Y-37603D01*
X69580Y-37600D01*
X69580Y-33274D01*
X70374Y-32480D01*
X70558Y-32480D01*
X70558Y-32510D01*
X70563Y-32535D01*
X70573Y-32558D01*
X70587Y-32579D01*
X70605Y-32597D01*
X70626Y-32611D01*
X70649Y-32621D01*
X70674Y-32626D01*
X70699Y-32626D01*
X70771Y-32626D01*
X70970Y-32825D01*
X70971Y-32826D01*
X70972Y-32827D01*
X70976Y-32830D01*
X70998Y-32849D01*
X70999Y-32849D01*
X71029Y-32865D01*
X71031Y-32866D01*
X71048Y-32871D01*
X71063Y-32876D01*
X71064Y-32876D01*
X71097Y-32880D01*
X71099Y-32880D01*
X71100Y-32880D01*
X71770Y-32880D01*
X71770Y-33370D01*
X72750Y-33370D01*
X72750Y-32621D01*
X72774Y-32626D01*
X72799Y-32626D01*
X73076Y-32626D01*
X73101Y-32621D01*
X73124Y-32611D01*
X73145Y-32597D01*
X73163Y-32579D01*
X73177Y-32558D01*
X73187Y-32535D01*
X73192Y-32510D01*
X73192Y-32485D01*
X73192Y-32130D01*
X73408Y-32130D01*
X73408Y-32510D01*
X73413Y-32535D01*
X73423Y-32558D01*
X73437Y-32579D01*
X73455Y-32597D01*
X73476Y-32611D01*
X73499Y-32621D01*
X73524Y-32626D01*
X73549Y-32626D01*
X73826Y-32626D01*
X73851Y-32621D01*
X73874Y-32611D01*
X73895Y-32597D01*
X73913Y-32579D01*
X73927Y-32558D01*
X73937Y-32535D01*
X73942Y-32510D01*
X73942Y-32485D01*
X73942Y-32130D01*
X74651Y-32130D01*
X74802Y-32116D01*
X74949Y-32071D01*
X75084Y-31999D01*
X75201Y-31901D01*
X75299Y-31784D01*
X75371Y-31649D01*
X75416Y-31502D01*
X75430Y-31351D01*
X75430Y-21649D01*
X75416Y-21498D01*
X75371Y-21351D01*
X75299Y-21216D01*
X75201Y-21099D01*
X75084Y-21001D01*
X74949Y-20929D01*
X74802Y-20884D01*
X74651Y-20870D01*
X63693Y-20870D01*
X63693Y-18330D01*
X63693Y-16070D01*
X50507Y-16070D01*
X50507Y-18330D01*
X63693Y-18330D01*
X63693Y-20870D01*
X47849Y-20870D01*
X47698Y-20884D01*
X47551Y-20929D01*
X47416Y-21001D01*
X47299Y-21099D01*
X47201Y-21216D01*
X47129Y-21351D01*
X47084Y-21498D01*
X47070Y-21649D01*
X47070Y-25851D01*
X47084Y-26002D01*
X47129Y-26149D01*
X47201Y-26284D01*
X47299Y-26401D01*
X47416Y-26499D01*
X47551Y-26571D01*
X47698Y-26616D01*
X47849Y-26630D01*
X48733Y-26630D01*
X48733Y-27552D01*
X48732Y-27599D01*
X48749Y-27692D01*
X48768Y-27740D01*
X48769Y-27742D01*
X48784Y-27779D01*
X48811Y-27821D01*
X48813Y-27825D01*
X48814Y-27826D01*
X48835Y-27859D01*
X48872Y-27897D01*
X48900Y-27926D01*
X48945Y-27957D01*
X48978Y-27980D01*
X49027Y-28001D01*
X49064Y-28018D01*
X49116Y-28029D01*
X49156Y-28038D01*
X49210Y-28039D01*
X49250Y-28040D01*
X49303Y-28030D01*
X49343Y-28024D01*
X49393Y-28004D01*
X49430Y-27990D01*
X49473Y-27962D01*
X49476Y-27961D01*
X49477Y-27959D01*
X49510Y-27939D01*
X49547Y-27903D01*
X49549Y-27902D01*
X49550Y-27900D01*
X49578Y-27874D01*
X49608Y-27831D01*
X49609Y-27830D01*
X49609Y-27829D01*
X49632Y-27797D01*
X49654Y-27748D01*
X49671Y-27711D01*
X49681Y-27664D01*
X49683Y-27659D01*
X49683Y-27653D01*
X49691Y-27620D01*
X49691Y-27577D01*
X49693Y-27566D01*
X49693Y-27559D01*
X49693Y-27512D01*
X49693Y-26630D01*
X50649Y-26630D01*
X50790Y-26644D01*
X50925Y-26685D01*
X51050Y-26751D01*
X51159Y-26841D01*
X51249Y-26950D01*
X51315Y-27075D01*
X51356Y-27210D01*
X51370Y-27351D01*
X51370Y-27751D01*
X51384Y-27902D01*
X51429Y-28049D01*
X51501Y-28184D01*
X51599Y-28301D01*
X51716Y-28399D01*
X51851Y-28471D01*
X51998Y-28516D01*
X52149Y-28530D01*
X61851Y-28530D01*
X62002Y-28516D01*
X62149Y-28471D01*
X62284Y-28399D01*
X62401Y-28301D01*
X62499Y-28184D01*
X62571Y-28049D01*
X62616Y-27902D01*
X62630Y-27751D01*
X62630Y-27351D01*
X62644Y-27210D01*
X62685Y-27075D01*
X62751Y-26950D01*
X62841Y-26841D01*
X62950Y-26751D01*
X63075Y-26685D01*
X63210Y-26644D01*
X63351Y-26630D01*
X64451Y-26630D01*
X64520Y-26698D01*
X64520Y-27368D01*
X64501Y-27413D01*
X64482Y-27505D01*
X64480Y-27599D01*
X64480Y-27500D01*
X64471Y-27407D01*
X64444Y-27317D01*
X64400Y-27234D01*
X64341Y-27162D01*
X64268Y-27102D01*
X64186Y-27058D01*
X64097Y-27030D01*
X64003Y-27020D01*
X64002Y-27020D01*
X63909Y-27029D01*
X63883Y-27036D01*
X63820Y-27055D01*
X63737Y-27098D01*
X63664Y-27157D01*
X63663Y-27157D01*
X63663Y-27158D01*
X63603Y-27230D01*
X63599Y-27236D01*
X63563Y-27289D01*
X63538Y-27327D01*
X63501Y-27413D01*
X63482Y-27505D01*
X63480Y-27599D01*
X63490Y-27653D01*
X63497Y-27692D01*
X63520Y-27749D01*
X63520Y-28301D01*
X63351Y-28470D01*
X63048Y-28470D01*
X63015Y-28473D01*
X62982Y-28483D01*
X62950Y-28500D01*
X62923Y-28523D01*
X62900Y-28550D01*
X62883Y-28582D01*
X62873Y-28615D01*
X62867Y-28673D01*
X62861Y-28696D01*
X62850Y-28716D01*
X62835Y-28735D01*
X62816Y-28750D01*
X62796Y-28761D01*
X62773Y-28767D01*
X62748Y-28770D01*
X51302Y-28770D01*
X51267Y-28766D01*
X51235Y-28757D01*
X51206Y-28741D01*
X51180Y-28720D01*
X51159Y-28694D01*
X51143Y-28665D01*
X51134Y-28633D01*
X51126Y-28555D01*
X51113Y-28511D01*
X51091Y-28472D01*
X51062Y-28438D01*
X51028Y-28409D01*
X50989Y-28387D01*
X50945Y-28374D01*
X50902Y-28370D01*
X50692Y-28370D01*
X50692Y-27922D01*
X50692Y-27897D01*
X50692Y-27196D01*
X50687Y-27171D01*
X50677Y-27148D01*
X50663Y-27127D01*
X50645Y-27109D01*
X50624Y-27095D01*
X50601Y-27085D01*
X50576Y-27080D01*
X50551Y-27080D01*
X49850Y-27080D01*
X49825Y-27085D01*
X49802Y-27095D01*
X49781Y-27109D01*
X49763Y-27127D01*
X49749Y-27148D01*
X49739Y-27171D01*
X49734Y-27196D01*
X49734Y-27221D01*
X49734Y-27922D01*
X49739Y-27947D01*
X49749Y-27970D01*
X49763Y-27991D01*
X49781Y-28009D01*
X49802Y-28023D01*
X49825Y-28033D01*
X49850Y-28038D01*
X49875Y-28038D01*
X50576Y-28038D01*
X50601Y-28033D01*
X50624Y-28023D01*
X50645Y-28009D01*
X50663Y-27991D01*
X50677Y-27970D01*
X50687Y-27947D01*
X50692Y-27922D01*
X50692Y-28370D01*
X48693Y-28370D01*
X48693Y-27559D01*
X48692Y-27551D01*
X48693Y-27512D01*
X48684Y-27466D01*
X48675Y-27420D01*
X48657Y-27377D01*
X48657Y-27376D01*
X48656Y-27374D01*
X48639Y-27333D01*
X48614Y-27295D01*
X48613Y-27293D01*
X48611Y-27290D01*
X48587Y-27254D01*
X48554Y-27221D01*
X48520Y-27187D01*
X48481Y-27161D01*
X48442Y-27135D01*
X48356Y-27098D01*
X48263Y-27079D01*
X48216Y-27079D01*
X48169Y-27079D01*
X48077Y-27096D01*
X48034Y-27113D01*
X48033Y-27114D01*
X48031Y-27115D01*
X47990Y-27132D01*
X47956Y-27153D01*
X47950Y-27157D01*
X47944Y-27161D01*
X47911Y-27183D01*
X47879Y-27213D01*
X47877Y-27216D01*
X47874Y-27218D01*
X47844Y-27249D01*
X47817Y-27288D01*
X47790Y-27327D01*
X47753Y-27413D01*
X47744Y-27454D01*
X47743Y-27459D01*
X47742Y-27464D01*
X47734Y-27505D01*
X47733Y-27552D01*
X47732Y-27599D01*
X47733Y-27604D01*
X47733Y-28380D01*
X47698Y-28384D01*
X47551Y-28429D01*
X47416Y-28501D01*
X47299Y-28599D01*
X47201Y-28716D01*
X47129Y-28851D01*
X47084Y-28998D01*
X47070Y-29149D01*
X47070Y-32151D01*
X47084Y-32302D01*
X47129Y-32449D01*
X47201Y-32584D01*
X47299Y-32701D01*
X47416Y-32799D01*
X47551Y-32871D01*
X47698Y-32916D01*
X47849Y-32930D01*
X68051Y-32930D01*
X68202Y-32916D01*
X68349Y-32871D01*
X68484Y-32799D01*
X68601Y-32701D01*
X68699Y-32584D01*
X68771Y-32449D01*
X68816Y-32302D01*
X68830Y-32151D01*
X68830Y-30088D01*
X68816Y-29940D01*
X68774Y-29798D01*
X68705Y-29666D01*
X68613Y-29548D01*
X68501Y-29452D01*
X67310Y-28612D01*
X67209Y-28551D01*
X67098Y-28506D01*
X66982Y-28479D01*
X66863Y-28470D01*
X66440Y-28470D01*
X66440Y-27922D01*
X66440Y-27897D01*
X66440Y-27196D01*
X66435Y-27171D01*
X66425Y-27148D01*
X66411Y-27127D01*
X66393Y-27109D01*
X66372Y-27095D01*
X66349Y-27085D01*
X66324Y-27080D01*
X66299Y-27080D01*
X65598Y-27080D01*
X65573Y-27085D01*
X65550Y-27095D01*
X65529Y-27109D01*
X65511Y-27127D01*
X65497Y-27148D01*
X65487Y-27171D01*
X65482Y-27196D01*
X65482Y-27221D01*
X65482Y-27922D01*
X65487Y-27947D01*
X65497Y-27970D01*
X65511Y-27991D01*
X65529Y-28009D01*
X65550Y-28023D01*
X65573Y-28033D01*
X65598Y-28038D01*
X65623Y-28038D01*
X66324Y-28038D01*
X66349Y-28033D01*
X66372Y-28023D01*
X66393Y-28009D01*
X66411Y-27991D01*
X66425Y-27970D01*
X66435Y-27947D01*
X66440Y-27922D01*
X66440Y-28470D01*
X64480Y-28470D01*
X64480Y-27599D01*
X64490Y-27653D01*
X64497Y-27692D01*
X64532Y-27779D01*
X64583Y-27859D01*
X64648Y-27926D01*
X64692Y-27957D01*
X64694Y-27958D01*
X64726Y-27980D01*
X64812Y-28018D01*
X64865Y-28029D01*
X64904Y-28038D01*
X64958Y-28039D01*
X64998Y-28040D01*
X65052Y-28030D01*
X65091Y-28024D01*
X65142Y-28004D01*
X65178Y-27990D01*
X65224Y-27960D01*
X65258Y-27939D01*
X65290Y-27907D01*
X65298Y-27902D01*
X65302Y-27896D01*
X65326Y-27874D01*
X65356Y-27831D01*
X65357Y-27830D01*
X65359Y-27825D01*
X65361Y-27824D01*
X65380Y-27797D01*
X65381Y-27793D01*
X65396Y-27771D01*
X65400Y-27766D01*
X65435Y-27698D01*
X65441Y-27689D01*
X65441Y-27688D01*
X65444Y-27683D01*
X65456Y-27642D01*
X65470Y-27600D01*
X65470Y-27594D01*
X65471Y-27593D01*
X65473Y-27570D01*
X65480Y-27507D01*
X65480Y-27500D01*
X65480Y-26698D01*
X65548Y-26630D01*
X66971Y-26630D01*
X67090Y-26640D01*
X67205Y-26668D01*
X67314Y-26716D01*
X67414Y-26781D01*
X67502Y-26861D01*
X69577Y-29103D01*
X69659Y-29211D01*
X69720Y-29331D01*
X69757Y-29461D01*
X69770Y-29595D01*
X69770Y-31351D01*
X69784Y-31502D01*
X69829Y-31649D01*
X69901Y-31784D01*
X69999Y-31901D01*
X70078Y-31967D01*
X69079Y-32966D01*
X69074Y-32971D01*
X69051Y-32998D01*
X69035Y-33029D01*
X69034Y-33029D01*
X69034Y-33031D01*
X69023Y-33065D01*
X69020Y-33091D01*
X69020Y-33097D01*
X69020Y-33099D01*
X69020Y-33100D01*
X69020Y-39698D01*
X69020Y-39700D01*
X69023Y-39735D01*
X69032Y-39764D01*
X69033Y-39766D01*
X69034Y-39769D01*
X69049Y-39798D01*
X69050Y-39800D01*
X69071Y-39825D01*
X69072Y-39827D01*
X69073Y-39827D01*
X69077Y-39831D01*
X69270Y-40025D01*
X69271Y-40026D01*
X69272Y-40027D01*
X69276Y-40030D01*
X69298Y-40049D01*
X69299Y-40049D01*
X69329Y-40065D01*
X69331Y-40066D01*
X69348Y-40071D01*
X69363Y-40076D01*
X69364Y-40076D01*
X69397Y-40080D01*
X69399Y-40080D01*
X69400Y-40080D01*
X70233Y-40080D01*
X70233Y-40110D01*
X70238Y-40135D01*
X70248Y-40158D01*
X70262Y-40179D01*
X70280Y-40197D01*
X70301Y-40211D01*
X70324Y-40221D01*
X70349Y-40226D01*
X70374Y-40226D01*
X70651Y-40226D01*
X70676Y-40221D01*
X70699Y-40211D01*
X70720Y-40197D01*
X70738Y-40179D01*
X70752Y-40158D01*
X70762Y-40135D01*
X70767Y-40110D01*
X70767Y-40085D01*
X70767Y-39721D01*
X71120Y-40074D01*
X71120Y-40631D01*
X71113Y-40621D01*
X71095Y-40603D01*
X71074Y-40589D01*
X71051Y-40579D01*
X71026Y-40574D01*
X71001Y-40574D01*
X70724Y-40574D01*
X70699Y-40579D01*
X70676Y-40589D01*
X70655Y-40603D01*
X70637Y-40621D01*
X70623Y-40642D01*
X70613Y-40665D01*
X70608Y-40690D01*
X70608Y-40715D01*
X70608Y-41110D01*
X70613Y-41135D01*
X70623Y-41158D01*
X70637Y-41179D01*
X70655Y-41197D01*
X70676Y-41211D01*
X70699Y-41221D01*
X70724Y-41226D01*
X70749Y-41226D01*
X71026Y-41226D01*
X71051Y-41221D01*
X71074Y-41211D01*
X71095Y-41197D01*
X71113Y-41179D01*
X71127Y-41158D01*
X71137Y-41135D01*
X71142Y-41110D01*
X71142Y-41085D01*
X71142Y-41080D01*
X71297Y-41080D01*
X71299Y-41080D01*
X71300Y-41080D01*
X71597Y-41080D01*
X71600Y-41080D01*
X72342Y-41080D01*
X72342Y-41208D01*
X72347Y-41233D01*
X72357Y-41256D01*
X72371Y-41277D01*
X72389Y-41295D01*
X72410Y-41309D01*
X72433Y-41319D01*
X72458Y-41324D01*
X72483Y-41324D01*
X72994Y-41324D01*
X73019Y-41319D01*
X73042Y-41309D01*
X73063Y-41295D01*
X73081Y-41277D01*
X73095Y-41256D01*
X73100Y-41244D01*
X73105Y-41256D01*
X73119Y-41277D01*
X73137Y-41295D01*
X73158Y-41309D01*
X73181Y-41319D01*
X73206Y-41324D01*
X73231Y-41324D01*
X73294Y-41324D01*
X73294Y-42353D01*
X73249Y-42329D01*
X73102Y-42284D01*
X72951Y-42270D01*
X70850Y-42270D01*
X70392Y-42270D01*
X70392Y-41110D01*
X70392Y-41085D01*
X70392Y-40690D01*
X70387Y-40665D01*
X70377Y-40642D01*
X70363Y-40621D01*
X70345Y-40603D01*
X70324Y-40589D01*
X70301Y-40579D01*
X70276Y-40574D01*
X70251Y-40574D01*
X69974Y-40574D01*
X69949Y-40579D01*
X69926Y-40589D01*
X69905Y-40603D01*
X69887Y-40621D01*
X69873Y-40642D01*
X69863Y-40665D01*
X69858Y-40690D01*
X69858Y-40715D01*
X69858Y-41110D01*
X69863Y-41135D01*
X69873Y-41158D01*
X69887Y-41179D01*
X69905Y-41197D01*
X69926Y-41211D01*
X69949Y-41221D01*
X69974Y-41226D01*
X69999Y-41226D01*
X70276Y-41226D01*
X70301Y-41221D01*
X70324Y-41211D01*
X70345Y-41197D01*
X70363Y-41179D01*
X70377Y-41158D01*
X70387Y-41135D01*
X70392Y-41110D01*
X70392Y-42270D01*
X70312Y-42270D01*
X70198Y-42261D01*
X70088Y-42234D01*
X69984Y-42191D01*
X69888Y-42133D01*
X69800Y-42058D01*
X68842Y-41100D01*
X68830Y-41085D01*
X68767Y-41012D01*
X68709Y-40916D01*
X68666Y-40812D01*
X68639Y-40702D01*
X68630Y-40588D01*
X68630Y-36949D01*
X68616Y-36798D01*
X68571Y-36651D01*
X68499Y-36516D01*
X68401Y-36399D01*
X68284Y-36301D01*
X68149Y-36229D01*
X68002Y-36184D01*
X67851Y-36170D01*
X62749Y-36170D01*
X62598Y-36184D01*
X62451Y-36229D01*
X62316Y-36301D01*
X62199Y-36399D01*
X62101Y-36516D01*
X62029Y-36651D01*
X61984Y-36798D01*
X61970Y-36949D01*
X61970Y-43961D01*
X61981Y-44092D01*
X62015Y-44220D01*
X62070Y-44342D01*
X62145Y-44451D01*
X62235Y-44546D01*
X63369Y-45537D01*
X63482Y-45620D01*
X63607Y-45680D01*
X63743Y-45718D01*
X63881Y-45730D01*
X70065Y-45730D01*
X70186Y-45741D01*
X70303Y-45770D01*
X70413Y-45819D01*
X70513Y-45886D01*
X70602Y-45969D01*
X71056Y-46473D01*
X71149Y-46562D01*
X71259Y-46633D01*
X71377Y-46686D01*
X71504Y-46719D01*
X71633Y-46730D01*
X72951Y-46730D01*
X73102Y-46716D01*
X73245Y-46672D01*
X73245Y-47542D01*
X73192Y-47542D01*
X73167Y-47547D01*
X73144Y-47557D01*
X73123Y-47571D01*
X73105Y-47589D01*
X73091Y-47610D01*
X73081Y-47633D01*
X73076Y-47658D01*
X73076Y-47683D01*
X73076Y-48194D01*
X73081Y-48219D01*
X73091Y-48242D01*
X73105Y-48263D01*
X73123Y-48281D01*
X73144Y-48295D01*
X73167Y-48305D01*
X73192Y-48310D01*
X73217Y-48310D01*
X73730Y-48310D01*
X73770Y-48310D01*
X73770Y-48860D01*
X74750Y-48860D01*
X74750Y-47739D01*
X73924Y-47739D01*
X73924Y-47658D01*
X73919Y-47633D01*
X73909Y-47610D01*
X73895Y-47589D01*
X73877Y-47571D01*
X73856Y-47557D01*
X73833Y-47547D01*
X73808Y-47542D01*
X73783Y-47542D01*
X73755Y-47542D01*
X73755Y-46585D01*
X74067Y-46530D01*
X74451Y-46382D01*
X74798Y-46161D01*
X75096Y-45877D01*
X75333Y-45541D01*
X75500Y-45165D01*
X75592Y-44764D01*
X75598Y-44294D01*
X75598Y-52332D01*
X73730Y-52332D01*
X71634Y-52332D01*
X65498Y-52332D01*
X65498Y-47694D01*
X65418Y-47290D01*
X65261Y-46910D01*
X65033Y-46567D01*
X64744Y-46276D01*
X64402Y-46045D01*
X64023Y-45886D01*
X63620Y-45803D01*
X63209Y-45801D01*
X62805Y-45878D01*
X62423Y-46032D01*
X62102Y-46241D01*
X61555Y-45694D01*
X61555Y-40800D01*
X61550Y-40753D01*
X61550Y-40750D01*
X61536Y-40705D01*
X61536Y-40703D01*
X61513Y-40661D01*
X61512Y-40659D01*
X61495Y-40638D01*
X61483Y-40622D01*
X61481Y-40620D01*
X61480Y-40619D01*
X57782Y-36922D01*
X57780Y-36920D01*
X57765Y-36908D01*
X57744Y-36890D01*
X57742Y-36889D01*
X57741Y-36888D01*
X57706Y-36869D01*
X57700Y-36866D01*
X57699Y-36865D01*
X57698Y-36865D01*
X57653Y-36851D01*
X57650Y-36850D01*
X57619Y-36846D01*
X57604Y-36845D01*
X57601Y-36845D01*
X57600Y-36845D01*
X56238Y-36845D01*
X56224Y-36830D01*
X56167Y-36792D01*
X56104Y-36765D01*
X56037Y-36751D01*
X55968Y-36751D01*
X55901Y-36764D01*
X55838Y-36789D01*
X55780Y-36827D01*
X55761Y-36845D01*
X55349Y-36845D01*
X55349Y-36066D01*
X55336Y-35999D01*
X55310Y-35936D01*
X55272Y-35879D01*
X55224Y-35830D01*
X55167Y-35792D01*
X55104Y-35765D01*
X55037Y-35751D01*
X54968Y-35751D01*
X54901Y-35764D01*
X54838Y-35789D01*
X54780Y-35827D01*
X54732Y-35874D01*
X54693Y-35931D01*
X54666Y-35994D01*
X54652Y-36061D01*
X54651Y-36129D01*
X54663Y-36196D01*
X54688Y-36260D01*
X54725Y-36318D01*
X54773Y-36367D01*
X54829Y-36406D01*
X54891Y-36433D01*
X54958Y-36448D01*
X55027Y-36450D01*
X55094Y-36438D01*
X55158Y-36413D01*
X55216Y-36376D01*
X55265Y-36329D01*
X55305Y-36273D01*
X55333Y-36211D01*
X55348Y-36144D01*
X55349Y-36066D01*
X55349Y-36845D01*
X54805Y-36845D01*
X54382Y-36422D01*
X54380Y-36420D01*
X54365Y-36408D01*
X54344Y-36390D01*
X54342Y-36389D01*
X54341Y-36388D01*
X54306Y-36369D01*
X54300Y-36366D01*
X54299Y-36365D01*
X54298Y-36365D01*
X54253Y-36351D01*
X54250Y-36350D01*
X54219Y-36346D01*
X54204Y-36345D01*
X54201Y-36345D01*
X54200Y-36345D01*
X48467Y-36345D01*
X48446Y-36330D01*
X48391Y-36307D01*
X48332Y-36295D01*
X48272Y-36295D01*
X48213Y-36306D01*
X48158Y-36328D01*
X48108Y-36361D01*
X48065Y-36403D01*
X48031Y-36452D01*
X48008Y-36507D01*
X47995Y-36566D01*
X47995Y-36626D01*
X48005Y-36685D01*
X48027Y-36740D01*
X48060Y-36790D01*
X48101Y-36833D01*
X48151Y-36868D01*
X48205Y-36892D01*
X48264Y-36904D01*
X48324Y-36906D01*
X48383Y-36895D01*
X48438Y-36874D01*
X48467Y-36855D01*
X54095Y-36855D01*
X54518Y-37278D01*
X54520Y-37280D01*
X54534Y-37292D01*
X54556Y-37310D01*
X54557Y-37310D01*
X54559Y-37312D01*
X54593Y-37330D01*
X54600Y-37334D01*
X54602Y-37335D01*
X54647Y-37349D01*
X54650Y-37350D01*
X54681Y-37353D01*
X54696Y-37355D01*
X54699Y-37355D01*
X54700Y-37355D01*
X55761Y-37355D01*
X55773Y-37367D01*
X55829Y-37406D01*
X55891Y-37433D01*
X55958Y-37448D01*
X56027Y-37450D01*
X56094Y-37438D01*
X56158Y-37413D01*
X56216Y-37376D01*
X56237Y-37355D01*
X57494Y-37355D01*
X61045Y-40905D01*
X61045Y-45797D01*
X61045Y-45800D01*
X61050Y-45850D01*
X61064Y-45897D01*
X61076Y-45919D01*
X61086Y-45939D01*
X61088Y-45941D01*
X61102Y-45958D01*
X61117Y-45977D01*
X61119Y-45980D01*
X61120Y-45980D01*
X61124Y-45984D01*
X61744Y-46604D01*
X61553Y-46885D01*
X61391Y-47263D01*
X61305Y-47665D01*
X61299Y-48077D01*
X61374Y-48481D01*
X61525Y-48864D01*
X61748Y-49210D01*
X62034Y-49506D01*
X62372Y-49740D01*
X62749Y-49905D01*
X63151Y-49993D01*
X63562Y-50002D01*
X63967Y-49930D01*
X64351Y-49782D01*
X64698Y-49561D01*
X64996Y-49277D01*
X65233Y-48941D01*
X65400Y-48565D01*
X65492Y-48164D01*
X65498Y-47694D01*
X65498Y-52332D01*
X58492Y-52332D01*
X58492Y-44956D01*
X58397Y-44477D01*
X58211Y-44025D01*
X58197Y-44003D01*
X58197Y-39233D01*
X58173Y-39113D01*
X58127Y-39001D01*
X58059Y-38899D01*
X57973Y-38812D01*
X57872Y-38744D01*
X57760Y-38697D01*
X57640Y-38672D01*
X57518Y-38672D01*
X57399Y-38694D01*
X57285Y-38740D01*
X57183Y-38807D01*
X57096Y-38892D01*
X57027Y-38993D01*
X56979Y-39105D01*
X56954Y-39224D01*
X56952Y-39346D01*
X56974Y-39466D01*
X57019Y-39580D01*
X57085Y-39682D01*
X57170Y-39770D01*
X57270Y-39840D01*
X57382Y-39888D01*
X57501Y-39915D01*
X57623Y-39917D01*
X57743Y-39896D01*
X57857Y-39852D01*
X57960Y-39786D01*
X58048Y-39702D01*
X58118Y-39603D01*
X58168Y-39491D01*
X58195Y-39372D01*
X58197Y-39233D01*
X58197Y-44003D01*
X57941Y-43618D01*
X57596Y-43271D01*
X57191Y-42998D01*
X56741Y-42808D01*
X56622Y-42783D01*
X56622Y-39233D01*
X56598Y-39113D01*
X56552Y-39001D01*
X56484Y-38899D01*
X56398Y-38812D01*
X56297Y-38744D01*
X56185Y-38697D01*
X56065Y-38672D01*
X55943Y-38672D01*
X55824Y-38694D01*
X55778Y-38712D01*
X54388Y-37322D01*
X54386Y-37320D01*
X54371Y-37308D01*
X54350Y-37290D01*
X54348Y-37289D01*
X54347Y-37288D01*
X54312Y-37269D01*
X54306Y-37266D01*
X54305Y-37265D01*
X54304Y-37265D01*
X54259Y-37251D01*
X54256Y-37250D01*
X54225Y-37246D01*
X54210Y-37245D01*
X54207Y-37245D01*
X54206Y-37245D01*
X48467Y-37245D01*
X48446Y-37230D01*
X48391Y-37207D01*
X48332Y-37195D01*
X48272Y-37195D01*
X48213Y-37206D01*
X48158Y-37228D01*
X48108Y-37261D01*
X48065Y-37303D01*
X48031Y-37352D01*
X48008Y-37407D01*
X47995Y-37466D01*
X47995Y-37526D01*
X48005Y-37585D01*
X48027Y-37640D01*
X48060Y-37690D01*
X48101Y-37733D01*
X48151Y-37768D01*
X48205Y-37792D01*
X48264Y-37804D01*
X48324Y-37806D01*
X48383Y-37795D01*
X48438Y-37774D01*
X48467Y-37755D01*
X54101Y-37755D01*
X55418Y-39072D01*
X55404Y-39105D01*
X55379Y-39224D01*
X55377Y-39346D01*
X55399Y-39466D01*
X55444Y-39580D01*
X55510Y-39682D01*
X55595Y-39770D01*
X55695Y-39840D01*
X55807Y-39888D01*
X55926Y-39915D01*
X56048Y-39917D01*
X56168Y-39896D01*
X56282Y-39852D01*
X56385Y-39786D01*
X56473Y-39702D01*
X56543Y-39603D01*
X56593Y-39491D01*
X56620Y-39372D01*
X56622Y-39233D01*
X56622Y-42783D01*
X56262Y-42710D01*
X55773Y-42706D01*
X55293Y-42798D01*
X54840Y-42981D01*
X54431Y-43248D01*
X54082Y-43590D01*
X53806Y-43993D01*
X53613Y-44443D01*
X53512Y-44921D01*
X53505Y-45409D01*
X53593Y-45890D01*
X53773Y-46344D01*
X54037Y-46755D01*
X54377Y-47107D01*
X54778Y-47386D01*
X55226Y-47581D01*
X55703Y-47686D01*
X56192Y-47697D01*
X56673Y-47612D01*
X57129Y-47435D01*
X57541Y-47173D01*
X57895Y-46836D01*
X58177Y-46437D01*
X58376Y-45991D01*
X58484Y-45514D01*
X58492Y-44956D01*
X58492Y-52332D01*
X51679Y-52332D01*
X51679Y-40841D01*
X51637Y-40627D01*
X51553Y-40425D01*
X51433Y-40243D01*
X51279Y-40088D01*
X51098Y-39966D01*
X50896Y-39881D01*
X50682Y-39837D01*
X50464Y-39835D01*
X50249Y-39876D01*
X50047Y-39958D01*
X49864Y-40078D01*
X49708Y-40230D01*
X49584Y-40411D01*
X49498Y-40611D01*
X49453Y-40825D01*
X49450Y-41043D01*
X49489Y-41258D01*
X49569Y-41461D01*
X49688Y-41645D01*
X49839Y-41802D01*
X50019Y-41927D01*
X50219Y-42014D01*
X50432Y-42061D01*
X50651Y-42066D01*
X50866Y-42028D01*
X51069Y-41949D01*
X51254Y-41832D01*
X51412Y-41682D01*
X51538Y-41503D01*
X51627Y-41304D01*
X51675Y-41091D01*
X51679Y-40841D01*
X51679Y-52332D01*
X48553Y-52332D01*
X48553Y-41950D01*
X48553Y-40970D01*
X47855Y-40970D01*
X47855Y-35620D01*
X47843Y-35561D01*
X47821Y-35506D01*
X47805Y-35482D01*
X47805Y-33517D01*
X47817Y-33501D01*
X47841Y-33447D01*
X47854Y-33388D01*
X47855Y-33320D01*
X47843Y-33261D01*
X47821Y-33206D01*
X47787Y-33156D01*
X47745Y-33114D01*
X47696Y-33080D01*
X47641Y-33057D01*
X47582Y-33045D01*
X47522Y-33045D01*
X47463Y-33056D01*
X47408Y-33078D01*
X47358Y-33111D01*
X47315Y-33153D01*
X47281Y-33202D01*
X47258Y-33257D01*
X47245Y-33316D01*
X47245Y-33376D01*
X47255Y-33435D01*
X47277Y-33490D01*
X47295Y-33517D01*
X47295Y-35481D01*
X47281Y-35502D01*
X47258Y-35557D01*
X47245Y-35616D01*
X47245Y-35676D01*
X47255Y-35735D01*
X47277Y-35790D01*
X47310Y-35840D01*
X47351Y-35883D01*
X47401Y-35918D01*
X47455Y-35942D01*
X47514Y-35954D01*
X47574Y-35956D01*
X47633Y-35945D01*
X47688Y-35924D01*
X47739Y-35891D01*
X47782Y-35850D01*
X47817Y-35801D01*
X47841Y-35747D01*
X47854Y-35688D01*
X47855Y-35620D01*
X47855Y-40970D01*
X46924Y-40970D01*
X46924Y-40070D01*
X43477Y-40070D01*
X43477Y-40970D01*
X43245Y-40970D01*
X43245Y-24931D01*
X43172Y-24564D01*
X43030Y-24219D01*
X42823Y-23907D01*
X42560Y-23642D01*
X42250Y-23433D01*
X41905Y-23288D01*
X41539Y-23213D01*
X41165Y-23211D01*
X40798Y-23281D01*
X40452Y-23421D01*
X40139Y-23626D01*
X39872Y-23887D01*
X39661Y-24195D01*
X39513Y-24539D01*
X39436Y-24905D01*
X39431Y-25278D01*
X39498Y-25646D01*
X39636Y-25994D01*
X39838Y-26308D01*
X40098Y-26577D01*
X40405Y-26790D01*
X40747Y-26939D01*
X41112Y-27020D01*
X41486Y-27027D01*
X41854Y-26963D01*
X42203Y-26827D01*
X42518Y-26627D01*
X42789Y-26369D01*
X43004Y-26064D01*
X43156Y-25722D01*
X43239Y-25358D01*
X43245Y-24931D01*
X43245Y-40970D01*
X41848Y-40970D01*
X41848Y-41950D01*
X48553Y-41950D01*
X48553Y-52332D01*
X48077Y-52332D01*
X48077Y-50779D01*
X48077Y-50657D01*
X48055Y-50538D01*
X48009Y-50426D01*
X47943Y-50324D01*
X47858Y-50237D01*
X47757Y-50169D01*
X47646Y-50121D01*
X47527Y-50096D01*
X47406Y-50094D01*
X46997Y-50095D01*
X46878Y-50119D01*
X46766Y-50165D01*
X46665Y-50232D01*
X46579Y-50318D01*
X46511Y-50418D01*
X46464Y-50530D01*
X46439Y-50649D01*
X46439Y-50771D01*
X46461Y-50890D01*
X46507Y-51002D01*
X46573Y-51104D01*
X46658Y-51191D01*
X46759Y-51259D01*
X46870Y-51307D01*
X46989Y-51332D01*
X47110Y-51334D01*
X47519Y-51333D01*
X47638Y-51309D01*
X47750Y-51263D01*
X47851Y-51196D01*
X47937Y-51110D01*
X48005Y-51010D01*
X48052Y-50898D01*
X48077Y-50779D01*
X48077Y-52332D01*
X47850Y-52332D01*
X46305Y-52332D01*
X46305Y-50672D01*
X46289Y-50590D01*
X46257Y-50513D01*
X46211Y-50444D01*
X46152Y-50385D01*
X46083Y-50338D01*
X46006Y-50306D01*
X45924Y-50289D01*
X45841Y-50289D01*
X45759Y-50304D01*
X45682Y-50336D01*
X45612Y-50381D01*
X45553Y-50440D01*
X45506Y-50509D01*
X45473Y-50585D01*
X45456Y-50667D01*
X45454Y-50750D01*
X45470Y-50832D01*
X45500Y-50910D01*
X45546Y-50980D01*
X45603Y-51039D01*
X45672Y-51087D01*
X45748Y-51120D01*
X45830Y-51138D01*
X45913Y-51140D01*
X45995Y-51125D01*
X46073Y-51095D01*
X46143Y-51050D01*
X46204Y-50993D01*
X46251Y-50925D01*
X46285Y-50848D01*
X46304Y-50767D01*
X46305Y-50672D01*
X46305Y-52332D01*
X45045Y-52332D01*
X45045Y-50672D01*
X45029Y-50590D01*
X44997Y-50513D01*
X44951Y-50444D01*
X44892Y-50385D01*
X44823Y-50338D01*
X44746Y-50306D01*
X44664Y-50289D01*
X44581Y-50289D01*
X44499Y-50304D01*
X44422Y-50336D01*
X44352Y-50381D01*
X44293Y-50440D01*
X44246Y-50509D01*
X44213Y-50585D01*
X44196Y-50667D01*
X44194Y-50750D01*
X44210Y-50832D01*
X44240Y-50910D01*
X44286Y-50980D01*
X44343Y-51039D01*
X44412Y-51087D01*
X44488Y-51120D01*
X44570Y-51138D01*
X44653Y-51140D01*
X44735Y-51125D01*
X44813Y-51095D01*
X44883Y-51050D01*
X44944Y-50993D01*
X44991Y-50925D01*
X45025Y-50848D01*
X45044Y-50767D01*
X45045Y-50672D01*
X45045Y-52332D01*
X44061Y-52332D01*
X44061Y-50779D01*
X44061Y-50657D01*
X44039Y-50538D01*
X43993Y-50426D01*
X43927Y-50324D01*
X43842Y-50237D01*
X43741Y-50169D01*
X43630Y-50121D01*
X43511Y-50096D01*
X43390Y-50094D01*
X42981Y-50095D01*
X42862Y-50119D01*
X42750Y-50165D01*
X42649Y-50232D01*
X42563Y-50318D01*
X42495Y-50418D01*
X42448Y-50530D01*
X42423Y-50649D01*
X42423Y-50771D01*
X42445Y-50890D01*
X42491Y-51002D01*
X42557Y-51104D01*
X42642Y-51191D01*
X42743Y-51259D01*
X42854Y-51307D01*
X42973Y-51332D01*
X43094Y-51334D01*
X43503Y-51333D01*
X43622Y-51309D01*
X43734Y-51263D01*
X43835Y-51196D01*
X43921Y-51110D01*
X43989Y-51010D01*
X44036Y-50898D01*
X44061Y-50779D01*
X44061Y-52332D01*
X41049Y-52332D01*
X41049Y-40841D01*
X41007Y-40627D01*
X40923Y-40425D01*
X40803Y-40243D01*
X40649Y-40088D01*
X40468Y-39966D01*
X40266Y-39881D01*
X40052Y-39837D01*
X39834Y-39835D01*
X39619Y-39876D01*
X39417Y-39958D01*
X39234Y-40078D01*
X39078Y-40230D01*
X38954Y-40411D01*
X38868Y-40611D01*
X38823Y-40825D01*
X38820Y-41043D01*
X38859Y-41258D01*
X38939Y-41461D01*
X39058Y-41645D01*
X39209Y-41802D01*
X39389Y-41927D01*
X39589Y-42014D01*
X39802Y-42061D01*
X40021Y-42066D01*
X40236Y-42028D01*
X40439Y-41949D01*
X40624Y-41832D01*
X40782Y-41682D01*
X40908Y-41503D01*
X40997Y-41304D01*
X41045Y-41091D01*
X41049Y-40841D01*
X41049Y-52332D01*
X40779Y-52332D01*
X40779Y-46454D01*
X40779Y-45454D01*
X40763Y-45372D01*
X40731Y-45295D01*
X40685Y-45226D01*
X40626Y-45167D01*
X40557Y-45120D01*
X40480Y-45088D01*
X40398Y-45071D01*
X40315Y-45071D01*
X40233Y-45086D01*
X40156Y-45118D01*
X40086Y-45163D01*
X40027Y-45222D01*
X39980Y-45291D01*
X39947Y-45367D01*
X39930Y-45449D01*
X39928Y-45532D01*
X39944Y-45614D01*
X39974Y-45692D01*
X40020Y-45762D01*
X40077Y-45821D01*
X40146Y-45869D01*
X40222Y-45902D01*
X40304Y-45920D01*
X40387Y-45922D01*
X40469Y-45907D01*
X40547Y-45877D01*
X40617Y-45832D01*
X40678Y-45775D01*
X40725Y-45707D01*
X40759Y-45630D01*
X40778Y-45549D01*
X40779Y-45454D01*
X40779Y-46454D01*
X40763Y-46372D01*
X40731Y-46295D01*
X40685Y-46226D01*
X40626Y-46167D01*
X40557Y-46120D01*
X40480Y-46088D01*
X40398Y-46071D01*
X40315Y-46071D01*
X40233Y-46086D01*
X40156Y-46118D01*
X40086Y-46163D01*
X40027Y-46222D01*
X39980Y-46291D01*
X39947Y-46367D01*
X39930Y-46449D01*
X39928Y-46532D01*
X39944Y-46614D01*
X39974Y-46692D01*
X40020Y-46762D01*
X40077Y-46821D01*
X40146Y-46869D01*
X40222Y-46902D01*
X40304Y-46920D01*
X40387Y-46922D01*
X40469Y-46907D01*
X40547Y-46877D01*
X40617Y-46832D01*
X40678Y-46775D01*
X40725Y-46707D01*
X40759Y-46630D01*
X40778Y-46549D01*
X40779Y-46454D01*
X40779Y-52332D01*
X38546Y-52332D01*
X38405Y-52318D01*
X38270Y-52277D01*
X38145Y-52211D01*
X38036Y-52121D01*
X37946Y-52012D01*
X37880Y-51887D01*
X37839Y-51752D01*
X37825Y-51611D01*
X37825Y-14531D01*
X37839Y-14390D01*
X37880Y-14255D01*
X37946Y-14130D01*
X38036Y-14021D01*
X38145Y-13931D01*
X38270Y-13865D01*
X38405Y-13824D01*
X38546Y-13810D01*
X75627Y-13810D01*
X75768Y-13824D01*
X75903Y-13865D01*
X76028Y-13931D01*
X76137Y-14021D01*
X76227Y-14130D01*
X76293Y-14255D01*
X76334Y-14390D01*
X76348Y-14531D01*
X76348Y-51611D01*
X76348Y-51611D01*
G37*
X76348Y-51611D02*
X76334Y-51752D01*
X76293Y-51887D01*
X76227Y-52012D01*
X76137Y-52121D01*
X76028Y-52211D01*
X75903Y-52277D01*
X75768Y-52318D01*
X75630Y-52331D01*
X75630Y-37151D01*
X75630Y-34249D01*
X75616Y-34098D01*
X75571Y-33951D01*
X75499Y-33816D01*
X75430Y-33733D01*
X75401Y-33699D01*
X75284Y-33601D01*
X75149Y-33529D01*
X75002Y-33484D01*
X74950Y-33479D01*
X74950Y-33370D01*
X74950Y-32230D01*
X73970Y-32230D01*
X73970Y-33370D01*
X74950Y-33370D01*
X74950Y-33479D01*
X74851Y-33470D01*
X73567Y-33470D01*
X73567Y-33090D01*
X73562Y-33065D01*
X73552Y-33042D01*
X73538Y-33021D01*
X73520Y-33003D01*
X73499Y-32989D01*
X73476Y-32979D01*
X73451Y-32974D01*
X73426Y-32974D01*
X73149Y-32974D01*
X73124Y-32979D01*
X73101Y-32989D01*
X73080Y-33003D01*
X73062Y-33021D01*
X73048Y-33042D01*
X73038Y-33065D01*
X73033Y-33090D01*
X73033Y-33115D01*
X73033Y-33470D01*
X71467Y-33470D01*
X71467Y-33090D01*
X71462Y-33065D01*
X71452Y-33042D01*
X71438Y-33021D01*
X71420Y-33003D01*
X71399Y-32989D01*
X71376Y-32979D01*
X71351Y-32974D01*
X71326Y-32974D01*
X71049Y-32974D01*
X71024Y-32979D01*
X71001Y-32989D01*
X70980Y-33003D01*
X70962Y-33021D01*
X70948Y-33042D01*
X70938Y-33065D01*
X70933Y-33090D01*
X70933Y-33115D01*
X70933Y-33470D01*
X70849Y-33470D01*
X70698Y-33484D01*
X70552Y-33529D01*
X70537Y-33536D01*
X70416Y-33601D01*
X70299Y-33699D01*
X70201Y-33816D01*
X70129Y-33951D01*
X70084Y-34098D01*
X70070Y-34249D01*
X70070Y-37151D01*
X70084Y-37302D01*
X70129Y-37449D01*
X70201Y-37584D01*
X70299Y-37701D01*
X70416Y-37799D01*
X70551Y-37871D01*
X70698Y-37916D01*
X70849Y-37930D01*
X71445Y-37930D01*
X71474Y-38081D01*
X71625Y-38464D01*
X71848Y-38810D01*
X72134Y-39106D01*
X72472Y-39340D01*
X72849Y-39505D01*
X73251Y-39593D01*
X73662Y-39602D01*
X74067Y-39530D01*
X74451Y-39382D01*
X74798Y-39161D01*
X75096Y-38877D01*
X75333Y-38541D01*
X75500Y-38165D01*
X75592Y-37764D01*
X75597Y-37363D01*
X75616Y-37302D01*
X75630Y-37151D01*
X75630Y-52331D01*
X75627Y-52332D01*
X75598Y-52332D01*
X75598Y-44294D01*
X75518Y-43890D01*
X75361Y-43510D01*
X75161Y-43209D01*
X75161Y-41350D01*
X75161Y-40370D01*
X74040Y-40370D01*
X74040Y-41350D01*
X75161Y-41350D01*
X75161Y-43209D01*
X75133Y-43167D01*
X74844Y-42876D01*
X74502Y-42645D01*
X74123Y-42486D01*
X73720Y-42403D01*
X73654Y-42402D01*
X73654Y-41324D01*
X73742Y-41324D01*
X73767Y-41319D01*
X73790Y-41309D01*
X73811Y-41295D01*
X73829Y-41277D01*
X73843Y-41256D01*
X73853Y-41233D01*
X73858Y-41208D01*
X73858Y-41183D01*
X73858Y-40592D01*
X73853Y-40567D01*
X73843Y-40544D01*
X73829Y-40523D01*
X73811Y-40505D01*
X73790Y-40491D01*
X73767Y-40481D01*
X73742Y-40476D01*
X73717Y-40476D01*
X73206Y-40476D01*
X73181Y-40481D01*
X73158Y-40491D01*
X73137Y-40505D01*
X73119Y-40523D01*
X73105Y-40544D01*
X73100Y-40555D01*
X73095Y-40544D01*
X73081Y-40523D01*
X73063Y-40505D01*
X73042Y-40491D01*
X73019Y-40481D01*
X72994Y-40476D01*
X72969Y-40476D01*
X72458Y-40476D01*
X72433Y-40481D01*
X72410Y-40491D01*
X72389Y-40505D01*
X72371Y-40523D01*
X72357Y-40544D01*
X72347Y-40567D01*
X72342Y-40592D01*
X72342Y-40617D01*
X72342Y-40720D01*
X71603Y-40720D01*
X71600Y-40720D01*
X71480Y-40720D01*
X71480Y-40002D01*
X71480Y-40000D01*
X71477Y-39967D01*
X71477Y-39965D01*
X71470Y-39945D01*
X71467Y-39933D01*
X71466Y-39931D01*
X71451Y-39902D01*
X71450Y-39900D01*
X71429Y-39875D01*
X71428Y-39873D01*
X71422Y-39868D01*
X71251Y-39697D01*
X71251Y-39250D01*
X71251Y-38270D01*
X69749Y-38270D01*
X69749Y-39250D01*
X71251Y-39250D01*
X71251Y-39697D01*
X70933Y-39379D01*
X70929Y-39374D01*
X70927Y-39373D01*
X70902Y-39351D01*
X70900Y-39350D01*
X70871Y-39335D01*
X70870Y-39334D01*
X70869Y-39334D01*
X70835Y-39323D01*
X70809Y-39320D01*
X70803Y-39320D01*
X70801Y-39320D01*
X70800Y-39320D01*
X69674Y-39320D01*
X69580Y-39225D01*
X69580Y-37603D01*
X69580Y-37600D01*
X69580Y-33274D01*
X70374Y-32480D01*
X70558Y-32480D01*
X70558Y-32510D01*
X70563Y-32535D01*
X70573Y-32558D01*
X70587Y-32579D01*
X70605Y-32597D01*
X70626Y-32611D01*
X70649Y-32621D01*
X70674Y-32626D01*
X70699Y-32626D01*
X70771Y-32626D01*
X70970Y-32825D01*
X70971Y-32826D01*
X70972Y-32827D01*
X70976Y-32830D01*
X70998Y-32849D01*
X70999Y-32849D01*
X71029Y-32865D01*
X71031Y-32866D01*
X71048Y-32871D01*
X71063Y-32876D01*
X71064Y-32876D01*
X71097Y-32880D01*
X71099Y-32880D01*
X71100Y-32880D01*
X71770Y-32880D01*
X71770Y-33370D01*
X72750Y-33370D01*
X72750Y-32621D01*
X72774Y-32626D01*
X72799Y-32626D01*
X73076Y-32626D01*
X73101Y-32621D01*
X73124Y-32611D01*
X73145Y-32597D01*
X73163Y-32579D01*
X73177Y-32558D01*
X73187Y-32535D01*
X73192Y-32510D01*
X73192Y-32485D01*
X73192Y-32130D01*
X73408Y-32130D01*
X73408Y-32510D01*
X73413Y-32535D01*
X73423Y-32558D01*
X73437Y-32579D01*
X73455Y-32597D01*
X73476Y-32611D01*
X73499Y-32621D01*
X73524Y-32626D01*
X73549Y-32626D01*
X73826Y-32626D01*
X73851Y-32621D01*
X73874Y-32611D01*
X73895Y-32597D01*
X73913Y-32579D01*
X73927Y-32558D01*
X73937Y-32535D01*
X73942Y-32510D01*
X73942Y-32485D01*
X73942Y-32130D01*
X74651Y-32130D01*
X74802Y-32116D01*
X74949Y-32071D01*
X75084Y-31999D01*
X75201Y-31901D01*
X75299Y-31784D01*
X75371Y-31649D01*
X75416Y-31502D01*
X75430Y-31351D01*
X75430Y-21649D01*
X75416Y-21498D01*
X75371Y-21351D01*
X75299Y-21216D01*
X75201Y-21099D01*
X75084Y-21001D01*
X74949Y-20929D01*
X74802Y-20884D01*
X74651Y-20870D01*
X63693Y-20870D01*
X63693Y-18330D01*
X63693Y-16070D01*
X50507Y-16070D01*
X50507Y-18330D01*
X63693Y-18330D01*
X63693Y-20870D01*
X47849Y-20870D01*
X47698Y-20884D01*
X47551Y-20929D01*
X47416Y-21001D01*
X47299Y-21099D01*
X47201Y-21216D01*
X47129Y-21351D01*
X47084Y-21498D01*
X47070Y-21649D01*
X47070Y-25851D01*
X47084Y-26002D01*
X47129Y-26149D01*
X47201Y-26284D01*
X47299Y-26401D01*
X47416Y-26499D01*
X47551Y-26571D01*
X47698Y-26616D01*
X47849Y-26630D01*
X48733Y-26630D01*
X48733Y-27552D01*
X48732Y-27599D01*
X48749Y-27692D01*
X48768Y-27740D01*
X48769Y-27742D01*
X48784Y-27779D01*
X48811Y-27821D01*
X48813Y-27825D01*
X48814Y-27826D01*
X48835Y-27859D01*
X48872Y-27897D01*
X48900Y-27926D01*
X48945Y-27957D01*
X48978Y-27980D01*
X49027Y-28001D01*
X49064Y-28018D01*
X49116Y-28029D01*
X49156Y-28038D01*
X49210Y-28039D01*
X49250Y-28040D01*
X49303Y-28030D01*
X49343Y-28024D01*
X49393Y-28004D01*
X49430Y-27990D01*
X49473Y-27962D01*
X49476Y-27961D01*
X49477Y-27959D01*
X49510Y-27939D01*
X49547Y-27903D01*
X49549Y-27902D01*
X49550Y-27900D01*
X49578Y-27874D01*
X49608Y-27831D01*
X49609Y-27830D01*
X49609Y-27829D01*
X49632Y-27797D01*
X49654Y-27748D01*
X49671Y-27711D01*
X49681Y-27664D01*
X49683Y-27659D01*
X49683Y-27653D01*
X49691Y-27620D01*
X49691Y-27577D01*
X49693Y-27566D01*
X49693Y-27559D01*
X49693Y-27512D01*
X49693Y-26630D01*
X50649Y-26630D01*
X50790Y-26644D01*
X50925Y-26685D01*
X51050Y-26751D01*
X51159Y-26841D01*
X51249Y-26950D01*
X51315Y-27075D01*
X51356Y-27210D01*
X51370Y-27351D01*
X51370Y-27751D01*
X51384Y-27902D01*
X51429Y-28049D01*
X51501Y-28184D01*
X51599Y-28301D01*
X51716Y-28399D01*
X51851Y-28471D01*
X51998Y-28516D01*
X52149Y-28530D01*
X61851Y-28530D01*
X62002Y-28516D01*
X62149Y-28471D01*
X62284Y-28399D01*
X62401Y-28301D01*
X62499Y-28184D01*
X62571Y-28049D01*
X62616Y-27902D01*
X62630Y-27751D01*
X62630Y-27351D01*
X62644Y-27210D01*
X62685Y-27075D01*
X62751Y-26950D01*
X62841Y-26841D01*
X62950Y-26751D01*
X63075Y-26685D01*
X63210Y-26644D01*
X63351Y-26630D01*
X64451Y-26630D01*
X64520Y-26698D01*
X64520Y-27368D01*
X64501Y-27413D01*
X64482Y-27505D01*
X64480Y-27599D01*
X64480Y-27500D01*
X64471Y-27407D01*
X64444Y-27317D01*
X64400Y-27234D01*
X64341Y-27162D01*
X64268Y-27102D01*
X64186Y-27058D01*
X64097Y-27030D01*
X64003Y-27020D01*
X64002Y-27020D01*
X63909Y-27029D01*
X63883Y-27036D01*
X63820Y-27055D01*
X63737Y-27098D01*
X63664Y-27157D01*
X63663Y-27157D01*
X63663Y-27158D01*
X63603Y-27230D01*
X63599Y-27236D01*
X63563Y-27289D01*
X63538Y-27327D01*
X63501Y-27413D01*
X63482Y-27505D01*
X63480Y-27599D01*
X63490Y-27653D01*
X63497Y-27692D01*
X63520Y-27749D01*
X63520Y-28301D01*
X63351Y-28470D01*
X63048Y-28470D01*
X63015Y-28473D01*
X62982Y-28483D01*
X62950Y-28500D01*
X62923Y-28523D01*
X62900Y-28550D01*
X62883Y-28582D01*
X62873Y-28615D01*
X62867Y-28673D01*
X62861Y-28696D01*
X62850Y-28716D01*
X62835Y-28735D01*
X62816Y-28750D01*
X62796Y-28761D01*
X62773Y-28767D01*
X62748Y-28770D01*
X51302Y-28770D01*
X51267Y-28766D01*
X51235Y-28757D01*
X51206Y-28741D01*
X51180Y-28720D01*
X51159Y-28694D01*
X51143Y-28665D01*
X51134Y-28633D01*
X51126Y-28555D01*
X51113Y-28511D01*
X51091Y-28472D01*
X51062Y-28438D01*
X51028Y-28409D01*
X50989Y-28387D01*
X50945Y-28374D01*
X50902Y-28370D01*
X50692Y-28370D01*
X50692Y-27922D01*
X50692Y-27897D01*
X50692Y-27196D01*
X50687Y-27171D01*
X50677Y-27148D01*
X50663Y-27127D01*
X50645Y-27109D01*
X50624Y-27095D01*
X50601Y-27085D01*
X50576Y-27080D01*
X50551Y-27080D01*
X49850Y-27080D01*
X49825Y-27085D01*
X49802Y-27095D01*
X49781Y-27109D01*
X49763Y-27127D01*
X49749Y-27148D01*
X49739Y-27171D01*
X49734Y-27196D01*
X49734Y-27221D01*
X49734Y-27922D01*
X49739Y-27947D01*
X49749Y-27970D01*
X49763Y-27991D01*
X49781Y-28009D01*
X49802Y-28023D01*
X49825Y-28033D01*
X49850Y-28038D01*
X49875Y-28038D01*
X50576Y-28038D01*
X50601Y-28033D01*
X50624Y-28023D01*
X50645Y-28009D01*
X50663Y-27991D01*
X50677Y-27970D01*
X50687Y-27947D01*
X50692Y-27922D01*
X50692Y-28370D01*
X48693Y-28370D01*
X48693Y-27559D01*
X48692Y-27551D01*
X48693Y-27512D01*
X48684Y-27466D01*
X48675Y-27420D01*
X48657Y-27377D01*
X48657Y-27376D01*
X48656Y-27374D01*
X48639Y-27333D01*
X48614Y-27295D01*
X48613Y-27293D01*
X48611Y-27290D01*
X48587Y-27254D01*
X48554Y-27221D01*
X48520Y-27187D01*
X48481Y-27161D01*
X48442Y-27135D01*
X48356Y-27098D01*
X48263Y-27079D01*
X48216Y-27079D01*
X48169Y-27079D01*
X48077Y-27096D01*
X48034Y-27113D01*
X48033Y-27114D01*
X48031Y-27115D01*
X47990Y-27132D01*
X47956Y-27153D01*
X47950Y-27157D01*
X47944Y-27161D01*
X47911Y-27183D01*
X47879Y-27213D01*
X47877Y-27216D01*
X47874Y-27218D01*
X47844Y-27249D01*
X47817Y-27288D01*
X47790Y-27327D01*
X47753Y-27413D01*
X47744Y-27454D01*
X47743Y-27459D01*
X47742Y-27464D01*
X47734Y-27505D01*
X47733Y-27552D01*
X47732Y-27599D01*
X47733Y-27604D01*
X47733Y-28380D01*
X47698Y-28384D01*
X47551Y-28429D01*
X47416Y-28501D01*
X47299Y-28599D01*
X47201Y-28716D01*
X47129Y-28851D01*
X47084Y-28998D01*
X47070Y-29149D01*
X47070Y-32151D01*
X47084Y-32302D01*
X47129Y-32449D01*
X47201Y-32584D01*
X47299Y-32701D01*
X47416Y-32799D01*
X47551Y-32871D01*
X47698Y-32916D01*
X47849Y-32930D01*
X68051Y-32930D01*
X68202Y-32916D01*
X68349Y-32871D01*
X68484Y-32799D01*
X68601Y-32701D01*
X68699Y-32584D01*
X68771Y-32449D01*
X68816Y-32302D01*
X68830Y-32151D01*
X68830Y-30088D01*
X68816Y-29940D01*
X68774Y-29798D01*
X68705Y-29666D01*
X68613Y-29548D01*
X68501Y-29452D01*
X67310Y-28612D01*
X67209Y-28551D01*
X67098Y-28506D01*
X66982Y-28479D01*
X66863Y-28470D01*
X66440Y-28470D01*
X66440Y-27922D01*
X66440Y-27897D01*
X66440Y-27196D01*
X66435Y-27171D01*
X66425Y-27148D01*
X66411Y-27127D01*
X66393Y-27109D01*
X66372Y-27095D01*
X66349Y-27085D01*
X66324Y-27080D01*
X66299Y-27080D01*
X65598Y-27080D01*
X65573Y-27085D01*
X65550Y-27095D01*
X65529Y-27109D01*
X65511Y-27127D01*
X65497Y-27148D01*
X65487Y-27171D01*
X65482Y-27196D01*
X65482Y-27221D01*
X65482Y-27922D01*
X65487Y-27947D01*
X65497Y-27970D01*
X65511Y-27991D01*
X65529Y-28009D01*
X65550Y-28023D01*
X65573Y-28033D01*
X65598Y-28038D01*
X65623Y-28038D01*
X66324Y-28038D01*
X66349Y-28033D01*
X66372Y-28023D01*
X66393Y-28009D01*
X66411Y-27991D01*
X66425Y-27970D01*
X66435Y-27947D01*
X66440Y-27922D01*
X66440Y-28470D01*
X64480Y-28470D01*
X64480Y-27599D01*
X64490Y-27653D01*
X64497Y-27692D01*
X64532Y-27779D01*
X64583Y-27859D01*
X64648Y-27926D01*
X64692Y-27957D01*
X64694Y-27958D01*
X64726Y-27980D01*
X64812Y-28018D01*
X64865Y-28029D01*
X64904Y-28038D01*
X64958Y-28039D01*
X64998Y-28040D01*
X65052Y-28030D01*
X65091Y-28024D01*
X65142Y-28004D01*
X65178Y-27990D01*
X65224Y-27960D01*
X65258Y-27939D01*
X65290Y-27907D01*
X65298Y-27902D01*
X65302Y-27896D01*
X65326Y-27874D01*
X65356Y-27831D01*
X65357Y-27830D01*
X65359Y-27825D01*
X65361Y-27824D01*
X65380Y-27797D01*
X65381Y-27793D01*
X65396Y-27771D01*
X65400Y-27766D01*
X65435Y-27698D01*
X65441Y-27689D01*
X65441Y-27688D01*
X65444Y-27683D01*
X65456Y-27642D01*
X65470Y-27600D01*
X65470Y-27594D01*
X65471Y-27593D01*
X65473Y-27570D01*
X65480Y-27507D01*
X65480Y-27500D01*
X65480Y-26698D01*
X65548Y-26630D01*
X66971Y-26630D01*
X67090Y-26640D01*
X67205Y-26668D01*
X67314Y-26716D01*
X67414Y-26781D01*
X67502Y-26861D01*
X69577Y-29103D01*
X69659Y-29211D01*
X69720Y-29331D01*
X69757Y-29461D01*
X69770Y-29595D01*
X69770Y-31351D01*
X69784Y-31502D01*
X69829Y-31649D01*
X69901Y-31784D01*
X69999Y-31901D01*
X70078Y-31967D01*
X69079Y-32966D01*
X69074Y-32971D01*
X69051Y-32998D01*
X69035Y-33029D01*
X69034Y-33029D01*
X69034Y-33031D01*
X69023Y-33065D01*
X69020Y-33091D01*
X69020Y-33097D01*
X69020Y-33099D01*
X69020Y-33100D01*
X69020Y-39698D01*
X69020Y-39700D01*
X69023Y-39735D01*
X69032Y-39764D01*
X69033Y-39766D01*
X69034Y-39769D01*
X69049Y-39798D01*
X69050Y-39800D01*
X69071Y-39825D01*
X69072Y-39827D01*
X69073Y-39827D01*
X69077Y-39831D01*
X69270Y-40025D01*
X69271Y-40026D01*
X69272Y-40027D01*
X69276Y-40030D01*
X69298Y-40049D01*
X69299Y-40049D01*
X69329Y-40065D01*
X69331Y-40066D01*
X69348Y-40071D01*
X69363Y-40076D01*
X69364Y-40076D01*
X69397Y-40080D01*
X69399Y-40080D01*
X69400Y-40080D01*
X70233Y-40080D01*
X70233Y-40110D01*
X70238Y-40135D01*
X70248Y-40158D01*
X70262Y-40179D01*
X70280Y-40197D01*
X70301Y-40211D01*
X70324Y-40221D01*
X70349Y-40226D01*
X70374Y-40226D01*
X70651Y-40226D01*
X70676Y-40221D01*
X70699Y-40211D01*
X70720Y-40197D01*
X70738Y-40179D01*
X70752Y-40158D01*
X70762Y-40135D01*
X70767Y-40110D01*
X70767Y-40085D01*
X70767Y-39721D01*
X71120Y-40074D01*
X71120Y-40631D01*
X71113Y-40621D01*
X71095Y-40603D01*
X71074Y-40589D01*
X71051Y-40579D01*
X71026Y-40574D01*
X71001Y-40574D01*
X70724Y-40574D01*
X70699Y-40579D01*
X70676Y-40589D01*
X70655Y-40603D01*
X70637Y-40621D01*
X70623Y-40642D01*
X70613Y-40665D01*
X70608Y-40690D01*
X70608Y-40715D01*
X70608Y-41110D01*
X70613Y-41135D01*
X70623Y-41158D01*
X70637Y-41179D01*
X70655Y-41197D01*
X70676Y-41211D01*
X70699Y-41221D01*
X70724Y-41226D01*
X70749Y-41226D01*
X71026Y-41226D01*
X71051Y-41221D01*
X71074Y-41211D01*
X71095Y-41197D01*
X71113Y-41179D01*
X71127Y-41158D01*
X71137Y-41135D01*
X71142Y-41110D01*
X71142Y-41085D01*
X71142Y-41080D01*
X71297Y-41080D01*
X71299Y-41080D01*
X71300Y-41080D01*
X71597Y-41080D01*
X71600Y-41080D01*
X72342Y-41080D01*
X72342Y-41208D01*
X72347Y-41233D01*
X72357Y-41256D01*
X72371Y-41277D01*
X72389Y-41295D01*
X72410Y-41309D01*
X72433Y-41319D01*
X72458Y-41324D01*
X72483Y-41324D01*
X72994Y-41324D01*
X73019Y-41319D01*
X73042Y-41309D01*
X73063Y-41295D01*
X73081Y-41277D01*
X73095Y-41256D01*
X73100Y-41244D01*
X73105Y-41256D01*
X73119Y-41277D01*
X73137Y-41295D01*
X73158Y-41309D01*
X73181Y-41319D01*
X73206Y-41324D01*
X73231Y-41324D01*
X73294Y-41324D01*
X73294Y-42353D01*
X73249Y-42329D01*
X73102Y-42284D01*
X72951Y-42270D01*
X70850Y-42270D01*
X70392Y-42270D01*
X70392Y-41110D01*
X70392Y-41085D01*
X70392Y-40690D01*
X70387Y-40665D01*
X70377Y-40642D01*
X70363Y-40621D01*
X70345Y-40603D01*
X70324Y-40589D01*
X70301Y-40579D01*
X70276Y-40574D01*
X70251Y-40574D01*
X69974Y-40574D01*
X69949Y-40579D01*
X69926Y-40589D01*
X69905Y-40603D01*
X69887Y-40621D01*
X69873Y-40642D01*
X69863Y-40665D01*
X69858Y-40690D01*
X69858Y-40715D01*
X69858Y-41110D01*
X69863Y-41135D01*
X69873Y-41158D01*
X69887Y-41179D01*
X69905Y-41197D01*
X69926Y-41211D01*
X69949Y-41221D01*
X69974Y-41226D01*
X69999Y-41226D01*
X70276Y-41226D01*
X70301Y-41221D01*
X70324Y-41211D01*
X70345Y-41197D01*
X70363Y-41179D01*
X70377Y-41158D01*
X70387Y-41135D01*
X70392Y-41110D01*
X70392Y-42270D01*
X70312Y-42270D01*
X70198Y-42261D01*
X70088Y-42234D01*
X69984Y-42191D01*
X69888Y-42133D01*
X69800Y-42058D01*
X68842Y-41100D01*
X68830Y-41085D01*
X68767Y-41012D01*
X68709Y-40916D01*
X68666Y-40812D01*
X68639Y-40702D01*
X68630Y-40588D01*
X68630Y-36949D01*
X68616Y-36798D01*
X68571Y-36651D01*
X68499Y-36516D01*
X68401Y-36399D01*
X68284Y-36301D01*
X68149Y-36229D01*
X68002Y-36184D01*
X67851Y-36170D01*
X62749Y-36170D01*
X62598Y-36184D01*
X62451Y-36229D01*
X62316Y-36301D01*
X62199Y-36399D01*
X62101Y-36516D01*
X62029Y-36651D01*
X61984Y-36798D01*
X61970Y-36949D01*
X61970Y-43961D01*
X61981Y-44092D01*
X62015Y-44220D01*
X62070Y-44342D01*
X62145Y-44451D01*
X62235Y-44546D01*
X63369Y-45537D01*
X63482Y-45620D01*
X63607Y-45680D01*
X63743Y-45718D01*
X63881Y-45730D01*
X70065Y-45730D01*
X70186Y-45741D01*
X70303Y-45770D01*
X70413Y-45819D01*
X70513Y-45886D01*
X70602Y-45969D01*
X71056Y-46473D01*
X71149Y-46562D01*
X71259Y-46633D01*
X71377Y-46686D01*
X71504Y-46719D01*
X71633Y-46730D01*
X72951Y-46730D01*
X73102Y-46716D01*
X73245Y-46672D01*
X73245Y-47542D01*
X73192Y-47542D01*
X73167Y-47547D01*
X73144Y-47557D01*
X73123Y-47571D01*
X73105Y-47589D01*
X73091Y-47610D01*
X73081Y-47633D01*
X73076Y-47658D01*
X73076Y-47683D01*
X73076Y-48194D01*
X73081Y-48219D01*
X73091Y-48242D01*
X73105Y-48263D01*
X73123Y-48281D01*
X73144Y-48295D01*
X73167Y-48305D01*
X73192Y-48310D01*
X73217Y-48310D01*
X73730Y-48310D01*
X73770Y-48310D01*
X73770Y-48860D01*
X74750Y-48860D01*
X74750Y-47739D01*
X73924Y-47739D01*
X73924Y-47658D01*
X73919Y-47633D01*
X73909Y-47610D01*
X73895Y-47589D01*
X73877Y-47571D01*
X73856Y-47557D01*
X73833Y-47547D01*
X73808Y-47542D01*
X73783Y-47542D01*
X73755Y-47542D01*
X73755Y-46585D01*
X74067Y-46530D01*
X74451Y-46382D01*
X74798Y-46161D01*
X75096Y-45877D01*
X75333Y-45541D01*
X75500Y-45165D01*
X75592Y-44764D01*
X75598Y-44294D01*
X75598Y-52332D01*
X73730Y-52332D01*
X71634Y-52332D01*
X65498Y-52332D01*
X65498Y-47694D01*
X65418Y-47290D01*
X65261Y-46910D01*
X65033Y-46567D01*
X64744Y-46276D01*
X64402Y-46045D01*
X64023Y-45886D01*
X63620Y-45803D01*
X63209Y-45801D01*
X62805Y-45878D01*
X62423Y-46032D01*
X62102Y-46241D01*
X61555Y-45694D01*
X61555Y-40800D01*
X61550Y-40753D01*
X61550Y-40750D01*
X61536Y-40705D01*
X61536Y-40703D01*
X61513Y-40661D01*
X61512Y-40659D01*
X61495Y-40638D01*
X61483Y-40622D01*
X61481Y-40620D01*
X61480Y-40619D01*
X57782Y-36922D01*
X57780Y-36920D01*
X57765Y-36908D01*
X57744Y-36890D01*
X57742Y-36889D01*
X57741Y-36888D01*
X57706Y-36869D01*
X57700Y-36866D01*
X57699Y-36865D01*
X57698Y-36865D01*
X57653Y-36851D01*
X57650Y-36850D01*
X57619Y-36846D01*
X57604Y-36845D01*
X57601Y-36845D01*
X57600Y-36845D01*
X56238Y-36845D01*
X56224Y-36830D01*
X56167Y-36792D01*
X56104Y-36765D01*
X56037Y-36751D01*
X55968Y-36751D01*
X55901Y-36764D01*
X55838Y-36789D01*
X55780Y-36827D01*
X55761Y-36845D01*
X55349Y-36845D01*
X55349Y-36066D01*
X55336Y-35999D01*
X55310Y-35936D01*
X55272Y-35879D01*
X55224Y-35830D01*
X55167Y-35792D01*
X55104Y-35765D01*
X55037Y-35751D01*
X54968Y-35751D01*
X54901Y-35764D01*
X54838Y-35789D01*
X54780Y-35827D01*
X54732Y-35874D01*
X54693Y-35931D01*
X54666Y-35994D01*
X54652Y-36061D01*
X54651Y-36129D01*
X54663Y-36196D01*
X54688Y-36260D01*
X54725Y-36318D01*
X54773Y-36367D01*
X54829Y-36406D01*
X54891Y-36433D01*
X54958Y-36448D01*
X55027Y-36450D01*
X55094Y-36438D01*
X55158Y-36413D01*
X55216Y-36376D01*
X55265Y-36329D01*
X55305Y-36273D01*
X55333Y-36211D01*
X55348Y-36144D01*
X55349Y-36066D01*
X55349Y-36845D01*
X54805Y-36845D01*
X54382Y-36422D01*
X54380Y-36420D01*
X54365Y-36408D01*
X54344Y-36390D01*
X54342Y-36389D01*
X54341Y-36388D01*
X54306Y-36369D01*
X54300Y-36366D01*
X54299Y-36365D01*
X54298Y-36365D01*
X54253Y-36351D01*
X54250Y-36350D01*
X54219Y-36346D01*
X54204Y-36345D01*
X54201Y-36345D01*
X54200Y-36345D01*
X48467Y-36345D01*
X48446Y-36330D01*
X48391Y-36307D01*
X48332Y-36295D01*
X48272Y-36295D01*
X48213Y-36306D01*
X48158Y-36328D01*
X48108Y-36361D01*
X48065Y-36403D01*
X48031Y-36452D01*
X48008Y-36507D01*
X47995Y-36566D01*
X47995Y-36626D01*
X48005Y-36685D01*
X48027Y-36740D01*
X48060Y-36790D01*
X48101Y-36833D01*
X48151Y-36868D01*
X48205Y-36892D01*
X48264Y-36904D01*
X48324Y-36906D01*
X48383Y-36895D01*
X48438Y-36874D01*
X48467Y-36855D01*
X54095Y-36855D01*
X54518Y-37278D01*
X54520Y-37280D01*
X54534Y-37292D01*
X54556Y-37310D01*
X54557Y-37310D01*
X54559Y-37312D01*
X54593Y-37330D01*
X54600Y-37334D01*
X54602Y-37335D01*
X54647Y-37349D01*
X54650Y-37350D01*
X54681Y-37353D01*
X54696Y-37355D01*
X54699Y-37355D01*
X54700Y-37355D01*
X55761Y-37355D01*
X55773Y-37367D01*
X55829Y-37406D01*
X55891Y-37433D01*
X55958Y-37448D01*
X56027Y-37450D01*
X56094Y-37438D01*
X56158Y-37413D01*
X56216Y-37376D01*
X56237Y-37355D01*
X57494Y-37355D01*
X61045Y-40905D01*
X61045Y-45797D01*
X61045Y-45800D01*
X61050Y-45850D01*
X61064Y-45897D01*
X61076Y-45919D01*
X61086Y-45939D01*
X61088Y-45941D01*
X61102Y-45958D01*
X61117Y-45977D01*
X61119Y-45980D01*
X61120Y-45980D01*
X61124Y-45984D01*
X61744Y-46604D01*
X61553Y-46885D01*
X61391Y-47263D01*
X61305Y-47665D01*
X61299Y-48077D01*
X61374Y-48481D01*
X61525Y-48864D01*
X61748Y-49210D01*
X62034Y-49506D01*
X62372Y-49740D01*
X62749Y-49905D01*
X63151Y-49993D01*
X63562Y-50002D01*
X63967Y-49930D01*
X64351Y-49782D01*
X64698Y-49561D01*
X64996Y-49277D01*
X65233Y-48941D01*
X65400Y-48565D01*
X65492Y-48164D01*
X65498Y-47694D01*
X65498Y-52332D01*
X58492Y-52332D01*
X58492Y-44956D01*
X58397Y-44477D01*
X58211Y-44025D01*
X58197Y-44003D01*
X58197Y-39233D01*
X58173Y-39113D01*
X58127Y-39001D01*
X58059Y-38899D01*
X57973Y-38812D01*
X57872Y-38744D01*
X57760Y-38697D01*
X57640Y-38672D01*
X57518Y-38672D01*
X57399Y-38694D01*
X57285Y-38740D01*
X57183Y-38807D01*
X57096Y-38892D01*
X57027Y-38993D01*
X56979Y-39105D01*
X56954Y-39224D01*
X56952Y-39346D01*
X56974Y-39466D01*
X57019Y-39580D01*
X57085Y-39682D01*
X57170Y-39770D01*
X57270Y-39840D01*
X57382Y-39888D01*
X57501Y-39915D01*
X57623Y-39917D01*
X57743Y-39896D01*
X57857Y-39852D01*
X57960Y-39786D01*
X58048Y-39702D01*
X58118Y-39603D01*
X58168Y-39491D01*
X58195Y-39372D01*
X58197Y-39233D01*
X58197Y-44003D01*
X57941Y-43618D01*
X57596Y-43271D01*
X57191Y-42998D01*
X56741Y-42808D01*
X56622Y-42783D01*
X56622Y-39233D01*
X56598Y-39113D01*
X56552Y-39001D01*
X56484Y-38899D01*
X56398Y-38812D01*
X56297Y-38744D01*
X56185Y-38697D01*
X56065Y-38672D01*
X55943Y-38672D01*
X55824Y-38694D01*
X55778Y-38712D01*
X54388Y-37322D01*
X54386Y-37320D01*
X54371Y-37308D01*
X54350Y-37290D01*
X54348Y-37289D01*
X54347Y-37288D01*
X54312Y-37269D01*
X54306Y-37266D01*
X54305Y-37265D01*
X54304Y-37265D01*
X54259Y-37251D01*
X54256Y-37250D01*
X54225Y-37246D01*
X54210Y-37245D01*
X54207Y-37245D01*
X54206Y-37245D01*
X48467Y-37245D01*
X48446Y-37230D01*
X48391Y-37207D01*
X48332Y-37195D01*
X48272Y-37195D01*
X48213Y-37206D01*
X48158Y-37228D01*
X48108Y-37261D01*
X48065Y-37303D01*
X48031Y-37352D01*
X48008Y-37407D01*
X47995Y-37466D01*
X47995Y-37526D01*
X48005Y-37585D01*
X48027Y-37640D01*
X48060Y-37690D01*
X48101Y-37733D01*
X48151Y-37768D01*
X48205Y-37792D01*
X48264Y-37804D01*
X48324Y-37806D01*
X48383Y-37795D01*
X48438Y-37774D01*
X48467Y-37755D01*
X54101Y-37755D01*
X55418Y-39072D01*
X55404Y-39105D01*
X55379Y-39224D01*
X55377Y-39346D01*
X55399Y-39466D01*
X55444Y-39580D01*
X55510Y-39682D01*
X55595Y-39770D01*
X55695Y-39840D01*
X55807Y-39888D01*
X55926Y-39915D01*
X56048Y-39917D01*
X56168Y-39896D01*
X56282Y-39852D01*
X56385Y-39786D01*
X56473Y-39702D01*
X56543Y-39603D01*
X56593Y-39491D01*
X56620Y-39372D01*
X56622Y-39233D01*
X56622Y-42783D01*
X56262Y-42710D01*
X55773Y-42706D01*
X55293Y-42798D01*
X54840Y-42981D01*
X54431Y-43248D01*
X54082Y-43590D01*
X53806Y-43993D01*
X53613Y-44443D01*
X53512Y-44921D01*
X53505Y-45409D01*
X53593Y-45890D01*
X53773Y-46344D01*
X54037Y-46755D01*
X54377Y-47107D01*
X54778Y-47386D01*
X55226Y-47581D01*
X55703Y-47686D01*
X56192Y-47697D01*
X56673Y-47612D01*
X57129Y-47435D01*
X57541Y-47173D01*
X57895Y-46836D01*
X58177Y-46437D01*
X58376Y-45991D01*
X58484Y-45514D01*
X58492Y-44956D01*
X58492Y-52332D01*
X51679Y-52332D01*
X51679Y-40841D01*
X51637Y-40627D01*
X51553Y-40425D01*
X51433Y-40243D01*
X51279Y-40088D01*
X51098Y-39966D01*
X50896Y-39881D01*
X50682Y-39837D01*
X50464Y-39835D01*
X50249Y-39876D01*
X50047Y-39958D01*
X49864Y-40078D01*
X49708Y-40230D01*
X49584Y-40411D01*
X49498Y-40611D01*
X49453Y-40825D01*
X49450Y-41043D01*
X49489Y-41258D01*
X49569Y-41461D01*
X49688Y-41645D01*
X49839Y-41802D01*
X50019Y-41927D01*
X50219Y-42014D01*
X50432Y-42061D01*
X50651Y-42066D01*
X50866Y-42028D01*
X51069Y-41949D01*
X51254Y-41832D01*
X51412Y-41682D01*
X51538Y-41503D01*
X51627Y-41304D01*
X51675Y-41091D01*
X51679Y-40841D01*
X51679Y-52332D01*
X48553Y-52332D01*
X48553Y-41950D01*
X48553Y-40970D01*
X47855Y-40970D01*
X47855Y-35620D01*
X47843Y-35561D01*
X47821Y-35506D01*
X47805Y-35482D01*
X47805Y-33517D01*
X47817Y-33501D01*
X47841Y-33447D01*
X47854Y-33388D01*
X47855Y-33320D01*
X47843Y-33261D01*
X47821Y-33206D01*
X47787Y-33156D01*
X47745Y-33114D01*
X47696Y-33080D01*
X47641Y-33057D01*
X47582Y-33045D01*
X47522Y-33045D01*
X47463Y-33056D01*
X47408Y-33078D01*
X47358Y-33111D01*
X47315Y-33153D01*
X47281Y-33202D01*
X47258Y-33257D01*
X47245Y-33316D01*
X47245Y-33376D01*
X47255Y-33435D01*
X47277Y-33490D01*
X47295Y-33517D01*
X47295Y-35481D01*
X47281Y-35502D01*
X47258Y-35557D01*
X47245Y-35616D01*
X47245Y-35676D01*
X47255Y-35735D01*
X47277Y-35790D01*
X47310Y-35840D01*
X47351Y-35883D01*
X47401Y-35918D01*
X47455Y-35942D01*
X47514Y-35954D01*
X47574Y-35956D01*
X47633Y-35945D01*
X47688Y-35924D01*
X47739Y-35891D01*
X47782Y-35850D01*
X47817Y-35801D01*
X47841Y-35747D01*
X47854Y-35688D01*
X47855Y-35620D01*
X47855Y-40970D01*
X46924Y-40970D01*
X46924Y-40070D01*
X43477Y-40070D01*
X43477Y-40970D01*
X43245Y-40970D01*
X43245Y-24931D01*
X43172Y-24564D01*
X43030Y-24219D01*
X42823Y-23907D01*
X42560Y-23642D01*
X42250Y-23433D01*
X41905Y-23288D01*
X41539Y-23213D01*
X41165Y-23211D01*
X40798Y-23281D01*
X40452Y-23421D01*
X40139Y-23626D01*
X39872Y-23887D01*
X39661Y-24195D01*
X39513Y-24539D01*
X39436Y-24905D01*
X39431Y-25278D01*
X39498Y-25646D01*
X39636Y-25994D01*
X39838Y-26308D01*
X40098Y-26577D01*
X40405Y-26790D01*
X40747Y-26939D01*
X41112Y-27020D01*
X41486Y-27027D01*
X41854Y-26963D01*
X42203Y-26827D01*
X42518Y-26627D01*
X42789Y-26369D01*
X43004Y-26064D01*
X43156Y-25722D01*
X43239Y-25358D01*
X43245Y-24931D01*
X43245Y-40970D01*
X41848Y-40970D01*
X41848Y-41950D01*
X48553Y-41950D01*
X48553Y-52332D01*
X48077Y-52332D01*
X48077Y-50779D01*
X48077Y-50657D01*
X48055Y-50538D01*
X48009Y-50426D01*
X47943Y-50324D01*
X47858Y-50237D01*
X47757Y-50169D01*
X47646Y-50121D01*
X47527Y-50096D01*
X47406Y-50094D01*
X46997Y-50095D01*
X46878Y-50119D01*
X46766Y-50165D01*
X46665Y-50232D01*
X46579Y-50318D01*
X46511Y-50418D01*
X46464Y-50530D01*
X46439Y-50649D01*
X46439Y-50771D01*
X46461Y-50890D01*
X46507Y-51002D01*
X46573Y-51104D01*
X46658Y-51191D01*
X46759Y-51259D01*
X46870Y-51307D01*
X46989Y-51332D01*
X47110Y-51334D01*
X47519Y-51333D01*
X47638Y-51309D01*
X47750Y-51263D01*
X47851Y-51196D01*
X47937Y-51110D01*
X48005Y-51010D01*
X48052Y-50898D01*
X48077Y-50779D01*
X48077Y-52332D01*
X47850Y-52332D01*
X46305Y-52332D01*
X46305Y-50672D01*
X46289Y-50590D01*
X46257Y-50513D01*
X46211Y-50444D01*
X46152Y-50385D01*
X46083Y-50338D01*
X46006Y-50306D01*
X45924Y-50289D01*
X45841Y-50289D01*
X45759Y-50304D01*
X45682Y-50336D01*
X45612Y-50381D01*
X45553Y-50440D01*
X45506Y-50509D01*
X45473Y-50585D01*
X45456Y-50667D01*
X45454Y-50750D01*
X45470Y-50832D01*
X45500Y-50910D01*
X45546Y-50980D01*
X45603Y-51039D01*
X45672Y-51087D01*
X45748Y-51120D01*
X45830Y-51138D01*
X45913Y-51140D01*
X45995Y-51125D01*
X46073Y-51095D01*
X46143Y-51050D01*
X46204Y-50993D01*
X46251Y-50925D01*
X46285Y-50848D01*
X46304Y-50767D01*
X46305Y-50672D01*
X46305Y-52332D01*
X45045Y-52332D01*
X45045Y-50672D01*
X45029Y-50590D01*
X44997Y-50513D01*
X44951Y-50444D01*
X44892Y-50385D01*
X44823Y-50338D01*
X44746Y-50306D01*
X44664Y-50289D01*
X44581Y-50289D01*
X44499Y-50304D01*
X44422Y-50336D01*
X44352Y-50381D01*
X44293Y-50440D01*
X44246Y-50509D01*
X44213Y-50585D01*
X44196Y-50667D01*
X44194Y-50750D01*
X44210Y-50832D01*
X44240Y-50910D01*
X44286Y-50980D01*
X44343Y-51039D01*
X44412Y-51087D01*
X44488Y-51120D01*
X44570Y-51138D01*
X44653Y-51140D01*
X44735Y-51125D01*
X44813Y-51095D01*
X44883Y-51050D01*
X44944Y-50993D01*
X44991Y-50925D01*
X45025Y-50848D01*
X45044Y-50767D01*
X45045Y-50672D01*
X45045Y-52332D01*
X44061Y-52332D01*
X44061Y-50779D01*
X44061Y-50657D01*
X44039Y-50538D01*
X43993Y-50426D01*
X43927Y-50324D01*
X43842Y-50237D01*
X43741Y-50169D01*
X43630Y-50121D01*
X43511Y-50096D01*
X43390Y-50094D01*
X42981Y-50095D01*
X42862Y-50119D01*
X42750Y-50165D01*
X42649Y-50232D01*
X42563Y-50318D01*
X42495Y-50418D01*
X42448Y-50530D01*
X42423Y-50649D01*
X42423Y-50771D01*
X42445Y-50890D01*
X42491Y-51002D01*
X42557Y-51104D01*
X42642Y-51191D01*
X42743Y-51259D01*
X42854Y-51307D01*
X42973Y-51332D01*
X43094Y-51334D01*
X43503Y-51333D01*
X43622Y-51309D01*
X43734Y-51263D01*
X43835Y-51196D01*
X43921Y-51110D01*
X43989Y-51010D01*
X44036Y-50898D01*
X44061Y-50779D01*
X44061Y-52332D01*
X41049Y-52332D01*
X41049Y-40841D01*
X41007Y-40627D01*
X40923Y-40425D01*
X40803Y-40243D01*
X40649Y-40088D01*
X40468Y-39966D01*
X40266Y-39881D01*
X40052Y-39837D01*
X39834Y-39835D01*
X39619Y-39876D01*
X39417Y-39958D01*
X39234Y-40078D01*
X39078Y-40230D01*
X38954Y-40411D01*
X38868Y-40611D01*
X38823Y-40825D01*
X38820Y-41043D01*
X38859Y-41258D01*
X38939Y-41461D01*
X39058Y-41645D01*
X39209Y-41802D01*
X39389Y-41927D01*
X39589Y-42014D01*
X39802Y-42061D01*
X40021Y-42066D01*
X40236Y-42028D01*
X40439Y-41949D01*
X40624Y-41832D01*
X40782Y-41682D01*
X40908Y-41503D01*
X40997Y-41304D01*
X41045Y-41091D01*
X41049Y-40841D01*
X41049Y-52332D01*
X40779Y-52332D01*
X40779Y-46454D01*
X40779Y-45454D01*
X40763Y-45372D01*
X40731Y-45295D01*
X40685Y-45226D01*
X40626Y-45167D01*
X40557Y-45120D01*
X40480Y-45088D01*
X40398Y-45071D01*
X40315Y-45071D01*
X40233Y-45086D01*
X40156Y-45118D01*
X40086Y-45163D01*
X40027Y-45222D01*
X39980Y-45291D01*
X39947Y-45367D01*
X39930Y-45449D01*
X39928Y-45532D01*
X39944Y-45614D01*
X39974Y-45692D01*
X40020Y-45762D01*
X40077Y-45821D01*
X40146Y-45869D01*
X40222Y-45902D01*
X40304Y-45920D01*
X40387Y-45922D01*
X40469Y-45907D01*
X40547Y-45877D01*
X40617Y-45832D01*
X40678Y-45775D01*
X40725Y-45707D01*
X40759Y-45630D01*
X40778Y-45549D01*
X40779Y-45454D01*
X40779Y-46454D01*
X40763Y-46372D01*
X40731Y-46295D01*
X40685Y-46226D01*
X40626Y-46167D01*
X40557Y-46120D01*
X40480Y-46088D01*
X40398Y-46071D01*
X40315Y-46071D01*
X40233Y-46086D01*
X40156Y-46118D01*
X40086Y-46163D01*
X40027Y-46222D01*
X39980Y-46291D01*
X39947Y-46367D01*
X39930Y-46449D01*
X39928Y-46532D01*
X39944Y-46614D01*
X39974Y-46692D01*
X40020Y-46762D01*
X40077Y-46821D01*
X40146Y-46869D01*
X40222Y-46902D01*
X40304Y-46920D01*
X40387Y-46922D01*
X40469Y-46907D01*
X40547Y-46877D01*
X40617Y-46832D01*
X40678Y-46775D01*
X40725Y-46707D01*
X40759Y-46630D01*
X40778Y-46549D01*
X40779Y-46454D01*
X40779Y-52332D01*
X38546Y-52332D01*
X38405Y-52318D01*
X38270Y-52277D01*
X38145Y-52211D01*
X38036Y-52121D01*
X37946Y-52012D01*
X37880Y-51887D01*
X37839Y-51752D01*
X37825Y-51611D01*
X37825Y-14531D01*
X37839Y-14390D01*
X37880Y-14255D01*
X37946Y-14130D01*
X38036Y-14021D01*
X38145Y-13931D01*
X38270Y-13865D01*
X38405Y-13824D01*
X38546Y-13810D01*
X75627Y-13810D01*
X75768Y-13824D01*
X75903Y-13865D01*
X76028Y-13931D01*
X76137Y-14021D01*
X76227Y-14130D01*
X76293Y-14255D01*
X76334Y-14390D01*
X76348Y-14531D01*
X76348Y-51611D01*
M02*
