G04 (created by PCBNEW-RS274X (2012-jan-04)-stable) date Tue 05 Jun 2012 10:15:25 PM CEST*
G01*
G70*
G90*
%MOIN*%
G04 Gerber Fmt 3.4, Leading zero omitted, Abs format*
%FSLAX34Y34*%
G04 APERTURE LIST*
%ADD10C,0.006000*%
%ADD11C,0.008000*%
%ADD12R,0.047200X0.047200*%
%ADD13C,0.070000*%
%ADD14R,0.070000X0.070000*%
%ADD15C,0.160000*%
%ADD16R,0.144000X0.080000*%
%ADD17R,0.040000X0.080000*%
%ADD18C,0.060000*%
%ADD19C,0.295300*%
%ADD20R,0.051100X0.059000*%
%ADD21R,0.062900X0.070800*%
%ADD22R,0.086600X0.023600*%
%ADD23R,0.039300X0.043300*%
%ADD24C,0.393700*%
%ADD25C,0.196900*%
%ADD26O,0.137800X0.098400*%
%ADD27C,0.059100*%
%ADD28C,0.236200*%
%ADD29C,0.098400*%
%ADD30C,0.055100*%
%ADD31C,0.044000*%
%ADD32C,0.035000*%
%ADD33C,0.025000*%
%ADD34C,0.012000*%
%ADD35C,0.015000*%
G04 APERTURE END LIST*
G54D10*
G54D11*
X37402Y-52756D02*
X37402Y-13386D01*
X76772Y-52756D02*
X37402Y-52756D01*
X76772Y-13386D02*
X76772Y-52756D01*
X37402Y-13386D02*
X76772Y-13386D01*
G54D12*
X65487Y-41300D03*
X66313Y-41300D03*
G54D13*
X63961Y-27559D03*
X64961Y-27559D03*
G54D14*
X65961Y-27559D03*
G54D13*
X48213Y-27559D03*
X49213Y-27559D03*
G54D14*
X50213Y-27559D03*
G54D15*
X39370Y-15354D03*
X74803Y-15354D03*
X39370Y-50787D03*
X74803Y-50787D03*
G54D16*
X45150Y-43750D03*
G54D17*
X45150Y-46350D03*
X46050Y-46350D03*
X44250Y-46350D03*
G54D18*
X67700Y-32100D03*
X67700Y-37100D03*
X66200Y-32100D03*
X66200Y-37100D03*
X64400Y-32100D03*
X64400Y-37100D03*
X62900Y-32100D03*
X62900Y-37100D03*
G54D19*
X72835Y-25118D03*
X41339Y-25118D03*
X57087Y-25118D03*
G54D20*
X45674Y-32100D03*
X44926Y-32100D03*
X45674Y-38100D03*
X44926Y-38100D03*
G54D21*
X46801Y-47750D03*
X45699Y-47750D03*
X43499Y-47750D03*
X44601Y-47750D03*
G54D22*
X44277Y-35150D03*
X44277Y-35650D03*
X44277Y-36150D03*
X44277Y-36650D03*
X46323Y-36650D03*
X46323Y-36150D03*
X46323Y-35650D03*
X46323Y-35150D03*
G54D23*
X65566Y-40400D03*
X66234Y-40400D03*
G54D24*
X73500Y-37500D03*
X73500Y-44500D03*
X68800Y-47900D03*
X63400Y-47900D03*
G54D25*
X50565Y-40950D03*
X39935Y-40950D03*
G54D26*
X47258Y-50714D03*
X43242Y-50714D03*
G54D27*
X45880Y-50714D03*
X44620Y-50714D03*
G54D28*
X56000Y-45200D03*
G54D29*
X56000Y-39294D03*
X54425Y-39294D03*
X57575Y-39294D03*
G54D30*
X57772Y-45200D03*
X56000Y-43428D03*
X56000Y-46972D03*
X57260Y-46460D03*
X54740Y-46460D03*
X57260Y-43940D03*
X54386Y-45869D03*
X54228Y-45200D03*
X54740Y-43940D03*
X54386Y-44531D03*
X55331Y-43586D03*
X55331Y-46814D03*
X56669Y-46814D03*
X57614Y-45869D03*
X57614Y-44531D03*
X56669Y-43586D03*
G54D27*
X40354Y-46496D03*
X40354Y-45496D03*
X40354Y-47496D03*
G54D31*
X56000Y-35100D03*
X55000Y-36100D03*
X56000Y-37100D03*
G54D32*
X48300Y-36600D03*
X48300Y-39400D03*
X48300Y-37500D03*
X47550Y-35650D03*
X47550Y-33350D03*
G54D33*
X45600Y-35800D02*
X45600Y-36152D01*
X46323Y-36150D02*
X47850Y-36150D01*
X47850Y-36150D02*
X48300Y-36600D01*
X45674Y-36226D02*
X45674Y-38100D01*
G54D34*
X46323Y-36150D02*
X45750Y-36150D01*
G54D33*
X45600Y-36152D02*
X45674Y-36226D01*
X44950Y-35150D02*
X45600Y-35800D01*
X44277Y-35150D02*
X44950Y-35150D01*
X45750Y-36150D02*
X45674Y-36226D01*
X46801Y-47750D02*
X46801Y-50257D01*
X46801Y-50257D02*
X47258Y-50714D01*
X47950Y-35150D02*
X49000Y-36200D01*
X44700Y-45150D02*
X44250Y-45600D01*
X44250Y-45600D02*
X44250Y-46350D01*
X46323Y-35150D02*
X47950Y-35150D01*
X46801Y-45501D02*
X46450Y-45150D01*
X46450Y-45150D02*
X44700Y-45150D01*
X46801Y-47750D02*
X46801Y-45501D01*
X49000Y-36200D02*
X49000Y-45551D01*
X49000Y-45551D02*
X46801Y-47750D01*
X44700Y-45800D02*
X44700Y-46900D01*
X46050Y-46350D02*
X46050Y-45750D01*
X66234Y-39534D02*
X66234Y-40400D01*
X43850Y-47050D02*
X43499Y-47401D01*
X43499Y-47401D02*
X43499Y-47750D01*
X44550Y-47050D02*
X43850Y-47050D01*
X44700Y-46900D02*
X44550Y-47050D01*
X46050Y-45750D02*
X45850Y-45550D01*
X45250Y-51350D02*
X45500Y-51600D01*
X45850Y-45550D02*
X44950Y-45550D01*
X65994Y-39294D02*
X66234Y-39534D01*
X57575Y-39294D02*
X65994Y-39294D01*
X45500Y-51600D02*
X48600Y-51600D01*
X44950Y-45550D02*
X44700Y-45800D01*
X50900Y-47800D02*
X50900Y-42900D01*
X56969Y-39900D02*
X57575Y-39294D01*
X46250Y-49350D02*
X45250Y-50350D01*
X45250Y-50350D02*
X45250Y-51350D01*
X48600Y-51600D02*
X48900Y-51300D01*
X53600Y-40200D02*
X56969Y-40200D01*
X46050Y-46350D02*
X46050Y-46900D01*
X56969Y-40200D02*
X56969Y-39900D01*
X46250Y-47100D02*
X46250Y-49350D01*
X50900Y-42900D02*
X53600Y-40200D01*
X48900Y-49800D02*
X49050Y-49650D01*
X48900Y-51300D02*
X48900Y-49800D01*
X46050Y-46900D02*
X46250Y-47100D01*
X49050Y-49650D02*
X50900Y-47800D01*
X65350Y-33450D02*
X65350Y-32100D01*
X65350Y-32100D02*
X66200Y-32100D01*
X44277Y-36150D02*
X42650Y-36150D01*
X42650Y-36150D02*
X42400Y-35900D01*
X42400Y-35900D02*
X42400Y-34300D01*
X42400Y-34300D02*
X42800Y-33900D01*
X42800Y-33900D02*
X64900Y-33900D01*
X64900Y-33900D02*
X65350Y-33450D01*
X45150Y-47750D02*
X45150Y-46350D01*
X45150Y-47750D02*
X44601Y-47750D01*
X44950Y-48800D02*
X45150Y-48600D01*
X68400Y-47900D02*
X66313Y-45813D01*
X42350Y-47500D02*
X42350Y-48800D01*
X44277Y-36650D02*
X43350Y-36650D01*
X57000Y-37600D02*
X57000Y-36700D01*
X41700Y-37000D02*
X41700Y-33600D01*
X54425Y-39294D02*
X54425Y-39275D01*
X57000Y-36100D02*
X56000Y-35100D01*
X55300Y-38400D02*
X56200Y-38400D01*
X45150Y-48600D02*
X45150Y-47750D01*
X44277Y-36650D02*
X43350Y-36650D01*
X57000Y-36700D02*
X57000Y-36100D01*
X41700Y-33600D02*
X43200Y-32100D01*
X42350Y-48800D02*
X44950Y-48800D01*
X43350Y-36650D02*
X42350Y-37650D01*
X43200Y-32100D02*
X44926Y-32100D01*
X42350Y-37650D02*
X41700Y-37000D01*
X54425Y-39275D02*
X55300Y-38400D01*
X68800Y-47900D02*
X68400Y-47900D01*
X56200Y-38400D02*
X57000Y-37600D01*
X45699Y-47750D02*
X45150Y-47750D01*
X42350Y-47496D02*
X42346Y-47500D01*
X43350Y-36650D02*
X43350Y-38550D01*
X42350Y-37650D02*
X42350Y-47500D01*
X66313Y-45813D02*
X66313Y-41300D01*
X43350Y-38550D02*
X44200Y-39400D01*
X42346Y-47500D02*
X42300Y-47500D01*
X42300Y-47500D02*
X42350Y-47500D01*
X44200Y-39400D02*
X48300Y-39400D01*
X40354Y-47496D02*
X42350Y-47496D01*
X40354Y-46496D02*
X38804Y-46496D01*
X38804Y-46496D02*
X38750Y-46550D01*
X39900Y-49250D02*
X41778Y-49250D01*
X41778Y-49250D02*
X43242Y-50714D01*
X38750Y-48100D02*
X39900Y-49250D01*
X38750Y-46550D02*
X38750Y-48100D01*
X65566Y-40400D02*
X65566Y-41221D01*
X65566Y-41221D02*
X65487Y-41300D01*
X56000Y-39294D02*
X56406Y-39294D01*
X47450Y-36650D02*
X48300Y-37500D01*
X46323Y-36650D02*
X47450Y-36650D01*
X53300Y-34400D02*
X55000Y-36100D01*
X44750Y-35650D02*
X45100Y-36000D01*
X45100Y-36000D02*
X45100Y-37926D01*
X44277Y-35650D02*
X44750Y-35650D01*
X44952Y-38126D02*
X44926Y-38100D01*
X45100Y-37926D02*
X44926Y-38100D01*
X44277Y-35650D02*
X43250Y-35650D01*
X43300Y-34400D02*
X51100Y-34400D01*
X43000Y-34700D02*
X43300Y-34400D01*
X43000Y-35400D02*
X43000Y-34700D01*
X43250Y-35650D02*
X43000Y-35400D01*
X51100Y-34400D02*
X53300Y-34400D01*
X46600Y-33350D02*
X45674Y-32424D01*
X66000Y-27600D02*
X65961Y-27559D01*
X50213Y-28287D02*
X50213Y-27559D01*
X50213Y-27559D02*
X50759Y-27559D01*
X50759Y-27559D02*
X51300Y-28100D01*
X51300Y-28600D02*
X51400Y-28700D01*
X62500Y-28700D02*
X62900Y-28300D01*
X46323Y-35650D02*
X47550Y-35650D01*
X66000Y-27100D02*
X66000Y-27600D01*
X45674Y-32100D02*
X46400Y-32100D01*
X62900Y-27100D02*
X63100Y-26900D01*
X51300Y-28100D02*
X51300Y-28600D01*
X46400Y-32100D02*
X50213Y-28287D01*
X51400Y-28700D02*
X62500Y-28700D01*
X63100Y-26900D02*
X65800Y-26900D01*
X47550Y-33350D02*
X46600Y-33350D01*
X45674Y-32424D02*
X45674Y-32100D01*
X65800Y-26900D02*
X66000Y-27100D01*
X62900Y-28300D02*
X62900Y-27100D01*
G54D10*
G36*
X76303Y-51358D02*
X76285Y-51542D01*
X76232Y-51716D01*
X76146Y-51876D01*
X76032Y-52016D01*
X75892Y-52130D01*
X75732Y-52216D01*
X75643Y-52243D01*
X75643Y-44290D01*
X75643Y-37290D01*
X75561Y-36878D01*
X75401Y-36489D01*
X75169Y-36139D01*
X74873Y-35841D01*
X74786Y-35782D01*
X74786Y-24927D01*
X74712Y-24552D01*
X74566Y-24198D01*
X74354Y-23879D01*
X74085Y-23608D01*
X73768Y-23394D01*
X73415Y-23245D01*
X73040Y-23168D01*
X72658Y-23166D01*
X72282Y-23237D01*
X71927Y-23381D01*
X71607Y-23590D01*
X71333Y-23858D01*
X71117Y-24173D01*
X70967Y-24525D01*
X70887Y-24899D01*
X70882Y-25282D01*
X70951Y-25658D01*
X71091Y-26014D01*
X71299Y-26335D01*
X71564Y-26611D01*
X71878Y-26829D01*
X72229Y-26982D01*
X72603Y-27065D01*
X72985Y-27073D01*
X73362Y-27006D01*
X73719Y-26868D01*
X74042Y-26663D01*
X74319Y-26399D01*
X74539Y-26087D01*
X74695Y-25737D01*
X74780Y-25364D01*
X74786Y-24927D01*
X74786Y-35782D01*
X74524Y-35606D01*
X74137Y-35443D01*
X73725Y-35359D01*
X73305Y-35356D01*
X72892Y-35434D01*
X72503Y-35592D01*
X72151Y-35822D01*
X71851Y-36116D01*
X71613Y-36463D01*
X71448Y-36849D01*
X71360Y-37260D01*
X71354Y-37680D01*
X71430Y-38093D01*
X71585Y-38484D01*
X71812Y-38837D01*
X72104Y-39140D01*
X72449Y-39380D01*
X72834Y-39548D01*
X73245Y-39638D01*
X73665Y-39647D01*
X74079Y-39574D01*
X74471Y-39422D01*
X74826Y-39197D01*
X75130Y-38907D01*
X75372Y-38564D01*
X75543Y-38180D01*
X75636Y-37770D01*
X75643Y-37290D01*
X75643Y-44290D01*
X75561Y-43878D01*
X75401Y-43489D01*
X75169Y-43139D01*
X74873Y-42841D01*
X74524Y-42606D01*
X74137Y-42443D01*
X73725Y-42359D01*
X73305Y-42356D01*
X72892Y-42434D01*
X72503Y-42592D01*
X72151Y-42822D01*
X71851Y-43116D01*
X71613Y-43463D01*
X71448Y-43849D01*
X71360Y-44260D01*
X71354Y-44680D01*
X71430Y-45093D01*
X71585Y-45484D01*
X71812Y-45837D01*
X72104Y-46140D01*
X72449Y-46380D01*
X72834Y-46548D01*
X73245Y-46638D01*
X73665Y-46647D01*
X74079Y-46574D01*
X74471Y-46422D01*
X74826Y-46197D01*
X75130Y-45907D01*
X75372Y-45564D01*
X75543Y-45180D01*
X75636Y-44770D01*
X75643Y-44290D01*
X75643Y-52243D01*
X75558Y-52269D01*
X75374Y-52287D01*
X68175Y-52287D01*
X68175Y-37053D01*
X68175Y-32053D01*
X68157Y-31962D01*
X68121Y-31876D01*
X68070Y-31798D01*
X68004Y-31732D01*
X67927Y-31680D01*
X67841Y-31644D01*
X67749Y-31625D01*
X67656Y-31625D01*
X67565Y-31642D01*
X67478Y-31677D01*
X67401Y-31728D01*
X67334Y-31794D01*
X67282Y-31870D01*
X67245Y-31956D01*
X67226Y-32047D01*
X67224Y-32140D01*
X67241Y-32232D01*
X67276Y-32319D01*
X67326Y-32397D01*
X67391Y-32464D01*
X67468Y-32517D01*
X67553Y-32554D01*
X67644Y-32574D01*
X67737Y-32576D01*
X67829Y-32560D01*
X67916Y-32526D01*
X67994Y-32476D01*
X68062Y-32412D01*
X68115Y-32335D01*
X68153Y-32250D01*
X68174Y-32159D01*
X68175Y-32053D01*
X68175Y-37053D01*
X68157Y-36962D01*
X68121Y-36876D01*
X68070Y-36798D01*
X68004Y-36732D01*
X67927Y-36680D01*
X67841Y-36644D01*
X67749Y-36625D01*
X67656Y-36625D01*
X67565Y-36642D01*
X67478Y-36677D01*
X67401Y-36728D01*
X67334Y-36794D01*
X67282Y-36870D01*
X67245Y-36956D01*
X67226Y-37047D01*
X67224Y-37140D01*
X67241Y-37232D01*
X67276Y-37319D01*
X67326Y-37397D01*
X67391Y-37464D01*
X67468Y-37517D01*
X67553Y-37554D01*
X67644Y-37574D01*
X67737Y-37576D01*
X67829Y-37560D01*
X67916Y-37526D01*
X67994Y-37476D01*
X68062Y-37412D01*
X68115Y-37335D01*
X68153Y-37250D01*
X68174Y-37159D01*
X68175Y-37053D01*
X68175Y-52287D01*
X66675Y-52287D01*
X66675Y-37053D01*
X66675Y-32053D01*
X66657Y-31962D01*
X66621Y-31876D01*
X66570Y-31798D01*
X66504Y-31732D01*
X66427Y-31680D01*
X66341Y-31644D01*
X66249Y-31625D01*
X66156Y-31625D01*
X66065Y-31642D01*
X65978Y-31677D01*
X65901Y-31728D01*
X65834Y-31794D01*
X65829Y-31800D01*
X65352Y-31800D01*
X65350Y-31800D01*
X65340Y-31801D01*
X65294Y-31805D01*
X65238Y-31822D01*
X65236Y-31822D01*
X65236Y-31823D01*
X65184Y-31850D01*
X65149Y-31878D01*
X65140Y-31886D01*
X65139Y-31886D01*
X65139Y-31887D01*
X65101Y-31932D01*
X65078Y-31974D01*
X65074Y-31982D01*
X65073Y-31982D01*
X65073Y-31984D01*
X65056Y-32040D01*
X65051Y-32084D01*
X65050Y-32096D01*
X65050Y-32098D01*
X65050Y-32100D01*
X65050Y-33326D01*
X64875Y-33501D01*
X64875Y-32053D01*
X64857Y-31962D01*
X64821Y-31876D01*
X64770Y-31798D01*
X64704Y-31732D01*
X64627Y-31680D01*
X64541Y-31644D01*
X64449Y-31625D01*
X64356Y-31625D01*
X64265Y-31642D01*
X64178Y-31677D01*
X64101Y-31728D01*
X64034Y-31794D01*
X63982Y-31870D01*
X63945Y-31956D01*
X63926Y-32047D01*
X63924Y-32140D01*
X63941Y-32232D01*
X63976Y-32319D01*
X64026Y-32397D01*
X64091Y-32464D01*
X64168Y-32517D01*
X64253Y-32554D01*
X64344Y-32574D01*
X64437Y-32576D01*
X64529Y-32560D01*
X64616Y-32526D01*
X64694Y-32476D01*
X64762Y-32412D01*
X64815Y-32335D01*
X64853Y-32250D01*
X64874Y-32159D01*
X64875Y-32053D01*
X64875Y-33501D01*
X64776Y-33600D01*
X63375Y-33600D01*
X63375Y-32053D01*
X63357Y-31962D01*
X63321Y-31876D01*
X63270Y-31798D01*
X63204Y-31732D01*
X63127Y-31680D01*
X63041Y-31644D01*
X62949Y-31625D01*
X62856Y-31625D01*
X62765Y-31642D01*
X62678Y-31677D01*
X62601Y-31728D01*
X62534Y-31794D01*
X62482Y-31870D01*
X62445Y-31956D01*
X62426Y-32047D01*
X62424Y-32140D01*
X62441Y-32232D01*
X62476Y-32319D01*
X62526Y-32397D01*
X62591Y-32464D01*
X62668Y-32517D01*
X62753Y-32554D01*
X62844Y-32574D01*
X62937Y-32576D01*
X63029Y-32560D01*
X63116Y-32526D01*
X63194Y-32476D01*
X63262Y-32412D01*
X63315Y-32335D01*
X63353Y-32250D01*
X63374Y-32159D01*
X63375Y-32053D01*
X63375Y-33600D01*
X47793Y-33600D01*
X47815Y-33579D01*
X47855Y-33523D01*
X47883Y-33461D01*
X47898Y-33394D01*
X47899Y-33316D01*
X47886Y-33249D01*
X47860Y-33186D01*
X47822Y-33129D01*
X47774Y-33080D01*
X47717Y-33042D01*
X47654Y-33015D01*
X47587Y-33001D01*
X47518Y-33001D01*
X47451Y-33014D01*
X47388Y-33039D01*
X47371Y-33050D01*
X46724Y-33050D01*
X46100Y-32426D01*
X46103Y-32413D01*
X46103Y-32400D01*
X46397Y-32400D01*
X46400Y-32400D01*
X46413Y-32398D01*
X46456Y-32395D01*
X46458Y-32394D01*
X46512Y-32379D01*
X46514Y-32377D01*
X46544Y-32361D01*
X46563Y-32351D01*
X46566Y-32350D01*
X46600Y-32322D01*
X46609Y-32315D01*
X46611Y-32313D01*
X46612Y-32312D01*
X50423Y-28501D01*
X50425Y-28499D01*
X50436Y-28485D01*
X50461Y-28456D01*
X50462Y-28454D01*
X50489Y-28405D01*
X50489Y-28403D01*
X50499Y-28369D01*
X50506Y-28349D01*
X50507Y-28347D01*
X50511Y-28303D01*
X50513Y-28291D01*
X50513Y-28289D01*
X50513Y-28287D01*
X50513Y-28083D01*
X50580Y-28083D01*
X50613Y-28076D01*
X50645Y-28063D01*
X50673Y-28045D01*
X50698Y-28020D01*
X50717Y-27992D01*
X50730Y-27961D01*
X50731Y-27955D01*
X51000Y-28224D01*
X51000Y-28597D01*
X51000Y-28600D01*
X51001Y-28613D01*
X51005Y-28656D01*
X51021Y-28712D01*
X51038Y-28744D01*
X51050Y-28766D01*
X51077Y-28800D01*
X51085Y-28809D01*
X51087Y-28811D01*
X51088Y-28812D01*
X51186Y-28910D01*
X51188Y-28912D01*
X51202Y-28923D01*
X51231Y-28948D01*
X51233Y-28949D01*
X51282Y-28976D01*
X51284Y-28976D01*
X51318Y-28986D01*
X51338Y-28993D01*
X51340Y-28994D01*
X51384Y-28998D01*
X51396Y-29000D01*
X51398Y-29000D01*
X51400Y-29000D01*
X62497Y-29000D01*
X62500Y-29000D01*
X62513Y-28998D01*
X62556Y-28995D01*
X62558Y-28994D01*
X62612Y-28979D01*
X62614Y-28977D01*
X62644Y-28961D01*
X62663Y-28951D01*
X62666Y-28950D01*
X62700Y-28922D01*
X62709Y-28915D01*
X62711Y-28913D01*
X62712Y-28912D01*
X63110Y-28514D01*
X63112Y-28513D01*
X63126Y-28494D01*
X63148Y-28469D01*
X63148Y-28467D01*
X63176Y-28418D01*
X63176Y-28416D01*
X63186Y-28382D01*
X63193Y-28362D01*
X63194Y-28360D01*
X63195Y-28338D01*
X63200Y-28304D01*
X63200Y-28300D01*
X63200Y-27224D01*
X63224Y-27200D01*
X63578Y-27200D01*
X63558Y-27220D01*
X63500Y-27305D01*
X63459Y-27399D01*
X63438Y-27500D01*
X63436Y-27603D01*
X63455Y-27704D01*
X63493Y-27799D01*
X63548Y-27886D01*
X63619Y-27960D01*
X63704Y-28018D01*
X63798Y-28060D01*
X63898Y-28082D01*
X64001Y-28084D01*
X64102Y-28066D01*
X64198Y-28029D01*
X64285Y-27974D01*
X64359Y-27903D01*
X64419Y-27819D01*
X64460Y-27726D01*
X64461Y-27719D01*
X64493Y-27799D01*
X64548Y-27886D01*
X64619Y-27960D01*
X64704Y-28018D01*
X64798Y-28060D01*
X64898Y-28082D01*
X65001Y-28084D01*
X65102Y-28066D01*
X65198Y-28029D01*
X65285Y-27974D01*
X65359Y-27903D01*
X65419Y-27819D01*
X65437Y-27778D01*
X65437Y-27926D01*
X65444Y-27959D01*
X65457Y-27991D01*
X65475Y-28019D01*
X65500Y-28044D01*
X65528Y-28063D01*
X65559Y-28076D01*
X65593Y-28083D01*
X65627Y-28083D01*
X66328Y-28083D01*
X66361Y-28076D01*
X66393Y-28063D01*
X66421Y-28045D01*
X66446Y-28020D01*
X66465Y-27992D01*
X66478Y-27961D01*
X66485Y-27927D01*
X66485Y-27893D01*
X66485Y-27192D01*
X66478Y-27159D01*
X66465Y-27127D01*
X66447Y-27099D01*
X66422Y-27074D01*
X66394Y-27055D01*
X66363Y-27042D01*
X66329Y-27035D01*
X66295Y-27035D01*
X66291Y-27035D01*
X66284Y-27010D01*
X66278Y-26988D01*
X66277Y-26986D01*
X66250Y-26934D01*
X66217Y-26894D01*
X66214Y-26890D01*
X66213Y-26889D01*
X66212Y-26887D01*
X66014Y-26690D01*
X66012Y-26688D01*
X65998Y-26676D01*
X65969Y-26652D01*
X65967Y-26651D01*
X65918Y-26624D01*
X65864Y-26607D01*
X65862Y-26607D01*
X65859Y-26606D01*
X65822Y-26602D01*
X65804Y-26600D01*
X65801Y-26600D01*
X65800Y-26600D01*
X63100Y-26600D01*
X63042Y-26606D01*
X63010Y-26615D01*
X62988Y-26622D01*
X62986Y-26622D01*
X62986Y-26623D01*
X62934Y-26650D01*
X62894Y-26682D01*
X62890Y-26686D01*
X62887Y-26688D01*
X62688Y-26888D01*
X62676Y-26902D01*
X62652Y-26931D01*
X62624Y-26982D01*
X62607Y-27036D01*
X62606Y-27041D01*
X62602Y-27078D01*
X62600Y-27096D01*
X62600Y-27099D01*
X62600Y-27100D01*
X62600Y-28175D01*
X62375Y-28400D01*
X59038Y-28400D01*
X59038Y-24927D01*
X58964Y-24552D01*
X58818Y-24198D01*
X58606Y-23879D01*
X58337Y-23608D01*
X58020Y-23394D01*
X57667Y-23245D01*
X57292Y-23168D01*
X56910Y-23166D01*
X56534Y-23237D01*
X56179Y-23381D01*
X55859Y-23590D01*
X55585Y-23858D01*
X55369Y-24173D01*
X55219Y-24525D01*
X55139Y-24899D01*
X55134Y-25282D01*
X55203Y-25658D01*
X55343Y-26014D01*
X55551Y-26335D01*
X55816Y-26611D01*
X56130Y-26829D01*
X56481Y-26982D01*
X56855Y-27065D01*
X57237Y-27073D01*
X57614Y-27006D01*
X57971Y-26868D01*
X58294Y-26663D01*
X58571Y-26399D01*
X58791Y-26087D01*
X58947Y-25737D01*
X59032Y-25364D01*
X59038Y-24927D01*
X59038Y-28400D01*
X51600Y-28400D01*
X51600Y-28103D01*
X51600Y-28100D01*
X51598Y-28086D01*
X51595Y-28044D01*
X51594Y-28042D01*
X51579Y-27988D01*
X51577Y-27986D01*
X51561Y-27955D01*
X51551Y-27937D01*
X51550Y-27934D01*
X51522Y-27899D01*
X51515Y-27891D01*
X51513Y-27889D01*
X51512Y-27888D01*
X50973Y-27349D01*
X50971Y-27347D01*
X50957Y-27335D01*
X50928Y-27311D01*
X50926Y-27310D01*
X50877Y-27283D01*
X50823Y-27266D01*
X50821Y-27266D01*
X50818Y-27265D01*
X50781Y-27261D01*
X50763Y-27259D01*
X50760Y-27259D01*
X50759Y-27259D01*
X50737Y-27259D01*
X50737Y-27192D01*
X50730Y-27159D01*
X50717Y-27127D01*
X50699Y-27099D01*
X50674Y-27074D01*
X50646Y-27055D01*
X50615Y-27042D01*
X50581Y-27035D01*
X50547Y-27035D01*
X49846Y-27035D01*
X49813Y-27042D01*
X49781Y-27055D01*
X49753Y-27073D01*
X49728Y-27098D01*
X49709Y-27126D01*
X49696Y-27157D01*
X49689Y-27191D01*
X49689Y-27225D01*
X49689Y-27338D01*
X49678Y-27312D01*
X49621Y-27227D01*
X49549Y-27154D01*
X49464Y-27096D01*
X49369Y-27056D01*
X49268Y-27035D01*
X49166Y-27035D01*
X49065Y-27054D01*
X48969Y-27092D01*
X48883Y-27148D01*
X48810Y-27220D01*
X48752Y-27305D01*
X48712Y-27395D01*
X48678Y-27312D01*
X48621Y-27227D01*
X48549Y-27154D01*
X48464Y-27096D01*
X48369Y-27056D01*
X48268Y-27035D01*
X48166Y-27035D01*
X48065Y-27054D01*
X47969Y-27092D01*
X47883Y-27148D01*
X47810Y-27220D01*
X47752Y-27305D01*
X47711Y-27399D01*
X47690Y-27500D01*
X47688Y-27603D01*
X47707Y-27704D01*
X47745Y-27799D01*
X47800Y-27886D01*
X47871Y-27960D01*
X47956Y-28018D01*
X48050Y-28060D01*
X48150Y-28082D01*
X48253Y-28084D01*
X48354Y-28066D01*
X48450Y-28029D01*
X48537Y-27974D01*
X48611Y-27903D01*
X48671Y-27819D01*
X48712Y-27726D01*
X48713Y-27719D01*
X48745Y-27799D01*
X48800Y-27886D01*
X48871Y-27960D01*
X48956Y-28018D01*
X49050Y-28060D01*
X49150Y-28082D01*
X49253Y-28084D01*
X49354Y-28066D01*
X49450Y-28029D01*
X49537Y-27974D01*
X49611Y-27903D01*
X49671Y-27819D01*
X49689Y-27778D01*
X49689Y-27926D01*
X49696Y-27959D01*
X49709Y-27991D01*
X49727Y-28019D01*
X49752Y-28044D01*
X49780Y-28063D01*
X49811Y-28076D01*
X49845Y-28083D01*
X49879Y-28083D01*
X49913Y-28083D01*
X49913Y-28163D01*
X46276Y-31800D01*
X46103Y-31800D01*
X46103Y-31788D01*
X46096Y-31755D01*
X46083Y-31723D01*
X46065Y-31695D01*
X46040Y-31670D01*
X46012Y-31651D01*
X45981Y-31638D01*
X45947Y-31631D01*
X45913Y-31631D01*
X45402Y-31631D01*
X45369Y-31638D01*
X45337Y-31651D01*
X45309Y-31669D01*
X45284Y-31694D01*
X45265Y-31722D01*
X45252Y-31753D01*
X45245Y-31787D01*
X45245Y-31821D01*
X45245Y-32412D01*
X45252Y-32445D01*
X45265Y-32477D01*
X45283Y-32505D01*
X45308Y-32530D01*
X45336Y-32549D01*
X45367Y-32562D01*
X45401Y-32569D01*
X45413Y-32569D01*
X45424Y-32590D01*
X45451Y-32624D01*
X45459Y-32633D01*
X45461Y-32635D01*
X45462Y-32636D01*
X46386Y-33560D01*
X46387Y-33562D01*
X46415Y-33585D01*
X46431Y-33598D01*
X46433Y-33599D01*
X46434Y-33600D01*
X43290Y-33600D01*
X43290Y-24927D01*
X43216Y-24552D01*
X43070Y-24198D01*
X42858Y-23879D01*
X42589Y-23608D01*
X42272Y-23394D01*
X41919Y-23245D01*
X41544Y-23168D01*
X41162Y-23166D01*
X40786Y-23237D01*
X40431Y-23381D01*
X40111Y-23590D01*
X39837Y-23858D01*
X39621Y-24173D01*
X39471Y-24525D01*
X39391Y-24899D01*
X39386Y-25282D01*
X39455Y-25658D01*
X39595Y-26014D01*
X39803Y-26335D01*
X40068Y-26611D01*
X40382Y-26829D01*
X40733Y-26982D01*
X41107Y-27065D01*
X41489Y-27073D01*
X41866Y-27006D01*
X42223Y-26868D01*
X42546Y-26663D01*
X42823Y-26399D01*
X43043Y-26087D01*
X43199Y-25737D01*
X43284Y-25364D01*
X43290Y-24927D01*
X43290Y-33600D01*
X42800Y-33600D01*
X42742Y-33606D01*
X42710Y-33615D01*
X42688Y-33622D01*
X42686Y-33622D01*
X42686Y-33623D01*
X42634Y-33650D01*
X42599Y-33678D01*
X42590Y-33686D01*
X42587Y-33688D01*
X42188Y-34088D01*
X42176Y-34102D01*
X42152Y-34131D01*
X42124Y-34182D01*
X42107Y-34236D01*
X42106Y-34241D01*
X42102Y-34278D01*
X42100Y-34296D01*
X42100Y-34299D01*
X42100Y-34300D01*
X42100Y-35897D01*
X42100Y-35900D01*
X42101Y-35913D01*
X42105Y-35956D01*
X42121Y-36012D01*
X42138Y-36044D01*
X42150Y-36066D01*
X42177Y-36100D01*
X42185Y-36109D01*
X42187Y-36111D01*
X42188Y-36112D01*
X42436Y-36360D01*
X42437Y-36362D01*
X42465Y-36385D01*
X42481Y-36398D01*
X42483Y-36399D01*
X42532Y-36426D01*
X42534Y-36426D01*
X42568Y-36436D01*
X42588Y-36443D01*
X42590Y-36444D01*
X42612Y-36445D01*
X42646Y-36450D01*
X42650Y-36450D01*
X44277Y-36450D01*
X44335Y-36444D01*
X44341Y-36442D01*
X44727Y-36442D01*
X44760Y-36435D01*
X44792Y-36422D01*
X44800Y-36416D01*
X44800Y-37631D01*
X44654Y-37631D01*
X44621Y-37638D01*
X44589Y-37651D01*
X44561Y-37669D01*
X44536Y-37694D01*
X44517Y-37722D01*
X44504Y-37753D01*
X44497Y-37787D01*
X44497Y-37821D01*
X44497Y-38412D01*
X44504Y-38445D01*
X44517Y-38477D01*
X44535Y-38505D01*
X44560Y-38530D01*
X44588Y-38549D01*
X44619Y-38562D01*
X44653Y-38569D01*
X44687Y-38569D01*
X45198Y-38569D01*
X45231Y-38562D01*
X45263Y-38549D01*
X45291Y-38531D01*
X45300Y-38522D01*
X45308Y-38530D01*
X45336Y-38549D01*
X45367Y-38562D01*
X45401Y-38569D01*
X45435Y-38569D01*
X45946Y-38569D01*
X45979Y-38562D01*
X46011Y-38549D01*
X46039Y-38531D01*
X46064Y-38506D01*
X46083Y-38478D01*
X46096Y-38447D01*
X46103Y-38413D01*
X46103Y-38379D01*
X46103Y-37788D01*
X46096Y-37755D01*
X46083Y-37723D01*
X46065Y-37695D01*
X46040Y-37670D01*
X46012Y-37651D01*
X45981Y-37638D01*
X45974Y-37636D01*
X45974Y-36942D01*
X46257Y-36942D01*
X46261Y-36943D01*
X46319Y-36950D01*
X46323Y-36950D01*
X47326Y-36950D01*
X47961Y-37585D01*
X47963Y-37596D01*
X47988Y-37660D01*
X48025Y-37718D01*
X48073Y-37767D01*
X48129Y-37806D01*
X48191Y-37833D01*
X48258Y-37848D01*
X48327Y-37850D01*
X48394Y-37838D01*
X48458Y-37813D01*
X48516Y-37776D01*
X48565Y-37729D01*
X48605Y-37673D01*
X48633Y-37611D01*
X48648Y-37544D01*
X48649Y-37466D01*
X48636Y-37399D01*
X48610Y-37336D01*
X48572Y-37279D01*
X48524Y-37230D01*
X48467Y-37192D01*
X48404Y-37165D01*
X48385Y-37161D01*
X48130Y-36906D01*
X48191Y-36933D01*
X48258Y-36948D01*
X48327Y-36950D01*
X48394Y-36938D01*
X48458Y-36913D01*
X48516Y-36876D01*
X48565Y-36829D01*
X48605Y-36773D01*
X48633Y-36711D01*
X48648Y-36644D01*
X48649Y-36566D01*
X48636Y-36499D01*
X48610Y-36436D01*
X48572Y-36379D01*
X48524Y-36330D01*
X48467Y-36292D01*
X48404Y-36265D01*
X48385Y-36261D01*
X48064Y-35940D01*
X48062Y-35938D01*
X48048Y-35926D01*
X48019Y-35902D01*
X48017Y-35901D01*
X47968Y-35874D01*
X47914Y-35857D01*
X47912Y-35857D01*
X47909Y-35856D01*
X47872Y-35852D01*
X47854Y-35850D01*
X47851Y-35850D01*
X47850Y-35850D01*
X47835Y-35850D01*
X47855Y-35823D01*
X47883Y-35761D01*
X47898Y-35694D01*
X47899Y-35616D01*
X47886Y-35549D01*
X47860Y-35486D01*
X47856Y-35480D01*
X48700Y-36324D01*
X48700Y-45426D01*
X47101Y-47025D01*
X47101Y-45504D01*
X47101Y-45501D01*
X47099Y-45487D01*
X47096Y-45445D01*
X47095Y-45443D01*
X47079Y-45389D01*
X47078Y-45387D01*
X47052Y-45337D01*
X47051Y-45335D01*
X47039Y-45320D01*
X47016Y-45291D01*
X47014Y-45290D01*
X47013Y-45289D01*
X46664Y-44940D01*
X46662Y-44938D01*
X46648Y-44926D01*
X46619Y-44902D01*
X46617Y-44901D01*
X46568Y-44874D01*
X46514Y-44857D01*
X46512Y-44857D01*
X46509Y-44856D01*
X46472Y-44852D01*
X46454Y-44850D01*
X46451Y-44850D01*
X46450Y-44850D01*
X46044Y-44850D01*
X46044Y-44168D01*
X46044Y-44134D01*
X46044Y-43333D01*
X46037Y-43300D01*
X46024Y-43268D01*
X46006Y-43240D01*
X45981Y-43215D01*
X45953Y-43196D01*
X45922Y-43183D01*
X45888Y-43176D01*
X45854Y-43176D01*
X44413Y-43176D01*
X44380Y-43183D01*
X44348Y-43196D01*
X44320Y-43214D01*
X44295Y-43239D01*
X44276Y-43267D01*
X44263Y-43298D01*
X44256Y-43332D01*
X44256Y-43366D01*
X44256Y-44167D01*
X44263Y-44200D01*
X44276Y-44232D01*
X44294Y-44260D01*
X44319Y-44285D01*
X44347Y-44304D01*
X44378Y-44317D01*
X44412Y-44324D01*
X44446Y-44324D01*
X45887Y-44324D01*
X45920Y-44317D01*
X45952Y-44304D01*
X45980Y-44286D01*
X46005Y-44261D01*
X46024Y-44233D01*
X46037Y-44202D01*
X46044Y-44168D01*
X46044Y-44850D01*
X44703Y-44850D01*
X44700Y-44850D01*
X44686Y-44851D01*
X44644Y-44855D01*
X44588Y-44872D01*
X44586Y-44872D01*
X44586Y-44873D01*
X44534Y-44900D01*
X44519Y-44911D01*
X44490Y-44935D01*
X44488Y-44938D01*
X44040Y-45386D01*
X44038Y-45388D01*
X44026Y-45402D01*
X44002Y-45431D01*
X43974Y-45482D01*
X43957Y-45536D01*
X43956Y-45541D01*
X43952Y-45578D01*
X43950Y-45596D01*
X43950Y-45599D01*
X43950Y-45600D01*
X43950Y-45807D01*
X43940Y-45814D01*
X43915Y-45839D01*
X43896Y-45867D01*
X43883Y-45898D01*
X43876Y-45932D01*
X43876Y-45966D01*
X43876Y-46750D01*
X43853Y-46750D01*
X43850Y-46750D01*
X43836Y-46751D01*
X43794Y-46755D01*
X43738Y-46772D01*
X43736Y-46772D01*
X43736Y-46773D01*
X43684Y-46800D01*
X43669Y-46811D01*
X43640Y-46835D01*
X43638Y-46838D01*
X43289Y-47187D01*
X43287Y-47189D01*
X43275Y-47203D01*
X43259Y-47222D01*
X43168Y-47222D01*
X43135Y-47229D01*
X43103Y-47242D01*
X43075Y-47260D01*
X43050Y-47285D01*
X43031Y-47313D01*
X43018Y-47344D01*
X43011Y-47378D01*
X43011Y-47412D01*
X43011Y-48121D01*
X43018Y-48154D01*
X43031Y-48186D01*
X43049Y-48214D01*
X43074Y-48239D01*
X43102Y-48258D01*
X43133Y-48271D01*
X43167Y-48278D01*
X43201Y-48278D01*
X43830Y-48278D01*
X43863Y-48271D01*
X43895Y-48258D01*
X43923Y-48240D01*
X43948Y-48215D01*
X43967Y-48187D01*
X43980Y-48156D01*
X43987Y-48122D01*
X43987Y-48088D01*
X43987Y-47379D01*
X43980Y-47350D01*
X44547Y-47350D01*
X44550Y-47350D01*
X44563Y-47348D01*
X44606Y-47345D01*
X44608Y-47344D01*
X44662Y-47329D01*
X44664Y-47327D01*
X44694Y-47311D01*
X44713Y-47301D01*
X44716Y-47300D01*
X44750Y-47272D01*
X44759Y-47265D01*
X44761Y-47263D01*
X44762Y-47262D01*
X44910Y-47114D01*
X44912Y-47112D01*
X44923Y-47098D01*
X44948Y-47069D01*
X44949Y-47067D01*
X44976Y-47018D01*
X44976Y-47015D01*
X44992Y-46964D01*
X44993Y-46962D01*
X44994Y-46959D01*
X44998Y-46917D01*
X45000Y-46904D01*
X45000Y-46902D01*
X45000Y-46900D01*
X45000Y-45924D01*
X45074Y-45850D01*
X45707Y-45850D01*
X45696Y-45867D01*
X45683Y-45898D01*
X45676Y-45932D01*
X45676Y-45966D01*
X45676Y-46767D01*
X45683Y-46800D01*
X45696Y-46832D01*
X45714Y-46860D01*
X45739Y-46885D01*
X45750Y-46892D01*
X45750Y-46897D01*
X45750Y-46900D01*
X45751Y-46913D01*
X45755Y-46956D01*
X45771Y-47012D01*
X45788Y-47044D01*
X45800Y-47066D01*
X45827Y-47100D01*
X45835Y-47109D01*
X45837Y-47111D01*
X45838Y-47112D01*
X45950Y-47224D01*
X45950Y-49226D01*
X45040Y-50136D01*
X45038Y-50138D01*
X45026Y-50152D01*
X45002Y-50181D01*
X44974Y-50232D01*
X44957Y-50286D01*
X44956Y-50291D01*
X44952Y-50328D01*
X44950Y-50346D01*
X44950Y-50349D01*
X44950Y-50350D01*
X44950Y-50379D01*
X44921Y-50350D01*
X44845Y-50299D01*
X44760Y-50263D01*
X44669Y-50244D01*
X44577Y-50244D01*
X44487Y-50261D01*
X44401Y-50295D01*
X44324Y-50346D01*
X44258Y-50410D01*
X44206Y-50486D01*
X44170Y-50571D01*
X44151Y-50661D01*
X44149Y-50753D01*
X44166Y-50844D01*
X44200Y-50930D01*
X44250Y-51007D01*
X44314Y-51074D01*
X44390Y-51126D01*
X44474Y-51163D01*
X44564Y-51183D01*
X44656Y-51185D01*
X44747Y-51169D01*
X44833Y-51136D01*
X44911Y-51086D01*
X44950Y-51048D01*
X44950Y-51347D01*
X44950Y-51350D01*
X44951Y-51363D01*
X44955Y-51406D01*
X44971Y-51462D01*
X44988Y-51494D01*
X45000Y-51516D01*
X45027Y-51550D01*
X45035Y-51559D01*
X45037Y-51561D01*
X45038Y-51562D01*
X45286Y-51810D01*
X45287Y-51812D01*
X45315Y-51835D01*
X45331Y-51848D01*
X45333Y-51849D01*
X45382Y-51876D01*
X45384Y-51876D01*
X45418Y-51886D01*
X45438Y-51893D01*
X45440Y-51894D01*
X45462Y-51895D01*
X45496Y-51900D01*
X45500Y-51900D01*
X48597Y-51900D01*
X48600Y-51900D01*
X48613Y-51898D01*
X48656Y-51895D01*
X48658Y-51894D01*
X48712Y-51879D01*
X48714Y-51877D01*
X48744Y-51861D01*
X48763Y-51851D01*
X48766Y-51850D01*
X48800Y-51822D01*
X48809Y-51815D01*
X48811Y-51813D01*
X48812Y-51812D01*
X49110Y-51514D01*
X49112Y-51512D01*
X49123Y-51498D01*
X49148Y-51469D01*
X49149Y-51467D01*
X49176Y-51418D01*
X49176Y-51415D01*
X49188Y-51376D01*
X49193Y-51362D01*
X49194Y-51360D01*
X49198Y-51316D01*
X49200Y-51304D01*
X49200Y-51302D01*
X49200Y-51300D01*
X49200Y-49924D01*
X49259Y-49865D01*
X49262Y-49862D01*
X51110Y-48014D01*
X51112Y-48012D01*
X51123Y-47998D01*
X51148Y-47969D01*
X51149Y-47967D01*
X51176Y-47918D01*
X51176Y-47915D01*
X51188Y-47876D01*
X51193Y-47862D01*
X51194Y-47860D01*
X51198Y-47816D01*
X51200Y-47804D01*
X51200Y-47802D01*
X51200Y-47800D01*
X51200Y-43024D01*
X53724Y-40500D01*
X56967Y-40500D01*
X56969Y-40500D01*
X56979Y-40498D01*
X57025Y-40495D01*
X57027Y-40494D01*
X57081Y-40478D01*
X57082Y-40477D01*
X57083Y-40477D01*
X57133Y-40451D01*
X57135Y-40450D01*
X57169Y-40422D01*
X57179Y-40414D01*
X57179Y-40413D01*
X57180Y-40413D01*
X57217Y-40369D01*
X57218Y-40368D01*
X57241Y-40325D01*
X57245Y-40318D01*
X57245Y-40317D01*
X57246Y-40316D01*
X57262Y-40262D01*
X57263Y-40260D01*
X57267Y-40216D01*
X57269Y-40204D01*
X57269Y-40202D01*
X57269Y-40200D01*
X57269Y-40024D01*
X57363Y-39929D01*
X57368Y-39931D01*
X57495Y-39959D01*
X57626Y-39962D01*
X57755Y-39940D01*
X57877Y-39892D01*
X57987Y-39822D01*
X58082Y-39732D01*
X58158Y-39625D01*
X58171Y-39594D01*
X65870Y-39594D01*
X65934Y-39658D01*
X65934Y-40044D01*
X65928Y-40048D01*
X65903Y-40073D01*
X65900Y-40077D01*
X65898Y-40074D01*
X65873Y-40049D01*
X65845Y-40030D01*
X65814Y-40017D01*
X65780Y-40010D01*
X65746Y-40010D01*
X65353Y-40010D01*
X65320Y-40017D01*
X65288Y-40030D01*
X65260Y-40048D01*
X65235Y-40073D01*
X65216Y-40101D01*
X65203Y-40132D01*
X65196Y-40166D01*
X65196Y-40200D01*
X65196Y-40633D01*
X65203Y-40666D01*
X65216Y-40698D01*
X65234Y-40726D01*
X65259Y-40751D01*
X65266Y-40755D01*
X65266Y-40890D01*
X65234Y-40890D01*
X65201Y-40897D01*
X65169Y-40910D01*
X65141Y-40928D01*
X65116Y-40953D01*
X65097Y-40981D01*
X65084Y-41012D01*
X65077Y-41046D01*
X65077Y-41080D01*
X65077Y-41553D01*
X65084Y-41586D01*
X65097Y-41618D01*
X65115Y-41646D01*
X65140Y-41671D01*
X65168Y-41690D01*
X65199Y-41703D01*
X65233Y-41710D01*
X65267Y-41710D01*
X65740Y-41710D01*
X65773Y-41703D01*
X65805Y-41690D01*
X65833Y-41672D01*
X65858Y-41647D01*
X65877Y-41619D01*
X65890Y-41588D01*
X65897Y-41554D01*
X65897Y-41520D01*
X65897Y-41047D01*
X65890Y-41014D01*
X65877Y-40982D01*
X65866Y-40964D01*
X65866Y-40755D01*
X65872Y-40752D01*
X65897Y-40727D01*
X65899Y-40722D01*
X65902Y-40726D01*
X65927Y-40751D01*
X65955Y-40770D01*
X65986Y-40783D01*
X66020Y-40790D01*
X66054Y-40790D01*
X66447Y-40790D01*
X66480Y-40783D01*
X66512Y-40770D01*
X66540Y-40752D01*
X66565Y-40727D01*
X66584Y-40699D01*
X66597Y-40668D01*
X66604Y-40634D01*
X66604Y-40600D01*
X66604Y-40167D01*
X66597Y-40134D01*
X66584Y-40102D01*
X66566Y-40074D01*
X66541Y-40049D01*
X66534Y-40044D01*
X66534Y-39537D01*
X66534Y-39534D01*
X66532Y-39520D01*
X66529Y-39478D01*
X66528Y-39476D01*
X66512Y-39422D01*
X66511Y-39420D01*
X66485Y-39370D01*
X66484Y-39368D01*
X66472Y-39353D01*
X66449Y-39324D01*
X66447Y-39323D01*
X66446Y-39322D01*
X66208Y-39084D01*
X66206Y-39082D01*
X66192Y-39070D01*
X66163Y-39046D01*
X66161Y-39045D01*
X66112Y-39018D01*
X66058Y-39001D01*
X66056Y-39001D01*
X66053Y-39000D01*
X66016Y-38996D01*
X65998Y-38994D01*
X65995Y-38994D01*
X65994Y-38994D01*
X64875Y-38994D01*
X64875Y-37053D01*
X64857Y-36962D01*
X64821Y-36876D01*
X64770Y-36798D01*
X64704Y-36732D01*
X64627Y-36680D01*
X64541Y-36644D01*
X64449Y-36625D01*
X64356Y-36625D01*
X64265Y-36642D01*
X64178Y-36677D01*
X64101Y-36728D01*
X64034Y-36794D01*
X63982Y-36870D01*
X63945Y-36956D01*
X63926Y-37047D01*
X63924Y-37140D01*
X63941Y-37232D01*
X63976Y-37319D01*
X64026Y-37397D01*
X64091Y-37464D01*
X64168Y-37517D01*
X64253Y-37554D01*
X64344Y-37574D01*
X64437Y-37576D01*
X64529Y-37560D01*
X64616Y-37526D01*
X64694Y-37476D01*
X64762Y-37412D01*
X64815Y-37335D01*
X64853Y-37250D01*
X64874Y-37159D01*
X64875Y-37053D01*
X64875Y-38994D01*
X63375Y-38994D01*
X63375Y-37053D01*
X63357Y-36962D01*
X63321Y-36876D01*
X63270Y-36798D01*
X63204Y-36732D01*
X63127Y-36680D01*
X63041Y-36644D01*
X62949Y-36625D01*
X62856Y-36625D01*
X62765Y-36642D01*
X62678Y-36677D01*
X62601Y-36728D01*
X62534Y-36794D01*
X62482Y-36870D01*
X62445Y-36956D01*
X62426Y-37047D01*
X62424Y-37140D01*
X62441Y-37232D01*
X62476Y-37319D01*
X62526Y-37397D01*
X62591Y-37464D01*
X62668Y-37517D01*
X62753Y-37554D01*
X62844Y-37574D01*
X62937Y-37576D01*
X63029Y-37560D01*
X63116Y-37526D01*
X63194Y-37476D01*
X63262Y-37412D01*
X63315Y-37335D01*
X63353Y-37250D01*
X63374Y-37159D01*
X63375Y-37053D01*
X63375Y-38994D01*
X58172Y-38994D01*
X58167Y-38980D01*
X58095Y-38871D01*
X58002Y-38778D01*
X57894Y-38705D01*
X57774Y-38654D01*
X57645Y-38628D01*
X57515Y-38627D01*
X57386Y-38651D01*
X57265Y-38700D01*
X57155Y-38771D01*
X57062Y-38863D01*
X56988Y-38971D01*
X56936Y-39091D01*
X56909Y-39219D01*
X56907Y-39350D01*
X56931Y-39478D01*
X56941Y-39503D01*
X56759Y-39686D01*
X56757Y-39688D01*
X56745Y-39702D01*
X56721Y-39731D01*
X56693Y-39782D01*
X56676Y-39836D01*
X56675Y-39841D01*
X56671Y-39878D01*
X56669Y-39896D01*
X56669Y-39899D01*
X56669Y-39900D01*
X56281Y-39900D01*
X56302Y-39892D01*
X56412Y-39822D01*
X56507Y-39732D01*
X56583Y-39625D01*
X56636Y-39506D01*
X56642Y-39476D01*
X56655Y-39462D01*
X56683Y-39410D01*
X56700Y-39354D01*
X56706Y-39296D01*
X56701Y-39238D01*
X56684Y-39182D01*
X56657Y-39130D01*
X56644Y-39114D01*
X56642Y-39101D01*
X56592Y-38980D01*
X56520Y-38871D01*
X56427Y-38778D01*
X56394Y-38755D01*
X56394Y-37061D01*
X56379Y-36985D01*
X56349Y-36914D01*
X56307Y-36849D01*
X56252Y-36795D01*
X56188Y-36752D01*
X56117Y-36722D01*
X56041Y-36706D01*
X55964Y-36706D01*
X55888Y-36720D01*
X55816Y-36749D01*
X55752Y-36792D01*
X55696Y-36846D01*
X55653Y-36910D01*
X55622Y-36981D01*
X55607Y-37056D01*
X55605Y-37133D01*
X55620Y-37209D01*
X55648Y-37281D01*
X55690Y-37346D01*
X55744Y-37402D01*
X55807Y-37446D01*
X55878Y-37477D01*
X55953Y-37493D01*
X56031Y-37495D01*
X56107Y-37481D01*
X56179Y-37453D01*
X56244Y-37412D01*
X56300Y-37358D01*
X56344Y-37295D01*
X56376Y-37225D01*
X56393Y-37149D01*
X56394Y-37061D01*
X56394Y-38755D01*
X56319Y-38705D01*
X56199Y-38654D01*
X56070Y-38628D01*
X55940Y-38627D01*
X55811Y-38651D01*
X55690Y-38700D01*
X55580Y-38771D01*
X55487Y-38863D01*
X55413Y-38971D01*
X55361Y-39091D01*
X55334Y-39219D01*
X55332Y-39350D01*
X55356Y-39478D01*
X55404Y-39600D01*
X55475Y-39710D01*
X55565Y-39804D01*
X55673Y-39879D01*
X55721Y-39900D01*
X53603Y-39900D01*
X53600Y-39900D01*
X53586Y-39901D01*
X53544Y-39905D01*
X53488Y-39922D01*
X53486Y-39922D01*
X53486Y-39923D01*
X53434Y-39950D01*
X53419Y-39961D01*
X53390Y-39985D01*
X53388Y-39988D01*
X51723Y-41653D01*
X51723Y-40836D01*
X51679Y-40613D01*
X51592Y-40403D01*
X51466Y-40214D01*
X51306Y-40053D01*
X51118Y-39926D01*
X50909Y-39838D01*
X50686Y-39793D01*
X50459Y-39791D01*
X50236Y-39834D01*
X50026Y-39919D01*
X49836Y-40043D01*
X49673Y-40202D01*
X49545Y-40390D01*
X49456Y-40599D01*
X49409Y-40821D01*
X49406Y-41048D01*
X49447Y-41271D01*
X49530Y-41482D01*
X49653Y-41673D01*
X49811Y-41836D01*
X49998Y-41966D01*
X50206Y-42057D01*
X50428Y-42105D01*
X50655Y-42110D01*
X50878Y-42071D01*
X51090Y-41988D01*
X51282Y-41867D01*
X51446Y-41710D01*
X51577Y-41524D01*
X51669Y-41317D01*
X51719Y-41095D01*
X51723Y-40836D01*
X51723Y-41653D01*
X50690Y-42686D01*
X50688Y-42688D01*
X50676Y-42702D01*
X50652Y-42731D01*
X50624Y-42782D01*
X50607Y-42836D01*
X50606Y-42841D01*
X50602Y-42878D01*
X50600Y-42896D01*
X50600Y-42899D01*
X50600Y-42900D01*
X50600Y-47676D01*
X48841Y-49435D01*
X48838Y-49438D01*
X48690Y-49586D01*
X48688Y-49588D01*
X48676Y-49602D01*
X48652Y-49631D01*
X48624Y-49682D01*
X48607Y-49736D01*
X48606Y-49741D01*
X48602Y-49778D01*
X48600Y-49796D01*
X48600Y-49799D01*
X48600Y-49800D01*
X48600Y-51176D01*
X48476Y-51300D01*
X47776Y-51300D01*
X47881Y-51231D01*
X47973Y-51139D01*
X48046Y-51031D01*
X48096Y-50911D01*
X48123Y-50784D01*
X48123Y-50654D01*
X48099Y-50526D01*
X48050Y-50405D01*
X47979Y-50296D01*
X47888Y-50203D01*
X47781Y-50129D01*
X47661Y-50078D01*
X47533Y-50051D01*
X47403Y-50049D01*
X47101Y-50049D01*
X47101Y-48278D01*
X47132Y-48278D01*
X47165Y-48271D01*
X47197Y-48258D01*
X47225Y-48240D01*
X47250Y-48215D01*
X47269Y-48187D01*
X47282Y-48156D01*
X47289Y-48122D01*
X47289Y-48088D01*
X47289Y-47686D01*
X49210Y-45765D01*
X49212Y-45764D01*
X49226Y-45745D01*
X49248Y-45720D01*
X49248Y-45718D01*
X49276Y-45669D01*
X49276Y-45667D01*
X49286Y-45633D01*
X49293Y-45613D01*
X49294Y-45611D01*
X49295Y-45589D01*
X49300Y-45555D01*
X49300Y-45551D01*
X49300Y-36200D01*
X49294Y-36143D01*
X49294Y-36142D01*
X49287Y-36119D01*
X49278Y-36088D01*
X49277Y-36086D01*
X49250Y-36034D01*
X49217Y-35994D01*
X49214Y-35990D01*
X49213Y-35989D01*
X49211Y-35987D01*
X48164Y-34940D01*
X48162Y-34938D01*
X48148Y-34926D01*
X48119Y-34902D01*
X48117Y-34901D01*
X48068Y-34874D01*
X48014Y-34857D01*
X48012Y-34857D01*
X48009Y-34856D01*
X47972Y-34852D01*
X47954Y-34850D01*
X47951Y-34850D01*
X47950Y-34850D01*
X46323Y-34850D01*
X46265Y-34856D01*
X46258Y-34858D01*
X45873Y-34858D01*
X45840Y-34865D01*
X45808Y-34878D01*
X45780Y-34896D01*
X45755Y-34921D01*
X45736Y-34949D01*
X45723Y-34980D01*
X45716Y-35014D01*
X45716Y-35048D01*
X45716Y-35285D01*
X45723Y-35318D01*
X45736Y-35350D01*
X45754Y-35378D01*
X45776Y-35400D01*
X45755Y-35421D01*
X45736Y-35449D01*
X45723Y-35480D01*
X45719Y-35495D01*
X45164Y-34940D01*
X45162Y-34938D01*
X45148Y-34926D01*
X45119Y-34902D01*
X45117Y-34901D01*
X45068Y-34874D01*
X45014Y-34857D01*
X45012Y-34857D01*
X45009Y-34856D01*
X44972Y-34852D01*
X44954Y-34850D01*
X44951Y-34850D01*
X44950Y-34850D01*
X44277Y-34850D01*
X44219Y-34856D01*
X44212Y-34858D01*
X43827Y-34858D01*
X43794Y-34865D01*
X43762Y-34878D01*
X43734Y-34896D01*
X43709Y-34921D01*
X43690Y-34949D01*
X43677Y-34980D01*
X43670Y-35014D01*
X43670Y-35048D01*
X43670Y-35285D01*
X43677Y-35318D01*
X43690Y-35350D01*
X43374Y-35350D01*
X43300Y-35275D01*
X43300Y-34824D01*
X43424Y-34700D01*
X51096Y-34700D01*
X51100Y-34700D01*
X53176Y-34700D01*
X54605Y-36129D01*
X54605Y-36133D01*
X54620Y-36209D01*
X54648Y-36281D01*
X54690Y-36346D01*
X54744Y-36402D01*
X54807Y-36446D01*
X54878Y-36477D01*
X54953Y-36493D01*
X55031Y-36495D01*
X55107Y-36481D01*
X55179Y-36453D01*
X55244Y-36412D01*
X55300Y-36358D01*
X55344Y-36295D01*
X55376Y-36225D01*
X55393Y-36149D01*
X55394Y-36061D01*
X55379Y-35985D01*
X55349Y-35914D01*
X55307Y-35849D01*
X55252Y-35795D01*
X55188Y-35752D01*
X55117Y-35722D01*
X55041Y-35706D01*
X55030Y-35706D01*
X53524Y-34200D01*
X64897Y-34200D01*
X64900Y-34200D01*
X64913Y-34198D01*
X64956Y-34195D01*
X64958Y-34194D01*
X65012Y-34179D01*
X65014Y-34177D01*
X65044Y-34161D01*
X65063Y-34151D01*
X65066Y-34150D01*
X65100Y-34122D01*
X65109Y-34115D01*
X65111Y-34113D01*
X65112Y-34112D01*
X65560Y-33664D01*
X65562Y-33662D01*
X65573Y-33648D01*
X65598Y-33619D01*
X65599Y-33617D01*
X65626Y-33568D01*
X65626Y-33566D01*
X65636Y-33532D01*
X65643Y-33512D01*
X65644Y-33510D01*
X65648Y-33466D01*
X65650Y-33454D01*
X65650Y-33452D01*
X65650Y-33450D01*
X65650Y-32400D01*
X65828Y-32400D01*
X65891Y-32464D01*
X65968Y-32517D01*
X66053Y-32554D01*
X66144Y-32574D01*
X66237Y-32576D01*
X66329Y-32560D01*
X66416Y-32526D01*
X66494Y-32476D01*
X66562Y-32412D01*
X66615Y-32335D01*
X66653Y-32250D01*
X66674Y-32159D01*
X66675Y-32053D01*
X66675Y-37053D01*
X66657Y-36962D01*
X66621Y-36876D01*
X66570Y-36798D01*
X66504Y-36732D01*
X66427Y-36680D01*
X66341Y-36644D01*
X66249Y-36625D01*
X66156Y-36625D01*
X66065Y-36642D01*
X65978Y-36677D01*
X65901Y-36728D01*
X65834Y-36794D01*
X65782Y-36870D01*
X65745Y-36956D01*
X65726Y-37047D01*
X65724Y-37140D01*
X65741Y-37232D01*
X65776Y-37319D01*
X65826Y-37397D01*
X65891Y-37464D01*
X65968Y-37517D01*
X66053Y-37554D01*
X66144Y-37574D01*
X66237Y-37576D01*
X66329Y-37560D01*
X66416Y-37526D01*
X66494Y-37476D01*
X66562Y-37412D01*
X66615Y-37335D01*
X66653Y-37250D01*
X66674Y-37159D01*
X66675Y-37053D01*
X66675Y-52287D01*
X65543Y-52287D01*
X65543Y-47690D01*
X65461Y-47278D01*
X65301Y-46889D01*
X65069Y-46539D01*
X64773Y-46241D01*
X64424Y-46006D01*
X64037Y-45843D01*
X63625Y-45759D01*
X63205Y-45756D01*
X62792Y-45834D01*
X62403Y-45992D01*
X62051Y-46222D01*
X61751Y-46516D01*
X61513Y-46863D01*
X61348Y-47249D01*
X61260Y-47660D01*
X61254Y-48080D01*
X61330Y-48493D01*
X61485Y-48884D01*
X61712Y-49237D01*
X62004Y-49540D01*
X62349Y-49780D01*
X62734Y-49948D01*
X63145Y-50038D01*
X63565Y-50047D01*
X63979Y-49974D01*
X64371Y-49822D01*
X64726Y-49597D01*
X65030Y-49307D01*
X65272Y-48964D01*
X65443Y-48580D01*
X65536Y-48170D01*
X65543Y-47690D01*
X65543Y-52287D01*
X58222Y-52287D01*
X58222Y-45156D01*
X58205Y-45069D01*
X58171Y-44988D01*
X58122Y-44914D01*
X58060Y-44852D01*
X57987Y-44802D01*
X57976Y-44797D01*
X58007Y-44754D01*
X58043Y-44674D01*
X58063Y-44588D01*
X58064Y-44487D01*
X58047Y-44400D01*
X58013Y-44319D01*
X57964Y-44245D01*
X57902Y-44183D01*
X57829Y-44133D01*
X57748Y-44099D01*
X57687Y-44086D01*
X57689Y-44083D01*
X57709Y-43997D01*
X57710Y-43896D01*
X57693Y-43809D01*
X57659Y-43728D01*
X57610Y-43654D01*
X57548Y-43592D01*
X57475Y-43542D01*
X57394Y-43508D01*
X57307Y-43490D01*
X57219Y-43490D01*
X57132Y-43506D01*
X57113Y-43513D01*
X57102Y-43455D01*
X57068Y-43374D01*
X57019Y-43300D01*
X56957Y-43238D01*
X56884Y-43188D01*
X56803Y-43154D01*
X56716Y-43136D01*
X56628Y-43136D01*
X56541Y-43152D01*
X56460Y-43185D01*
X56402Y-43223D01*
X56399Y-43216D01*
X56350Y-43142D01*
X56288Y-43080D01*
X56215Y-43030D01*
X56134Y-42996D01*
X56047Y-42978D01*
X55959Y-42978D01*
X55872Y-42994D01*
X55791Y-43027D01*
X55717Y-43076D01*
X55654Y-43137D01*
X55604Y-43210D01*
X55598Y-43223D01*
X55546Y-43188D01*
X55465Y-43154D01*
X55378Y-43136D01*
X55290Y-43136D01*
X55203Y-43152D01*
X55122Y-43185D01*
X55048Y-43234D01*
X54985Y-43295D01*
X54935Y-43368D01*
X54900Y-43449D01*
X54886Y-43513D01*
X54874Y-43508D01*
X54787Y-43490D01*
X54699Y-43490D01*
X54612Y-43506D01*
X54531Y-43539D01*
X54457Y-43588D01*
X54394Y-43649D01*
X54344Y-43722D01*
X54309Y-43803D01*
X54291Y-43889D01*
X54289Y-43978D01*
X54305Y-44065D01*
X54313Y-44086D01*
X54258Y-44097D01*
X54177Y-44130D01*
X54103Y-44179D01*
X54040Y-44240D01*
X53990Y-44313D01*
X53955Y-44394D01*
X53937Y-44480D01*
X53935Y-44569D01*
X53951Y-44656D01*
X53984Y-44738D01*
X54022Y-44797D01*
X54019Y-44799D01*
X53945Y-44848D01*
X53882Y-44909D01*
X53832Y-44982D01*
X53797Y-45063D01*
X53779Y-45149D01*
X53777Y-45238D01*
X53793Y-45325D01*
X53826Y-45407D01*
X53874Y-45481D01*
X53935Y-45544D01*
X54007Y-45595D01*
X54023Y-45602D01*
X53990Y-45651D01*
X53955Y-45732D01*
X53937Y-45818D01*
X53935Y-45907D01*
X53951Y-45994D01*
X53984Y-46076D01*
X54032Y-46150D01*
X54093Y-46213D01*
X54165Y-46264D01*
X54246Y-46299D01*
X54312Y-46313D01*
X54309Y-46323D01*
X54291Y-46409D01*
X54289Y-46498D01*
X54305Y-46585D01*
X54338Y-46667D01*
X54386Y-46741D01*
X54447Y-46804D01*
X54519Y-46855D01*
X54600Y-46890D01*
X54686Y-46909D01*
X54775Y-46911D01*
X54861Y-46896D01*
X54886Y-46886D01*
X54896Y-46939D01*
X54929Y-47021D01*
X54977Y-47095D01*
X55038Y-47158D01*
X55110Y-47209D01*
X55191Y-47244D01*
X55277Y-47263D01*
X55366Y-47265D01*
X55452Y-47250D01*
X55535Y-47218D01*
X55597Y-47177D01*
X55598Y-47179D01*
X55646Y-47253D01*
X55707Y-47316D01*
X55779Y-47367D01*
X55860Y-47402D01*
X55946Y-47421D01*
X56035Y-47423D01*
X56121Y-47408D01*
X56204Y-47376D01*
X56278Y-47328D01*
X56342Y-47268D01*
X56393Y-47195D01*
X56401Y-47176D01*
X56448Y-47209D01*
X56529Y-47244D01*
X56615Y-47263D01*
X56704Y-47265D01*
X56790Y-47250D01*
X56873Y-47218D01*
X56947Y-47170D01*
X57011Y-47110D01*
X57062Y-47037D01*
X57098Y-46957D01*
X57114Y-46887D01*
X57120Y-46890D01*
X57206Y-46909D01*
X57295Y-46911D01*
X57381Y-46896D01*
X57464Y-46864D01*
X57538Y-46816D01*
X57602Y-46756D01*
X57653Y-46683D01*
X57689Y-46603D01*
X57709Y-46517D01*
X57710Y-46416D01*
X57693Y-46329D01*
X57686Y-46313D01*
X57735Y-46305D01*
X57818Y-46273D01*
X57892Y-46225D01*
X57956Y-46165D01*
X58007Y-46092D01*
X58043Y-46012D01*
X58063Y-45926D01*
X58064Y-45825D01*
X58047Y-45738D01*
X58013Y-45657D01*
X57977Y-45603D01*
X58050Y-45556D01*
X58114Y-45496D01*
X58165Y-45423D01*
X58201Y-45343D01*
X58221Y-45257D01*
X58222Y-45156D01*
X58222Y-52287D01*
X44107Y-52287D01*
X44107Y-50784D01*
X44107Y-50654D01*
X44083Y-50526D01*
X44034Y-50405D01*
X43963Y-50296D01*
X43872Y-50203D01*
X43765Y-50129D01*
X43645Y-50078D01*
X43517Y-50051D01*
X43387Y-50049D01*
X43001Y-50049D01*
X41992Y-49040D01*
X41990Y-49038D01*
X41976Y-49026D01*
X41947Y-49002D01*
X41945Y-49001D01*
X41896Y-48974D01*
X41842Y-48957D01*
X41840Y-48957D01*
X41837Y-48956D01*
X41800Y-48952D01*
X41782Y-48950D01*
X41779Y-48950D01*
X41778Y-48950D01*
X41093Y-48950D01*
X41093Y-40836D01*
X41049Y-40613D01*
X40962Y-40403D01*
X40836Y-40214D01*
X40676Y-40053D01*
X40488Y-39926D01*
X40279Y-39838D01*
X40056Y-39793D01*
X39829Y-39791D01*
X39606Y-39834D01*
X39396Y-39919D01*
X39206Y-40043D01*
X39043Y-40202D01*
X38915Y-40390D01*
X38826Y-40599D01*
X38779Y-40821D01*
X38776Y-41048D01*
X38817Y-41271D01*
X38900Y-41482D01*
X39023Y-41673D01*
X39181Y-41836D01*
X39368Y-41966D01*
X39576Y-42057D01*
X39798Y-42105D01*
X40025Y-42110D01*
X40248Y-42071D01*
X40460Y-41988D01*
X40652Y-41867D01*
X40816Y-41710D01*
X40947Y-41524D01*
X41039Y-41317D01*
X41089Y-41095D01*
X41093Y-40836D01*
X41093Y-48950D01*
X40024Y-48950D01*
X39050Y-47976D01*
X39050Y-46796D01*
X39990Y-46796D01*
X40048Y-46856D01*
X40124Y-46908D01*
X40208Y-46945D01*
X40298Y-46965D01*
X40390Y-46967D01*
X40481Y-46951D01*
X40567Y-46918D01*
X40645Y-46868D01*
X40711Y-46805D01*
X40765Y-46729D01*
X40802Y-46645D01*
X40823Y-46555D01*
X40824Y-46450D01*
X40824Y-45450D01*
X40806Y-45360D01*
X40771Y-45274D01*
X40720Y-45198D01*
X40655Y-45132D01*
X40579Y-45081D01*
X40494Y-45045D01*
X40403Y-45026D01*
X40311Y-45026D01*
X40221Y-45043D01*
X40135Y-45077D01*
X40058Y-45128D01*
X39992Y-45192D01*
X39940Y-45268D01*
X39904Y-45353D01*
X39885Y-45443D01*
X39883Y-45535D01*
X39900Y-45626D01*
X39934Y-45712D01*
X39984Y-45789D01*
X40048Y-45856D01*
X40124Y-45908D01*
X40208Y-45945D01*
X40298Y-45965D01*
X40390Y-45967D01*
X40481Y-45951D01*
X40567Y-45918D01*
X40645Y-45868D01*
X40711Y-45805D01*
X40765Y-45729D01*
X40802Y-45645D01*
X40823Y-45555D01*
X40824Y-45450D01*
X40824Y-46450D01*
X40806Y-46360D01*
X40771Y-46274D01*
X40720Y-46198D01*
X40655Y-46132D01*
X40579Y-46081D01*
X40494Y-46045D01*
X40403Y-46026D01*
X40311Y-46026D01*
X40221Y-46043D01*
X40135Y-46077D01*
X40058Y-46128D01*
X39992Y-46192D01*
X39989Y-46196D01*
X38807Y-46196D01*
X38804Y-46196D01*
X38790Y-46197D01*
X38748Y-46201D01*
X38692Y-46218D01*
X38690Y-46218D01*
X38690Y-46219D01*
X38638Y-46246D01*
X38623Y-46257D01*
X38594Y-46281D01*
X38592Y-46284D01*
X38540Y-46336D01*
X38538Y-46338D01*
X38526Y-46352D01*
X38502Y-46381D01*
X38474Y-46432D01*
X38457Y-46486D01*
X38456Y-46491D01*
X38452Y-46528D01*
X38450Y-46546D01*
X38450Y-46549D01*
X38450Y-46550D01*
X38450Y-48097D01*
X38450Y-48100D01*
X38451Y-48113D01*
X38455Y-48156D01*
X38471Y-48212D01*
X38488Y-48244D01*
X38500Y-48266D01*
X38527Y-48300D01*
X38535Y-48309D01*
X38537Y-48311D01*
X38538Y-48312D01*
X39686Y-49460D01*
X39688Y-49462D01*
X39702Y-49473D01*
X39731Y-49498D01*
X39733Y-49499D01*
X39782Y-49526D01*
X39784Y-49526D01*
X39818Y-49536D01*
X39838Y-49543D01*
X39840Y-49544D01*
X39884Y-49548D01*
X39896Y-49550D01*
X39898Y-49550D01*
X39900Y-49550D01*
X41654Y-49550D01*
X42472Y-50368D01*
X42454Y-50397D01*
X42404Y-50517D01*
X42377Y-50644D01*
X42377Y-50774D01*
X42401Y-50902D01*
X42450Y-51023D01*
X42521Y-51132D01*
X42612Y-51225D01*
X42719Y-51299D01*
X42839Y-51350D01*
X42967Y-51377D01*
X43097Y-51379D01*
X43508Y-51378D01*
X43636Y-51353D01*
X43756Y-51303D01*
X43865Y-51231D01*
X43957Y-51139D01*
X44030Y-51031D01*
X44080Y-50911D01*
X44107Y-50784D01*
X44107Y-52287D01*
X38799Y-52287D01*
X38615Y-52269D01*
X38441Y-52216D01*
X38281Y-52130D01*
X38141Y-52016D01*
X38027Y-51876D01*
X37941Y-51716D01*
X37888Y-51542D01*
X37870Y-51358D01*
X37870Y-14784D01*
X37888Y-14600D01*
X37941Y-14426D01*
X38027Y-14266D01*
X38141Y-14126D01*
X38281Y-14012D01*
X38441Y-13926D01*
X38615Y-13873D01*
X38799Y-13855D01*
X75374Y-13855D01*
X75558Y-13873D01*
X75732Y-13926D01*
X75892Y-14012D01*
X76032Y-14126D01*
X76146Y-14266D01*
X76232Y-14426D01*
X76285Y-14600D01*
X76303Y-14784D01*
X76303Y-51358D01*
X76303Y-51358D01*
G37*
G54D35*
X76303Y-51358D02*
X76285Y-51542D01*
X76232Y-51716D01*
X76146Y-51876D01*
X76032Y-52016D01*
X75892Y-52130D01*
X75732Y-52216D01*
X75643Y-52243D01*
X75643Y-44290D01*
X75643Y-37290D01*
X75561Y-36878D01*
X75401Y-36489D01*
X75169Y-36139D01*
X74873Y-35841D01*
X74786Y-35782D01*
X74786Y-24927D01*
X74712Y-24552D01*
X74566Y-24198D01*
X74354Y-23879D01*
X74085Y-23608D01*
X73768Y-23394D01*
X73415Y-23245D01*
X73040Y-23168D01*
X72658Y-23166D01*
X72282Y-23237D01*
X71927Y-23381D01*
X71607Y-23590D01*
X71333Y-23858D01*
X71117Y-24173D01*
X70967Y-24525D01*
X70887Y-24899D01*
X70882Y-25282D01*
X70951Y-25658D01*
X71091Y-26014D01*
X71299Y-26335D01*
X71564Y-26611D01*
X71878Y-26829D01*
X72229Y-26982D01*
X72603Y-27065D01*
X72985Y-27073D01*
X73362Y-27006D01*
X73719Y-26868D01*
X74042Y-26663D01*
X74319Y-26399D01*
X74539Y-26087D01*
X74695Y-25737D01*
X74780Y-25364D01*
X74786Y-24927D01*
X74786Y-35782D01*
X74524Y-35606D01*
X74137Y-35443D01*
X73725Y-35359D01*
X73305Y-35356D01*
X72892Y-35434D01*
X72503Y-35592D01*
X72151Y-35822D01*
X71851Y-36116D01*
X71613Y-36463D01*
X71448Y-36849D01*
X71360Y-37260D01*
X71354Y-37680D01*
X71430Y-38093D01*
X71585Y-38484D01*
X71812Y-38837D01*
X72104Y-39140D01*
X72449Y-39380D01*
X72834Y-39548D01*
X73245Y-39638D01*
X73665Y-39647D01*
X74079Y-39574D01*
X74471Y-39422D01*
X74826Y-39197D01*
X75130Y-38907D01*
X75372Y-38564D01*
X75543Y-38180D01*
X75636Y-37770D01*
X75643Y-37290D01*
X75643Y-44290D01*
X75561Y-43878D01*
X75401Y-43489D01*
X75169Y-43139D01*
X74873Y-42841D01*
X74524Y-42606D01*
X74137Y-42443D01*
X73725Y-42359D01*
X73305Y-42356D01*
X72892Y-42434D01*
X72503Y-42592D01*
X72151Y-42822D01*
X71851Y-43116D01*
X71613Y-43463D01*
X71448Y-43849D01*
X71360Y-44260D01*
X71354Y-44680D01*
X71430Y-45093D01*
X71585Y-45484D01*
X71812Y-45837D01*
X72104Y-46140D01*
X72449Y-46380D01*
X72834Y-46548D01*
X73245Y-46638D01*
X73665Y-46647D01*
X74079Y-46574D01*
X74471Y-46422D01*
X74826Y-46197D01*
X75130Y-45907D01*
X75372Y-45564D01*
X75543Y-45180D01*
X75636Y-44770D01*
X75643Y-44290D01*
X75643Y-52243D01*
X75558Y-52269D01*
X75374Y-52287D01*
X68175Y-52287D01*
X68175Y-37053D01*
X68175Y-32053D01*
X68157Y-31962D01*
X68121Y-31876D01*
X68070Y-31798D01*
X68004Y-31732D01*
X67927Y-31680D01*
X67841Y-31644D01*
X67749Y-31625D01*
X67656Y-31625D01*
X67565Y-31642D01*
X67478Y-31677D01*
X67401Y-31728D01*
X67334Y-31794D01*
X67282Y-31870D01*
X67245Y-31956D01*
X67226Y-32047D01*
X67224Y-32140D01*
X67241Y-32232D01*
X67276Y-32319D01*
X67326Y-32397D01*
X67391Y-32464D01*
X67468Y-32517D01*
X67553Y-32554D01*
X67644Y-32574D01*
X67737Y-32576D01*
X67829Y-32560D01*
X67916Y-32526D01*
X67994Y-32476D01*
X68062Y-32412D01*
X68115Y-32335D01*
X68153Y-32250D01*
X68174Y-32159D01*
X68175Y-32053D01*
X68175Y-37053D01*
X68157Y-36962D01*
X68121Y-36876D01*
X68070Y-36798D01*
X68004Y-36732D01*
X67927Y-36680D01*
X67841Y-36644D01*
X67749Y-36625D01*
X67656Y-36625D01*
X67565Y-36642D01*
X67478Y-36677D01*
X67401Y-36728D01*
X67334Y-36794D01*
X67282Y-36870D01*
X67245Y-36956D01*
X67226Y-37047D01*
X67224Y-37140D01*
X67241Y-37232D01*
X67276Y-37319D01*
X67326Y-37397D01*
X67391Y-37464D01*
X67468Y-37517D01*
X67553Y-37554D01*
X67644Y-37574D01*
X67737Y-37576D01*
X67829Y-37560D01*
X67916Y-37526D01*
X67994Y-37476D01*
X68062Y-37412D01*
X68115Y-37335D01*
X68153Y-37250D01*
X68174Y-37159D01*
X68175Y-37053D01*
X68175Y-52287D01*
X66675Y-52287D01*
X66675Y-37053D01*
X66675Y-32053D01*
X66657Y-31962D01*
X66621Y-31876D01*
X66570Y-31798D01*
X66504Y-31732D01*
X66427Y-31680D01*
X66341Y-31644D01*
X66249Y-31625D01*
X66156Y-31625D01*
X66065Y-31642D01*
X65978Y-31677D01*
X65901Y-31728D01*
X65834Y-31794D01*
X65829Y-31800D01*
X65352Y-31800D01*
X65350Y-31800D01*
X65340Y-31801D01*
X65294Y-31805D01*
X65238Y-31822D01*
X65236Y-31822D01*
X65236Y-31823D01*
X65184Y-31850D01*
X65149Y-31878D01*
X65140Y-31886D01*
X65139Y-31886D01*
X65139Y-31887D01*
X65101Y-31932D01*
X65078Y-31974D01*
X65074Y-31982D01*
X65073Y-31982D01*
X65073Y-31984D01*
X65056Y-32040D01*
X65051Y-32084D01*
X65050Y-32096D01*
X65050Y-32098D01*
X65050Y-32100D01*
X65050Y-33326D01*
X64875Y-33501D01*
X64875Y-32053D01*
X64857Y-31962D01*
X64821Y-31876D01*
X64770Y-31798D01*
X64704Y-31732D01*
X64627Y-31680D01*
X64541Y-31644D01*
X64449Y-31625D01*
X64356Y-31625D01*
X64265Y-31642D01*
X64178Y-31677D01*
X64101Y-31728D01*
X64034Y-31794D01*
X63982Y-31870D01*
X63945Y-31956D01*
X63926Y-32047D01*
X63924Y-32140D01*
X63941Y-32232D01*
X63976Y-32319D01*
X64026Y-32397D01*
X64091Y-32464D01*
X64168Y-32517D01*
X64253Y-32554D01*
X64344Y-32574D01*
X64437Y-32576D01*
X64529Y-32560D01*
X64616Y-32526D01*
X64694Y-32476D01*
X64762Y-32412D01*
X64815Y-32335D01*
X64853Y-32250D01*
X64874Y-32159D01*
X64875Y-32053D01*
X64875Y-33501D01*
X64776Y-33600D01*
X63375Y-33600D01*
X63375Y-32053D01*
X63357Y-31962D01*
X63321Y-31876D01*
X63270Y-31798D01*
X63204Y-31732D01*
X63127Y-31680D01*
X63041Y-31644D01*
X62949Y-31625D01*
X62856Y-31625D01*
X62765Y-31642D01*
X62678Y-31677D01*
X62601Y-31728D01*
X62534Y-31794D01*
X62482Y-31870D01*
X62445Y-31956D01*
X62426Y-32047D01*
X62424Y-32140D01*
X62441Y-32232D01*
X62476Y-32319D01*
X62526Y-32397D01*
X62591Y-32464D01*
X62668Y-32517D01*
X62753Y-32554D01*
X62844Y-32574D01*
X62937Y-32576D01*
X63029Y-32560D01*
X63116Y-32526D01*
X63194Y-32476D01*
X63262Y-32412D01*
X63315Y-32335D01*
X63353Y-32250D01*
X63374Y-32159D01*
X63375Y-32053D01*
X63375Y-33600D01*
X47793Y-33600D01*
X47815Y-33579D01*
X47855Y-33523D01*
X47883Y-33461D01*
X47898Y-33394D01*
X47899Y-33316D01*
X47886Y-33249D01*
X47860Y-33186D01*
X47822Y-33129D01*
X47774Y-33080D01*
X47717Y-33042D01*
X47654Y-33015D01*
X47587Y-33001D01*
X47518Y-33001D01*
X47451Y-33014D01*
X47388Y-33039D01*
X47371Y-33050D01*
X46724Y-33050D01*
X46100Y-32426D01*
X46103Y-32413D01*
X46103Y-32400D01*
X46397Y-32400D01*
X46400Y-32400D01*
X46413Y-32398D01*
X46456Y-32395D01*
X46458Y-32394D01*
X46512Y-32379D01*
X46514Y-32377D01*
X46544Y-32361D01*
X46563Y-32351D01*
X46566Y-32350D01*
X46600Y-32322D01*
X46609Y-32315D01*
X46611Y-32313D01*
X46612Y-32312D01*
X50423Y-28501D01*
X50425Y-28499D01*
X50436Y-28485D01*
X50461Y-28456D01*
X50462Y-28454D01*
X50489Y-28405D01*
X50489Y-28403D01*
X50499Y-28369D01*
X50506Y-28349D01*
X50507Y-28347D01*
X50511Y-28303D01*
X50513Y-28291D01*
X50513Y-28289D01*
X50513Y-28287D01*
X50513Y-28083D01*
X50580Y-28083D01*
X50613Y-28076D01*
X50645Y-28063D01*
X50673Y-28045D01*
X50698Y-28020D01*
X50717Y-27992D01*
X50730Y-27961D01*
X50731Y-27955D01*
X51000Y-28224D01*
X51000Y-28597D01*
X51000Y-28600D01*
X51001Y-28613D01*
X51005Y-28656D01*
X51021Y-28712D01*
X51038Y-28744D01*
X51050Y-28766D01*
X51077Y-28800D01*
X51085Y-28809D01*
X51087Y-28811D01*
X51088Y-28812D01*
X51186Y-28910D01*
X51188Y-28912D01*
X51202Y-28923D01*
X51231Y-28948D01*
X51233Y-28949D01*
X51282Y-28976D01*
X51284Y-28976D01*
X51318Y-28986D01*
X51338Y-28993D01*
X51340Y-28994D01*
X51384Y-28998D01*
X51396Y-29000D01*
X51398Y-29000D01*
X51400Y-29000D01*
X62497Y-29000D01*
X62500Y-29000D01*
X62513Y-28998D01*
X62556Y-28995D01*
X62558Y-28994D01*
X62612Y-28979D01*
X62614Y-28977D01*
X62644Y-28961D01*
X62663Y-28951D01*
X62666Y-28950D01*
X62700Y-28922D01*
X62709Y-28915D01*
X62711Y-28913D01*
X62712Y-28912D01*
X63110Y-28514D01*
X63112Y-28513D01*
X63126Y-28494D01*
X63148Y-28469D01*
X63148Y-28467D01*
X63176Y-28418D01*
X63176Y-28416D01*
X63186Y-28382D01*
X63193Y-28362D01*
X63194Y-28360D01*
X63195Y-28338D01*
X63200Y-28304D01*
X63200Y-28300D01*
X63200Y-27224D01*
X63224Y-27200D01*
X63578Y-27200D01*
X63558Y-27220D01*
X63500Y-27305D01*
X63459Y-27399D01*
X63438Y-27500D01*
X63436Y-27603D01*
X63455Y-27704D01*
X63493Y-27799D01*
X63548Y-27886D01*
X63619Y-27960D01*
X63704Y-28018D01*
X63798Y-28060D01*
X63898Y-28082D01*
X64001Y-28084D01*
X64102Y-28066D01*
X64198Y-28029D01*
X64285Y-27974D01*
X64359Y-27903D01*
X64419Y-27819D01*
X64460Y-27726D01*
X64461Y-27719D01*
X64493Y-27799D01*
X64548Y-27886D01*
X64619Y-27960D01*
X64704Y-28018D01*
X64798Y-28060D01*
X64898Y-28082D01*
X65001Y-28084D01*
X65102Y-28066D01*
X65198Y-28029D01*
X65285Y-27974D01*
X65359Y-27903D01*
X65419Y-27819D01*
X65437Y-27778D01*
X65437Y-27926D01*
X65444Y-27959D01*
X65457Y-27991D01*
X65475Y-28019D01*
X65500Y-28044D01*
X65528Y-28063D01*
X65559Y-28076D01*
X65593Y-28083D01*
X65627Y-28083D01*
X66328Y-28083D01*
X66361Y-28076D01*
X66393Y-28063D01*
X66421Y-28045D01*
X66446Y-28020D01*
X66465Y-27992D01*
X66478Y-27961D01*
X66485Y-27927D01*
X66485Y-27893D01*
X66485Y-27192D01*
X66478Y-27159D01*
X66465Y-27127D01*
X66447Y-27099D01*
X66422Y-27074D01*
X66394Y-27055D01*
X66363Y-27042D01*
X66329Y-27035D01*
X66295Y-27035D01*
X66291Y-27035D01*
X66284Y-27010D01*
X66278Y-26988D01*
X66277Y-26986D01*
X66250Y-26934D01*
X66217Y-26894D01*
X66214Y-26890D01*
X66213Y-26889D01*
X66212Y-26887D01*
X66014Y-26690D01*
X66012Y-26688D01*
X65998Y-26676D01*
X65969Y-26652D01*
X65967Y-26651D01*
X65918Y-26624D01*
X65864Y-26607D01*
X65862Y-26607D01*
X65859Y-26606D01*
X65822Y-26602D01*
X65804Y-26600D01*
X65801Y-26600D01*
X65800Y-26600D01*
X63100Y-26600D01*
X63042Y-26606D01*
X63010Y-26615D01*
X62988Y-26622D01*
X62986Y-26622D01*
X62986Y-26623D01*
X62934Y-26650D01*
X62894Y-26682D01*
X62890Y-26686D01*
X62887Y-26688D01*
X62688Y-26888D01*
X62676Y-26902D01*
X62652Y-26931D01*
X62624Y-26982D01*
X62607Y-27036D01*
X62606Y-27041D01*
X62602Y-27078D01*
X62600Y-27096D01*
X62600Y-27099D01*
X62600Y-27100D01*
X62600Y-28175D01*
X62375Y-28400D01*
X59038Y-28400D01*
X59038Y-24927D01*
X58964Y-24552D01*
X58818Y-24198D01*
X58606Y-23879D01*
X58337Y-23608D01*
X58020Y-23394D01*
X57667Y-23245D01*
X57292Y-23168D01*
X56910Y-23166D01*
X56534Y-23237D01*
X56179Y-23381D01*
X55859Y-23590D01*
X55585Y-23858D01*
X55369Y-24173D01*
X55219Y-24525D01*
X55139Y-24899D01*
X55134Y-25282D01*
X55203Y-25658D01*
X55343Y-26014D01*
X55551Y-26335D01*
X55816Y-26611D01*
X56130Y-26829D01*
X56481Y-26982D01*
X56855Y-27065D01*
X57237Y-27073D01*
X57614Y-27006D01*
X57971Y-26868D01*
X58294Y-26663D01*
X58571Y-26399D01*
X58791Y-26087D01*
X58947Y-25737D01*
X59032Y-25364D01*
X59038Y-24927D01*
X59038Y-28400D01*
X51600Y-28400D01*
X51600Y-28103D01*
X51600Y-28100D01*
X51598Y-28086D01*
X51595Y-28044D01*
X51594Y-28042D01*
X51579Y-27988D01*
X51577Y-27986D01*
X51561Y-27955D01*
X51551Y-27937D01*
X51550Y-27934D01*
X51522Y-27899D01*
X51515Y-27891D01*
X51513Y-27889D01*
X51512Y-27888D01*
X50973Y-27349D01*
X50971Y-27347D01*
X50957Y-27335D01*
X50928Y-27311D01*
X50926Y-27310D01*
X50877Y-27283D01*
X50823Y-27266D01*
X50821Y-27266D01*
X50818Y-27265D01*
X50781Y-27261D01*
X50763Y-27259D01*
X50760Y-27259D01*
X50759Y-27259D01*
X50737Y-27259D01*
X50737Y-27192D01*
X50730Y-27159D01*
X50717Y-27127D01*
X50699Y-27099D01*
X50674Y-27074D01*
X50646Y-27055D01*
X50615Y-27042D01*
X50581Y-27035D01*
X50547Y-27035D01*
X49846Y-27035D01*
X49813Y-27042D01*
X49781Y-27055D01*
X49753Y-27073D01*
X49728Y-27098D01*
X49709Y-27126D01*
X49696Y-27157D01*
X49689Y-27191D01*
X49689Y-27225D01*
X49689Y-27338D01*
X49678Y-27312D01*
X49621Y-27227D01*
X49549Y-27154D01*
X49464Y-27096D01*
X49369Y-27056D01*
X49268Y-27035D01*
X49166Y-27035D01*
X49065Y-27054D01*
X48969Y-27092D01*
X48883Y-27148D01*
X48810Y-27220D01*
X48752Y-27305D01*
X48712Y-27395D01*
X48678Y-27312D01*
X48621Y-27227D01*
X48549Y-27154D01*
X48464Y-27096D01*
X48369Y-27056D01*
X48268Y-27035D01*
X48166Y-27035D01*
X48065Y-27054D01*
X47969Y-27092D01*
X47883Y-27148D01*
X47810Y-27220D01*
X47752Y-27305D01*
X47711Y-27399D01*
X47690Y-27500D01*
X47688Y-27603D01*
X47707Y-27704D01*
X47745Y-27799D01*
X47800Y-27886D01*
X47871Y-27960D01*
X47956Y-28018D01*
X48050Y-28060D01*
X48150Y-28082D01*
X48253Y-28084D01*
X48354Y-28066D01*
X48450Y-28029D01*
X48537Y-27974D01*
X48611Y-27903D01*
X48671Y-27819D01*
X48712Y-27726D01*
X48713Y-27719D01*
X48745Y-27799D01*
X48800Y-27886D01*
X48871Y-27960D01*
X48956Y-28018D01*
X49050Y-28060D01*
X49150Y-28082D01*
X49253Y-28084D01*
X49354Y-28066D01*
X49450Y-28029D01*
X49537Y-27974D01*
X49611Y-27903D01*
X49671Y-27819D01*
X49689Y-27778D01*
X49689Y-27926D01*
X49696Y-27959D01*
X49709Y-27991D01*
X49727Y-28019D01*
X49752Y-28044D01*
X49780Y-28063D01*
X49811Y-28076D01*
X49845Y-28083D01*
X49879Y-28083D01*
X49913Y-28083D01*
X49913Y-28163D01*
X46276Y-31800D01*
X46103Y-31800D01*
X46103Y-31788D01*
X46096Y-31755D01*
X46083Y-31723D01*
X46065Y-31695D01*
X46040Y-31670D01*
X46012Y-31651D01*
X45981Y-31638D01*
X45947Y-31631D01*
X45913Y-31631D01*
X45402Y-31631D01*
X45369Y-31638D01*
X45337Y-31651D01*
X45309Y-31669D01*
X45284Y-31694D01*
X45265Y-31722D01*
X45252Y-31753D01*
X45245Y-31787D01*
X45245Y-31821D01*
X45245Y-32412D01*
X45252Y-32445D01*
X45265Y-32477D01*
X45283Y-32505D01*
X45308Y-32530D01*
X45336Y-32549D01*
X45367Y-32562D01*
X45401Y-32569D01*
X45413Y-32569D01*
X45424Y-32590D01*
X45451Y-32624D01*
X45459Y-32633D01*
X45461Y-32635D01*
X45462Y-32636D01*
X46386Y-33560D01*
X46387Y-33562D01*
X46415Y-33585D01*
X46431Y-33598D01*
X46433Y-33599D01*
X46434Y-33600D01*
X43290Y-33600D01*
X43290Y-24927D01*
X43216Y-24552D01*
X43070Y-24198D01*
X42858Y-23879D01*
X42589Y-23608D01*
X42272Y-23394D01*
X41919Y-23245D01*
X41544Y-23168D01*
X41162Y-23166D01*
X40786Y-23237D01*
X40431Y-23381D01*
X40111Y-23590D01*
X39837Y-23858D01*
X39621Y-24173D01*
X39471Y-24525D01*
X39391Y-24899D01*
X39386Y-25282D01*
X39455Y-25658D01*
X39595Y-26014D01*
X39803Y-26335D01*
X40068Y-26611D01*
X40382Y-26829D01*
X40733Y-26982D01*
X41107Y-27065D01*
X41489Y-27073D01*
X41866Y-27006D01*
X42223Y-26868D01*
X42546Y-26663D01*
X42823Y-26399D01*
X43043Y-26087D01*
X43199Y-25737D01*
X43284Y-25364D01*
X43290Y-24927D01*
X43290Y-33600D01*
X42800Y-33600D01*
X42742Y-33606D01*
X42710Y-33615D01*
X42688Y-33622D01*
X42686Y-33622D01*
X42686Y-33623D01*
X42634Y-33650D01*
X42599Y-33678D01*
X42590Y-33686D01*
X42587Y-33688D01*
X42188Y-34088D01*
X42176Y-34102D01*
X42152Y-34131D01*
X42124Y-34182D01*
X42107Y-34236D01*
X42106Y-34241D01*
X42102Y-34278D01*
X42100Y-34296D01*
X42100Y-34299D01*
X42100Y-34300D01*
X42100Y-35897D01*
X42100Y-35900D01*
X42101Y-35913D01*
X42105Y-35956D01*
X42121Y-36012D01*
X42138Y-36044D01*
X42150Y-36066D01*
X42177Y-36100D01*
X42185Y-36109D01*
X42187Y-36111D01*
X42188Y-36112D01*
X42436Y-36360D01*
X42437Y-36362D01*
X42465Y-36385D01*
X42481Y-36398D01*
X42483Y-36399D01*
X42532Y-36426D01*
X42534Y-36426D01*
X42568Y-36436D01*
X42588Y-36443D01*
X42590Y-36444D01*
X42612Y-36445D01*
X42646Y-36450D01*
X42650Y-36450D01*
X44277Y-36450D01*
X44335Y-36444D01*
X44341Y-36442D01*
X44727Y-36442D01*
X44760Y-36435D01*
X44792Y-36422D01*
X44800Y-36416D01*
X44800Y-37631D01*
X44654Y-37631D01*
X44621Y-37638D01*
X44589Y-37651D01*
X44561Y-37669D01*
X44536Y-37694D01*
X44517Y-37722D01*
X44504Y-37753D01*
X44497Y-37787D01*
X44497Y-37821D01*
X44497Y-38412D01*
X44504Y-38445D01*
X44517Y-38477D01*
X44535Y-38505D01*
X44560Y-38530D01*
X44588Y-38549D01*
X44619Y-38562D01*
X44653Y-38569D01*
X44687Y-38569D01*
X45198Y-38569D01*
X45231Y-38562D01*
X45263Y-38549D01*
X45291Y-38531D01*
X45300Y-38522D01*
X45308Y-38530D01*
X45336Y-38549D01*
X45367Y-38562D01*
X45401Y-38569D01*
X45435Y-38569D01*
X45946Y-38569D01*
X45979Y-38562D01*
X46011Y-38549D01*
X46039Y-38531D01*
X46064Y-38506D01*
X46083Y-38478D01*
X46096Y-38447D01*
X46103Y-38413D01*
X46103Y-38379D01*
X46103Y-37788D01*
X46096Y-37755D01*
X46083Y-37723D01*
X46065Y-37695D01*
X46040Y-37670D01*
X46012Y-37651D01*
X45981Y-37638D01*
X45974Y-37636D01*
X45974Y-36942D01*
X46257Y-36942D01*
X46261Y-36943D01*
X46319Y-36950D01*
X46323Y-36950D01*
X47326Y-36950D01*
X47961Y-37585D01*
X47963Y-37596D01*
X47988Y-37660D01*
X48025Y-37718D01*
X48073Y-37767D01*
X48129Y-37806D01*
X48191Y-37833D01*
X48258Y-37848D01*
X48327Y-37850D01*
X48394Y-37838D01*
X48458Y-37813D01*
X48516Y-37776D01*
X48565Y-37729D01*
X48605Y-37673D01*
X48633Y-37611D01*
X48648Y-37544D01*
X48649Y-37466D01*
X48636Y-37399D01*
X48610Y-37336D01*
X48572Y-37279D01*
X48524Y-37230D01*
X48467Y-37192D01*
X48404Y-37165D01*
X48385Y-37161D01*
X48130Y-36906D01*
X48191Y-36933D01*
X48258Y-36948D01*
X48327Y-36950D01*
X48394Y-36938D01*
X48458Y-36913D01*
X48516Y-36876D01*
X48565Y-36829D01*
X48605Y-36773D01*
X48633Y-36711D01*
X48648Y-36644D01*
X48649Y-36566D01*
X48636Y-36499D01*
X48610Y-36436D01*
X48572Y-36379D01*
X48524Y-36330D01*
X48467Y-36292D01*
X48404Y-36265D01*
X48385Y-36261D01*
X48064Y-35940D01*
X48062Y-35938D01*
X48048Y-35926D01*
X48019Y-35902D01*
X48017Y-35901D01*
X47968Y-35874D01*
X47914Y-35857D01*
X47912Y-35857D01*
X47909Y-35856D01*
X47872Y-35852D01*
X47854Y-35850D01*
X47851Y-35850D01*
X47850Y-35850D01*
X47835Y-35850D01*
X47855Y-35823D01*
X47883Y-35761D01*
X47898Y-35694D01*
X47899Y-35616D01*
X47886Y-35549D01*
X47860Y-35486D01*
X47856Y-35480D01*
X48700Y-36324D01*
X48700Y-45426D01*
X47101Y-47025D01*
X47101Y-45504D01*
X47101Y-45501D01*
X47099Y-45487D01*
X47096Y-45445D01*
X47095Y-45443D01*
X47079Y-45389D01*
X47078Y-45387D01*
X47052Y-45337D01*
X47051Y-45335D01*
X47039Y-45320D01*
X47016Y-45291D01*
X47014Y-45290D01*
X47013Y-45289D01*
X46664Y-44940D01*
X46662Y-44938D01*
X46648Y-44926D01*
X46619Y-44902D01*
X46617Y-44901D01*
X46568Y-44874D01*
X46514Y-44857D01*
X46512Y-44857D01*
X46509Y-44856D01*
X46472Y-44852D01*
X46454Y-44850D01*
X46451Y-44850D01*
X46450Y-44850D01*
X46044Y-44850D01*
X46044Y-44168D01*
X46044Y-44134D01*
X46044Y-43333D01*
X46037Y-43300D01*
X46024Y-43268D01*
X46006Y-43240D01*
X45981Y-43215D01*
X45953Y-43196D01*
X45922Y-43183D01*
X45888Y-43176D01*
X45854Y-43176D01*
X44413Y-43176D01*
X44380Y-43183D01*
X44348Y-43196D01*
X44320Y-43214D01*
X44295Y-43239D01*
X44276Y-43267D01*
X44263Y-43298D01*
X44256Y-43332D01*
X44256Y-43366D01*
X44256Y-44167D01*
X44263Y-44200D01*
X44276Y-44232D01*
X44294Y-44260D01*
X44319Y-44285D01*
X44347Y-44304D01*
X44378Y-44317D01*
X44412Y-44324D01*
X44446Y-44324D01*
X45887Y-44324D01*
X45920Y-44317D01*
X45952Y-44304D01*
X45980Y-44286D01*
X46005Y-44261D01*
X46024Y-44233D01*
X46037Y-44202D01*
X46044Y-44168D01*
X46044Y-44850D01*
X44703Y-44850D01*
X44700Y-44850D01*
X44686Y-44851D01*
X44644Y-44855D01*
X44588Y-44872D01*
X44586Y-44872D01*
X44586Y-44873D01*
X44534Y-44900D01*
X44519Y-44911D01*
X44490Y-44935D01*
X44488Y-44938D01*
X44040Y-45386D01*
X44038Y-45388D01*
X44026Y-45402D01*
X44002Y-45431D01*
X43974Y-45482D01*
X43957Y-45536D01*
X43956Y-45541D01*
X43952Y-45578D01*
X43950Y-45596D01*
X43950Y-45599D01*
X43950Y-45600D01*
X43950Y-45807D01*
X43940Y-45814D01*
X43915Y-45839D01*
X43896Y-45867D01*
X43883Y-45898D01*
X43876Y-45932D01*
X43876Y-45966D01*
X43876Y-46750D01*
X43853Y-46750D01*
X43850Y-46750D01*
X43836Y-46751D01*
X43794Y-46755D01*
X43738Y-46772D01*
X43736Y-46772D01*
X43736Y-46773D01*
X43684Y-46800D01*
X43669Y-46811D01*
X43640Y-46835D01*
X43638Y-46838D01*
X43289Y-47187D01*
X43287Y-47189D01*
X43275Y-47203D01*
X43259Y-47222D01*
X43168Y-47222D01*
X43135Y-47229D01*
X43103Y-47242D01*
X43075Y-47260D01*
X43050Y-47285D01*
X43031Y-47313D01*
X43018Y-47344D01*
X43011Y-47378D01*
X43011Y-47412D01*
X43011Y-48121D01*
X43018Y-48154D01*
X43031Y-48186D01*
X43049Y-48214D01*
X43074Y-48239D01*
X43102Y-48258D01*
X43133Y-48271D01*
X43167Y-48278D01*
X43201Y-48278D01*
X43830Y-48278D01*
X43863Y-48271D01*
X43895Y-48258D01*
X43923Y-48240D01*
X43948Y-48215D01*
X43967Y-48187D01*
X43980Y-48156D01*
X43987Y-48122D01*
X43987Y-48088D01*
X43987Y-47379D01*
X43980Y-47350D01*
X44547Y-47350D01*
X44550Y-47350D01*
X44563Y-47348D01*
X44606Y-47345D01*
X44608Y-47344D01*
X44662Y-47329D01*
X44664Y-47327D01*
X44694Y-47311D01*
X44713Y-47301D01*
X44716Y-47300D01*
X44750Y-47272D01*
X44759Y-47265D01*
X44761Y-47263D01*
X44762Y-47262D01*
X44910Y-47114D01*
X44912Y-47112D01*
X44923Y-47098D01*
X44948Y-47069D01*
X44949Y-47067D01*
X44976Y-47018D01*
X44976Y-47015D01*
X44992Y-46964D01*
X44993Y-46962D01*
X44994Y-46959D01*
X44998Y-46917D01*
X45000Y-46904D01*
X45000Y-46902D01*
X45000Y-46900D01*
X45000Y-45924D01*
X45074Y-45850D01*
X45707Y-45850D01*
X45696Y-45867D01*
X45683Y-45898D01*
X45676Y-45932D01*
X45676Y-45966D01*
X45676Y-46767D01*
X45683Y-46800D01*
X45696Y-46832D01*
X45714Y-46860D01*
X45739Y-46885D01*
X45750Y-46892D01*
X45750Y-46897D01*
X45750Y-46900D01*
X45751Y-46913D01*
X45755Y-46956D01*
X45771Y-47012D01*
X45788Y-47044D01*
X45800Y-47066D01*
X45827Y-47100D01*
X45835Y-47109D01*
X45837Y-47111D01*
X45838Y-47112D01*
X45950Y-47224D01*
X45950Y-49226D01*
X45040Y-50136D01*
X45038Y-50138D01*
X45026Y-50152D01*
X45002Y-50181D01*
X44974Y-50232D01*
X44957Y-50286D01*
X44956Y-50291D01*
X44952Y-50328D01*
X44950Y-50346D01*
X44950Y-50349D01*
X44950Y-50350D01*
X44950Y-50379D01*
X44921Y-50350D01*
X44845Y-50299D01*
X44760Y-50263D01*
X44669Y-50244D01*
X44577Y-50244D01*
X44487Y-50261D01*
X44401Y-50295D01*
X44324Y-50346D01*
X44258Y-50410D01*
X44206Y-50486D01*
X44170Y-50571D01*
X44151Y-50661D01*
X44149Y-50753D01*
X44166Y-50844D01*
X44200Y-50930D01*
X44250Y-51007D01*
X44314Y-51074D01*
X44390Y-51126D01*
X44474Y-51163D01*
X44564Y-51183D01*
X44656Y-51185D01*
X44747Y-51169D01*
X44833Y-51136D01*
X44911Y-51086D01*
X44950Y-51048D01*
X44950Y-51347D01*
X44950Y-51350D01*
X44951Y-51363D01*
X44955Y-51406D01*
X44971Y-51462D01*
X44988Y-51494D01*
X45000Y-51516D01*
X45027Y-51550D01*
X45035Y-51559D01*
X45037Y-51561D01*
X45038Y-51562D01*
X45286Y-51810D01*
X45287Y-51812D01*
X45315Y-51835D01*
X45331Y-51848D01*
X45333Y-51849D01*
X45382Y-51876D01*
X45384Y-51876D01*
X45418Y-51886D01*
X45438Y-51893D01*
X45440Y-51894D01*
X45462Y-51895D01*
X45496Y-51900D01*
X45500Y-51900D01*
X48597Y-51900D01*
X48600Y-51900D01*
X48613Y-51898D01*
X48656Y-51895D01*
X48658Y-51894D01*
X48712Y-51879D01*
X48714Y-51877D01*
X48744Y-51861D01*
X48763Y-51851D01*
X48766Y-51850D01*
X48800Y-51822D01*
X48809Y-51815D01*
X48811Y-51813D01*
X48812Y-51812D01*
X49110Y-51514D01*
X49112Y-51512D01*
X49123Y-51498D01*
X49148Y-51469D01*
X49149Y-51467D01*
X49176Y-51418D01*
X49176Y-51415D01*
X49188Y-51376D01*
X49193Y-51362D01*
X49194Y-51360D01*
X49198Y-51316D01*
X49200Y-51304D01*
X49200Y-51302D01*
X49200Y-51300D01*
X49200Y-49924D01*
X49259Y-49865D01*
X49262Y-49862D01*
X51110Y-48014D01*
X51112Y-48012D01*
X51123Y-47998D01*
X51148Y-47969D01*
X51149Y-47967D01*
X51176Y-47918D01*
X51176Y-47915D01*
X51188Y-47876D01*
X51193Y-47862D01*
X51194Y-47860D01*
X51198Y-47816D01*
X51200Y-47804D01*
X51200Y-47802D01*
X51200Y-47800D01*
X51200Y-43024D01*
X53724Y-40500D01*
X56967Y-40500D01*
X56969Y-40500D01*
X56979Y-40498D01*
X57025Y-40495D01*
X57027Y-40494D01*
X57081Y-40478D01*
X57082Y-40477D01*
X57083Y-40477D01*
X57133Y-40451D01*
X57135Y-40450D01*
X57169Y-40422D01*
X57179Y-40414D01*
X57179Y-40413D01*
X57180Y-40413D01*
X57217Y-40369D01*
X57218Y-40368D01*
X57241Y-40325D01*
X57245Y-40318D01*
X57245Y-40317D01*
X57246Y-40316D01*
X57262Y-40262D01*
X57263Y-40260D01*
X57267Y-40216D01*
X57269Y-40204D01*
X57269Y-40202D01*
X57269Y-40200D01*
X57269Y-40024D01*
X57363Y-39929D01*
X57368Y-39931D01*
X57495Y-39959D01*
X57626Y-39962D01*
X57755Y-39940D01*
X57877Y-39892D01*
X57987Y-39822D01*
X58082Y-39732D01*
X58158Y-39625D01*
X58171Y-39594D01*
X65870Y-39594D01*
X65934Y-39658D01*
X65934Y-40044D01*
X65928Y-40048D01*
X65903Y-40073D01*
X65900Y-40077D01*
X65898Y-40074D01*
X65873Y-40049D01*
X65845Y-40030D01*
X65814Y-40017D01*
X65780Y-40010D01*
X65746Y-40010D01*
X65353Y-40010D01*
X65320Y-40017D01*
X65288Y-40030D01*
X65260Y-40048D01*
X65235Y-40073D01*
X65216Y-40101D01*
X65203Y-40132D01*
X65196Y-40166D01*
X65196Y-40200D01*
X65196Y-40633D01*
X65203Y-40666D01*
X65216Y-40698D01*
X65234Y-40726D01*
X65259Y-40751D01*
X65266Y-40755D01*
X65266Y-40890D01*
X65234Y-40890D01*
X65201Y-40897D01*
X65169Y-40910D01*
X65141Y-40928D01*
X65116Y-40953D01*
X65097Y-40981D01*
X65084Y-41012D01*
X65077Y-41046D01*
X65077Y-41080D01*
X65077Y-41553D01*
X65084Y-41586D01*
X65097Y-41618D01*
X65115Y-41646D01*
X65140Y-41671D01*
X65168Y-41690D01*
X65199Y-41703D01*
X65233Y-41710D01*
X65267Y-41710D01*
X65740Y-41710D01*
X65773Y-41703D01*
X65805Y-41690D01*
X65833Y-41672D01*
X65858Y-41647D01*
X65877Y-41619D01*
X65890Y-41588D01*
X65897Y-41554D01*
X65897Y-41520D01*
X65897Y-41047D01*
X65890Y-41014D01*
X65877Y-40982D01*
X65866Y-40964D01*
X65866Y-40755D01*
X65872Y-40752D01*
X65897Y-40727D01*
X65899Y-40722D01*
X65902Y-40726D01*
X65927Y-40751D01*
X65955Y-40770D01*
X65986Y-40783D01*
X66020Y-40790D01*
X66054Y-40790D01*
X66447Y-40790D01*
X66480Y-40783D01*
X66512Y-40770D01*
X66540Y-40752D01*
X66565Y-40727D01*
X66584Y-40699D01*
X66597Y-40668D01*
X66604Y-40634D01*
X66604Y-40600D01*
X66604Y-40167D01*
X66597Y-40134D01*
X66584Y-40102D01*
X66566Y-40074D01*
X66541Y-40049D01*
X66534Y-40044D01*
X66534Y-39537D01*
X66534Y-39534D01*
X66532Y-39520D01*
X66529Y-39478D01*
X66528Y-39476D01*
X66512Y-39422D01*
X66511Y-39420D01*
X66485Y-39370D01*
X66484Y-39368D01*
X66472Y-39353D01*
X66449Y-39324D01*
X66447Y-39323D01*
X66446Y-39322D01*
X66208Y-39084D01*
X66206Y-39082D01*
X66192Y-39070D01*
X66163Y-39046D01*
X66161Y-39045D01*
X66112Y-39018D01*
X66058Y-39001D01*
X66056Y-39001D01*
X66053Y-39000D01*
X66016Y-38996D01*
X65998Y-38994D01*
X65995Y-38994D01*
X65994Y-38994D01*
X64875Y-38994D01*
X64875Y-37053D01*
X64857Y-36962D01*
X64821Y-36876D01*
X64770Y-36798D01*
X64704Y-36732D01*
X64627Y-36680D01*
X64541Y-36644D01*
X64449Y-36625D01*
X64356Y-36625D01*
X64265Y-36642D01*
X64178Y-36677D01*
X64101Y-36728D01*
X64034Y-36794D01*
X63982Y-36870D01*
X63945Y-36956D01*
X63926Y-37047D01*
X63924Y-37140D01*
X63941Y-37232D01*
X63976Y-37319D01*
X64026Y-37397D01*
X64091Y-37464D01*
X64168Y-37517D01*
X64253Y-37554D01*
X64344Y-37574D01*
X64437Y-37576D01*
X64529Y-37560D01*
X64616Y-37526D01*
X64694Y-37476D01*
X64762Y-37412D01*
X64815Y-37335D01*
X64853Y-37250D01*
X64874Y-37159D01*
X64875Y-37053D01*
X64875Y-38994D01*
X63375Y-38994D01*
X63375Y-37053D01*
X63357Y-36962D01*
X63321Y-36876D01*
X63270Y-36798D01*
X63204Y-36732D01*
X63127Y-36680D01*
X63041Y-36644D01*
X62949Y-36625D01*
X62856Y-36625D01*
X62765Y-36642D01*
X62678Y-36677D01*
X62601Y-36728D01*
X62534Y-36794D01*
X62482Y-36870D01*
X62445Y-36956D01*
X62426Y-37047D01*
X62424Y-37140D01*
X62441Y-37232D01*
X62476Y-37319D01*
X62526Y-37397D01*
X62591Y-37464D01*
X62668Y-37517D01*
X62753Y-37554D01*
X62844Y-37574D01*
X62937Y-37576D01*
X63029Y-37560D01*
X63116Y-37526D01*
X63194Y-37476D01*
X63262Y-37412D01*
X63315Y-37335D01*
X63353Y-37250D01*
X63374Y-37159D01*
X63375Y-37053D01*
X63375Y-38994D01*
X58172Y-38994D01*
X58167Y-38980D01*
X58095Y-38871D01*
X58002Y-38778D01*
X57894Y-38705D01*
X57774Y-38654D01*
X57645Y-38628D01*
X57515Y-38627D01*
X57386Y-38651D01*
X57265Y-38700D01*
X57155Y-38771D01*
X57062Y-38863D01*
X56988Y-38971D01*
X56936Y-39091D01*
X56909Y-39219D01*
X56907Y-39350D01*
X56931Y-39478D01*
X56941Y-39503D01*
X56759Y-39686D01*
X56757Y-39688D01*
X56745Y-39702D01*
X56721Y-39731D01*
X56693Y-39782D01*
X56676Y-39836D01*
X56675Y-39841D01*
X56671Y-39878D01*
X56669Y-39896D01*
X56669Y-39899D01*
X56669Y-39900D01*
X56281Y-39900D01*
X56302Y-39892D01*
X56412Y-39822D01*
X56507Y-39732D01*
X56583Y-39625D01*
X56636Y-39506D01*
X56642Y-39476D01*
X56655Y-39462D01*
X56683Y-39410D01*
X56700Y-39354D01*
X56706Y-39296D01*
X56701Y-39238D01*
X56684Y-39182D01*
X56657Y-39130D01*
X56644Y-39114D01*
X56642Y-39101D01*
X56592Y-38980D01*
X56520Y-38871D01*
X56427Y-38778D01*
X56394Y-38755D01*
X56394Y-37061D01*
X56379Y-36985D01*
X56349Y-36914D01*
X56307Y-36849D01*
X56252Y-36795D01*
X56188Y-36752D01*
X56117Y-36722D01*
X56041Y-36706D01*
X55964Y-36706D01*
X55888Y-36720D01*
X55816Y-36749D01*
X55752Y-36792D01*
X55696Y-36846D01*
X55653Y-36910D01*
X55622Y-36981D01*
X55607Y-37056D01*
X55605Y-37133D01*
X55620Y-37209D01*
X55648Y-37281D01*
X55690Y-37346D01*
X55744Y-37402D01*
X55807Y-37446D01*
X55878Y-37477D01*
X55953Y-37493D01*
X56031Y-37495D01*
X56107Y-37481D01*
X56179Y-37453D01*
X56244Y-37412D01*
X56300Y-37358D01*
X56344Y-37295D01*
X56376Y-37225D01*
X56393Y-37149D01*
X56394Y-37061D01*
X56394Y-38755D01*
X56319Y-38705D01*
X56199Y-38654D01*
X56070Y-38628D01*
X55940Y-38627D01*
X55811Y-38651D01*
X55690Y-38700D01*
X55580Y-38771D01*
X55487Y-38863D01*
X55413Y-38971D01*
X55361Y-39091D01*
X55334Y-39219D01*
X55332Y-39350D01*
X55356Y-39478D01*
X55404Y-39600D01*
X55475Y-39710D01*
X55565Y-39804D01*
X55673Y-39879D01*
X55721Y-39900D01*
X53603Y-39900D01*
X53600Y-39900D01*
X53586Y-39901D01*
X53544Y-39905D01*
X53488Y-39922D01*
X53486Y-39922D01*
X53486Y-39923D01*
X53434Y-39950D01*
X53419Y-39961D01*
X53390Y-39985D01*
X53388Y-39988D01*
X51723Y-41653D01*
X51723Y-40836D01*
X51679Y-40613D01*
X51592Y-40403D01*
X51466Y-40214D01*
X51306Y-40053D01*
X51118Y-39926D01*
X50909Y-39838D01*
X50686Y-39793D01*
X50459Y-39791D01*
X50236Y-39834D01*
X50026Y-39919D01*
X49836Y-40043D01*
X49673Y-40202D01*
X49545Y-40390D01*
X49456Y-40599D01*
X49409Y-40821D01*
X49406Y-41048D01*
X49447Y-41271D01*
X49530Y-41482D01*
X49653Y-41673D01*
X49811Y-41836D01*
X49998Y-41966D01*
X50206Y-42057D01*
X50428Y-42105D01*
X50655Y-42110D01*
X50878Y-42071D01*
X51090Y-41988D01*
X51282Y-41867D01*
X51446Y-41710D01*
X51577Y-41524D01*
X51669Y-41317D01*
X51719Y-41095D01*
X51723Y-40836D01*
X51723Y-41653D01*
X50690Y-42686D01*
X50688Y-42688D01*
X50676Y-42702D01*
X50652Y-42731D01*
X50624Y-42782D01*
X50607Y-42836D01*
X50606Y-42841D01*
X50602Y-42878D01*
X50600Y-42896D01*
X50600Y-42899D01*
X50600Y-42900D01*
X50600Y-47676D01*
X48841Y-49435D01*
X48838Y-49438D01*
X48690Y-49586D01*
X48688Y-49588D01*
X48676Y-49602D01*
X48652Y-49631D01*
X48624Y-49682D01*
X48607Y-49736D01*
X48606Y-49741D01*
X48602Y-49778D01*
X48600Y-49796D01*
X48600Y-49799D01*
X48600Y-49800D01*
X48600Y-51176D01*
X48476Y-51300D01*
X47776Y-51300D01*
X47881Y-51231D01*
X47973Y-51139D01*
X48046Y-51031D01*
X48096Y-50911D01*
X48123Y-50784D01*
X48123Y-50654D01*
X48099Y-50526D01*
X48050Y-50405D01*
X47979Y-50296D01*
X47888Y-50203D01*
X47781Y-50129D01*
X47661Y-50078D01*
X47533Y-50051D01*
X47403Y-50049D01*
X47101Y-50049D01*
X47101Y-48278D01*
X47132Y-48278D01*
X47165Y-48271D01*
X47197Y-48258D01*
X47225Y-48240D01*
X47250Y-48215D01*
X47269Y-48187D01*
X47282Y-48156D01*
X47289Y-48122D01*
X47289Y-48088D01*
X47289Y-47686D01*
X49210Y-45765D01*
X49212Y-45764D01*
X49226Y-45745D01*
X49248Y-45720D01*
X49248Y-45718D01*
X49276Y-45669D01*
X49276Y-45667D01*
X49286Y-45633D01*
X49293Y-45613D01*
X49294Y-45611D01*
X49295Y-45589D01*
X49300Y-45555D01*
X49300Y-45551D01*
X49300Y-36200D01*
X49294Y-36143D01*
X49294Y-36142D01*
X49287Y-36119D01*
X49278Y-36088D01*
X49277Y-36086D01*
X49250Y-36034D01*
X49217Y-35994D01*
X49214Y-35990D01*
X49213Y-35989D01*
X49211Y-35987D01*
X48164Y-34940D01*
X48162Y-34938D01*
X48148Y-34926D01*
X48119Y-34902D01*
X48117Y-34901D01*
X48068Y-34874D01*
X48014Y-34857D01*
X48012Y-34857D01*
X48009Y-34856D01*
X47972Y-34852D01*
X47954Y-34850D01*
X47951Y-34850D01*
X47950Y-34850D01*
X46323Y-34850D01*
X46265Y-34856D01*
X46258Y-34858D01*
X45873Y-34858D01*
X45840Y-34865D01*
X45808Y-34878D01*
X45780Y-34896D01*
X45755Y-34921D01*
X45736Y-34949D01*
X45723Y-34980D01*
X45716Y-35014D01*
X45716Y-35048D01*
X45716Y-35285D01*
X45723Y-35318D01*
X45736Y-35350D01*
X45754Y-35378D01*
X45776Y-35400D01*
X45755Y-35421D01*
X45736Y-35449D01*
X45723Y-35480D01*
X45719Y-35495D01*
X45164Y-34940D01*
X45162Y-34938D01*
X45148Y-34926D01*
X45119Y-34902D01*
X45117Y-34901D01*
X45068Y-34874D01*
X45014Y-34857D01*
X45012Y-34857D01*
X45009Y-34856D01*
X44972Y-34852D01*
X44954Y-34850D01*
X44951Y-34850D01*
X44950Y-34850D01*
X44277Y-34850D01*
X44219Y-34856D01*
X44212Y-34858D01*
X43827Y-34858D01*
X43794Y-34865D01*
X43762Y-34878D01*
X43734Y-34896D01*
X43709Y-34921D01*
X43690Y-34949D01*
X43677Y-34980D01*
X43670Y-35014D01*
X43670Y-35048D01*
X43670Y-35285D01*
X43677Y-35318D01*
X43690Y-35350D01*
X43374Y-35350D01*
X43300Y-35275D01*
X43300Y-34824D01*
X43424Y-34700D01*
X51096Y-34700D01*
X51100Y-34700D01*
X53176Y-34700D01*
X54605Y-36129D01*
X54605Y-36133D01*
X54620Y-36209D01*
X54648Y-36281D01*
X54690Y-36346D01*
X54744Y-36402D01*
X54807Y-36446D01*
X54878Y-36477D01*
X54953Y-36493D01*
X55031Y-36495D01*
X55107Y-36481D01*
X55179Y-36453D01*
X55244Y-36412D01*
X55300Y-36358D01*
X55344Y-36295D01*
X55376Y-36225D01*
X55393Y-36149D01*
X55394Y-36061D01*
X55379Y-35985D01*
X55349Y-35914D01*
X55307Y-35849D01*
X55252Y-35795D01*
X55188Y-35752D01*
X55117Y-35722D01*
X55041Y-35706D01*
X55030Y-35706D01*
X53524Y-34200D01*
X64897Y-34200D01*
X64900Y-34200D01*
X64913Y-34198D01*
X64956Y-34195D01*
X64958Y-34194D01*
X65012Y-34179D01*
X65014Y-34177D01*
X65044Y-34161D01*
X65063Y-34151D01*
X65066Y-34150D01*
X65100Y-34122D01*
X65109Y-34115D01*
X65111Y-34113D01*
X65112Y-34112D01*
X65560Y-33664D01*
X65562Y-33662D01*
X65573Y-33648D01*
X65598Y-33619D01*
X65599Y-33617D01*
X65626Y-33568D01*
X65626Y-33566D01*
X65636Y-33532D01*
X65643Y-33512D01*
X65644Y-33510D01*
X65648Y-33466D01*
X65650Y-33454D01*
X65650Y-33452D01*
X65650Y-33450D01*
X65650Y-32400D01*
X65828Y-32400D01*
X65891Y-32464D01*
X65968Y-32517D01*
X66053Y-32554D01*
X66144Y-32574D01*
X66237Y-32576D01*
X66329Y-32560D01*
X66416Y-32526D01*
X66494Y-32476D01*
X66562Y-32412D01*
X66615Y-32335D01*
X66653Y-32250D01*
X66674Y-32159D01*
X66675Y-32053D01*
X66675Y-37053D01*
X66657Y-36962D01*
X66621Y-36876D01*
X66570Y-36798D01*
X66504Y-36732D01*
X66427Y-36680D01*
X66341Y-36644D01*
X66249Y-36625D01*
X66156Y-36625D01*
X66065Y-36642D01*
X65978Y-36677D01*
X65901Y-36728D01*
X65834Y-36794D01*
X65782Y-36870D01*
X65745Y-36956D01*
X65726Y-37047D01*
X65724Y-37140D01*
X65741Y-37232D01*
X65776Y-37319D01*
X65826Y-37397D01*
X65891Y-37464D01*
X65968Y-37517D01*
X66053Y-37554D01*
X66144Y-37574D01*
X66237Y-37576D01*
X66329Y-37560D01*
X66416Y-37526D01*
X66494Y-37476D01*
X66562Y-37412D01*
X66615Y-37335D01*
X66653Y-37250D01*
X66674Y-37159D01*
X66675Y-37053D01*
X66675Y-52287D01*
X65543Y-52287D01*
X65543Y-47690D01*
X65461Y-47278D01*
X65301Y-46889D01*
X65069Y-46539D01*
X64773Y-46241D01*
X64424Y-46006D01*
X64037Y-45843D01*
X63625Y-45759D01*
X63205Y-45756D01*
X62792Y-45834D01*
X62403Y-45992D01*
X62051Y-46222D01*
X61751Y-46516D01*
X61513Y-46863D01*
X61348Y-47249D01*
X61260Y-47660D01*
X61254Y-48080D01*
X61330Y-48493D01*
X61485Y-48884D01*
X61712Y-49237D01*
X62004Y-49540D01*
X62349Y-49780D01*
X62734Y-49948D01*
X63145Y-50038D01*
X63565Y-50047D01*
X63979Y-49974D01*
X64371Y-49822D01*
X64726Y-49597D01*
X65030Y-49307D01*
X65272Y-48964D01*
X65443Y-48580D01*
X65536Y-48170D01*
X65543Y-47690D01*
X65543Y-52287D01*
X58222Y-52287D01*
X58222Y-45156D01*
X58205Y-45069D01*
X58171Y-44988D01*
X58122Y-44914D01*
X58060Y-44852D01*
X57987Y-44802D01*
X57976Y-44797D01*
X58007Y-44754D01*
X58043Y-44674D01*
X58063Y-44588D01*
X58064Y-44487D01*
X58047Y-44400D01*
X58013Y-44319D01*
X57964Y-44245D01*
X57902Y-44183D01*
X57829Y-44133D01*
X57748Y-44099D01*
X57687Y-44086D01*
X57689Y-44083D01*
X57709Y-43997D01*
X57710Y-43896D01*
X57693Y-43809D01*
X57659Y-43728D01*
X57610Y-43654D01*
X57548Y-43592D01*
X57475Y-43542D01*
X57394Y-43508D01*
X57307Y-43490D01*
X57219Y-43490D01*
X57132Y-43506D01*
X57113Y-43513D01*
X57102Y-43455D01*
X57068Y-43374D01*
X57019Y-43300D01*
X56957Y-43238D01*
X56884Y-43188D01*
X56803Y-43154D01*
X56716Y-43136D01*
X56628Y-43136D01*
X56541Y-43152D01*
X56460Y-43185D01*
X56402Y-43223D01*
X56399Y-43216D01*
X56350Y-43142D01*
X56288Y-43080D01*
X56215Y-43030D01*
X56134Y-42996D01*
X56047Y-42978D01*
X55959Y-42978D01*
X55872Y-42994D01*
X55791Y-43027D01*
X55717Y-43076D01*
X55654Y-43137D01*
X55604Y-43210D01*
X55598Y-43223D01*
X55546Y-43188D01*
X55465Y-43154D01*
X55378Y-43136D01*
X55290Y-43136D01*
X55203Y-43152D01*
X55122Y-43185D01*
X55048Y-43234D01*
X54985Y-43295D01*
X54935Y-43368D01*
X54900Y-43449D01*
X54886Y-43513D01*
X54874Y-43508D01*
X54787Y-43490D01*
X54699Y-43490D01*
X54612Y-43506D01*
X54531Y-43539D01*
X54457Y-43588D01*
X54394Y-43649D01*
X54344Y-43722D01*
X54309Y-43803D01*
X54291Y-43889D01*
X54289Y-43978D01*
X54305Y-44065D01*
X54313Y-44086D01*
X54258Y-44097D01*
X54177Y-44130D01*
X54103Y-44179D01*
X54040Y-44240D01*
X53990Y-44313D01*
X53955Y-44394D01*
X53937Y-44480D01*
X53935Y-44569D01*
X53951Y-44656D01*
X53984Y-44738D01*
X54022Y-44797D01*
X54019Y-44799D01*
X53945Y-44848D01*
X53882Y-44909D01*
X53832Y-44982D01*
X53797Y-45063D01*
X53779Y-45149D01*
X53777Y-45238D01*
X53793Y-45325D01*
X53826Y-45407D01*
X53874Y-45481D01*
X53935Y-45544D01*
X54007Y-45595D01*
X54023Y-45602D01*
X53990Y-45651D01*
X53955Y-45732D01*
X53937Y-45818D01*
X53935Y-45907D01*
X53951Y-45994D01*
X53984Y-46076D01*
X54032Y-46150D01*
X54093Y-46213D01*
X54165Y-46264D01*
X54246Y-46299D01*
X54312Y-46313D01*
X54309Y-46323D01*
X54291Y-46409D01*
X54289Y-46498D01*
X54305Y-46585D01*
X54338Y-46667D01*
X54386Y-46741D01*
X54447Y-46804D01*
X54519Y-46855D01*
X54600Y-46890D01*
X54686Y-46909D01*
X54775Y-46911D01*
X54861Y-46896D01*
X54886Y-46886D01*
X54896Y-46939D01*
X54929Y-47021D01*
X54977Y-47095D01*
X55038Y-47158D01*
X55110Y-47209D01*
X55191Y-47244D01*
X55277Y-47263D01*
X55366Y-47265D01*
X55452Y-47250D01*
X55535Y-47218D01*
X55597Y-47177D01*
X55598Y-47179D01*
X55646Y-47253D01*
X55707Y-47316D01*
X55779Y-47367D01*
X55860Y-47402D01*
X55946Y-47421D01*
X56035Y-47423D01*
X56121Y-47408D01*
X56204Y-47376D01*
X56278Y-47328D01*
X56342Y-47268D01*
X56393Y-47195D01*
X56401Y-47176D01*
X56448Y-47209D01*
X56529Y-47244D01*
X56615Y-47263D01*
X56704Y-47265D01*
X56790Y-47250D01*
X56873Y-47218D01*
X56947Y-47170D01*
X57011Y-47110D01*
X57062Y-47037D01*
X57098Y-46957D01*
X57114Y-46887D01*
X57120Y-46890D01*
X57206Y-46909D01*
X57295Y-46911D01*
X57381Y-46896D01*
X57464Y-46864D01*
X57538Y-46816D01*
X57602Y-46756D01*
X57653Y-46683D01*
X57689Y-46603D01*
X57709Y-46517D01*
X57710Y-46416D01*
X57693Y-46329D01*
X57686Y-46313D01*
X57735Y-46305D01*
X57818Y-46273D01*
X57892Y-46225D01*
X57956Y-46165D01*
X58007Y-46092D01*
X58043Y-46012D01*
X58063Y-45926D01*
X58064Y-45825D01*
X58047Y-45738D01*
X58013Y-45657D01*
X57977Y-45603D01*
X58050Y-45556D01*
X58114Y-45496D01*
X58165Y-45423D01*
X58201Y-45343D01*
X58221Y-45257D01*
X58222Y-45156D01*
X58222Y-52287D01*
X44107Y-52287D01*
X44107Y-50784D01*
X44107Y-50654D01*
X44083Y-50526D01*
X44034Y-50405D01*
X43963Y-50296D01*
X43872Y-50203D01*
X43765Y-50129D01*
X43645Y-50078D01*
X43517Y-50051D01*
X43387Y-50049D01*
X43001Y-50049D01*
X41992Y-49040D01*
X41990Y-49038D01*
X41976Y-49026D01*
X41947Y-49002D01*
X41945Y-49001D01*
X41896Y-48974D01*
X41842Y-48957D01*
X41840Y-48957D01*
X41837Y-48956D01*
X41800Y-48952D01*
X41782Y-48950D01*
X41779Y-48950D01*
X41778Y-48950D01*
X41093Y-48950D01*
X41093Y-40836D01*
X41049Y-40613D01*
X40962Y-40403D01*
X40836Y-40214D01*
X40676Y-40053D01*
X40488Y-39926D01*
X40279Y-39838D01*
X40056Y-39793D01*
X39829Y-39791D01*
X39606Y-39834D01*
X39396Y-39919D01*
X39206Y-40043D01*
X39043Y-40202D01*
X38915Y-40390D01*
X38826Y-40599D01*
X38779Y-40821D01*
X38776Y-41048D01*
X38817Y-41271D01*
X38900Y-41482D01*
X39023Y-41673D01*
X39181Y-41836D01*
X39368Y-41966D01*
X39576Y-42057D01*
X39798Y-42105D01*
X40025Y-42110D01*
X40248Y-42071D01*
X40460Y-41988D01*
X40652Y-41867D01*
X40816Y-41710D01*
X40947Y-41524D01*
X41039Y-41317D01*
X41089Y-41095D01*
X41093Y-40836D01*
X41093Y-48950D01*
X40024Y-48950D01*
X39050Y-47976D01*
X39050Y-46796D01*
X39990Y-46796D01*
X40048Y-46856D01*
X40124Y-46908D01*
X40208Y-46945D01*
X40298Y-46965D01*
X40390Y-46967D01*
X40481Y-46951D01*
X40567Y-46918D01*
X40645Y-46868D01*
X40711Y-46805D01*
X40765Y-46729D01*
X40802Y-46645D01*
X40823Y-46555D01*
X40824Y-46450D01*
X40824Y-45450D01*
X40806Y-45360D01*
X40771Y-45274D01*
X40720Y-45198D01*
X40655Y-45132D01*
X40579Y-45081D01*
X40494Y-45045D01*
X40403Y-45026D01*
X40311Y-45026D01*
X40221Y-45043D01*
X40135Y-45077D01*
X40058Y-45128D01*
X39992Y-45192D01*
X39940Y-45268D01*
X39904Y-45353D01*
X39885Y-45443D01*
X39883Y-45535D01*
X39900Y-45626D01*
X39934Y-45712D01*
X39984Y-45789D01*
X40048Y-45856D01*
X40124Y-45908D01*
X40208Y-45945D01*
X40298Y-45965D01*
X40390Y-45967D01*
X40481Y-45951D01*
X40567Y-45918D01*
X40645Y-45868D01*
X40711Y-45805D01*
X40765Y-45729D01*
X40802Y-45645D01*
X40823Y-45555D01*
X40824Y-45450D01*
X40824Y-46450D01*
X40806Y-46360D01*
X40771Y-46274D01*
X40720Y-46198D01*
X40655Y-46132D01*
X40579Y-46081D01*
X40494Y-46045D01*
X40403Y-46026D01*
X40311Y-46026D01*
X40221Y-46043D01*
X40135Y-46077D01*
X40058Y-46128D01*
X39992Y-46192D01*
X39989Y-46196D01*
X38807Y-46196D01*
X38804Y-46196D01*
X38790Y-46197D01*
X38748Y-46201D01*
X38692Y-46218D01*
X38690Y-46218D01*
X38690Y-46219D01*
X38638Y-46246D01*
X38623Y-46257D01*
X38594Y-46281D01*
X38592Y-46284D01*
X38540Y-46336D01*
X38538Y-46338D01*
X38526Y-46352D01*
X38502Y-46381D01*
X38474Y-46432D01*
X38457Y-46486D01*
X38456Y-46491D01*
X38452Y-46528D01*
X38450Y-46546D01*
X38450Y-46549D01*
X38450Y-46550D01*
X38450Y-48097D01*
X38450Y-48100D01*
X38451Y-48113D01*
X38455Y-48156D01*
X38471Y-48212D01*
X38488Y-48244D01*
X38500Y-48266D01*
X38527Y-48300D01*
X38535Y-48309D01*
X38537Y-48311D01*
X38538Y-48312D01*
X39686Y-49460D01*
X39688Y-49462D01*
X39702Y-49473D01*
X39731Y-49498D01*
X39733Y-49499D01*
X39782Y-49526D01*
X39784Y-49526D01*
X39818Y-49536D01*
X39838Y-49543D01*
X39840Y-49544D01*
X39884Y-49548D01*
X39896Y-49550D01*
X39898Y-49550D01*
X39900Y-49550D01*
X41654Y-49550D01*
X42472Y-50368D01*
X42454Y-50397D01*
X42404Y-50517D01*
X42377Y-50644D01*
X42377Y-50774D01*
X42401Y-50902D01*
X42450Y-51023D01*
X42521Y-51132D01*
X42612Y-51225D01*
X42719Y-51299D01*
X42839Y-51350D01*
X42967Y-51377D01*
X43097Y-51379D01*
X43508Y-51378D01*
X43636Y-51353D01*
X43756Y-51303D01*
X43865Y-51231D01*
X43957Y-51139D01*
X44030Y-51031D01*
X44080Y-50911D01*
X44107Y-50784D01*
X44107Y-52287D01*
X38799Y-52287D01*
X38615Y-52269D01*
X38441Y-52216D01*
X38281Y-52130D01*
X38141Y-52016D01*
X38027Y-51876D01*
X37941Y-51716D01*
X37888Y-51542D01*
X37870Y-51358D01*
X37870Y-14784D01*
X37888Y-14600D01*
X37941Y-14426D01*
X38027Y-14266D01*
X38141Y-14126D01*
X38281Y-14012D01*
X38441Y-13926D01*
X38615Y-13873D01*
X38799Y-13855D01*
X75374Y-13855D01*
X75558Y-13873D01*
X75732Y-13926D01*
X75892Y-14012D01*
X76032Y-14126D01*
X76146Y-14266D01*
X76232Y-14426D01*
X76285Y-14600D01*
X76303Y-14784D01*
X76303Y-51358D01*
M02*
