G04 (created by PCBNEW-RS274X (2012-jan-04)-stable) date Mon 04 Jun 2012 05:41:14 PM CEST*
G01*
G70*
G90*
%MOIN*%
G04 Gerber Fmt 3.4, Leading zero omitted, Abs format*
%FSLAX34Y34*%
G04 APERTURE LIST*
%ADD10C,0.006000*%
%ADD11R,0.047200X0.047200*%
%ADD12C,0.070000*%
%ADD13R,0.070000X0.070000*%
%ADD14C,0.160000*%
%ADD15R,0.144000X0.080000*%
%ADD16R,0.040000X0.080000*%
%ADD17C,0.374000*%
%ADD18C,0.060000*%
%ADD19C,0.295300*%
%ADD20R,0.051100X0.059000*%
%ADD21R,0.062900X0.070800*%
%ADD22R,0.086600X0.023600*%
%ADD23R,0.039300X0.043300*%
%ADD24R,0.055000X0.055000*%
%ADD25C,0.055000*%
%ADD26C,0.044000*%
%ADD27C,0.196900*%
%ADD28C,0.137800*%
%ADD29C,0.059100*%
%ADD30C,0.472400*%
%ADD31R,0.118100X0.167300*%
%ADD32R,0.167300X0.118100*%
%ADD33C,0.098400*%
%ADD34C,0.035000*%
%ADD35C,0.025000*%
%ADD36C,0.012000*%
%ADD37C,0.020000*%
G04 APERTURE END LIST*
G54D10*
G54D11*
X50687Y-51200D03*
X51513Y-51200D03*
G54D12*
X63961Y-27559D03*
X64961Y-27559D03*
G54D13*
X65961Y-27559D03*
G54D12*
X48213Y-27559D03*
X49213Y-27559D03*
G54D13*
X50213Y-27559D03*
G54D14*
X39370Y-15354D03*
X74803Y-15354D03*
X39370Y-50787D03*
X74803Y-50787D03*
G54D15*
X45150Y-43750D03*
G54D16*
X45150Y-46350D03*
X46050Y-46350D03*
X44250Y-46350D03*
G54D17*
X64600Y-48300D03*
X69400Y-48300D03*
G54D18*
X67700Y-32100D03*
X67700Y-37100D03*
X66200Y-32100D03*
X66200Y-37100D03*
X64400Y-32100D03*
X64400Y-37100D03*
X62900Y-32100D03*
X62900Y-37100D03*
G54D19*
X72835Y-25118D03*
X41339Y-25118D03*
X57087Y-25118D03*
G54D20*
X45674Y-32100D03*
X44926Y-32100D03*
X45674Y-38100D03*
X44926Y-38100D03*
G54D21*
X46801Y-47750D03*
X45699Y-47750D03*
X43499Y-47750D03*
X44601Y-47750D03*
G54D22*
X44277Y-35150D03*
X44277Y-35650D03*
X44277Y-36150D03*
X44277Y-36650D03*
X46323Y-36650D03*
X46323Y-36150D03*
X46323Y-35650D03*
X46323Y-35150D03*
G54D23*
X50766Y-50100D03*
X51434Y-50100D03*
G54D24*
X39646Y-47496D03*
G54D25*
X39646Y-46496D03*
X39646Y-45496D03*
G54D26*
X57500Y-36700D03*
X56500Y-37700D03*
X55500Y-36700D03*
G54D27*
X50565Y-40950D03*
X39935Y-40950D03*
G54D28*
X47258Y-50950D03*
X43242Y-50950D03*
G54D29*
X45880Y-50950D03*
X44620Y-50950D03*
G54D30*
X73500Y-37500D03*
G54D31*
X73500Y-34606D03*
G54D30*
X73500Y-44500D03*
G54D32*
X70606Y-44500D03*
G54D30*
X56500Y-45000D03*
G54D33*
X56500Y-39094D03*
X54925Y-39094D03*
X58075Y-39094D03*
G54D34*
X48300Y-36600D03*
X48300Y-39400D03*
X48300Y-37500D03*
X49800Y-37500D03*
X48300Y-38800D03*
X47550Y-35650D03*
X47550Y-33350D03*
G54D35*
X46323Y-36150D02*
X47850Y-36150D01*
X47850Y-36150D02*
X48300Y-36600D01*
X45600Y-35800D02*
X45600Y-36152D01*
X45750Y-36150D02*
X45674Y-36226D01*
X45600Y-36152D02*
X45674Y-36226D01*
X44277Y-35150D02*
X44950Y-35150D01*
G54D36*
X46323Y-36150D02*
X45750Y-36150D01*
G54D35*
X45674Y-36226D02*
X45674Y-38100D01*
X44950Y-35150D02*
X45600Y-35800D01*
X47950Y-35150D02*
X49000Y-36200D01*
X49000Y-45551D02*
X46801Y-47750D01*
X46801Y-50493D02*
X47258Y-50950D01*
X46801Y-47750D02*
X46801Y-50493D01*
X49000Y-36200D02*
X49000Y-45551D01*
X44700Y-45150D02*
X44250Y-45600D01*
X46801Y-47750D02*
X46801Y-45501D01*
X46450Y-45150D02*
X44700Y-45150D01*
X46801Y-45501D02*
X46450Y-45150D01*
X46323Y-35150D02*
X47950Y-35150D01*
X44250Y-45600D02*
X44250Y-46350D01*
X46050Y-45750D02*
X45850Y-45550D01*
X51434Y-48334D02*
X50900Y-47800D01*
X43850Y-47050D02*
X43499Y-47401D01*
X44950Y-45550D02*
X44700Y-45800D01*
X45850Y-45550D02*
X44950Y-45550D01*
X46050Y-46350D02*
X46050Y-45750D01*
X44700Y-45800D02*
X44700Y-46900D01*
X51400Y-50066D02*
X51434Y-50100D01*
X45250Y-51750D02*
X45700Y-52200D01*
X43499Y-47401D02*
X43499Y-47750D01*
X44550Y-47050D02*
X43850Y-47050D01*
X44700Y-46900D02*
X44550Y-47050D01*
X49050Y-51600D02*
X49050Y-49650D01*
X50900Y-42900D02*
X53600Y-40200D01*
X48450Y-52200D02*
X49050Y-51600D01*
X51434Y-50100D02*
X51434Y-48334D01*
X56969Y-40200D02*
X58075Y-39094D01*
X53600Y-40200D02*
X56969Y-40200D01*
X46050Y-46900D02*
X46250Y-47100D01*
X45700Y-52200D02*
X48450Y-52200D01*
X45250Y-50350D02*
X45250Y-51750D01*
X50900Y-47800D02*
X50900Y-42900D01*
X46250Y-47100D02*
X46250Y-49350D01*
X46250Y-49350D02*
X45250Y-50350D01*
X49050Y-49650D02*
X50900Y-47800D01*
X46050Y-46900D02*
X46050Y-46350D01*
X43600Y-36150D02*
X44277Y-36150D01*
X43600Y-36150D02*
X43300Y-35850D01*
X43300Y-34550D02*
X43800Y-34050D01*
X66200Y-32100D02*
X65350Y-32100D01*
X65350Y-33450D02*
X65350Y-32100D01*
X60950Y-34050D02*
X64750Y-34050D01*
X43300Y-35850D02*
X43300Y-34550D01*
X43800Y-34050D02*
X60950Y-34050D01*
X64750Y-34050D02*
X65350Y-33450D01*
X51513Y-51200D02*
X66500Y-51200D01*
X43350Y-36650D02*
X42350Y-37650D01*
X43350Y-36650D02*
X42700Y-36000D01*
X43350Y-38550D02*
X44200Y-39400D01*
X54925Y-38275D02*
X56200Y-37000D01*
X54925Y-39094D02*
X54925Y-38275D01*
X41046Y-47496D02*
X42350Y-48800D01*
X44200Y-39400D02*
X48300Y-39400D01*
X56200Y-37000D02*
X57200Y-37000D01*
X57200Y-37000D02*
X57500Y-36700D01*
X39646Y-47496D02*
X41046Y-47496D01*
X66500Y-51200D02*
X69400Y-48300D01*
X42700Y-34326D02*
X44926Y-32100D01*
X42350Y-48800D02*
X44950Y-48800D01*
X44277Y-36650D02*
X43350Y-36650D01*
X42350Y-37650D02*
X42350Y-48800D01*
X43350Y-36650D02*
X43350Y-38550D01*
X42700Y-36000D02*
X42700Y-34326D01*
X45699Y-47750D02*
X45150Y-47750D01*
X44277Y-36650D02*
X43350Y-36650D01*
X44950Y-48800D02*
X45150Y-48600D01*
X45150Y-48600D02*
X45150Y-47750D01*
X45150Y-47750D02*
X44601Y-47750D01*
X45150Y-47750D02*
X45150Y-46350D01*
X39900Y-49250D02*
X41550Y-49250D01*
X41550Y-49250D02*
X41550Y-49258D01*
X38750Y-46550D02*
X38750Y-48100D01*
X39646Y-46496D02*
X38804Y-46496D01*
X38804Y-46496D02*
X38750Y-46550D01*
X41550Y-49258D02*
X43242Y-50950D01*
X38750Y-48100D02*
X39900Y-49250D01*
X50687Y-51200D02*
X50687Y-50179D01*
X50687Y-50179D02*
X50766Y-50100D01*
X58600Y-37100D02*
X58600Y-36500D01*
X58600Y-36500D02*
X57800Y-35700D01*
X57800Y-35700D02*
X51600Y-35700D01*
X51600Y-35700D02*
X49800Y-37500D01*
X47450Y-36650D02*
X46323Y-36650D01*
X56606Y-39094D02*
X58600Y-37100D01*
X56500Y-39094D02*
X56606Y-39094D01*
X47450Y-36650D02*
X48300Y-37500D01*
X44750Y-35650D02*
X45100Y-36000D01*
X45100Y-37926D02*
X44926Y-38100D01*
X45100Y-36000D02*
X45100Y-37926D01*
X44277Y-35650D02*
X44750Y-35650D01*
X44926Y-38100D02*
X44926Y-38826D01*
X44952Y-38800D02*
X48300Y-38800D01*
X44926Y-38826D02*
X44952Y-38800D01*
X51400Y-28700D02*
X62500Y-28700D01*
X63100Y-26900D02*
X65800Y-26900D01*
X46400Y-32100D02*
X50213Y-28287D01*
X46323Y-35650D02*
X47550Y-35650D01*
X66000Y-27100D02*
X66000Y-27600D01*
X47550Y-33350D02*
X46600Y-33350D01*
X45674Y-32424D02*
X45674Y-32100D01*
X62900Y-28300D02*
X62900Y-27100D01*
X51300Y-28100D02*
X51300Y-28600D01*
X50213Y-27559D02*
X50759Y-27559D01*
X46600Y-33350D02*
X45674Y-32424D01*
X50213Y-28287D02*
X50213Y-27559D01*
X66000Y-27600D02*
X65961Y-27559D01*
X65800Y-26900D02*
X66000Y-27100D01*
X50759Y-27559D02*
X51300Y-28100D01*
X51300Y-28600D02*
X51400Y-28700D01*
X62500Y-28700D02*
X62900Y-28300D01*
X45674Y-32100D02*
X46400Y-32100D01*
X62900Y-27100D02*
X63100Y-26900D01*
G54D10*
G36*
X76532Y-52516D02*
X76062Y-52516D01*
X76062Y-44249D01*
X76062Y-37249D01*
X75964Y-36756D01*
X75773Y-36292D01*
X75495Y-35873D01*
X75141Y-35517D01*
X74811Y-35294D01*
X74811Y-24924D01*
X74736Y-24544D01*
X74588Y-24186D01*
X74373Y-23863D01*
X74100Y-23588D01*
X73779Y-23371D01*
X73422Y-23221D01*
X73042Y-23143D01*
X72655Y-23141D01*
X72274Y-23213D01*
X71915Y-23359D01*
X71591Y-23571D01*
X71314Y-23842D01*
X71095Y-24162D01*
X70942Y-24518D01*
X70862Y-24897D01*
X70856Y-25284D01*
X70926Y-25666D01*
X71069Y-26026D01*
X71279Y-26351D01*
X71548Y-26630D01*
X71867Y-26851D01*
X72222Y-27006D01*
X72600Y-27090D01*
X72988Y-27098D01*
X73369Y-27030D01*
X73730Y-26890D01*
X74058Y-26682D01*
X74338Y-26415D01*
X74562Y-26099D01*
X74719Y-25744D01*
X74805Y-25367D01*
X74811Y-24924D01*
X74811Y-35294D01*
X74725Y-35236D01*
X74289Y-35052D01*
X74289Y-33750D01*
X74281Y-33712D01*
X74266Y-33676D01*
X74245Y-33643D01*
X74217Y-33616D01*
X74185Y-33594D01*
X74149Y-33579D01*
X74110Y-33571D01*
X74071Y-33571D01*
X72890Y-33571D01*
X72852Y-33579D01*
X72816Y-33594D01*
X72783Y-33615D01*
X72756Y-33643D01*
X72734Y-33675D01*
X72719Y-33711D01*
X72711Y-33750D01*
X72711Y-33789D01*
X72711Y-35055D01*
X72308Y-35219D01*
X71887Y-35494D01*
X71528Y-35845D01*
X71244Y-36260D01*
X71046Y-36721D01*
X70942Y-37213D01*
X70935Y-37715D01*
X71025Y-38209D01*
X71210Y-38677D01*
X71482Y-39099D01*
X71831Y-39460D01*
X72244Y-39747D01*
X72704Y-39948D01*
X73195Y-40056D01*
X73697Y-40067D01*
X74192Y-39979D01*
X74660Y-39798D01*
X75085Y-39529D01*
X75449Y-39182D01*
X75738Y-38772D01*
X75943Y-38313D01*
X76054Y-37823D01*
X76062Y-37249D01*
X76062Y-44249D01*
X75964Y-43756D01*
X75773Y-43292D01*
X75495Y-42873D01*
X75141Y-42517D01*
X74725Y-42236D01*
X74261Y-42041D01*
X73769Y-41940D01*
X73267Y-41936D01*
X72773Y-42030D01*
X72308Y-42219D01*
X71887Y-42494D01*
X71528Y-42845D01*
X71244Y-43260D01*
X71050Y-43711D01*
X69750Y-43711D01*
X69712Y-43719D01*
X69676Y-43734D01*
X69643Y-43755D01*
X69616Y-43783D01*
X69594Y-43815D01*
X69579Y-43851D01*
X69571Y-43890D01*
X69571Y-43929D01*
X69571Y-45110D01*
X69579Y-45148D01*
X69594Y-45184D01*
X69615Y-45217D01*
X69643Y-45244D01*
X69675Y-45266D01*
X69711Y-45281D01*
X69750Y-45289D01*
X69789Y-45289D01*
X71056Y-45289D01*
X71210Y-45677D01*
X71482Y-46099D01*
X71831Y-46460D01*
X72244Y-46747D01*
X72704Y-46948D01*
X73195Y-47056D01*
X73697Y-47067D01*
X74192Y-46979D01*
X74660Y-46798D01*
X75085Y-46529D01*
X75449Y-46182D01*
X75738Y-45772D01*
X75943Y-45313D01*
X76054Y-44823D01*
X76062Y-44249D01*
X76062Y-52516D01*
X68200Y-52516D01*
X68200Y-37051D01*
X68200Y-32051D01*
X68181Y-31955D01*
X68144Y-31864D01*
X68089Y-31782D01*
X68020Y-31713D01*
X67939Y-31658D01*
X67849Y-31620D01*
X67753Y-31600D01*
X67654Y-31600D01*
X67558Y-31618D01*
X67467Y-31655D01*
X67385Y-31708D01*
X67315Y-31777D01*
X67260Y-31858D01*
X67221Y-31948D01*
X67201Y-32044D01*
X67199Y-32142D01*
X67217Y-32238D01*
X67253Y-32330D01*
X67306Y-32412D01*
X67374Y-32483D01*
X67455Y-32539D01*
X67545Y-32578D01*
X67640Y-32599D01*
X67739Y-32601D01*
X67835Y-32584D01*
X67926Y-32548D01*
X68009Y-32496D01*
X68080Y-32428D01*
X68137Y-32348D01*
X68177Y-32259D01*
X68198Y-32163D01*
X68200Y-32051D01*
X68200Y-37051D01*
X68181Y-36955D01*
X68144Y-36864D01*
X68089Y-36782D01*
X68020Y-36713D01*
X67939Y-36658D01*
X67849Y-36620D01*
X67753Y-36600D01*
X67654Y-36600D01*
X67558Y-36618D01*
X67467Y-36655D01*
X67385Y-36708D01*
X67315Y-36777D01*
X67260Y-36858D01*
X67221Y-36948D01*
X67201Y-37044D01*
X67199Y-37142D01*
X67217Y-37238D01*
X67253Y-37330D01*
X67306Y-37412D01*
X67374Y-37483D01*
X67455Y-37539D01*
X67545Y-37578D01*
X67640Y-37599D01*
X67739Y-37601D01*
X67835Y-37584D01*
X67926Y-37548D01*
X68009Y-37496D01*
X68080Y-37428D01*
X68137Y-37348D01*
X68177Y-37259D01*
X68198Y-37163D01*
X68200Y-37051D01*
X68200Y-52516D01*
X66700Y-52516D01*
X66700Y-37051D01*
X66681Y-36955D01*
X66644Y-36864D01*
X66589Y-36782D01*
X66520Y-36713D01*
X66439Y-36658D01*
X66349Y-36620D01*
X66253Y-36600D01*
X66154Y-36600D01*
X66058Y-36618D01*
X65967Y-36655D01*
X65885Y-36708D01*
X65815Y-36777D01*
X65760Y-36858D01*
X65721Y-36948D01*
X65701Y-37044D01*
X65699Y-37142D01*
X65717Y-37238D01*
X65753Y-37330D01*
X65806Y-37412D01*
X65874Y-37483D01*
X65955Y-37539D01*
X66045Y-37578D01*
X66140Y-37599D01*
X66239Y-37601D01*
X66335Y-37584D01*
X66426Y-37548D01*
X66509Y-37496D01*
X66580Y-37428D01*
X66637Y-37348D01*
X66677Y-37259D01*
X66698Y-37163D01*
X66700Y-37051D01*
X66700Y-52516D01*
X66670Y-52516D01*
X66670Y-48097D01*
X66591Y-47699D01*
X66436Y-47324D01*
X66212Y-46985D01*
X65926Y-46697D01*
X65589Y-46470D01*
X65215Y-46313D01*
X64900Y-46248D01*
X64900Y-37051D01*
X64881Y-36955D01*
X64844Y-36864D01*
X64789Y-36782D01*
X64720Y-36713D01*
X64639Y-36658D01*
X64549Y-36620D01*
X64453Y-36600D01*
X64354Y-36600D01*
X64258Y-36618D01*
X64167Y-36655D01*
X64085Y-36708D01*
X64015Y-36777D01*
X63960Y-36858D01*
X63921Y-36948D01*
X63901Y-37044D01*
X63899Y-37142D01*
X63917Y-37238D01*
X63953Y-37330D01*
X64006Y-37412D01*
X64074Y-37483D01*
X64155Y-37539D01*
X64245Y-37578D01*
X64340Y-37599D01*
X64439Y-37601D01*
X64535Y-37584D01*
X64626Y-37548D01*
X64709Y-37496D01*
X64780Y-37428D01*
X64837Y-37348D01*
X64877Y-37259D01*
X64898Y-37163D01*
X64900Y-37051D01*
X64900Y-46248D01*
X64817Y-46231D01*
X64411Y-46229D01*
X64013Y-46305D01*
X63636Y-46457D01*
X63400Y-46611D01*
X63400Y-37051D01*
X63381Y-36955D01*
X63344Y-36864D01*
X63289Y-36782D01*
X63220Y-36713D01*
X63139Y-36658D01*
X63049Y-36620D01*
X62953Y-36600D01*
X62854Y-36600D01*
X62758Y-36618D01*
X62667Y-36655D01*
X62585Y-36708D01*
X62515Y-36777D01*
X62460Y-36858D01*
X62421Y-36948D01*
X62401Y-37044D01*
X62399Y-37142D01*
X62417Y-37238D01*
X62453Y-37330D01*
X62506Y-37412D01*
X62574Y-37483D01*
X62655Y-37539D01*
X62745Y-37578D01*
X62840Y-37599D01*
X62939Y-37601D01*
X63035Y-37584D01*
X63126Y-37548D01*
X63209Y-37496D01*
X63280Y-37428D01*
X63337Y-37348D01*
X63377Y-37259D01*
X63398Y-37163D01*
X63400Y-37051D01*
X63400Y-46611D01*
X63297Y-46679D01*
X63007Y-46963D01*
X62777Y-47298D01*
X62617Y-47671D01*
X62533Y-48068D01*
X62527Y-48474D01*
X62601Y-48873D01*
X62750Y-49251D01*
X62970Y-49592D01*
X63252Y-49884D01*
X63585Y-50116D01*
X63957Y-50278D01*
X64354Y-50365D01*
X64760Y-50374D01*
X65159Y-50303D01*
X65538Y-50157D01*
X65881Y-49939D01*
X66175Y-49659D01*
X66409Y-49327D01*
X66574Y-48956D01*
X66664Y-48561D01*
X66670Y-48097D01*
X66670Y-52516D01*
X59062Y-52516D01*
X59062Y-44749D01*
X58964Y-44256D01*
X58925Y-44161D01*
X58925Y-37105D01*
X58925Y-37102D01*
X58925Y-37100D01*
X58925Y-36500D01*
X58919Y-36440D01*
X58919Y-36437D01*
X58911Y-36411D01*
X58902Y-36379D01*
X58900Y-36376D01*
X58873Y-36323D01*
X58871Y-36321D01*
X58871Y-36320D01*
X58851Y-36295D01*
X58833Y-36273D01*
X58831Y-36271D01*
X58830Y-36270D01*
X58030Y-35470D01*
X57995Y-35442D01*
X57984Y-35432D01*
X57982Y-35431D01*
X57981Y-35430D01*
X57968Y-35423D01*
X57928Y-35401D01*
X57924Y-35400D01*
X57868Y-35382D01*
X57866Y-35381D01*
X57864Y-35381D01*
X57829Y-35377D01*
X57805Y-35375D01*
X57801Y-35375D01*
X57800Y-35375D01*
X51600Y-35375D01*
X51537Y-35381D01*
X51511Y-35388D01*
X51479Y-35398D01*
X51423Y-35427D01*
X51421Y-35428D01*
X51420Y-35429D01*
X51395Y-35449D01*
X51373Y-35467D01*
X51372Y-35467D01*
X51371Y-35469D01*
X51366Y-35474D01*
X49701Y-37138D01*
X49694Y-37140D01*
X49626Y-37167D01*
X49564Y-37207D01*
X49512Y-37259D01*
X49471Y-37319D01*
X49442Y-37387D01*
X49426Y-37458D01*
X49426Y-37532D01*
X49439Y-37604D01*
X49466Y-37672D01*
X49506Y-37734D01*
X49557Y-37786D01*
X49617Y-37828D01*
X49684Y-37858D01*
X49756Y-37873D01*
X49829Y-37875D01*
X49901Y-37862D01*
X49970Y-37835D01*
X50032Y-37796D01*
X50085Y-37745D01*
X50127Y-37685D01*
X50157Y-37618D01*
X50161Y-37598D01*
X51734Y-36025D01*
X57665Y-36025D01*
X58275Y-36635D01*
X58275Y-36965D01*
X56920Y-38319D01*
X56920Y-37659D01*
X56904Y-37578D01*
X56873Y-37502D01*
X56827Y-37433D01*
X56769Y-37375D01*
X56701Y-37329D01*
X56625Y-37297D01*
X56544Y-37280D01*
X56462Y-37280D01*
X56381Y-37295D01*
X56305Y-37326D01*
X56236Y-37371D01*
X56177Y-37429D01*
X56130Y-37497D01*
X56098Y-37572D01*
X56081Y-37653D01*
X56079Y-37735D01*
X56094Y-37816D01*
X56125Y-37893D01*
X56169Y-37962D01*
X56226Y-38021D01*
X56294Y-38068D01*
X56369Y-38101D01*
X56450Y-38119D01*
X56532Y-38121D01*
X56613Y-38106D01*
X56690Y-38077D01*
X56760Y-38033D01*
X56819Y-37976D01*
X56867Y-37909D01*
X56900Y-37833D01*
X56919Y-37753D01*
X56920Y-37659D01*
X56920Y-38319D01*
X56779Y-38460D01*
X56705Y-38430D01*
X56573Y-38402D01*
X56437Y-38402D01*
X56304Y-38427D01*
X56178Y-38478D01*
X56064Y-38552D01*
X55967Y-38647D01*
X55920Y-38716D01*
X55920Y-36659D01*
X55904Y-36578D01*
X55873Y-36502D01*
X55827Y-36433D01*
X55769Y-36375D01*
X55701Y-36329D01*
X55625Y-36297D01*
X55544Y-36280D01*
X55462Y-36280D01*
X55381Y-36295D01*
X55305Y-36326D01*
X55236Y-36371D01*
X55177Y-36429D01*
X55130Y-36497D01*
X55098Y-36572D01*
X55081Y-36653D01*
X55079Y-36735D01*
X55094Y-36816D01*
X55125Y-36893D01*
X55169Y-36962D01*
X55226Y-37021D01*
X55294Y-37068D01*
X55369Y-37101D01*
X55450Y-37119D01*
X55532Y-37121D01*
X55613Y-37106D01*
X55690Y-37077D01*
X55760Y-37033D01*
X55819Y-36976D01*
X55867Y-36909D01*
X55900Y-36833D01*
X55919Y-36753D01*
X55920Y-36659D01*
X55920Y-38716D01*
X55891Y-38759D01*
X55837Y-38884D01*
X55809Y-39017D01*
X55807Y-39152D01*
X55832Y-39286D01*
X55882Y-39412D01*
X55955Y-39526D01*
X56049Y-39624D01*
X56161Y-39701D01*
X56285Y-39755D01*
X56418Y-39784D01*
X56553Y-39787D01*
X56687Y-39764D01*
X56814Y-39715D01*
X56928Y-39642D01*
X57026Y-39548D01*
X57105Y-39437D01*
X57160Y-39313D01*
X57190Y-39181D01*
X57192Y-39026D01*
X57182Y-38977D01*
X58827Y-37332D01*
X58829Y-37330D01*
X58840Y-37316D01*
X58868Y-37284D01*
X58869Y-37282D01*
X58899Y-37228D01*
X58899Y-37225D01*
X58918Y-37168D01*
X58918Y-37165D01*
X58925Y-37105D01*
X58925Y-44161D01*
X58773Y-43792D01*
X58495Y-43373D01*
X58141Y-43017D01*
X57725Y-42736D01*
X57261Y-42541D01*
X56769Y-42440D01*
X56267Y-42436D01*
X55773Y-42530D01*
X55308Y-42719D01*
X54887Y-42994D01*
X54528Y-43345D01*
X54244Y-43760D01*
X54046Y-44221D01*
X53942Y-44713D01*
X53935Y-45215D01*
X54025Y-45709D01*
X54210Y-46177D01*
X54482Y-46599D01*
X54831Y-46960D01*
X55244Y-47247D01*
X55704Y-47448D01*
X56195Y-47556D01*
X56697Y-47567D01*
X57192Y-47479D01*
X57660Y-47298D01*
X58085Y-47029D01*
X58449Y-46682D01*
X58738Y-46272D01*
X58943Y-45813D01*
X59054Y-45323D01*
X59062Y-44749D01*
X59062Y-52516D01*
X50478Y-52516D01*
X48615Y-52478D01*
X48627Y-52473D01*
X48628Y-52471D01*
X48630Y-52471D01*
X48676Y-52433D01*
X48679Y-52431D01*
X48679Y-52430D01*
X48680Y-52430D01*
X49277Y-51832D01*
X49279Y-51830D01*
X49293Y-51813D01*
X49318Y-51784D01*
X49318Y-51782D01*
X49320Y-51781D01*
X49324Y-51771D01*
X49349Y-51728D01*
X49349Y-51725D01*
X49368Y-51668D01*
X49369Y-51665D01*
X49373Y-51623D01*
X49375Y-51605D01*
X49375Y-51602D01*
X49375Y-51600D01*
X49375Y-49785D01*
X50900Y-48260D01*
X51109Y-48469D01*
X51109Y-49731D01*
X51099Y-49740D01*
X51089Y-49730D01*
X51057Y-49708D01*
X51021Y-49693D01*
X50982Y-49685D01*
X50943Y-49685D01*
X50550Y-49685D01*
X50512Y-49693D01*
X50476Y-49708D01*
X50443Y-49729D01*
X50416Y-49757D01*
X50394Y-49789D01*
X50379Y-49825D01*
X50371Y-49864D01*
X50371Y-49903D01*
X50371Y-50104D01*
X50369Y-50111D01*
X50368Y-50112D01*
X50368Y-50115D01*
X50364Y-50150D01*
X50362Y-50174D01*
X50362Y-50178D01*
X50362Y-50179D01*
X50362Y-50785D01*
X50357Y-50788D01*
X50324Y-50809D01*
X50297Y-50837D01*
X50275Y-50869D01*
X50260Y-50905D01*
X50252Y-50944D01*
X50252Y-50983D01*
X50252Y-51456D01*
X50260Y-51494D01*
X50275Y-51530D01*
X50296Y-51563D01*
X50324Y-51590D01*
X50356Y-51612D01*
X50392Y-51627D01*
X50431Y-51635D01*
X50470Y-51635D01*
X50943Y-51635D01*
X50981Y-51627D01*
X51017Y-51612D01*
X51050Y-51591D01*
X51077Y-51563D01*
X51099Y-51531D01*
X51114Y-51495D01*
X51122Y-51456D01*
X51122Y-51417D01*
X51122Y-50944D01*
X51114Y-50906D01*
X51099Y-50870D01*
X51078Y-50837D01*
X51050Y-50810D01*
X51018Y-50788D01*
X51012Y-50785D01*
X51012Y-50508D01*
X51020Y-50507D01*
X51056Y-50492D01*
X51089Y-50471D01*
X51100Y-50459D01*
X51111Y-50470D01*
X51143Y-50492D01*
X51179Y-50507D01*
X51218Y-50515D01*
X51257Y-50515D01*
X51650Y-50515D01*
X51688Y-50507D01*
X51724Y-50492D01*
X51757Y-50471D01*
X51784Y-50443D01*
X51806Y-50411D01*
X51821Y-50375D01*
X51829Y-50336D01*
X51829Y-50297D01*
X51829Y-49864D01*
X51821Y-49826D01*
X51806Y-49790D01*
X51785Y-49757D01*
X51759Y-49731D01*
X51759Y-48334D01*
X51753Y-48274D01*
X51753Y-48271D01*
X51745Y-48245D01*
X51736Y-48213D01*
X51734Y-48210D01*
X51707Y-48157D01*
X51705Y-48155D01*
X51705Y-48154D01*
X51667Y-48108D01*
X51665Y-48105D01*
X51664Y-48104D01*
X51225Y-47665D01*
X51225Y-43035D01*
X53735Y-40525D01*
X56965Y-40525D01*
X56969Y-40525D01*
X56989Y-40523D01*
X57028Y-40520D01*
X57031Y-40519D01*
X57032Y-40519D01*
X57039Y-40516D01*
X57090Y-40502D01*
X57093Y-40500D01*
X57146Y-40473D01*
X57147Y-40471D01*
X57149Y-40471D01*
X57195Y-40433D01*
X57198Y-40431D01*
X57198Y-40430D01*
X57199Y-40430D01*
X57871Y-39757D01*
X57993Y-39784D01*
X58128Y-39787D01*
X58262Y-39764D01*
X58389Y-39715D01*
X58503Y-39642D01*
X58601Y-39548D01*
X58680Y-39437D01*
X58735Y-39313D01*
X58765Y-39181D01*
X58767Y-39026D01*
X58741Y-38893D01*
X58689Y-38767D01*
X58614Y-38654D01*
X58518Y-38558D01*
X58406Y-38482D01*
X58280Y-38430D01*
X58148Y-38402D01*
X58012Y-38402D01*
X57879Y-38427D01*
X57753Y-38478D01*
X57639Y-38552D01*
X57542Y-38647D01*
X57466Y-38759D01*
X57412Y-38884D01*
X57384Y-39017D01*
X57382Y-39152D01*
X57407Y-39286D01*
X57411Y-39297D01*
X56834Y-39875D01*
X53600Y-39875D01*
X53537Y-39881D01*
X53511Y-39888D01*
X53479Y-39898D01*
X53423Y-39927D01*
X53421Y-39928D01*
X53420Y-39929D01*
X53395Y-39949D01*
X53373Y-39967D01*
X53371Y-39969D01*
X53370Y-39970D01*
X51748Y-41592D01*
X51748Y-40834D01*
X51703Y-40606D01*
X51615Y-40392D01*
X51486Y-40199D01*
X51323Y-40034D01*
X51130Y-39904D01*
X50916Y-39814D01*
X50689Y-39768D01*
X50457Y-39766D01*
X50229Y-39810D01*
X50014Y-39897D01*
X49820Y-40024D01*
X49654Y-40186D01*
X49523Y-40377D01*
X49432Y-40591D01*
X49384Y-40818D01*
X49380Y-41049D01*
X49422Y-41278D01*
X49508Y-41493D01*
X49633Y-41688D01*
X49795Y-41855D01*
X49985Y-41988D01*
X50198Y-42080D01*
X50424Y-42130D01*
X50656Y-42135D01*
X50885Y-42095D01*
X51101Y-42011D01*
X51297Y-41887D01*
X51465Y-41727D01*
X51599Y-41537D01*
X51693Y-41325D01*
X51744Y-41099D01*
X51748Y-40834D01*
X51748Y-41592D01*
X50670Y-42670D01*
X50642Y-42704D01*
X50632Y-42716D01*
X50631Y-42717D01*
X50630Y-42719D01*
X50623Y-42731D01*
X50601Y-42772D01*
X50582Y-42832D01*
X50581Y-42833D01*
X50581Y-42836D01*
X50577Y-42871D01*
X50575Y-42895D01*
X50575Y-42899D01*
X50575Y-42900D01*
X50575Y-47665D01*
X48820Y-49420D01*
X48792Y-49454D01*
X48782Y-49466D01*
X48781Y-49467D01*
X48780Y-49469D01*
X48773Y-49481D01*
X48751Y-49522D01*
X48732Y-49582D01*
X48731Y-49583D01*
X48731Y-49586D01*
X48727Y-49621D01*
X48725Y-49645D01*
X48725Y-49649D01*
X48725Y-49650D01*
X48725Y-51465D01*
X48315Y-51875D01*
X45835Y-51875D01*
X45575Y-51615D01*
X45575Y-51340D01*
X45637Y-51384D01*
X45726Y-51423D01*
X45821Y-51444D01*
X45918Y-51446D01*
X46013Y-51429D01*
X46104Y-51394D01*
X46186Y-51342D01*
X46256Y-51275D01*
X46312Y-51196D01*
X46352Y-51107D01*
X46369Y-51030D01*
X46399Y-51196D01*
X46463Y-51358D01*
X46558Y-51505D01*
X46679Y-51630D01*
X46822Y-51730D01*
X46982Y-51799D01*
X47152Y-51837D01*
X47326Y-51841D01*
X47498Y-51810D01*
X47661Y-51747D01*
X47808Y-51654D01*
X47934Y-51534D01*
X48035Y-51391D01*
X48106Y-51232D01*
X48144Y-51062D01*
X48147Y-50863D01*
X48113Y-50692D01*
X48047Y-50531D01*
X47950Y-50386D01*
X47828Y-50262D01*
X47683Y-50164D01*
X47522Y-50097D01*
X47352Y-50062D01*
X47177Y-50060D01*
X47126Y-50069D01*
X47126Y-48303D01*
X47135Y-48303D01*
X47173Y-48295D01*
X47209Y-48280D01*
X47242Y-48259D01*
X47269Y-48231D01*
X47291Y-48199D01*
X47306Y-48163D01*
X47314Y-48124D01*
X47314Y-48085D01*
X47314Y-47696D01*
X49227Y-45783D01*
X49229Y-45781D01*
X49268Y-45735D01*
X49270Y-45733D01*
X49280Y-45713D01*
X49299Y-45679D01*
X49299Y-45676D01*
X49318Y-45619D01*
X49318Y-45616D01*
X49325Y-45556D01*
X49325Y-45553D01*
X49325Y-45551D01*
X49325Y-36200D01*
X49319Y-36140D01*
X49319Y-36137D01*
X49306Y-36095D01*
X49301Y-36078D01*
X49300Y-36076D01*
X49272Y-36023D01*
X49271Y-36020D01*
X49240Y-35983D01*
X49233Y-35973D01*
X49232Y-35972D01*
X49231Y-35971D01*
X49229Y-35970D01*
X49225Y-35966D01*
X48182Y-34923D01*
X48180Y-34920D01*
X48145Y-34892D01*
X48134Y-34882D01*
X48132Y-34881D01*
X48131Y-34880D01*
X48118Y-34873D01*
X48078Y-34851D01*
X48074Y-34850D01*
X48018Y-34832D01*
X48016Y-34831D01*
X48014Y-34831D01*
X47979Y-34827D01*
X47955Y-34825D01*
X47951Y-34825D01*
X47950Y-34825D01*
X46323Y-34825D01*
X46260Y-34831D01*
X46253Y-34833D01*
X45870Y-34833D01*
X45832Y-34841D01*
X45796Y-34856D01*
X45763Y-34877D01*
X45736Y-34905D01*
X45714Y-34937D01*
X45699Y-34973D01*
X45691Y-35012D01*
X45691Y-35051D01*
X45691Y-35288D01*
X45699Y-35326D01*
X45714Y-35362D01*
X45735Y-35395D01*
X45740Y-35400D01*
X45736Y-35405D01*
X45714Y-35437D01*
X45709Y-35449D01*
X45180Y-34920D01*
X45145Y-34892D01*
X45134Y-34882D01*
X45132Y-34881D01*
X45131Y-34880D01*
X45118Y-34873D01*
X45078Y-34851D01*
X45074Y-34850D01*
X45018Y-34832D01*
X45016Y-34831D01*
X45014Y-34831D01*
X44979Y-34827D01*
X44955Y-34825D01*
X44951Y-34825D01*
X44950Y-34825D01*
X44277Y-34825D01*
X44214Y-34831D01*
X44207Y-34833D01*
X43824Y-34833D01*
X43786Y-34841D01*
X43750Y-34856D01*
X43717Y-34877D01*
X43690Y-34905D01*
X43668Y-34937D01*
X43653Y-34973D01*
X43645Y-35012D01*
X43645Y-35051D01*
X43645Y-35288D01*
X43653Y-35326D01*
X43668Y-35362D01*
X43689Y-35395D01*
X43694Y-35400D01*
X43690Y-35405D01*
X43668Y-35437D01*
X43653Y-35473D01*
X43645Y-35512D01*
X43645Y-35551D01*
X43645Y-35735D01*
X43625Y-35715D01*
X43625Y-34685D01*
X43935Y-34375D01*
X60945Y-34375D01*
X60950Y-34375D01*
X64746Y-34375D01*
X64750Y-34375D01*
X64770Y-34373D01*
X64809Y-34370D01*
X64812Y-34369D01*
X64813Y-34369D01*
X64820Y-34366D01*
X64871Y-34352D01*
X64874Y-34350D01*
X64927Y-34323D01*
X64928Y-34321D01*
X64930Y-34321D01*
X64976Y-34283D01*
X64979Y-34281D01*
X64979Y-34280D01*
X64980Y-34280D01*
X65577Y-33682D01*
X65579Y-33680D01*
X65593Y-33663D01*
X65618Y-33634D01*
X65618Y-33632D01*
X65620Y-33631D01*
X65624Y-33621D01*
X65649Y-33578D01*
X65649Y-33575D01*
X65668Y-33518D01*
X65669Y-33515D01*
X65673Y-33473D01*
X65675Y-33455D01*
X65675Y-33452D01*
X65675Y-33450D01*
X65675Y-32425D01*
X65818Y-32425D01*
X65874Y-32483D01*
X65955Y-32539D01*
X66045Y-32578D01*
X66140Y-32599D01*
X66239Y-32601D01*
X66335Y-32584D01*
X66426Y-32548D01*
X66509Y-32496D01*
X66580Y-32428D01*
X66637Y-32348D01*
X66677Y-32259D01*
X66698Y-32163D01*
X66700Y-32051D01*
X66681Y-31955D01*
X66644Y-31864D01*
X66589Y-31782D01*
X66520Y-31713D01*
X66439Y-31658D01*
X66349Y-31620D01*
X66253Y-31600D01*
X66154Y-31600D01*
X66058Y-31618D01*
X65967Y-31655D01*
X65885Y-31708D01*
X65817Y-31775D01*
X65352Y-31775D01*
X65350Y-31775D01*
X65287Y-31781D01*
X65251Y-31792D01*
X65228Y-31799D01*
X65226Y-31799D01*
X65226Y-31800D01*
X65170Y-31829D01*
X65121Y-31869D01*
X65096Y-31899D01*
X65082Y-31916D01*
X65051Y-31972D01*
X65050Y-31972D01*
X65050Y-31974D01*
X65044Y-31990D01*
X65032Y-32032D01*
X65025Y-32095D01*
X65025Y-32098D01*
X65025Y-32100D01*
X65025Y-33315D01*
X64900Y-33440D01*
X64900Y-32051D01*
X64881Y-31955D01*
X64844Y-31864D01*
X64789Y-31782D01*
X64720Y-31713D01*
X64639Y-31658D01*
X64549Y-31620D01*
X64453Y-31600D01*
X64354Y-31600D01*
X64258Y-31618D01*
X64167Y-31655D01*
X64085Y-31708D01*
X64015Y-31777D01*
X63960Y-31858D01*
X63921Y-31948D01*
X63901Y-32044D01*
X63899Y-32142D01*
X63917Y-32238D01*
X63953Y-32330D01*
X64006Y-32412D01*
X64074Y-32483D01*
X64155Y-32539D01*
X64245Y-32578D01*
X64340Y-32599D01*
X64439Y-32601D01*
X64535Y-32584D01*
X64626Y-32548D01*
X64709Y-32496D01*
X64780Y-32428D01*
X64837Y-32348D01*
X64877Y-32259D01*
X64898Y-32163D01*
X64900Y-32051D01*
X64900Y-33440D01*
X64615Y-33725D01*
X63400Y-33725D01*
X63400Y-32051D01*
X63381Y-31955D01*
X63344Y-31864D01*
X63289Y-31782D01*
X63220Y-31713D01*
X63139Y-31658D01*
X63049Y-31620D01*
X62953Y-31600D01*
X62854Y-31600D01*
X62758Y-31618D01*
X62667Y-31655D01*
X62585Y-31708D01*
X62515Y-31777D01*
X62460Y-31858D01*
X62421Y-31948D01*
X62401Y-32044D01*
X62399Y-32142D01*
X62417Y-32238D01*
X62453Y-32330D01*
X62506Y-32412D01*
X62574Y-32483D01*
X62655Y-32539D01*
X62745Y-32578D01*
X62840Y-32599D01*
X62939Y-32601D01*
X63035Y-32584D01*
X63126Y-32548D01*
X63209Y-32496D01*
X63280Y-32428D01*
X63337Y-32348D01*
X63377Y-32259D01*
X63398Y-32163D01*
X63400Y-32051D01*
X63400Y-33725D01*
X60955Y-33725D01*
X60950Y-33725D01*
X47579Y-33725D01*
X47651Y-33712D01*
X47720Y-33685D01*
X47782Y-33646D01*
X47835Y-33595D01*
X47877Y-33535D01*
X47907Y-33468D01*
X47923Y-33397D01*
X47924Y-33313D01*
X47910Y-33241D01*
X47882Y-33173D01*
X47841Y-33112D01*
X47789Y-33060D01*
X47728Y-33019D01*
X47661Y-32991D01*
X47589Y-32976D01*
X47516Y-32976D01*
X47444Y-32990D01*
X47376Y-33017D01*
X47363Y-33025D01*
X46734Y-33025D01*
X46134Y-32425D01*
X46396Y-32425D01*
X46400Y-32425D01*
X46420Y-32423D01*
X46459Y-32420D01*
X46462Y-32419D01*
X46463Y-32419D01*
X46470Y-32416D01*
X46521Y-32402D01*
X46524Y-32400D01*
X46577Y-32373D01*
X46578Y-32371D01*
X46580Y-32371D01*
X46626Y-32333D01*
X46629Y-32331D01*
X46629Y-32330D01*
X46630Y-32330D01*
X50440Y-28519D01*
X50443Y-28517D01*
X50470Y-28482D01*
X50481Y-28471D01*
X50481Y-28469D01*
X50483Y-28468D01*
X50493Y-28449D01*
X50512Y-28415D01*
X50512Y-28412D01*
X50513Y-28412D01*
X50531Y-28355D01*
X50532Y-28352D01*
X50536Y-28310D01*
X50538Y-28292D01*
X50538Y-28289D01*
X50538Y-28287D01*
X50538Y-28108D01*
X50583Y-28108D01*
X50621Y-28100D01*
X50657Y-28085D01*
X50690Y-28064D01*
X50717Y-28036D01*
X50739Y-28004D01*
X50740Y-28000D01*
X50975Y-28235D01*
X50975Y-28596D01*
X50975Y-28600D01*
X50976Y-28620D01*
X50980Y-28659D01*
X50980Y-28662D01*
X50981Y-28663D01*
X50983Y-28670D01*
X50998Y-28721D01*
X51000Y-28724D01*
X51027Y-28777D01*
X51028Y-28778D01*
X51029Y-28780D01*
X51067Y-28826D01*
X51069Y-28829D01*
X51070Y-28830D01*
X51170Y-28930D01*
X51204Y-28957D01*
X51216Y-28968D01*
X51217Y-28968D01*
X51219Y-28970D01*
X51238Y-28980D01*
X51272Y-28999D01*
X51274Y-28999D01*
X51275Y-29000D01*
X51332Y-29018D01*
X51335Y-29019D01*
X51377Y-29023D01*
X51395Y-29025D01*
X51398Y-29025D01*
X51400Y-29025D01*
X62496Y-29025D01*
X62500Y-29025D01*
X62520Y-29023D01*
X62559Y-29020D01*
X62562Y-29019D01*
X62563Y-29019D01*
X62570Y-29016D01*
X62621Y-29002D01*
X62624Y-29000D01*
X62677Y-28973D01*
X62678Y-28971D01*
X62680Y-28971D01*
X62726Y-28933D01*
X62729Y-28931D01*
X62729Y-28930D01*
X62730Y-28930D01*
X63127Y-28532D01*
X63129Y-28530D01*
X63168Y-28484D01*
X63170Y-28482D01*
X63180Y-28462D01*
X63199Y-28428D01*
X63199Y-28425D01*
X63218Y-28368D01*
X63218Y-28365D01*
X63225Y-28305D01*
X63225Y-28302D01*
X63225Y-28300D01*
X63225Y-27234D01*
X63234Y-27225D01*
X63524Y-27225D01*
X63478Y-27293D01*
X63435Y-27392D01*
X63413Y-27498D01*
X63411Y-27605D01*
X63431Y-27711D01*
X63470Y-27811D01*
X63529Y-27902D01*
X63604Y-27979D01*
X63692Y-28041D01*
X63791Y-28084D01*
X63896Y-28107D01*
X64003Y-28109D01*
X64110Y-28090D01*
X64210Y-28051D01*
X64301Y-27994D01*
X64379Y-27919D01*
X64441Y-27831D01*
X64460Y-27787D01*
X64470Y-27811D01*
X64529Y-27902D01*
X64604Y-27979D01*
X64692Y-28041D01*
X64791Y-28084D01*
X64896Y-28107D01*
X65003Y-28109D01*
X65110Y-28090D01*
X65210Y-28051D01*
X65301Y-27994D01*
X65379Y-27919D01*
X65412Y-27872D01*
X65412Y-27929D01*
X65420Y-27967D01*
X65435Y-28003D01*
X65456Y-28036D01*
X65484Y-28063D01*
X65516Y-28085D01*
X65552Y-28100D01*
X65591Y-28108D01*
X65630Y-28108D01*
X66331Y-28108D01*
X66369Y-28100D01*
X66405Y-28085D01*
X66438Y-28064D01*
X66465Y-28036D01*
X66487Y-28004D01*
X66502Y-27968D01*
X66510Y-27929D01*
X66510Y-27890D01*
X66510Y-27189D01*
X66502Y-27151D01*
X66487Y-27115D01*
X66466Y-27082D01*
X66438Y-27055D01*
X66406Y-27033D01*
X66370Y-27018D01*
X66331Y-27010D01*
X66310Y-27010D01*
X66306Y-26995D01*
X66301Y-26978D01*
X66300Y-26976D01*
X66272Y-26923D01*
X66271Y-26920D01*
X66240Y-26883D01*
X66233Y-26873D01*
X66232Y-26872D01*
X66231Y-26871D01*
X66229Y-26870D01*
X66225Y-26866D01*
X66032Y-26673D01*
X66030Y-26670D01*
X65995Y-26642D01*
X65984Y-26632D01*
X65982Y-26631D01*
X65981Y-26630D01*
X65968Y-26623D01*
X65928Y-26601D01*
X65924Y-26600D01*
X65868Y-26582D01*
X65866Y-26581D01*
X65864Y-26581D01*
X65829Y-26577D01*
X65805Y-26575D01*
X65801Y-26575D01*
X65800Y-26575D01*
X63100Y-26575D01*
X63037Y-26581D01*
X62995Y-26593D01*
X62978Y-26599D01*
X62976Y-26599D01*
X62976Y-26600D01*
X62920Y-26629D01*
X62883Y-26659D01*
X62873Y-26667D01*
X62872Y-26667D01*
X62871Y-26669D01*
X62866Y-26674D01*
X62670Y-26870D01*
X62642Y-26904D01*
X62632Y-26916D01*
X62631Y-26917D01*
X62630Y-26919D01*
X62623Y-26931D01*
X62601Y-26972D01*
X62582Y-27032D01*
X62581Y-27033D01*
X62581Y-27036D01*
X62577Y-27071D01*
X62575Y-27095D01*
X62575Y-27099D01*
X62575Y-27100D01*
X62575Y-28165D01*
X62365Y-28375D01*
X59063Y-28375D01*
X59063Y-24924D01*
X58988Y-24544D01*
X58840Y-24186D01*
X58625Y-23863D01*
X58352Y-23588D01*
X58031Y-23371D01*
X57674Y-23221D01*
X57294Y-23143D01*
X56907Y-23141D01*
X56526Y-23213D01*
X56167Y-23359D01*
X55843Y-23571D01*
X55566Y-23842D01*
X55347Y-24162D01*
X55194Y-24518D01*
X55114Y-24897D01*
X55108Y-25284D01*
X55178Y-25666D01*
X55321Y-26026D01*
X55531Y-26351D01*
X55800Y-26630D01*
X56119Y-26851D01*
X56474Y-27006D01*
X56852Y-27090D01*
X57240Y-27098D01*
X57621Y-27030D01*
X57982Y-26890D01*
X58310Y-26682D01*
X58590Y-26415D01*
X58814Y-26099D01*
X58971Y-25744D01*
X59057Y-25367D01*
X59063Y-24924D01*
X59063Y-28375D01*
X51625Y-28375D01*
X51625Y-28100D01*
X51621Y-28061D01*
X51620Y-28041D01*
X51619Y-28037D01*
X51616Y-28029D01*
X51602Y-27979D01*
X51600Y-27976D01*
X51573Y-27923D01*
X51571Y-27921D01*
X51571Y-27920D01*
X51533Y-27874D01*
X51531Y-27871D01*
X51530Y-27870D01*
X50989Y-27329D01*
X50954Y-27301D01*
X50943Y-27291D01*
X50941Y-27290D01*
X50940Y-27289D01*
X50927Y-27282D01*
X50887Y-27260D01*
X50883Y-27259D01*
X50827Y-27241D01*
X50825Y-27240D01*
X50823Y-27240D01*
X50788Y-27236D01*
X50764Y-27234D01*
X50762Y-27234D01*
X50762Y-27189D01*
X50754Y-27151D01*
X50739Y-27115D01*
X50718Y-27082D01*
X50690Y-27055D01*
X50658Y-27033D01*
X50622Y-27018D01*
X50583Y-27010D01*
X50544Y-27010D01*
X49843Y-27010D01*
X49805Y-27018D01*
X49769Y-27033D01*
X49736Y-27054D01*
X49709Y-27082D01*
X49687Y-27114D01*
X49672Y-27150D01*
X49664Y-27189D01*
X49664Y-27228D01*
X49664Y-27246D01*
X49640Y-27210D01*
X49565Y-27134D01*
X49475Y-27074D01*
X49376Y-27032D01*
X49270Y-27010D01*
X49163Y-27010D01*
X49057Y-27030D01*
X48957Y-27070D01*
X48867Y-27129D01*
X48790Y-27205D01*
X48730Y-27293D01*
X48713Y-27331D01*
X48700Y-27300D01*
X48640Y-27210D01*
X48565Y-27134D01*
X48475Y-27074D01*
X48376Y-27032D01*
X48270Y-27010D01*
X48163Y-27010D01*
X48057Y-27030D01*
X47957Y-27070D01*
X47867Y-27129D01*
X47790Y-27205D01*
X47730Y-27293D01*
X47687Y-27392D01*
X47665Y-27498D01*
X47663Y-27605D01*
X47683Y-27711D01*
X47722Y-27811D01*
X47781Y-27902D01*
X47856Y-27979D01*
X47944Y-28041D01*
X48043Y-28084D01*
X48148Y-28107D01*
X48255Y-28109D01*
X48362Y-28090D01*
X48462Y-28051D01*
X48553Y-27994D01*
X48631Y-27919D01*
X48693Y-27831D01*
X48712Y-27787D01*
X48722Y-27811D01*
X48781Y-27902D01*
X48856Y-27979D01*
X48944Y-28041D01*
X49043Y-28084D01*
X49148Y-28107D01*
X49255Y-28109D01*
X49362Y-28090D01*
X49462Y-28051D01*
X49553Y-27994D01*
X49631Y-27919D01*
X49664Y-27872D01*
X49664Y-27929D01*
X49672Y-27967D01*
X49687Y-28003D01*
X49708Y-28036D01*
X49736Y-28063D01*
X49768Y-28085D01*
X49804Y-28100D01*
X49843Y-28108D01*
X49882Y-28108D01*
X49888Y-28108D01*
X49888Y-28152D01*
X46265Y-31775D01*
X46125Y-31775D01*
X46120Y-31747D01*
X46105Y-31711D01*
X46084Y-31678D01*
X46056Y-31651D01*
X46024Y-31629D01*
X45988Y-31614D01*
X45949Y-31606D01*
X45910Y-31606D01*
X45399Y-31606D01*
X45361Y-31614D01*
X45325Y-31629D01*
X45292Y-31650D01*
X45265Y-31678D01*
X45243Y-31710D01*
X45228Y-31746D01*
X45220Y-31785D01*
X45220Y-31824D01*
X45220Y-32415D01*
X45228Y-32453D01*
X45243Y-32489D01*
X45264Y-32522D01*
X45292Y-32549D01*
X45324Y-32571D01*
X45360Y-32586D01*
X45397Y-32593D01*
X45401Y-32601D01*
X45402Y-32602D01*
X45403Y-32604D01*
X45441Y-32650D01*
X45443Y-32653D01*
X45444Y-32654D01*
X46368Y-33577D01*
X46370Y-33579D01*
X46386Y-33593D01*
X46416Y-33618D01*
X46417Y-33618D01*
X46419Y-33620D01*
X46428Y-33624D01*
X46472Y-33649D01*
X46475Y-33649D01*
X46532Y-33668D01*
X46535Y-33669D01*
X46577Y-33673D01*
X46595Y-33675D01*
X46598Y-33675D01*
X46600Y-33675D01*
X47362Y-33675D01*
X47367Y-33678D01*
X47434Y-33708D01*
X47506Y-33723D01*
X47579Y-33725D01*
X43800Y-33725D01*
X43761Y-33728D01*
X43741Y-33730D01*
X43737Y-33730D01*
X43737Y-33731D01*
X43729Y-33733D01*
X43679Y-33748D01*
X43623Y-33777D01*
X43621Y-33778D01*
X43620Y-33779D01*
X43571Y-33819D01*
X43570Y-33819D01*
X43570Y-33820D01*
X43315Y-34075D01*
X43315Y-24924D01*
X43240Y-24544D01*
X43092Y-24186D01*
X42877Y-23863D01*
X42604Y-23588D01*
X42283Y-23371D01*
X41926Y-23221D01*
X41546Y-23143D01*
X41159Y-23141D01*
X40778Y-23213D01*
X40419Y-23359D01*
X40095Y-23571D01*
X39818Y-23842D01*
X39599Y-24162D01*
X39446Y-24518D01*
X39366Y-24897D01*
X39360Y-25284D01*
X39430Y-25666D01*
X39573Y-26026D01*
X39783Y-26351D01*
X40052Y-26630D01*
X40371Y-26851D01*
X40726Y-27006D01*
X41104Y-27090D01*
X41492Y-27098D01*
X41873Y-27030D01*
X42234Y-26890D01*
X42562Y-26682D01*
X42842Y-26415D01*
X43066Y-26099D01*
X43223Y-25744D01*
X43309Y-25367D01*
X43315Y-24924D01*
X43315Y-34075D01*
X43070Y-34320D01*
X43042Y-34354D01*
X43032Y-34366D01*
X43031Y-34367D01*
X43030Y-34369D01*
X43023Y-34381D01*
X43001Y-34422D01*
X42982Y-34482D01*
X42981Y-34483D01*
X42981Y-34486D01*
X42977Y-34521D01*
X42975Y-34545D01*
X42975Y-34549D01*
X42975Y-34550D01*
X42975Y-35846D01*
X42975Y-35850D01*
X42976Y-35870D01*
X42980Y-35909D01*
X42980Y-35912D01*
X42981Y-35913D01*
X42983Y-35920D01*
X42998Y-35971D01*
X43000Y-35974D01*
X43027Y-36027D01*
X43028Y-36028D01*
X43029Y-36030D01*
X43067Y-36076D01*
X43069Y-36079D01*
X43070Y-36080D01*
X43370Y-36380D01*
X43404Y-36407D01*
X43416Y-36418D01*
X43417Y-36418D01*
X43419Y-36420D01*
X43438Y-36430D01*
X43472Y-36449D01*
X43474Y-36449D01*
X43475Y-36450D01*
X43532Y-36468D01*
X43535Y-36469D01*
X43577Y-36473D01*
X43595Y-36475D01*
X43598Y-36475D01*
X43600Y-36475D01*
X44277Y-36475D01*
X44340Y-36469D01*
X44346Y-36467D01*
X44730Y-36467D01*
X44768Y-36459D01*
X44775Y-36456D01*
X44775Y-37606D01*
X44651Y-37606D01*
X44613Y-37614D01*
X44577Y-37629D01*
X44544Y-37650D01*
X44517Y-37678D01*
X44495Y-37710D01*
X44480Y-37746D01*
X44472Y-37785D01*
X44472Y-37824D01*
X44472Y-38415D01*
X44480Y-38453D01*
X44495Y-38489D01*
X44516Y-38522D01*
X44544Y-38549D01*
X44576Y-38571D01*
X44601Y-38581D01*
X44601Y-38825D01*
X44601Y-38826D01*
X44607Y-38889D01*
X44612Y-38907D01*
X44625Y-38949D01*
X44626Y-38950D01*
X44639Y-38976D01*
X44655Y-39006D01*
X44695Y-39055D01*
X44744Y-39095D01*
X44799Y-39125D01*
X44800Y-39126D01*
X44842Y-39138D01*
X44860Y-39144D01*
X44861Y-39144D01*
X44922Y-39151D01*
X44923Y-39150D01*
X44924Y-39151D01*
X44934Y-39150D01*
X44985Y-39146D01*
X44987Y-39145D01*
X45047Y-39128D01*
X45048Y-39127D01*
X45051Y-39125D01*
X45052Y-39125D01*
X48112Y-39125D01*
X48117Y-39128D01*
X48184Y-39158D01*
X48256Y-39173D01*
X48329Y-39175D01*
X48401Y-39162D01*
X48470Y-39135D01*
X48532Y-39096D01*
X48585Y-39045D01*
X48627Y-38985D01*
X48657Y-38918D01*
X48673Y-38847D01*
X48674Y-38763D01*
X48660Y-38691D01*
X48632Y-38623D01*
X48591Y-38562D01*
X48539Y-38510D01*
X48478Y-38469D01*
X48411Y-38441D01*
X48339Y-38426D01*
X48266Y-38426D01*
X48194Y-38440D01*
X48126Y-38467D01*
X48113Y-38475D01*
X46111Y-38475D01*
X46120Y-38454D01*
X46128Y-38415D01*
X46128Y-38376D01*
X46128Y-37785D01*
X46120Y-37747D01*
X46105Y-37711D01*
X46084Y-37678D01*
X46056Y-37651D01*
X46024Y-37629D01*
X45999Y-37618D01*
X45999Y-36967D01*
X46251Y-36967D01*
X46255Y-36968D01*
X46318Y-36975D01*
X46323Y-36975D01*
X47315Y-36975D01*
X47937Y-37597D01*
X47939Y-37604D01*
X47966Y-37672D01*
X48006Y-37734D01*
X48057Y-37786D01*
X48117Y-37828D01*
X48184Y-37858D01*
X48256Y-37873D01*
X48329Y-37875D01*
X48401Y-37862D01*
X48470Y-37835D01*
X48532Y-37796D01*
X48585Y-37745D01*
X48627Y-37685D01*
X48657Y-37618D01*
X48673Y-37547D01*
X48674Y-37463D01*
X48660Y-37391D01*
X48632Y-37323D01*
X48591Y-37262D01*
X48539Y-37210D01*
X48478Y-37169D01*
X48411Y-37141D01*
X48398Y-37138D01*
X48226Y-36966D01*
X48256Y-36973D01*
X48329Y-36975D01*
X48401Y-36962D01*
X48470Y-36935D01*
X48532Y-36896D01*
X48585Y-36845D01*
X48627Y-36785D01*
X48657Y-36718D01*
X48673Y-36647D01*
X48674Y-36563D01*
X48660Y-36491D01*
X48632Y-36423D01*
X48591Y-36362D01*
X48539Y-36310D01*
X48478Y-36269D01*
X48411Y-36241D01*
X48398Y-36238D01*
X48080Y-35920D01*
X48045Y-35892D01*
X48034Y-35882D01*
X48032Y-35881D01*
X48031Y-35880D01*
X48018Y-35873D01*
X47978Y-35851D01*
X47974Y-35850D01*
X47918Y-35832D01*
X47916Y-35831D01*
X47914Y-35831D01*
X47880Y-35827D01*
X47907Y-35768D01*
X47923Y-35697D01*
X47924Y-35613D01*
X47916Y-35576D01*
X48675Y-36334D01*
X48675Y-45416D01*
X47126Y-46965D01*
X47126Y-45501D01*
X47120Y-45441D01*
X47120Y-45438D01*
X47112Y-45412D01*
X47103Y-45380D01*
X47101Y-45377D01*
X47074Y-45324D01*
X47072Y-45322D01*
X47072Y-45321D01*
X47052Y-45296D01*
X47034Y-45274D01*
X47032Y-45272D01*
X47031Y-45271D01*
X46680Y-44920D01*
X46645Y-44892D01*
X46634Y-44882D01*
X46632Y-44881D01*
X46631Y-44880D01*
X46618Y-44873D01*
X46578Y-44851D01*
X46574Y-44850D01*
X46518Y-44832D01*
X46516Y-44831D01*
X46514Y-44831D01*
X46479Y-44827D01*
X46455Y-44825D01*
X46451Y-44825D01*
X46450Y-44825D01*
X46069Y-44825D01*
X46069Y-44170D01*
X46069Y-44131D01*
X46069Y-43330D01*
X46061Y-43292D01*
X46046Y-43256D01*
X46025Y-43223D01*
X45997Y-43196D01*
X45965Y-43174D01*
X45929Y-43159D01*
X45890Y-43151D01*
X45851Y-43151D01*
X44410Y-43151D01*
X44372Y-43159D01*
X44336Y-43174D01*
X44303Y-43195D01*
X44276Y-43223D01*
X44254Y-43255D01*
X44239Y-43291D01*
X44231Y-43330D01*
X44231Y-43369D01*
X44231Y-44170D01*
X44239Y-44208D01*
X44254Y-44244D01*
X44275Y-44277D01*
X44303Y-44304D01*
X44335Y-44326D01*
X44371Y-44341D01*
X44410Y-44349D01*
X44449Y-44349D01*
X45890Y-44349D01*
X45928Y-44341D01*
X45964Y-44326D01*
X45997Y-44305D01*
X46024Y-44277D01*
X46046Y-44245D01*
X46061Y-44209D01*
X46069Y-44170D01*
X46069Y-44825D01*
X44700Y-44825D01*
X44637Y-44831D01*
X44611Y-44838D01*
X44579Y-44848D01*
X44523Y-44877D01*
X44521Y-44878D01*
X44520Y-44879D01*
X44495Y-44899D01*
X44473Y-44917D01*
X44471Y-44919D01*
X44470Y-44920D01*
X44020Y-45370D01*
X43992Y-45404D01*
X43982Y-45416D01*
X43981Y-45417D01*
X43980Y-45419D01*
X43973Y-45431D01*
X43951Y-45472D01*
X43932Y-45532D01*
X43931Y-45533D01*
X43931Y-45536D01*
X43927Y-45571D01*
X43925Y-45595D01*
X43925Y-45599D01*
X43925Y-45600D01*
X43925Y-45793D01*
X43923Y-45795D01*
X43896Y-45823D01*
X43874Y-45855D01*
X43859Y-45891D01*
X43851Y-45930D01*
X43851Y-45969D01*
X43851Y-46725D01*
X43850Y-46725D01*
X43787Y-46731D01*
X43761Y-46738D01*
X43729Y-46748D01*
X43673Y-46777D01*
X43671Y-46778D01*
X43670Y-46779D01*
X43645Y-46799D01*
X43623Y-46817D01*
X43621Y-46819D01*
X43620Y-46820D01*
X43269Y-47171D01*
X43247Y-47197D01*
X43165Y-47197D01*
X43127Y-47205D01*
X43091Y-47220D01*
X43058Y-47241D01*
X43031Y-47269D01*
X43009Y-47301D01*
X42994Y-47337D01*
X42986Y-47376D01*
X42986Y-47415D01*
X42986Y-48124D01*
X42994Y-48162D01*
X43009Y-48198D01*
X43030Y-48231D01*
X43058Y-48258D01*
X43090Y-48280D01*
X43126Y-48295D01*
X43165Y-48303D01*
X43204Y-48303D01*
X43833Y-48303D01*
X43871Y-48295D01*
X43907Y-48280D01*
X43940Y-48259D01*
X43967Y-48231D01*
X43989Y-48199D01*
X44004Y-48163D01*
X44012Y-48124D01*
X44012Y-48085D01*
X44012Y-47376D01*
X44011Y-47375D01*
X44546Y-47375D01*
X44550Y-47375D01*
X44570Y-47373D01*
X44609Y-47370D01*
X44612Y-47369D01*
X44613Y-47369D01*
X44620Y-47366D01*
X44671Y-47352D01*
X44674Y-47350D01*
X44727Y-47323D01*
X44728Y-47321D01*
X44730Y-47321D01*
X44776Y-47283D01*
X44779Y-47281D01*
X44779Y-47280D01*
X44780Y-47280D01*
X44927Y-47132D01*
X44930Y-47130D01*
X44957Y-47095D01*
X44968Y-47084D01*
X44968Y-47082D01*
X44970Y-47081D01*
X44980Y-47062D01*
X44999Y-47028D01*
X44999Y-47025D01*
X45000Y-47025D01*
X45003Y-47015D01*
X45018Y-46968D01*
X45018Y-46966D01*
X45019Y-46964D01*
X45022Y-46925D01*
X45025Y-46905D01*
X45025Y-46902D01*
X45025Y-46900D01*
X45025Y-45934D01*
X45084Y-45875D01*
X45665Y-45875D01*
X45659Y-45891D01*
X45651Y-45930D01*
X45651Y-45969D01*
X45651Y-46770D01*
X45659Y-46808D01*
X45674Y-46844D01*
X45695Y-46877D01*
X45723Y-46904D01*
X45725Y-46905D01*
X45726Y-46920D01*
X45730Y-46959D01*
X45730Y-46962D01*
X45731Y-46963D01*
X45733Y-46970D01*
X45748Y-47021D01*
X45750Y-47024D01*
X45777Y-47077D01*
X45778Y-47078D01*
X45779Y-47080D01*
X45817Y-47126D01*
X45819Y-47129D01*
X45820Y-47130D01*
X45925Y-47234D01*
X45925Y-49215D01*
X45020Y-50120D01*
X44992Y-50154D01*
X44982Y-50166D01*
X44981Y-50167D01*
X44980Y-50169D01*
X44973Y-50181D01*
X44951Y-50222D01*
X44932Y-50282D01*
X44931Y-50283D01*
X44931Y-50286D01*
X44927Y-50321D01*
X44925Y-50345D01*
X44925Y-50349D01*
X44925Y-50350D01*
X44925Y-50558D01*
X44857Y-50513D01*
X44768Y-50475D01*
X44673Y-50455D01*
X44575Y-50455D01*
X44480Y-50473D01*
X44390Y-50509D01*
X44309Y-50562D01*
X44239Y-50630D01*
X44184Y-50710D01*
X44146Y-50799D01*
X44131Y-50863D01*
X44097Y-50692D01*
X44031Y-50531D01*
X43934Y-50386D01*
X43812Y-50262D01*
X43667Y-50164D01*
X43506Y-50097D01*
X43336Y-50062D01*
X43161Y-50060D01*
X42990Y-50093D01*
X42886Y-50134D01*
X41821Y-49070D01*
X41816Y-49064D01*
X41813Y-49061D01*
X41782Y-49023D01*
X41781Y-49021D01*
X41750Y-48996D01*
X41734Y-48982D01*
X41732Y-48981D01*
X41678Y-48951D01*
X41677Y-48950D01*
X41676Y-48950D01*
X41659Y-48944D01*
X41618Y-48932D01*
X41555Y-48925D01*
X41552Y-48925D01*
X41550Y-48925D01*
X41118Y-48925D01*
X41118Y-40834D01*
X41073Y-40606D01*
X40985Y-40392D01*
X40856Y-40199D01*
X40693Y-40034D01*
X40500Y-39904D01*
X40286Y-39814D01*
X40059Y-39768D01*
X39827Y-39766D01*
X39599Y-39810D01*
X39384Y-39897D01*
X39190Y-40024D01*
X39024Y-40186D01*
X38893Y-40377D01*
X38802Y-40591D01*
X38754Y-40818D01*
X38750Y-41049D01*
X38792Y-41278D01*
X38878Y-41493D01*
X39003Y-41688D01*
X39165Y-41855D01*
X39355Y-41988D01*
X39568Y-42080D01*
X39794Y-42130D01*
X40026Y-42135D01*
X40255Y-42095D01*
X40471Y-42011D01*
X40667Y-41887D01*
X40835Y-41727D01*
X40969Y-41537D01*
X41063Y-41325D01*
X41114Y-41099D01*
X41118Y-40834D01*
X41118Y-48925D01*
X40035Y-48925D01*
X39075Y-47965D01*
X39075Y-46821D01*
X39299Y-46821D01*
X39337Y-46860D01*
X39414Y-46913D01*
X39499Y-46950D01*
X39590Y-46970D01*
X39683Y-46972D01*
X39775Y-46956D01*
X39862Y-46922D01*
X39940Y-46872D01*
X40008Y-46808D01*
X40061Y-46731D01*
X40099Y-46646D01*
X40120Y-46555D01*
X40121Y-46449D01*
X40121Y-45449D01*
X40103Y-45358D01*
X40067Y-45272D01*
X40016Y-45194D01*
X39950Y-45128D01*
X39873Y-45076D01*
X39787Y-45040D01*
X39695Y-45021D01*
X39602Y-45021D01*
X39511Y-45038D01*
X39424Y-45073D01*
X39347Y-45124D01*
X39280Y-45190D01*
X39228Y-45266D01*
X39191Y-45352D01*
X39172Y-45443D01*
X39170Y-45536D01*
X39187Y-45628D01*
X39222Y-45715D01*
X39272Y-45793D01*
X39337Y-45860D01*
X39414Y-45913D01*
X39499Y-45950D01*
X39590Y-45970D01*
X39683Y-45972D01*
X39775Y-45956D01*
X39862Y-45922D01*
X39940Y-45872D01*
X40008Y-45808D01*
X40061Y-45731D01*
X40099Y-45646D01*
X40120Y-45555D01*
X40121Y-45449D01*
X40121Y-46449D01*
X40103Y-46358D01*
X40067Y-46272D01*
X40016Y-46194D01*
X39950Y-46128D01*
X39873Y-46076D01*
X39787Y-46040D01*
X39695Y-46021D01*
X39602Y-46021D01*
X39511Y-46038D01*
X39424Y-46073D01*
X39347Y-46124D01*
X39299Y-46171D01*
X38804Y-46171D01*
X38741Y-46177D01*
X38715Y-46184D01*
X38683Y-46194D01*
X38627Y-46223D01*
X38625Y-46224D01*
X38624Y-46225D01*
X38599Y-46245D01*
X38577Y-46263D01*
X38575Y-46265D01*
X38574Y-46266D01*
X38520Y-46320D01*
X38492Y-46354D01*
X38482Y-46366D01*
X38481Y-46367D01*
X38480Y-46369D01*
X38473Y-46381D01*
X38451Y-46422D01*
X38432Y-46482D01*
X38431Y-46483D01*
X38431Y-46486D01*
X38427Y-46521D01*
X38425Y-46545D01*
X38425Y-46549D01*
X38425Y-46550D01*
X38425Y-48096D01*
X38425Y-48100D01*
X38426Y-48120D01*
X38430Y-48159D01*
X38430Y-48162D01*
X38431Y-48163D01*
X38433Y-48170D01*
X38448Y-48221D01*
X38450Y-48224D01*
X38477Y-48277D01*
X38478Y-48278D01*
X38479Y-48280D01*
X38517Y-48326D01*
X38519Y-48329D01*
X38520Y-48330D01*
X39670Y-49480D01*
X39704Y-49507D01*
X39716Y-49518D01*
X39717Y-49518D01*
X39719Y-49520D01*
X39738Y-49530D01*
X39772Y-49549D01*
X39774Y-49549D01*
X39775Y-49550D01*
X39832Y-49568D01*
X39835Y-49569D01*
X39877Y-49573D01*
X39895Y-49575D01*
X39898Y-49575D01*
X39900Y-49575D01*
X41407Y-49575D01*
X42427Y-50594D01*
X42391Y-50680D01*
X42354Y-50850D01*
X42352Y-51025D01*
X42383Y-51196D01*
X42447Y-51358D01*
X42542Y-51505D01*
X42663Y-51630D01*
X42806Y-51730D01*
X42966Y-51799D01*
X43136Y-51837D01*
X43310Y-51841D01*
X43482Y-51810D01*
X43645Y-51747D01*
X43792Y-51654D01*
X43918Y-51534D01*
X44019Y-51391D01*
X44090Y-51232D01*
X44128Y-51062D01*
X44128Y-51016D01*
X44142Y-51087D01*
X44177Y-51177D01*
X44230Y-51258D01*
X44297Y-51328D01*
X44377Y-51384D01*
X44466Y-51423D01*
X44561Y-51444D01*
X44658Y-51446D01*
X44753Y-51429D01*
X44844Y-51394D01*
X44925Y-51342D01*
X44925Y-51746D01*
X44925Y-51750D01*
X44926Y-51770D01*
X44930Y-51809D01*
X44930Y-51812D01*
X44931Y-51813D01*
X44933Y-51820D01*
X44948Y-51871D01*
X44950Y-51874D01*
X44977Y-51927D01*
X44978Y-51928D01*
X44979Y-51930D01*
X45017Y-51976D01*
X45019Y-51979D01*
X45020Y-51980D01*
X45455Y-52415D01*
X38782Y-52282D01*
X38604Y-52261D01*
X38438Y-52208D01*
X38286Y-52123D01*
X38153Y-52012D01*
X38043Y-51876D01*
X37962Y-51722D01*
X37913Y-51555D01*
X37895Y-51377D01*
X37895Y-14785D01*
X37913Y-14605D01*
X37964Y-14436D01*
X38047Y-14280D01*
X38159Y-14144D01*
X38295Y-14032D01*
X38451Y-13949D01*
X38620Y-13898D01*
X38800Y-13880D01*
X75393Y-13880D01*
X75571Y-13898D01*
X75738Y-13947D01*
X75892Y-14028D01*
X76028Y-14138D01*
X76139Y-14271D01*
X76224Y-14424D01*
X76277Y-14589D01*
X76298Y-14767D01*
X76532Y-26479D01*
X76532Y-52516D01*
X76532Y-52516D01*
G37*
G54D37*
X76532Y-52516D02*
X76062Y-52516D01*
X76062Y-44249D01*
X76062Y-37249D01*
X75964Y-36756D01*
X75773Y-36292D01*
X75495Y-35873D01*
X75141Y-35517D01*
X74811Y-35294D01*
X74811Y-24924D01*
X74736Y-24544D01*
X74588Y-24186D01*
X74373Y-23863D01*
X74100Y-23588D01*
X73779Y-23371D01*
X73422Y-23221D01*
X73042Y-23143D01*
X72655Y-23141D01*
X72274Y-23213D01*
X71915Y-23359D01*
X71591Y-23571D01*
X71314Y-23842D01*
X71095Y-24162D01*
X70942Y-24518D01*
X70862Y-24897D01*
X70856Y-25284D01*
X70926Y-25666D01*
X71069Y-26026D01*
X71279Y-26351D01*
X71548Y-26630D01*
X71867Y-26851D01*
X72222Y-27006D01*
X72600Y-27090D01*
X72988Y-27098D01*
X73369Y-27030D01*
X73730Y-26890D01*
X74058Y-26682D01*
X74338Y-26415D01*
X74562Y-26099D01*
X74719Y-25744D01*
X74805Y-25367D01*
X74811Y-24924D01*
X74811Y-35294D01*
X74725Y-35236D01*
X74289Y-35052D01*
X74289Y-33750D01*
X74281Y-33712D01*
X74266Y-33676D01*
X74245Y-33643D01*
X74217Y-33616D01*
X74185Y-33594D01*
X74149Y-33579D01*
X74110Y-33571D01*
X74071Y-33571D01*
X72890Y-33571D01*
X72852Y-33579D01*
X72816Y-33594D01*
X72783Y-33615D01*
X72756Y-33643D01*
X72734Y-33675D01*
X72719Y-33711D01*
X72711Y-33750D01*
X72711Y-33789D01*
X72711Y-35055D01*
X72308Y-35219D01*
X71887Y-35494D01*
X71528Y-35845D01*
X71244Y-36260D01*
X71046Y-36721D01*
X70942Y-37213D01*
X70935Y-37715D01*
X71025Y-38209D01*
X71210Y-38677D01*
X71482Y-39099D01*
X71831Y-39460D01*
X72244Y-39747D01*
X72704Y-39948D01*
X73195Y-40056D01*
X73697Y-40067D01*
X74192Y-39979D01*
X74660Y-39798D01*
X75085Y-39529D01*
X75449Y-39182D01*
X75738Y-38772D01*
X75943Y-38313D01*
X76054Y-37823D01*
X76062Y-37249D01*
X76062Y-44249D01*
X75964Y-43756D01*
X75773Y-43292D01*
X75495Y-42873D01*
X75141Y-42517D01*
X74725Y-42236D01*
X74261Y-42041D01*
X73769Y-41940D01*
X73267Y-41936D01*
X72773Y-42030D01*
X72308Y-42219D01*
X71887Y-42494D01*
X71528Y-42845D01*
X71244Y-43260D01*
X71050Y-43711D01*
X69750Y-43711D01*
X69712Y-43719D01*
X69676Y-43734D01*
X69643Y-43755D01*
X69616Y-43783D01*
X69594Y-43815D01*
X69579Y-43851D01*
X69571Y-43890D01*
X69571Y-43929D01*
X69571Y-45110D01*
X69579Y-45148D01*
X69594Y-45184D01*
X69615Y-45217D01*
X69643Y-45244D01*
X69675Y-45266D01*
X69711Y-45281D01*
X69750Y-45289D01*
X69789Y-45289D01*
X71056Y-45289D01*
X71210Y-45677D01*
X71482Y-46099D01*
X71831Y-46460D01*
X72244Y-46747D01*
X72704Y-46948D01*
X73195Y-47056D01*
X73697Y-47067D01*
X74192Y-46979D01*
X74660Y-46798D01*
X75085Y-46529D01*
X75449Y-46182D01*
X75738Y-45772D01*
X75943Y-45313D01*
X76054Y-44823D01*
X76062Y-44249D01*
X76062Y-52516D01*
X68200Y-52516D01*
X68200Y-37051D01*
X68200Y-32051D01*
X68181Y-31955D01*
X68144Y-31864D01*
X68089Y-31782D01*
X68020Y-31713D01*
X67939Y-31658D01*
X67849Y-31620D01*
X67753Y-31600D01*
X67654Y-31600D01*
X67558Y-31618D01*
X67467Y-31655D01*
X67385Y-31708D01*
X67315Y-31777D01*
X67260Y-31858D01*
X67221Y-31948D01*
X67201Y-32044D01*
X67199Y-32142D01*
X67217Y-32238D01*
X67253Y-32330D01*
X67306Y-32412D01*
X67374Y-32483D01*
X67455Y-32539D01*
X67545Y-32578D01*
X67640Y-32599D01*
X67739Y-32601D01*
X67835Y-32584D01*
X67926Y-32548D01*
X68009Y-32496D01*
X68080Y-32428D01*
X68137Y-32348D01*
X68177Y-32259D01*
X68198Y-32163D01*
X68200Y-32051D01*
X68200Y-37051D01*
X68181Y-36955D01*
X68144Y-36864D01*
X68089Y-36782D01*
X68020Y-36713D01*
X67939Y-36658D01*
X67849Y-36620D01*
X67753Y-36600D01*
X67654Y-36600D01*
X67558Y-36618D01*
X67467Y-36655D01*
X67385Y-36708D01*
X67315Y-36777D01*
X67260Y-36858D01*
X67221Y-36948D01*
X67201Y-37044D01*
X67199Y-37142D01*
X67217Y-37238D01*
X67253Y-37330D01*
X67306Y-37412D01*
X67374Y-37483D01*
X67455Y-37539D01*
X67545Y-37578D01*
X67640Y-37599D01*
X67739Y-37601D01*
X67835Y-37584D01*
X67926Y-37548D01*
X68009Y-37496D01*
X68080Y-37428D01*
X68137Y-37348D01*
X68177Y-37259D01*
X68198Y-37163D01*
X68200Y-37051D01*
X68200Y-52516D01*
X66700Y-52516D01*
X66700Y-37051D01*
X66681Y-36955D01*
X66644Y-36864D01*
X66589Y-36782D01*
X66520Y-36713D01*
X66439Y-36658D01*
X66349Y-36620D01*
X66253Y-36600D01*
X66154Y-36600D01*
X66058Y-36618D01*
X65967Y-36655D01*
X65885Y-36708D01*
X65815Y-36777D01*
X65760Y-36858D01*
X65721Y-36948D01*
X65701Y-37044D01*
X65699Y-37142D01*
X65717Y-37238D01*
X65753Y-37330D01*
X65806Y-37412D01*
X65874Y-37483D01*
X65955Y-37539D01*
X66045Y-37578D01*
X66140Y-37599D01*
X66239Y-37601D01*
X66335Y-37584D01*
X66426Y-37548D01*
X66509Y-37496D01*
X66580Y-37428D01*
X66637Y-37348D01*
X66677Y-37259D01*
X66698Y-37163D01*
X66700Y-37051D01*
X66700Y-52516D01*
X66670Y-52516D01*
X66670Y-48097D01*
X66591Y-47699D01*
X66436Y-47324D01*
X66212Y-46985D01*
X65926Y-46697D01*
X65589Y-46470D01*
X65215Y-46313D01*
X64900Y-46248D01*
X64900Y-37051D01*
X64881Y-36955D01*
X64844Y-36864D01*
X64789Y-36782D01*
X64720Y-36713D01*
X64639Y-36658D01*
X64549Y-36620D01*
X64453Y-36600D01*
X64354Y-36600D01*
X64258Y-36618D01*
X64167Y-36655D01*
X64085Y-36708D01*
X64015Y-36777D01*
X63960Y-36858D01*
X63921Y-36948D01*
X63901Y-37044D01*
X63899Y-37142D01*
X63917Y-37238D01*
X63953Y-37330D01*
X64006Y-37412D01*
X64074Y-37483D01*
X64155Y-37539D01*
X64245Y-37578D01*
X64340Y-37599D01*
X64439Y-37601D01*
X64535Y-37584D01*
X64626Y-37548D01*
X64709Y-37496D01*
X64780Y-37428D01*
X64837Y-37348D01*
X64877Y-37259D01*
X64898Y-37163D01*
X64900Y-37051D01*
X64900Y-46248D01*
X64817Y-46231D01*
X64411Y-46229D01*
X64013Y-46305D01*
X63636Y-46457D01*
X63400Y-46611D01*
X63400Y-37051D01*
X63381Y-36955D01*
X63344Y-36864D01*
X63289Y-36782D01*
X63220Y-36713D01*
X63139Y-36658D01*
X63049Y-36620D01*
X62953Y-36600D01*
X62854Y-36600D01*
X62758Y-36618D01*
X62667Y-36655D01*
X62585Y-36708D01*
X62515Y-36777D01*
X62460Y-36858D01*
X62421Y-36948D01*
X62401Y-37044D01*
X62399Y-37142D01*
X62417Y-37238D01*
X62453Y-37330D01*
X62506Y-37412D01*
X62574Y-37483D01*
X62655Y-37539D01*
X62745Y-37578D01*
X62840Y-37599D01*
X62939Y-37601D01*
X63035Y-37584D01*
X63126Y-37548D01*
X63209Y-37496D01*
X63280Y-37428D01*
X63337Y-37348D01*
X63377Y-37259D01*
X63398Y-37163D01*
X63400Y-37051D01*
X63400Y-46611D01*
X63297Y-46679D01*
X63007Y-46963D01*
X62777Y-47298D01*
X62617Y-47671D01*
X62533Y-48068D01*
X62527Y-48474D01*
X62601Y-48873D01*
X62750Y-49251D01*
X62970Y-49592D01*
X63252Y-49884D01*
X63585Y-50116D01*
X63957Y-50278D01*
X64354Y-50365D01*
X64760Y-50374D01*
X65159Y-50303D01*
X65538Y-50157D01*
X65881Y-49939D01*
X66175Y-49659D01*
X66409Y-49327D01*
X66574Y-48956D01*
X66664Y-48561D01*
X66670Y-48097D01*
X66670Y-52516D01*
X59062Y-52516D01*
X59062Y-44749D01*
X58964Y-44256D01*
X58925Y-44161D01*
X58925Y-37105D01*
X58925Y-37102D01*
X58925Y-37100D01*
X58925Y-36500D01*
X58919Y-36440D01*
X58919Y-36437D01*
X58911Y-36411D01*
X58902Y-36379D01*
X58900Y-36376D01*
X58873Y-36323D01*
X58871Y-36321D01*
X58871Y-36320D01*
X58851Y-36295D01*
X58833Y-36273D01*
X58831Y-36271D01*
X58830Y-36270D01*
X58030Y-35470D01*
X57995Y-35442D01*
X57984Y-35432D01*
X57982Y-35431D01*
X57981Y-35430D01*
X57968Y-35423D01*
X57928Y-35401D01*
X57924Y-35400D01*
X57868Y-35382D01*
X57866Y-35381D01*
X57864Y-35381D01*
X57829Y-35377D01*
X57805Y-35375D01*
X57801Y-35375D01*
X57800Y-35375D01*
X51600Y-35375D01*
X51537Y-35381D01*
X51511Y-35388D01*
X51479Y-35398D01*
X51423Y-35427D01*
X51421Y-35428D01*
X51420Y-35429D01*
X51395Y-35449D01*
X51373Y-35467D01*
X51372Y-35467D01*
X51371Y-35469D01*
X51366Y-35474D01*
X49701Y-37138D01*
X49694Y-37140D01*
X49626Y-37167D01*
X49564Y-37207D01*
X49512Y-37259D01*
X49471Y-37319D01*
X49442Y-37387D01*
X49426Y-37458D01*
X49426Y-37532D01*
X49439Y-37604D01*
X49466Y-37672D01*
X49506Y-37734D01*
X49557Y-37786D01*
X49617Y-37828D01*
X49684Y-37858D01*
X49756Y-37873D01*
X49829Y-37875D01*
X49901Y-37862D01*
X49970Y-37835D01*
X50032Y-37796D01*
X50085Y-37745D01*
X50127Y-37685D01*
X50157Y-37618D01*
X50161Y-37598D01*
X51734Y-36025D01*
X57665Y-36025D01*
X58275Y-36635D01*
X58275Y-36965D01*
X56920Y-38319D01*
X56920Y-37659D01*
X56904Y-37578D01*
X56873Y-37502D01*
X56827Y-37433D01*
X56769Y-37375D01*
X56701Y-37329D01*
X56625Y-37297D01*
X56544Y-37280D01*
X56462Y-37280D01*
X56381Y-37295D01*
X56305Y-37326D01*
X56236Y-37371D01*
X56177Y-37429D01*
X56130Y-37497D01*
X56098Y-37572D01*
X56081Y-37653D01*
X56079Y-37735D01*
X56094Y-37816D01*
X56125Y-37893D01*
X56169Y-37962D01*
X56226Y-38021D01*
X56294Y-38068D01*
X56369Y-38101D01*
X56450Y-38119D01*
X56532Y-38121D01*
X56613Y-38106D01*
X56690Y-38077D01*
X56760Y-38033D01*
X56819Y-37976D01*
X56867Y-37909D01*
X56900Y-37833D01*
X56919Y-37753D01*
X56920Y-37659D01*
X56920Y-38319D01*
X56779Y-38460D01*
X56705Y-38430D01*
X56573Y-38402D01*
X56437Y-38402D01*
X56304Y-38427D01*
X56178Y-38478D01*
X56064Y-38552D01*
X55967Y-38647D01*
X55920Y-38716D01*
X55920Y-36659D01*
X55904Y-36578D01*
X55873Y-36502D01*
X55827Y-36433D01*
X55769Y-36375D01*
X55701Y-36329D01*
X55625Y-36297D01*
X55544Y-36280D01*
X55462Y-36280D01*
X55381Y-36295D01*
X55305Y-36326D01*
X55236Y-36371D01*
X55177Y-36429D01*
X55130Y-36497D01*
X55098Y-36572D01*
X55081Y-36653D01*
X55079Y-36735D01*
X55094Y-36816D01*
X55125Y-36893D01*
X55169Y-36962D01*
X55226Y-37021D01*
X55294Y-37068D01*
X55369Y-37101D01*
X55450Y-37119D01*
X55532Y-37121D01*
X55613Y-37106D01*
X55690Y-37077D01*
X55760Y-37033D01*
X55819Y-36976D01*
X55867Y-36909D01*
X55900Y-36833D01*
X55919Y-36753D01*
X55920Y-36659D01*
X55920Y-38716D01*
X55891Y-38759D01*
X55837Y-38884D01*
X55809Y-39017D01*
X55807Y-39152D01*
X55832Y-39286D01*
X55882Y-39412D01*
X55955Y-39526D01*
X56049Y-39624D01*
X56161Y-39701D01*
X56285Y-39755D01*
X56418Y-39784D01*
X56553Y-39787D01*
X56687Y-39764D01*
X56814Y-39715D01*
X56928Y-39642D01*
X57026Y-39548D01*
X57105Y-39437D01*
X57160Y-39313D01*
X57190Y-39181D01*
X57192Y-39026D01*
X57182Y-38977D01*
X58827Y-37332D01*
X58829Y-37330D01*
X58840Y-37316D01*
X58868Y-37284D01*
X58869Y-37282D01*
X58899Y-37228D01*
X58899Y-37225D01*
X58918Y-37168D01*
X58918Y-37165D01*
X58925Y-37105D01*
X58925Y-44161D01*
X58773Y-43792D01*
X58495Y-43373D01*
X58141Y-43017D01*
X57725Y-42736D01*
X57261Y-42541D01*
X56769Y-42440D01*
X56267Y-42436D01*
X55773Y-42530D01*
X55308Y-42719D01*
X54887Y-42994D01*
X54528Y-43345D01*
X54244Y-43760D01*
X54046Y-44221D01*
X53942Y-44713D01*
X53935Y-45215D01*
X54025Y-45709D01*
X54210Y-46177D01*
X54482Y-46599D01*
X54831Y-46960D01*
X55244Y-47247D01*
X55704Y-47448D01*
X56195Y-47556D01*
X56697Y-47567D01*
X57192Y-47479D01*
X57660Y-47298D01*
X58085Y-47029D01*
X58449Y-46682D01*
X58738Y-46272D01*
X58943Y-45813D01*
X59054Y-45323D01*
X59062Y-44749D01*
X59062Y-52516D01*
X50478Y-52516D01*
X48615Y-52478D01*
X48627Y-52473D01*
X48628Y-52471D01*
X48630Y-52471D01*
X48676Y-52433D01*
X48679Y-52431D01*
X48679Y-52430D01*
X48680Y-52430D01*
X49277Y-51832D01*
X49279Y-51830D01*
X49293Y-51813D01*
X49318Y-51784D01*
X49318Y-51782D01*
X49320Y-51781D01*
X49324Y-51771D01*
X49349Y-51728D01*
X49349Y-51725D01*
X49368Y-51668D01*
X49369Y-51665D01*
X49373Y-51623D01*
X49375Y-51605D01*
X49375Y-51602D01*
X49375Y-51600D01*
X49375Y-49785D01*
X50900Y-48260D01*
X51109Y-48469D01*
X51109Y-49731D01*
X51099Y-49740D01*
X51089Y-49730D01*
X51057Y-49708D01*
X51021Y-49693D01*
X50982Y-49685D01*
X50943Y-49685D01*
X50550Y-49685D01*
X50512Y-49693D01*
X50476Y-49708D01*
X50443Y-49729D01*
X50416Y-49757D01*
X50394Y-49789D01*
X50379Y-49825D01*
X50371Y-49864D01*
X50371Y-49903D01*
X50371Y-50104D01*
X50369Y-50111D01*
X50368Y-50112D01*
X50368Y-50115D01*
X50364Y-50150D01*
X50362Y-50174D01*
X50362Y-50178D01*
X50362Y-50179D01*
X50362Y-50785D01*
X50357Y-50788D01*
X50324Y-50809D01*
X50297Y-50837D01*
X50275Y-50869D01*
X50260Y-50905D01*
X50252Y-50944D01*
X50252Y-50983D01*
X50252Y-51456D01*
X50260Y-51494D01*
X50275Y-51530D01*
X50296Y-51563D01*
X50324Y-51590D01*
X50356Y-51612D01*
X50392Y-51627D01*
X50431Y-51635D01*
X50470Y-51635D01*
X50943Y-51635D01*
X50981Y-51627D01*
X51017Y-51612D01*
X51050Y-51591D01*
X51077Y-51563D01*
X51099Y-51531D01*
X51114Y-51495D01*
X51122Y-51456D01*
X51122Y-51417D01*
X51122Y-50944D01*
X51114Y-50906D01*
X51099Y-50870D01*
X51078Y-50837D01*
X51050Y-50810D01*
X51018Y-50788D01*
X51012Y-50785D01*
X51012Y-50508D01*
X51020Y-50507D01*
X51056Y-50492D01*
X51089Y-50471D01*
X51100Y-50459D01*
X51111Y-50470D01*
X51143Y-50492D01*
X51179Y-50507D01*
X51218Y-50515D01*
X51257Y-50515D01*
X51650Y-50515D01*
X51688Y-50507D01*
X51724Y-50492D01*
X51757Y-50471D01*
X51784Y-50443D01*
X51806Y-50411D01*
X51821Y-50375D01*
X51829Y-50336D01*
X51829Y-50297D01*
X51829Y-49864D01*
X51821Y-49826D01*
X51806Y-49790D01*
X51785Y-49757D01*
X51759Y-49731D01*
X51759Y-48334D01*
X51753Y-48274D01*
X51753Y-48271D01*
X51745Y-48245D01*
X51736Y-48213D01*
X51734Y-48210D01*
X51707Y-48157D01*
X51705Y-48155D01*
X51705Y-48154D01*
X51667Y-48108D01*
X51665Y-48105D01*
X51664Y-48104D01*
X51225Y-47665D01*
X51225Y-43035D01*
X53735Y-40525D01*
X56965Y-40525D01*
X56969Y-40525D01*
X56989Y-40523D01*
X57028Y-40520D01*
X57031Y-40519D01*
X57032Y-40519D01*
X57039Y-40516D01*
X57090Y-40502D01*
X57093Y-40500D01*
X57146Y-40473D01*
X57147Y-40471D01*
X57149Y-40471D01*
X57195Y-40433D01*
X57198Y-40431D01*
X57198Y-40430D01*
X57199Y-40430D01*
X57871Y-39757D01*
X57993Y-39784D01*
X58128Y-39787D01*
X58262Y-39764D01*
X58389Y-39715D01*
X58503Y-39642D01*
X58601Y-39548D01*
X58680Y-39437D01*
X58735Y-39313D01*
X58765Y-39181D01*
X58767Y-39026D01*
X58741Y-38893D01*
X58689Y-38767D01*
X58614Y-38654D01*
X58518Y-38558D01*
X58406Y-38482D01*
X58280Y-38430D01*
X58148Y-38402D01*
X58012Y-38402D01*
X57879Y-38427D01*
X57753Y-38478D01*
X57639Y-38552D01*
X57542Y-38647D01*
X57466Y-38759D01*
X57412Y-38884D01*
X57384Y-39017D01*
X57382Y-39152D01*
X57407Y-39286D01*
X57411Y-39297D01*
X56834Y-39875D01*
X53600Y-39875D01*
X53537Y-39881D01*
X53511Y-39888D01*
X53479Y-39898D01*
X53423Y-39927D01*
X53421Y-39928D01*
X53420Y-39929D01*
X53395Y-39949D01*
X53373Y-39967D01*
X53371Y-39969D01*
X53370Y-39970D01*
X51748Y-41592D01*
X51748Y-40834D01*
X51703Y-40606D01*
X51615Y-40392D01*
X51486Y-40199D01*
X51323Y-40034D01*
X51130Y-39904D01*
X50916Y-39814D01*
X50689Y-39768D01*
X50457Y-39766D01*
X50229Y-39810D01*
X50014Y-39897D01*
X49820Y-40024D01*
X49654Y-40186D01*
X49523Y-40377D01*
X49432Y-40591D01*
X49384Y-40818D01*
X49380Y-41049D01*
X49422Y-41278D01*
X49508Y-41493D01*
X49633Y-41688D01*
X49795Y-41855D01*
X49985Y-41988D01*
X50198Y-42080D01*
X50424Y-42130D01*
X50656Y-42135D01*
X50885Y-42095D01*
X51101Y-42011D01*
X51297Y-41887D01*
X51465Y-41727D01*
X51599Y-41537D01*
X51693Y-41325D01*
X51744Y-41099D01*
X51748Y-40834D01*
X51748Y-41592D01*
X50670Y-42670D01*
X50642Y-42704D01*
X50632Y-42716D01*
X50631Y-42717D01*
X50630Y-42719D01*
X50623Y-42731D01*
X50601Y-42772D01*
X50582Y-42832D01*
X50581Y-42833D01*
X50581Y-42836D01*
X50577Y-42871D01*
X50575Y-42895D01*
X50575Y-42899D01*
X50575Y-42900D01*
X50575Y-47665D01*
X48820Y-49420D01*
X48792Y-49454D01*
X48782Y-49466D01*
X48781Y-49467D01*
X48780Y-49469D01*
X48773Y-49481D01*
X48751Y-49522D01*
X48732Y-49582D01*
X48731Y-49583D01*
X48731Y-49586D01*
X48727Y-49621D01*
X48725Y-49645D01*
X48725Y-49649D01*
X48725Y-49650D01*
X48725Y-51465D01*
X48315Y-51875D01*
X45835Y-51875D01*
X45575Y-51615D01*
X45575Y-51340D01*
X45637Y-51384D01*
X45726Y-51423D01*
X45821Y-51444D01*
X45918Y-51446D01*
X46013Y-51429D01*
X46104Y-51394D01*
X46186Y-51342D01*
X46256Y-51275D01*
X46312Y-51196D01*
X46352Y-51107D01*
X46369Y-51030D01*
X46399Y-51196D01*
X46463Y-51358D01*
X46558Y-51505D01*
X46679Y-51630D01*
X46822Y-51730D01*
X46982Y-51799D01*
X47152Y-51837D01*
X47326Y-51841D01*
X47498Y-51810D01*
X47661Y-51747D01*
X47808Y-51654D01*
X47934Y-51534D01*
X48035Y-51391D01*
X48106Y-51232D01*
X48144Y-51062D01*
X48147Y-50863D01*
X48113Y-50692D01*
X48047Y-50531D01*
X47950Y-50386D01*
X47828Y-50262D01*
X47683Y-50164D01*
X47522Y-50097D01*
X47352Y-50062D01*
X47177Y-50060D01*
X47126Y-50069D01*
X47126Y-48303D01*
X47135Y-48303D01*
X47173Y-48295D01*
X47209Y-48280D01*
X47242Y-48259D01*
X47269Y-48231D01*
X47291Y-48199D01*
X47306Y-48163D01*
X47314Y-48124D01*
X47314Y-48085D01*
X47314Y-47696D01*
X49227Y-45783D01*
X49229Y-45781D01*
X49268Y-45735D01*
X49270Y-45733D01*
X49280Y-45713D01*
X49299Y-45679D01*
X49299Y-45676D01*
X49318Y-45619D01*
X49318Y-45616D01*
X49325Y-45556D01*
X49325Y-45553D01*
X49325Y-45551D01*
X49325Y-36200D01*
X49319Y-36140D01*
X49319Y-36137D01*
X49306Y-36095D01*
X49301Y-36078D01*
X49300Y-36076D01*
X49272Y-36023D01*
X49271Y-36020D01*
X49240Y-35983D01*
X49233Y-35973D01*
X49232Y-35972D01*
X49231Y-35971D01*
X49229Y-35970D01*
X49225Y-35966D01*
X48182Y-34923D01*
X48180Y-34920D01*
X48145Y-34892D01*
X48134Y-34882D01*
X48132Y-34881D01*
X48131Y-34880D01*
X48118Y-34873D01*
X48078Y-34851D01*
X48074Y-34850D01*
X48018Y-34832D01*
X48016Y-34831D01*
X48014Y-34831D01*
X47979Y-34827D01*
X47955Y-34825D01*
X47951Y-34825D01*
X47950Y-34825D01*
X46323Y-34825D01*
X46260Y-34831D01*
X46253Y-34833D01*
X45870Y-34833D01*
X45832Y-34841D01*
X45796Y-34856D01*
X45763Y-34877D01*
X45736Y-34905D01*
X45714Y-34937D01*
X45699Y-34973D01*
X45691Y-35012D01*
X45691Y-35051D01*
X45691Y-35288D01*
X45699Y-35326D01*
X45714Y-35362D01*
X45735Y-35395D01*
X45740Y-35400D01*
X45736Y-35405D01*
X45714Y-35437D01*
X45709Y-35449D01*
X45180Y-34920D01*
X45145Y-34892D01*
X45134Y-34882D01*
X45132Y-34881D01*
X45131Y-34880D01*
X45118Y-34873D01*
X45078Y-34851D01*
X45074Y-34850D01*
X45018Y-34832D01*
X45016Y-34831D01*
X45014Y-34831D01*
X44979Y-34827D01*
X44955Y-34825D01*
X44951Y-34825D01*
X44950Y-34825D01*
X44277Y-34825D01*
X44214Y-34831D01*
X44207Y-34833D01*
X43824Y-34833D01*
X43786Y-34841D01*
X43750Y-34856D01*
X43717Y-34877D01*
X43690Y-34905D01*
X43668Y-34937D01*
X43653Y-34973D01*
X43645Y-35012D01*
X43645Y-35051D01*
X43645Y-35288D01*
X43653Y-35326D01*
X43668Y-35362D01*
X43689Y-35395D01*
X43694Y-35400D01*
X43690Y-35405D01*
X43668Y-35437D01*
X43653Y-35473D01*
X43645Y-35512D01*
X43645Y-35551D01*
X43645Y-35735D01*
X43625Y-35715D01*
X43625Y-34685D01*
X43935Y-34375D01*
X60945Y-34375D01*
X60950Y-34375D01*
X64746Y-34375D01*
X64750Y-34375D01*
X64770Y-34373D01*
X64809Y-34370D01*
X64812Y-34369D01*
X64813Y-34369D01*
X64820Y-34366D01*
X64871Y-34352D01*
X64874Y-34350D01*
X64927Y-34323D01*
X64928Y-34321D01*
X64930Y-34321D01*
X64976Y-34283D01*
X64979Y-34281D01*
X64979Y-34280D01*
X64980Y-34280D01*
X65577Y-33682D01*
X65579Y-33680D01*
X65593Y-33663D01*
X65618Y-33634D01*
X65618Y-33632D01*
X65620Y-33631D01*
X65624Y-33621D01*
X65649Y-33578D01*
X65649Y-33575D01*
X65668Y-33518D01*
X65669Y-33515D01*
X65673Y-33473D01*
X65675Y-33455D01*
X65675Y-33452D01*
X65675Y-33450D01*
X65675Y-32425D01*
X65818Y-32425D01*
X65874Y-32483D01*
X65955Y-32539D01*
X66045Y-32578D01*
X66140Y-32599D01*
X66239Y-32601D01*
X66335Y-32584D01*
X66426Y-32548D01*
X66509Y-32496D01*
X66580Y-32428D01*
X66637Y-32348D01*
X66677Y-32259D01*
X66698Y-32163D01*
X66700Y-32051D01*
X66681Y-31955D01*
X66644Y-31864D01*
X66589Y-31782D01*
X66520Y-31713D01*
X66439Y-31658D01*
X66349Y-31620D01*
X66253Y-31600D01*
X66154Y-31600D01*
X66058Y-31618D01*
X65967Y-31655D01*
X65885Y-31708D01*
X65817Y-31775D01*
X65352Y-31775D01*
X65350Y-31775D01*
X65287Y-31781D01*
X65251Y-31792D01*
X65228Y-31799D01*
X65226Y-31799D01*
X65226Y-31800D01*
X65170Y-31829D01*
X65121Y-31869D01*
X65096Y-31899D01*
X65082Y-31916D01*
X65051Y-31972D01*
X65050Y-31972D01*
X65050Y-31974D01*
X65044Y-31990D01*
X65032Y-32032D01*
X65025Y-32095D01*
X65025Y-32098D01*
X65025Y-32100D01*
X65025Y-33315D01*
X64900Y-33440D01*
X64900Y-32051D01*
X64881Y-31955D01*
X64844Y-31864D01*
X64789Y-31782D01*
X64720Y-31713D01*
X64639Y-31658D01*
X64549Y-31620D01*
X64453Y-31600D01*
X64354Y-31600D01*
X64258Y-31618D01*
X64167Y-31655D01*
X64085Y-31708D01*
X64015Y-31777D01*
X63960Y-31858D01*
X63921Y-31948D01*
X63901Y-32044D01*
X63899Y-32142D01*
X63917Y-32238D01*
X63953Y-32330D01*
X64006Y-32412D01*
X64074Y-32483D01*
X64155Y-32539D01*
X64245Y-32578D01*
X64340Y-32599D01*
X64439Y-32601D01*
X64535Y-32584D01*
X64626Y-32548D01*
X64709Y-32496D01*
X64780Y-32428D01*
X64837Y-32348D01*
X64877Y-32259D01*
X64898Y-32163D01*
X64900Y-32051D01*
X64900Y-33440D01*
X64615Y-33725D01*
X63400Y-33725D01*
X63400Y-32051D01*
X63381Y-31955D01*
X63344Y-31864D01*
X63289Y-31782D01*
X63220Y-31713D01*
X63139Y-31658D01*
X63049Y-31620D01*
X62953Y-31600D01*
X62854Y-31600D01*
X62758Y-31618D01*
X62667Y-31655D01*
X62585Y-31708D01*
X62515Y-31777D01*
X62460Y-31858D01*
X62421Y-31948D01*
X62401Y-32044D01*
X62399Y-32142D01*
X62417Y-32238D01*
X62453Y-32330D01*
X62506Y-32412D01*
X62574Y-32483D01*
X62655Y-32539D01*
X62745Y-32578D01*
X62840Y-32599D01*
X62939Y-32601D01*
X63035Y-32584D01*
X63126Y-32548D01*
X63209Y-32496D01*
X63280Y-32428D01*
X63337Y-32348D01*
X63377Y-32259D01*
X63398Y-32163D01*
X63400Y-32051D01*
X63400Y-33725D01*
X60955Y-33725D01*
X60950Y-33725D01*
X47579Y-33725D01*
X47651Y-33712D01*
X47720Y-33685D01*
X47782Y-33646D01*
X47835Y-33595D01*
X47877Y-33535D01*
X47907Y-33468D01*
X47923Y-33397D01*
X47924Y-33313D01*
X47910Y-33241D01*
X47882Y-33173D01*
X47841Y-33112D01*
X47789Y-33060D01*
X47728Y-33019D01*
X47661Y-32991D01*
X47589Y-32976D01*
X47516Y-32976D01*
X47444Y-32990D01*
X47376Y-33017D01*
X47363Y-33025D01*
X46734Y-33025D01*
X46134Y-32425D01*
X46396Y-32425D01*
X46400Y-32425D01*
X46420Y-32423D01*
X46459Y-32420D01*
X46462Y-32419D01*
X46463Y-32419D01*
X46470Y-32416D01*
X46521Y-32402D01*
X46524Y-32400D01*
X46577Y-32373D01*
X46578Y-32371D01*
X46580Y-32371D01*
X46626Y-32333D01*
X46629Y-32331D01*
X46629Y-32330D01*
X46630Y-32330D01*
X50440Y-28519D01*
X50443Y-28517D01*
X50470Y-28482D01*
X50481Y-28471D01*
X50481Y-28469D01*
X50483Y-28468D01*
X50493Y-28449D01*
X50512Y-28415D01*
X50512Y-28412D01*
X50513Y-28412D01*
X50531Y-28355D01*
X50532Y-28352D01*
X50536Y-28310D01*
X50538Y-28292D01*
X50538Y-28289D01*
X50538Y-28287D01*
X50538Y-28108D01*
X50583Y-28108D01*
X50621Y-28100D01*
X50657Y-28085D01*
X50690Y-28064D01*
X50717Y-28036D01*
X50739Y-28004D01*
X50740Y-28000D01*
X50975Y-28235D01*
X50975Y-28596D01*
X50975Y-28600D01*
X50976Y-28620D01*
X50980Y-28659D01*
X50980Y-28662D01*
X50981Y-28663D01*
X50983Y-28670D01*
X50998Y-28721D01*
X51000Y-28724D01*
X51027Y-28777D01*
X51028Y-28778D01*
X51029Y-28780D01*
X51067Y-28826D01*
X51069Y-28829D01*
X51070Y-28830D01*
X51170Y-28930D01*
X51204Y-28957D01*
X51216Y-28968D01*
X51217Y-28968D01*
X51219Y-28970D01*
X51238Y-28980D01*
X51272Y-28999D01*
X51274Y-28999D01*
X51275Y-29000D01*
X51332Y-29018D01*
X51335Y-29019D01*
X51377Y-29023D01*
X51395Y-29025D01*
X51398Y-29025D01*
X51400Y-29025D01*
X62496Y-29025D01*
X62500Y-29025D01*
X62520Y-29023D01*
X62559Y-29020D01*
X62562Y-29019D01*
X62563Y-29019D01*
X62570Y-29016D01*
X62621Y-29002D01*
X62624Y-29000D01*
X62677Y-28973D01*
X62678Y-28971D01*
X62680Y-28971D01*
X62726Y-28933D01*
X62729Y-28931D01*
X62729Y-28930D01*
X62730Y-28930D01*
X63127Y-28532D01*
X63129Y-28530D01*
X63168Y-28484D01*
X63170Y-28482D01*
X63180Y-28462D01*
X63199Y-28428D01*
X63199Y-28425D01*
X63218Y-28368D01*
X63218Y-28365D01*
X63225Y-28305D01*
X63225Y-28302D01*
X63225Y-28300D01*
X63225Y-27234D01*
X63234Y-27225D01*
X63524Y-27225D01*
X63478Y-27293D01*
X63435Y-27392D01*
X63413Y-27498D01*
X63411Y-27605D01*
X63431Y-27711D01*
X63470Y-27811D01*
X63529Y-27902D01*
X63604Y-27979D01*
X63692Y-28041D01*
X63791Y-28084D01*
X63896Y-28107D01*
X64003Y-28109D01*
X64110Y-28090D01*
X64210Y-28051D01*
X64301Y-27994D01*
X64379Y-27919D01*
X64441Y-27831D01*
X64460Y-27787D01*
X64470Y-27811D01*
X64529Y-27902D01*
X64604Y-27979D01*
X64692Y-28041D01*
X64791Y-28084D01*
X64896Y-28107D01*
X65003Y-28109D01*
X65110Y-28090D01*
X65210Y-28051D01*
X65301Y-27994D01*
X65379Y-27919D01*
X65412Y-27872D01*
X65412Y-27929D01*
X65420Y-27967D01*
X65435Y-28003D01*
X65456Y-28036D01*
X65484Y-28063D01*
X65516Y-28085D01*
X65552Y-28100D01*
X65591Y-28108D01*
X65630Y-28108D01*
X66331Y-28108D01*
X66369Y-28100D01*
X66405Y-28085D01*
X66438Y-28064D01*
X66465Y-28036D01*
X66487Y-28004D01*
X66502Y-27968D01*
X66510Y-27929D01*
X66510Y-27890D01*
X66510Y-27189D01*
X66502Y-27151D01*
X66487Y-27115D01*
X66466Y-27082D01*
X66438Y-27055D01*
X66406Y-27033D01*
X66370Y-27018D01*
X66331Y-27010D01*
X66310Y-27010D01*
X66306Y-26995D01*
X66301Y-26978D01*
X66300Y-26976D01*
X66272Y-26923D01*
X66271Y-26920D01*
X66240Y-26883D01*
X66233Y-26873D01*
X66232Y-26872D01*
X66231Y-26871D01*
X66229Y-26870D01*
X66225Y-26866D01*
X66032Y-26673D01*
X66030Y-26670D01*
X65995Y-26642D01*
X65984Y-26632D01*
X65982Y-26631D01*
X65981Y-26630D01*
X65968Y-26623D01*
X65928Y-26601D01*
X65924Y-26600D01*
X65868Y-26582D01*
X65866Y-26581D01*
X65864Y-26581D01*
X65829Y-26577D01*
X65805Y-26575D01*
X65801Y-26575D01*
X65800Y-26575D01*
X63100Y-26575D01*
X63037Y-26581D01*
X62995Y-26593D01*
X62978Y-26599D01*
X62976Y-26599D01*
X62976Y-26600D01*
X62920Y-26629D01*
X62883Y-26659D01*
X62873Y-26667D01*
X62872Y-26667D01*
X62871Y-26669D01*
X62866Y-26674D01*
X62670Y-26870D01*
X62642Y-26904D01*
X62632Y-26916D01*
X62631Y-26917D01*
X62630Y-26919D01*
X62623Y-26931D01*
X62601Y-26972D01*
X62582Y-27032D01*
X62581Y-27033D01*
X62581Y-27036D01*
X62577Y-27071D01*
X62575Y-27095D01*
X62575Y-27099D01*
X62575Y-27100D01*
X62575Y-28165D01*
X62365Y-28375D01*
X59063Y-28375D01*
X59063Y-24924D01*
X58988Y-24544D01*
X58840Y-24186D01*
X58625Y-23863D01*
X58352Y-23588D01*
X58031Y-23371D01*
X57674Y-23221D01*
X57294Y-23143D01*
X56907Y-23141D01*
X56526Y-23213D01*
X56167Y-23359D01*
X55843Y-23571D01*
X55566Y-23842D01*
X55347Y-24162D01*
X55194Y-24518D01*
X55114Y-24897D01*
X55108Y-25284D01*
X55178Y-25666D01*
X55321Y-26026D01*
X55531Y-26351D01*
X55800Y-26630D01*
X56119Y-26851D01*
X56474Y-27006D01*
X56852Y-27090D01*
X57240Y-27098D01*
X57621Y-27030D01*
X57982Y-26890D01*
X58310Y-26682D01*
X58590Y-26415D01*
X58814Y-26099D01*
X58971Y-25744D01*
X59057Y-25367D01*
X59063Y-24924D01*
X59063Y-28375D01*
X51625Y-28375D01*
X51625Y-28100D01*
X51621Y-28061D01*
X51620Y-28041D01*
X51619Y-28037D01*
X51616Y-28029D01*
X51602Y-27979D01*
X51600Y-27976D01*
X51573Y-27923D01*
X51571Y-27921D01*
X51571Y-27920D01*
X51533Y-27874D01*
X51531Y-27871D01*
X51530Y-27870D01*
X50989Y-27329D01*
X50954Y-27301D01*
X50943Y-27291D01*
X50941Y-27290D01*
X50940Y-27289D01*
X50927Y-27282D01*
X50887Y-27260D01*
X50883Y-27259D01*
X50827Y-27241D01*
X50825Y-27240D01*
X50823Y-27240D01*
X50788Y-27236D01*
X50764Y-27234D01*
X50762Y-27234D01*
X50762Y-27189D01*
X50754Y-27151D01*
X50739Y-27115D01*
X50718Y-27082D01*
X50690Y-27055D01*
X50658Y-27033D01*
X50622Y-27018D01*
X50583Y-27010D01*
X50544Y-27010D01*
X49843Y-27010D01*
X49805Y-27018D01*
X49769Y-27033D01*
X49736Y-27054D01*
X49709Y-27082D01*
X49687Y-27114D01*
X49672Y-27150D01*
X49664Y-27189D01*
X49664Y-27228D01*
X49664Y-27246D01*
X49640Y-27210D01*
X49565Y-27134D01*
X49475Y-27074D01*
X49376Y-27032D01*
X49270Y-27010D01*
X49163Y-27010D01*
X49057Y-27030D01*
X48957Y-27070D01*
X48867Y-27129D01*
X48790Y-27205D01*
X48730Y-27293D01*
X48713Y-27331D01*
X48700Y-27300D01*
X48640Y-27210D01*
X48565Y-27134D01*
X48475Y-27074D01*
X48376Y-27032D01*
X48270Y-27010D01*
X48163Y-27010D01*
X48057Y-27030D01*
X47957Y-27070D01*
X47867Y-27129D01*
X47790Y-27205D01*
X47730Y-27293D01*
X47687Y-27392D01*
X47665Y-27498D01*
X47663Y-27605D01*
X47683Y-27711D01*
X47722Y-27811D01*
X47781Y-27902D01*
X47856Y-27979D01*
X47944Y-28041D01*
X48043Y-28084D01*
X48148Y-28107D01*
X48255Y-28109D01*
X48362Y-28090D01*
X48462Y-28051D01*
X48553Y-27994D01*
X48631Y-27919D01*
X48693Y-27831D01*
X48712Y-27787D01*
X48722Y-27811D01*
X48781Y-27902D01*
X48856Y-27979D01*
X48944Y-28041D01*
X49043Y-28084D01*
X49148Y-28107D01*
X49255Y-28109D01*
X49362Y-28090D01*
X49462Y-28051D01*
X49553Y-27994D01*
X49631Y-27919D01*
X49664Y-27872D01*
X49664Y-27929D01*
X49672Y-27967D01*
X49687Y-28003D01*
X49708Y-28036D01*
X49736Y-28063D01*
X49768Y-28085D01*
X49804Y-28100D01*
X49843Y-28108D01*
X49882Y-28108D01*
X49888Y-28108D01*
X49888Y-28152D01*
X46265Y-31775D01*
X46125Y-31775D01*
X46120Y-31747D01*
X46105Y-31711D01*
X46084Y-31678D01*
X46056Y-31651D01*
X46024Y-31629D01*
X45988Y-31614D01*
X45949Y-31606D01*
X45910Y-31606D01*
X45399Y-31606D01*
X45361Y-31614D01*
X45325Y-31629D01*
X45292Y-31650D01*
X45265Y-31678D01*
X45243Y-31710D01*
X45228Y-31746D01*
X45220Y-31785D01*
X45220Y-31824D01*
X45220Y-32415D01*
X45228Y-32453D01*
X45243Y-32489D01*
X45264Y-32522D01*
X45292Y-32549D01*
X45324Y-32571D01*
X45360Y-32586D01*
X45397Y-32593D01*
X45401Y-32601D01*
X45402Y-32602D01*
X45403Y-32604D01*
X45441Y-32650D01*
X45443Y-32653D01*
X45444Y-32654D01*
X46368Y-33577D01*
X46370Y-33579D01*
X46386Y-33593D01*
X46416Y-33618D01*
X46417Y-33618D01*
X46419Y-33620D01*
X46428Y-33624D01*
X46472Y-33649D01*
X46475Y-33649D01*
X46532Y-33668D01*
X46535Y-33669D01*
X46577Y-33673D01*
X46595Y-33675D01*
X46598Y-33675D01*
X46600Y-33675D01*
X47362Y-33675D01*
X47367Y-33678D01*
X47434Y-33708D01*
X47506Y-33723D01*
X47579Y-33725D01*
X43800Y-33725D01*
X43761Y-33728D01*
X43741Y-33730D01*
X43737Y-33730D01*
X43737Y-33731D01*
X43729Y-33733D01*
X43679Y-33748D01*
X43623Y-33777D01*
X43621Y-33778D01*
X43620Y-33779D01*
X43571Y-33819D01*
X43570Y-33819D01*
X43570Y-33820D01*
X43315Y-34075D01*
X43315Y-24924D01*
X43240Y-24544D01*
X43092Y-24186D01*
X42877Y-23863D01*
X42604Y-23588D01*
X42283Y-23371D01*
X41926Y-23221D01*
X41546Y-23143D01*
X41159Y-23141D01*
X40778Y-23213D01*
X40419Y-23359D01*
X40095Y-23571D01*
X39818Y-23842D01*
X39599Y-24162D01*
X39446Y-24518D01*
X39366Y-24897D01*
X39360Y-25284D01*
X39430Y-25666D01*
X39573Y-26026D01*
X39783Y-26351D01*
X40052Y-26630D01*
X40371Y-26851D01*
X40726Y-27006D01*
X41104Y-27090D01*
X41492Y-27098D01*
X41873Y-27030D01*
X42234Y-26890D01*
X42562Y-26682D01*
X42842Y-26415D01*
X43066Y-26099D01*
X43223Y-25744D01*
X43309Y-25367D01*
X43315Y-24924D01*
X43315Y-34075D01*
X43070Y-34320D01*
X43042Y-34354D01*
X43032Y-34366D01*
X43031Y-34367D01*
X43030Y-34369D01*
X43023Y-34381D01*
X43001Y-34422D01*
X42982Y-34482D01*
X42981Y-34483D01*
X42981Y-34486D01*
X42977Y-34521D01*
X42975Y-34545D01*
X42975Y-34549D01*
X42975Y-34550D01*
X42975Y-35846D01*
X42975Y-35850D01*
X42976Y-35870D01*
X42980Y-35909D01*
X42980Y-35912D01*
X42981Y-35913D01*
X42983Y-35920D01*
X42998Y-35971D01*
X43000Y-35974D01*
X43027Y-36027D01*
X43028Y-36028D01*
X43029Y-36030D01*
X43067Y-36076D01*
X43069Y-36079D01*
X43070Y-36080D01*
X43370Y-36380D01*
X43404Y-36407D01*
X43416Y-36418D01*
X43417Y-36418D01*
X43419Y-36420D01*
X43438Y-36430D01*
X43472Y-36449D01*
X43474Y-36449D01*
X43475Y-36450D01*
X43532Y-36468D01*
X43535Y-36469D01*
X43577Y-36473D01*
X43595Y-36475D01*
X43598Y-36475D01*
X43600Y-36475D01*
X44277Y-36475D01*
X44340Y-36469D01*
X44346Y-36467D01*
X44730Y-36467D01*
X44768Y-36459D01*
X44775Y-36456D01*
X44775Y-37606D01*
X44651Y-37606D01*
X44613Y-37614D01*
X44577Y-37629D01*
X44544Y-37650D01*
X44517Y-37678D01*
X44495Y-37710D01*
X44480Y-37746D01*
X44472Y-37785D01*
X44472Y-37824D01*
X44472Y-38415D01*
X44480Y-38453D01*
X44495Y-38489D01*
X44516Y-38522D01*
X44544Y-38549D01*
X44576Y-38571D01*
X44601Y-38581D01*
X44601Y-38825D01*
X44601Y-38826D01*
X44607Y-38889D01*
X44612Y-38907D01*
X44625Y-38949D01*
X44626Y-38950D01*
X44639Y-38976D01*
X44655Y-39006D01*
X44695Y-39055D01*
X44744Y-39095D01*
X44799Y-39125D01*
X44800Y-39126D01*
X44842Y-39138D01*
X44860Y-39144D01*
X44861Y-39144D01*
X44922Y-39151D01*
X44923Y-39150D01*
X44924Y-39151D01*
X44934Y-39150D01*
X44985Y-39146D01*
X44987Y-39145D01*
X45047Y-39128D01*
X45048Y-39127D01*
X45051Y-39125D01*
X45052Y-39125D01*
X48112Y-39125D01*
X48117Y-39128D01*
X48184Y-39158D01*
X48256Y-39173D01*
X48329Y-39175D01*
X48401Y-39162D01*
X48470Y-39135D01*
X48532Y-39096D01*
X48585Y-39045D01*
X48627Y-38985D01*
X48657Y-38918D01*
X48673Y-38847D01*
X48674Y-38763D01*
X48660Y-38691D01*
X48632Y-38623D01*
X48591Y-38562D01*
X48539Y-38510D01*
X48478Y-38469D01*
X48411Y-38441D01*
X48339Y-38426D01*
X48266Y-38426D01*
X48194Y-38440D01*
X48126Y-38467D01*
X48113Y-38475D01*
X46111Y-38475D01*
X46120Y-38454D01*
X46128Y-38415D01*
X46128Y-38376D01*
X46128Y-37785D01*
X46120Y-37747D01*
X46105Y-37711D01*
X46084Y-37678D01*
X46056Y-37651D01*
X46024Y-37629D01*
X45999Y-37618D01*
X45999Y-36967D01*
X46251Y-36967D01*
X46255Y-36968D01*
X46318Y-36975D01*
X46323Y-36975D01*
X47315Y-36975D01*
X47937Y-37597D01*
X47939Y-37604D01*
X47966Y-37672D01*
X48006Y-37734D01*
X48057Y-37786D01*
X48117Y-37828D01*
X48184Y-37858D01*
X48256Y-37873D01*
X48329Y-37875D01*
X48401Y-37862D01*
X48470Y-37835D01*
X48532Y-37796D01*
X48585Y-37745D01*
X48627Y-37685D01*
X48657Y-37618D01*
X48673Y-37547D01*
X48674Y-37463D01*
X48660Y-37391D01*
X48632Y-37323D01*
X48591Y-37262D01*
X48539Y-37210D01*
X48478Y-37169D01*
X48411Y-37141D01*
X48398Y-37138D01*
X48226Y-36966D01*
X48256Y-36973D01*
X48329Y-36975D01*
X48401Y-36962D01*
X48470Y-36935D01*
X48532Y-36896D01*
X48585Y-36845D01*
X48627Y-36785D01*
X48657Y-36718D01*
X48673Y-36647D01*
X48674Y-36563D01*
X48660Y-36491D01*
X48632Y-36423D01*
X48591Y-36362D01*
X48539Y-36310D01*
X48478Y-36269D01*
X48411Y-36241D01*
X48398Y-36238D01*
X48080Y-35920D01*
X48045Y-35892D01*
X48034Y-35882D01*
X48032Y-35881D01*
X48031Y-35880D01*
X48018Y-35873D01*
X47978Y-35851D01*
X47974Y-35850D01*
X47918Y-35832D01*
X47916Y-35831D01*
X47914Y-35831D01*
X47880Y-35827D01*
X47907Y-35768D01*
X47923Y-35697D01*
X47924Y-35613D01*
X47916Y-35576D01*
X48675Y-36334D01*
X48675Y-45416D01*
X47126Y-46965D01*
X47126Y-45501D01*
X47120Y-45441D01*
X47120Y-45438D01*
X47112Y-45412D01*
X47103Y-45380D01*
X47101Y-45377D01*
X47074Y-45324D01*
X47072Y-45322D01*
X47072Y-45321D01*
X47052Y-45296D01*
X47034Y-45274D01*
X47032Y-45272D01*
X47031Y-45271D01*
X46680Y-44920D01*
X46645Y-44892D01*
X46634Y-44882D01*
X46632Y-44881D01*
X46631Y-44880D01*
X46618Y-44873D01*
X46578Y-44851D01*
X46574Y-44850D01*
X46518Y-44832D01*
X46516Y-44831D01*
X46514Y-44831D01*
X46479Y-44827D01*
X46455Y-44825D01*
X46451Y-44825D01*
X46450Y-44825D01*
X46069Y-44825D01*
X46069Y-44170D01*
X46069Y-44131D01*
X46069Y-43330D01*
X46061Y-43292D01*
X46046Y-43256D01*
X46025Y-43223D01*
X45997Y-43196D01*
X45965Y-43174D01*
X45929Y-43159D01*
X45890Y-43151D01*
X45851Y-43151D01*
X44410Y-43151D01*
X44372Y-43159D01*
X44336Y-43174D01*
X44303Y-43195D01*
X44276Y-43223D01*
X44254Y-43255D01*
X44239Y-43291D01*
X44231Y-43330D01*
X44231Y-43369D01*
X44231Y-44170D01*
X44239Y-44208D01*
X44254Y-44244D01*
X44275Y-44277D01*
X44303Y-44304D01*
X44335Y-44326D01*
X44371Y-44341D01*
X44410Y-44349D01*
X44449Y-44349D01*
X45890Y-44349D01*
X45928Y-44341D01*
X45964Y-44326D01*
X45997Y-44305D01*
X46024Y-44277D01*
X46046Y-44245D01*
X46061Y-44209D01*
X46069Y-44170D01*
X46069Y-44825D01*
X44700Y-44825D01*
X44637Y-44831D01*
X44611Y-44838D01*
X44579Y-44848D01*
X44523Y-44877D01*
X44521Y-44878D01*
X44520Y-44879D01*
X44495Y-44899D01*
X44473Y-44917D01*
X44471Y-44919D01*
X44470Y-44920D01*
X44020Y-45370D01*
X43992Y-45404D01*
X43982Y-45416D01*
X43981Y-45417D01*
X43980Y-45419D01*
X43973Y-45431D01*
X43951Y-45472D01*
X43932Y-45532D01*
X43931Y-45533D01*
X43931Y-45536D01*
X43927Y-45571D01*
X43925Y-45595D01*
X43925Y-45599D01*
X43925Y-45600D01*
X43925Y-45793D01*
X43923Y-45795D01*
X43896Y-45823D01*
X43874Y-45855D01*
X43859Y-45891D01*
X43851Y-45930D01*
X43851Y-45969D01*
X43851Y-46725D01*
X43850Y-46725D01*
X43787Y-46731D01*
X43761Y-46738D01*
X43729Y-46748D01*
X43673Y-46777D01*
X43671Y-46778D01*
X43670Y-46779D01*
X43645Y-46799D01*
X43623Y-46817D01*
X43621Y-46819D01*
X43620Y-46820D01*
X43269Y-47171D01*
X43247Y-47197D01*
X43165Y-47197D01*
X43127Y-47205D01*
X43091Y-47220D01*
X43058Y-47241D01*
X43031Y-47269D01*
X43009Y-47301D01*
X42994Y-47337D01*
X42986Y-47376D01*
X42986Y-47415D01*
X42986Y-48124D01*
X42994Y-48162D01*
X43009Y-48198D01*
X43030Y-48231D01*
X43058Y-48258D01*
X43090Y-48280D01*
X43126Y-48295D01*
X43165Y-48303D01*
X43204Y-48303D01*
X43833Y-48303D01*
X43871Y-48295D01*
X43907Y-48280D01*
X43940Y-48259D01*
X43967Y-48231D01*
X43989Y-48199D01*
X44004Y-48163D01*
X44012Y-48124D01*
X44012Y-48085D01*
X44012Y-47376D01*
X44011Y-47375D01*
X44546Y-47375D01*
X44550Y-47375D01*
X44570Y-47373D01*
X44609Y-47370D01*
X44612Y-47369D01*
X44613Y-47369D01*
X44620Y-47366D01*
X44671Y-47352D01*
X44674Y-47350D01*
X44727Y-47323D01*
X44728Y-47321D01*
X44730Y-47321D01*
X44776Y-47283D01*
X44779Y-47281D01*
X44779Y-47280D01*
X44780Y-47280D01*
X44927Y-47132D01*
X44930Y-47130D01*
X44957Y-47095D01*
X44968Y-47084D01*
X44968Y-47082D01*
X44970Y-47081D01*
X44980Y-47062D01*
X44999Y-47028D01*
X44999Y-47025D01*
X45000Y-47025D01*
X45003Y-47015D01*
X45018Y-46968D01*
X45018Y-46966D01*
X45019Y-46964D01*
X45022Y-46925D01*
X45025Y-46905D01*
X45025Y-46902D01*
X45025Y-46900D01*
X45025Y-45934D01*
X45084Y-45875D01*
X45665Y-45875D01*
X45659Y-45891D01*
X45651Y-45930D01*
X45651Y-45969D01*
X45651Y-46770D01*
X45659Y-46808D01*
X45674Y-46844D01*
X45695Y-46877D01*
X45723Y-46904D01*
X45725Y-46905D01*
X45726Y-46920D01*
X45730Y-46959D01*
X45730Y-46962D01*
X45731Y-46963D01*
X45733Y-46970D01*
X45748Y-47021D01*
X45750Y-47024D01*
X45777Y-47077D01*
X45778Y-47078D01*
X45779Y-47080D01*
X45817Y-47126D01*
X45819Y-47129D01*
X45820Y-47130D01*
X45925Y-47234D01*
X45925Y-49215D01*
X45020Y-50120D01*
X44992Y-50154D01*
X44982Y-50166D01*
X44981Y-50167D01*
X44980Y-50169D01*
X44973Y-50181D01*
X44951Y-50222D01*
X44932Y-50282D01*
X44931Y-50283D01*
X44931Y-50286D01*
X44927Y-50321D01*
X44925Y-50345D01*
X44925Y-50349D01*
X44925Y-50350D01*
X44925Y-50558D01*
X44857Y-50513D01*
X44768Y-50475D01*
X44673Y-50455D01*
X44575Y-50455D01*
X44480Y-50473D01*
X44390Y-50509D01*
X44309Y-50562D01*
X44239Y-50630D01*
X44184Y-50710D01*
X44146Y-50799D01*
X44131Y-50863D01*
X44097Y-50692D01*
X44031Y-50531D01*
X43934Y-50386D01*
X43812Y-50262D01*
X43667Y-50164D01*
X43506Y-50097D01*
X43336Y-50062D01*
X43161Y-50060D01*
X42990Y-50093D01*
X42886Y-50134D01*
X41821Y-49070D01*
X41816Y-49064D01*
X41813Y-49061D01*
X41782Y-49023D01*
X41781Y-49021D01*
X41750Y-48996D01*
X41734Y-48982D01*
X41732Y-48981D01*
X41678Y-48951D01*
X41677Y-48950D01*
X41676Y-48950D01*
X41659Y-48944D01*
X41618Y-48932D01*
X41555Y-48925D01*
X41552Y-48925D01*
X41550Y-48925D01*
X41118Y-48925D01*
X41118Y-40834D01*
X41073Y-40606D01*
X40985Y-40392D01*
X40856Y-40199D01*
X40693Y-40034D01*
X40500Y-39904D01*
X40286Y-39814D01*
X40059Y-39768D01*
X39827Y-39766D01*
X39599Y-39810D01*
X39384Y-39897D01*
X39190Y-40024D01*
X39024Y-40186D01*
X38893Y-40377D01*
X38802Y-40591D01*
X38754Y-40818D01*
X38750Y-41049D01*
X38792Y-41278D01*
X38878Y-41493D01*
X39003Y-41688D01*
X39165Y-41855D01*
X39355Y-41988D01*
X39568Y-42080D01*
X39794Y-42130D01*
X40026Y-42135D01*
X40255Y-42095D01*
X40471Y-42011D01*
X40667Y-41887D01*
X40835Y-41727D01*
X40969Y-41537D01*
X41063Y-41325D01*
X41114Y-41099D01*
X41118Y-40834D01*
X41118Y-48925D01*
X40035Y-48925D01*
X39075Y-47965D01*
X39075Y-46821D01*
X39299Y-46821D01*
X39337Y-46860D01*
X39414Y-46913D01*
X39499Y-46950D01*
X39590Y-46970D01*
X39683Y-46972D01*
X39775Y-46956D01*
X39862Y-46922D01*
X39940Y-46872D01*
X40008Y-46808D01*
X40061Y-46731D01*
X40099Y-46646D01*
X40120Y-46555D01*
X40121Y-46449D01*
X40121Y-45449D01*
X40103Y-45358D01*
X40067Y-45272D01*
X40016Y-45194D01*
X39950Y-45128D01*
X39873Y-45076D01*
X39787Y-45040D01*
X39695Y-45021D01*
X39602Y-45021D01*
X39511Y-45038D01*
X39424Y-45073D01*
X39347Y-45124D01*
X39280Y-45190D01*
X39228Y-45266D01*
X39191Y-45352D01*
X39172Y-45443D01*
X39170Y-45536D01*
X39187Y-45628D01*
X39222Y-45715D01*
X39272Y-45793D01*
X39337Y-45860D01*
X39414Y-45913D01*
X39499Y-45950D01*
X39590Y-45970D01*
X39683Y-45972D01*
X39775Y-45956D01*
X39862Y-45922D01*
X39940Y-45872D01*
X40008Y-45808D01*
X40061Y-45731D01*
X40099Y-45646D01*
X40120Y-45555D01*
X40121Y-45449D01*
X40121Y-46449D01*
X40103Y-46358D01*
X40067Y-46272D01*
X40016Y-46194D01*
X39950Y-46128D01*
X39873Y-46076D01*
X39787Y-46040D01*
X39695Y-46021D01*
X39602Y-46021D01*
X39511Y-46038D01*
X39424Y-46073D01*
X39347Y-46124D01*
X39299Y-46171D01*
X38804Y-46171D01*
X38741Y-46177D01*
X38715Y-46184D01*
X38683Y-46194D01*
X38627Y-46223D01*
X38625Y-46224D01*
X38624Y-46225D01*
X38599Y-46245D01*
X38577Y-46263D01*
X38575Y-46265D01*
X38574Y-46266D01*
X38520Y-46320D01*
X38492Y-46354D01*
X38482Y-46366D01*
X38481Y-46367D01*
X38480Y-46369D01*
X38473Y-46381D01*
X38451Y-46422D01*
X38432Y-46482D01*
X38431Y-46483D01*
X38431Y-46486D01*
X38427Y-46521D01*
X38425Y-46545D01*
X38425Y-46549D01*
X38425Y-46550D01*
X38425Y-48096D01*
X38425Y-48100D01*
X38426Y-48120D01*
X38430Y-48159D01*
X38430Y-48162D01*
X38431Y-48163D01*
X38433Y-48170D01*
X38448Y-48221D01*
X38450Y-48224D01*
X38477Y-48277D01*
X38478Y-48278D01*
X38479Y-48280D01*
X38517Y-48326D01*
X38519Y-48329D01*
X38520Y-48330D01*
X39670Y-49480D01*
X39704Y-49507D01*
X39716Y-49518D01*
X39717Y-49518D01*
X39719Y-49520D01*
X39738Y-49530D01*
X39772Y-49549D01*
X39774Y-49549D01*
X39775Y-49550D01*
X39832Y-49568D01*
X39835Y-49569D01*
X39877Y-49573D01*
X39895Y-49575D01*
X39898Y-49575D01*
X39900Y-49575D01*
X41407Y-49575D01*
X42427Y-50594D01*
X42391Y-50680D01*
X42354Y-50850D01*
X42352Y-51025D01*
X42383Y-51196D01*
X42447Y-51358D01*
X42542Y-51505D01*
X42663Y-51630D01*
X42806Y-51730D01*
X42966Y-51799D01*
X43136Y-51837D01*
X43310Y-51841D01*
X43482Y-51810D01*
X43645Y-51747D01*
X43792Y-51654D01*
X43918Y-51534D01*
X44019Y-51391D01*
X44090Y-51232D01*
X44128Y-51062D01*
X44128Y-51016D01*
X44142Y-51087D01*
X44177Y-51177D01*
X44230Y-51258D01*
X44297Y-51328D01*
X44377Y-51384D01*
X44466Y-51423D01*
X44561Y-51444D01*
X44658Y-51446D01*
X44753Y-51429D01*
X44844Y-51394D01*
X44925Y-51342D01*
X44925Y-51746D01*
X44925Y-51750D01*
X44926Y-51770D01*
X44930Y-51809D01*
X44930Y-51812D01*
X44931Y-51813D01*
X44933Y-51820D01*
X44948Y-51871D01*
X44950Y-51874D01*
X44977Y-51927D01*
X44978Y-51928D01*
X44979Y-51930D01*
X45017Y-51976D01*
X45019Y-51979D01*
X45020Y-51980D01*
X45455Y-52415D01*
X38782Y-52282D01*
X38604Y-52261D01*
X38438Y-52208D01*
X38286Y-52123D01*
X38153Y-52012D01*
X38043Y-51876D01*
X37962Y-51722D01*
X37913Y-51555D01*
X37895Y-51377D01*
X37895Y-14785D01*
X37913Y-14605D01*
X37964Y-14436D01*
X38047Y-14280D01*
X38159Y-14144D01*
X38295Y-14032D01*
X38451Y-13949D01*
X38620Y-13898D01*
X38800Y-13880D01*
X75393Y-13880D01*
X75571Y-13898D01*
X75738Y-13947D01*
X75892Y-14028D01*
X76028Y-14138D01*
X76139Y-14271D01*
X76224Y-14424D01*
X76277Y-14589D01*
X76298Y-14767D01*
X76532Y-26479D01*
X76532Y-52516D01*
M02*
