G04 (created by PCBNEW-RS274X (2012-jan-04)-stable) date Wed 06 Jun 2012 12:26:46 PM CEST*
G01*
G70*
G90*
%MOIN*%
G04 Gerber Fmt 3.4, Leading zero omitted, Abs format*
%FSLAX34Y34*%
G04 APERTURE LIST*
%ADD10C,0.006000*%
%ADD11C,0.008000*%
%ADD12C,0.070000*%
%ADD13R,0.070000X0.070000*%
%ADD14R,0.047200X0.047200*%
%ADD15C,0.160000*%
%ADD16R,0.144000X0.080000*%
%ADD17R,0.040000X0.080000*%
%ADD18C,0.060000*%
%ADD19C,0.295300*%
%ADD20R,0.051100X0.059000*%
%ADD21R,0.062900X0.070800*%
%ADD22R,0.086600X0.023600*%
%ADD23R,0.039300X0.043300*%
%ADD24C,0.393700*%
%ADD25C,0.196900*%
%ADD26O,0.137800X0.098400*%
%ADD27C,0.059100*%
%ADD28C,0.044000*%
%ADD29C,0.472400*%
%ADD30C,0.098400*%
%ADD31C,0.035000*%
%ADD32C,0.025000*%
%ADD33C,0.012000*%
G04 APERTURE END LIST*
G54D10*
G54D11*
X37402Y-52756D02*
X37402Y-13386D01*
X76772Y-52756D02*
X37402Y-52756D01*
X76772Y-13386D02*
X76772Y-52756D01*
X37402Y-13386D02*
X76772Y-13386D01*
G54D12*
X48213Y-27559D03*
X49213Y-27559D03*
G54D13*
X50213Y-27559D03*
G54D12*
X63961Y-27559D03*
X64961Y-27559D03*
G54D13*
X65961Y-27559D03*
G54D14*
X65487Y-41300D03*
X66313Y-41300D03*
G54D15*
X39370Y-15354D03*
X74803Y-15354D03*
X39370Y-50787D03*
X74803Y-50787D03*
G54D16*
X45150Y-43750D03*
G54D17*
X45150Y-46350D03*
X46050Y-46350D03*
X44250Y-46350D03*
G54D18*
X67700Y-32100D03*
X67700Y-37100D03*
X66200Y-32100D03*
X66200Y-37100D03*
X64400Y-32100D03*
X64400Y-37100D03*
X62900Y-32100D03*
X62900Y-37100D03*
G54D19*
X72835Y-25118D03*
X41339Y-25118D03*
X57087Y-25118D03*
G54D20*
X45674Y-32100D03*
X44926Y-32100D03*
X45674Y-38100D03*
X44926Y-38100D03*
G54D21*
X46801Y-47750D03*
X45699Y-47750D03*
X43499Y-47750D03*
X44601Y-47750D03*
G54D22*
X44277Y-35150D03*
X44277Y-35650D03*
X44277Y-36150D03*
X44277Y-36650D03*
X46323Y-36650D03*
X46323Y-36150D03*
X46323Y-35650D03*
X46323Y-35150D03*
G54D23*
X65566Y-40400D03*
X66234Y-40400D03*
G54D24*
X73500Y-37500D03*
X73500Y-44500D03*
X68800Y-47900D03*
X63400Y-47900D03*
G54D25*
X50565Y-40950D03*
X39935Y-40950D03*
G54D26*
X47258Y-50714D03*
X43242Y-50714D03*
G54D27*
X45880Y-50714D03*
X44620Y-50714D03*
X40354Y-46496D03*
X40354Y-45496D03*
X40354Y-47496D03*
G54D28*
X56000Y-35100D03*
X55000Y-36100D03*
X56000Y-37100D03*
G54D29*
X56000Y-45200D03*
G54D30*
X56000Y-39294D03*
X54425Y-39294D03*
X57575Y-39294D03*
G54D31*
X48300Y-36600D03*
X48300Y-39400D03*
X48300Y-37500D03*
X47550Y-35650D03*
X47550Y-33350D03*
G54D32*
X45674Y-36226D02*
X45674Y-38100D01*
G54D33*
X46323Y-36150D02*
X45750Y-36150D01*
G54D32*
X45600Y-36152D02*
X45674Y-36226D01*
X45600Y-35800D02*
X45600Y-36152D01*
X45750Y-36150D02*
X45674Y-36226D01*
X44277Y-35150D02*
X44950Y-35150D01*
X46323Y-36150D02*
X47850Y-36150D01*
X44950Y-35150D02*
X45600Y-35800D01*
X47850Y-36150D02*
X48300Y-36600D01*
X49000Y-36200D02*
X49000Y-45551D01*
X46801Y-45501D02*
X46450Y-45150D01*
X44700Y-45150D02*
X44250Y-45600D01*
X49000Y-45551D02*
X46801Y-47750D01*
X46450Y-45150D02*
X44700Y-45150D01*
X44250Y-45600D02*
X44250Y-46350D01*
X46801Y-47750D02*
X46801Y-50257D01*
X47950Y-35150D02*
X49000Y-36200D01*
X46323Y-35150D02*
X47950Y-35150D01*
X46801Y-47750D02*
X46801Y-45501D01*
X46801Y-50257D02*
X47258Y-50714D01*
X45500Y-51600D02*
X48600Y-51600D01*
X50900Y-42900D02*
X53600Y-40200D01*
X65994Y-39294D02*
X66234Y-39534D01*
X44700Y-46900D02*
X44550Y-47050D01*
X45250Y-51350D02*
X45500Y-51600D01*
X57575Y-39294D02*
X65994Y-39294D01*
X43850Y-47050D02*
X43499Y-47401D01*
X44550Y-47050D02*
X43850Y-47050D01*
X46050Y-46350D02*
X46050Y-46900D01*
X44950Y-45550D02*
X44700Y-45800D01*
X66234Y-39534D02*
X66234Y-40400D01*
X46050Y-45750D02*
X45850Y-45550D01*
X46250Y-49350D02*
X45250Y-50350D01*
X44700Y-45800D02*
X44700Y-46900D01*
X48600Y-51600D02*
X48900Y-51300D01*
X56969Y-39900D02*
X57575Y-39294D01*
X49050Y-49650D02*
X50900Y-47800D01*
X43499Y-47401D02*
X43499Y-47750D01*
X48900Y-51300D02*
X48900Y-49800D01*
X56969Y-40200D02*
X56969Y-39900D01*
X46050Y-46900D02*
X46250Y-47100D01*
X45850Y-45550D02*
X44950Y-45550D01*
X46050Y-46350D02*
X46050Y-45750D01*
X50900Y-47800D02*
X50900Y-42900D01*
X45250Y-50350D02*
X45250Y-51350D01*
X46250Y-47100D02*
X46250Y-49350D01*
X48900Y-49800D02*
X49050Y-49650D01*
X53600Y-40200D02*
X56969Y-40200D01*
X42800Y-33900D02*
X64900Y-33900D01*
X42400Y-35900D02*
X42400Y-34300D01*
X65350Y-32100D02*
X66200Y-32100D01*
X65350Y-33450D02*
X65350Y-32100D01*
X42400Y-34300D02*
X42800Y-33900D01*
X42650Y-36150D02*
X42400Y-35900D01*
X44277Y-36150D02*
X42650Y-36150D01*
X64900Y-33900D02*
X65350Y-33450D01*
X68400Y-47900D02*
X66313Y-45813D01*
X41700Y-33600D02*
X43200Y-32100D01*
X57000Y-36700D02*
X57000Y-36100D01*
X45150Y-47750D02*
X45150Y-46350D01*
X57000Y-36100D02*
X56000Y-35100D01*
X44950Y-48800D02*
X45150Y-48600D01*
X55300Y-38400D02*
X56200Y-38400D01*
X66313Y-45813D02*
X66313Y-41300D01*
X41700Y-37000D02*
X41700Y-33600D01*
X45699Y-47750D02*
X45150Y-47750D01*
X44277Y-36650D02*
X43350Y-36650D01*
X42350Y-47500D02*
X42350Y-48800D01*
X44277Y-36650D02*
X43350Y-36650D01*
X45150Y-48600D02*
X45150Y-47750D01*
X57000Y-37600D02*
X57000Y-36700D01*
X42300Y-47500D02*
X42350Y-47500D01*
X42350Y-48800D02*
X44950Y-48800D01*
X45150Y-47750D02*
X44601Y-47750D01*
X54425Y-39275D02*
X55300Y-38400D01*
X43350Y-36650D02*
X42350Y-37650D01*
X43350Y-36650D02*
X43350Y-38550D01*
X44200Y-39400D02*
X48300Y-39400D01*
X43200Y-32100D02*
X44926Y-32100D01*
X42350Y-37650D02*
X41700Y-37000D01*
X54425Y-39294D02*
X54425Y-39275D01*
X42350Y-37650D02*
X42350Y-47500D01*
X68800Y-47900D02*
X68400Y-47900D01*
X42346Y-47500D02*
X42300Y-47500D01*
X43350Y-38550D02*
X44200Y-39400D01*
X40354Y-47496D02*
X42350Y-47496D01*
X56200Y-38400D02*
X57000Y-37600D01*
X42350Y-47496D02*
X42346Y-47500D01*
X39900Y-49250D02*
X41778Y-49250D01*
X38750Y-48100D02*
X39900Y-49250D01*
X38804Y-46496D02*
X38750Y-46550D01*
X38750Y-46550D02*
X38750Y-48100D01*
X40354Y-46496D02*
X38804Y-46496D01*
X41778Y-49250D02*
X43242Y-50714D01*
X65566Y-41221D02*
X65487Y-41300D01*
X65566Y-40400D02*
X65566Y-41221D01*
X46323Y-36650D02*
X47450Y-36650D01*
X56000Y-39294D02*
X56406Y-39294D01*
X47450Y-36650D02*
X48300Y-37500D01*
X43300Y-34400D02*
X51100Y-34400D01*
X44277Y-35650D02*
X44750Y-35650D01*
X43000Y-34700D02*
X43300Y-34400D01*
X44952Y-38126D02*
X44926Y-38100D01*
X51100Y-34400D02*
X53300Y-34400D01*
X44750Y-35650D02*
X45100Y-36000D01*
X45100Y-36000D02*
X45100Y-37926D01*
X53300Y-34400D02*
X55000Y-36100D01*
X45100Y-37926D02*
X44926Y-38100D01*
X44277Y-35650D02*
X43250Y-35650D01*
X43250Y-35650D02*
X43000Y-35400D01*
X43000Y-35400D02*
X43000Y-34700D01*
X63100Y-26900D02*
X65800Y-26900D01*
X66000Y-27100D02*
X66000Y-27600D01*
X46600Y-33350D02*
X45674Y-32424D01*
X65800Y-26900D02*
X66000Y-27100D01*
X51300Y-28600D02*
X51400Y-28700D01*
X51400Y-28700D02*
X62500Y-28700D01*
X46400Y-32100D02*
X50213Y-28287D01*
X62500Y-28700D02*
X62900Y-28300D01*
X51300Y-28100D02*
X51300Y-28600D01*
X45674Y-32424D02*
X45674Y-32100D01*
X62900Y-27100D02*
X63100Y-26900D01*
X46323Y-35650D02*
X47550Y-35650D01*
X47550Y-33350D02*
X46600Y-33350D01*
X62900Y-28300D02*
X62900Y-27100D01*
X50759Y-27559D02*
X51300Y-28100D01*
X50213Y-27559D02*
X50759Y-27559D01*
X45674Y-32100D02*
X46400Y-32100D01*
X66000Y-27600D02*
X65961Y-27559D01*
X50213Y-28287D02*
X50213Y-27559D01*
G54D10*
G36*
X76348Y-51611D02*
X76334Y-51752D01*
X76293Y-51887D01*
X76227Y-52012D01*
X76137Y-52121D01*
X76028Y-52211D01*
X75903Y-52277D01*
X75768Y-52318D01*
X75627Y-52332D01*
X75618Y-52332D01*
X75618Y-44292D01*
X75618Y-37292D01*
X75537Y-36885D01*
X75379Y-36501D01*
X75149Y-36155D01*
X74856Y-35860D01*
X74741Y-35782D01*
X74741Y-24931D01*
X74668Y-24564D01*
X74526Y-24219D01*
X74319Y-23907D01*
X74056Y-23642D01*
X73746Y-23433D01*
X73401Y-23288D01*
X73035Y-23213D01*
X72661Y-23211D01*
X72294Y-23281D01*
X71948Y-23421D01*
X71635Y-23626D01*
X71368Y-23887D01*
X71157Y-24195D01*
X71009Y-24539D01*
X70932Y-24905D01*
X70927Y-25278D01*
X70994Y-25646D01*
X71132Y-25994D01*
X71334Y-26308D01*
X71594Y-26577D01*
X71901Y-26790D01*
X72243Y-26939D01*
X72608Y-27020D01*
X72982Y-27027D01*
X73350Y-26963D01*
X73699Y-26827D01*
X74014Y-26627D01*
X74285Y-26369D01*
X74500Y-26064D01*
X74652Y-25722D01*
X74735Y-25358D01*
X74741Y-24931D01*
X74741Y-35782D01*
X74512Y-35628D01*
X74129Y-35467D01*
X73722Y-35383D01*
X73307Y-35381D01*
X72899Y-35458D01*
X72514Y-35614D01*
X72166Y-35842D01*
X71870Y-36132D01*
X71635Y-36475D01*
X71471Y-36857D01*
X71385Y-37263D01*
X71379Y-37678D01*
X71454Y-38087D01*
X71607Y-38473D01*
X71832Y-38822D01*
X72121Y-39121D01*
X72462Y-39358D01*
X72843Y-39524D01*
X73248Y-39613D01*
X73664Y-39622D01*
X74073Y-39550D01*
X74460Y-39399D01*
X74811Y-39177D01*
X75111Y-38890D01*
X75351Y-38551D01*
X75519Y-38171D01*
X75611Y-37766D01*
X75618Y-37292D01*
X75618Y-44292D01*
X75537Y-43885D01*
X75379Y-43501D01*
X75149Y-43155D01*
X74856Y-42860D01*
X74512Y-42628D01*
X74129Y-42467D01*
X73722Y-42383D01*
X73307Y-42381D01*
X72899Y-42458D01*
X72514Y-42614D01*
X72166Y-42842D01*
X71870Y-43132D01*
X71635Y-43475D01*
X71471Y-43857D01*
X71385Y-44263D01*
X71379Y-44678D01*
X71454Y-45087D01*
X71607Y-45473D01*
X71832Y-45822D01*
X72121Y-46121D01*
X72462Y-46358D01*
X72843Y-46524D01*
X73248Y-46613D01*
X73664Y-46622D01*
X74073Y-46550D01*
X74460Y-46399D01*
X74811Y-46177D01*
X75111Y-45890D01*
X75351Y-45551D01*
X75519Y-45171D01*
X75611Y-44766D01*
X75618Y-44292D01*
X75618Y-52332D01*
X68150Y-52332D01*
X68150Y-37056D01*
X68150Y-32056D01*
X68133Y-31969D01*
X68099Y-31888D01*
X68050Y-31814D01*
X67988Y-31752D01*
X67915Y-31702D01*
X67834Y-31668D01*
X67747Y-31650D01*
X67659Y-31650D01*
X67572Y-31666D01*
X67491Y-31699D01*
X67417Y-31748D01*
X67354Y-31809D01*
X67304Y-31882D01*
X67269Y-31963D01*
X67251Y-32049D01*
X67249Y-32138D01*
X67265Y-32225D01*
X67298Y-32307D01*
X67346Y-32381D01*
X67407Y-32444D01*
X67479Y-32495D01*
X67560Y-32530D01*
X67646Y-32549D01*
X67735Y-32551D01*
X67821Y-32536D01*
X67904Y-32504D01*
X67978Y-32456D01*
X68042Y-32396D01*
X68093Y-32323D01*
X68129Y-32243D01*
X68149Y-32157D01*
X68150Y-32056D01*
X68150Y-37056D01*
X68133Y-36969D01*
X68099Y-36888D01*
X68050Y-36814D01*
X67988Y-36752D01*
X67915Y-36702D01*
X67834Y-36668D01*
X67747Y-36650D01*
X67659Y-36650D01*
X67572Y-36666D01*
X67491Y-36699D01*
X67417Y-36748D01*
X67354Y-36809D01*
X67304Y-36882D01*
X67269Y-36963D01*
X67251Y-37049D01*
X67249Y-37138D01*
X67265Y-37225D01*
X67298Y-37307D01*
X67346Y-37381D01*
X67407Y-37444D01*
X67479Y-37495D01*
X67560Y-37530D01*
X67646Y-37549D01*
X67735Y-37551D01*
X67821Y-37536D01*
X67904Y-37504D01*
X67978Y-37456D01*
X68042Y-37396D01*
X68093Y-37323D01*
X68129Y-37243D01*
X68149Y-37157D01*
X68150Y-37056D01*
X68150Y-52332D01*
X66650Y-52332D01*
X66650Y-37056D01*
X66650Y-32056D01*
X66633Y-31969D01*
X66599Y-31888D01*
X66550Y-31814D01*
X66488Y-31752D01*
X66415Y-31702D01*
X66334Y-31668D01*
X66247Y-31650D01*
X66159Y-31650D01*
X66072Y-31666D01*
X65991Y-31699D01*
X65917Y-31748D01*
X65854Y-31809D01*
X65843Y-31825D01*
X65352Y-31825D01*
X65350Y-31825D01*
X65297Y-31830D01*
X65275Y-31836D01*
X65247Y-31845D01*
X65245Y-31845D01*
X65245Y-31846D01*
X65241Y-31848D01*
X65199Y-31870D01*
X65189Y-31878D01*
X65156Y-31905D01*
X65122Y-31946D01*
X65096Y-31993D01*
X65088Y-32020D01*
X65081Y-32043D01*
X65075Y-32096D01*
X65075Y-32098D01*
X65075Y-32100D01*
X65075Y-33336D01*
X64850Y-33561D01*
X64850Y-32056D01*
X64833Y-31969D01*
X64799Y-31888D01*
X64750Y-31814D01*
X64688Y-31752D01*
X64615Y-31702D01*
X64534Y-31668D01*
X64447Y-31650D01*
X64359Y-31650D01*
X64272Y-31666D01*
X64191Y-31699D01*
X64117Y-31748D01*
X64054Y-31809D01*
X64004Y-31882D01*
X63969Y-31963D01*
X63951Y-32049D01*
X63949Y-32138D01*
X63965Y-32225D01*
X63998Y-32307D01*
X64046Y-32381D01*
X64107Y-32444D01*
X64179Y-32495D01*
X64260Y-32530D01*
X64346Y-32549D01*
X64435Y-32551D01*
X64521Y-32536D01*
X64604Y-32504D01*
X64678Y-32456D01*
X64742Y-32396D01*
X64793Y-32323D01*
X64829Y-32243D01*
X64849Y-32157D01*
X64850Y-32056D01*
X64850Y-33561D01*
X64786Y-33625D01*
X63350Y-33625D01*
X63350Y-32056D01*
X63333Y-31969D01*
X63299Y-31888D01*
X63250Y-31814D01*
X63188Y-31752D01*
X63115Y-31702D01*
X63034Y-31668D01*
X62947Y-31650D01*
X62859Y-31650D01*
X62772Y-31666D01*
X62691Y-31699D01*
X62617Y-31748D01*
X62554Y-31809D01*
X62504Y-31882D01*
X62469Y-31963D01*
X62451Y-32049D01*
X62449Y-32138D01*
X62465Y-32225D01*
X62498Y-32307D01*
X62546Y-32381D01*
X62607Y-32444D01*
X62679Y-32495D01*
X62760Y-32530D01*
X62846Y-32549D01*
X62935Y-32551D01*
X63021Y-32536D01*
X63104Y-32504D01*
X63178Y-32456D01*
X63242Y-32396D01*
X63293Y-32323D01*
X63329Y-32243D01*
X63349Y-32157D01*
X63350Y-32056D01*
X63350Y-33625D01*
X47721Y-33625D01*
X47751Y-33606D01*
X47797Y-33563D01*
X47833Y-33511D01*
X47859Y-33453D01*
X47873Y-33391D01*
X47874Y-33318D01*
X47862Y-33256D01*
X47837Y-33197D01*
X47802Y-33144D01*
X47757Y-33099D01*
X47705Y-33063D01*
X47646Y-33039D01*
X47584Y-33026D01*
X47520Y-33026D01*
X47458Y-33038D01*
X47399Y-33062D01*
X47378Y-33075D01*
X46713Y-33075D01*
X46072Y-32434D01*
X46078Y-32410D01*
X46078Y-32381D01*
X46078Y-32375D01*
X46400Y-32375D01*
X46451Y-32370D01*
X46453Y-32370D01*
X46483Y-32360D01*
X46503Y-32355D01*
X46504Y-32354D01*
X46505Y-32354D01*
X46506Y-32353D01*
X46550Y-32331D01*
X46552Y-32329D01*
X46592Y-32297D01*
X46592Y-32296D01*
X46594Y-32295D01*
X46594Y-32294D01*
X46598Y-32289D01*
X50405Y-28483D01*
X50407Y-28482D01*
X50440Y-28442D01*
X50441Y-28441D01*
X50462Y-28402D01*
X50466Y-28395D01*
X50466Y-28394D01*
X50467Y-28393D01*
X50472Y-28374D01*
X50482Y-28344D01*
X50482Y-28342D01*
X50488Y-28291D01*
X50488Y-28288D01*
X50488Y-28287D01*
X50488Y-28058D01*
X50578Y-28058D01*
X50607Y-28052D01*
X50634Y-28041D01*
X50658Y-28025D01*
X50679Y-28004D01*
X50695Y-27980D01*
X50706Y-27953D01*
X50712Y-27924D01*
X50712Y-27900D01*
X51025Y-28213D01*
X51025Y-28600D01*
X51030Y-28653D01*
X51039Y-28683D01*
X51045Y-28703D01*
X51045Y-28704D01*
X51046Y-28705D01*
X51046Y-28706D01*
X51069Y-28750D01*
X51071Y-28752D01*
X51103Y-28792D01*
X51105Y-28794D01*
X51106Y-28794D01*
X51110Y-28798D01*
X51204Y-28892D01*
X51205Y-28894D01*
X51245Y-28927D01*
X51246Y-28928D01*
X51284Y-28949D01*
X51292Y-28953D01*
X51294Y-28954D01*
X51313Y-28959D01*
X51343Y-28969D01*
X51345Y-28969D01*
X51396Y-28975D01*
X51399Y-28975D01*
X51400Y-28975D01*
X62500Y-28975D01*
X62551Y-28970D01*
X62553Y-28970D01*
X62583Y-28960D01*
X62603Y-28955D01*
X62604Y-28954D01*
X62605Y-28954D01*
X62606Y-28953D01*
X62650Y-28931D01*
X62652Y-28929D01*
X62692Y-28897D01*
X62692Y-28896D01*
X62694Y-28895D01*
X62694Y-28894D01*
X62698Y-28889D01*
X63092Y-28496D01*
X63094Y-28495D01*
X63127Y-28455D01*
X63128Y-28454D01*
X63135Y-28440D01*
X63153Y-28408D01*
X63153Y-28406D01*
X63169Y-28357D01*
X63169Y-28355D01*
X63175Y-28304D01*
X63175Y-28301D01*
X63175Y-28300D01*
X63175Y-27213D01*
X63213Y-27175D01*
X63637Y-27175D01*
X63576Y-27236D01*
X63521Y-27317D01*
X63482Y-27407D01*
X63462Y-27503D01*
X63460Y-27601D01*
X63478Y-27697D01*
X63514Y-27789D01*
X63567Y-27871D01*
X63635Y-27942D01*
X63716Y-27998D01*
X63806Y-28037D01*
X63901Y-28058D01*
X64000Y-28060D01*
X64096Y-28043D01*
X64187Y-28007D01*
X64270Y-27955D01*
X64341Y-27887D01*
X64398Y-27807D01*
X64438Y-27718D01*
X64459Y-27622D01*
X64461Y-27510D01*
X64460Y-27601D01*
X64478Y-27697D01*
X64514Y-27789D01*
X64567Y-27871D01*
X64635Y-27942D01*
X64716Y-27998D01*
X64806Y-28037D01*
X64901Y-28058D01*
X65000Y-28060D01*
X65096Y-28043D01*
X65187Y-28007D01*
X65270Y-27955D01*
X65341Y-27887D01*
X65398Y-27807D01*
X65438Y-27718D01*
X65459Y-27622D01*
X65461Y-27510D01*
X65442Y-27414D01*
X65405Y-27323D01*
X65350Y-27241D01*
X65284Y-27175D01*
X65465Y-27175D01*
X65462Y-27194D01*
X65462Y-27223D01*
X65462Y-27924D01*
X65468Y-27953D01*
X65479Y-27980D01*
X65495Y-28004D01*
X65516Y-28025D01*
X65540Y-28041D01*
X65567Y-28052D01*
X65596Y-28058D01*
X65625Y-28058D01*
X66326Y-28058D01*
X66355Y-28052D01*
X66382Y-28041D01*
X66406Y-28025D01*
X66427Y-28004D01*
X66443Y-27980D01*
X66454Y-27953D01*
X66460Y-27924D01*
X66460Y-27895D01*
X66460Y-27194D01*
X66454Y-27165D01*
X66443Y-27138D01*
X66427Y-27114D01*
X66406Y-27093D01*
X66382Y-27077D01*
X66355Y-27066D01*
X66326Y-27060D01*
X66297Y-27060D01*
X66271Y-27060D01*
X66270Y-27048D01*
X66270Y-27047D01*
X66263Y-27025D01*
X66255Y-26997D01*
X66254Y-26995D01*
X66252Y-26991D01*
X66230Y-26949D01*
X66229Y-26948D01*
X66197Y-26908D01*
X66195Y-26906D01*
X66194Y-26905D01*
X65996Y-26708D01*
X65994Y-26706D01*
X65982Y-26696D01*
X65955Y-26673D01*
X65953Y-26672D01*
X65908Y-26647D01*
X65905Y-26646D01*
X65902Y-26645D01*
X65857Y-26631D01*
X65804Y-26625D01*
X65801Y-26625D01*
X65800Y-26625D01*
X63100Y-26625D01*
X63047Y-26630D01*
X63025Y-26636D01*
X62997Y-26645D01*
X62995Y-26645D01*
X62995Y-26646D01*
X62991Y-26648D01*
X62949Y-26670D01*
X62908Y-26703D01*
X62906Y-26705D01*
X62905Y-26706D01*
X62706Y-26906D01*
X62696Y-26918D01*
X62673Y-26945D01*
X62647Y-26992D01*
X62646Y-26994D01*
X62646Y-26995D01*
X62645Y-26998D01*
X62631Y-27043D01*
X62625Y-27096D01*
X62625Y-27099D01*
X62625Y-27100D01*
X62625Y-28186D01*
X62386Y-28425D01*
X58993Y-28425D01*
X58993Y-24931D01*
X58920Y-24564D01*
X58778Y-24219D01*
X58571Y-23907D01*
X58308Y-23642D01*
X57998Y-23433D01*
X57653Y-23288D01*
X57287Y-23213D01*
X56913Y-23211D01*
X56546Y-23281D01*
X56200Y-23421D01*
X55887Y-23626D01*
X55620Y-23887D01*
X55409Y-24195D01*
X55261Y-24539D01*
X55184Y-24905D01*
X55179Y-25278D01*
X55246Y-25646D01*
X55384Y-25994D01*
X55586Y-26308D01*
X55846Y-26577D01*
X56153Y-26790D01*
X56495Y-26939D01*
X56860Y-27020D01*
X57234Y-27027D01*
X57602Y-26963D01*
X57951Y-26827D01*
X58266Y-26627D01*
X58537Y-26369D01*
X58752Y-26064D01*
X58904Y-25722D01*
X58987Y-25358D01*
X58993Y-24931D01*
X58993Y-28425D01*
X51575Y-28425D01*
X51575Y-28100D01*
X51570Y-28049D01*
X51570Y-28047D01*
X51560Y-28017D01*
X51555Y-27997D01*
X51554Y-27995D01*
X51530Y-27950D01*
X51529Y-27948D01*
X51509Y-27924D01*
X51497Y-27908D01*
X51495Y-27906D01*
X51494Y-27905D01*
X50955Y-27367D01*
X50953Y-27365D01*
X50941Y-27355D01*
X50914Y-27332D01*
X50912Y-27331D01*
X50867Y-27306D01*
X50864Y-27305D01*
X50861Y-27304D01*
X50816Y-27290D01*
X50763Y-27284D01*
X50760Y-27284D01*
X50759Y-27284D01*
X50712Y-27284D01*
X50712Y-27194D01*
X50706Y-27165D01*
X50695Y-27138D01*
X50679Y-27114D01*
X50658Y-27093D01*
X50634Y-27077D01*
X50607Y-27066D01*
X50578Y-27060D01*
X50549Y-27060D01*
X49848Y-27060D01*
X49819Y-27066D01*
X49792Y-27077D01*
X49768Y-27093D01*
X49747Y-27114D01*
X49731Y-27138D01*
X49720Y-27165D01*
X49714Y-27194D01*
X49714Y-27223D01*
X49714Y-27924D01*
X49720Y-27953D01*
X49731Y-27980D01*
X49747Y-28004D01*
X49768Y-28025D01*
X49792Y-28041D01*
X49819Y-28052D01*
X49848Y-28058D01*
X49877Y-28058D01*
X49938Y-28058D01*
X49938Y-28173D01*
X49713Y-28398D01*
X49713Y-27510D01*
X49694Y-27414D01*
X49657Y-27323D01*
X49602Y-27241D01*
X49533Y-27172D01*
X49452Y-27117D01*
X49362Y-27079D01*
X49266Y-27059D01*
X49167Y-27059D01*
X49071Y-27077D01*
X48980Y-27114D01*
X48898Y-27167D01*
X48828Y-27236D01*
X48773Y-27317D01*
X48734Y-27407D01*
X48714Y-27503D01*
X48713Y-27510D01*
X48694Y-27414D01*
X48657Y-27323D01*
X48602Y-27241D01*
X48533Y-27172D01*
X48452Y-27117D01*
X48362Y-27079D01*
X48266Y-27059D01*
X48167Y-27059D01*
X48071Y-27077D01*
X47980Y-27114D01*
X47898Y-27167D01*
X47828Y-27236D01*
X47773Y-27317D01*
X47734Y-27407D01*
X47714Y-27503D01*
X47712Y-27601D01*
X47730Y-27697D01*
X47766Y-27789D01*
X47819Y-27871D01*
X47887Y-27942D01*
X47968Y-27998D01*
X48058Y-28037D01*
X48153Y-28058D01*
X48252Y-28060D01*
X48348Y-28043D01*
X48439Y-28007D01*
X48522Y-27955D01*
X48593Y-27887D01*
X48650Y-27807D01*
X48690Y-27718D01*
X48711Y-27622D01*
X48713Y-27510D01*
X48712Y-27601D01*
X48730Y-27697D01*
X48766Y-27789D01*
X48819Y-27871D01*
X48887Y-27942D01*
X48968Y-27998D01*
X49058Y-28037D01*
X49153Y-28058D01*
X49252Y-28060D01*
X49348Y-28043D01*
X49439Y-28007D01*
X49522Y-27955D01*
X49593Y-27887D01*
X49650Y-27807D01*
X49690Y-27718D01*
X49711Y-27622D01*
X49713Y-27510D01*
X49713Y-28398D01*
X46286Y-31825D01*
X46078Y-31825D01*
X46078Y-31790D01*
X46072Y-31761D01*
X46061Y-31734D01*
X46045Y-31710D01*
X46024Y-31689D01*
X46000Y-31673D01*
X45973Y-31662D01*
X45944Y-31656D01*
X45915Y-31656D01*
X45404Y-31656D01*
X45375Y-31662D01*
X45348Y-31673D01*
X45324Y-31689D01*
X45303Y-31710D01*
X45287Y-31734D01*
X45276Y-31761D01*
X45270Y-31790D01*
X45270Y-31819D01*
X45270Y-32410D01*
X45276Y-32439D01*
X45287Y-32466D01*
X45303Y-32490D01*
X45324Y-32511D01*
X45348Y-32527D01*
X45375Y-32538D01*
X45404Y-32544D01*
X45427Y-32544D01*
X45443Y-32574D01*
X45445Y-32576D01*
X45477Y-32616D01*
X45479Y-32618D01*
X45480Y-32618D01*
X45484Y-32622D01*
X46404Y-33542D01*
X46405Y-33544D01*
X46445Y-33577D01*
X46446Y-33578D01*
X46459Y-33585D01*
X46492Y-33603D01*
X46494Y-33603D01*
X46543Y-33619D01*
X46545Y-33619D01*
X46596Y-33625D01*
X43245Y-33625D01*
X43245Y-24931D01*
X43172Y-24564D01*
X43030Y-24219D01*
X42823Y-23907D01*
X42560Y-23642D01*
X42250Y-23433D01*
X41905Y-23288D01*
X41539Y-23213D01*
X41165Y-23211D01*
X40798Y-23281D01*
X40452Y-23421D01*
X40139Y-23626D01*
X39872Y-23887D01*
X39661Y-24195D01*
X39513Y-24539D01*
X39436Y-24905D01*
X39431Y-25278D01*
X39498Y-25646D01*
X39636Y-25994D01*
X39838Y-26308D01*
X40098Y-26577D01*
X40405Y-26790D01*
X40747Y-26939D01*
X41112Y-27020D01*
X41486Y-27027D01*
X41854Y-26963D01*
X42203Y-26827D01*
X42518Y-26627D01*
X42789Y-26369D01*
X43004Y-26064D01*
X43156Y-25722D01*
X43239Y-25358D01*
X43245Y-24931D01*
X43245Y-33625D01*
X42800Y-33625D01*
X42747Y-33630D01*
X42717Y-33639D01*
X42697Y-33645D01*
X42695Y-33645D01*
X42695Y-33646D01*
X42648Y-33671D01*
X42624Y-33690D01*
X42608Y-33703D01*
X42606Y-33705D01*
X42605Y-33706D01*
X42206Y-34106D01*
X42196Y-34118D01*
X42173Y-34145D01*
X42147Y-34192D01*
X42146Y-34194D01*
X42146Y-34195D01*
X42145Y-34198D01*
X42131Y-34243D01*
X42125Y-34296D01*
X42125Y-34299D01*
X42125Y-34300D01*
X42125Y-35900D01*
X42130Y-35953D01*
X42139Y-35983D01*
X42145Y-36003D01*
X42145Y-36004D01*
X42146Y-36005D01*
X42146Y-36006D01*
X42169Y-36050D01*
X42171Y-36052D01*
X42203Y-36092D01*
X42205Y-36094D01*
X42206Y-36094D01*
X42210Y-36098D01*
X42454Y-36342D01*
X42455Y-36344D01*
X42495Y-36377D01*
X42496Y-36378D01*
X42509Y-36385D01*
X42542Y-36403D01*
X42544Y-36403D01*
X42593Y-36419D01*
X42595Y-36419D01*
X42646Y-36425D01*
X42649Y-36425D01*
X42650Y-36425D01*
X44277Y-36425D01*
X44330Y-36420D01*
X44339Y-36417D01*
X44725Y-36417D01*
X44754Y-36411D01*
X44781Y-36400D01*
X44805Y-36384D01*
X44825Y-36364D01*
X44825Y-37656D01*
X44656Y-37656D01*
X44627Y-37662D01*
X44600Y-37673D01*
X44576Y-37689D01*
X44555Y-37710D01*
X44539Y-37734D01*
X44528Y-37761D01*
X44522Y-37790D01*
X44522Y-37819D01*
X44522Y-38410D01*
X44528Y-38439D01*
X44539Y-38466D01*
X44555Y-38490D01*
X44576Y-38511D01*
X44600Y-38527D01*
X44627Y-38538D01*
X44656Y-38544D01*
X44685Y-38544D01*
X45196Y-38544D01*
X45225Y-38538D01*
X45252Y-38527D01*
X45276Y-38511D01*
X45297Y-38490D01*
X45300Y-38485D01*
X45303Y-38490D01*
X45324Y-38511D01*
X45348Y-38527D01*
X45375Y-38538D01*
X45404Y-38544D01*
X45433Y-38544D01*
X45944Y-38544D01*
X45973Y-38538D01*
X46000Y-38527D01*
X46024Y-38511D01*
X46045Y-38490D01*
X46061Y-38466D01*
X46072Y-38439D01*
X46078Y-38410D01*
X46078Y-38381D01*
X46078Y-37790D01*
X46072Y-37761D01*
X46061Y-37734D01*
X46045Y-37710D01*
X46024Y-37689D01*
X46000Y-37673D01*
X45973Y-37662D01*
X45949Y-37657D01*
X45949Y-36917D01*
X46259Y-36917D01*
X46266Y-36919D01*
X46319Y-36925D01*
X46323Y-36925D01*
X47336Y-36925D01*
X47984Y-37572D01*
X47987Y-37590D01*
X48011Y-37649D01*
X48045Y-37702D01*
X48089Y-37748D01*
X48141Y-37784D01*
X48200Y-37810D01*
X48262Y-37823D01*
X48325Y-37825D01*
X48388Y-37814D01*
X48447Y-37791D01*
X48501Y-37756D01*
X48547Y-37713D01*
X48583Y-37661D01*
X48609Y-37603D01*
X48623Y-37541D01*
X48624Y-37468D01*
X48612Y-37406D01*
X48587Y-37347D01*
X48552Y-37294D01*
X48507Y-37249D01*
X48455Y-37213D01*
X48396Y-37189D01*
X48373Y-37184D01*
X47646Y-36458D01*
X47644Y-36456D01*
X47632Y-36446D01*
X47607Y-36425D01*
X47736Y-36425D01*
X47983Y-36672D01*
X47987Y-36690D01*
X48011Y-36749D01*
X48045Y-36802D01*
X48089Y-36848D01*
X48141Y-36884D01*
X48200Y-36910D01*
X48262Y-36923D01*
X48325Y-36925D01*
X48388Y-36914D01*
X48447Y-36891D01*
X48501Y-36856D01*
X48547Y-36813D01*
X48583Y-36761D01*
X48609Y-36703D01*
X48623Y-36641D01*
X48624Y-36568D01*
X48612Y-36506D01*
X48587Y-36447D01*
X48552Y-36394D01*
X48507Y-36349D01*
X48455Y-36313D01*
X48396Y-36289D01*
X48372Y-36284D01*
X48046Y-35958D01*
X48044Y-35956D01*
X48032Y-35946D01*
X48005Y-35923D01*
X48003Y-35922D01*
X47958Y-35897D01*
X47955Y-35896D01*
X47952Y-35895D01*
X47907Y-35881D01*
X47854Y-35875D01*
X47851Y-35875D01*
X47850Y-35875D01*
X47784Y-35875D01*
X47797Y-35863D01*
X47833Y-35811D01*
X47859Y-35753D01*
X47873Y-35691D01*
X47874Y-35618D01*
X47862Y-35556D01*
X47837Y-35497D01*
X47802Y-35444D01*
X47783Y-35425D01*
X47836Y-35425D01*
X48725Y-36313D01*
X48725Y-45437D01*
X47076Y-47086D01*
X47076Y-45501D01*
X47071Y-45450D01*
X47071Y-45448D01*
X47061Y-45418D01*
X47056Y-45398D01*
X47055Y-45396D01*
X47031Y-45351D01*
X47030Y-45349D01*
X47010Y-45325D01*
X46998Y-45309D01*
X46996Y-45307D01*
X46995Y-45306D01*
X46646Y-44958D01*
X46644Y-44956D01*
X46632Y-44946D01*
X46605Y-44923D01*
X46603Y-44922D01*
X46558Y-44897D01*
X46555Y-44896D01*
X46552Y-44895D01*
X46507Y-44881D01*
X46454Y-44875D01*
X46451Y-44875D01*
X46450Y-44875D01*
X46019Y-44875D01*
X46019Y-44165D01*
X46019Y-44136D01*
X46019Y-43335D01*
X46013Y-43306D01*
X46002Y-43279D01*
X45986Y-43255D01*
X45965Y-43234D01*
X45941Y-43218D01*
X45914Y-43207D01*
X45885Y-43201D01*
X45856Y-43201D01*
X44415Y-43201D01*
X44386Y-43207D01*
X44359Y-43218D01*
X44335Y-43234D01*
X44314Y-43255D01*
X44298Y-43279D01*
X44287Y-43306D01*
X44281Y-43335D01*
X44281Y-43364D01*
X44281Y-44165D01*
X44287Y-44194D01*
X44298Y-44221D01*
X44314Y-44245D01*
X44335Y-44266D01*
X44359Y-44282D01*
X44386Y-44293D01*
X44415Y-44299D01*
X44444Y-44299D01*
X45885Y-44299D01*
X45914Y-44293D01*
X45941Y-44282D01*
X45965Y-44266D01*
X45986Y-44245D01*
X46002Y-44221D01*
X46013Y-44194D01*
X46019Y-44165D01*
X46019Y-44875D01*
X44700Y-44875D01*
X44647Y-44880D01*
X44617Y-44889D01*
X44597Y-44895D01*
X44595Y-44895D01*
X44595Y-44896D01*
X44548Y-44921D01*
X44524Y-44940D01*
X44508Y-44953D01*
X44506Y-44955D01*
X44505Y-44956D01*
X44056Y-45406D01*
X44046Y-45418D01*
X44023Y-45445D01*
X43997Y-45492D01*
X43996Y-45494D01*
X43996Y-45495D01*
X43995Y-45498D01*
X43981Y-45543D01*
X43975Y-45596D01*
X43975Y-45599D01*
X43975Y-45600D01*
X43975Y-45820D01*
X43955Y-45834D01*
X43934Y-45855D01*
X43918Y-45879D01*
X43907Y-45906D01*
X43901Y-45935D01*
X43901Y-45964D01*
X43901Y-46765D01*
X43903Y-46775D01*
X43850Y-46775D01*
X43797Y-46780D01*
X43767Y-46789D01*
X43747Y-46795D01*
X43745Y-46795D01*
X43745Y-46796D01*
X43698Y-46821D01*
X43674Y-46840D01*
X43658Y-46853D01*
X43656Y-46855D01*
X43655Y-46856D01*
X43305Y-47207D01*
X43295Y-47219D01*
X43272Y-47246D01*
X43271Y-47247D01*
X43170Y-47247D01*
X43141Y-47253D01*
X43114Y-47264D01*
X43090Y-47280D01*
X43069Y-47301D01*
X43053Y-47325D01*
X43042Y-47352D01*
X43036Y-47381D01*
X43036Y-47410D01*
X43036Y-48119D01*
X43042Y-48148D01*
X43053Y-48175D01*
X43069Y-48199D01*
X43090Y-48220D01*
X43114Y-48236D01*
X43141Y-48247D01*
X43170Y-48253D01*
X43199Y-48253D01*
X43828Y-48253D01*
X43857Y-48247D01*
X43884Y-48236D01*
X43908Y-48220D01*
X43929Y-48199D01*
X43945Y-48175D01*
X43956Y-48148D01*
X43962Y-48119D01*
X43962Y-48090D01*
X43962Y-47381D01*
X43956Y-47352D01*
X43950Y-47338D01*
X43963Y-47325D01*
X44550Y-47325D01*
X44601Y-47320D01*
X44603Y-47320D01*
X44633Y-47310D01*
X44653Y-47305D01*
X44654Y-47304D01*
X44655Y-47304D01*
X44656Y-47303D01*
X44700Y-47281D01*
X44702Y-47279D01*
X44742Y-47247D01*
X44742Y-47246D01*
X44744Y-47245D01*
X44744Y-47244D01*
X44748Y-47239D01*
X44892Y-47096D01*
X44894Y-47095D01*
X44927Y-47055D01*
X44928Y-47054D01*
X44938Y-47034D01*
X44953Y-47008D01*
X44953Y-47005D01*
X44954Y-47005D01*
X44955Y-47000D01*
X44969Y-46957D01*
X44969Y-46955D01*
X44975Y-46904D01*
X44975Y-46901D01*
X44975Y-46900D01*
X44975Y-45913D01*
X45063Y-45825D01*
X45736Y-45825D01*
X45750Y-45838D01*
X45734Y-45855D01*
X45718Y-45879D01*
X45707Y-45906D01*
X45701Y-45935D01*
X45701Y-45964D01*
X45701Y-46765D01*
X45707Y-46794D01*
X45718Y-46821D01*
X45734Y-46845D01*
X45755Y-46866D01*
X45775Y-46879D01*
X45775Y-46900D01*
X45780Y-46953D01*
X45789Y-46983D01*
X45795Y-47003D01*
X45795Y-47004D01*
X45796Y-47005D01*
X45796Y-47006D01*
X45819Y-47050D01*
X45821Y-47052D01*
X45853Y-47092D01*
X45855Y-47094D01*
X45856Y-47094D01*
X45860Y-47098D01*
X45975Y-47213D01*
X45975Y-49236D01*
X45056Y-50156D01*
X45046Y-50168D01*
X45023Y-50195D01*
X44997Y-50242D01*
X44996Y-50244D01*
X44996Y-50245D01*
X44995Y-50248D01*
X44981Y-50293D01*
X44975Y-50346D01*
X44975Y-50349D01*
X44975Y-50350D01*
X44975Y-50444D01*
X44966Y-50431D01*
X44905Y-50369D01*
X44832Y-50320D01*
X44752Y-50287D01*
X44666Y-50269D01*
X44579Y-50269D01*
X44493Y-50285D01*
X44413Y-50318D01*
X44340Y-50366D01*
X44277Y-50427D01*
X44228Y-50499D01*
X44194Y-50579D01*
X44176Y-50665D01*
X44174Y-50752D01*
X44190Y-50838D01*
X44222Y-50919D01*
X44270Y-50992D01*
X44330Y-51055D01*
X44402Y-51105D01*
X44482Y-51139D01*
X44567Y-51158D01*
X44655Y-51160D01*
X44741Y-51145D01*
X44822Y-51113D01*
X44896Y-51066D01*
X44959Y-51006D01*
X44975Y-50983D01*
X44975Y-51350D01*
X44980Y-51403D01*
X44989Y-51433D01*
X44995Y-51453D01*
X44995Y-51454D01*
X44996Y-51455D01*
X44996Y-51456D01*
X45019Y-51500D01*
X45021Y-51502D01*
X45053Y-51542D01*
X45055Y-51544D01*
X45056Y-51544D01*
X45060Y-51548D01*
X45304Y-51792D01*
X45305Y-51794D01*
X45345Y-51827D01*
X45346Y-51828D01*
X45359Y-51835D01*
X45392Y-51853D01*
X45394Y-51853D01*
X45443Y-51869D01*
X45445Y-51869D01*
X45496Y-51875D01*
X45499Y-51875D01*
X45500Y-51875D01*
X48600Y-51875D01*
X48651Y-51870D01*
X48653Y-51870D01*
X48683Y-51860D01*
X48703Y-51855D01*
X48704Y-51854D01*
X48705Y-51854D01*
X48706Y-51853D01*
X48750Y-51831D01*
X48752Y-51829D01*
X48792Y-51797D01*
X48792Y-51796D01*
X48794Y-51795D01*
X48794Y-51794D01*
X48798Y-51789D01*
X49092Y-51496D01*
X49094Y-51495D01*
X49127Y-51455D01*
X49128Y-51454D01*
X49149Y-51415D01*
X49153Y-51408D01*
X49153Y-51407D01*
X49154Y-51406D01*
X49159Y-51387D01*
X49169Y-51357D01*
X49169Y-51355D01*
X49175Y-51304D01*
X49175Y-51301D01*
X49175Y-51300D01*
X49175Y-49913D01*
X49241Y-49847D01*
X49242Y-49847D01*
X49242Y-49846D01*
X49244Y-49845D01*
X49244Y-49844D01*
X49248Y-49839D01*
X51092Y-47996D01*
X51094Y-47995D01*
X51127Y-47955D01*
X51128Y-47954D01*
X51149Y-47915D01*
X51153Y-47908D01*
X51153Y-47907D01*
X51154Y-47906D01*
X51159Y-47887D01*
X51169Y-47857D01*
X51169Y-47855D01*
X51175Y-47804D01*
X51175Y-47801D01*
X51175Y-47800D01*
X51175Y-43013D01*
X53713Y-40475D01*
X56967Y-40475D01*
X56969Y-40475D01*
X57021Y-40470D01*
X57022Y-40470D01*
X57043Y-40463D01*
X57072Y-40455D01*
X57073Y-40454D01*
X57074Y-40454D01*
X57077Y-40452D01*
X57120Y-40430D01*
X57121Y-40429D01*
X57129Y-40422D01*
X57161Y-40396D01*
X57163Y-40395D01*
X57196Y-40355D01*
X57197Y-40354D01*
X57222Y-40308D01*
X57223Y-40307D01*
X57230Y-40279D01*
X57238Y-40257D01*
X57238Y-40255D01*
X57244Y-40204D01*
X57244Y-40202D01*
X57244Y-40200D01*
X57244Y-40013D01*
X57357Y-39899D01*
X57376Y-39908D01*
X57499Y-39935D01*
X57625Y-39937D01*
X57749Y-39915D01*
X57866Y-39870D01*
X57972Y-39802D01*
X58063Y-39715D01*
X58136Y-39613D01*
X58155Y-39569D01*
X65880Y-39569D01*
X65959Y-39647D01*
X65959Y-40057D01*
X65943Y-40068D01*
X65922Y-40089D01*
X65906Y-40113D01*
X65900Y-40127D01*
X65894Y-40113D01*
X65878Y-40089D01*
X65857Y-40068D01*
X65833Y-40052D01*
X65806Y-40041D01*
X65777Y-40035D01*
X65748Y-40035D01*
X65355Y-40035D01*
X65326Y-40041D01*
X65299Y-40052D01*
X65275Y-40068D01*
X65254Y-40089D01*
X65238Y-40113D01*
X65227Y-40140D01*
X65221Y-40169D01*
X65221Y-40198D01*
X65221Y-40631D01*
X65227Y-40660D01*
X65238Y-40687D01*
X65254Y-40711D01*
X65275Y-40732D01*
X65291Y-40742D01*
X65291Y-40915D01*
X65236Y-40915D01*
X65207Y-40921D01*
X65180Y-40932D01*
X65156Y-40948D01*
X65135Y-40969D01*
X65119Y-40993D01*
X65108Y-41020D01*
X65102Y-41049D01*
X65102Y-41078D01*
X65102Y-41551D01*
X65108Y-41580D01*
X65119Y-41607D01*
X65135Y-41631D01*
X65156Y-41652D01*
X65180Y-41668D01*
X65207Y-41679D01*
X65236Y-41685D01*
X65265Y-41685D01*
X65738Y-41685D01*
X65767Y-41679D01*
X65794Y-41668D01*
X65818Y-41652D01*
X65839Y-41631D01*
X65855Y-41607D01*
X65866Y-41580D01*
X65872Y-41551D01*
X65872Y-41522D01*
X65872Y-41049D01*
X65866Y-41020D01*
X65855Y-40993D01*
X65841Y-40972D01*
X65841Y-40742D01*
X65857Y-40732D01*
X65878Y-40711D01*
X65894Y-40687D01*
X65900Y-40672D01*
X65906Y-40687D01*
X65922Y-40711D01*
X65943Y-40732D01*
X65967Y-40748D01*
X65994Y-40759D01*
X66023Y-40765D01*
X66052Y-40765D01*
X66445Y-40765D01*
X66474Y-40759D01*
X66501Y-40748D01*
X66525Y-40732D01*
X66546Y-40711D01*
X66562Y-40687D01*
X66573Y-40660D01*
X66579Y-40631D01*
X66579Y-40602D01*
X66579Y-40169D01*
X66573Y-40140D01*
X66562Y-40113D01*
X66546Y-40089D01*
X66525Y-40068D01*
X66509Y-40057D01*
X66509Y-39534D01*
X66504Y-39483D01*
X66504Y-39481D01*
X66494Y-39451D01*
X66489Y-39431D01*
X66488Y-39429D01*
X66464Y-39384D01*
X66463Y-39382D01*
X66443Y-39358D01*
X66431Y-39342D01*
X66429Y-39340D01*
X66428Y-39339D01*
X66190Y-39102D01*
X66188Y-39100D01*
X66176Y-39090D01*
X66149Y-39067D01*
X66147Y-39066D01*
X66102Y-39041D01*
X66099Y-39040D01*
X66096Y-39039D01*
X66051Y-39025D01*
X65998Y-39019D01*
X65995Y-39019D01*
X65994Y-39019D01*
X64850Y-39019D01*
X64850Y-37056D01*
X64833Y-36969D01*
X64799Y-36888D01*
X64750Y-36814D01*
X64688Y-36752D01*
X64615Y-36702D01*
X64534Y-36668D01*
X64447Y-36650D01*
X64359Y-36650D01*
X64272Y-36666D01*
X64191Y-36699D01*
X64117Y-36748D01*
X64054Y-36809D01*
X64004Y-36882D01*
X63969Y-36963D01*
X63951Y-37049D01*
X63949Y-37138D01*
X63965Y-37225D01*
X63998Y-37307D01*
X64046Y-37381D01*
X64107Y-37444D01*
X64179Y-37495D01*
X64260Y-37530D01*
X64346Y-37549D01*
X64435Y-37551D01*
X64521Y-37536D01*
X64604Y-37504D01*
X64678Y-37456D01*
X64742Y-37396D01*
X64793Y-37323D01*
X64829Y-37243D01*
X64849Y-37157D01*
X64850Y-37056D01*
X64850Y-39019D01*
X63350Y-39019D01*
X63350Y-37056D01*
X63333Y-36969D01*
X63299Y-36888D01*
X63250Y-36814D01*
X63188Y-36752D01*
X63115Y-36702D01*
X63034Y-36668D01*
X62947Y-36650D01*
X62859Y-36650D01*
X62772Y-36666D01*
X62691Y-36699D01*
X62617Y-36748D01*
X62554Y-36809D01*
X62504Y-36882D01*
X62469Y-36963D01*
X62451Y-37049D01*
X62449Y-37138D01*
X62465Y-37225D01*
X62498Y-37307D01*
X62546Y-37381D01*
X62607Y-37444D01*
X62679Y-37495D01*
X62760Y-37530D01*
X62846Y-37549D01*
X62935Y-37551D01*
X63021Y-37536D01*
X63104Y-37504D01*
X63178Y-37456D01*
X63242Y-37396D01*
X63293Y-37323D01*
X63329Y-37243D01*
X63349Y-37157D01*
X63350Y-37056D01*
X63350Y-39019D01*
X58156Y-39019D01*
X58145Y-38991D01*
X58075Y-38886D01*
X57986Y-38797D01*
X57882Y-38727D01*
X57766Y-38678D01*
X57642Y-38652D01*
X57516Y-38652D01*
X57393Y-38675D01*
X57276Y-38722D01*
X57171Y-38791D01*
X57081Y-38879D01*
X57010Y-38983D01*
X56960Y-39099D01*
X56934Y-39222D01*
X56932Y-39348D01*
X56955Y-39472D01*
X56970Y-39510D01*
X56777Y-39704D01*
X56775Y-39706D01*
X56765Y-39718D01*
X56742Y-39745D01*
X56716Y-39792D01*
X56715Y-39794D01*
X56715Y-39795D01*
X56714Y-39798D01*
X56700Y-39843D01*
X56694Y-39896D01*
X56694Y-39899D01*
X56694Y-39900D01*
X56694Y-39925D01*
X56117Y-39925D01*
X56174Y-39915D01*
X56291Y-39870D01*
X56397Y-39802D01*
X56488Y-39715D01*
X56561Y-39613D01*
X56612Y-39498D01*
X56619Y-39465D01*
X56634Y-39448D01*
X56660Y-39401D01*
X56675Y-39349D01*
X56681Y-39296D01*
X56676Y-39242D01*
X56661Y-39191D01*
X56636Y-39143D01*
X56621Y-39125D01*
X56618Y-39108D01*
X56570Y-38991D01*
X56500Y-38886D01*
X56411Y-38797D01*
X56369Y-38768D01*
X56369Y-37064D01*
X56355Y-36993D01*
X56327Y-36926D01*
X56287Y-36866D01*
X56236Y-36814D01*
X56176Y-36774D01*
X56110Y-36746D01*
X56039Y-36731D01*
X55967Y-36731D01*
X55895Y-36744D01*
X55828Y-36771D01*
X55768Y-36811D01*
X55716Y-36862D01*
X55675Y-36921D01*
X55647Y-36988D01*
X55632Y-37058D01*
X55631Y-37131D01*
X55644Y-37202D01*
X55670Y-37269D01*
X55709Y-37330D01*
X55760Y-37382D01*
X55819Y-37424D01*
X55885Y-37453D01*
X55956Y-37468D01*
X56028Y-37470D01*
X56100Y-37457D01*
X56167Y-37431D01*
X56228Y-37392D01*
X56281Y-37342D01*
X56322Y-37283D01*
X56352Y-37217D01*
X56368Y-37147D01*
X56369Y-37064D01*
X56369Y-38768D01*
X56307Y-38727D01*
X56191Y-38678D01*
X56067Y-38652D01*
X55941Y-38652D01*
X55818Y-38675D01*
X55701Y-38722D01*
X55596Y-38791D01*
X55506Y-38879D01*
X55435Y-38983D01*
X55385Y-39099D01*
X55359Y-39222D01*
X55357Y-39348D01*
X55380Y-39472D01*
X55426Y-39589D01*
X55494Y-39695D01*
X55582Y-39785D01*
X55685Y-39857D01*
X55801Y-39908D01*
X55878Y-39925D01*
X53600Y-39925D01*
X53547Y-39930D01*
X53517Y-39939D01*
X53497Y-39945D01*
X53495Y-39945D01*
X53495Y-39946D01*
X53448Y-39971D01*
X53424Y-39990D01*
X53408Y-40003D01*
X53406Y-40005D01*
X53405Y-40006D01*
X51699Y-41712D01*
X51699Y-40839D01*
X51656Y-40621D01*
X51571Y-40415D01*
X51448Y-40230D01*
X51291Y-40072D01*
X51107Y-39948D01*
X50902Y-39862D01*
X50684Y-39817D01*
X50462Y-39815D01*
X50243Y-39857D01*
X50037Y-39940D01*
X49851Y-40062D01*
X49692Y-40217D01*
X49567Y-40401D01*
X49479Y-40605D01*
X49433Y-40823D01*
X49430Y-41045D01*
X49470Y-41264D01*
X49551Y-41471D01*
X49672Y-41658D01*
X49826Y-41818D01*
X50009Y-41945D01*
X50213Y-42034D01*
X50430Y-42081D01*
X50652Y-42086D01*
X50871Y-42047D01*
X51079Y-41967D01*
X51266Y-41848D01*
X51427Y-41695D01*
X51556Y-41513D01*
X51646Y-41310D01*
X51695Y-41093D01*
X51699Y-40839D01*
X51699Y-41712D01*
X50706Y-42706D01*
X50696Y-42718D01*
X50673Y-42745D01*
X50647Y-42792D01*
X50646Y-42794D01*
X50646Y-42795D01*
X50645Y-42798D01*
X50631Y-42843D01*
X50625Y-42896D01*
X50625Y-42899D01*
X50625Y-42900D01*
X50625Y-47686D01*
X48862Y-49449D01*
X48858Y-49453D01*
X48855Y-49456D01*
X48706Y-49606D01*
X48696Y-49618D01*
X48673Y-49645D01*
X48647Y-49692D01*
X48646Y-49694D01*
X48646Y-49695D01*
X48645Y-49698D01*
X48631Y-49743D01*
X48625Y-49796D01*
X48625Y-49799D01*
X48625Y-49800D01*
X48625Y-51186D01*
X48486Y-51325D01*
X47654Y-51325D01*
X47761Y-51281D01*
X47865Y-51211D01*
X47954Y-51123D01*
X48024Y-51019D01*
X48072Y-50904D01*
X48098Y-50781D01*
X48098Y-50655D01*
X48075Y-50532D01*
X48028Y-50416D01*
X47959Y-50311D01*
X47871Y-50222D01*
X47768Y-50151D01*
X47653Y-50102D01*
X47530Y-50076D01*
X47405Y-50074D01*
X47076Y-50074D01*
X47076Y-48253D01*
X47130Y-48253D01*
X47159Y-48247D01*
X47186Y-48236D01*
X47210Y-48220D01*
X47231Y-48199D01*
X47247Y-48175D01*
X47258Y-48148D01*
X47264Y-48119D01*
X47264Y-48090D01*
X47264Y-47675D01*
X49192Y-45747D01*
X49194Y-45746D01*
X49227Y-45706D01*
X49228Y-45705D01*
X49235Y-45691D01*
X49253Y-45659D01*
X49253Y-45657D01*
X49269Y-45608D01*
X49269Y-45606D01*
X49275Y-45555D01*
X49275Y-45551D01*
X49275Y-36200D01*
X49270Y-36147D01*
X49258Y-36108D01*
X49255Y-36097D01*
X49254Y-36095D01*
X49252Y-36091D01*
X49230Y-36049D01*
X49229Y-36048D01*
X49197Y-36008D01*
X49195Y-36006D01*
X49194Y-36005D01*
X48146Y-34958D01*
X48144Y-34956D01*
X48132Y-34946D01*
X48105Y-34923D01*
X48103Y-34922D01*
X48058Y-34897D01*
X48055Y-34896D01*
X48052Y-34895D01*
X48007Y-34881D01*
X47954Y-34875D01*
X47951Y-34875D01*
X47950Y-34875D01*
X46323Y-34875D01*
X46270Y-34880D01*
X46260Y-34883D01*
X45875Y-34883D01*
X45846Y-34889D01*
X45819Y-34900D01*
X45795Y-34916D01*
X45774Y-34937D01*
X45758Y-34961D01*
X45747Y-34988D01*
X45741Y-35017D01*
X45741Y-35046D01*
X45741Y-35283D01*
X45747Y-35312D01*
X45758Y-35339D01*
X45774Y-35363D01*
X45795Y-35384D01*
X45819Y-35400D01*
X45795Y-35416D01*
X45774Y-35437D01*
X45758Y-35461D01*
X45747Y-35488D01*
X45741Y-35517D01*
X45741Y-35546D01*
X45741Y-35552D01*
X45146Y-34958D01*
X45144Y-34956D01*
X45132Y-34946D01*
X45105Y-34923D01*
X45103Y-34922D01*
X45058Y-34897D01*
X45055Y-34896D01*
X45052Y-34895D01*
X45007Y-34881D01*
X44954Y-34875D01*
X44951Y-34875D01*
X44950Y-34875D01*
X44277Y-34875D01*
X44224Y-34880D01*
X44214Y-34883D01*
X43829Y-34883D01*
X43800Y-34889D01*
X43773Y-34900D01*
X43749Y-34916D01*
X43728Y-34937D01*
X43712Y-34961D01*
X43701Y-34988D01*
X43695Y-35017D01*
X43695Y-35046D01*
X43695Y-35283D01*
X43701Y-35312D01*
X43712Y-35339D01*
X43728Y-35363D01*
X43740Y-35375D01*
X43363Y-35375D01*
X43275Y-35286D01*
X43275Y-34813D01*
X43413Y-34675D01*
X51096Y-34675D01*
X51100Y-34675D01*
X53186Y-34675D01*
X54631Y-36120D01*
X54631Y-36131D01*
X54644Y-36202D01*
X54670Y-36269D01*
X54709Y-36330D01*
X54760Y-36382D01*
X54819Y-36424D01*
X54885Y-36453D01*
X54956Y-36468D01*
X55028Y-36470D01*
X55100Y-36457D01*
X55167Y-36431D01*
X55228Y-36392D01*
X55281Y-36342D01*
X55322Y-36283D01*
X55352Y-36217D01*
X55368Y-36147D01*
X55369Y-36064D01*
X55355Y-35993D01*
X55327Y-35926D01*
X55287Y-35866D01*
X55236Y-35814D01*
X55176Y-35774D01*
X55110Y-35746D01*
X55039Y-35731D01*
X55019Y-35731D01*
X53496Y-34208D01*
X53494Y-34206D01*
X53482Y-34196D01*
X53457Y-34175D01*
X64900Y-34175D01*
X64951Y-34170D01*
X64953Y-34170D01*
X64983Y-34160D01*
X65003Y-34155D01*
X65004Y-34154D01*
X65005Y-34154D01*
X65006Y-34153D01*
X65050Y-34131D01*
X65052Y-34129D01*
X65092Y-34097D01*
X65092Y-34096D01*
X65094Y-34095D01*
X65094Y-34094D01*
X65098Y-34089D01*
X65542Y-33646D01*
X65544Y-33645D01*
X65577Y-33605D01*
X65578Y-33604D01*
X65599Y-33565D01*
X65603Y-33558D01*
X65603Y-33557D01*
X65604Y-33556D01*
X65609Y-33537D01*
X65619Y-33507D01*
X65619Y-33505D01*
X65625Y-33454D01*
X65625Y-33451D01*
X65625Y-33450D01*
X65625Y-32375D01*
X65842Y-32375D01*
X65846Y-32381D01*
X65907Y-32444D01*
X65979Y-32495D01*
X66060Y-32530D01*
X66146Y-32549D01*
X66235Y-32551D01*
X66321Y-32536D01*
X66404Y-32504D01*
X66478Y-32456D01*
X66542Y-32396D01*
X66593Y-32323D01*
X66629Y-32243D01*
X66649Y-32157D01*
X66650Y-32056D01*
X66650Y-37056D01*
X66633Y-36969D01*
X66599Y-36888D01*
X66550Y-36814D01*
X66488Y-36752D01*
X66415Y-36702D01*
X66334Y-36668D01*
X66247Y-36650D01*
X66159Y-36650D01*
X66072Y-36666D01*
X65991Y-36699D01*
X65917Y-36748D01*
X65854Y-36809D01*
X65804Y-36882D01*
X65769Y-36963D01*
X65751Y-37049D01*
X65749Y-37138D01*
X65765Y-37225D01*
X65798Y-37307D01*
X65846Y-37381D01*
X65907Y-37444D01*
X65979Y-37495D01*
X66060Y-37530D01*
X66146Y-37549D01*
X66235Y-37551D01*
X66321Y-37536D01*
X66404Y-37504D01*
X66478Y-37456D01*
X66542Y-37396D01*
X66593Y-37323D01*
X66629Y-37243D01*
X66649Y-37157D01*
X66650Y-37056D01*
X66650Y-52332D01*
X65518Y-52332D01*
X65518Y-47692D01*
X65437Y-47285D01*
X65279Y-46901D01*
X65049Y-46555D01*
X64756Y-46260D01*
X64412Y-46028D01*
X64029Y-45867D01*
X63622Y-45783D01*
X63207Y-45781D01*
X62799Y-45858D01*
X62414Y-46014D01*
X62066Y-46242D01*
X61770Y-46532D01*
X61535Y-46875D01*
X61371Y-47257D01*
X61285Y-47663D01*
X61279Y-48078D01*
X61354Y-48487D01*
X61507Y-48873D01*
X61732Y-49222D01*
X62021Y-49521D01*
X62362Y-49758D01*
X62743Y-49924D01*
X63148Y-50013D01*
X63564Y-50022D01*
X63973Y-49950D01*
X64360Y-49799D01*
X64711Y-49577D01*
X65011Y-49290D01*
X65251Y-48951D01*
X65419Y-48571D01*
X65511Y-48166D01*
X65518Y-47692D01*
X65518Y-52332D01*
X58512Y-52332D01*
X58512Y-44954D01*
X58416Y-44471D01*
X58229Y-44015D01*
X57956Y-43605D01*
X57609Y-43255D01*
X57201Y-42980D01*
X56747Y-42789D01*
X56264Y-42690D01*
X55772Y-42686D01*
X55288Y-42779D01*
X54831Y-42963D01*
X54419Y-43233D01*
X54067Y-43577D01*
X53788Y-43984D01*
X53594Y-44437D01*
X53492Y-44918D01*
X53485Y-45411D01*
X53574Y-45895D01*
X53755Y-46353D01*
X54022Y-46768D01*
X54364Y-47122D01*
X54768Y-47403D01*
X55220Y-47600D01*
X55701Y-47706D01*
X56193Y-47717D01*
X56678Y-47631D01*
X57138Y-47453D01*
X57554Y-47189D01*
X57910Y-46849D01*
X58194Y-46447D01*
X58395Y-45997D01*
X58504Y-45517D01*
X58512Y-44954D01*
X58512Y-52332D01*
X44082Y-52332D01*
X44082Y-50781D01*
X44082Y-50655D01*
X44059Y-50532D01*
X44012Y-50416D01*
X43943Y-50311D01*
X43855Y-50222D01*
X43752Y-50151D01*
X43637Y-50102D01*
X43514Y-50076D01*
X43389Y-50074D01*
X42991Y-50074D01*
X41974Y-49058D01*
X41972Y-49056D01*
X41960Y-49046D01*
X41933Y-49023D01*
X41931Y-49022D01*
X41886Y-48997D01*
X41883Y-48996D01*
X41880Y-48995D01*
X41835Y-48981D01*
X41782Y-48975D01*
X41779Y-48975D01*
X41778Y-48975D01*
X41069Y-48975D01*
X41069Y-40839D01*
X41026Y-40621D01*
X40941Y-40415D01*
X40818Y-40230D01*
X40661Y-40072D01*
X40477Y-39948D01*
X40272Y-39862D01*
X40054Y-39817D01*
X39832Y-39815D01*
X39613Y-39857D01*
X39407Y-39940D01*
X39221Y-40062D01*
X39062Y-40217D01*
X38937Y-40401D01*
X38849Y-40605D01*
X38803Y-40823D01*
X38800Y-41045D01*
X38840Y-41264D01*
X38921Y-41471D01*
X39042Y-41658D01*
X39196Y-41818D01*
X39379Y-41945D01*
X39583Y-42034D01*
X39800Y-42081D01*
X40022Y-42086D01*
X40241Y-42047D01*
X40449Y-41967D01*
X40636Y-41848D01*
X40797Y-41695D01*
X40926Y-41513D01*
X41016Y-41310D01*
X41065Y-41093D01*
X41069Y-40839D01*
X41069Y-48975D01*
X40013Y-48975D01*
X39025Y-47986D01*
X39025Y-46771D01*
X40002Y-46771D01*
X40004Y-46774D01*
X40064Y-46837D01*
X40136Y-46887D01*
X40216Y-46921D01*
X40301Y-46940D01*
X40389Y-46942D01*
X40475Y-46927D01*
X40556Y-46895D01*
X40630Y-46848D01*
X40693Y-46788D01*
X40743Y-46717D01*
X40778Y-46637D01*
X40798Y-46552D01*
X40799Y-46452D01*
X40799Y-45452D01*
X40782Y-45366D01*
X40749Y-45286D01*
X40700Y-45213D01*
X40639Y-45151D01*
X40566Y-45102D01*
X40486Y-45069D01*
X40400Y-45051D01*
X40313Y-45051D01*
X40227Y-45067D01*
X40147Y-45100D01*
X40074Y-45148D01*
X40011Y-45209D01*
X39962Y-45281D01*
X39928Y-45361D01*
X39910Y-45447D01*
X39908Y-45534D01*
X39924Y-45620D01*
X39956Y-45701D01*
X40004Y-45774D01*
X40064Y-45837D01*
X40136Y-45887D01*
X40216Y-45921D01*
X40301Y-45940D01*
X40389Y-45942D01*
X40475Y-45927D01*
X40556Y-45895D01*
X40630Y-45848D01*
X40693Y-45788D01*
X40743Y-45717D01*
X40778Y-45637D01*
X40798Y-45552D01*
X40799Y-45452D01*
X40799Y-46452D01*
X40782Y-46366D01*
X40749Y-46286D01*
X40700Y-46213D01*
X40639Y-46151D01*
X40566Y-46102D01*
X40486Y-46069D01*
X40400Y-46051D01*
X40313Y-46051D01*
X40227Y-46067D01*
X40147Y-46100D01*
X40074Y-46148D01*
X40011Y-46209D01*
X40002Y-46221D01*
X38804Y-46221D01*
X38751Y-46226D01*
X38721Y-46235D01*
X38701Y-46241D01*
X38699Y-46241D01*
X38699Y-46242D01*
X38652Y-46267D01*
X38628Y-46286D01*
X38612Y-46299D01*
X38610Y-46301D01*
X38609Y-46302D01*
X38556Y-46356D01*
X38546Y-46368D01*
X38523Y-46395D01*
X38497Y-46442D01*
X38496Y-46444D01*
X38496Y-46445D01*
X38495Y-46448D01*
X38481Y-46493D01*
X38475Y-46546D01*
X38475Y-46549D01*
X38475Y-46550D01*
X38475Y-48100D01*
X38480Y-48153D01*
X38489Y-48183D01*
X38495Y-48203D01*
X38495Y-48204D01*
X38496Y-48205D01*
X38496Y-48206D01*
X38519Y-48250D01*
X38521Y-48252D01*
X38553Y-48292D01*
X38555Y-48294D01*
X38556Y-48294D01*
X38560Y-48298D01*
X39704Y-49442D01*
X39705Y-49444D01*
X39745Y-49477D01*
X39746Y-49478D01*
X39784Y-49499D01*
X39792Y-49503D01*
X39794Y-49504D01*
X39813Y-49509D01*
X39843Y-49519D01*
X39845Y-49519D01*
X39896Y-49525D01*
X39899Y-49525D01*
X39900Y-49525D01*
X41664Y-49525D01*
X42505Y-50365D01*
X42476Y-50409D01*
X42428Y-50524D01*
X42402Y-50647D01*
X42402Y-50773D01*
X42425Y-50896D01*
X42472Y-51012D01*
X42541Y-51117D01*
X42629Y-51206D01*
X42732Y-51277D01*
X42847Y-51326D01*
X42970Y-51352D01*
X43095Y-51354D01*
X43506Y-51353D01*
X43629Y-51329D01*
X43745Y-51281D01*
X43849Y-51211D01*
X43938Y-51123D01*
X44008Y-51019D01*
X44056Y-50904D01*
X44082Y-50781D01*
X44082Y-52332D01*
X38546Y-52332D01*
X38405Y-52318D01*
X38270Y-52277D01*
X38145Y-52211D01*
X38036Y-52121D01*
X37946Y-52012D01*
X37880Y-51887D01*
X37839Y-51752D01*
X37825Y-51611D01*
X37825Y-14531D01*
X37839Y-14390D01*
X37880Y-14255D01*
X37946Y-14130D01*
X38036Y-14021D01*
X38145Y-13931D01*
X38270Y-13865D01*
X38405Y-13824D01*
X38546Y-13810D01*
X75627Y-13810D01*
X75768Y-13824D01*
X75903Y-13865D01*
X76028Y-13931D01*
X76137Y-14021D01*
X76227Y-14130D01*
X76293Y-14255D01*
X76334Y-14390D01*
X76348Y-14531D01*
X76348Y-51611D01*
X76348Y-51611D01*
G37*
X76348Y-51611D02*
X76334Y-51752D01*
X76293Y-51887D01*
X76227Y-52012D01*
X76137Y-52121D01*
X76028Y-52211D01*
X75903Y-52277D01*
X75768Y-52318D01*
X75627Y-52332D01*
X75618Y-52332D01*
X75618Y-44292D01*
X75618Y-37292D01*
X75537Y-36885D01*
X75379Y-36501D01*
X75149Y-36155D01*
X74856Y-35860D01*
X74741Y-35782D01*
X74741Y-24931D01*
X74668Y-24564D01*
X74526Y-24219D01*
X74319Y-23907D01*
X74056Y-23642D01*
X73746Y-23433D01*
X73401Y-23288D01*
X73035Y-23213D01*
X72661Y-23211D01*
X72294Y-23281D01*
X71948Y-23421D01*
X71635Y-23626D01*
X71368Y-23887D01*
X71157Y-24195D01*
X71009Y-24539D01*
X70932Y-24905D01*
X70927Y-25278D01*
X70994Y-25646D01*
X71132Y-25994D01*
X71334Y-26308D01*
X71594Y-26577D01*
X71901Y-26790D01*
X72243Y-26939D01*
X72608Y-27020D01*
X72982Y-27027D01*
X73350Y-26963D01*
X73699Y-26827D01*
X74014Y-26627D01*
X74285Y-26369D01*
X74500Y-26064D01*
X74652Y-25722D01*
X74735Y-25358D01*
X74741Y-24931D01*
X74741Y-35782D01*
X74512Y-35628D01*
X74129Y-35467D01*
X73722Y-35383D01*
X73307Y-35381D01*
X72899Y-35458D01*
X72514Y-35614D01*
X72166Y-35842D01*
X71870Y-36132D01*
X71635Y-36475D01*
X71471Y-36857D01*
X71385Y-37263D01*
X71379Y-37678D01*
X71454Y-38087D01*
X71607Y-38473D01*
X71832Y-38822D01*
X72121Y-39121D01*
X72462Y-39358D01*
X72843Y-39524D01*
X73248Y-39613D01*
X73664Y-39622D01*
X74073Y-39550D01*
X74460Y-39399D01*
X74811Y-39177D01*
X75111Y-38890D01*
X75351Y-38551D01*
X75519Y-38171D01*
X75611Y-37766D01*
X75618Y-37292D01*
X75618Y-44292D01*
X75537Y-43885D01*
X75379Y-43501D01*
X75149Y-43155D01*
X74856Y-42860D01*
X74512Y-42628D01*
X74129Y-42467D01*
X73722Y-42383D01*
X73307Y-42381D01*
X72899Y-42458D01*
X72514Y-42614D01*
X72166Y-42842D01*
X71870Y-43132D01*
X71635Y-43475D01*
X71471Y-43857D01*
X71385Y-44263D01*
X71379Y-44678D01*
X71454Y-45087D01*
X71607Y-45473D01*
X71832Y-45822D01*
X72121Y-46121D01*
X72462Y-46358D01*
X72843Y-46524D01*
X73248Y-46613D01*
X73664Y-46622D01*
X74073Y-46550D01*
X74460Y-46399D01*
X74811Y-46177D01*
X75111Y-45890D01*
X75351Y-45551D01*
X75519Y-45171D01*
X75611Y-44766D01*
X75618Y-44292D01*
X75618Y-52332D01*
X68150Y-52332D01*
X68150Y-37056D01*
X68150Y-32056D01*
X68133Y-31969D01*
X68099Y-31888D01*
X68050Y-31814D01*
X67988Y-31752D01*
X67915Y-31702D01*
X67834Y-31668D01*
X67747Y-31650D01*
X67659Y-31650D01*
X67572Y-31666D01*
X67491Y-31699D01*
X67417Y-31748D01*
X67354Y-31809D01*
X67304Y-31882D01*
X67269Y-31963D01*
X67251Y-32049D01*
X67249Y-32138D01*
X67265Y-32225D01*
X67298Y-32307D01*
X67346Y-32381D01*
X67407Y-32444D01*
X67479Y-32495D01*
X67560Y-32530D01*
X67646Y-32549D01*
X67735Y-32551D01*
X67821Y-32536D01*
X67904Y-32504D01*
X67978Y-32456D01*
X68042Y-32396D01*
X68093Y-32323D01*
X68129Y-32243D01*
X68149Y-32157D01*
X68150Y-32056D01*
X68150Y-37056D01*
X68133Y-36969D01*
X68099Y-36888D01*
X68050Y-36814D01*
X67988Y-36752D01*
X67915Y-36702D01*
X67834Y-36668D01*
X67747Y-36650D01*
X67659Y-36650D01*
X67572Y-36666D01*
X67491Y-36699D01*
X67417Y-36748D01*
X67354Y-36809D01*
X67304Y-36882D01*
X67269Y-36963D01*
X67251Y-37049D01*
X67249Y-37138D01*
X67265Y-37225D01*
X67298Y-37307D01*
X67346Y-37381D01*
X67407Y-37444D01*
X67479Y-37495D01*
X67560Y-37530D01*
X67646Y-37549D01*
X67735Y-37551D01*
X67821Y-37536D01*
X67904Y-37504D01*
X67978Y-37456D01*
X68042Y-37396D01*
X68093Y-37323D01*
X68129Y-37243D01*
X68149Y-37157D01*
X68150Y-37056D01*
X68150Y-52332D01*
X66650Y-52332D01*
X66650Y-37056D01*
X66650Y-32056D01*
X66633Y-31969D01*
X66599Y-31888D01*
X66550Y-31814D01*
X66488Y-31752D01*
X66415Y-31702D01*
X66334Y-31668D01*
X66247Y-31650D01*
X66159Y-31650D01*
X66072Y-31666D01*
X65991Y-31699D01*
X65917Y-31748D01*
X65854Y-31809D01*
X65843Y-31825D01*
X65352Y-31825D01*
X65350Y-31825D01*
X65297Y-31830D01*
X65275Y-31836D01*
X65247Y-31845D01*
X65245Y-31845D01*
X65245Y-31846D01*
X65241Y-31848D01*
X65199Y-31870D01*
X65189Y-31878D01*
X65156Y-31905D01*
X65122Y-31946D01*
X65096Y-31993D01*
X65088Y-32020D01*
X65081Y-32043D01*
X65075Y-32096D01*
X65075Y-32098D01*
X65075Y-32100D01*
X65075Y-33336D01*
X64850Y-33561D01*
X64850Y-32056D01*
X64833Y-31969D01*
X64799Y-31888D01*
X64750Y-31814D01*
X64688Y-31752D01*
X64615Y-31702D01*
X64534Y-31668D01*
X64447Y-31650D01*
X64359Y-31650D01*
X64272Y-31666D01*
X64191Y-31699D01*
X64117Y-31748D01*
X64054Y-31809D01*
X64004Y-31882D01*
X63969Y-31963D01*
X63951Y-32049D01*
X63949Y-32138D01*
X63965Y-32225D01*
X63998Y-32307D01*
X64046Y-32381D01*
X64107Y-32444D01*
X64179Y-32495D01*
X64260Y-32530D01*
X64346Y-32549D01*
X64435Y-32551D01*
X64521Y-32536D01*
X64604Y-32504D01*
X64678Y-32456D01*
X64742Y-32396D01*
X64793Y-32323D01*
X64829Y-32243D01*
X64849Y-32157D01*
X64850Y-32056D01*
X64850Y-33561D01*
X64786Y-33625D01*
X63350Y-33625D01*
X63350Y-32056D01*
X63333Y-31969D01*
X63299Y-31888D01*
X63250Y-31814D01*
X63188Y-31752D01*
X63115Y-31702D01*
X63034Y-31668D01*
X62947Y-31650D01*
X62859Y-31650D01*
X62772Y-31666D01*
X62691Y-31699D01*
X62617Y-31748D01*
X62554Y-31809D01*
X62504Y-31882D01*
X62469Y-31963D01*
X62451Y-32049D01*
X62449Y-32138D01*
X62465Y-32225D01*
X62498Y-32307D01*
X62546Y-32381D01*
X62607Y-32444D01*
X62679Y-32495D01*
X62760Y-32530D01*
X62846Y-32549D01*
X62935Y-32551D01*
X63021Y-32536D01*
X63104Y-32504D01*
X63178Y-32456D01*
X63242Y-32396D01*
X63293Y-32323D01*
X63329Y-32243D01*
X63349Y-32157D01*
X63350Y-32056D01*
X63350Y-33625D01*
X47721Y-33625D01*
X47751Y-33606D01*
X47797Y-33563D01*
X47833Y-33511D01*
X47859Y-33453D01*
X47873Y-33391D01*
X47874Y-33318D01*
X47862Y-33256D01*
X47837Y-33197D01*
X47802Y-33144D01*
X47757Y-33099D01*
X47705Y-33063D01*
X47646Y-33039D01*
X47584Y-33026D01*
X47520Y-33026D01*
X47458Y-33038D01*
X47399Y-33062D01*
X47378Y-33075D01*
X46713Y-33075D01*
X46072Y-32434D01*
X46078Y-32410D01*
X46078Y-32381D01*
X46078Y-32375D01*
X46400Y-32375D01*
X46451Y-32370D01*
X46453Y-32370D01*
X46483Y-32360D01*
X46503Y-32355D01*
X46504Y-32354D01*
X46505Y-32354D01*
X46506Y-32353D01*
X46550Y-32331D01*
X46552Y-32329D01*
X46592Y-32297D01*
X46592Y-32296D01*
X46594Y-32295D01*
X46594Y-32294D01*
X46598Y-32289D01*
X50405Y-28483D01*
X50407Y-28482D01*
X50440Y-28442D01*
X50441Y-28441D01*
X50462Y-28402D01*
X50466Y-28395D01*
X50466Y-28394D01*
X50467Y-28393D01*
X50472Y-28374D01*
X50482Y-28344D01*
X50482Y-28342D01*
X50488Y-28291D01*
X50488Y-28288D01*
X50488Y-28287D01*
X50488Y-28058D01*
X50578Y-28058D01*
X50607Y-28052D01*
X50634Y-28041D01*
X50658Y-28025D01*
X50679Y-28004D01*
X50695Y-27980D01*
X50706Y-27953D01*
X50712Y-27924D01*
X50712Y-27900D01*
X51025Y-28213D01*
X51025Y-28600D01*
X51030Y-28653D01*
X51039Y-28683D01*
X51045Y-28703D01*
X51045Y-28704D01*
X51046Y-28705D01*
X51046Y-28706D01*
X51069Y-28750D01*
X51071Y-28752D01*
X51103Y-28792D01*
X51105Y-28794D01*
X51106Y-28794D01*
X51110Y-28798D01*
X51204Y-28892D01*
X51205Y-28894D01*
X51245Y-28927D01*
X51246Y-28928D01*
X51284Y-28949D01*
X51292Y-28953D01*
X51294Y-28954D01*
X51313Y-28959D01*
X51343Y-28969D01*
X51345Y-28969D01*
X51396Y-28975D01*
X51399Y-28975D01*
X51400Y-28975D01*
X62500Y-28975D01*
X62551Y-28970D01*
X62553Y-28970D01*
X62583Y-28960D01*
X62603Y-28955D01*
X62604Y-28954D01*
X62605Y-28954D01*
X62606Y-28953D01*
X62650Y-28931D01*
X62652Y-28929D01*
X62692Y-28897D01*
X62692Y-28896D01*
X62694Y-28895D01*
X62694Y-28894D01*
X62698Y-28889D01*
X63092Y-28496D01*
X63094Y-28495D01*
X63127Y-28455D01*
X63128Y-28454D01*
X63135Y-28440D01*
X63153Y-28408D01*
X63153Y-28406D01*
X63169Y-28357D01*
X63169Y-28355D01*
X63175Y-28304D01*
X63175Y-28301D01*
X63175Y-28300D01*
X63175Y-27213D01*
X63213Y-27175D01*
X63637Y-27175D01*
X63576Y-27236D01*
X63521Y-27317D01*
X63482Y-27407D01*
X63462Y-27503D01*
X63460Y-27601D01*
X63478Y-27697D01*
X63514Y-27789D01*
X63567Y-27871D01*
X63635Y-27942D01*
X63716Y-27998D01*
X63806Y-28037D01*
X63901Y-28058D01*
X64000Y-28060D01*
X64096Y-28043D01*
X64187Y-28007D01*
X64270Y-27955D01*
X64341Y-27887D01*
X64398Y-27807D01*
X64438Y-27718D01*
X64459Y-27622D01*
X64461Y-27510D01*
X64460Y-27601D01*
X64478Y-27697D01*
X64514Y-27789D01*
X64567Y-27871D01*
X64635Y-27942D01*
X64716Y-27998D01*
X64806Y-28037D01*
X64901Y-28058D01*
X65000Y-28060D01*
X65096Y-28043D01*
X65187Y-28007D01*
X65270Y-27955D01*
X65341Y-27887D01*
X65398Y-27807D01*
X65438Y-27718D01*
X65459Y-27622D01*
X65461Y-27510D01*
X65442Y-27414D01*
X65405Y-27323D01*
X65350Y-27241D01*
X65284Y-27175D01*
X65465Y-27175D01*
X65462Y-27194D01*
X65462Y-27223D01*
X65462Y-27924D01*
X65468Y-27953D01*
X65479Y-27980D01*
X65495Y-28004D01*
X65516Y-28025D01*
X65540Y-28041D01*
X65567Y-28052D01*
X65596Y-28058D01*
X65625Y-28058D01*
X66326Y-28058D01*
X66355Y-28052D01*
X66382Y-28041D01*
X66406Y-28025D01*
X66427Y-28004D01*
X66443Y-27980D01*
X66454Y-27953D01*
X66460Y-27924D01*
X66460Y-27895D01*
X66460Y-27194D01*
X66454Y-27165D01*
X66443Y-27138D01*
X66427Y-27114D01*
X66406Y-27093D01*
X66382Y-27077D01*
X66355Y-27066D01*
X66326Y-27060D01*
X66297Y-27060D01*
X66271Y-27060D01*
X66270Y-27048D01*
X66270Y-27047D01*
X66263Y-27025D01*
X66255Y-26997D01*
X66254Y-26995D01*
X66252Y-26991D01*
X66230Y-26949D01*
X66229Y-26948D01*
X66197Y-26908D01*
X66195Y-26906D01*
X66194Y-26905D01*
X65996Y-26708D01*
X65994Y-26706D01*
X65982Y-26696D01*
X65955Y-26673D01*
X65953Y-26672D01*
X65908Y-26647D01*
X65905Y-26646D01*
X65902Y-26645D01*
X65857Y-26631D01*
X65804Y-26625D01*
X65801Y-26625D01*
X65800Y-26625D01*
X63100Y-26625D01*
X63047Y-26630D01*
X63025Y-26636D01*
X62997Y-26645D01*
X62995Y-26645D01*
X62995Y-26646D01*
X62991Y-26648D01*
X62949Y-26670D01*
X62908Y-26703D01*
X62906Y-26705D01*
X62905Y-26706D01*
X62706Y-26906D01*
X62696Y-26918D01*
X62673Y-26945D01*
X62647Y-26992D01*
X62646Y-26994D01*
X62646Y-26995D01*
X62645Y-26998D01*
X62631Y-27043D01*
X62625Y-27096D01*
X62625Y-27099D01*
X62625Y-27100D01*
X62625Y-28186D01*
X62386Y-28425D01*
X58993Y-28425D01*
X58993Y-24931D01*
X58920Y-24564D01*
X58778Y-24219D01*
X58571Y-23907D01*
X58308Y-23642D01*
X57998Y-23433D01*
X57653Y-23288D01*
X57287Y-23213D01*
X56913Y-23211D01*
X56546Y-23281D01*
X56200Y-23421D01*
X55887Y-23626D01*
X55620Y-23887D01*
X55409Y-24195D01*
X55261Y-24539D01*
X55184Y-24905D01*
X55179Y-25278D01*
X55246Y-25646D01*
X55384Y-25994D01*
X55586Y-26308D01*
X55846Y-26577D01*
X56153Y-26790D01*
X56495Y-26939D01*
X56860Y-27020D01*
X57234Y-27027D01*
X57602Y-26963D01*
X57951Y-26827D01*
X58266Y-26627D01*
X58537Y-26369D01*
X58752Y-26064D01*
X58904Y-25722D01*
X58987Y-25358D01*
X58993Y-24931D01*
X58993Y-28425D01*
X51575Y-28425D01*
X51575Y-28100D01*
X51570Y-28049D01*
X51570Y-28047D01*
X51560Y-28017D01*
X51555Y-27997D01*
X51554Y-27995D01*
X51530Y-27950D01*
X51529Y-27948D01*
X51509Y-27924D01*
X51497Y-27908D01*
X51495Y-27906D01*
X51494Y-27905D01*
X50955Y-27367D01*
X50953Y-27365D01*
X50941Y-27355D01*
X50914Y-27332D01*
X50912Y-27331D01*
X50867Y-27306D01*
X50864Y-27305D01*
X50861Y-27304D01*
X50816Y-27290D01*
X50763Y-27284D01*
X50760Y-27284D01*
X50759Y-27284D01*
X50712Y-27284D01*
X50712Y-27194D01*
X50706Y-27165D01*
X50695Y-27138D01*
X50679Y-27114D01*
X50658Y-27093D01*
X50634Y-27077D01*
X50607Y-27066D01*
X50578Y-27060D01*
X50549Y-27060D01*
X49848Y-27060D01*
X49819Y-27066D01*
X49792Y-27077D01*
X49768Y-27093D01*
X49747Y-27114D01*
X49731Y-27138D01*
X49720Y-27165D01*
X49714Y-27194D01*
X49714Y-27223D01*
X49714Y-27924D01*
X49720Y-27953D01*
X49731Y-27980D01*
X49747Y-28004D01*
X49768Y-28025D01*
X49792Y-28041D01*
X49819Y-28052D01*
X49848Y-28058D01*
X49877Y-28058D01*
X49938Y-28058D01*
X49938Y-28173D01*
X49713Y-28398D01*
X49713Y-27510D01*
X49694Y-27414D01*
X49657Y-27323D01*
X49602Y-27241D01*
X49533Y-27172D01*
X49452Y-27117D01*
X49362Y-27079D01*
X49266Y-27059D01*
X49167Y-27059D01*
X49071Y-27077D01*
X48980Y-27114D01*
X48898Y-27167D01*
X48828Y-27236D01*
X48773Y-27317D01*
X48734Y-27407D01*
X48714Y-27503D01*
X48713Y-27510D01*
X48694Y-27414D01*
X48657Y-27323D01*
X48602Y-27241D01*
X48533Y-27172D01*
X48452Y-27117D01*
X48362Y-27079D01*
X48266Y-27059D01*
X48167Y-27059D01*
X48071Y-27077D01*
X47980Y-27114D01*
X47898Y-27167D01*
X47828Y-27236D01*
X47773Y-27317D01*
X47734Y-27407D01*
X47714Y-27503D01*
X47712Y-27601D01*
X47730Y-27697D01*
X47766Y-27789D01*
X47819Y-27871D01*
X47887Y-27942D01*
X47968Y-27998D01*
X48058Y-28037D01*
X48153Y-28058D01*
X48252Y-28060D01*
X48348Y-28043D01*
X48439Y-28007D01*
X48522Y-27955D01*
X48593Y-27887D01*
X48650Y-27807D01*
X48690Y-27718D01*
X48711Y-27622D01*
X48713Y-27510D01*
X48712Y-27601D01*
X48730Y-27697D01*
X48766Y-27789D01*
X48819Y-27871D01*
X48887Y-27942D01*
X48968Y-27998D01*
X49058Y-28037D01*
X49153Y-28058D01*
X49252Y-28060D01*
X49348Y-28043D01*
X49439Y-28007D01*
X49522Y-27955D01*
X49593Y-27887D01*
X49650Y-27807D01*
X49690Y-27718D01*
X49711Y-27622D01*
X49713Y-27510D01*
X49713Y-28398D01*
X46286Y-31825D01*
X46078Y-31825D01*
X46078Y-31790D01*
X46072Y-31761D01*
X46061Y-31734D01*
X46045Y-31710D01*
X46024Y-31689D01*
X46000Y-31673D01*
X45973Y-31662D01*
X45944Y-31656D01*
X45915Y-31656D01*
X45404Y-31656D01*
X45375Y-31662D01*
X45348Y-31673D01*
X45324Y-31689D01*
X45303Y-31710D01*
X45287Y-31734D01*
X45276Y-31761D01*
X45270Y-31790D01*
X45270Y-31819D01*
X45270Y-32410D01*
X45276Y-32439D01*
X45287Y-32466D01*
X45303Y-32490D01*
X45324Y-32511D01*
X45348Y-32527D01*
X45375Y-32538D01*
X45404Y-32544D01*
X45427Y-32544D01*
X45443Y-32574D01*
X45445Y-32576D01*
X45477Y-32616D01*
X45479Y-32618D01*
X45480Y-32618D01*
X45484Y-32622D01*
X46404Y-33542D01*
X46405Y-33544D01*
X46445Y-33577D01*
X46446Y-33578D01*
X46459Y-33585D01*
X46492Y-33603D01*
X46494Y-33603D01*
X46543Y-33619D01*
X46545Y-33619D01*
X46596Y-33625D01*
X43245Y-33625D01*
X43245Y-24931D01*
X43172Y-24564D01*
X43030Y-24219D01*
X42823Y-23907D01*
X42560Y-23642D01*
X42250Y-23433D01*
X41905Y-23288D01*
X41539Y-23213D01*
X41165Y-23211D01*
X40798Y-23281D01*
X40452Y-23421D01*
X40139Y-23626D01*
X39872Y-23887D01*
X39661Y-24195D01*
X39513Y-24539D01*
X39436Y-24905D01*
X39431Y-25278D01*
X39498Y-25646D01*
X39636Y-25994D01*
X39838Y-26308D01*
X40098Y-26577D01*
X40405Y-26790D01*
X40747Y-26939D01*
X41112Y-27020D01*
X41486Y-27027D01*
X41854Y-26963D01*
X42203Y-26827D01*
X42518Y-26627D01*
X42789Y-26369D01*
X43004Y-26064D01*
X43156Y-25722D01*
X43239Y-25358D01*
X43245Y-24931D01*
X43245Y-33625D01*
X42800Y-33625D01*
X42747Y-33630D01*
X42717Y-33639D01*
X42697Y-33645D01*
X42695Y-33645D01*
X42695Y-33646D01*
X42648Y-33671D01*
X42624Y-33690D01*
X42608Y-33703D01*
X42606Y-33705D01*
X42605Y-33706D01*
X42206Y-34106D01*
X42196Y-34118D01*
X42173Y-34145D01*
X42147Y-34192D01*
X42146Y-34194D01*
X42146Y-34195D01*
X42145Y-34198D01*
X42131Y-34243D01*
X42125Y-34296D01*
X42125Y-34299D01*
X42125Y-34300D01*
X42125Y-35900D01*
X42130Y-35953D01*
X42139Y-35983D01*
X42145Y-36003D01*
X42145Y-36004D01*
X42146Y-36005D01*
X42146Y-36006D01*
X42169Y-36050D01*
X42171Y-36052D01*
X42203Y-36092D01*
X42205Y-36094D01*
X42206Y-36094D01*
X42210Y-36098D01*
X42454Y-36342D01*
X42455Y-36344D01*
X42495Y-36377D01*
X42496Y-36378D01*
X42509Y-36385D01*
X42542Y-36403D01*
X42544Y-36403D01*
X42593Y-36419D01*
X42595Y-36419D01*
X42646Y-36425D01*
X42649Y-36425D01*
X42650Y-36425D01*
X44277Y-36425D01*
X44330Y-36420D01*
X44339Y-36417D01*
X44725Y-36417D01*
X44754Y-36411D01*
X44781Y-36400D01*
X44805Y-36384D01*
X44825Y-36364D01*
X44825Y-37656D01*
X44656Y-37656D01*
X44627Y-37662D01*
X44600Y-37673D01*
X44576Y-37689D01*
X44555Y-37710D01*
X44539Y-37734D01*
X44528Y-37761D01*
X44522Y-37790D01*
X44522Y-37819D01*
X44522Y-38410D01*
X44528Y-38439D01*
X44539Y-38466D01*
X44555Y-38490D01*
X44576Y-38511D01*
X44600Y-38527D01*
X44627Y-38538D01*
X44656Y-38544D01*
X44685Y-38544D01*
X45196Y-38544D01*
X45225Y-38538D01*
X45252Y-38527D01*
X45276Y-38511D01*
X45297Y-38490D01*
X45300Y-38485D01*
X45303Y-38490D01*
X45324Y-38511D01*
X45348Y-38527D01*
X45375Y-38538D01*
X45404Y-38544D01*
X45433Y-38544D01*
X45944Y-38544D01*
X45973Y-38538D01*
X46000Y-38527D01*
X46024Y-38511D01*
X46045Y-38490D01*
X46061Y-38466D01*
X46072Y-38439D01*
X46078Y-38410D01*
X46078Y-38381D01*
X46078Y-37790D01*
X46072Y-37761D01*
X46061Y-37734D01*
X46045Y-37710D01*
X46024Y-37689D01*
X46000Y-37673D01*
X45973Y-37662D01*
X45949Y-37657D01*
X45949Y-36917D01*
X46259Y-36917D01*
X46266Y-36919D01*
X46319Y-36925D01*
X46323Y-36925D01*
X47336Y-36925D01*
X47984Y-37572D01*
X47987Y-37590D01*
X48011Y-37649D01*
X48045Y-37702D01*
X48089Y-37748D01*
X48141Y-37784D01*
X48200Y-37810D01*
X48262Y-37823D01*
X48325Y-37825D01*
X48388Y-37814D01*
X48447Y-37791D01*
X48501Y-37756D01*
X48547Y-37713D01*
X48583Y-37661D01*
X48609Y-37603D01*
X48623Y-37541D01*
X48624Y-37468D01*
X48612Y-37406D01*
X48587Y-37347D01*
X48552Y-37294D01*
X48507Y-37249D01*
X48455Y-37213D01*
X48396Y-37189D01*
X48373Y-37184D01*
X47646Y-36458D01*
X47644Y-36456D01*
X47632Y-36446D01*
X47607Y-36425D01*
X47736Y-36425D01*
X47983Y-36672D01*
X47987Y-36690D01*
X48011Y-36749D01*
X48045Y-36802D01*
X48089Y-36848D01*
X48141Y-36884D01*
X48200Y-36910D01*
X48262Y-36923D01*
X48325Y-36925D01*
X48388Y-36914D01*
X48447Y-36891D01*
X48501Y-36856D01*
X48547Y-36813D01*
X48583Y-36761D01*
X48609Y-36703D01*
X48623Y-36641D01*
X48624Y-36568D01*
X48612Y-36506D01*
X48587Y-36447D01*
X48552Y-36394D01*
X48507Y-36349D01*
X48455Y-36313D01*
X48396Y-36289D01*
X48372Y-36284D01*
X48046Y-35958D01*
X48044Y-35956D01*
X48032Y-35946D01*
X48005Y-35923D01*
X48003Y-35922D01*
X47958Y-35897D01*
X47955Y-35896D01*
X47952Y-35895D01*
X47907Y-35881D01*
X47854Y-35875D01*
X47851Y-35875D01*
X47850Y-35875D01*
X47784Y-35875D01*
X47797Y-35863D01*
X47833Y-35811D01*
X47859Y-35753D01*
X47873Y-35691D01*
X47874Y-35618D01*
X47862Y-35556D01*
X47837Y-35497D01*
X47802Y-35444D01*
X47783Y-35425D01*
X47836Y-35425D01*
X48725Y-36313D01*
X48725Y-45437D01*
X47076Y-47086D01*
X47076Y-45501D01*
X47071Y-45450D01*
X47071Y-45448D01*
X47061Y-45418D01*
X47056Y-45398D01*
X47055Y-45396D01*
X47031Y-45351D01*
X47030Y-45349D01*
X47010Y-45325D01*
X46998Y-45309D01*
X46996Y-45307D01*
X46995Y-45306D01*
X46646Y-44958D01*
X46644Y-44956D01*
X46632Y-44946D01*
X46605Y-44923D01*
X46603Y-44922D01*
X46558Y-44897D01*
X46555Y-44896D01*
X46552Y-44895D01*
X46507Y-44881D01*
X46454Y-44875D01*
X46451Y-44875D01*
X46450Y-44875D01*
X46019Y-44875D01*
X46019Y-44165D01*
X46019Y-44136D01*
X46019Y-43335D01*
X46013Y-43306D01*
X46002Y-43279D01*
X45986Y-43255D01*
X45965Y-43234D01*
X45941Y-43218D01*
X45914Y-43207D01*
X45885Y-43201D01*
X45856Y-43201D01*
X44415Y-43201D01*
X44386Y-43207D01*
X44359Y-43218D01*
X44335Y-43234D01*
X44314Y-43255D01*
X44298Y-43279D01*
X44287Y-43306D01*
X44281Y-43335D01*
X44281Y-43364D01*
X44281Y-44165D01*
X44287Y-44194D01*
X44298Y-44221D01*
X44314Y-44245D01*
X44335Y-44266D01*
X44359Y-44282D01*
X44386Y-44293D01*
X44415Y-44299D01*
X44444Y-44299D01*
X45885Y-44299D01*
X45914Y-44293D01*
X45941Y-44282D01*
X45965Y-44266D01*
X45986Y-44245D01*
X46002Y-44221D01*
X46013Y-44194D01*
X46019Y-44165D01*
X46019Y-44875D01*
X44700Y-44875D01*
X44647Y-44880D01*
X44617Y-44889D01*
X44597Y-44895D01*
X44595Y-44895D01*
X44595Y-44896D01*
X44548Y-44921D01*
X44524Y-44940D01*
X44508Y-44953D01*
X44506Y-44955D01*
X44505Y-44956D01*
X44056Y-45406D01*
X44046Y-45418D01*
X44023Y-45445D01*
X43997Y-45492D01*
X43996Y-45494D01*
X43996Y-45495D01*
X43995Y-45498D01*
X43981Y-45543D01*
X43975Y-45596D01*
X43975Y-45599D01*
X43975Y-45600D01*
X43975Y-45820D01*
X43955Y-45834D01*
X43934Y-45855D01*
X43918Y-45879D01*
X43907Y-45906D01*
X43901Y-45935D01*
X43901Y-45964D01*
X43901Y-46765D01*
X43903Y-46775D01*
X43850Y-46775D01*
X43797Y-46780D01*
X43767Y-46789D01*
X43747Y-46795D01*
X43745Y-46795D01*
X43745Y-46796D01*
X43698Y-46821D01*
X43674Y-46840D01*
X43658Y-46853D01*
X43656Y-46855D01*
X43655Y-46856D01*
X43305Y-47207D01*
X43295Y-47219D01*
X43272Y-47246D01*
X43271Y-47247D01*
X43170Y-47247D01*
X43141Y-47253D01*
X43114Y-47264D01*
X43090Y-47280D01*
X43069Y-47301D01*
X43053Y-47325D01*
X43042Y-47352D01*
X43036Y-47381D01*
X43036Y-47410D01*
X43036Y-48119D01*
X43042Y-48148D01*
X43053Y-48175D01*
X43069Y-48199D01*
X43090Y-48220D01*
X43114Y-48236D01*
X43141Y-48247D01*
X43170Y-48253D01*
X43199Y-48253D01*
X43828Y-48253D01*
X43857Y-48247D01*
X43884Y-48236D01*
X43908Y-48220D01*
X43929Y-48199D01*
X43945Y-48175D01*
X43956Y-48148D01*
X43962Y-48119D01*
X43962Y-48090D01*
X43962Y-47381D01*
X43956Y-47352D01*
X43950Y-47338D01*
X43963Y-47325D01*
X44550Y-47325D01*
X44601Y-47320D01*
X44603Y-47320D01*
X44633Y-47310D01*
X44653Y-47305D01*
X44654Y-47304D01*
X44655Y-47304D01*
X44656Y-47303D01*
X44700Y-47281D01*
X44702Y-47279D01*
X44742Y-47247D01*
X44742Y-47246D01*
X44744Y-47245D01*
X44744Y-47244D01*
X44748Y-47239D01*
X44892Y-47096D01*
X44894Y-47095D01*
X44927Y-47055D01*
X44928Y-47054D01*
X44938Y-47034D01*
X44953Y-47008D01*
X44953Y-47005D01*
X44954Y-47005D01*
X44955Y-47000D01*
X44969Y-46957D01*
X44969Y-46955D01*
X44975Y-46904D01*
X44975Y-46901D01*
X44975Y-46900D01*
X44975Y-45913D01*
X45063Y-45825D01*
X45736Y-45825D01*
X45750Y-45838D01*
X45734Y-45855D01*
X45718Y-45879D01*
X45707Y-45906D01*
X45701Y-45935D01*
X45701Y-45964D01*
X45701Y-46765D01*
X45707Y-46794D01*
X45718Y-46821D01*
X45734Y-46845D01*
X45755Y-46866D01*
X45775Y-46879D01*
X45775Y-46900D01*
X45780Y-46953D01*
X45789Y-46983D01*
X45795Y-47003D01*
X45795Y-47004D01*
X45796Y-47005D01*
X45796Y-47006D01*
X45819Y-47050D01*
X45821Y-47052D01*
X45853Y-47092D01*
X45855Y-47094D01*
X45856Y-47094D01*
X45860Y-47098D01*
X45975Y-47213D01*
X45975Y-49236D01*
X45056Y-50156D01*
X45046Y-50168D01*
X45023Y-50195D01*
X44997Y-50242D01*
X44996Y-50244D01*
X44996Y-50245D01*
X44995Y-50248D01*
X44981Y-50293D01*
X44975Y-50346D01*
X44975Y-50349D01*
X44975Y-50350D01*
X44975Y-50444D01*
X44966Y-50431D01*
X44905Y-50369D01*
X44832Y-50320D01*
X44752Y-50287D01*
X44666Y-50269D01*
X44579Y-50269D01*
X44493Y-50285D01*
X44413Y-50318D01*
X44340Y-50366D01*
X44277Y-50427D01*
X44228Y-50499D01*
X44194Y-50579D01*
X44176Y-50665D01*
X44174Y-50752D01*
X44190Y-50838D01*
X44222Y-50919D01*
X44270Y-50992D01*
X44330Y-51055D01*
X44402Y-51105D01*
X44482Y-51139D01*
X44567Y-51158D01*
X44655Y-51160D01*
X44741Y-51145D01*
X44822Y-51113D01*
X44896Y-51066D01*
X44959Y-51006D01*
X44975Y-50983D01*
X44975Y-51350D01*
X44980Y-51403D01*
X44989Y-51433D01*
X44995Y-51453D01*
X44995Y-51454D01*
X44996Y-51455D01*
X44996Y-51456D01*
X45019Y-51500D01*
X45021Y-51502D01*
X45053Y-51542D01*
X45055Y-51544D01*
X45056Y-51544D01*
X45060Y-51548D01*
X45304Y-51792D01*
X45305Y-51794D01*
X45345Y-51827D01*
X45346Y-51828D01*
X45359Y-51835D01*
X45392Y-51853D01*
X45394Y-51853D01*
X45443Y-51869D01*
X45445Y-51869D01*
X45496Y-51875D01*
X45499Y-51875D01*
X45500Y-51875D01*
X48600Y-51875D01*
X48651Y-51870D01*
X48653Y-51870D01*
X48683Y-51860D01*
X48703Y-51855D01*
X48704Y-51854D01*
X48705Y-51854D01*
X48706Y-51853D01*
X48750Y-51831D01*
X48752Y-51829D01*
X48792Y-51797D01*
X48792Y-51796D01*
X48794Y-51795D01*
X48794Y-51794D01*
X48798Y-51789D01*
X49092Y-51496D01*
X49094Y-51495D01*
X49127Y-51455D01*
X49128Y-51454D01*
X49149Y-51415D01*
X49153Y-51408D01*
X49153Y-51407D01*
X49154Y-51406D01*
X49159Y-51387D01*
X49169Y-51357D01*
X49169Y-51355D01*
X49175Y-51304D01*
X49175Y-51301D01*
X49175Y-51300D01*
X49175Y-49913D01*
X49241Y-49847D01*
X49242Y-49847D01*
X49242Y-49846D01*
X49244Y-49845D01*
X49244Y-49844D01*
X49248Y-49839D01*
X51092Y-47996D01*
X51094Y-47995D01*
X51127Y-47955D01*
X51128Y-47954D01*
X51149Y-47915D01*
X51153Y-47908D01*
X51153Y-47907D01*
X51154Y-47906D01*
X51159Y-47887D01*
X51169Y-47857D01*
X51169Y-47855D01*
X51175Y-47804D01*
X51175Y-47801D01*
X51175Y-47800D01*
X51175Y-43013D01*
X53713Y-40475D01*
X56967Y-40475D01*
X56969Y-40475D01*
X57021Y-40470D01*
X57022Y-40470D01*
X57043Y-40463D01*
X57072Y-40455D01*
X57073Y-40454D01*
X57074Y-40454D01*
X57077Y-40452D01*
X57120Y-40430D01*
X57121Y-40429D01*
X57129Y-40422D01*
X57161Y-40396D01*
X57163Y-40395D01*
X57196Y-40355D01*
X57197Y-40354D01*
X57222Y-40308D01*
X57223Y-40307D01*
X57230Y-40279D01*
X57238Y-40257D01*
X57238Y-40255D01*
X57244Y-40204D01*
X57244Y-40202D01*
X57244Y-40200D01*
X57244Y-40013D01*
X57357Y-39899D01*
X57376Y-39908D01*
X57499Y-39935D01*
X57625Y-39937D01*
X57749Y-39915D01*
X57866Y-39870D01*
X57972Y-39802D01*
X58063Y-39715D01*
X58136Y-39613D01*
X58155Y-39569D01*
X65880Y-39569D01*
X65959Y-39647D01*
X65959Y-40057D01*
X65943Y-40068D01*
X65922Y-40089D01*
X65906Y-40113D01*
X65900Y-40127D01*
X65894Y-40113D01*
X65878Y-40089D01*
X65857Y-40068D01*
X65833Y-40052D01*
X65806Y-40041D01*
X65777Y-40035D01*
X65748Y-40035D01*
X65355Y-40035D01*
X65326Y-40041D01*
X65299Y-40052D01*
X65275Y-40068D01*
X65254Y-40089D01*
X65238Y-40113D01*
X65227Y-40140D01*
X65221Y-40169D01*
X65221Y-40198D01*
X65221Y-40631D01*
X65227Y-40660D01*
X65238Y-40687D01*
X65254Y-40711D01*
X65275Y-40732D01*
X65291Y-40742D01*
X65291Y-40915D01*
X65236Y-40915D01*
X65207Y-40921D01*
X65180Y-40932D01*
X65156Y-40948D01*
X65135Y-40969D01*
X65119Y-40993D01*
X65108Y-41020D01*
X65102Y-41049D01*
X65102Y-41078D01*
X65102Y-41551D01*
X65108Y-41580D01*
X65119Y-41607D01*
X65135Y-41631D01*
X65156Y-41652D01*
X65180Y-41668D01*
X65207Y-41679D01*
X65236Y-41685D01*
X65265Y-41685D01*
X65738Y-41685D01*
X65767Y-41679D01*
X65794Y-41668D01*
X65818Y-41652D01*
X65839Y-41631D01*
X65855Y-41607D01*
X65866Y-41580D01*
X65872Y-41551D01*
X65872Y-41522D01*
X65872Y-41049D01*
X65866Y-41020D01*
X65855Y-40993D01*
X65841Y-40972D01*
X65841Y-40742D01*
X65857Y-40732D01*
X65878Y-40711D01*
X65894Y-40687D01*
X65900Y-40672D01*
X65906Y-40687D01*
X65922Y-40711D01*
X65943Y-40732D01*
X65967Y-40748D01*
X65994Y-40759D01*
X66023Y-40765D01*
X66052Y-40765D01*
X66445Y-40765D01*
X66474Y-40759D01*
X66501Y-40748D01*
X66525Y-40732D01*
X66546Y-40711D01*
X66562Y-40687D01*
X66573Y-40660D01*
X66579Y-40631D01*
X66579Y-40602D01*
X66579Y-40169D01*
X66573Y-40140D01*
X66562Y-40113D01*
X66546Y-40089D01*
X66525Y-40068D01*
X66509Y-40057D01*
X66509Y-39534D01*
X66504Y-39483D01*
X66504Y-39481D01*
X66494Y-39451D01*
X66489Y-39431D01*
X66488Y-39429D01*
X66464Y-39384D01*
X66463Y-39382D01*
X66443Y-39358D01*
X66431Y-39342D01*
X66429Y-39340D01*
X66428Y-39339D01*
X66190Y-39102D01*
X66188Y-39100D01*
X66176Y-39090D01*
X66149Y-39067D01*
X66147Y-39066D01*
X66102Y-39041D01*
X66099Y-39040D01*
X66096Y-39039D01*
X66051Y-39025D01*
X65998Y-39019D01*
X65995Y-39019D01*
X65994Y-39019D01*
X64850Y-39019D01*
X64850Y-37056D01*
X64833Y-36969D01*
X64799Y-36888D01*
X64750Y-36814D01*
X64688Y-36752D01*
X64615Y-36702D01*
X64534Y-36668D01*
X64447Y-36650D01*
X64359Y-36650D01*
X64272Y-36666D01*
X64191Y-36699D01*
X64117Y-36748D01*
X64054Y-36809D01*
X64004Y-36882D01*
X63969Y-36963D01*
X63951Y-37049D01*
X63949Y-37138D01*
X63965Y-37225D01*
X63998Y-37307D01*
X64046Y-37381D01*
X64107Y-37444D01*
X64179Y-37495D01*
X64260Y-37530D01*
X64346Y-37549D01*
X64435Y-37551D01*
X64521Y-37536D01*
X64604Y-37504D01*
X64678Y-37456D01*
X64742Y-37396D01*
X64793Y-37323D01*
X64829Y-37243D01*
X64849Y-37157D01*
X64850Y-37056D01*
X64850Y-39019D01*
X63350Y-39019D01*
X63350Y-37056D01*
X63333Y-36969D01*
X63299Y-36888D01*
X63250Y-36814D01*
X63188Y-36752D01*
X63115Y-36702D01*
X63034Y-36668D01*
X62947Y-36650D01*
X62859Y-36650D01*
X62772Y-36666D01*
X62691Y-36699D01*
X62617Y-36748D01*
X62554Y-36809D01*
X62504Y-36882D01*
X62469Y-36963D01*
X62451Y-37049D01*
X62449Y-37138D01*
X62465Y-37225D01*
X62498Y-37307D01*
X62546Y-37381D01*
X62607Y-37444D01*
X62679Y-37495D01*
X62760Y-37530D01*
X62846Y-37549D01*
X62935Y-37551D01*
X63021Y-37536D01*
X63104Y-37504D01*
X63178Y-37456D01*
X63242Y-37396D01*
X63293Y-37323D01*
X63329Y-37243D01*
X63349Y-37157D01*
X63350Y-37056D01*
X63350Y-39019D01*
X58156Y-39019D01*
X58145Y-38991D01*
X58075Y-38886D01*
X57986Y-38797D01*
X57882Y-38727D01*
X57766Y-38678D01*
X57642Y-38652D01*
X57516Y-38652D01*
X57393Y-38675D01*
X57276Y-38722D01*
X57171Y-38791D01*
X57081Y-38879D01*
X57010Y-38983D01*
X56960Y-39099D01*
X56934Y-39222D01*
X56932Y-39348D01*
X56955Y-39472D01*
X56970Y-39510D01*
X56777Y-39704D01*
X56775Y-39706D01*
X56765Y-39718D01*
X56742Y-39745D01*
X56716Y-39792D01*
X56715Y-39794D01*
X56715Y-39795D01*
X56714Y-39798D01*
X56700Y-39843D01*
X56694Y-39896D01*
X56694Y-39899D01*
X56694Y-39900D01*
X56694Y-39925D01*
X56117Y-39925D01*
X56174Y-39915D01*
X56291Y-39870D01*
X56397Y-39802D01*
X56488Y-39715D01*
X56561Y-39613D01*
X56612Y-39498D01*
X56619Y-39465D01*
X56634Y-39448D01*
X56660Y-39401D01*
X56675Y-39349D01*
X56681Y-39296D01*
X56676Y-39242D01*
X56661Y-39191D01*
X56636Y-39143D01*
X56621Y-39125D01*
X56618Y-39108D01*
X56570Y-38991D01*
X56500Y-38886D01*
X56411Y-38797D01*
X56369Y-38768D01*
X56369Y-37064D01*
X56355Y-36993D01*
X56327Y-36926D01*
X56287Y-36866D01*
X56236Y-36814D01*
X56176Y-36774D01*
X56110Y-36746D01*
X56039Y-36731D01*
X55967Y-36731D01*
X55895Y-36744D01*
X55828Y-36771D01*
X55768Y-36811D01*
X55716Y-36862D01*
X55675Y-36921D01*
X55647Y-36988D01*
X55632Y-37058D01*
X55631Y-37131D01*
X55644Y-37202D01*
X55670Y-37269D01*
X55709Y-37330D01*
X55760Y-37382D01*
X55819Y-37424D01*
X55885Y-37453D01*
X55956Y-37468D01*
X56028Y-37470D01*
X56100Y-37457D01*
X56167Y-37431D01*
X56228Y-37392D01*
X56281Y-37342D01*
X56322Y-37283D01*
X56352Y-37217D01*
X56368Y-37147D01*
X56369Y-37064D01*
X56369Y-38768D01*
X56307Y-38727D01*
X56191Y-38678D01*
X56067Y-38652D01*
X55941Y-38652D01*
X55818Y-38675D01*
X55701Y-38722D01*
X55596Y-38791D01*
X55506Y-38879D01*
X55435Y-38983D01*
X55385Y-39099D01*
X55359Y-39222D01*
X55357Y-39348D01*
X55380Y-39472D01*
X55426Y-39589D01*
X55494Y-39695D01*
X55582Y-39785D01*
X55685Y-39857D01*
X55801Y-39908D01*
X55878Y-39925D01*
X53600Y-39925D01*
X53547Y-39930D01*
X53517Y-39939D01*
X53497Y-39945D01*
X53495Y-39945D01*
X53495Y-39946D01*
X53448Y-39971D01*
X53424Y-39990D01*
X53408Y-40003D01*
X53406Y-40005D01*
X53405Y-40006D01*
X51699Y-41712D01*
X51699Y-40839D01*
X51656Y-40621D01*
X51571Y-40415D01*
X51448Y-40230D01*
X51291Y-40072D01*
X51107Y-39948D01*
X50902Y-39862D01*
X50684Y-39817D01*
X50462Y-39815D01*
X50243Y-39857D01*
X50037Y-39940D01*
X49851Y-40062D01*
X49692Y-40217D01*
X49567Y-40401D01*
X49479Y-40605D01*
X49433Y-40823D01*
X49430Y-41045D01*
X49470Y-41264D01*
X49551Y-41471D01*
X49672Y-41658D01*
X49826Y-41818D01*
X50009Y-41945D01*
X50213Y-42034D01*
X50430Y-42081D01*
X50652Y-42086D01*
X50871Y-42047D01*
X51079Y-41967D01*
X51266Y-41848D01*
X51427Y-41695D01*
X51556Y-41513D01*
X51646Y-41310D01*
X51695Y-41093D01*
X51699Y-40839D01*
X51699Y-41712D01*
X50706Y-42706D01*
X50696Y-42718D01*
X50673Y-42745D01*
X50647Y-42792D01*
X50646Y-42794D01*
X50646Y-42795D01*
X50645Y-42798D01*
X50631Y-42843D01*
X50625Y-42896D01*
X50625Y-42899D01*
X50625Y-42900D01*
X50625Y-47686D01*
X48862Y-49449D01*
X48858Y-49453D01*
X48855Y-49456D01*
X48706Y-49606D01*
X48696Y-49618D01*
X48673Y-49645D01*
X48647Y-49692D01*
X48646Y-49694D01*
X48646Y-49695D01*
X48645Y-49698D01*
X48631Y-49743D01*
X48625Y-49796D01*
X48625Y-49799D01*
X48625Y-49800D01*
X48625Y-51186D01*
X48486Y-51325D01*
X47654Y-51325D01*
X47761Y-51281D01*
X47865Y-51211D01*
X47954Y-51123D01*
X48024Y-51019D01*
X48072Y-50904D01*
X48098Y-50781D01*
X48098Y-50655D01*
X48075Y-50532D01*
X48028Y-50416D01*
X47959Y-50311D01*
X47871Y-50222D01*
X47768Y-50151D01*
X47653Y-50102D01*
X47530Y-50076D01*
X47405Y-50074D01*
X47076Y-50074D01*
X47076Y-48253D01*
X47130Y-48253D01*
X47159Y-48247D01*
X47186Y-48236D01*
X47210Y-48220D01*
X47231Y-48199D01*
X47247Y-48175D01*
X47258Y-48148D01*
X47264Y-48119D01*
X47264Y-48090D01*
X47264Y-47675D01*
X49192Y-45747D01*
X49194Y-45746D01*
X49227Y-45706D01*
X49228Y-45705D01*
X49235Y-45691D01*
X49253Y-45659D01*
X49253Y-45657D01*
X49269Y-45608D01*
X49269Y-45606D01*
X49275Y-45555D01*
X49275Y-45551D01*
X49275Y-36200D01*
X49270Y-36147D01*
X49258Y-36108D01*
X49255Y-36097D01*
X49254Y-36095D01*
X49252Y-36091D01*
X49230Y-36049D01*
X49229Y-36048D01*
X49197Y-36008D01*
X49195Y-36006D01*
X49194Y-36005D01*
X48146Y-34958D01*
X48144Y-34956D01*
X48132Y-34946D01*
X48105Y-34923D01*
X48103Y-34922D01*
X48058Y-34897D01*
X48055Y-34896D01*
X48052Y-34895D01*
X48007Y-34881D01*
X47954Y-34875D01*
X47951Y-34875D01*
X47950Y-34875D01*
X46323Y-34875D01*
X46270Y-34880D01*
X46260Y-34883D01*
X45875Y-34883D01*
X45846Y-34889D01*
X45819Y-34900D01*
X45795Y-34916D01*
X45774Y-34937D01*
X45758Y-34961D01*
X45747Y-34988D01*
X45741Y-35017D01*
X45741Y-35046D01*
X45741Y-35283D01*
X45747Y-35312D01*
X45758Y-35339D01*
X45774Y-35363D01*
X45795Y-35384D01*
X45819Y-35400D01*
X45795Y-35416D01*
X45774Y-35437D01*
X45758Y-35461D01*
X45747Y-35488D01*
X45741Y-35517D01*
X45741Y-35546D01*
X45741Y-35552D01*
X45146Y-34958D01*
X45144Y-34956D01*
X45132Y-34946D01*
X45105Y-34923D01*
X45103Y-34922D01*
X45058Y-34897D01*
X45055Y-34896D01*
X45052Y-34895D01*
X45007Y-34881D01*
X44954Y-34875D01*
X44951Y-34875D01*
X44950Y-34875D01*
X44277Y-34875D01*
X44224Y-34880D01*
X44214Y-34883D01*
X43829Y-34883D01*
X43800Y-34889D01*
X43773Y-34900D01*
X43749Y-34916D01*
X43728Y-34937D01*
X43712Y-34961D01*
X43701Y-34988D01*
X43695Y-35017D01*
X43695Y-35046D01*
X43695Y-35283D01*
X43701Y-35312D01*
X43712Y-35339D01*
X43728Y-35363D01*
X43740Y-35375D01*
X43363Y-35375D01*
X43275Y-35286D01*
X43275Y-34813D01*
X43413Y-34675D01*
X51096Y-34675D01*
X51100Y-34675D01*
X53186Y-34675D01*
X54631Y-36120D01*
X54631Y-36131D01*
X54644Y-36202D01*
X54670Y-36269D01*
X54709Y-36330D01*
X54760Y-36382D01*
X54819Y-36424D01*
X54885Y-36453D01*
X54956Y-36468D01*
X55028Y-36470D01*
X55100Y-36457D01*
X55167Y-36431D01*
X55228Y-36392D01*
X55281Y-36342D01*
X55322Y-36283D01*
X55352Y-36217D01*
X55368Y-36147D01*
X55369Y-36064D01*
X55355Y-35993D01*
X55327Y-35926D01*
X55287Y-35866D01*
X55236Y-35814D01*
X55176Y-35774D01*
X55110Y-35746D01*
X55039Y-35731D01*
X55019Y-35731D01*
X53496Y-34208D01*
X53494Y-34206D01*
X53482Y-34196D01*
X53457Y-34175D01*
X64900Y-34175D01*
X64951Y-34170D01*
X64953Y-34170D01*
X64983Y-34160D01*
X65003Y-34155D01*
X65004Y-34154D01*
X65005Y-34154D01*
X65006Y-34153D01*
X65050Y-34131D01*
X65052Y-34129D01*
X65092Y-34097D01*
X65092Y-34096D01*
X65094Y-34095D01*
X65094Y-34094D01*
X65098Y-34089D01*
X65542Y-33646D01*
X65544Y-33645D01*
X65577Y-33605D01*
X65578Y-33604D01*
X65599Y-33565D01*
X65603Y-33558D01*
X65603Y-33557D01*
X65604Y-33556D01*
X65609Y-33537D01*
X65619Y-33507D01*
X65619Y-33505D01*
X65625Y-33454D01*
X65625Y-33451D01*
X65625Y-33450D01*
X65625Y-32375D01*
X65842Y-32375D01*
X65846Y-32381D01*
X65907Y-32444D01*
X65979Y-32495D01*
X66060Y-32530D01*
X66146Y-32549D01*
X66235Y-32551D01*
X66321Y-32536D01*
X66404Y-32504D01*
X66478Y-32456D01*
X66542Y-32396D01*
X66593Y-32323D01*
X66629Y-32243D01*
X66649Y-32157D01*
X66650Y-32056D01*
X66650Y-37056D01*
X66633Y-36969D01*
X66599Y-36888D01*
X66550Y-36814D01*
X66488Y-36752D01*
X66415Y-36702D01*
X66334Y-36668D01*
X66247Y-36650D01*
X66159Y-36650D01*
X66072Y-36666D01*
X65991Y-36699D01*
X65917Y-36748D01*
X65854Y-36809D01*
X65804Y-36882D01*
X65769Y-36963D01*
X65751Y-37049D01*
X65749Y-37138D01*
X65765Y-37225D01*
X65798Y-37307D01*
X65846Y-37381D01*
X65907Y-37444D01*
X65979Y-37495D01*
X66060Y-37530D01*
X66146Y-37549D01*
X66235Y-37551D01*
X66321Y-37536D01*
X66404Y-37504D01*
X66478Y-37456D01*
X66542Y-37396D01*
X66593Y-37323D01*
X66629Y-37243D01*
X66649Y-37157D01*
X66650Y-37056D01*
X66650Y-52332D01*
X65518Y-52332D01*
X65518Y-47692D01*
X65437Y-47285D01*
X65279Y-46901D01*
X65049Y-46555D01*
X64756Y-46260D01*
X64412Y-46028D01*
X64029Y-45867D01*
X63622Y-45783D01*
X63207Y-45781D01*
X62799Y-45858D01*
X62414Y-46014D01*
X62066Y-46242D01*
X61770Y-46532D01*
X61535Y-46875D01*
X61371Y-47257D01*
X61285Y-47663D01*
X61279Y-48078D01*
X61354Y-48487D01*
X61507Y-48873D01*
X61732Y-49222D01*
X62021Y-49521D01*
X62362Y-49758D01*
X62743Y-49924D01*
X63148Y-50013D01*
X63564Y-50022D01*
X63973Y-49950D01*
X64360Y-49799D01*
X64711Y-49577D01*
X65011Y-49290D01*
X65251Y-48951D01*
X65419Y-48571D01*
X65511Y-48166D01*
X65518Y-47692D01*
X65518Y-52332D01*
X58512Y-52332D01*
X58512Y-44954D01*
X58416Y-44471D01*
X58229Y-44015D01*
X57956Y-43605D01*
X57609Y-43255D01*
X57201Y-42980D01*
X56747Y-42789D01*
X56264Y-42690D01*
X55772Y-42686D01*
X55288Y-42779D01*
X54831Y-42963D01*
X54419Y-43233D01*
X54067Y-43577D01*
X53788Y-43984D01*
X53594Y-44437D01*
X53492Y-44918D01*
X53485Y-45411D01*
X53574Y-45895D01*
X53755Y-46353D01*
X54022Y-46768D01*
X54364Y-47122D01*
X54768Y-47403D01*
X55220Y-47600D01*
X55701Y-47706D01*
X56193Y-47717D01*
X56678Y-47631D01*
X57138Y-47453D01*
X57554Y-47189D01*
X57910Y-46849D01*
X58194Y-46447D01*
X58395Y-45997D01*
X58504Y-45517D01*
X58512Y-44954D01*
X58512Y-52332D01*
X44082Y-52332D01*
X44082Y-50781D01*
X44082Y-50655D01*
X44059Y-50532D01*
X44012Y-50416D01*
X43943Y-50311D01*
X43855Y-50222D01*
X43752Y-50151D01*
X43637Y-50102D01*
X43514Y-50076D01*
X43389Y-50074D01*
X42991Y-50074D01*
X41974Y-49058D01*
X41972Y-49056D01*
X41960Y-49046D01*
X41933Y-49023D01*
X41931Y-49022D01*
X41886Y-48997D01*
X41883Y-48996D01*
X41880Y-48995D01*
X41835Y-48981D01*
X41782Y-48975D01*
X41779Y-48975D01*
X41778Y-48975D01*
X41069Y-48975D01*
X41069Y-40839D01*
X41026Y-40621D01*
X40941Y-40415D01*
X40818Y-40230D01*
X40661Y-40072D01*
X40477Y-39948D01*
X40272Y-39862D01*
X40054Y-39817D01*
X39832Y-39815D01*
X39613Y-39857D01*
X39407Y-39940D01*
X39221Y-40062D01*
X39062Y-40217D01*
X38937Y-40401D01*
X38849Y-40605D01*
X38803Y-40823D01*
X38800Y-41045D01*
X38840Y-41264D01*
X38921Y-41471D01*
X39042Y-41658D01*
X39196Y-41818D01*
X39379Y-41945D01*
X39583Y-42034D01*
X39800Y-42081D01*
X40022Y-42086D01*
X40241Y-42047D01*
X40449Y-41967D01*
X40636Y-41848D01*
X40797Y-41695D01*
X40926Y-41513D01*
X41016Y-41310D01*
X41065Y-41093D01*
X41069Y-40839D01*
X41069Y-48975D01*
X40013Y-48975D01*
X39025Y-47986D01*
X39025Y-46771D01*
X40002Y-46771D01*
X40004Y-46774D01*
X40064Y-46837D01*
X40136Y-46887D01*
X40216Y-46921D01*
X40301Y-46940D01*
X40389Y-46942D01*
X40475Y-46927D01*
X40556Y-46895D01*
X40630Y-46848D01*
X40693Y-46788D01*
X40743Y-46717D01*
X40778Y-46637D01*
X40798Y-46552D01*
X40799Y-46452D01*
X40799Y-45452D01*
X40782Y-45366D01*
X40749Y-45286D01*
X40700Y-45213D01*
X40639Y-45151D01*
X40566Y-45102D01*
X40486Y-45069D01*
X40400Y-45051D01*
X40313Y-45051D01*
X40227Y-45067D01*
X40147Y-45100D01*
X40074Y-45148D01*
X40011Y-45209D01*
X39962Y-45281D01*
X39928Y-45361D01*
X39910Y-45447D01*
X39908Y-45534D01*
X39924Y-45620D01*
X39956Y-45701D01*
X40004Y-45774D01*
X40064Y-45837D01*
X40136Y-45887D01*
X40216Y-45921D01*
X40301Y-45940D01*
X40389Y-45942D01*
X40475Y-45927D01*
X40556Y-45895D01*
X40630Y-45848D01*
X40693Y-45788D01*
X40743Y-45717D01*
X40778Y-45637D01*
X40798Y-45552D01*
X40799Y-45452D01*
X40799Y-46452D01*
X40782Y-46366D01*
X40749Y-46286D01*
X40700Y-46213D01*
X40639Y-46151D01*
X40566Y-46102D01*
X40486Y-46069D01*
X40400Y-46051D01*
X40313Y-46051D01*
X40227Y-46067D01*
X40147Y-46100D01*
X40074Y-46148D01*
X40011Y-46209D01*
X40002Y-46221D01*
X38804Y-46221D01*
X38751Y-46226D01*
X38721Y-46235D01*
X38701Y-46241D01*
X38699Y-46241D01*
X38699Y-46242D01*
X38652Y-46267D01*
X38628Y-46286D01*
X38612Y-46299D01*
X38610Y-46301D01*
X38609Y-46302D01*
X38556Y-46356D01*
X38546Y-46368D01*
X38523Y-46395D01*
X38497Y-46442D01*
X38496Y-46444D01*
X38496Y-46445D01*
X38495Y-46448D01*
X38481Y-46493D01*
X38475Y-46546D01*
X38475Y-46549D01*
X38475Y-46550D01*
X38475Y-48100D01*
X38480Y-48153D01*
X38489Y-48183D01*
X38495Y-48203D01*
X38495Y-48204D01*
X38496Y-48205D01*
X38496Y-48206D01*
X38519Y-48250D01*
X38521Y-48252D01*
X38553Y-48292D01*
X38555Y-48294D01*
X38556Y-48294D01*
X38560Y-48298D01*
X39704Y-49442D01*
X39705Y-49444D01*
X39745Y-49477D01*
X39746Y-49478D01*
X39784Y-49499D01*
X39792Y-49503D01*
X39794Y-49504D01*
X39813Y-49509D01*
X39843Y-49519D01*
X39845Y-49519D01*
X39896Y-49525D01*
X39899Y-49525D01*
X39900Y-49525D01*
X41664Y-49525D01*
X42505Y-50365D01*
X42476Y-50409D01*
X42428Y-50524D01*
X42402Y-50647D01*
X42402Y-50773D01*
X42425Y-50896D01*
X42472Y-51012D01*
X42541Y-51117D01*
X42629Y-51206D01*
X42732Y-51277D01*
X42847Y-51326D01*
X42970Y-51352D01*
X43095Y-51354D01*
X43506Y-51353D01*
X43629Y-51329D01*
X43745Y-51281D01*
X43849Y-51211D01*
X43938Y-51123D01*
X44008Y-51019D01*
X44056Y-50904D01*
X44082Y-50781D01*
X44082Y-52332D01*
X38546Y-52332D01*
X38405Y-52318D01*
X38270Y-52277D01*
X38145Y-52211D01*
X38036Y-52121D01*
X37946Y-52012D01*
X37880Y-51887D01*
X37839Y-51752D01*
X37825Y-51611D01*
X37825Y-14531D01*
X37839Y-14390D01*
X37880Y-14255D01*
X37946Y-14130D01*
X38036Y-14021D01*
X38145Y-13931D01*
X38270Y-13865D01*
X38405Y-13824D01*
X38546Y-13810D01*
X75627Y-13810D01*
X75768Y-13824D01*
X75903Y-13865D01*
X76028Y-13931D01*
X76137Y-14021D01*
X76227Y-14130D01*
X76293Y-14255D01*
X76334Y-14390D01*
X76348Y-14531D01*
X76348Y-51611D01*
M02*
