G04 (created by PCBNEW-RS274X (2012-jan-04)-stable) date Mon 11 Jun 2012 12:23:53 PM CEST*
G01*
G70*
G90*
%MOIN*%
G04 Gerber Fmt 3.4, Leading zero omitted, Abs format*
%FSLAX34Y34*%
G04 APERTURE LIST*
%ADD10C,0.006000*%
%ADD11C,0.008000*%
%ADD12C,0.196900*%
%ADD13O,0.137800X0.098400*%
%ADD14C,0.059100*%
%ADD15C,0.315000*%
%ADD16C,0.472400*%
%ADD17C,0.098400*%
%ADD18C,0.160000*%
%ADD19R,0.027600X0.039400*%
%ADD20R,0.051100X0.059000*%
%ADD21C,0.393700*%
%ADD22C,0.044000*%
%ADD23C,0.157500*%
%ADD24R,0.043300X0.039300*%
%ADD25O,0.068900X0.118100*%
%ADD26C,0.035000*%
%ADD27C,0.025000*%
%ADD28C,0.070000*%
%ADD29C,0.010000*%
G04 APERTURE END LIST*
G54D10*
G54D11*
X76772Y-52756D02*
X76772Y-13386D01*
X37402Y-52756D02*
X37402Y-13386D01*
X76772Y-52756D02*
X37402Y-52756D01*
X37402Y-13386D02*
X76772Y-13386D01*
G54D12*
X51215Y-41000D03*
X40585Y-41000D03*
G54D13*
X47908Y-50764D03*
X43892Y-50764D03*
G54D14*
X46530Y-50764D03*
X45270Y-50764D03*
G54D15*
X72835Y-25118D03*
X41339Y-25118D03*
X57087Y-25118D03*
G54D12*
X73500Y-33300D03*
X73500Y-28900D03*
G54D16*
X56000Y-45200D03*
G54D17*
X56000Y-39294D03*
X54425Y-39294D03*
X57575Y-39294D03*
G54D18*
X39370Y-15354D03*
X74803Y-15354D03*
X39370Y-50787D03*
X74803Y-50787D03*
G54D19*
X72100Y-31700D03*
X72475Y-30700D03*
X71725Y-30700D03*
X74300Y-31700D03*
X74675Y-30700D03*
X73925Y-30700D03*
G54D20*
X72726Y-40900D03*
X73474Y-40900D03*
G54D19*
X70500Y-39900D03*
X70125Y-40900D03*
X70875Y-40900D03*
G54D21*
X73500Y-37500D03*
X73500Y-44500D03*
X68800Y-47900D03*
X63400Y-47900D03*
G54D14*
X40354Y-46496D03*
X40354Y-45496D03*
X40354Y-47496D03*
G54D22*
X40200Y-36200D03*
X39200Y-37200D03*
X40200Y-38200D03*
G54D23*
X66900Y-30504D03*
X66900Y-43496D03*
X64100Y-30504D03*
X64100Y-43496D03*
G54D24*
X73500Y-47966D03*
X73500Y-48634D03*
G54D25*
X49200Y-27700D03*
X50200Y-27700D03*
X48200Y-27700D03*
X64900Y-27700D03*
X65900Y-27700D03*
X63900Y-27700D03*
G54D26*
X45700Y-38900D03*
X47800Y-39400D03*
X43900Y-37400D03*
X47800Y-37500D03*
X43800Y-33600D03*
X43800Y-32200D03*
X46200Y-31600D03*
X48000Y-35900D03*
G54D27*
X54200Y-36600D02*
X54700Y-37100D01*
X54700Y-37100D02*
X56000Y-37100D01*
X63400Y-47900D02*
X61300Y-45800D01*
X46500Y-38900D02*
X45700Y-38900D01*
X44400Y-38900D02*
X45700Y-38900D01*
X46800Y-37600D02*
X46800Y-38600D01*
X47800Y-36600D02*
X54200Y-36600D01*
X43700Y-38200D02*
X44400Y-38900D01*
X40200Y-38200D02*
X43700Y-38200D01*
X47800Y-36600D02*
X46800Y-37600D01*
X46800Y-38600D02*
X46500Y-38900D01*
X57600Y-37100D02*
X61300Y-40800D01*
X61300Y-40800D02*
X61300Y-45800D01*
X57600Y-37100D02*
X56000Y-37100D01*
G54D28*
X72300Y-29600D02*
X72500Y-29800D01*
X73500Y-28900D02*
X73700Y-28900D01*
X68400Y-25500D02*
X66000Y-25500D01*
X49200Y-25500D02*
X49200Y-27700D01*
X73700Y-28900D02*
X74675Y-29875D01*
X61200Y-25500D02*
X61200Y-24050D01*
G54D29*
X70500Y-30600D02*
X70500Y-30100D01*
G54D28*
X64900Y-27700D02*
X64900Y-25500D01*
X72300Y-28900D02*
X72400Y-28900D01*
X64900Y-25500D02*
X65000Y-25500D01*
G54D29*
X70500Y-39900D02*
X70500Y-30600D01*
G54D27*
X72475Y-29775D02*
X72500Y-29800D01*
G54D28*
X71650Y-28250D02*
X68900Y-25500D01*
X59400Y-22250D02*
X54450Y-22250D01*
X54450Y-22250D02*
X52600Y-24100D01*
X72300Y-29600D02*
X72300Y-28900D01*
X61200Y-24050D02*
X59400Y-22250D01*
X65000Y-25500D02*
X66000Y-25500D01*
X71650Y-28250D02*
X72300Y-28900D01*
G54D27*
X74675Y-29875D02*
X74675Y-30700D01*
G54D29*
X70500Y-29400D02*
X71650Y-28250D01*
G54D28*
X61200Y-25500D02*
X64000Y-25500D01*
X65000Y-25500D02*
X64000Y-25500D01*
G54D27*
X72475Y-30700D02*
X72475Y-29775D01*
G54D28*
X52600Y-24100D02*
X52600Y-25500D01*
X68800Y-25500D02*
X68900Y-25500D01*
X72400Y-28900D02*
X73500Y-28900D01*
G54D29*
X70500Y-30100D02*
X70500Y-29400D01*
G54D28*
X68400Y-25500D02*
X68800Y-25500D01*
X49200Y-25500D02*
X52600Y-25500D01*
X64961Y-25500D02*
X65000Y-25500D01*
G54D27*
X72100Y-32300D02*
X72100Y-31700D01*
G54D28*
X73600Y-33300D02*
X74300Y-32600D01*
X73100Y-33300D02*
X72100Y-32300D01*
X73500Y-37500D02*
X73500Y-33300D01*
G54D27*
X74300Y-31700D02*
X74300Y-32300D01*
G54D28*
X74300Y-32600D02*
X74300Y-32300D01*
X73600Y-33300D02*
X73500Y-33300D01*
X73500Y-33300D02*
X73100Y-33300D01*
X50704Y-30504D02*
X64100Y-30504D01*
X65900Y-27700D02*
X65900Y-30504D01*
X65900Y-30504D02*
X65900Y-30400D01*
X50200Y-27700D02*
X50200Y-30000D01*
X50200Y-30000D02*
X50704Y-30504D01*
X64100Y-30504D02*
X65900Y-30504D01*
X65900Y-30400D02*
X65900Y-30504D01*
X65900Y-30504D02*
X66900Y-30504D01*
G54D27*
X39370Y-49770D02*
X38400Y-48800D01*
X39370Y-15354D02*
X74803Y-15354D01*
X47800Y-39400D02*
X49800Y-39400D01*
X38400Y-47860D02*
X38400Y-47600D01*
X73508Y-48642D02*
X73500Y-48634D01*
X39370Y-50787D02*
X39587Y-50787D01*
X70000Y-47900D02*
X72887Y-50787D01*
X72887Y-50787D02*
X74803Y-50787D01*
X73500Y-49484D02*
X73508Y-49492D01*
X73508Y-49492D02*
X74803Y-50787D01*
X39587Y-50787D02*
X40800Y-52000D01*
X38400Y-48800D02*
X38400Y-47860D01*
X73508Y-49492D02*
X73508Y-48642D01*
X68800Y-47900D02*
X70000Y-47900D01*
X38400Y-47450D02*
X38400Y-16324D01*
X39370Y-50787D02*
X39370Y-49770D01*
X38400Y-47496D02*
X38400Y-47600D01*
X38400Y-47600D02*
X38400Y-47450D01*
X49800Y-39400D02*
X54319Y-39400D01*
X73590Y-52000D02*
X74803Y-50787D01*
X40354Y-47496D02*
X38400Y-47496D01*
X40800Y-52000D02*
X73590Y-52000D01*
X38400Y-16324D02*
X39370Y-15354D01*
X54319Y-39400D02*
X54425Y-39294D01*
G54D28*
X67904Y-44500D02*
X66900Y-43496D01*
G54D27*
X73500Y-47966D02*
X73500Y-44500D01*
G54D28*
X73500Y-44500D02*
X67904Y-44500D01*
G54D29*
X73474Y-44474D02*
X73500Y-44500D01*
G54D28*
X66900Y-43496D02*
X64100Y-43496D01*
G54D29*
X73474Y-40900D02*
X73474Y-44474D01*
G54D27*
X73500Y-40926D02*
X73474Y-40900D01*
X43700Y-37200D02*
X43900Y-37400D01*
X39200Y-37200D02*
X43700Y-37200D01*
X54206Y-37500D02*
X56000Y-39294D01*
X47800Y-37500D02*
X54206Y-37500D01*
X43800Y-33600D02*
X43800Y-32200D01*
X47300Y-34600D02*
X47900Y-34600D01*
X46400Y-33700D02*
X47300Y-34600D01*
X46400Y-31800D02*
X46200Y-31600D01*
X48000Y-35900D02*
X48000Y-35300D01*
X46400Y-33700D02*
X46400Y-31800D01*
X48000Y-34700D02*
X48000Y-35300D01*
X47900Y-34600D02*
X48000Y-34700D01*
G54D29*
X71300Y-40900D02*
X71600Y-40900D01*
X71725Y-30925D02*
X71900Y-31100D01*
X71725Y-30700D02*
X71725Y-30925D01*
X73825Y-30600D02*
X73925Y-30700D01*
X71100Y-30700D02*
X70700Y-31100D01*
X72900Y-31000D02*
X72900Y-30800D01*
X73100Y-30600D02*
X73825Y-30600D01*
X71725Y-30700D02*
X71100Y-30700D01*
X70700Y-39400D02*
X71300Y-40000D01*
X71600Y-40900D02*
X72726Y-40900D01*
X70700Y-31100D02*
X70700Y-39400D01*
X72800Y-31100D02*
X72900Y-31000D01*
X71300Y-40000D02*
X71300Y-40900D01*
X72900Y-30800D02*
X73100Y-30600D01*
X70875Y-40900D02*
X71300Y-40900D01*
X71900Y-31100D02*
X72800Y-31100D01*
G54D10*
G36*
X76560Y-29448D02*
X76547Y-29588D01*
X76506Y-29722D01*
X76441Y-29845D01*
X76352Y-29952D01*
X76245Y-30041D01*
X76122Y-30106D01*
X75988Y-30147D01*
X75848Y-30160D01*
X75236Y-30160D01*
X75236Y-24883D01*
X75145Y-24421D01*
X74965Y-23986D01*
X74705Y-23594D01*
X74373Y-23259D01*
X73983Y-22996D01*
X73549Y-22814D01*
X73088Y-22719D01*
X72617Y-22715D01*
X72154Y-22804D01*
X71718Y-22980D01*
X71324Y-23238D01*
X70987Y-23567D01*
X70721Y-23955D01*
X70536Y-24388D01*
X70438Y-24849D01*
X70431Y-25319D01*
X70516Y-25783D01*
X70689Y-26220D01*
X70944Y-26616D01*
X71271Y-26955D01*
X71658Y-27224D01*
X72089Y-27412D01*
X72549Y-27513D01*
X73020Y-27523D01*
X73483Y-27442D01*
X73922Y-27272D01*
X74320Y-27019D01*
X74661Y-26695D01*
X74932Y-26310D01*
X75124Y-25880D01*
X75228Y-25421D01*
X75236Y-24883D01*
X75236Y-30160D01*
X69952Y-30160D01*
X69812Y-30147D01*
X69678Y-30106D01*
X69555Y-30041D01*
X69448Y-29952D01*
X69359Y-29845D01*
X69294Y-29722D01*
X69253Y-29588D01*
X69240Y-29448D01*
X69240Y-28848D01*
X69225Y-28696D01*
X69180Y-28548D01*
X69107Y-28411D01*
X69008Y-28292D01*
X68889Y-28193D01*
X68752Y-28120D01*
X68604Y-28075D01*
X68452Y-28060D01*
X68252Y-28060D01*
X68112Y-28047D01*
X67978Y-28006D01*
X67855Y-27941D01*
X67748Y-27852D01*
X67659Y-27745D01*
X67594Y-27622D01*
X67553Y-27488D01*
X67540Y-27348D01*
X67540Y-27148D01*
X67525Y-26996D01*
X67480Y-26848D01*
X67407Y-26711D01*
X67308Y-26592D01*
X67189Y-26493D01*
X67052Y-26420D01*
X66904Y-26375D01*
X66752Y-26360D01*
X63148Y-26360D01*
X62996Y-26375D01*
X62848Y-26420D01*
X62711Y-26493D01*
X62592Y-26592D01*
X62493Y-26711D01*
X62420Y-26848D01*
X62375Y-26996D01*
X62360Y-27148D01*
X62360Y-27548D01*
X62347Y-27688D01*
X62306Y-27822D01*
X62241Y-27945D01*
X62152Y-28052D01*
X62045Y-28141D01*
X61922Y-28206D01*
X61788Y-28247D01*
X61648Y-28260D01*
X59488Y-28260D01*
X59488Y-24883D01*
X59397Y-24421D01*
X59217Y-23986D01*
X58957Y-23594D01*
X58625Y-23259D01*
X58235Y-22996D01*
X57801Y-22814D01*
X57340Y-22719D01*
X56869Y-22715D01*
X56406Y-22804D01*
X55970Y-22980D01*
X55576Y-23238D01*
X55239Y-23567D01*
X54973Y-23955D01*
X54788Y-24388D01*
X54690Y-24849D01*
X54683Y-25319D01*
X54768Y-25783D01*
X54941Y-26220D01*
X55196Y-26616D01*
X55523Y-26955D01*
X55910Y-27224D01*
X56341Y-27412D01*
X56801Y-27513D01*
X57272Y-27523D01*
X57735Y-27442D01*
X58174Y-27272D01*
X58572Y-27019D01*
X58913Y-26695D01*
X59184Y-26310D01*
X59376Y-25880D01*
X59480Y-25421D01*
X59488Y-24883D01*
X59488Y-28260D01*
X52352Y-28260D01*
X52212Y-28247D01*
X52078Y-28206D01*
X51955Y-28141D01*
X51848Y-28052D01*
X51759Y-27945D01*
X51694Y-27822D01*
X51653Y-27688D01*
X51640Y-27548D01*
X51640Y-27148D01*
X51625Y-26996D01*
X51580Y-26848D01*
X51507Y-26711D01*
X51408Y-26592D01*
X51289Y-26493D01*
X51152Y-26420D01*
X51004Y-26375D01*
X50852Y-26360D01*
X48052Y-26360D01*
X47912Y-26347D01*
X47778Y-26306D01*
X47655Y-26241D01*
X47548Y-26152D01*
X47459Y-26045D01*
X47394Y-25922D01*
X47353Y-25788D01*
X47340Y-25648D01*
X47340Y-20852D01*
X47353Y-20712D01*
X47394Y-20578D01*
X47459Y-20455D01*
X47548Y-20348D01*
X47655Y-20259D01*
X47778Y-20194D01*
X47912Y-20153D01*
X48052Y-20140D01*
X75848Y-20140D01*
X75988Y-20153D01*
X76122Y-20194D01*
X76245Y-20259D01*
X76352Y-20348D01*
X76441Y-20455D01*
X76506Y-20578D01*
X76547Y-20712D01*
X76560Y-20852D01*
X76560Y-29448D01*
X76560Y-29448D01*
G37*
G54D11*
X76560Y-29448D02*
X76547Y-29588D01*
X76506Y-29722D01*
X76441Y-29845D01*
X76352Y-29952D01*
X76245Y-30041D01*
X76122Y-30106D01*
X75988Y-30147D01*
X75848Y-30160D01*
X75236Y-30160D01*
X75236Y-24883D01*
X75145Y-24421D01*
X74965Y-23986D01*
X74705Y-23594D01*
X74373Y-23259D01*
X73983Y-22996D01*
X73549Y-22814D01*
X73088Y-22719D01*
X72617Y-22715D01*
X72154Y-22804D01*
X71718Y-22980D01*
X71324Y-23238D01*
X70987Y-23567D01*
X70721Y-23955D01*
X70536Y-24388D01*
X70438Y-24849D01*
X70431Y-25319D01*
X70516Y-25783D01*
X70689Y-26220D01*
X70944Y-26616D01*
X71271Y-26955D01*
X71658Y-27224D01*
X72089Y-27412D01*
X72549Y-27513D01*
X73020Y-27523D01*
X73483Y-27442D01*
X73922Y-27272D01*
X74320Y-27019D01*
X74661Y-26695D01*
X74932Y-26310D01*
X75124Y-25880D01*
X75228Y-25421D01*
X75236Y-24883D01*
X75236Y-30160D01*
X69952Y-30160D01*
X69812Y-30147D01*
X69678Y-30106D01*
X69555Y-30041D01*
X69448Y-29952D01*
X69359Y-29845D01*
X69294Y-29722D01*
X69253Y-29588D01*
X69240Y-29448D01*
X69240Y-28848D01*
X69225Y-28696D01*
X69180Y-28548D01*
X69107Y-28411D01*
X69008Y-28292D01*
X68889Y-28193D01*
X68752Y-28120D01*
X68604Y-28075D01*
X68452Y-28060D01*
X68252Y-28060D01*
X68112Y-28047D01*
X67978Y-28006D01*
X67855Y-27941D01*
X67748Y-27852D01*
X67659Y-27745D01*
X67594Y-27622D01*
X67553Y-27488D01*
X67540Y-27348D01*
X67540Y-27148D01*
X67525Y-26996D01*
X67480Y-26848D01*
X67407Y-26711D01*
X67308Y-26592D01*
X67189Y-26493D01*
X67052Y-26420D01*
X66904Y-26375D01*
X66752Y-26360D01*
X63148Y-26360D01*
X62996Y-26375D01*
X62848Y-26420D01*
X62711Y-26493D01*
X62592Y-26592D01*
X62493Y-26711D01*
X62420Y-26848D01*
X62375Y-26996D01*
X62360Y-27148D01*
X62360Y-27548D01*
X62347Y-27688D01*
X62306Y-27822D01*
X62241Y-27945D01*
X62152Y-28052D01*
X62045Y-28141D01*
X61922Y-28206D01*
X61788Y-28247D01*
X61648Y-28260D01*
X59488Y-28260D01*
X59488Y-24883D01*
X59397Y-24421D01*
X59217Y-23986D01*
X58957Y-23594D01*
X58625Y-23259D01*
X58235Y-22996D01*
X57801Y-22814D01*
X57340Y-22719D01*
X56869Y-22715D01*
X56406Y-22804D01*
X55970Y-22980D01*
X55576Y-23238D01*
X55239Y-23567D01*
X54973Y-23955D01*
X54788Y-24388D01*
X54690Y-24849D01*
X54683Y-25319D01*
X54768Y-25783D01*
X54941Y-26220D01*
X55196Y-26616D01*
X55523Y-26955D01*
X55910Y-27224D01*
X56341Y-27412D01*
X56801Y-27513D01*
X57272Y-27523D01*
X57735Y-27442D01*
X58174Y-27272D01*
X58572Y-27019D01*
X58913Y-26695D01*
X59184Y-26310D01*
X59376Y-25880D01*
X59480Y-25421D01*
X59488Y-24883D01*
X59488Y-28260D01*
X52352Y-28260D01*
X52212Y-28247D01*
X52078Y-28206D01*
X51955Y-28141D01*
X51848Y-28052D01*
X51759Y-27945D01*
X51694Y-27822D01*
X51653Y-27688D01*
X51640Y-27548D01*
X51640Y-27148D01*
X51625Y-26996D01*
X51580Y-26848D01*
X51507Y-26711D01*
X51408Y-26592D01*
X51289Y-26493D01*
X51152Y-26420D01*
X51004Y-26375D01*
X50852Y-26360D01*
X48052Y-26360D01*
X47912Y-26347D01*
X47778Y-26306D01*
X47655Y-26241D01*
X47548Y-26152D01*
X47459Y-26045D01*
X47394Y-25922D01*
X47353Y-25788D01*
X47340Y-25648D01*
X47340Y-20852D01*
X47353Y-20712D01*
X47394Y-20578D01*
X47459Y-20455D01*
X47548Y-20348D01*
X47655Y-20259D01*
X47778Y-20194D01*
X47912Y-20153D01*
X48052Y-20140D01*
X75848Y-20140D01*
X75988Y-20153D01*
X76122Y-20194D01*
X76245Y-20259D01*
X76352Y-20348D01*
X76441Y-20455D01*
X76506Y-20578D01*
X76547Y-20712D01*
X76560Y-20852D01*
X76560Y-29448D01*
G54D10*
G36*
X75360Y-36948D02*
X75347Y-37088D01*
X75306Y-37222D01*
X75241Y-37345D01*
X75152Y-37452D01*
X75045Y-37541D01*
X74922Y-37606D01*
X74788Y-37647D01*
X74648Y-37660D01*
X72052Y-37660D01*
X71912Y-37647D01*
X71778Y-37606D01*
X71655Y-37541D01*
X71548Y-37452D01*
X71459Y-37345D01*
X71394Y-37222D01*
X71353Y-37088D01*
X71340Y-36948D01*
X71340Y-32752D01*
X71353Y-32612D01*
X71394Y-32478D01*
X71459Y-32355D01*
X71548Y-32248D01*
X71655Y-32159D01*
X71778Y-32094D01*
X71912Y-32053D01*
X72052Y-32040D01*
X74648Y-32040D01*
X74788Y-32053D01*
X74922Y-32094D01*
X75045Y-32159D01*
X75152Y-32248D01*
X75241Y-32355D01*
X75306Y-32478D01*
X75347Y-32612D01*
X75360Y-32752D01*
X75360Y-36948D01*
X75360Y-36948D01*
G37*
G54D11*
X75360Y-36948D02*
X75347Y-37088D01*
X75306Y-37222D01*
X75241Y-37345D01*
X75152Y-37452D01*
X75045Y-37541D01*
X74922Y-37606D01*
X74788Y-37647D01*
X74648Y-37660D01*
X72052Y-37660D01*
X71912Y-37647D01*
X71778Y-37606D01*
X71655Y-37541D01*
X71548Y-37452D01*
X71459Y-37345D01*
X71394Y-37222D01*
X71353Y-37088D01*
X71340Y-36948D01*
X71340Y-32752D01*
X71353Y-32612D01*
X71394Y-32478D01*
X71459Y-32355D01*
X71548Y-32248D01*
X71655Y-32159D01*
X71778Y-32094D01*
X71912Y-32053D01*
X72052Y-32040D01*
X74648Y-32040D01*
X74788Y-32053D01*
X74922Y-32094D01*
X75045Y-32159D01*
X75152Y-32248D01*
X75241Y-32355D01*
X75306Y-32478D01*
X75347Y-32612D01*
X75360Y-32752D01*
X75360Y-36948D01*
G54D10*
G36*
X68560Y-32448D02*
X68547Y-32588D01*
X68506Y-32722D01*
X68441Y-32845D01*
X68352Y-32952D01*
X68245Y-33041D01*
X68122Y-33106D01*
X67988Y-33147D01*
X67848Y-33160D01*
X48052Y-33160D01*
X47912Y-33147D01*
X47778Y-33106D01*
X47655Y-33041D01*
X47548Y-32952D01*
X47459Y-32845D01*
X47394Y-32722D01*
X47353Y-32588D01*
X47340Y-32448D01*
X47340Y-29352D01*
X47353Y-29212D01*
X47394Y-29078D01*
X47459Y-28955D01*
X47548Y-28848D01*
X47655Y-28759D01*
X47778Y-28694D01*
X47912Y-28653D01*
X48052Y-28640D01*
X50698Y-28640D01*
X50731Y-28643D01*
X50761Y-28652D01*
X50788Y-28667D01*
X50813Y-28687D01*
X50833Y-28712D01*
X50848Y-28739D01*
X50857Y-28769D01*
X50865Y-28847D01*
X50878Y-28893D01*
X50901Y-28934D01*
X50931Y-28969D01*
X50966Y-28999D01*
X51007Y-29022D01*
X51053Y-29035D01*
X51098Y-29040D01*
X62952Y-29040D01*
X62987Y-29036D01*
X63022Y-29026D01*
X63055Y-29008D01*
X63084Y-28984D01*
X63108Y-28955D01*
X63126Y-28922D01*
X63136Y-28887D01*
X63142Y-28829D01*
X63148Y-28808D01*
X63158Y-28789D01*
X63172Y-28772D01*
X63189Y-28758D01*
X63208Y-28748D01*
X63229Y-28742D01*
X63252Y-28740D01*
X67848Y-28740D01*
X67988Y-28753D01*
X68122Y-28794D01*
X68245Y-28859D01*
X68352Y-28948D01*
X68441Y-29055D01*
X68506Y-29178D01*
X68547Y-29312D01*
X68560Y-29452D01*
X68560Y-32448D01*
X68560Y-32448D01*
G37*
G54D11*
X68560Y-32448D02*
X68547Y-32588D01*
X68506Y-32722D01*
X68441Y-32845D01*
X68352Y-32952D01*
X68245Y-33041D01*
X68122Y-33106D01*
X67988Y-33147D01*
X67848Y-33160D01*
X48052Y-33160D01*
X47912Y-33147D01*
X47778Y-33106D01*
X47655Y-33041D01*
X47548Y-32952D01*
X47459Y-32845D01*
X47394Y-32722D01*
X47353Y-32588D01*
X47340Y-32448D01*
X47340Y-29352D01*
X47353Y-29212D01*
X47394Y-29078D01*
X47459Y-28955D01*
X47548Y-28848D01*
X47655Y-28759D01*
X47778Y-28694D01*
X47912Y-28653D01*
X48052Y-28640D01*
X50698Y-28640D01*
X50731Y-28643D01*
X50761Y-28652D01*
X50788Y-28667D01*
X50813Y-28687D01*
X50833Y-28712D01*
X50848Y-28739D01*
X50857Y-28769D01*
X50865Y-28847D01*
X50878Y-28893D01*
X50901Y-28934D01*
X50931Y-28969D01*
X50966Y-28999D01*
X51007Y-29022D01*
X51053Y-29035D01*
X51098Y-29040D01*
X62952Y-29040D01*
X62987Y-29036D01*
X63022Y-29026D01*
X63055Y-29008D01*
X63084Y-28984D01*
X63108Y-28955D01*
X63126Y-28922D01*
X63136Y-28887D01*
X63142Y-28829D01*
X63148Y-28808D01*
X63158Y-28789D01*
X63172Y-28772D01*
X63189Y-28758D01*
X63208Y-28748D01*
X63229Y-28742D01*
X63252Y-28740D01*
X67848Y-28740D01*
X67988Y-28753D01*
X68122Y-28794D01*
X68245Y-28859D01*
X68352Y-28948D01*
X68441Y-29055D01*
X68506Y-29178D01*
X68547Y-29312D01*
X68560Y-29452D01*
X68560Y-32448D01*
G54D10*
G36*
X73460Y-45748D02*
X73447Y-45888D01*
X73406Y-46022D01*
X73341Y-46145D01*
X73252Y-46252D01*
X73145Y-46341D01*
X73022Y-46406D01*
X72888Y-46447D01*
X72748Y-46460D01*
X71736Y-46460D01*
X71616Y-46449D01*
X71500Y-46420D01*
X71392Y-46372D01*
X71293Y-46307D01*
X71206Y-46224D01*
X70752Y-45720D01*
X70657Y-45631D01*
X70546Y-45558D01*
X70426Y-45504D01*
X70298Y-45471D01*
X70168Y-45460D01*
X63998Y-45460D01*
X63863Y-45448D01*
X63736Y-45411D01*
X63616Y-45350D01*
X63510Y-45268D01*
X62467Y-44294D01*
X62388Y-44207D01*
X62324Y-44109D01*
X62278Y-44003D01*
X62250Y-43890D01*
X62240Y-43772D01*
X62240Y-42552D01*
X62253Y-42412D01*
X62294Y-42278D01*
X62359Y-42155D01*
X62448Y-42048D01*
X62555Y-41959D01*
X62678Y-41894D01*
X62812Y-41853D01*
X62952Y-41840D01*
X68233Y-41840D01*
X68336Y-41848D01*
X68438Y-41870D01*
X68536Y-41907D01*
X69734Y-42467D01*
X69840Y-42506D01*
X69952Y-42532D01*
X70065Y-42540D01*
X72748Y-42540D01*
X72888Y-42553D01*
X73022Y-42594D01*
X73145Y-42659D01*
X73252Y-42748D01*
X73341Y-42855D01*
X73406Y-42978D01*
X73447Y-43112D01*
X73460Y-43252D01*
X73460Y-45748D01*
X73460Y-45748D01*
G37*
G54D11*
X73460Y-45748D02*
X73447Y-45888D01*
X73406Y-46022D01*
X73341Y-46145D01*
X73252Y-46252D01*
X73145Y-46341D01*
X73022Y-46406D01*
X72888Y-46447D01*
X72748Y-46460D01*
X71736Y-46460D01*
X71616Y-46449D01*
X71500Y-46420D01*
X71392Y-46372D01*
X71293Y-46307D01*
X71206Y-46224D01*
X70752Y-45720D01*
X70657Y-45631D01*
X70546Y-45558D01*
X70426Y-45504D01*
X70298Y-45471D01*
X70168Y-45460D01*
X63998Y-45460D01*
X63863Y-45448D01*
X63736Y-45411D01*
X63616Y-45350D01*
X63510Y-45268D01*
X62467Y-44294D01*
X62388Y-44207D01*
X62324Y-44109D01*
X62278Y-44003D01*
X62250Y-43890D01*
X62240Y-43772D01*
X62240Y-42552D01*
X62253Y-42412D01*
X62294Y-42278D01*
X62359Y-42155D01*
X62448Y-42048D01*
X62555Y-41959D01*
X62678Y-41894D01*
X62812Y-41853D01*
X62952Y-41840D01*
X68233Y-41840D01*
X68336Y-41848D01*
X68438Y-41870D01*
X68536Y-41907D01*
X69734Y-42467D01*
X69840Y-42506D01*
X69952Y-42532D01*
X70065Y-42540D01*
X72748Y-42540D01*
X72888Y-42553D01*
X73022Y-42594D01*
X73145Y-42659D01*
X73252Y-42748D01*
X73341Y-42855D01*
X73406Y-42978D01*
X73447Y-43112D01*
X73460Y-43252D01*
X73460Y-45748D01*
G54D10*
G36*
X76560Y-51748D02*
X76547Y-51888D01*
X76506Y-52022D01*
X76441Y-52145D01*
X76352Y-52252D01*
X76245Y-52341D01*
X76122Y-52406D01*
X75988Y-52447D01*
X75848Y-52460D01*
X75640Y-52460D01*
X75640Y-37152D01*
X75640Y-32548D01*
X75625Y-32396D01*
X75580Y-32248D01*
X75507Y-32111D01*
X75408Y-31992D01*
X75289Y-31893D01*
X75152Y-31820D01*
X75004Y-31775D01*
X74852Y-31760D01*
X74577Y-31760D01*
X74577Y-31489D01*
X74572Y-31462D01*
X74561Y-31437D01*
X74546Y-31414D01*
X74527Y-31395D01*
X74504Y-31380D01*
X74479Y-31369D01*
X74452Y-31364D01*
X74425Y-31364D01*
X74148Y-31364D01*
X74121Y-31369D01*
X74096Y-31380D01*
X74073Y-31395D01*
X74054Y-31414D01*
X74039Y-31437D01*
X74028Y-31462D01*
X74023Y-31489D01*
X74023Y-31516D01*
X74023Y-31760D01*
X72377Y-31760D01*
X72377Y-31489D01*
X72372Y-31462D01*
X72361Y-31437D01*
X72346Y-31414D01*
X72327Y-31395D01*
X72304Y-31380D01*
X72279Y-31369D01*
X72252Y-31364D01*
X72225Y-31364D01*
X71948Y-31364D01*
X71921Y-31369D01*
X71896Y-31380D01*
X71873Y-31395D01*
X71854Y-31414D01*
X71839Y-31437D01*
X71828Y-31462D01*
X71823Y-31489D01*
X71823Y-31516D01*
X71823Y-31762D01*
X71696Y-31775D01*
X71548Y-31820D01*
X71411Y-31893D01*
X71292Y-31992D01*
X71193Y-32111D01*
X71120Y-32248D01*
X71075Y-32396D01*
X71060Y-32548D01*
X71060Y-37152D01*
X71075Y-37304D01*
X71120Y-37452D01*
X71193Y-37589D01*
X71292Y-37708D01*
X71411Y-37807D01*
X71413Y-37808D01*
X71464Y-38084D01*
X71616Y-38468D01*
X71840Y-38816D01*
X72127Y-39113D01*
X72467Y-39349D01*
X72846Y-39515D01*
X73250Y-39603D01*
X73663Y-39612D01*
X74070Y-39540D01*
X74455Y-39390D01*
X74804Y-39169D01*
X75104Y-38884D01*
X75342Y-38546D01*
X75510Y-38168D01*
X75601Y-37765D01*
X75606Y-37363D01*
X75625Y-37304D01*
X75640Y-37152D01*
X75640Y-52460D01*
X73740Y-52460D01*
X71634Y-52460D01*
X65508Y-52460D01*
X65508Y-47693D01*
X65428Y-47287D01*
X65270Y-46905D01*
X65041Y-46561D01*
X64750Y-46268D01*
X64407Y-46037D01*
X64026Y-45876D01*
X63621Y-45793D01*
X63208Y-45791D01*
X62802Y-45868D01*
X62418Y-46023D01*
X62103Y-46229D01*
X61565Y-45690D01*
X61565Y-40800D01*
X61562Y-40771D01*
X61561Y-40751D01*
X61560Y-40749D01*
X61546Y-40701D01*
X61545Y-40699D01*
X61522Y-40655D01*
X61521Y-40653D01*
X61501Y-40629D01*
X61490Y-40615D01*
X61488Y-40613D01*
X61487Y-40612D01*
X57789Y-36915D01*
X57787Y-36913D01*
X57777Y-36904D01*
X57750Y-36881D01*
X57748Y-36880D01*
X57704Y-36856D01*
X57703Y-36855D01*
X57702Y-36855D01*
X57655Y-36841D01*
X57652Y-36840D01*
X57619Y-36836D01*
X57604Y-36835D01*
X57601Y-36835D01*
X57600Y-36835D01*
X56004Y-36835D01*
X56000Y-36835D01*
X54809Y-36835D01*
X54389Y-36415D01*
X54387Y-36413D01*
X54377Y-36404D01*
X54350Y-36381D01*
X54348Y-36380D01*
X54304Y-36356D01*
X54303Y-36355D01*
X54302Y-36355D01*
X54255Y-36341D01*
X54252Y-36340D01*
X54219Y-36336D01*
X54204Y-36335D01*
X54201Y-36335D01*
X54200Y-36335D01*
X48314Y-36335D01*
X48314Y-35869D01*
X48302Y-35809D01*
X48278Y-35752D01*
X48265Y-35732D01*
X48265Y-35304D01*
X48265Y-35300D01*
X48265Y-34700D01*
X48262Y-34670D01*
X48261Y-34651D01*
X48260Y-34649D01*
X48246Y-34601D01*
X48245Y-34599D01*
X48222Y-34555D01*
X48221Y-34553D01*
X48201Y-34529D01*
X48190Y-34515D01*
X48188Y-34513D01*
X48187Y-34512D01*
X48089Y-34415D01*
X48087Y-34413D01*
X48077Y-34404D01*
X48050Y-34381D01*
X48048Y-34380D01*
X48004Y-34356D01*
X48003Y-34355D01*
X48002Y-34355D01*
X47955Y-34341D01*
X47952Y-34340D01*
X47919Y-34336D01*
X47904Y-34335D01*
X47901Y-34335D01*
X47900Y-34335D01*
X47409Y-34335D01*
X46665Y-33590D01*
X46665Y-31800D01*
X46660Y-31751D01*
X46660Y-31749D01*
X46645Y-31700D01*
X46645Y-31699D01*
X46621Y-31653D01*
X46595Y-31622D01*
X46590Y-31615D01*
X46588Y-31613D01*
X46587Y-31612D01*
X46506Y-31532D01*
X46502Y-31509D01*
X46478Y-31452D01*
X46444Y-31400D01*
X46401Y-31357D01*
X46350Y-31322D01*
X46293Y-31299D01*
X46233Y-31286D01*
X46171Y-31286D01*
X46111Y-31297D01*
X46054Y-31320D01*
X46002Y-31354D01*
X45958Y-31397D01*
X45923Y-31448D01*
X45899Y-31505D01*
X45886Y-31565D01*
X45886Y-31627D01*
X45897Y-31687D01*
X45919Y-31744D01*
X45953Y-31796D01*
X45996Y-31840D01*
X46046Y-31876D01*
X46103Y-31900D01*
X46131Y-31906D01*
X46135Y-31909D01*
X46135Y-33700D01*
X46137Y-33729D01*
X46139Y-33749D01*
X46154Y-33799D01*
X46154Y-33800D01*
X46155Y-33801D01*
X46179Y-33847D01*
X46203Y-33877D01*
X46210Y-33885D01*
X46212Y-33887D01*
X46213Y-33887D01*
X46217Y-33891D01*
X47111Y-34785D01*
X47112Y-34787D01*
X47127Y-34799D01*
X47150Y-34819D01*
X47196Y-34844D01*
X47198Y-34844D01*
X47228Y-34853D01*
X47245Y-34859D01*
X47247Y-34860D01*
X47282Y-34863D01*
X47296Y-34865D01*
X47299Y-34865D01*
X47300Y-34865D01*
X47735Y-34865D01*
X47735Y-35296D01*
X47735Y-35300D01*
X47735Y-35730D01*
X47723Y-35748D01*
X47699Y-35805D01*
X47686Y-35865D01*
X47686Y-35927D01*
X47697Y-35987D01*
X47719Y-36044D01*
X47753Y-36096D01*
X47796Y-36140D01*
X47846Y-36176D01*
X47903Y-36200D01*
X47963Y-36213D01*
X48024Y-36215D01*
X48085Y-36204D01*
X48142Y-36182D01*
X48194Y-36149D01*
X48239Y-36106D01*
X48274Y-36056D01*
X48299Y-35999D01*
X48313Y-35939D01*
X48314Y-35869D01*
X48314Y-36335D01*
X47800Y-36335D01*
X47770Y-36337D01*
X47751Y-36339D01*
X47701Y-36354D01*
X47699Y-36354D01*
X47699Y-36355D01*
X47653Y-36379D01*
X47622Y-36403D01*
X47615Y-36410D01*
X47613Y-36412D01*
X47612Y-36413D01*
X46613Y-37413D01*
X46604Y-37423D01*
X46581Y-37450D01*
X46556Y-37496D01*
X46555Y-37496D01*
X46555Y-37498D01*
X46540Y-37548D01*
X46536Y-37581D01*
X46535Y-37596D01*
X46535Y-37599D01*
X46535Y-37600D01*
X46535Y-38490D01*
X46390Y-38635D01*
X45868Y-38635D01*
X45850Y-38622D01*
X45793Y-38599D01*
X45733Y-38586D01*
X45671Y-38586D01*
X45611Y-38597D01*
X45554Y-38620D01*
X45531Y-38635D01*
X44509Y-38635D01*
X44214Y-38340D01*
X44214Y-37369D01*
X44202Y-37309D01*
X44178Y-37252D01*
X44144Y-37200D01*
X44114Y-37170D01*
X44114Y-33569D01*
X44102Y-33509D01*
X44078Y-33452D01*
X44065Y-33432D01*
X44065Y-32368D01*
X44074Y-32356D01*
X44099Y-32299D01*
X44113Y-32239D01*
X44114Y-32169D01*
X44102Y-32109D01*
X44078Y-32052D01*
X44044Y-32000D01*
X44001Y-31957D01*
X43950Y-31922D01*
X43893Y-31899D01*
X43833Y-31886D01*
X43771Y-31886D01*
X43740Y-31891D01*
X43740Y-24883D01*
X43649Y-24421D01*
X43469Y-23986D01*
X43209Y-23594D01*
X42877Y-23259D01*
X42487Y-22996D01*
X42053Y-22814D01*
X41592Y-22719D01*
X41121Y-22715D01*
X40658Y-22804D01*
X40222Y-22980D01*
X39828Y-23238D01*
X39491Y-23567D01*
X39225Y-23955D01*
X39040Y-24388D01*
X38942Y-24849D01*
X38935Y-25319D01*
X39020Y-25783D01*
X39193Y-26220D01*
X39448Y-26616D01*
X39775Y-26955D01*
X40162Y-27224D01*
X40593Y-27412D01*
X41053Y-27513D01*
X41524Y-27523D01*
X41987Y-27442D01*
X42426Y-27272D01*
X42824Y-27019D01*
X43165Y-26695D01*
X43436Y-26310D01*
X43628Y-25880D01*
X43732Y-25421D01*
X43740Y-24883D01*
X43740Y-31891D01*
X43711Y-31897D01*
X43654Y-31920D01*
X43602Y-31954D01*
X43558Y-31997D01*
X43523Y-32048D01*
X43499Y-32105D01*
X43486Y-32165D01*
X43486Y-32227D01*
X43497Y-32287D01*
X43519Y-32344D01*
X43535Y-32368D01*
X43535Y-33430D01*
X43523Y-33448D01*
X43499Y-33505D01*
X43486Y-33565D01*
X43486Y-33627D01*
X43497Y-33687D01*
X43519Y-33744D01*
X43553Y-33796D01*
X43596Y-33840D01*
X43646Y-33876D01*
X43703Y-33900D01*
X43763Y-33913D01*
X43824Y-33915D01*
X43885Y-33904D01*
X43942Y-33882D01*
X43994Y-33849D01*
X44039Y-33806D01*
X44074Y-33756D01*
X44099Y-33699D01*
X44113Y-33639D01*
X44114Y-33569D01*
X44114Y-37170D01*
X44101Y-37157D01*
X44050Y-37122D01*
X43993Y-37099D01*
X43967Y-37093D01*
X43889Y-37015D01*
X43887Y-37013D01*
X43877Y-37004D01*
X43850Y-36981D01*
X43848Y-36980D01*
X43804Y-36956D01*
X43803Y-36955D01*
X43802Y-36955D01*
X43755Y-36941D01*
X43752Y-36940D01*
X43719Y-36936D01*
X43704Y-36935D01*
X43701Y-36935D01*
X43700Y-36935D01*
X39443Y-36935D01*
X39430Y-36922D01*
X39372Y-36883D01*
X39307Y-36855D01*
X39238Y-36841D01*
X39168Y-36841D01*
X39098Y-36854D01*
X39033Y-36880D01*
X38974Y-36919D01*
X38924Y-36968D01*
X38884Y-37026D01*
X38856Y-37091D01*
X38842Y-37160D01*
X38841Y-37230D01*
X38853Y-37299D01*
X38879Y-37365D01*
X38917Y-37424D01*
X38966Y-37475D01*
X39024Y-37515D01*
X39088Y-37543D01*
X39157Y-37558D01*
X39227Y-37560D01*
X39297Y-37547D01*
X39362Y-37522D01*
X39422Y-37484D01*
X39442Y-37465D01*
X43590Y-37465D01*
X43593Y-37467D01*
X43597Y-37487D01*
X43619Y-37544D01*
X43653Y-37596D01*
X43696Y-37640D01*
X43746Y-37676D01*
X43803Y-37700D01*
X43863Y-37713D01*
X43924Y-37715D01*
X43985Y-37704D01*
X44042Y-37682D01*
X44094Y-37649D01*
X44139Y-37606D01*
X44174Y-37556D01*
X44199Y-37499D01*
X44213Y-37439D01*
X44214Y-37369D01*
X44214Y-38340D01*
X43889Y-38015D01*
X43887Y-38013D01*
X43877Y-38004D01*
X43850Y-37981D01*
X43848Y-37980D01*
X43804Y-37956D01*
X43803Y-37955D01*
X43802Y-37955D01*
X43755Y-37941D01*
X43752Y-37940D01*
X43719Y-37936D01*
X43704Y-37935D01*
X43701Y-37935D01*
X43700Y-37935D01*
X40443Y-37935D01*
X40430Y-37922D01*
X40372Y-37883D01*
X40307Y-37855D01*
X40238Y-37841D01*
X40168Y-37841D01*
X40098Y-37854D01*
X40033Y-37880D01*
X39974Y-37919D01*
X39924Y-37968D01*
X39884Y-38026D01*
X39856Y-38091D01*
X39842Y-38160D01*
X39841Y-38230D01*
X39853Y-38299D01*
X39879Y-38365D01*
X39917Y-38424D01*
X39966Y-38475D01*
X40024Y-38515D01*
X40088Y-38543D01*
X40157Y-38558D01*
X40227Y-38560D01*
X40297Y-38547D01*
X40362Y-38522D01*
X40422Y-38484D01*
X40442Y-38465D01*
X43590Y-38465D01*
X44211Y-39085D01*
X44212Y-39087D01*
X44227Y-39099D01*
X44250Y-39119D01*
X44296Y-39144D01*
X44298Y-39144D01*
X44328Y-39153D01*
X44345Y-39159D01*
X44347Y-39160D01*
X44365Y-39161D01*
X44396Y-39165D01*
X44400Y-39165D01*
X45530Y-39165D01*
X45546Y-39176D01*
X45603Y-39200D01*
X45663Y-39213D01*
X45724Y-39215D01*
X45785Y-39204D01*
X45842Y-39182D01*
X45868Y-39165D01*
X46500Y-39165D01*
X46529Y-39162D01*
X46549Y-39161D01*
X46551Y-39160D01*
X46599Y-39146D01*
X46600Y-39145D01*
X46601Y-39145D01*
X46644Y-39122D01*
X46647Y-39121D01*
X46677Y-39096D01*
X46685Y-39090D01*
X46685Y-39089D01*
X46687Y-39088D01*
X46687Y-39087D01*
X46691Y-39082D01*
X46985Y-38789D01*
X46987Y-38788D01*
X47006Y-38763D01*
X47019Y-38750D01*
X47020Y-38748D01*
X47044Y-38704D01*
X47044Y-38702D01*
X47053Y-38672D01*
X47059Y-38655D01*
X47060Y-38653D01*
X47063Y-38617D01*
X47065Y-38604D01*
X47065Y-38601D01*
X47065Y-38600D01*
X47065Y-37709D01*
X47909Y-36865D01*
X54091Y-36865D01*
X54511Y-37285D01*
X54513Y-37287D01*
X54523Y-37295D01*
X54550Y-37319D01*
X54552Y-37320D01*
X54596Y-37344D01*
X54598Y-37345D01*
X54645Y-37359D01*
X54648Y-37360D01*
X54681Y-37363D01*
X54696Y-37365D01*
X54699Y-37365D01*
X54700Y-37365D01*
X55996Y-37365D01*
X56000Y-37365D01*
X57490Y-37365D01*
X61035Y-40909D01*
X61035Y-45800D01*
X61037Y-45829D01*
X61039Y-45849D01*
X61054Y-45899D01*
X61054Y-45900D01*
X61055Y-45901D01*
X61079Y-45947D01*
X61103Y-45977D01*
X61110Y-45985D01*
X61112Y-45987D01*
X61113Y-45987D01*
X61117Y-45991D01*
X61731Y-46605D01*
X61544Y-46880D01*
X61381Y-47260D01*
X61295Y-47664D01*
X61289Y-48078D01*
X61364Y-48484D01*
X61516Y-48868D01*
X61740Y-49216D01*
X62027Y-49513D01*
X62367Y-49749D01*
X62746Y-49915D01*
X63150Y-50003D01*
X63563Y-50012D01*
X63970Y-49940D01*
X64355Y-49790D01*
X64704Y-49569D01*
X65004Y-49284D01*
X65242Y-48946D01*
X65410Y-48568D01*
X65501Y-48165D01*
X65508Y-47693D01*
X65508Y-52460D01*
X58502Y-52460D01*
X58502Y-44955D01*
X58407Y-44474D01*
X58220Y-44020D01*
X58207Y-44000D01*
X58207Y-39232D01*
X58183Y-39110D01*
X58136Y-38996D01*
X58067Y-38893D01*
X57980Y-38805D01*
X57877Y-38735D01*
X57763Y-38687D01*
X57641Y-38662D01*
X57517Y-38662D01*
X57396Y-38685D01*
X57281Y-38731D01*
X57177Y-38799D01*
X57089Y-38886D01*
X57019Y-38988D01*
X56970Y-39102D01*
X56944Y-39223D01*
X56942Y-39347D01*
X56965Y-39469D01*
X57010Y-39584D01*
X57077Y-39688D01*
X57163Y-39778D01*
X57265Y-39848D01*
X57379Y-39898D01*
X57500Y-39925D01*
X57624Y-39927D01*
X57746Y-39906D01*
X57861Y-39861D01*
X57966Y-39794D01*
X58056Y-39709D01*
X58127Y-39608D01*
X58178Y-39494D01*
X58205Y-39374D01*
X58207Y-39232D01*
X58207Y-44000D01*
X57948Y-43611D01*
X57603Y-43263D01*
X57196Y-42989D01*
X56744Y-42799D01*
X56632Y-42775D01*
X56632Y-39232D01*
X56608Y-39110D01*
X56561Y-38996D01*
X56492Y-38893D01*
X56405Y-38805D01*
X56302Y-38735D01*
X56188Y-38687D01*
X56066Y-38662D01*
X55942Y-38662D01*
X55821Y-38685D01*
X55781Y-38701D01*
X54395Y-37315D01*
X54393Y-37313D01*
X54383Y-37304D01*
X54356Y-37281D01*
X54354Y-37280D01*
X54310Y-37256D01*
X54309Y-37255D01*
X54308Y-37255D01*
X54261Y-37241D01*
X54258Y-37240D01*
X54225Y-37236D01*
X54210Y-37235D01*
X54207Y-37235D01*
X54206Y-37235D01*
X47968Y-37235D01*
X47950Y-37222D01*
X47893Y-37199D01*
X47833Y-37186D01*
X47771Y-37186D01*
X47711Y-37197D01*
X47654Y-37220D01*
X47602Y-37254D01*
X47558Y-37297D01*
X47523Y-37348D01*
X47499Y-37405D01*
X47486Y-37465D01*
X47486Y-37527D01*
X47497Y-37587D01*
X47519Y-37644D01*
X47553Y-37696D01*
X47596Y-37740D01*
X47646Y-37776D01*
X47703Y-37800D01*
X47763Y-37813D01*
X47824Y-37815D01*
X47885Y-37804D01*
X47942Y-37782D01*
X47968Y-37765D01*
X54097Y-37765D01*
X55406Y-39074D01*
X55395Y-39102D01*
X55369Y-39223D01*
X55367Y-39347D01*
X55390Y-39469D01*
X55435Y-39584D01*
X55502Y-39688D01*
X55588Y-39778D01*
X55690Y-39848D01*
X55804Y-39898D01*
X55925Y-39925D01*
X56049Y-39927D01*
X56171Y-39906D01*
X56286Y-39861D01*
X56391Y-39794D01*
X56481Y-39709D01*
X56552Y-39608D01*
X56603Y-39494D01*
X56630Y-39374D01*
X56632Y-39232D01*
X56632Y-42775D01*
X56263Y-42700D01*
X55772Y-42696D01*
X55291Y-42788D01*
X54836Y-42972D01*
X54425Y-43241D01*
X54074Y-43584D01*
X53797Y-43989D01*
X53604Y-44440D01*
X53502Y-44919D01*
X53495Y-45410D01*
X53583Y-45893D01*
X53764Y-46349D01*
X54030Y-46761D01*
X54370Y-47114D01*
X54773Y-47394D01*
X55223Y-47591D01*
X55702Y-47696D01*
X56193Y-47707D01*
X56676Y-47621D01*
X57133Y-47444D01*
X57547Y-47181D01*
X57903Y-46843D01*
X58186Y-46442D01*
X58385Y-45994D01*
X58494Y-45515D01*
X58502Y-44955D01*
X58502Y-52460D01*
X52339Y-52460D01*
X52339Y-40890D01*
X52296Y-40674D01*
X52212Y-40470D01*
X52090Y-40286D01*
X51935Y-40130D01*
X51752Y-40007D01*
X51549Y-39921D01*
X51333Y-39877D01*
X51113Y-39875D01*
X50896Y-39917D01*
X50692Y-39999D01*
X50507Y-40120D01*
X50350Y-40274D01*
X50225Y-40456D01*
X50139Y-40658D01*
X50093Y-40874D01*
X50090Y-41094D01*
X50129Y-41311D01*
X50210Y-41516D01*
X50330Y-41701D01*
X50483Y-41860D01*
X50664Y-41986D01*
X50866Y-42074D01*
X51081Y-42121D01*
X51301Y-42126D01*
X51519Y-42088D01*
X51724Y-42008D01*
X51910Y-41890D01*
X52070Y-41738D01*
X52197Y-41558D01*
X52287Y-41357D01*
X52335Y-41142D01*
X52339Y-40890D01*
X52339Y-52460D01*
X48738Y-52460D01*
X48738Y-50830D01*
X48738Y-50706D01*
X48715Y-50585D01*
X48669Y-50471D01*
X48601Y-50368D01*
X48515Y-50280D01*
X48413Y-50210D01*
X48300Y-50161D01*
X48179Y-50136D01*
X48056Y-50134D01*
X47645Y-50135D01*
X47524Y-50159D01*
X47410Y-50206D01*
X47307Y-50274D01*
X47220Y-50361D01*
X47151Y-50464D01*
X47103Y-50577D01*
X47078Y-50698D01*
X47078Y-50822D01*
X47101Y-50943D01*
X47147Y-51057D01*
X47215Y-51160D01*
X47301Y-51248D01*
X47403Y-51318D01*
X47516Y-51367D01*
X47637Y-51392D01*
X47760Y-51394D01*
X48171Y-51393D01*
X48292Y-51369D01*
X48406Y-51322D01*
X48509Y-51254D01*
X48596Y-51167D01*
X48665Y-51064D01*
X48713Y-50951D01*
X48738Y-50830D01*
X48738Y-52460D01*
X47850Y-52460D01*
X46965Y-52460D01*
X46965Y-50721D01*
X46948Y-50637D01*
X46916Y-50558D01*
X46869Y-50487D01*
X46808Y-50427D01*
X46738Y-50379D01*
X46659Y-50346D01*
X46575Y-50329D01*
X46490Y-50329D01*
X46406Y-50345D01*
X46327Y-50377D01*
X46256Y-50424D01*
X46195Y-50483D01*
X46147Y-50554D01*
X46113Y-50632D01*
X46096Y-50716D01*
X46094Y-50801D01*
X46110Y-50885D01*
X46141Y-50964D01*
X46188Y-51036D01*
X46247Y-51097D01*
X46317Y-51146D01*
X46395Y-51180D01*
X46479Y-51198D01*
X46564Y-51200D01*
X46648Y-51185D01*
X46727Y-51154D01*
X46799Y-51108D01*
X46861Y-51049D01*
X46910Y-50980D01*
X46945Y-50902D01*
X46964Y-50818D01*
X46965Y-50721D01*
X46965Y-52460D01*
X45705Y-52460D01*
X45705Y-50721D01*
X45688Y-50637D01*
X45656Y-50558D01*
X45609Y-50487D01*
X45548Y-50427D01*
X45478Y-50379D01*
X45399Y-50346D01*
X45315Y-50329D01*
X45230Y-50329D01*
X45146Y-50345D01*
X45067Y-50377D01*
X44996Y-50424D01*
X44935Y-50483D01*
X44887Y-50554D01*
X44853Y-50632D01*
X44836Y-50716D01*
X44834Y-50801D01*
X44850Y-50885D01*
X44881Y-50964D01*
X44928Y-51036D01*
X44987Y-51097D01*
X45057Y-51146D01*
X45135Y-51180D01*
X45219Y-51198D01*
X45304Y-51200D01*
X45388Y-51185D01*
X45467Y-51154D01*
X45539Y-51108D01*
X45601Y-51049D01*
X45650Y-50980D01*
X45685Y-50902D01*
X45704Y-50818D01*
X45705Y-50721D01*
X45705Y-52460D01*
X44722Y-52460D01*
X44722Y-50830D01*
X44722Y-50706D01*
X44699Y-50585D01*
X44653Y-50471D01*
X44585Y-50368D01*
X44499Y-50280D01*
X44397Y-50210D01*
X44284Y-50161D01*
X44163Y-50136D01*
X44040Y-50134D01*
X43629Y-50135D01*
X43508Y-50159D01*
X43394Y-50206D01*
X43291Y-50274D01*
X43204Y-50361D01*
X43135Y-50464D01*
X43087Y-50577D01*
X43062Y-50698D01*
X43062Y-50822D01*
X43085Y-50943D01*
X43131Y-51057D01*
X43199Y-51160D01*
X43285Y-51248D01*
X43387Y-51318D01*
X43500Y-51367D01*
X43621Y-51392D01*
X43744Y-51394D01*
X44155Y-51393D01*
X44276Y-51369D01*
X44390Y-51322D01*
X44493Y-51254D01*
X44580Y-51167D01*
X44649Y-51064D01*
X44697Y-50951D01*
X44722Y-50830D01*
X44722Y-52460D01*
X41709Y-52460D01*
X41709Y-40890D01*
X41666Y-40674D01*
X41582Y-40470D01*
X41460Y-40286D01*
X41305Y-40130D01*
X41122Y-40007D01*
X40919Y-39921D01*
X40703Y-39877D01*
X40483Y-39875D01*
X40266Y-39917D01*
X40062Y-39999D01*
X39877Y-40120D01*
X39720Y-40274D01*
X39595Y-40456D01*
X39509Y-40658D01*
X39463Y-40874D01*
X39460Y-41094D01*
X39499Y-41311D01*
X39580Y-41516D01*
X39700Y-41701D01*
X39853Y-41860D01*
X40034Y-41986D01*
X40236Y-42074D01*
X40451Y-42121D01*
X40671Y-42126D01*
X40889Y-42088D01*
X41094Y-42008D01*
X41280Y-41890D01*
X41440Y-41738D01*
X41567Y-41558D01*
X41657Y-41357D01*
X41705Y-41142D01*
X41709Y-40890D01*
X41709Y-52460D01*
X40789Y-52460D01*
X40789Y-46453D01*
X40789Y-45453D01*
X40772Y-45369D01*
X40740Y-45290D01*
X40693Y-45219D01*
X40632Y-45159D01*
X40562Y-45111D01*
X40483Y-45078D01*
X40399Y-45061D01*
X40314Y-45061D01*
X40230Y-45077D01*
X40151Y-45109D01*
X40080Y-45156D01*
X40019Y-45215D01*
X39971Y-45286D01*
X39937Y-45364D01*
X39920Y-45448D01*
X39918Y-45533D01*
X39934Y-45617D01*
X39965Y-45696D01*
X40012Y-45768D01*
X40071Y-45829D01*
X40141Y-45878D01*
X40219Y-45912D01*
X40303Y-45930D01*
X40388Y-45932D01*
X40472Y-45917D01*
X40551Y-45886D01*
X40623Y-45840D01*
X40685Y-45781D01*
X40734Y-45712D01*
X40769Y-45634D01*
X40788Y-45550D01*
X40789Y-45453D01*
X40789Y-46453D01*
X40772Y-46369D01*
X40740Y-46290D01*
X40693Y-46219D01*
X40632Y-46159D01*
X40562Y-46111D01*
X40483Y-46078D01*
X40399Y-46061D01*
X40314Y-46061D01*
X40230Y-46077D01*
X40151Y-46109D01*
X40080Y-46156D01*
X40019Y-46215D01*
X39971Y-46286D01*
X39937Y-46364D01*
X39920Y-46448D01*
X39918Y-46533D01*
X39934Y-46617D01*
X39965Y-46696D01*
X40012Y-46768D01*
X40071Y-46829D01*
X40141Y-46878D01*
X40219Y-46912D01*
X40303Y-46930D01*
X40388Y-46932D01*
X40472Y-46917D01*
X40551Y-46886D01*
X40623Y-46840D01*
X40685Y-46781D01*
X40734Y-46712D01*
X40769Y-46634D01*
X40788Y-46550D01*
X40789Y-46453D01*
X40789Y-52460D01*
X38352Y-52460D01*
X38212Y-52447D01*
X38078Y-52406D01*
X37955Y-52341D01*
X37848Y-52252D01*
X37759Y-52145D01*
X37694Y-52022D01*
X37653Y-51888D01*
X37640Y-51748D01*
X37640Y-14352D01*
X37653Y-14212D01*
X37694Y-14078D01*
X37759Y-13955D01*
X37848Y-13848D01*
X37955Y-13759D01*
X38078Y-13694D01*
X38212Y-13653D01*
X38352Y-13640D01*
X75848Y-13640D01*
X75988Y-13653D01*
X76122Y-13694D01*
X76245Y-13759D01*
X76352Y-13848D01*
X76441Y-13955D01*
X76506Y-14078D01*
X76547Y-14212D01*
X76560Y-14352D01*
X76560Y-19148D01*
X76547Y-19288D01*
X76506Y-19422D01*
X76441Y-19545D01*
X76352Y-19652D01*
X76245Y-19741D01*
X76122Y-19806D01*
X75988Y-19847D01*
X75848Y-19860D01*
X47848Y-19860D01*
X47696Y-19875D01*
X47548Y-19920D01*
X47411Y-19993D01*
X47292Y-20092D01*
X47193Y-20211D01*
X47120Y-20348D01*
X47075Y-20496D01*
X47060Y-20648D01*
X47060Y-25852D01*
X47075Y-26004D01*
X47120Y-26152D01*
X47193Y-26289D01*
X47292Y-26408D01*
X47411Y-26507D01*
X47548Y-26580D01*
X47696Y-26625D01*
X47848Y-26640D01*
X48710Y-26640D01*
X48710Y-27700D01*
X48717Y-27779D01*
X48718Y-27996D01*
X48736Y-28089D01*
X48772Y-28176D01*
X48825Y-28255D01*
X48891Y-28322D01*
X48946Y-28360D01*
X48451Y-28360D01*
X48503Y-28327D01*
X48571Y-28260D01*
X48624Y-28183D01*
X48662Y-28096D01*
X48681Y-28003D01*
X48683Y-27909D01*
X48682Y-27404D01*
X48664Y-27311D01*
X48628Y-27224D01*
X48575Y-27145D01*
X48509Y-27078D01*
X48431Y-27025D01*
X48343Y-26988D01*
X48251Y-26969D01*
X48156Y-26969D01*
X48064Y-26986D01*
X47976Y-27022D01*
X47897Y-27073D01*
X47829Y-27140D01*
X47776Y-27217D01*
X47738Y-27304D01*
X47719Y-27397D01*
X47717Y-27491D01*
X47718Y-27996D01*
X47736Y-28089D01*
X47772Y-28176D01*
X47825Y-28255D01*
X47891Y-28322D01*
X47946Y-28360D01*
X47848Y-28360D01*
X47696Y-28375D01*
X47548Y-28420D01*
X47411Y-28493D01*
X47292Y-28592D01*
X47193Y-28711D01*
X47120Y-28848D01*
X47075Y-28996D01*
X47060Y-29148D01*
X47060Y-32652D01*
X47075Y-32804D01*
X47120Y-32952D01*
X47193Y-33089D01*
X47292Y-33208D01*
X47411Y-33307D01*
X47548Y-33380D01*
X47696Y-33425D01*
X47848Y-33440D01*
X68052Y-33440D01*
X68204Y-33425D01*
X68352Y-33380D01*
X68489Y-33307D01*
X68608Y-33208D01*
X68707Y-33089D01*
X68780Y-32952D01*
X68825Y-32804D01*
X68840Y-32652D01*
X68840Y-29248D01*
X68825Y-29096D01*
X68780Y-28948D01*
X68707Y-28811D01*
X68608Y-28692D01*
X68489Y-28593D01*
X68352Y-28520D01*
X68204Y-28475D01*
X68052Y-28460D01*
X66390Y-28460D01*
X66390Y-27700D01*
X66382Y-27620D01*
X66382Y-27404D01*
X66364Y-27311D01*
X66328Y-27224D01*
X66275Y-27145D01*
X66209Y-27078D01*
X66131Y-27025D01*
X66043Y-26988D01*
X65951Y-26969D01*
X65856Y-26969D01*
X65764Y-26986D01*
X65676Y-27022D01*
X65597Y-27073D01*
X65529Y-27140D01*
X65476Y-27217D01*
X65438Y-27304D01*
X65419Y-27397D01*
X65417Y-27491D01*
X65417Y-27630D01*
X65410Y-27693D01*
X65410Y-27700D01*
X65410Y-28460D01*
X64383Y-28460D01*
X64383Y-27909D01*
X64382Y-27404D01*
X64364Y-27311D01*
X64328Y-27224D01*
X64275Y-27145D01*
X64209Y-27078D01*
X64131Y-27025D01*
X64043Y-26988D01*
X63951Y-26969D01*
X63856Y-26969D01*
X63764Y-26986D01*
X63676Y-27022D01*
X63597Y-27073D01*
X63529Y-27140D01*
X63476Y-27217D01*
X63438Y-27304D01*
X63419Y-27397D01*
X63417Y-27491D01*
X63418Y-27996D01*
X63436Y-28089D01*
X63472Y-28176D01*
X63525Y-28255D01*
X63591Y-28322D01*
X63669Y-28375D01*
X63757Y-28412D01*
X63849Y-28431D01*
X63944Y-28431D01*
X64036Y-28414D01*
X64124Y-28378D01*
X64203Y-28327D01*
X64271Y-28260D01*
X64324Y-28183D01*
X64362Y-28096D01*
X64381Y-28003D01*
X64383Y-27909D01*
X64383Y-28460D01*
X63048Y-28460D01*
X63013Y-28464D01*
X62978Y-28474D01*
X62945Y-28492D01*
X62916Y-28516D01*
X62892Y-28545D01*
X62874Y-28578D01*
X62864Y-28613D01*
X62858Y-28671D01*
X62852Y-28692D01*
X62842Y-28711D01*
X62828Y-28728D01*
X62811Y-28742D01*
X62792Y-28752D01*
X62771Y-28758D01*
X62748Y-28760D01*
X51302Y-28760D01*
X51269Y-28757D01*
X51239Y-28748D01*
X51212Y-28733D01*
X51187Y-28713D01*
X51167Y-28688D01*
X51152Y-28661D01*
X51143Y-28631D01*
X51135Y-28553D01*
X51122Y-28507D01*
X51099Y-28466D01*
X51069Y-28431D01*
X51034Y-28401D01*
X50993Y-28378D01*
X50947Y-28365D01*
X50902Y-28360D01*
X50690Y-28360D01*
X50690Y-27700D01*
X50682Y-27620D01*
X50682Y-27404D01*
X50664Y-27311D01*
X50628Y-27224D01*
X50575Y-27145D01*
X50509Y-27078D01*
X50431Y-27025D01*
X50343Y-26988D01*
X50251Y-26969D01*
X50156Y-26969D01*
X50064Y-26986D01*
X49976Y-27022D01*
X49897Y-27073D01*
X49829Y-27140D01*
X49776Y-27217D01*
X49738Y-27304D01*
X49719Y-27397D01*
X49717Y-27491D01*
X49717Y-27630D01*
X49710Y-27693D01*
X49710Y-27700D01*
X49710Y-28360D01*
X49451Y-28360D01*
X49503Y-28327D01*
X49571Y-28260D01*
X49624Y-28183D01*
X49662Y-28096D01*
X49681Y-28003D01*
X49683Y-27909D01*
X49682Y-27769D01*
X49690Y-27707D01*
X49690Y-27700D01*
X49690Y-26640D01*
X50648Y-26640D01*
X50788Y-26653D01*
X50922Y-26694D01*
X51045Y-26759D01*
X51152Y-26848D01*
X51241Y-26955D01*
X51306Y-27078D01*
X51347Y-27212D01*
X51360Y-27352D01*
X51360Y-27752D01*
X51375Y-27904D01*
X51420Y-28052D01*
X51493Y-28189D01*
X51592Y-28308D01*
X51711Y-28407D01*
X51848Y-28480D01*
X51996Y-28525D01*
X52148Y-28540D01*
X61852Y-28540D01*
X62004Y-28525D01*
X62152Y-28480D01*
X62289Y-28407D01*
X62408Y-28308D01*
X62507Y-28189D01*
X62580Y-28052D01*
X62625Y-27904D01*
X62640Y-27752D01*
X62640Y-27352D01*
X62653Y-27212D01*
X62694Y-27078D01*
X62759Y-26955D01*
X62848Y-26848D01*
X62955Y-26759D01*
X63078Y-26694D01*
X63212Y-26653D01*
X63352Y-26640D01*
X64410Y-26640D01*
X64410Y-27700D01*
X64417Y-27779D01*
X64418Y-27996D01*
X64436Y-28089D01*
X64472Y-28176D01*
X64525Y-28255D01*
X64591Y-28322D01*
X64669Y-28375D01*
X64757Y-28412D01*
X64849Y-28431D01*
X64944Y-28431D01*
X65036Y-28414D01*
X65124Y-28378D01*
X65203Y-28327D01*
X65271Y-28260D01*
X65324Y-28183D01*
X65362Y-28096D01*
X65381Y-28003D01*
X65383Y-27909D01*
X65382Y-27769D01*
X65390Y-27707D01*
X65390Y-27700D01*
X65390Y-26640D01*
X66548Y-26640D01*
X66688Y-26653D01*
X66822Y-26694D01*
X66945Y-26759D01*
X67052Y-26848D01*
X67141Y-26955D01*
X67206Y-27078D01*
X67247Y-27212D01*
X67260Y-27352D01*
X67260Y-27552D01*
X67275Y-27704D01*
X67320Y-27852D01*
X67393Y-27989D01*
X67492Y-28108D01*
X67611Y-28207D01*
X67748Y-28280D01*
X67896Y-28325D01*
X68048Y-28340D01*
X68248Y-28340D01*
X68388Y-28353D01*
X68522Y-28394D01*
X68645Y-28459D01*
X68752Y-28548D01*
X68841Y-28655D01*
X68906Y-28778D01*
X68947Y-28912D01*
X68960Y-29052D01*
X68960Y-29652D01*
X68975Y-29804D01*
X69020Y-29952D01*
X69093Y-30089D01*
X69192Y-30208D01*
X69311Y-30307D01*
X69448Y-30380D01*
X69596Y-30425D01*
X69748Y-30440D01*
X70310Y-30440D01*
X70310Y-30597D01*
X70310Y-30600D01*
X70310Y-39573D01*
X70296Y-39580D01*
X70273Y-39595D01*
X70254Y-39614D01*
X70239Y-39637D01*
X70228Y-39662D01*
X70223Y-39689D01*
X70223Y-39716D01*
X70223Y-40111D01*
X70228Y-40138D01*
X70239Y-40163D01*
X70254Y-40186D01*
X70273Y-40205D01*
X70296Y-40220D01*
X70321Y-40231D01*
X70348Y-40236D01*
X70375Y-40236D01*
X70652Y-40236D01*
X70679Y-40231D01*
X70704Y-40220D01*
X70727Y-40205D01*
X70746Y-40186D01*
X70761Y-40163D01*
X70772Y-40138D01*
X70777Y-40111D01*
X70777Y-40084D01*
X70777Y-39745D01*
X71110Y-40078D01*
X71110Y-40603D01*
X71102Y-40595D01*
X71079Y-40580D01*
X71054Y-40569D01*
X71027Y-40564D01*
X71000Y-40564D01*
X70723Y-40564D01*
X70696Y-40569D01*
X70671Y-40580D01*
X70648Y-40595D01*
X70629Y-40614D01*
X70614Y-40637D01*
X70603Y-40662D01*
X70598Y-40689D01*
X70598Y-40716D01*
X70598Y-41111D01*
X70603Y-41138D01*
X70614Y-41163D01*
X70629Y-41186D01*
X70648Y-41205D01*
X70671Y-41220D01*
X70696Y-41231D01*
X70723Y-41236D01*
X70750Y-41236D01*
X71027Y-41236D01*
X71054Y-41231D01*
X71079Y-41220D01*
X71102Y-41205D01*
X71121Y-41186D01*
X71136Y-41163D01*
X71147Y-41138D01*
X71152Y-41111D01*
X71152Y-41090D01*
X71297Y-41090D01*
X71299Y-41090D01*
X71300Y-41090D01*
X71597Y-41090D01*
X71600Y-41090D01*
X72332Y-41090D01*
X72332Y-41209D01*
X72337Y-41236D01*
X72348Y-41261D01*
X72363Y-41284D01*
X72382Y-41303D01*
X72405Y-41318D01*
X72430Y-41329D01*
X72457Y-41334D01*
X72484Y-41334D01*
X72995Y-41334D01*
X73022Y-41329D01*
X73047Y-41318D01*
X73070Y-41303D01*
X73089Y-41284D01*
X73100Y-41267D01*
X73111Y-41284D01*
X73130Y-41303D01*
X73153Y-41318D01*
X73178Y-41329D01*
X73205Y-41334D01*
X73232Y-41334D01*
X73284Y-41334D01*
X73284Y-42337D01*
X73252Y-42320D01*
X73104Y-42275D01*
X72952Y-42260D01*
X71850Y-42260D01*
X70402Y-42260D01*
X70402Y-41111D01*
X70402Y-41084D01*
X70402Y-40689D01*
X70397Y-40662D01*
X70386Y-40637D01*
X70371Y-40614D01*
X70352Y-40595D01*
X70329Y-40580D01*
X70304Y-40569D01*
X70277Y-40564D01*
X70250Y-40564D01*
X69973Y-40564D01*
X69946Y-40569D01*
X69921Y-40580D01*
X69898Y-40595D01*
X69879Y-40614D01*
X69864Y-40637D01*
X69853Y-40662D01*
X69848Y-40689D01*
X69848Y-40716D01*
X69848Y-41111D01*
X69853Y-41138D01*
X69864Y-41163D01*
X69879Y-41186D01*
X69898Y-41205D01*
X69921Y-41220D01*
X69946Y-41231D01*
X69973Y-41236D01*
X70000Y-41236D01*
X70277Y-41236D01*
X70304Y-41231D01*
X70329Y-41220D01*
X70352Y-41205D01*
X70371Y-41186D01*
X70386Y-41163D01*
X70397Y-41138D01*
X70402Y-41111D01*
X70402Y-42260D01*
X70067Y-42260D01*
X69964Y-42252D01*
X69862Y-42230D01*
X69764Y-42193D01*
X68840Y-41761D01*
X68566Y-41633D01*
X68460Y-41594D01*
X68348Y-41568D01*
X68235Y-41560D01*
X62748Y-41560D01*
X62596Y-41575D01*
X62448Y-41620D01*
X62311Y-41693D01*
X62192Y-41792D01*
X62093Y-41911D01*
X62020Y-42048D01*
X61975Y-42196D01*
X61960Y-42348D01*
X61960Y-43877D01*
X61970Y-44004D01*
X62002Y-44129D01*
X62053Y-44247D01*
X62123Y-44355D01*
X62208Y-44450D01*
X63358Y-45527D01*
X63474Y-45617D01*
X63606Y-45684D01*
X63748Y-45726D01*
X63895Y-45740D01*
X70064Y-45740D01*
X70184Y-45751D01*
X70300Y-45780D01*
X70408Y-45828D01*
X70507Y-45893D01*
X70594Y-45976D01*
X71048Y-46480D01*
X71143Y-46569D01*
X71254Y-46642D01*
X71374Y-46696D01*
X71502Y-46729D01*
X71632Y-46740D01*
X72952Y-46740D01*
X73104Y-46725D01*
X73235Y-46685D01*
X73235Y-47639D01*
X73218Y-47647D01*
X73195Y-47662D01*
X73176Y-47681D01*
X73161Y-47704D01*
X73150Y-47729D01*
X73145Y-47756D01*
X73145Y-47783D01*
X73145Y-48176D01*
X73150Y-48203D01*
X73161Y-48228D01*
X73176Y-48251D01*
X73195Y-48270D01*
X73218Y-48285D01*
X73243Y-48296D01*
X73270Y-48301D01*
X73297Y-48301D01*
X73730Y-48301D01*
X73740Y-48299D01*
X73757Y-48296D01*
X73782Y-48285D01*
X73805Y-48270D01*
X73824Y-48251D01*
X73839Y-48228D01*
X73850Y-48203D01*
X73855Y-48176D01*
X73855Y-48149D01*
X73855Y-47756D01*
X73850Y-47729D01*
X73839Y-47704D01*
X73824Y-47681D01*
X73805Y-47662D01*
X73782Y-47647D01*
X73765Y-47639D01*
X73765Y-46593D01*
X74070Y-46540D01*
X74455Y-46390D01*
X74804Y-46169D01*
X75104Y-45884D01*
X75342Y-45546D01*
X75510Y-45168D01*
X75601Y-44765D01*
X75608Y-44293D01*
X75528Y-43887D01*
X75370Y-43505D01*
X75141Y-43161D01*
X74850Y-42868D01*
X74507Y-42637D01*
X74126Y-42476D01*
X73721Y-42393D01*
X73664Y-42392D01*
X73664Y-41334D01*
X73743Y-41334D01*
X73770Y-41329D01*
X73795Y-41318D01*
X73818Y-41303D01*
X73837Y-41284D01*
X73852Y-41261D01*
X73863Y-41236D01*
X73868Y-41209D01*
X73868Y-41182D01*
X73868Y-40591D01*
X73863Y-40564D01*
X73852Y-40539D01*
X73837Y-40516D01*
X73818Y-40497D01*
X73795Y-40482D01*
X73770Y-40471D01*
X73743Y-40466D01*
X73716Y-40466D01*
X73205Y-40466D01*
X73178Y-40471D01*
X73153Y-40482D01*
X73130Y-40497D01*
X73111Y-40516D01*
X73100Y-40532D01*
X73089Y-40516D01*
X73070Y-40497D01*
X73047Y-40482D01*
X73022Y-40471D01*
X72995Y-40466D01*
X72968Y-40466D01*
X72457Y-40466D01*
X72430Y-40471D01*
X72405Y-40482D01*
X72382Y-40497D01*
X72363Y-40516D01*
X72348Y-40539D01*
X72337Y-40564D01*
X72332Y-40591D01*
X72332Y-40618D01*
X72332Y-40710D01*
X71603Y-40710D01*
X71600Y-40710D01*
X71490Y-40710D01*
X71490Y-40002D01*
X71490Y-40000D01*
X71486Y-39964D01*
X71486Y-39963D01*
X71476Y-39929D01*
X71476Y-39928D01*
X71466Y-39911D01*
X71459Y-39896D01*
X71458Y-39895D01*
X71436Y-39867D01*
X71435Y-39866D01*
X71434Y-39865D01*
X70890Y-39321D01*
X70890Y-31178D01*
X71178Y-30890D01*
X71448Y-30890D01*
X71448Y-30911D01*
X71453Y-30938D01*
X71464Y-30963D01*
X71479Y-30986D01*
X71498Y-31005D01*
X71521Y-31020D01*
X71546Y-31031D01*
X71571Y-31035D01*
X71574Y-31040D01*
X71589Y-31057D01*
X71590Y-31059D01*
X71591Y-31059D01*
X71595Y-31063D01*
X71763Y-31232D01*
X71764Y-31233D01*
X71765Y-31234D01*
X71770Y-31237D01*
X71793Y-31257D01*
X71794Y-31257D01*
X71825Y-31275D01*
X71826Y-31275D01*
X71860Y-31286D01*
X71862Y-31286D01*
X71897Y-31290D01*
X71899Y-31290D01*
X71900Y-31290D01*
X72798Y-31290D01*
X72800Y-31290D01*
X72806Y-31289D01*
X72835Y-31287D01*
X72837Y-31286D01*
X72871Y-31277D01*
X72872Y-31276D01*
X72903Y-31260D01*
X72905Y-31258D01*
X72915Y-31250D01*
X72932Y-31236D01*
X72934Y-31235D01*
X72934Y-31234D01*
X72938Y-31229D01*
X73032Y-31136D01*
X73033Y-31136D01*
X73033Y-31135D01*
X73034Y-31135D01*
X73037Y-31130D01*
X73057Y-31107D01*
X73057Y-31106D01*
X73075Y-31075D01*
X73075Y-31074D01*
X73086Y-31040D01*
X73086Y-31038D01*
X73090Y-31003D01*
X73090Y-31001D01*
X73090Y-31000D01*
X73090Y-30878D01*
X73178Y-30790D01*
X73648Y-30790D01*
X73648Y-30911D01*
X73653Y-30938D01*
X73664Y-30963D01*
X73679Y-30986D01*
X73698Y-31005D01*
X73721Y-31020D01*
X73746Y-31031D01*
X73773Y-31036D01*
X73800Y-31036D01*
X74077Y-31036D01*
X74104Y-31031D01*
X74129Y-31020D01*
X74152Y-31005D01*
X74171Y-30986D01*
X74186Y-30963D01*
X74197Y-30938D01*
X74202Y-30911D01*
X74202Y-30884D01*
X74202Y-30489D01*
X74197Y-30462D01*
X74187Y-30440D01*
X74410Y-30440D01*
X74410Y-30446D01*
X74403Y-30462D01*
X74398Y-30489D01*
X74398Y-30516D01*
X74398Y-30911D01*
X74403Y-30938D01*
X74414Y-30963D01*
X74429Y-30986D01*
X74448Y-31005D01*
X74471Y-31020D01*
X74496Y-31031D01*
X74523Y-31036D01*
X74550Y-31036D01*
X74827Y-31036D01*
X74854Y-31031D01*
X74879Y-31020D01*
X74902Y-31005D01*
X74921Y-30986D01*
X74936Y-30963D01*
X74947Y-30938D01*
X74952Y-30911D01*
X74952Y-30884D01*
X74952Y-30489D01*
X74947Y-30462D01*
X74940Y-30446D01*
X74940Y-30440D01*
X75848Y-30440D01*
X75988Y-30453D01*
X76122Y-30494D01*
X76245Y-30559D01*
X76352Y-30648D01*
X76441Y-30755D01*
X76506Y-30878D01*
X76547Y-31012D01*
X76560Y-31152D01*
X76560Y-51748D01*
X76560Y-51748D01*
G37*
G54D11*
X76560Y-51748D02*
X76547Y-51888D01*
X76506Y-52022D01*
X76441Y-52145D01*
X76352Y-52252D01*
X76245Y-52341D01*
X76122Y-52406D01*
X75988Y-52447D01*
X75848Y-52460D01*
X75640Y-52460D01*
X75640Y-37152D01*
X75640Y-32548D01*
X75625Y-32396D01*
X75580Y-32248D01*
X75507Y-32111D01*
X75408Y-31992D01*
X75289Y-31893D01*
X75152Y-31820D01*
X75004Y-31775D01*
X74852Y-31760D01*
X74577Y-31760D01*
X74577Y-31489D01*
X74572Y-31462D01*
X74561Y-31437D01*
X74546Y-31414D01*
X74527Y-31395D01*
X74504Y-31380D01*
X74479Y-31369D01*
X74452Y-31364D01*
X74425Y-31364D01*
X74148Y-31364D01*
X74121Y-31369D01*
X74096Y-31380D01*
X74073Y-31395D01*
X74054Y-31414D01*
X74039Y-31437D01*
X74028Y-31462D01*
X74023Y-31489D01*
X74023Y-31516D01*
X74023Y-31760D01*
X72377Y-31760D01*
X72377Y-31489D01*
X72372Y-31462D01*
X72361Y-31437D01*
X72346Y-31414D01*
X72327Y-31395D01*
X72304Y-31380D01*
X72279Y-31369D01*
X72252Y-31364D01*
X72225Y-31364D01*
X71948Y-31364D01*
X71921Y-31369D01*
X71896Y-31380D01*
X71873Y-31395D01*
X71854Y-31414D01*
X71839Y-31437D01*
X71828Y-31462D01*
X71823Y-31489D01*
X71823Y-31516D01*
X71823Y-31762D01*
X71696Y-31775D01*
X71548Y-31820D01*
X71411Y-31893D01*
X71292Y-31992D01*
X71193Y-32111D01*
X71120Y-32248D01*
X71075Y-32396D01*
X71060Y-32548D01*
X71060Y-37152D01*
X71075Y-37304D01*
X71120Y-37452D01*
X71193Y-37589D01*
X71292Y-37708D01*
X71411Y-37807D01*
X71413Y-37808D01*
X71464Y-38084D01*
X71616Y-38468D01*
X71840Y-38816D01*
X72127Y-39113D01*
X72467Y-39349D01*
X72846Y-39515D01*
X73250Y-39603D01*
X73663Y-39612D01*
X74070Y-39540D01*
X74455Y-39390D01*
X74804Y-39169D01*
X75104Y-38884D01*
X75342Y-38546D01*
X75510Y-38168D01*
X75601Y-37765D01*
X75606Y-37363D01*
X75625Y-37304D01*
X75640Y-37152D01*
X75640Y-52460D01*
X73740Y-52460D01*
X71634Y-52460D01*
X65508Y-52460D01*
X65508Y-47693D01*
X65428Y-47287D01*
X65270Y-46905D01*
X65041Y-46561D01*
X64750Y-46268D01*
X64407Y-46037D01*
X64026Y-45876D01*
X63621Y-45793D01*
X63208Y-45791D01*
X62802Y-45868D01*
X62418Y-46023D01*
X62103Y-46229D01*
X61565Y-45690D01*
X61565Y-40800D01*
X61562Y-40771D01*
X61561Y-40751D01*
X61560Y-40749D01*
X61546Y-40701D01*
X61545Y-40699D01*
X61522Y-40655D01*
X61521Y-40653D01*
X61501Y-40629D01*
X61490Y-40615D01*
X61488Y-40613D01*
X61487Y-40612D01*
X57789Y-36915D01*
X57787Y-36913D01*
X57777Y-36904D01*
X57750Y-36881D01*
X57748Y-36880D01*
X57704Y-36856D01*
X57703Y-36855D01*
X57702Y-36855D01*
X57655Y-36841D01*
X57652Y-36840D01*
X57619Y-36836D01*
X57604Y-36835D01*
X57601Y-36835D01*
X57600Y-36835D01*
X56004Y-36835D01*
X56000Y-36835D01*
X54809Y-36835D01*
X54389Y-36415D01*
X54387Y-36413D01*
X54377Y-36404D01*
X54350Y-36381D01*
X54348Y-36380D01*
X54304Y-36356D01*
X54303Y-36355D01*
X54302Y-36355D01*
X54255Y-36341D01*
X54252Y-36340D01*
X54219Y-36336D01*
X54204Y-36335D01*
X54201Y-36335D01*
X54200Y-36335D01*
X48314Y-36335D01*
X48314Y-35869D01*
X48302Y-35809D01*
X48278Y-35752D01*
X48265Y-35732D01*
X48265Y-35304D01*
X48265Y-35300D01*
X48265Y-34700D01*
X48262Y-34670D01*
X48261Y-34651D01*
X48260Y-34649D01*
X48246Y-34601D01*
X48245Y-34599D01*
X48222Y-34555D01*
X48221Y-34553D01*
X48201Y-34529D01*
X48190Y-34515D01*
X48188Y-34513D01*
X48187Y-34512D01*
X48089Y-34415D01*
X48087Y-34413D01*
X48077Y-34404D01*
X48050Y-34381D01*
X48048Y-34380D01*
X48004Y-34356D01*
X48003Y-34355D01*
X48002Y-34355D01*
X47955Y-34341D01*
X47952Y-34340D01*
X47919Y-34336D01*
X47904Y-34335D01*
X47901Y-34335D01*
X47900Y-34335D01*
X47409Y-34335D01*
X46665Y-33590D01*
X46665Y-31800D01*
X46660Y-31751D01*
X46660Y-31749D01*
X46645Y-31700D01*
X46645Y-31699D01*
X46621Y-31653D01*
X46595Y-31622D01*
X46590Y-31615D01*
X46588Y-31613D01*
X46587Y-31612D01*
X46506Y-31532D01*
X46502Y-31509D01*
X46478Y-31452D01*
X46444Y-31400D01*
X46401Y-31357D01*
X46350Y-31322D01*
X46293Y-31299D01*
X46233Y-31286D01*
X46171Y-31286D01*
X46111Y-31297D01*
X46054Y-31320D01*
X46002Y-31354D01*
X45958Y-31397D01*
X45923Y-31448D01*
X45899Y-31505D01*
X45886Y-31565D01*
X45886Y-31627D01*
X45897Y-31687D01*
X45919Y-31744D01*
X45953Y-31796D01*
X45996Y-31840D01*
X46046Y-31876D01*
X46103Y-31900D01*
X46131Y-31906D01*
X46135Y-31909D01*
X46135Y-33700D01*
X46137Y-33729D01*
X46139Y-33749D01*
X46154Y-33799D01*
X46154Y-33800D01*
X46155Y-33801D01*
X46179Y-33847D01*
X46203Y-33877D01*
X46210Y-33885D01*
X46212Y-33887D01*
X46213Y-33887D01*
X46217Y-33891D01*
X47111Y-34785D01*
X47112Y-34787D01*
X47127Y-34799D01*
X47150Y-34819D01*
X47196Y-34844D01*
X47198Y-34844D01*
X47228Y-34853D01*
X47245Y-34859D01*
X47247Y-34860D01*
X47282Y-34863D01*
X47296Y-34865D01*
X47299Y-34865D01*
X47300Y-34865D01*
X47735Y-34865D01*
X47735Y-35296D01*
X47735Y-35300D01*
X47735Y-35730D01*
X47723Y-35748D01*
X47699Y-35805D01*
X47686Y-35865D01*
X47686Y-35927D01*
X47697Y-35987D01*
X47719Y-36044D01*
X47753Y-36096D01*
X47796Y-36140D01*
X47846Y-36176D01*
X47903Y-36200D01*
X47963Y-36213D01*
X48024Y-36215D01*
X48085Y-36204D01*
X48142Y-36182D01*
X48194Y-36149D01*
X48239Y-36106D01*
X48274Y-36056D01*
X48299Y-35999D01*
X48313Y-35939D01*
X48314Y-35869D01*
X48314Y-36335D01*
X47800Y-36335D01*
X47770Y-36337D01*
X47751Y-36339D01*
X47701Y-36354D01*
X47699Y-36354D01*
X47699Y-36355D01*
X47653Y-36379D01*
X47622Y-36403D01*
X47615Y-36410D01*
X47613Y-36412D01*
X47612Y-36413D01*
X46613Y-37413D01*
X46604Y-37423D01*
X46581Y-37450D01*
X46556Y-37496D01*
X46555Y-37496D01*
X46555Y-37498D01*
X46540Y-37548D01*
X46536Y-37581D01*
X46535Y-37596D01*
X46535Y-37599D01*
X46535Y-37600D01*
X46535Y-38490D01*
X46390Y-38635D01*
X45868Y-38635D01*
X45850Y-38622D01*
X45793Y-38599D01*
X45733Y-38586D01*
X45671Y-38586D01*
X45611Y-38597D01*
X45554Y-38620D01*
X45531Y-38635D01*
X44509Y-38635D01*
X44214Y-38340D01*
X44214Y-37369D01*
X44202Y-37309D01*
X44178Y-37252D01*
X44144Y-37200D01*
X44114Y-37170D01*
X44114Y-33569D01*
X44102Y-33509D01*
X44078Y-33452D01*
X44065Y-33432D01*
X44065Y-32368D01*
X44074Y-32356D01*
X44099Y-32299D01*
X44113Y-32239D01*
X44114Y-32169D01*
X44102Y-32109D01*
X44078Y-32052D01*
X44044Y-32000D01*
X44001Y-31957D01*
X43950Y-31922D01*
X43893Y-31899D01*
X43833Y-31886D01*
X43771Y-31886D01*
X43740Y-31891D01*
X43740Y-24883D01*
X43649Y-24421D01*
X43469Y-23986D01*
X43209Y-23594D01*
X42877Y-23259D01*
X42487Y-22996D01*
X42053Y-22814D01*
X41592Y-22719D01*
X41121Y-22715D01*
X40658Y-22804D01*
X40222Y-22980D01*
X39828Y-23238D01*
X39491Y-23567D01*
X39225Y-23955D01*
X39040Y-24388D01*
X38942Y-24849D01*
X38935Y-25319D01*
X39020Y-25783D01*
X39193Y-26220D01*
X39448Y-26616D01*
X39775Y-26955D01*
X40162Y-27224D01*
X40593Y-27412D01*
X41053Y-27513D01*
X41524Y-27523D01*
X41987Y-27442D01*
X42426Y-27272D01*
X42824Y-27019D01*
X43165Y-26695D01*
X43436Y-26310D01*
X43628Y-25880D01*
X43732Y-25421D01*
X43740Y-24883D01*
X43740Y-31891D01*
X43711Y-31897D01*
X43654Y-31920D01*
X43602Y-31954D01*
X43558Y-31997D01*
X43523Y-32048D01*
X43499Y-32105D01*
X43486Y-32165D01*
X43486Y-32227D01*
X43497Y-32287D01*
X43519Y-32344D01*
X43535Y-32368D01*
X43535Y-33430D01*
X43523Y-33448D01*
X43499Y-33505D01*
X43486Y-33565D01*
X43486Y-33627D01*
X43497Y-33687D01*
X43519Y-33744D01*
X43553Y-33796D01*
X43596Y-33840D01*
X43646Y-33876D01*
X43703Y-33900D01*
X43763Y-33913D01*
X43824Y-33915D01*
X43885Y-33904D01*
X43942Y-33882D01*
X43994Y-33849D01*
X44039Y-33806D01*
X44074Y-33756D01*
X44099Y-33699D01*
X44113Y-33639D01*
X44114Y-33569D01*
X44114Y-37170D01*
X44101Y-37157D01*
X44050Y-37122D01*
X43993Y-37099D01*
X43967Y-37093D01*
X43889Y-37015D01*
X43887Y-37013D01*
X43877Y-37004D01*
X43850Y-36981D01*
X43848Y-36980D01*
X43804Y-36956D01*
X43803Y-36955D01*
X43802Y-36955D01*
X43755Y-36941D01*
X43752Y-36940D01*
X43719Y-36936D01*
X43704Y-36935D01*
X43701Y-36935D01*
X43700Y-36935D01*
X39443Y-36935D01*
X39430Y-36922D01*
X39372Y-36883D01*
X39307Y-36855D01*
X39238Y-36841D01*
X39168Y-36841D01*
X39098Y-36854D01*
X39033Y-36880D01*
X38974Y-36919D01*
X38924Y-36968D01*
X38884Y-37026D01*
X38856Y-37091D01*
X38842Y-37160D01*
X38841Y-37230D01*
X38853Y-37299D01*
X38879Y-37365D01*
X38917Y-37424D01*
X38966Y-37475D01*
X39024Y-37515D01*
X39088Y-37543D01*
X39157Y-37558D01*
X39227Y-37560D01*
X39297Y-37547D01*
X39362Y-37522D01*
X39422Y-37484D01*
X39442Y-37465D01*
X43590Y-37465D01*
X43593Y-37467D01*
X43597Y-37487D01*
X43619Y-37544D01*
X43653Y-37596D01*
X43696Y-37640D01*
X43746Y-37676D01*
X43803Y-37700D01*
X43863Y-37713D01*
X43924Y-37715D01*
X43985Y-37704D01*
X44042Y-37682D01*
X44094Y-37649D01*
X44139Y-37606D01*
X44174Y-37556D01*
X44199Y-37499D01*
X44213Y-37439D01*
X44214Y-37369D01*
X44214Y-38340D01*
X43889Y-38015D01*
X43887Y-38013D01*
X43877Y-38004D01*
X43850Y-37981D01*
X43848Y-37980D01*
X43804Y-37956D01*
X43803Y-37955D01*
X43802Y-37955D01*
X43755Y-37941D01*
X43752Y-37940D01*
X43719Y-37936D01*
X43704Y-37935D01*
X43701Y-37935D01*
X43700Y-37935D01*
X40443Y-37935D01*
X40430Y-37922D01*
X40372Y-37883D01*
X40307Y-37855D01*
X40238Y-37841D01*
X40168Y-37841D01*
X40098Y-37854D01*
X40033Y-37880D01*
X39974Y-37919D01*
X39924Y-37968D01*
X39884Y-38026D01*
X39856Y-38091D01*
X39842Y-38160D01*
X39841Y-38230D01*
X39853Y-38299D01*
X39879Y-38365D01*
X39917Y-38424D01*
X39966Y-38475D01*
X40024Y-38515D01*
X40088Y-38543D01*
X40157Y-38558D01*
X40227Y-38560D01*
X40297Y-38547D01*
X40362Y-38522D01*
X40422Y-38484D01*
X40442Y-38465D01*
X43590Y-38465D01*
X44211Y-39085D01*
X44212Y-39087D01*
X44227Y-39099D01*
X44250Y-39119D01*
X44296Y-39144D01*
X44298Y-39144D01*
X44328Y-39153D01*
X44345Y-39159D01*
X44347Y-39160D01*
X44365Y-39161D01*
X44396Y-39165D01*
X44400Y-39165D01*
X45530Y-39165D01*
X45546Y-39176D01*
X45603Y-39200D01*
X45663Y-39213D01*
X45724Y-39215D01*
X45785Y-39204D01*
X45842Y-39182D01*
X45868Y-39165D01*
X46500Y-39165D01*
X46529Y-39162D01*
X46549Y-39161D01*
X46551Y-39160D01*
X46599Y-39146D01*
X46600Y-39145D01*
X46601Y-39145D01*
X46644Y-39122D01*
X46647Y-39121D01*
X46677Y-39096D01*
X46685Y-39090D01*
X46685Y-39089D01*
X46687Y-39088D01*
X46687Y-39087D01*
X46691Y-39082D01*
X46985Y-38789D01*
X46987Y-38788D01*
X47006Y-38763D01*
X47019Y-38750D01*
X47020Y-38748D01*
X47044Y-38704D01*
X47044Y-38702D01*
X47053Y-38672D01*
X47059Y-38655D01*
X47060Y-38653D01*
X47063Y-38617D01*
X47065Y-38604D01*
X47065Y-38601D01*
X47065Y-38600D01*
X47065Y-37709D01*
X47909Y-36865D01*
X54091Y-36865D01*
X54511Y-37285D01*
X54513Y-37287D01*
X54523Y-37295D01*
X54550Y-37319D01*
X54552Y-37320D01*
X54596Y-37344D01*
X54598Y-37345D01*
X54645Y-37359D01*
X54648Y-37360D01*
X54681Y-37363D01*
X54696Y-37365D01*
X54699Y-37365D01*
X54700Y-37365D01*
X55996Y-37365D01*
X56000Y-37365D01*
X57490Y-37365D01*
X61035Y-40909D01*
X61035Y-45800D01*
X61037Y-45829D01*
X61039Y-45849D01*
X61054Y-45899D01*
X61054Y-45900D01*
X61055Y-45901D01*
X61079Y-45947D01*
X61103Y-45977D01*
X61110Y-45985D01*
X61112Y-45987D01*
X61113Y-45987D01*
X61117Y-45991D01*
X61731Y-46605D01*
X61544Y-46880D01*
X61381Y-47260D01*
X61295Y-47664D01*
X61289Y-48078D01*
X61364Y-48484D01*
X61516Y-48868D01*
X61740Y-49216D01*
X62027Y-49513D01*
X62367Y-49749D01*
X62746Y-49915D01*
X63150Y-50003D01*
X63563Y-50012D01*
X63970Y-49940D01*
X64355Y-49790D01*
X64704Y-49569D01*
X65004Y-49284D01*
X65242Y-48946D01*
X65410Y-48568D01*
X65501Y-48165D01*
X65508Y-47693D01*
X65508Y-52460D01*
X58502Y-52460D01*
X58502Y-44955D01*
X58407Y-44474D01*
X58220Y-44020D01*
X58207Y-44000D01*
X58207Y-39232D01*
X58183Y-39110D01*
X58136Y-38996D01*
X58067Y-38893D01*
X57980Y-38805D01*
X57877Y-38735D01*
X57763Y-38687D01*
X57641Y-38662D01*
X57517Y-38662D01*
X57396Y-38685D01*
X57281Y-38731D01*
X57177Y-38799D01*
X57089Y-38886D01*
X57019Y-38988D01*
X56970Y-39102D01*
X56944Y-39223D01*
X56942Y-39347D01*
X56965Y-39469D01*
X57010Y-39584D01*
X57077Y-39688D01*
X57163Y-39778D01*
X57265Y-39848D01*
X57379Y-39898D01*
X57500Y-39925D01*
X57624Y-39927D01*
X57746Y-39906D01*
X57861Y-39861D01*
X57966Y-39794D01*
X58056Y-39709D01*
X58127Y-39608D01*
X58178Y-39494D01*
X58205Y-39374D01*
X58207Y-39232D01*
X58207Y-44000D01*
X57948Y-43611D01*
X57603Y-43263D01*
X57196Y-42989D01*
X56744Y-42799D01*
X56632Y-42775D01*
X56632Y-39232D01*
X56608Y-39110D01*
X56561Y-38996D01*
X56492Y-38893D01*
X56405Y-38805D01*
X56302Y-38735D01*
X56188Y-38687D01*
X56066Y-38662D01*
X55942Y-38662D01*
X55821Y-38685D01*
X55781Y-38701D01*
X54395Y-37315D01*
X54393Y-37313D01*
X54383Y-37304D01*
X54356Y-37281D01*
X54354Y-37280D01*
X54310Y-37256D01*
X54309Y-37255D01*
X54308Y-37255D01*
X54261Y-37241D01*
X54258Y-37240D01*
X54225Y-37236D01*
X54210Y-37235D01*
X54207Y-37235D01*
X54206Y-37235D01*
X47968Y-37235D01*
X47950Y-37222D01*
X47893Y-37199D01*
X47833Y-37186D01*
X47771Y-37186D01*
X47711Y-37197D01*
X47654Y-37220D01*
X47602Y-37254D01*
X47558Y-37297D01*
X47523Y-37348D01*
X47499Y-37405D01*
X47486Y-37465D01*
X47486Y-37527D01*
X47497Y-37587D01*
X47519Y-37644D01*
X47553Y-37696D01*
X47596Y-37740D01*
X47646Y-37776D01*
X47703Y-37800D01*
X47763Y-37813D01*
X47824Y-37815D01*
X47885Y-37804D01*
X47942Y-37782D01*
X47968Y-37765D01*
X54097Y-37765D01*
X55406Y-39074D01*
X55395Y-39102D01*
X55369Y-39223D01*
X55367Y-39347D01*
X55390Y-39469D01*
X55435Y-39584D01*
X55502Y-39688D01*
X55588Y-39778D01*
X55690Y-39848D01*
X55804Y-39898D01*
X55925Y-39925D01*
X56049Y-39927D01*
X56171Y-39906D01*
X56286Y-39861D01*
X56391Y-39794D01*
X56481Y-39709D01*
X56552Y-39608D01*
X56603Y-39494D01*
X56630Y-39374D01*
X56632Y-39232D01*
X56632Y-42775D01*
X56263Y-42700D01*
X55772Y-42696D01*
X55291Y-42788D01*
X54836Y-42972D01*
X54425Y-43241D01*
X54074Y-43584D01*
X53797Y-43989D01*
X53604Y-44440D01*
X53502Y-44919D01*
X53495Y-45410D01*
X53583Y-45893D01*
X53764Y-46349D01*
X54030Y-46761D01*
X54370Y-47114D01*
X54773Y-47394D01*
X55223Y-47591D01*
X55702Y-47696D01*
X56193Y-47707D01*
X56676Y-47621D01*
X57133Y-47444D01*
X57547Y-47181D01*
X57903Y-46843D01*
X58186Y-46442D01*
X58385Y-45994D01*
X58494Y-45515D01*
X58502Y-44955D01*
X58502Y-52460D01*
X52339Y-52460D01*
X52339Y-40890D01*
X52296Y-40674D01*
X52212Y-40470D01*
X52090Y-40286D01*
X51935Y-40130D01*
X51752Y-40007D01*
X51549Y-39921D01*
X51333Y-39877D01*
X51113Y-39875D01*
X50896Y-39917D01*
X50692Y-39999D01*
X50507Y-40120D01*
X50350Y-40274D01*
X50225Y-40456D01*
X50139Y-40658D01*
X50093Y-40874D01*
X50090Y-41094D01*
X50129Y-41311D01*
X50210Y-41516D01*
X50330Y-41701D01*
X50483Y-41860D01*
X50664Y-41986D01*
X50866Y-42074D01*
X51081Y-42121D01*
X51301Y-42126D01*
X51519Y-42088D01*
X51724Y-42008D01*
X51910Y-41890D01*
X52070Y-41738D01*
X52197Y-41558D01*
X52287Y-41357D01*
X52335Y-41142D01*
X52339Y-40890D01*
X52339Y-52460D01*
X48738Y-52460D01*
X48738Y-50830D01*
X48738Y-50706D01*
X48715Y-50585D01*
X48669Y-50471D01*
X48601Y-50368D01*
X48515Y-50280D01*
X48413Y-50210D01*
X48300Y-50161D01*
X48179Y-50136D01*
X48056Y-50134D01*
X47645Y-50135D01*
X47524Y-50159D01*
X47410Y-50206D01*
X47307Y-50274D01*
X47220Y-50361D01*
X47151Y-50464D01*
X47103Y-50577D01*
X47078Y-50698D01*
X47078Y-50822D01*
X47101Y-50943D01*
X47147Y-51057D01*
X47215Y-51160D01*
X47301Y-51248D01*
X47403Y-51318D01*
X47516Y-51367D01*
X47637Y-51392D01*
X47760Y-51394D01*
X48171Y-51393D01*
X48292Y-51369D01*
X48406Y-51322D01*
X48509Y-51254D01*
X48596Y-51167D01*
X48665Y-51064D01*
X48713Y-50951D01*
X48738Y-50830D01*
X48738Y-52460D01*
X47850Y-52460D01*
X46965Y-52460D01*
X46965Y-50721D01*
X46948Y-50637D01*
X46916Y-50558D01*
X46869Y-50487D01*
X46808Y-50427D01*
X46738Y-50379D01*
X46659Y-50346D01*
X46575Y-50329D01*
X46490Y-50329D01*
X46406Y-50345D01*
X46327Y-50377D01*
X46256Y-50424D01*
X46195Y-50483D01*
X46147Y-50554D01*
X46113Y-50632D01*
X46096Y-50716D01*
X46094Y-50801D01*
X46110Y-50885D01*
X46141Y-50964D01*
X46188Y-51036D01*
X46247Y-51097D01*
X46317Y-51146D01*
X46395Y-51180D01*
X46479Y-51198D01*
X46564Y-51200D01*
X46648Y-51185D01*
X46727Y-51154D01*
X46799Y-51108D01*
X46861Y-51049D01*
X46910Y-50980D01*
X46945Y-50902D01*
X46964Y-50818D01*
X46965Y-50721D01*
X46965Y-52460D01*
X45705Y-52460D01*
X45705Y-50721D01*
X45688Y-50637D01*
X45656Y-50558D01*
X45609Y-50487D01*
X45548Y-50427D01*
X45478Y-50379D01*
X45399Y-50346D01*
X45315Y-50329D01*
X45230Y-50329D01*
X45146Y-50345D01*
X45067Y-50377D01*
X44996Y-50424D01*
X44935Y-50483D01*
X44887Y-50554D01*
X44853Y-50632D01*
X44836Y-50716D01*
X44834Y-50801D01*
X44850Y-50885D01*
X44881Y-50964D01*
X44928Y-51036D01*
X44987Y-51097D01*
X45057Y-51146D01*
X45135Y-51180D01*
X45219Y-51198D01*
X45304Y-51200D01*
X45388Y-51185D01*
X45467Y-51154D01*
X45539Y-51108D01*
X45601Y-51049D01*
X45650Y-50980D01*
X45685Y-50902D01*
X45704Y-50818D01*
X45705Y-50721D01*
X45705Y-52460D01*
X44722Y-52460D01*
X44722Y-50830D01*
X44722Y-50706D01*
X44699Y-50585D01*
X44653Y-50471D01*
X44585Y-50368D01*
X44499Y-50280D01*
X44397Y-50210D01*
X44284Y-50161D01*
X44163Y-50136D01*
X44040Y-50134D01*
X43629Y-50135D01*
X43508Y-50159D01*
X43394Y-50206D01*
X43291Y-50274D01*
X43204Y-50361D01*
X43135Y-50464D01*
X43087Y-50577D01*
X43062Y-50698D01*
X43062Y-50822D01*
X43085Y-50943D01*
X43131Y-51057D01*
X43199Y-51160D01*
X43285Y-51248D01*
X43387Y-51318D01*
X43500Y-51367D01*
X43621Y-51392D01*
X43744Y-51394D01*
X44155Y-51393D01*
X44276Y-51369D01*
X44390Y-51322D01*
X44493Y-51254D01*
X44580Y-51167D01*
X44649Y-51064D01*
X44697Y-50951D01*
X44722Y-50830D01*
X44722Y-52460D01*
X41709Y-52460D01*
X41709Y-40890D01*
X41666Y-40674D01*
X41582Y-40470D01*
X41460Y-40286D01*
X41305Y-40130D01*
X41122Y-40007D01*
X40919Y-39921D01*
X40703Y-39877D01*
X40483Y-39875D01*
X40266Y-39917D01*
X40062Y-39999D01*
X39877Y-40120D01*
X39720Y-40274D01*
X39595Y-40456D01*
X39509Y-40658D01*
X39463Y-40874D01*
X39460Y-41094D01*
X39499Y-41311D01*
X39580Y-41516D01*
X39700Y-41701D01*
X39853Y-41860D01*
X40034Y-41986D01*
X40236Y-42074D01*
X40451Y-42121D01*
X40671Y-42126D01*
X40889Y-42088D01*
X41094Y-42008D01*
X41280Y-41890D01*
X41440Y-41738D01*
X41567Y-41558D01*
X41657Y-41357D01*
X41705Y-41142D01*
X41709Y-40890D01*
X41709Y-52460D01*
X40789Y-52460D01*
X40789Y-46453D01*
X40789Y-45453D01*
X40772Y-45369D01*
X40740Y-45290D01*
X40693Y-45219D01*
X40632Y-45159D01*
X40562Y-45111D01*
X40483Y-45078D01*
X40399Y-45061D01*
X40314Y-45061D01*
X40230Y-45077D01*
X40151Y-45109D01*
X40080Y-45156D01*
X40019Y-45215D01*
X39971Y-45286D01*
X39937Y-45364D01*
X39920Y-45448D01*
X39918Y-45533D01*
X39934Y-45617D01*
X39965Y-45696D01*
X40012Y-45768D01*
X40071Y-45829D01*
X40141Y-45878D01*
X40219Y-45912D01*
X40303Y-45930D01*
X40388Y-45932D01*
X40472Y-45917D01*
X40551Y-45886D01*
X40623Y-45840D01*
X40685Y-45781D01*
X40734Y-45712D01*
X40769Y-45634D01*
X40788Y-45550D01*
X40789Y-45453D01*
X40789Y-46453D01*
X40772Y-46369D01*
X40740Y-46290D01*
X40693Y-46219D01*
X40632Y-46159D01*
X40562Y-46111D01*
X40483Y-46078D01*
X40399Y-46061D01*
X40314Y-46061D01*
X40230Y-46077D01*
X40151Y-46109D01*
X40080Y-46156D01*
X40019Y-46215D01*
X39971Y-46286D01*
X39937Y-46364D01*
X39920Y-46448D01*
X39918Y-46533D01*
X39934Y-46617D01*
X39965Y-46696D01*
X40012Y-46768D01*
X40071Y-46829D01*
X40141Y-46878D01*
X40219Y-46912D01*
X40303Y-46930D01*
X40388Y-46932D01*
X40472Y-46917D01*
X40551Y-46886D01*
X40623Y-46840D01*
X40685Y-46781D01*
X40734Y-46712D01*
X40769Y-46634D01*
X40788Y-46550D01*
X40789Y-46453D01*
X40789Y-52460D01*
X38352Y-52460D01*
X38212Y-52447D01*
X38078Y-52406D01*
X37955Y-52341D01*
X37848Y-52252D01*
X37759Y-52145D01*
X37694Y-52022D01*
X37653Y-51888D01*
X37640Y-51748D01*
X37640Y-14352D01*
X37653Y-14212D01*
X37694Y-14078D01*
X37759Y-13955D01*
X37848Y-13848D01*
X37955Y-13759D01*
X38078Y-13694D01*
X38212Y-13653D01*
X38352Y-13640D01*
X75848Y-13640D01*
X75988Y-13653D01*
X76122Y-13694D01*
X76245Y-13759D01*
X76352Y-13848D01*
X76441Y-13955D01*
X76506Y-14078D01*
X76547Y-14212D01*
X76560Y-14352D01*
X76560Y-19148D01*
X76547Y-19288D01*
X76506Y-19422D01*
X76441Y-19545D01*
X76352Y-19652D01*
X76245Y-19741D01*
X76122Y-19806D01*
X75988Y-19847D01*
X75848Y-19860D01*
X47848Y-19860D01*
X47696Y-19875D01*
X47548Y-19920D01*
X47411Y-19993D01*
X47292Y-20092D01*
X47193Y-20211D01*
X47120Y-20348D01*
X47075Y-20496D01*
X47060Y-20648D01*
X47060Y-25852D01*
X47075Y-26004D01*
X47120Y-26152D01*
X47193Y-26289D01*
X47292Y-26408D01*
X47411Y-26507D01*
X47548Y-26580D01*
X47696Y-26625D01*
X47848Y-26640D01*
X48710Y-26640D01*
X48710Y-27700D01*
X48717Y-27779D01*
X48718Y-27996D01*
X48736Y-28089D01*
X48772Y-28176D01*
X48825Y-28255D01*
X48891Y-28322D01*
X48946Y-28360D01*
X48451Y-28360D01*
X48503Y-28327D01*
X48571Y-28260D01*
X48624Y-28183D01*
X48662Y-28096D01*
X48681Y-28003D01*
X48683Y-27909D01*
X48682Y-27404D01*
X48664Y-27311D01*
X48628Y-27224D01*
X48575Y-27145D01*
X48509Y-27078D01*
X48431Y-27025D01*
X48343Y-26988D01*
X48251Y-26969D01*
X48156Y-26969D01*
X48064Y-26986D01*
X47976Y-27022D01*
X47897Y-27073D01*
X47829Y-27140D01*
X47776Y-27217D01*
X47738Y-27304D01*
X47719Y-27397D01*
X47717Y-27491D01*
X47718Y-27996D01*
X47736Y-28089D01*
X47772Y-28176D01*
X47825Y-28255D01*
X47891Y-28322D01*
X47946Y-28360D01*
X47848Y-28360D01*
X47696Y-28375D01*
X47548Y-28420D01*
X47411Y-28493D01*
X47292Y-28592D01*
X47193Y-28711D01*
X47120Y-28848D01*
X47075Y-28996D01*
X47060Y-29148D01*
X47060Y-32652D01*
X47075Y-32804D01*
X47120Y-32952D01*
X47193Y-33089D01*
X47292Y-33208D01*
X47411Y-33307D01*
X47548Y-33380D01*
X47696Y-33425D01*
X47848Y-33440D01*
X68052Y-33440D01*
X68204Y-33425D01*
X68352Y-33380D01*
X68489Y-33307D01*
X68608Y-33208D01*
X68707Y-33089D01*
X68780Y-32952D01*
X68825Y-32804D01*
X68840Y-32652D01*
X68840Y-29248D01*
X68825Y-29096D01*
X68780Y-28948D01*
X68707Y-28811D01*
X68608Y-28692D01*
X68489Y-28593D01*
X68352Y-28520D01*
X68204Y-28475D01*
X68052Y-28460D01*
X66390Y-28460D01*
X66390Y-27700D01*
X66382Y-27620D01*
X66382Y-27404D01*
X66364Y-27311D01*
X66328Y-27224D01*
X66275Y-27145D01*
X66209Y-27078D01*
X66131Y-27025D01*
X66043Y-26988D01*
X65951Y-26969D01*
X65856Y-26969D01*
X65764Y-26986D01*
X65676Y-27022D01*
X65597Y-27073D01*
X65529Y-27140D01*
X65476Y-27217D01*
X65438Y-27304D01*
X65419Y-27397D01*
X65417Y-27491D01*
X65417Y-27630D01*
X65410Y-27693D01*
X65410Y-27700D01*
X65410Y-28460D01*
X64383Y-28460D01*
X64383Y-27909D01*
X64382Y-27404D01*
X64364Y-27311D01*
X64328Y-27224D01*
X64275Y-27145D01*
X64209Y-27078D01*
X64131Y-27025D01*
X64043Y-26988D01*
X63951Y-26969D01*
X63856Y-26969D01*
X63764Y-26986D01*
X63676Y-27022D01*
X63597Y-27073D01*
X63529Y-27140D01*
X63476Y-27217D01*
X63438Y-27304D01*
X63419Y-27397D01*
X63417Y-27491D01*
X63418Y-27996D01*
X63436Y-28089D01*
X63472Y-28176D01*
X63525Y-28255D01*
X63591Y-28322D01*
X63669Y-28375D01*
X63757Y-28412D01*
X63849Y-28431D01*
X63944Y-28431D01*
X64036Y-28414D01*
X64124Y-28378D01*
X64203Y-28327D01*
X64271Y-28260D01*
X64324Y-28183D01*
X64362Y-28096D01*
X64381Y-28003D01*
X64383Y-27909D01*
X64383Y-28460D01*
X63048Y-28460D01*
X63013Y-28464D01*
X62978Y-28474D01*
X62945Y-28492D01*
X62916Y-28516D01*
X62892Y-28545D01*
X62874Y-28578D01*
X62864Y-28613D01*
X62858Y-28671D01*
X62852Y-28692D01*
X62842Y-28711D01*
X62828Y-28728D01*
X62811Y-28742D01*
X62792Y-28752D01*
X62771Y-28758D01*
X62748Y-28760D01*
X51302Y-28760D01*
X51269Y-28757D01*
X51239Y-28748D01*
X51212Y-28733D01*
X51187Y-28713D01*
X51167Y-28688D01*
X51152Y-28661D01*
X51143Y-28631D01*
X51135Y-28553D01*
X51122Y-28507D01*
X51099Y-28466D01*
X51069Y-28431D01*
X51034Y-28401D01*
X50993Y-28378D01*
X50947Y-28365D01*
X50902Y-28360D01*
X50690Y-28360D01*
X50690Y-27700D01*
X50682Y-27620D01*
X50682Y-27404D01*
X50664Y-27311D01*
X50628Y-27224D01*
X50575Y-27145D01*
X50509Y-27078D01*
X50431Y-27025D01*
X50343Y-26988D01*
X50251Y-26969D01*
X50156Y-26969D01*
X50064Y-26986D01*
X49976Y-27022D01*
X49897Y-27073D01*
X49829Y-27140D01*
X49776Y-27217D01*
X49738Y-27304D01*
X49719Y-27397D01*
X49717Y-27491D01*
X49717Y-27630D01*
X49710Y-27693D01*
X49710Y-27700D01*
X49710Y-28360D01*
X49451Y-28360D01*
X49503Y-28327D01*
X49571Y-28260D01*
X49624Y-28183D01*
X49662Y-28096D01*
X49681Y-28003D01*
X49683Y-27909D01*
X49682Y-27769D01*
X49690Y-27707D01*
X49690Y-27700D01*
X49690Y-26640D01*
X50648Y-26640D01*
X50788Y-26653D01*
X50922Y-26694D01*
X51045Y-26759D01*
X51152Y-26848D01*
X51241Y-26955D01*
X51306Y-27078D01*
X51347Y-27212D01*
X51360Y-27352D01*
X51360Y-27752D01*
X51375Y-27904D01*
X51420Y-28052D01*
X51493Y-28189D01*
X51592Y-28308D01*
X51711Y-28407D01*
X51848Y-28480D01*
X51996Y-28525D01*
X52148Y-28540D01*
X61852Y-28540D01*
X62004Y-28525D01*
X62152Y-28480D01*
X62289Y-28407D01*
X62408Y-28308D01*
X62507Y-28189D01*
X62580Y-28052D01*
X62625Y-27904D01*
X62640Y-27752D01*
X62640Y-27352D01*
X62653Y-27212D01*
X62694Y-27078D01*
X62759Y-26955D01*
X62848Y-26848D01*
X62955Y-26759D01*
X63078Y-26694D01*
X63212Y-26653D01*
X63352Y-26640D01*
X64410Y-26640D01*
X64410Y-27700D01*
X64417Y-27779D01*
X64418Y-27996D01*
X64436Y-28089D01*
X64472Y-28176D01*
X64525Y-28255D01*
X64591Y-28322D01*
X64669Y-28375D01*
X64757Y-28412D01*
X64849Y-28431D01*
X64944Y-28431D01*
X65036Y-28414D01*
X65124Y-28378D01*
X65203Y-28327D01*
X65271Y-28260D01*
X65324Y-28183D01*
X65362Y-28096D01*
X65381Y-28003D01*
X65383Y-27909D01*
X65382Y-27769D01*
X65390Y-27707D01*
X65390Y-27700D01*
X65390Y-26640D01*
X66548Y-26640D01*
X66688Y-26653D01*
X66822Y-26694D01*
X66945Y-26759D01*
X67052Y-26848D01*
X67141Y-26955D01*
X67206Y-27078D01*
X67247Y-27212D01*
X67260Y-27352D01*
X67260Y-27552D01*
X67275Y-27704D01*
X67320Y-27852D01*
X67393Y-27989D01*
X67492Y-28108D01*
X67611Y-28207D01*
X67748Y-28280D01*
X67896Y-28325D01*
X68048Y-28340D01*
X68248Y-28340D01*
X68388Y-28353D01*
X68522Y-28394D01*
X68645Y-28459D01*
X68752Y-28548D01*
X68841Y-28655D01*
X68906Y-28778D01*
X68947Y-28912D01*
X68960Y-29052D01*
X68960Y-29652D01*
X68975Y-29804D01*
X69020Y-29952D01*
X69093Y-30089D01*
X69192Y-30208D01*
X69311Y-30307D01*
X69448Y-30380D01*
X69596Y-30425D01*
X69748Y-30440D01*
X70310Y-30440D01*
X70310Y-30597D01*
X70310Y-30600D01*
X70310Y-39573D01*
X70296Y-39580D01*
X70273Y-39595D01*
X70254Y-39614D01*
X70239Y-39637D01*
X70228Y-39662D01*
X70223Y-39689D01*
X70223Y-39716D01*
X70223Y-40111D01*
X70228Y-40138D01*
X70239Y-40163D01*
X70254Y-40186D01*
X70273Y-40205D01*
X70296Y-40220D01*
X70321Y-40231D01*
X70348Y-40236D01*
X70375Y-40236D01*
X70652Y-40236D01*
X70679Y-40231D01*
X70704Y-40220D01*
X70727Y-40205D01*
X70746Y-40186D01*
X70761Y-40163D01*
X70772Y-40138D01*
X70777Y-40111D01*
X70777Y-40084D01*
X70777Y-39745D01*
X71110Y-40078D01*
X71110Y-40603D01*
X71102Y-40595D01*
X71079Y-40580D01*
X71054Y-40569D01*
X71027Y-40564D01*
X71000Y-40564D01*
X70723Y-40564D01*
X70696Y-40569D01*
X70671Y-40580D01*
X70648Y-40595D01*
X70629Y-40614D01*
X70614Y-40637D01*
X70603Y-40662D01*
X70598Y-40689D01*
X70598Y-40716D01*
X70598Y-41111D01*
X70603Y-41138D01*
X70614Y-41163D01*
X70629Y-41186D01*
X70648Y-41205D01*
X70671Y-41220D01*
X70696Y-41231D01*
X70723Y-41236D01*
X70750Y-41236D01*
X71027Y-41236D01*
X71054Y-41231D01*
X71079Y-41220D01*
X71102Y-41205D01*
X71121Y-41186D01*
X71136Y-41163D01*
X71147Y-41138D01*
X71152Y-41111D01*
X71152Y-41090D01*
X71297Y-41090D01*
X71299Y-41090D01*
X71300Y-41090D01*
X71597Y-41090D01*
X71600Y-41090D01*
X72332Y-41090D01*
X72332Y-41209D01*
X72337Y-41236D01*
X72348Y-41261D01*
X72363Y-41284D01*
X72382Y-41303D01*
X72405Y-41318D01*
X72430Y-41329D01*
X72457Y-41334D01*
X72484Y-41334D01*
X72995Y-41334D01*
X73022Y-41329D01*
X73047Y-41318D01*
X73070Y-41303D01*
X73089Y-41284D01*
X73100Y-41267D01*
X73111Y-41284D01*
X73130Y-41303D01*
X73153Y-41318D01*
X73178Y-41329D01*
X73205Y-41334D01*
X73232Y-41334D01*
X73284Y-41334D01*
X73284Y-42337D01*
X73252Y-42320D01*
X73104Y-42275D01*
X72952Y-42260D01*
X71850Y-42260D01*
X70402Y-42260D01*
X70402Y-41111D01*
X70402Y-41084D01*
X70402Y-40689D01*
X70397Y-40662D01*
X70386Y-40637D01*
X70371Y-40614D01*
X70352Y-40595D01*
X70329Y-40580D01*
X70304Y-40569D01*
X70277Y-40564D01*
X70250Y-40564D01*
X69973Y-40564D01*
X69946Y-40569D01*
X69921Y-40580D01*
X69898Y-40595D01*
X69879Y-40614D01*
X69864Y-40637D01*
X69853Y-40662D01*
X69848Y-40689D01*
X69848Y-40716D01*
X69848Y-41111D01*
X69853Y-41138D01*
X69864Y-41163D01*
X69879Y-41186D01*
X69898Y-41205D01*
X69921Y-41220D01*
X69946Y-41231D01*
X69973Y-41236D01*
X70000Y-41236D01*
X70277Y-41236D01*
X70304Y-41231D01*
X70329Y-41220D01*
X70352Y-41205D01*
X70371Y-41186D01*
X70386Y-41163D01*
X70397Y-41138D01*
X70402Y-41111D01*
X70402Y-42260D01*
X70067Y-42260D01*
X69964Y-42252D01*
X69862Y-42230D01*
X69764Y-42193D01*
X68840Y-41761D01*
X68566Y-41633D01*
X68460Y-41594D01*
X68348Y-41568D01*
X68235Y-41560D01*
X62748Y-41560D01*
X62596Y-41575D01*
X62448Y-41620D01*
X62311Y-41693D01*
X62192Y-41792D01*
X62093Y-41911D01*
X62020Y-42048D01*
X61975Y-42196D01*
X61960Y-42348D01*
X61960Y-43877D01*
X61970Y-44004D01*
X62002Y-44129D01*
X62053Y-44247D01*
X62123Y-44355D01*
X62208Y-44450D01*
X63358Y-45527D01*
X63474Y-45617D01*
X63606Y-45684D01*
X63748Y-45726D01*
X63895Y-45740D01*
X70064Y-45740D01*
X70184Y-45751D01*
X70300Y-45780D01*
X70408Y-45828D01*
X70507Y-45893D01*
X70594Y-45976D01*
X71048Y-46480D01*
X71143Y-46569D01*
X71254Y-46642D01*
X71374Y-46696D01*
X71502Y-46729D01*
X71632Y-46740D01*
X72952Y-46740D01*
X73104Y-46725D01*
X73235Y-46685D01*
X73235Y-47639D01*
X73218Y-47647D01*
X73195Y-47662D01*
X73176Y-47681D01*
X73161Y-47704D01*
X73150Y-47729D01*
X73145Y-47756D01*
X73145Y-47783D01*
X73145Y-48176D01*
X73150Y-48203D01*
X73161Y-48228D01*
X73176Y-48251D01*
X73195Y-48270D01*
X73218Y-48285D01*
X73243Y-48296D01*
X73270Y-48301D01*
X73297Y-48301D01*
X73730Y-48301D01*
X73740Y-48299D01*
X73757Y-48296D01*
X73782Y-48285D01*
X73805Y-48270D01*
X73824Y-48251D01*
X73839Y-48228D01*
X73850Y-48203D01*
X73855Y-48176D01*
X73855Y-48149D01*
X73855Y-47756D01*
X73850Y-47729D01*
X73839Y-47704D01*
X73824Y-47681D01*
X73805Y-47662D01*
X73782Y-47647D01*
X73765Y-47639D01*
X73765Y-46593D01*
X74070Y-46540D01*
X74455Y-46390D01*
X74804Y-46169D01*
X75104Y-45884D01*
X75342Y-45546D01*
X75510Y-45168D01*
X75601Y-44765D01*
X75608Y-44293D01*
X75528Y-43887D01*
X75370Y-43505D01*
X75141Y-43161D01*
X74850Y-42868D01*
X74507Y-42637D01*
X74126Y-42476D01*
X73721Y-42393D01*
X73664Y-42392D01*
X73664Y-41334D01*
X73743Y-41334D01*
X73770Y-41329D01*
X73795Y-41318D01*
X73818Y-41303D01*
X73837Y-41284D01*
X73852Y-41261D01*
X73863Y-41236D01*
X73868Y-41209D01*
X73868Y-41182D01*
X73868Y-40591D01*
X73863Y-40564D01*
X73852Y-40539D01*
X73837Y-40516D01*
X73818Y-40497D01*
X73795Y-40482D01*
X73770Y-40471D01*
X73743Y-40466D01*
X73716Y-40466D01*
X73205Y-40466D01*
X73178Y-40471D01*
X73153Y-40482D01*
X73130Y-40497D01*
X73111Y-40516D01*
X73100Y-40532D01*
X73089Y-40516D01*
X73070Y-40497D01*
X73047Y-40482D01*
X73022Y-40471D01*
X72995Y-40466D01*
X72968Y-40466D01*
X72457Y-40466D01*
X72430Y-40471D01*
X72405Y-40482D01*
X72382Y-40497D01*
X72363Y-40516D01*
X72348Y-40539D01*
X72337Y-40564D01*
X72332Y-40591D01*
X72332Y-40618D01*
X72332Y-40710D01*
X71603Y-40710D01*
X71600Y-40710D01*
X71490Y-40710D01*
X71490Y-40002D01*
X71490Y-40000D01*
X71486Y-39964D01*
X71486Y-39963D01*
X71476Y-39929D01*
X71476Y-39928D01*
X71466Y-39911D01*
X71459Y-39896D01*
X71458Y-39895D01*
X71436Y-39867D01*
X71435Y-39866D01*
X71434Y-39865D01*
X70890Y-39321D01*
X70890Y-31178D01*
X71178Y-30890D01*
X71448Y-30890D01*
X71448Y-30911D01*
X71453Y-30938D01*
X71464Y-30963D01*
X71479Y-30986D01*
X71498Y-31005D01*
X71521Y-31020D01*
X71546Y-31031D01*
X71571Y-31035D01*
X71574Y-31040D01*
X71589Y-31057D01*
X71590Y-31059D01*
X71591Y-31059D01*
X71595Y-31063D01*
X71763Y-31232D01*
X71764Y-31233D01*
X71765Y-31234D01*
X71770Y-31237D01*
X71793Y-31257D01*
X71794Y-31257D01*
X71825Y-31275D01*
X71826Y-31275D01*
X71860Y-31286D01*
X71862Y-31286D01*
X71897Y-31290D01*
X71899Y-31290D01*
X71900Y-31290D01*
X72798Y-31290D01*
X72800Y-31290D01*
X72806Y-31289D01*
X72835Y-31287D01*
X72837Y-31286D01*
X72871Y-31277D01*
X72872Y-31276D01*
X72903Y-31260D01*
X72905Y-31258D01*
X72915Y-31250D01*
X72932Y-31236D01*
X72934Y-31235D01*
X72934Y-31234D01*
X72938Y-31229D01*
X73032Y-31136D01*
X73033Y-31136D01*
X73033Y-31135D01*
X73034Y-31135D01*
X73037Y-31130D01*
X73057Y-31107D01*
X73057Y-31106D01*
X73075Y-31075D01*
X73075Y-31074D01*
X73086Y-31040D01*
X73086Y-31038D01*
X73090Y-31003D01*
X73090Y-31001D01*
X73090Y-31000D01*
X73090Y-30878D01*
X73178Y-30790D01*
X73648Y-30790D01*
X73648Y-30911D01*
X73653Y-30938D01*
X73664Y-30963D01*
X73679Y-30986D01*
X73698Y-31005D01*
X73721Y-31020D01*
X73746Y-31031D01*
X73773Y-31036D01*
X73800Y-31036D01*
X74077Y-31036D01*
X74104Y-31031D01*
X74129Y-31020D01*
X74152Y-31005D01*
X74171Y-30986D01*
X74186Y-30963D01*
X74197Y-30938D01*
X74202Y-30911D01*
X74202Y-30884D01*
X74202Y-30489D01*
X74197Y-30462D01*
X74187Y-30440D01*
X74410Y-30440D01*
X74410Y-30446D01*
X74403Y-30462D01*
X74398Y-30489D01*
X74398Y-30516D01*
X74398Y-30911D01*
X74403Y-30938D01*
X74414Y-30963D01*
X74429Y-30986D01*
X74448Y-31005D01*
X74471Y-31020D01*
X74496Y-31031D01*
X74523Y-31036D01*
X74550Y-31036D01*
X74827Y-31036D01*
X74854Y-31031D01*
X74879Y-31020D01*
X74902Y-31005D01*
X74921Y-30986D01*
X74936Y-30963D01*
X74947Y-30938D01*
X74952Y-30911D01*
X74952Y-30884D01*
X74952Y-30489D01*
X74947Y-30462D01*
X74940Y-30446D01*
X74940Y-30440D01*
X75848Y-30440D01*
X75988Y-30453D01*
X76122Y-30494D01*
X76245Y-30559D01*
X76352Y-30648D01*
X76441Y-30755D01*
X76506Y-30878D01*
X76547Y-31012D01*
X76560Y-31152D01*
X76560Y-51748D01*
M02*
