G04 (created by PCBNEW (2013-02-09 BZR 3938)-testing) date Mon 11 Feb 2013 05:07:41 PM CET*
%MOIN*%
G04 Gerber Fmt 3.4, Leading zero omitted, Abs format*
%FSLAX34Y34*%
G01*
G70*
G90*
G04 APERTURE LIST*
%ADD10C,2.3622e-06*%
%ADD11C,0.008*%
%ADD12C,0.012*%
%ADD13C,0.0197*%
%ADD14C,0.01*%
%ADD15C,0.006*%
%ADD16C,0.0001*%
%ADD17C,0.0026*%
%ADD18C,0.004*%
%ADD19C,0.002*%
%ADD20C,0.015*%
%ADD21C,0.0078*%
%ADD22C,0.0075*%
%ADD23C,0.0118*%
%ADD24C,0.00984252*%
%ADD25C,0.1969*%
%ADD26O,0.1378X0.0984*%
%ADD27C,0.0591*%
%ADD28C,0.06*%
%ADD29C,0.3937*%
%ADD30C,0.1772*%
%ADD31C,0.315*%
%ADD32C,0.4724*%
%ADD33C,0.0984*%
%ADD34R,0.0472X0.0472*%
%ADD35C,0.16*%
%ADD36R,0.144X0.08*%
%ADD37R,0.04X0.08*%
%ADD38R,0.0511X0.059*%
%ADD39R,0.0629X0.0708*%
%ADD40R,0.0866X0.0236*%
%ADD41R,0.0393X0.0433*%
%ADD42C,0.1575*%
%ADD43O,0.0689X0.1181*%
%ADD44R,0.0551X0.0393*%
%ADD45C,0.065*%
%ADD46R,0.0649606X0.0649606*%
%ADD47C,0.0649606*%
G04 APERTURE END LIST*
G54D10*
G54D11*
X52000Y-37300D02*
X51800Y-36800D01*
X51600Y-37300D02*
X52000Y-37300D01*
X51800Y-36800D02*
X51600Y-37300D01*
X51123Y-33261D02*
X51123Y-32861D01*
X51219Y-33300D02*
X51523Y-33300D01*
X51600Y-33242D02*
X51657Y-33261D01*
X51752Y-33261D01*
X51790Y-33242D01*
X51809Y-33223D01*
X51828Y-33185D01*
X51828Y-33147D01*
X51809Y-33109D01*
X51790Y-33090D01*
X51752Y-33071D01*
X51676Y-33052D01*
X51638Y-33033D01*
X51619Y-33014D01*
X51600Y-32976D01*
X51600Y-32938D01*
X51619Y-32900D01*
X51638Y-32880D01*
X51676Y-32861D01*
X51771Y-32861D01*
X51828Y-32880D01*
X52000Y-33052D02*
X52133Y-33052D01*
X52190Y-33261D02*
X52000Y-33261D01*
X52000Y-32861D01*
X52190Y-32861D01*
X52304Y-32861D02*
X52533Y-32861D01*
X52419Y-33261D02*
X52419Y-32861D01*
X48138Y-34914D02*
X48119Y-34895D01*
X48080Y-34838D01*
X48061Y-34800D01*
X48042Y-34742D01*
X48023Y-34647D01*
X48023Y-34571D01*
X48042Y-34476D01*
X48061Y-34419D01*
X48080Y-34380D01*
X48119Y-34323D01*
X48138Y-34304D01*
X48271Y-34400D02*
X48290Y-34380D01*
X48328Y-34361D01*
X48423Y-34361D01*
X48461Y-34380D01*
X48480Y-34400D01*
X48500Y-34438D01*
X48500Y-34476D01*
X48480Y-34533D01*
X48252Y-34761D01*
X48500Y-34761D01*
X48671Y-34609D02*
X48976Y-34609D01*
X49128Y-34361D02*
X49376Y-34361D01*
X49242Y-34514D01*
X49300Y-34514D01*
X49338Y-34533D01*
X49357Y-34552D01*
X49376Y-34590D01*
X49376Y-34685D01*
X49357Y-34723D01*
X49338Y-34742D01*
X49300Y-34761D01*
X49185Y-34761D01*
X49147Y-34742D01*
X49128Y-34723D01*
X49509Y-34914D02*
X49528Y-34895D01*
X49566Y-34838D01*
X49585Y-34800D01*
X49604Y-34742D01*
X49623Y-34647D01*
X49623Y-34571D01*
X49604Y-34476D01*
X49585Y-34419D01*
X49566Y-34380D01*
X49528Y-34323D01*
X49509Y-34304D01*
X50119Y-34552D02*
X50252Y-34552D01*
X50309Y-34761D02*
X50119Y-34761D01*
X50119Y-34361D01*
X50309Y-34361D01*
X50442Y-34361D02*
X50709Y-34761D01*
X50709Y-34361D02*
X50442Y-34761D01*
X50804Y-34361D02*
X51033Y-34361D01*
X50919Y-34761D02*
X50919Y-34361D01*
X48254Y-35914D02*
X48235Y-35895D01*
X48197Y-35838D01*
X48178Y-35800D01*
X48159Y-35742D01*
X48140Y-35647D01*
X48140Y-35571D01*
X48159Y-35476D01*
X48178Y-35419D01*
X48197Y-35380D01*
X48235Y-35323D01*
X48254Y-35304D01*
X48616Y-35761D02*
X48388Y-35761D01*
X48502Y-35761D02*
X48502Y-35361D01*
X48464Y-35419D01*
X48426Y-35457D01*
X48388Y-35476D01*
X48788Y-35609D02*
X49092Y-35609D01*
X49264Y-35400D02*
X49283Y-35380D01*
X49321Y-35361D01*
X49416Y-35361D01*
X49454Y-35380D01*
X49473Y-35400D01*
X49492Y-35438D01*
X49492Y-35476D01*
X49473Y-35533D01*
X49245Y-35761D01*
X49492Y-35761D01*
X49626Y-35914D02*
X49645Y-35895D01*
X49683Y-35838D01*
X49702Y-35800D01*
X49721Y-35742D01*
X49740Y-35647D01*
X49740Y-35571D01*
X49721Y-35476D01*
X49702Y-35419D01*
X49683Y-35380D01*
X49645Y-35323D01*
X49626Y-35304D01*
X50235Y-35761D02*
X50235Y-35361D01*
X50426Y-35761D02*
X50426Y-35361D01*
X50654Y-35761D01*
X50654Y-35361D01*
X50788Y-35361D02*
X51016Y-35361D01*
X50902Y-35761D02*
X50902Y-35361D01*
X39657Y-33195D02*
X39961Y-33309D01*
X39657Y-33423D01*
X40152Y-33461D02*
X40152Y-33061D01*
X40247Y-33500D02*
X40552Y-33500D01*
X40628Y-33442D02*
X40685Y-33461D01*
X40780Y-33461D01*
X40819Y-33442D01*
X40838Y-33423D01*
X40857Y-33385D01*
X40857Y-33347D01*
X40838Y-33309D01*
X40819Y-33290D01*
X40780Y-33271D01*
X40704Y-33252D01*
X40666Y-33233D01*
X40647Y-33214D01*
X40628Y-33176D01*
X40628Y-33138D01*
X40647Y-33100D01*
X40666Y-33080D01*
X40704Y-33061D01*
X40800Y-33061D01*
X40857Y-33080D01*
X41028Y-33252D02*
X41161Y-33252D01*
X41219Y-33461D02*
X41028Y-33461D01*
X41028Y-33061D01*
X41219Y-33061D01*
X41333Y-33061D02*
X41561Y-33061D01*
X41447Y-33461D02*
X41447Y-33061D01*
X42114Y-33614D02*
X42095Y-33595D01*
X42057Y-33538D01*
X42038Y-33500D01*
X42019Y-33442D01*
X42000Y-33347D01*
X42000Y-33271D01*
X42019Y-33176D01*
X42038Y-33119D01*
X42057Y-33080D01*
X42095Y-33023D01*
X42114Y-33004D01*
X42342Y-33061D02*
X42380Y-33061D01*
X42419Y-33080D01*
X42438Y-33100D01*
X42457Y-33138D01*
X42476Y-33214D01*
X42476Y-33309D01*
X42457Y-33385D01*
X42438Y-33423D01*
X42419Y-33442D01*
X42380Y-33461D01*
X42342Y-33461D01*
X42304Y-33442D01*
X42285Y-33423D01*
X42266Y-33385D01*
X42247Y-33309D01*
X42247Y-33214D01*
X42266Y-33138D01*
X42285Y-33100D01*
X42304Y-33080D01*
X42342Y-33061D01*
X42647Y-33309D02*
X42952Y-33309D01*
X43333Y-33061D02*
X43142Y-33061D01*
X43123Y-33252D01*
X43142Y-33233D01*
X43180Y-33214D01*
X43276Y-33214D01*
X43314Y-33233D01*
X43333Y-33252D01*
X43352Y-33290D01*
X43352Y-33385D01*
X43333Y-33423D01*
X43314Y-33442D01*
X43276Y-33461D01*
X43180Y-33461D01*
X43142Y-33442D01*
X43123Y-33423D01*
X43466Y-33061D02*
X43600Y-33461D01*
X43733Y-33061D01*
X43828Y-33614D02*
X43847Y-33595D01*
X43885Y-33538D01*
X43904Y-33500D01*
X43923Y-33442D01*
X43942Y-33347D01*
X43942Y-33271D01*
X43923Y-33176D01*
X43904Y-33119D01*
X43885Y-33080D01*
X43847Y-33023D01*
X43828Y-33004D01*
X39923Y-32195D02*
X39619Y-32309D01*
X39923Y-32423D01*
X40114Y-32461D02*
X40114Y-32061D01*
X40209Y-32500D02*
X40514Y-32500D01*
X40609Y-32461D02*
X40609Y-32061D01*
X40704Y-32061D01*
X40761Y-32080D01*
X40800Y-32119D01*
X40819Y-32157D01*
X40838Y-32233D01*
X40838Y-32290D01*
X40819Y-32366D01*
X40800Y-32404D01*
X40761Y-32442D01*
X40704Y-32461D01*
X40609Y-32461D01*
X41009Y-32061D02*
X41009Y-32385D01*
X41028Y-32423D01*
X41047Y-32442D01*
X41085Y-32461D01*
X41161Y-32461D01*
X41200Y-32442D01*
X41219Y-32423D01*
X41238Y-32385D01*
X41238Y-32061D01*
X41371Y-32061D02*
X41600Y-32061D01*
X41485Y-32461D02*
X41485Y-32061D01*
X42152Y-32614D02*
X42133Y-32595D01*
X42095Y-32538D01*
X42076Y-32500D01*
X42057Y-32442D01*
X42038Y-32347D01*
X42038Y-32271D01*
X42057Y-32176D01*
X42076Y-32119D01*
X42095Y-32080D01*
X42133Y-32023D01*
X42152Y-32004D01*
X42380Y-32061D02*
X42419Y-32061D01*
X42457Y-32080D01*
X42476Y-32100D01*
X42495Y-32138D01*
X42514Y-32214D01*
X42514Y-32309D01*
X42495Y-32385D01*
X42476Y-32423D01*
X42457Y-32442D01*
X42419Y-32461D01*
X42380Y-32461D01*
X42342Y-32442D01*
X42323Y-32423D01*
X42304Y-32385D01*
X42285Y-32309D01*
X42285Y-32214D01*
X42304Y-32138D01*
X42323Y-32100D01*
X42342Y-32080D01*
X42380Y-32061D01*
X42685Y-32309D02*
X42990Y-32309D01*
X43371Y-32061D02*
X43180Y-32061D01*
X43161Y-32252D01*
X43180Y-32233D01*
X43219Y-32214D01*
X43314Y-32214D01*
X43352Y-32233D01*
X43371Y-32252D01*
X43390Y-32290D01*
X43390Y-32385D01*
X43371Y-32423D01*
X43352Y-32442D01*
X43314Y-32461D01*
X43219Y-32461D01*
X43180Y-32442D01*
X43161Y-32423D01*
X43504Y-32061D02*
X43638Y-32461D01*
X43771Y-32061D01*
X43866Y-32614D02*
X43885Y-32595D01*
X43923Y-32538D01*
X43942Y-32500D01*
X43961Y-32442D01*
X43980Y-32347D01*
X43980Y-32271D01*
X43961Y-32176D01*
X43942Y-32119D01*
X43923Y-32080D01*
X43885Y-32023D01*
X43866Y-32004D01*
X39947Y-31095D02*
X39642Y-31209D01*
X39947Y-31323D01*
X40080Y-30961D02*
X40214Y-31361D01*
X40347Y-30961D01*
X40385Y-31400D02*
X40690Y-31400D01*
X40785Y-31361D02*
X40785Y-30961D01*
X40880Y-30961D01*
X40938Y-30980D01*
X40976Y-31019D01*
X40995Y-31057D01*
X41014Y-31133D01*
X41014Y-31190D01*
X40995Y-31266D01*
X40976Y-31304D01*
X40938Y-31342D01*
X40880Y-31361D01*
X40785Y-31361D01*
X41185Y-30961D02*
X41185Y-31285D01*
X41204Y-31323D01*
X41223Y-31342D01*
X41261Y-31361D01*
X41338Y-31361D01*
X41376Y-31342D01*
X41395Y-31323D01*
X41414Y-31285D01*
X41414Y-30961D01*
X41547Y-30961D02*
X41776Y-30961D01*
X41661Y-31361D02*
X41661Y-30961D01*
X42328Y-31514D02*
X42309Y-31495D01*
X42271Y-31438D01*
X42252Y-31400D01*
X42233Y-31342D01*
X42214Y-31247D01*
X42214Y-31171D01*
X42233Y-31076D01*
X42252Y-31019D01*
X42271Y-30980D01*
X42309Y-30923D01*
X42328Y-30904D01*
X42557Y-30961D02*
X42595Y-30961D01*
X42633Y-30980D01*
X42652Y-31000D01*
X42671Y-31038D01*
X42690Y-31114D01*
X42690Y-31209D01*
X42671Y-31285D01*
X42652Y-31323D01*
X42633Y-31342D01*
X42595Y-31361D01*
X42557Y-31361D01*
X42519Y-31342D01*
X42500Y-31323D01*
X42480Y-31285D01*
X42461Y-31209D01*
X42461Y-31114D01*
X42480Y-31038D01*
X42500Y-31000D01*
X42519Y-30980D01*
X42557Y-30961D01*
X42861Y-31209D02*
X43166Y-31209D01*
X43547Y-30961D02*
X43357Y-30961D01*
X43338Y-31152D01*
X43357Y-31133D01*
X43395Y-31114D01*
X43490Y-31114D01*
X43528Y-31133D01*
X43547Y-31152D01*
X43566Y-31190D01*
X43566Y-31285D01*
X43547Y-31323D01*
X43528Y-31342D01*
X43490Y-31361D01*
X43395Y-31361D01*
X43357Y-31342D01*
X43338Y-31323D01*
X43680Y-30961D02*
X43814Y-31361D01*
X43947Y-30961D01*
X44042Y-31514D02*
X44061Y-31495D01*
X44100Y-31438D01*
X44119Y-31400D01*
X44138Y-31342D01*
X44157Y-31247D01*
X44157Y-31171D01*
X44138Y-31076D01*
X44119Y-31019D01*
X44100Y-30980D01*
X44061Y-30923D01*
X44042Y-30904D01*
X40095Y-29980D02*
X40057Y-29961D01*
X40000Y-29961D01*
X39942Y-29980D01*
X39904Y-30019D01*
X39885Y-30057D01*
X39866Y-30133D01*
X39866Y-30190D01*
X39885Y-30266D01*
X39904Y-30304D01*
X39942Y-30342D01*
X40000Y-30361D01*
X40038Y-30361D01*
X40095Y-30342D01*
X40114Y-30323D01*
X40114Y-30190D01*
X40038Y-30190D01*
X40285Y-30361D02*
X40285Y-29961D01*
X40514Y-30361D01*
X40514Y-29961D01*
X40704Y-30361D02*
X40704Y-29961D01*
X40800Y-29961D01*
X40857Y-29980D01*
X40895Y-30019D01*
X40914Y-30057D01*
X40933Y-30133D01*
X40933Y-30190D01*
X40914Y-30266D01*
X40895Y-30304D01*
X40857Y-30342D01*
X40800Y-30361D01*
X40704Y-30361D01*
X60868Y-48461D02*
G75*
G02X65049Y-45899I2531J561D01*
G74*
G01*
X71731Y-48461D02*
G75*
G03X67550Y-45899I-2531J561D01*
G74*
G01*
X70596Y-50092D02*
G75*
G02X69200Y-50500I-1396J2192D01*
G74*
G01*
X62003Y-50092D02*
G75*
G03X63400Y-50500I1396J2192D01*
G74*
G01*
X63400Y-50500D02*
X69200Y-50500D01*
X65050Y-45900D02*
X67550Y-45900D01*
X46650Y-39100D02*
G75*
G03X46650Y-39100I-50J0D01*
G74*
G01*
X46711Y-39100D02*
G75*
G03X46711Y-39100I-111J0D01*
G74*
G01*
G54D12*
X51828Y-31985D02*
X51857Y-32014D01*
X51828Y-32042D01*
X51800Y-32014D01*
X51828Y-31985D01*
X51828Y-32042D01*
X51828Y-31814D02*
X51800Y-31471D01*
X51828Y-31442D01*
X51857Y-31471D01*
X51828Y-31814D01*
X51828Y-31442D01*
X52571Y-32042D02*
X52571Y-31442D01*
X52571Y-31728D02*
X52914Y-31728D01*
X52914Y-32042D02*
X52914Y-31442D01*
X53428Y-32014D02*
X53371Y-32042D01*
X53257Y-32042D01*
X53200Y-32014D01*
X53171Y-31957D01*
X53171Y-31728D01*
X53200Y-31671D01*
X53257Y-31642D01*
X53371Y-31642D01*
X53428Y-31671D01*
X53457Y-31728D01*
X53457Y-31785D01*
X53171Y-31842D01*
X53971Y-32042D02*
X53971Y-31728D01*
X53942Y-31671D01*
X53885Y-31642D01*
X53771Y-31642D01*
X53714Y-31671D01*
X53971Y-32014D02*
X53914Y-32042D01*
X53771Y-32042D01*
X53714Y-32014D01*
X53685Y-31957D01*
X53685Y-31900D01*
X53714Y-31842D01*
X53771Y-31814D01*
X53914Y-31814D01*
X53971Y-31785D01*
X54171Y-31642D02*
X54400Y-31642D01*
X54257Y-31442D02*
X54257Y-31957D01*
X54285Y-32014D01*
X54342Y-32042D01*
X54400Y-32042D01*
X54571Y-32014D02*
X54628Y-32042D01*
X54742Y-32042D01*
X54800Y-32014D01*
X54828Y-31957D01*
X54828Y-31928D01*
X54800Y-31871D01*
X54742Y-31842D01*
X54657Y-31842D01*
X54600Y-31814D01*
X54571Y-31757D01*
X54571Y-31728D01*
X54600Y-31671D01*
X54657Y-31642D01*
X54742Y-31642D01*
X54800Y-31671D01*
X55085Y-32042D02*
X55085Y-31642D01*
X55085Y-31442D02*
X55057Y-31471D01*
X55085Y-31500D01*
X55114Y-31471D01*
X55085Y-31442D01*
X55085Y-31500D01*
X55371Y-31642D02*
X55371Y-32042D01*
X55371Y-31700D02*
X55400Y-31671D01*
X55457Y-31642D01*
X55542Y-31642D01*
X55600Y-31671D01*
X55628Y-31728D01*
X55628Y-32042D01*
X55914Y-32042D02*
X55914Y-31442D01*
X55971Y-31814D02*
X56142Y-32042D01*
X56142Y-31642D02*
X55914Y-31871D01*
X56857Y-32042D02*
X56857Y-31642D01*
X56857Y-31442D02*
X56828Y-31471D01*
X56857Y-31500D01*
X56885Y-31471D01*
X56857Y-31442D01*
X56857Y-31500D01*
X57114Y-32014D02*
X57171Y-32042D01*
X57285Y-32042D01*
X57342Y-32014D01*
X57371Y-31957D01*
X57371Y-31928D01*
X57342Y-31871D01*
X57285Y-31842D01*
X57200Y-31842D01*
X57142Y-31814D01*
X57114Y-31757D01*
X57114Y-31728D01*
X57142Y-31671D01*
X57200Y-31642D01*
X57285Y-31642D01*
X57342Y-31671D01*
X58371Y-32042D02*
X58085Y-32042D01*
X58085Y-31442D01*
X58571Y-32042D02*
X58571Y-31442D01*
X58771Y-31442D02*
X58971Y-32042D01*
X59171Y-31442D01*
X59371Y-31728D02*
X59571Y-31728D01*
X59657Y-32042D02*
X59371Y-32042D01*
X59371Y-31442D01*
X59657Y-31442D01*
X60371Y-31985D02*
X60400Y-32014D01*
X60371Y-32042D01*
X60342Y-32014D01*
X60371Y-31985D01*
X60371Y-32042D01*
X60371Y-31814D02*
X60342Y-31471D01*
X60371Y-31442D01*
X60400Y-31471D01*
X60371Y-31814D01*
X60371Y-31442D01*
G54D11*
X47600Y-47750D02*
G75*
G03X47600Y-47750I-50J0D01*
G74*
G01*
X47661Y-47750D02*
G75*
G03X47661Y-47750I-111J0D01*
G74*
G01*
X42800Y-47750D02*
G75*
G03X42800Y-47750I-50J0D01*
G74*
G01*
X42850Y-47750D02*
G75*
G03X42850Y-47750I-100J0D01*
G74*
G01*
G54D12*
X70744Y-40884D02*
X70719Y-40860D01*
X70695Y-40811D01*
X70695Y-40689D01*
X70719Y-40640D01*
X70744Y-40616D01*
X70792Y-40592D01*
X70841Y-40592D01*
X70914Y-40616D01*
X71207Y-40909D01*
X71207Y-40592D01*
X70695Y-40275D02*
X70695Y-40226D01*
X70719Y-40177D01*
X70744Y-40153D01*
X70792Y-40128D01*
X70890Y-40104D01*
X71012Y-40104D01*
X71109Y-40128D01*
X71158Y-40153D01*
X71182Y-40177D01*
X71207Y-40226D01*
X71207Y-40275D01*
X71182Y-40324D01*
X71158Y-40348D01*
X71109Y-40372D01*
X71012Y-40397D01*
X70890Y-40397D01*
X70792Y-40372D01*
X70744Y-40348D01*
X70719Y-40324D01*
X70695Y-40275D01*
X70695Y-39958D02*
X71207Y-39787D01*
X70695Y-39616D01*
X71012Y-39446D02*
X71012Y-39056D01*
X70695Y-38568D02*
X70695Y-38812D01*
X70939Y-38836D01*
X70914Y-38812D01*
X70890Y-38763D01*
X70890Y-38641D01*
X70914Y-38592D01*
X70939Y-38568D01*
X70987Y-38544D01*
X71109Y-38544D01*
X71158Y-38568D01*
X71182Y-38592D01*
X71207Y-38641D01*
X71207Y-38763D01*
X71182Y-38812D01*
X71158Y-38836D01*
X71060Y-38349D02*
X71060Y-38105D01*
X71207Y-38397D02*
X70695Y-38227D01*
X71207Y-38056D01*
X70695Y-37812D02*
X70817Y-37812D01*
X70768Y-37934D02*
X70817Y-37812D01*
X70768Y-37690D01*
X70914Y-37885D02*
X70817Y-37812D01*
X70914Y-37739D01*
G54D11*
X73500Y-33200D02*
G75*
G03X70700Y-36000I0J-2800D01*
G74*
G01*
X71550Y-41000D02*
X71550Y-38000D01*
X71537Y-41002D02*
G75*
G03X70700Y-43000I1962J-1997D01*
G74*
G01*
X56100Y-36400D02*
X56100Y-36700D01*
X56050Y-36550D02*
X55900Y-36400D01*
X55900Y-36400D02*
X55900Y-36700D01*
X55900Y-36700D02*
X56050Y-36550D01*
X55650Y-36550D02*
X56350Y-36550D01*
X58300Y-34000D02*
G75*
G03X57300Y-33000I-1000J0D01*
G74*
G01*
X54700Y-33000D02*
G75*
G03X53700Y-34000I0J-1000D01*
G74*
G01*
X57300Y-37100D02*
G75*
G03X58300Y-36100I0J1000D01*
G74*
G01*
X53700Y-36100D02*
G75*
G03X54700Y-37100I1000J0D01*
G74*
G01*
X54700Y-37100D02*
X57300Y-37100D01*
X58300Y-36100D02*
X58300Y-34000D01*
X54700Y-33000D02*
X57300Y-33000D01*
X53700Y-36100D02*
X53700Y-34000D01*
X65271Y-49914D02*
X65728Y-49914D01*
X65500Y-50142D02*
X65500Y-49685D01*
X66909Y-49914D02*
X67290Y-49914D01*
X65850Y-49900D02*
G75*
G03X65850Y-49900I-350J0D01*
G74*
G01*
X67450Y-49900D02*
G75*
G03X67450Y-49900I-350J0D01*
G74*
G01*
X76000Y-40800D02*
G75*
G03X76000Y-40800I-400J0D01*
G74*
G01*
X76024Y-38200D02*
G75*
G03X76024Y-38200I-424J0D01*
G74*
G01*
X75371Y-38214D02*
X75828Y-38214D01*
X75600Y-38442D02*
X75600Y-37985D01*
X75614Y-40990D02*
X75614Y-40609D01*
X43642Y-51709D02*
X43947Y-51709D01*
X44461Y-51861D02*
X44538Y-51861D01*
X44576Y-51842D01*
X44595Y-51823D01*
X44633Y-51766D01*
X44652Y-51690D01*
X44652Y-51538D01*
X44633Y-51500D01*
X44614Y-51480D01*
X44576Y-51461D01*
X44500Y-51461D01*
X44461Y-51480D01*
X44442Y-51500D01*
X44423Y-51538D01*
X44423Y-51633D01*
X44442Y-51671D01*
X44461Y-51690D01*
X44500Y-51709D01*
X44576Y-51709D01*
X44614Y-51690D01*
X44633Y-51671D01*
X44652Y-51633D01*
X44766Y-51461D02*
X44900Y-51861D01*
X45033Y-51461D01*
X45471Y-51861D02*
X45471Y-51461D01*
X45471Y-51614D02*
X45509Y-51595D01*
X45585Y-51595D01*
X45623Y-51614D01*
X45642Y-51633D01*
X45661Y-51671D01*
X45661Y-51785D01*
X45642Y-51823D01*
X45623Y-51842D01*
X45585Y-51861D01*
X45509Y-51861D01*
X45471Y-51842D01*
X46004Y-51861D02*
X46004Y-51652D01*
X45985Y-51614D01*
X45947Y-51595D01*
X45871Y-51595D01*
X45833Y-51614D01*
X46004Y-51842D02*
X45966Y-51861D01*
X45871Y-51861D01*
X45833Y-51842D01*
X45814Y-51804D01*
X45814Y-51766D01*
X45833Y-51728D01*
X45871Y-51709D01*
X45966Y-51709D01*
X46004Y-51690D01*
X46138Y-51595D02*
X46290Y-51595D01*
X46195Y-51461D02*
X46195Y-51804D01*
X46214Y-51842D01*
X46252Y-51861D01*
X46290Y-51861D01*
X46366Y-51595D02*
X46519Y-51595D01*
X46423Y-51461D02*
X46423Y-51804D01*
X46442Y-51842D01*
X46480Y-51861D01*
X46519Y-51861D01*
X46804Y-51842D02*
X46766Y-51861D01*
X46690Y-51861D01*
X46652Y-51842D01*
X46633Y-51804D01*
X46633Y-51652D01*
X46652Y-51614D01*
X46690Y-51595D01*
X46766Y-51595D01*
X46804Y-51614D01*
X46823Y-51652D01*
X46823Y-51690D01*
X46633Y-51728D01*
X46995Y-51861D02*
X46995Y-51595D01*
X46995Y-51671D02*
X47014Y-51633D01*
X47033Y-51614D01*
X47071Y-51595D01*
X47109Y-51595D01*
X47204Y-51595D02*
X47300Y-51861D01*
X47395Y-51595D02*
X47300Y-51861D01*
X47261Y-51957D01*
X47242Y-51976D01*
X47204Y-51995D01*
X47852Y-51709D02*
X48157Y-51709D01*
X48004Y-51861D02*
X48004Y-51557D01*
G54D13*
X61741Y-51978D02*
X61741Y-50797D01*
X62135Y-51640D01*
X62528Y-50797D01*
X62528Y-51978D01*
X63597Y-51190D02*
X63597Y-51978D01*
X63091Y-51190D02*
X63091Y-51809D01*
X63147Y-51921D01*
X63259Y-51978D01*
X63428Y-51978D01*
X63541Y-51921D01*
X63597Y-51865D01*
X64328Y-51978D02*
X64216Y-51921D01*
X64159Y-51809D01*
X64159Y-50797D01*
X64609Y-51190D02*
X65059Y-51190D01*
X64778Y-50797D02*
X64778Y-51809D01*
X64834Y-51921D01*
X64947Y-51978D01*
X65059Y-51978D01*
X65453Y-51978D02*
X65453Y-51190D01*
X65453Y-50797D02*
X65397Y-50853D01*
X65453Y-50909D01*
X65509Y-50853D01*
X65453Y-50797D01*
X65453Y-50909D01*
X66015Y-51978D02*
X66015Y-51190D01*
X66015Y-51303D02*
X66071Y-51246D01*
X66184Y-51190D01*
X66353Y-51190D01*
X66465Y-51246D01*
X66521Y-51359D01*
X66521Y-51978D01*
X66521Y-51359D02*
X66578Y-51246D01*
X66690Y-51190D01*
X66859Y-51190D01*
X66971Y-51246D01*
X67027Y-51359D01*
X67027Y-51978D01*
X68040Y-51921D02*
X67927Y-51978D01*
X67702Y-51978D01*
X67590Y-51921D01*
X67534Y-51809D01*
X67534Y-51359D01*
X67590Y-51246D01*
X67702Y-51190D01*
X67927Y-51190D01*
X68040Y-51246D01*
X68096Y-51359D01*
X68096Y-51471D01*
X67534Y-51584D01*
X68433Y-51190D02*
X68883Y-51190D01*
X68602Y-50797D02*
X68602Y-51809D01*
X68658Y-51921D01*
X68771Y-51978D01*
X68883Y-51978D01*
X69727Y-51921D02*
X69614Y-51978D01*
X69389Y-51978D01*
X69277Y-51921D01*
X69221Y-51809D01*
X69221Y-51359D01*
X69277Y-51246D01*
X69389Y-51190D01*
X69614Y-51190D01*
X69727Y-51246D01*
X69783Y-51359D01*
X69783Y-51471D01*
X69221Y-51584D01*
X70289Y-51978D02*
X70289Y-51190D01*
X70289Y-51415D02*
X70345Y-51303D01*
X70402Y-51246D01*
X70514Y-51190D01*
X70627Y-51190D01*
G54D11*
X76300Y-43000D02*
X76300Y-36000D01*
X70700Y-43000D02*
G75*
G03X73500Y-45800I2800J0D01*
G74*
G01*
X73500Y-45800D02*
G75*
G03X76300Y-43000I0J2800D01*
G74*
G01*
X71537Y-37997D02*
G75*
G02X70700Y-36000I1962J1997D01*
G74*
G01*
X76300Y-36000D02*
G75*
G03X73500Y-33200I-2800J0D01*
G74*
G01*
G54D12*
X54614Y-34142D02*
X54614Y-33542D01*
X54842Y-33542D01*
X54900Y-33571D01*
X54928Y-33600D01*
X54957Y-33657D01*
X54957Y-33742D01*
X54928Y-33800D01*
X54900Y-33828D01*
X54842Y-33857D01*
X54614Y-33857D01*
X55328Y-33542D02*
X55442Y-33542D01*
X55500Y-33571D01*
X55557Y-33628D01*
X55585Y-33742D01*
X55585Y-33942D01*
X55557Y-34057D01*
X55500Y-34114D01*
X55442Y-34142D01*
X55328Y-34142D01*
X55271Y-34114D01*
X55214Y-34057D01*
X55185Y-33942D01*
X55185Y-33742D01*
X55214Y-33628D01*
X55271Y-33571D01*
X55328Y-33542D01*
X55785Y-33542D02*
X55928Y-34142D01*
X56042Y-33714D01*
X56157Y-34142D01*
X56300Y-33542D01*
X56528Y-33828D02*
X56728Y-33828D01*
X56814Y-34142D02*
X56528Y-34142D01*
X56528Y-33542D01*
X56814Y-33542D01*
X57414Y-34142D02*
X57214Y-33857D01*
X57071Y-34142D02*
X57071Y-33542D01*
X57300Y-33542D01*
X57357Y-33571D01*
X57385Y-33600D01*
X57414Y-33657D01*
X57414Y-33742D01*
X57385Y-33800D01*
X57357Y-33828D01*
X57300Y-33857D01*
X57071Y-33857D01*
X37857Y-43942D02*
X37800Y-43914D01*
X37771Y-43885D01*
X37742Y-43828D01*
X37742Y-43657D01*
X37771Y-43600D01*
X37800Y-43571D01*
X37857Y-43542D01*
X37942Y-43542D01*
X38000Y-43571D01*
X38028Y-43600D01*
X38057Y-43657D01*
X38057Y-43828D01*
X38028Y-43885D01*
X38000Y-43914D01*
X37942Y-43942D01*
X37857Y-43942D01*
X38314Y-43542D02*
X38314Y-43942D01*
X38314Y-43600D02*
X38342Y-43571D01*
X38400Y-43542D01*
X38485Y-43542D01*
X38542Y-43571D01*
X38571Y-43628D01*
X38571Y-43942D01*
X39285Y-43314D02*
X38771Y-44085D01*
X39571Y-43942D02*
X39514Y-43914D01*
X39485Y-43885D01*
X39457Y-43828D01*
X39457Y-43657D01*
X39485Y-43600D01*
X39514Y-43571D01*
X39571Y-43542D01*
X39657Y-43542D01*
X39714Y-43571D01*
X39742Y-43600D01*
X39771Y-43657D01*
X39771Y-43828D01*
X39742Y-43885D01*
X39714Y-43914D01*
X39657Y-43942D01*
X39571Y-43942D01*
X39942Y-43542D02*
X40171Y-43542D01*
X40028Y-43942D02*
X40028Y-43428D01*
X40057Y-43371D01*
X40114Y-43342D01*
X40171Y-43342D01*
X40285Y-43542D02*
X40514Y-43542D01*
X40371Y-43942D02*
X40371Y-43428D01*
X40400Y-43371D01*
X40457Y-43342D01*
X40514Y-43342D01*
X65357Y-45442D02*
X65014Y-45442D01*
X65185Y-45442D02*
X65185Y-44842D01*
X65128Y-44928D01*
X65071Y-44985D01*
X65014Y-45014D01*
X65528Y-44842D02*
X65728Y-45442D01*
X65928Y-44842D01*
X66557Y-44814D02*
X66042Y-45585D01*
X67071Y-45442D02*
X66728Y-45442D01*
X66900Y-45442D02*
X66900Y-44842D01*
X66842Y-44928D01*
X66785Y-44985D01*
X66728Y-45014D01*
X67300Y-45271D02*
X67585Y-45271D01*
X67242Y-45442D02*
X67442Y-44842D01*
X67642Y-45442D01*
G54D13*
X72122Y-40078D02*
X72122Y-38897D01*
X72403Y-38897D01*
X72572Y-38953D01*
X72684Y-39065D01*
X72740Y-39178D01*
X72797Y-39403D01*
X72797Y-39571D01*
X72740Y-39796D01*
X72684Y-39909D01*
X72572Y-40021D01*
X72403Y-40078D01*
X72122Y-40078D01*
X73303Y-38897D02*
X73303Y-39853D01*
X73359Y-39965D01*
X73415Y-40021D01*
X73528Y-40078D01*
X73753Y-40078D01*
X73865Y-40021D01*
X73921Y-39965D01*
X73978Y-39853D01*
X73978Y-38897D01*
X74371Y-38897D02*
X75046Y-38897D01*
X74709Y-40078D02*
X74709Y-38897D01*
X52963Y-51865D02*
X52906Y-51921D01*
X52738Y-51978D01*
X52625Y-51978D01*
X52457Y-51921D01*
X52344Y-51809D01*
X52288Y-51696D01*
X52232Y-51471D01*
X52232Y-51303D01*
X52288Y-51078D01*
X52344Y-50965D01*
X52457Y-50853D01*
X52625Y-50797D01*
X52738Y-50797D01*
X52906Y-50853D01*
X52963Y-50909D01*
X53469Y-50797D02*
X53469Y-51753D01*
X53525Y-51865D01*
X53581Y-51921D01*
X53694Y-51978D01*
X53919Y-51978D01*
X54031Y-51921D01*
X54087Y-51865D01*
X54144Y-51753D01*
X54144Y-50797D01*
X55381Y-51978D02*
X54987Y-51415D01*
X54706Y-51978D02*
X54706Y-50797D01*
X55156Y-50797D01*
X55268Y-50853D01*
X55325Y-50909D01*
X55381Y-51021D01*
X55381Y-51190D01*
X55325Y-51303D01*
X55268Y-51359D01*
X55156Y-51415D01*
X54706Y-51415D01*
X56562Y-51978D02*
X56168Y-51415D01*
X55887Y-51978D02*
X55887Y-50797D01*
X56337Y-50797D01*
X56449Y-50853D01*
X56506Y-50909D01*
X56562Y-51021D01*
X56562Y-51190D01*
X56506Y-51303D01*
X56449Y-51359D01*
X56337Y-51415D01*
X55887Y-51415D01*
X57068Y-51359D02*
X57462Y-51359D01*
X57630Y-51978D02*
X57068Y-51978D01*
X57068Y-50797D01*
X57630Y-50797D01*
X58137Y-51978D02*
X58137Y-50797D01*
X58811Y-51978D01*
X58811Y-50797D01*
X59205Y-50797D02*
X59880Y-50797D01*
X59543Y-51978D02*
X59543Y-50797D01*
G54D12*
X39071Y-34942D02*
X39071Y-34342D01*
X39214Y-35000D02*
X39671Y-35000D01*
X40157Y-34885D02*
X40128Y-34914D01*
X40042Y-34942D01*
X39985Y-34942D01*
X39900Y-34914D01*
X39842Y-34857D01*
X39814Y-34800D01*
X39785Y-34685D01*
X39785Y-34600D01*
X39814Y-34485D01*
X39842Y-34428D01*
X39900Y-34371D01*
X39985Y-34342D01*
X40042Y-34342D01*
X40128Y-34371D01*
X40157Y-34400D01*
X40385Y-34771D02*
X40671Y-34771D01*
X40328Y-34942D02*
X40528Y-34342D01*
X40728Y-34942D01*
X41214Y-34942D02*
X40928Y-34942D01*
X40928Y-34342D01*
G54D11*
X54509Y-14809D02*
X54814Y-14809D01*
X55385Y-14771D02*
X55385Y-14961D01*
X55252Y-14561D02*
X55385Y-14771D01*
X55519Y-14561D01*
X55823Y-14961D02*
X55823Y-14752D01*
X55804Y-14714D01*
X55766Y-14695D01*
X55690Y-14695D01*
X55652Y-14714D01*
X55823Y-14942D02*
X55785Y-14961D01*
X55690Y-14961D01*
X55652Y-14942D01*
X55633Y-14904D01*
X55633Y-14866D01*
X55652Y-14828D01*
X55690Y-14809D01*
X55785Y-14809D01*
X55823Y-14790D01*
X56185Y-14695D02*
X56185Y-14961D01*
X56014Y-14695D02*
X56014Y-14904D01*
X56033Y-14942D01*
X56071Y-14961D01*
X56128Y-14961D01*
X56166Y-14942D01*
X56185Y-14923D01*
X56376Y-14961D02*
X56376Y-14561D01*
X56471Y-14561D01*
X56528Y-14580D01*
X56566Y-14619D01*
X56585Y-14657D01*
X56604Y-14733D01*
X56604Y-14790D01*
X56585Y-14866D01*
X56566Y-14904D01*
X56528Y-14942D01*
X56471Y-14961D01*
X56376Y-14961D01*
X56966Y-14961D02*
X56776Y-14961D01*
X56776Y-14561D01*
X57347Y-14561D02*
X57480Y-14961D01*
X57614Y-14561D01*
X57957Y-14961D02*
X57728Y-14961D01*
X57842Y-14961D02*
X57842Y-14561D01*
X57804Y-14619D01*
X57766Y-14657D01*
X57728Y-14676D01*
X58128Y-14923D02*
X58147Y-14942D01*
X58128Y-14961D01*
X58109Y-14942D01*
X58128Y-14923D01*
X58128Y-14961D01*
X58395Y-14561D02*
X58433Y-14561D01*
X58471Y-14580D01*
X58490Y-14600D01*
X58509Y-14638D01*
X58528Y-14714D01*
X58528Y-14809D01*
X58509Y-14885D01*
X58490Y-14923D01*
X58471Y-14942D01*
X58433Y-14961D01*
X58395Y-14961D01*
X58357Y-14942D01*
X58338Y-14923D01*
X58319Y-14885D01*
X58300Y-14809D01*
X58300Y-14714D01*
X58319Y-14638D01*
X58338Y-14600D01*
X58357Y-14580D01*
X58395Y-14561D01*
X58909Y-14961D02*
X58680Y-14961D01*
X58795Y-14961D02*
X58795Y-14561D01*
X58757Y-14619D01*
X58719Y-14657D01*
X58680Y-14676D01*
X59385Y-14809D02*
X59690Y-14809D01*
X50890Y-15754D02*
X50871Y-15735D01*
X50833Y-15678D01*
X50814Y-15640D01*
X50795Y-15582D01*
X50776Y-15487D01*
X50776Y-15411D01*
X50795Y-15316D01*
X50814Y-15259D01*
X50833Y-15220D01*
X50871Y-15163D01*
X50890Y-15144D01*
X51119Y-15411D02*
X51119Y-15601D01*
X50985Y-15201D02*
X51119Y-15411D01*
X51252Y-15201D01*
X51347Y-15754D02*
X51366Y-15735D01*
X51404Y-15678D01*
X51423Y-15640D01*
X51442Y-15582D01*
X51461Y-15487D01*
X51461Y-15411D01*
X51442Y-15316D01*
X51423Y-15259D01*
X51404Y-15220D01*
X51366Y-15163D01*
X51347Y-15144D01*
X51804Y-15582D02*
X51766Y-15601D01*
X51690Y-15601D01*
X51652Y-15582D01*
X51633Y-15544D01*
X51633Y-15392D01*
X51652Y-15354D01*
X51690Y-15335D01*
X51766Y-15335D01*
X51804Y-15354D01*
X51823Y-15392D01*
X51823Y-15430D01*
X51633Y-15468D01*
X51938Y-15335D02*
X52090Y-15335D01*
X51995Y-15201D02*
X51995Y-15544D01*
X52014Y-15582D01*
X52052Y-15601D01*
X52090Y-15601D01*
X52642Y-15754D02*
X52623Y-15735D01*
X52585Y-15678D01*
X52566Y-15640D01*
X52547Y-15582D01*
X52528Y-15487D01*
X52528Y-15411D01*
X52547Y-15316D01*
X52566Y-15259D01*
X52585Y-15220D01*
X52623Y-15163D01*
X52642Y-15144D01*
X52966Y-15601D02*
X52966Y-15392D01*
X52947Y-15354D01*
X52909Y-15335D01*
X52833Y-15335D01*
X52795Y-15354D01*
X52966Y-15582D02*
X52928Y-15601D01*
X52833Y-15601D01*
X52795Y-15582D01*
X52776Y-15544D01*
X52776Y-15506D01*
X52795Y-15468D01*
X52833Y-15449D01*
X52928Y-15449D01*
X52966Y-15430D01*
X53119Y-15754D02*
X53138Y-15735D01*
X53176Y-15678D01*
X53195Y-15640D01*
X53214Y-15582D01*
X53233Y-15487D01*
X53233Y-15411D01*
X53214Y-15316D01*
X53195Y-15259D01*
X53176Y-15220D01*
X53138Y-15163D01*
X53119Y-15144D01*
X53423Y-15335D02*
X53423Y-15601D01*
X53423Y-15373D02*
X53442Y-15354D01*
X53480Y-15335D01*
X53538Y-15335D01*
X53576Y-15354D01*
X53595Y-15392D01*
X53595Y-15601D01*
X53842Y-15601D02*
X53804Y-15582D01*
X53785Y-15563D01*
X53766Y-15525D01*
X53766Y-15411D01*
X53785Y-15373D01*
X53804Y-15354D01*
X53842Y-15335D01*
X53900Y-15335D01*
X53938Y-15354D01*
X53957Y-15373D01*
X53976Y-15411D01*
X53976Y-15525D01*
X53957Y-15563D01*
X53938Y-15582D01*
X53900Y-15601D01*
X53842Y-15601D01*
X54090Y-15335D02*
X54242Y-15335D01*
X54147Y-15201D02*
X54147Y-15544D01*
X54166Y-15582D01*
X54204Y-15601D01*
X54242Y-15601D01*
X54376Y-15601D02*
X54376Y-15201D01*
X54547Y-15601D02*
X54547Y-15392D01*
X54528Y-15354D01*
X54490Y-15335D01*
X54433Y-15335D01*
X54395Y-15354D01*
X54376Y-15373D01*
X54890Y-15582D02*
X54852Y-15601D01*
X54776Y-15601D01*
X54738Y-15582D01*
X54719Y-15544D01*
X54719Y-15392D01*
X54738Y-15354D01*
X54776Y-15335D01*
X54852Y-15335D01*
X54890Y-15354D01*
X54909Y-15392D01*
X54909Y-15430D01*
X54719Y-15468D01*
X55080Y-15601D02*
X55080Y-15335D01*
X55080Y-15411D02*
X55100Y-15373D01*
X55119Y-15354D01*
X55157Y-15335D01*
X55195Y-15335D01*
X55747Y-15754D02*
X55728Y-15735D01*
X55690Y-15678D01*
X55671Y-15640D01*
X55652Y-15582D01*
X55633Y-15487D01*
X55633Y-15411D01*
X55652Y-15316D01*
X55671Y-15259D01*
X55690Y-15220D01*
X55728Y-15163D01*
X55747Y-15144D01*
X56071Y-15335D02*
X56071Y-15601D01*
X55900Y-15335D02*
X55900Y-15544D01*
X55919Y-15582D01*
X55957Y-15601D01*
X56014Y-15601D01*
X56052Y-15582D01*
X56071Y-15563D01*
X56223Y-15754D02*
X56242Y-15735D01*
X56280Y-15678D01*
X56300Y-15640D01*
X56319Y-15582D01*
X56338Y-15487D01*
X56338Y-15411D01*
X56319Y-15316D01*
X56300Y-15259D01*
X56280Y-15220D01*
X56242Y-15163D01*
X56223Y-15144D01*
X56509Y-15582D02*
X56547Y-15601D01*
X56623Y-15601D01*
X56661Y-15582D01*
X56680Y-15544D01*
X56680Y-15525D01*
X56661Y-15487D01*
X56623Y-15468D01*
X56566Y-15468D01*
X56528Y-15449D01*
X56509Y-15411D01*
X56509Y-15392D01*
X56528Y-15354D01*
X56566Y-15335D01*
X56623Y-15335D01*
X56661Y-15354D01*
X57004Y-15582D02*
X56966Y-15601D01*
X56890Y-15601D01*
X56852Y-15582D01*
X56833Y-15544D01*
X56833Y-15392D01*
X56852Y-15354D01*
X56890Y-15335D01*
X56966Y-15335D01*
X57004Y-15354D01*
X57023Y-15392D01*
X57023Y-15430D01*
X56833Y-15468D01*
X57252Y-15601D02*
X57214Y-15582D01*
X57195Y-15544D01*
X57195Y-15201D01*
X57557Y-15582D02*
X57519Y-15601D01*
X57442Y-15601D01*
X57404Y-15582D01*
X57385Y-15544D01*
X57385Y-15392D01*
X57404Y-15354D01*
X57442Y-15335D01*
X57519Y-15335D01*
X57557Y-15354D01*
X57576Y-15392D01*
X57576Y-15430D01*
X57385Y-15468D01*
X57728Y-15582D02*
X57766Y-15601D01*
X57842Y-15601D01*
X57880Y-15582D01*
X57899Y-15544D01*
X57899Y-15525D01*
X57880Y-15487D01*
X57842Y-15468D01*
X57785Y-15468D01*
X57747Y-15449D01*
X57728Y-15411D01*
X57728Y-15392D01*
X57747Y-15354D01*
X57785Y-15335D01*
X57842Y-15335D01*
X57880Y-15354D01*
X58052Y-15582D02*
X58090Y-15601D01*
X58166Y-15601D01*
X58204Y-15582D01*
X58223Y-15544D01*
X58223Y-15525D01*
X58204Y-15487D01*
X58166Y-15468D01*
X58109Y-15468D01*
X58071Y-15449D01*
X58052Y-15411D01*
X58052Y-15392D01*
X58071Y-15354D01*
X58109Y-15335D01*
X58166Y-15335D01*
X58204Y-15354D01*
X58814Y-15754D02*
X58795Y-15735D01*
X58757Y-15678D01*
X58738Y-15640D01*
X58719Y-15582D01*
X58699Y-15487D01*
X58699Y-15411D01*
X58719Y-15316D01*
X58738Y-15259D01*
X58757Y-15220D01*
X58795Y-15163D01*
X58814Y-15144D01*
X58966Y-15601D02*
X58966Y-15201D01*
X59061Y-15201D01*
X59119Y-15220D01*
X59157Y-15259D01*
X59176Y-15297D01*
X59195Y-15373D01*
X59195Y-15430D01*
X59176Y-15506D01*
X59157Y-15544D01*
X59119Y-15582D01*
X59061Y-15601D01*
X58966Y-15601D01*
X59328Y-15754D02*
X59347Y-15735D01*
X59385Y-15678D01*
X59404Y-15640D01*
X59423Y-15582D01*
X59442Y-15487D01*
X59442Y-15411D01*
X59423Y-15316D01*
X59404Y-15259D01*
X59385Y-15220D01*
X59347Y-15163D01*
X59328Y-15144D01*
X59804Y-15335D02*
X59804Y-15601D01*
X59633Y-15335D02*
X59633Y-15544D01*
X59652Y-15582D01*
X59690Y-15601D01*
X59747Y-15601D01*
X59785Y-15582D01*
X59804Y-15563D01*
X59995Y-15601D02*
X59995Y-15335D01*
X59995Y-15373D02*
X60014Y-15354D01*
X60052Y-15335D01*
X60109Y-15335D01*
X60147Y-15354D01*
X60166Y-15392D01*
X60166Y-15601D01*
X60166Y-15392D02*
X60185Y-15354D01*
X60223Y-15335D01*
X60280Y-15335D01*
X60319Y-15354D01*
X60338Y-15392D01*
X60338Y-15601D01*
X60528Y-15601D02*
X60528Y-15335D01*
X60528Y-15373D02*
X60547Y-15354D01*
X60585Y-15335D01*
X60642Y-15335D01*
X60680Y-15354D01*
X60699Y-15392D01*
X60699Y-15601D01*
X60699Y-15392D02*
X60719Y-15354D01*
X60757Y-15335D01*
X60814Y-15335D01*
X60852Y-15354D01*
X60871Y-15392D01*
X60871Y-15601D01*
X61023Y-15335D02*
X61119Y-15601D01*
X61214Y-15335D02*
X61119Y-15601D01*
X61080Y-15697D01*
X61061Y-15716D01*
X61023Y-15735D01*
X61785Y-15754D02*
X61766Y-15735D01*
X61728Y-15678D01*
X61709Y-15640D01*
X61690Y-15582D01*
X61671Y-15487D01*
X61671Y-15411D01*
X61690Y-15316D01*
X61709Y-15259D01*
X61728Y-15220D01*
X61766Y-15163D01*
X61785Y-15144D01*
X62128Y-15601D02*
X61938Y-15601D01*
X61938Y-15201D01*
X62223Y-15754D02*
X62242Y-15735D01*
X62280Y-15678D01*
X62299Y-15640D01*
X62319Y-15582D01*
X62338Y-15487D01*
X62338Y-15411D01*
X62319Y-15316D01*
X62299Y-15259D01*
X62280Y-15220D01*
X62242Y-15163D01*
X62223Y-15144D01*
X62585Y-15601D02*
X62547Y-15582D01*
X62528Y-15563D01*
X62509Y-15525D01*
X62509Y-15411D01*
X62528Y-15373D01*
X62547Y-15354D01*
X62585Y-15335D01*
X62642Y-15335D01*
X62680Y-15354D01*
X62699Y-15373D01*
X62719Y-15411D01*
X62719Y-15525D01*
X62699Y-15563D01*
X62680Y-15582D01*
X62642Y-15601D01*
X62585Y-15601D01*
X63061Y-15601D02*
X63061Y-15392D01*
X63042Y-15354D01*
X63004Y-15335D01*
X62928Y-15335D01*
X62890Y-15354D01*
X63061Y-15582D02*
X63023Y-15601D01*
X62928Y-15601D01*
X62890Y-15582D01*
X62871Y-15544D01*
X62871Y-15506D01*
X62890Y-15468D01*
X62928Y-15449D01*
X63023Y-15449D01*
X63061Y-15430D01*
X63423Y-15601D02*
X63423Y-15201D01*
X63423Y-15582D02*
X63385Y-15601D01*
X63309Y-15601D01*
X63271Y-15582D01*
X63252Y-15563D01*
X63233Y-15525D01*
X63233Y-15411D01*
X63252Y-15373D01*
X63271Y-15354D01*
X63309Y-15335D01*
X63385Y-15335D01*
X63423Y-15354D01*
X52804Y-15880D02*
X52823Y-15860D01*
X52861Y-15841D01*
X52957Y-15841D01*
X52995Y-15860D01*
X53014Y-15880D01*
X53033Y-15918D01*
X53033Y-15956D01*
X53014Y-16013D01*
X52785Y-16241D01*
X53033Y-16241D01*
X53280Y-15841D02*
X53319Y-15841D01*
X53357Y-15860D01*
X53376Y-15880D01*
X53395Y-15918D01*
X53414Y-15994D01*
X53414Y-16089D01*
X53395Y-16165D01*
X53376Y-16203D01*
X53357Y-16222D01*
X53319Y-16241D01*
X53280Y-16241D01*
X53242Y-16222D01*
X53223Y-16203D01*
X53204Y-16165D01*
X53185Y-16089D01*
X53185Y-15994D01*
X53204Y-15918D01*
X53223Y-15880D01*
X53242Y-15860D01*
X53280Y-15841D01*
X53795Y-16241D02*
X53566Y-16241D01*
X53680Y-16241D02*
X53680Y-15841D01*
X53642Y-15899D01*
X53604Y-15937D01*
X53566Y-15956D01*
X53947Y-15880D02*
X53966Y-15860D01*
X54004Y-15841D01*
X54100Y-15841D01*
X54138Y-15860D01*
X54157Y-15880D01*
X54176Y-15918D01*
X54176Y-15956D01*
X54157Y-16013D01*
X53928Y-16241D01*
X54176Y-16241D01*
X54652Y-16089D02*
X54957Y-16089D01*
X55452Y-16241D02*
X55452Y-15841D01*
X55452Y-15994D02*
X55490Y-15975D01*
X55566Y-15975D01*
X55604Y-15994D01*
X55623Y-16013D01*
X55642Y-16051D01*
X55642Y-16165D01*
X55623Y-16203D01*
X55604Y-16222D01*
X55566Y-16241D01*
X55490Y-16241D01*
X55452Y-16222D01*
X55871Y-16241D02*
X55833Y-16222D01*
X55814Y-16184D01*
X55814Y-15841D01*
X56080Y-16241D02*
X56042Y-16222D01*
X56023Y-16203D01*
X56004Y-16165D01*
X56004Y-16051D01*
X56023Y-16013D01*
X56042Y-15994D01*
X56080Y-15975D01*
X56138Y-15975D01*
X56176Y-15994D01*
X56195Y-16013D01*
X56214Y-16051D01*
X56214Y-16165D01*
X56195Y-16203D01*
X56176Y-16222D01*
X56138Y-16241D01*
X56080Y-16241D01*
X56557Y-15975D02*
X56557Y-16299D01*
X56538Y-16337D01*
X56519Y-16356D01*
X56480Y-16375D01*
X56423Y-16375D01*
X56385Y-16356D01*
X56557Y-16222D02*
X56519Y-16241D01*
X56442Y-16241D01*
X56404Y-16222D01*
X56385Y-16203D01*
X56366Y-16165D01*
X56366Y-16051D01*
X56385Y-16013D01*
X56404Y-15994D01*
X56442Y-15975D01*
X56519Y-15975D01*
X56557Y-15994D01*
X56747Y-16203D02*
X56766Y-16222D01*
X56747Y-16241D01*
X56728Y-16222D01*
X56747Y-16203D01*
X56747Y-16241D01*
X56919Y-16222D02*
X56957Y-16241D01*
X57033Y-16241D01*
X57071Y-16222D01*
X57090Y-16184D01*
X57090Y-16165D01*
X57071Y-16127D01*
X57033Y-16108D01*
X56976Y-16108D01*
X56938Y-16089D01*
X56919Y-16051D01*
X56919Y-16032D01*
X56938Y-15994D01*
X56976Y-15975D01*
X57033Y-15975D01*
X57071Y-15994D01*
X57261Y-15975D02*
X57261Y-16375D01*
X57261Y-15994D02*
X57300Y-15975D01*
X57376Y-15975D01*
X57414Y-15994D01*
X57433Y-16013D01*
X57452Y-16051D01*
X57452Y-16165D01*
X57433Y-16203D01*
X57414Y-16222D01*
X57376Y-16241D01*
X57300Y-16241D01*
X57261Y-16222D01*
X57623Y-16241D02*
X57623Y-15975D01*
X57623Y-15841D02*
X57604Y-15860D01*
X57623Y-15880D01*
X57642Y-15860D01*
X57623Y-15841D01*
X57623Y-15880D01*
X57757Y-15975D02*
X57909Y-15975D01*
X57814Y-15841D02*
X57814Y-16184D01*
X57833Y-16222D01*
X57871Y-16241D01*
X57909Y-16241D01*
X58004Y-15975D02*
X58214Y-15975D01*
X58004Y-16241D01*
X58214Y-16241D01*
X58519Y-16222D02*
X58480Y-16241D01*
X58404Y-16241D01*
X58366Y-16222D01*
X58347Y-16184D01*
X58347Y-16032D01*
X58366Y-15994D01*
X58404Y-15975D01*
X58480Y-15975D01*
X58519Y-15994D01*
X58538Y-16032D01*
X58538Y-16070D01*
X58347Y-16108D01*
X58709Y-15975D02*
X58709Y-16241D01*
X58709Y-16013D02*
X58728Y-15994D01*
X58766Y-15975D01*
X58823Y-15975D01*
X58861Y-15994D01*
X58880Y-16032D01*
X58880Y-16241D01*
X59071Y-15975D02*
X59071Y-16375D01*
X59071Y-15994D02*
X59109Y-15975D01*
X59185Y-15975D01*
X59223Y-15994D01*
X59242Y-16013D01*
X59261Y-16051D01*
X59261Y-16165D01*
X59242Y-16203D01*
X59223Y-16222D01*
X59185Y-16241D01*
X59109Y-16241D01*
X59071Y-16222D01*
X59376Y-15975D02*
X59528Y-15975D01*
X59433Y-16241D02*
X59433Y-15899D01*
X59452Y-15860D01*
X59490Y-15841D01*
X59528Y-15841D01*
X59814Y-16222D02*
X59776Y-16241D01*
X59700Y-16241D01*
X59661Y-16222D01*
X59642Y-16184D01*
X59642Y-16032D01*
X59661Y-15994D01*
X59700Y-15975D01*
X59776Y-15975D01*
X59814Y-15994D01*
X59833Y-16032D01*
X59833Y-16070D01*
X59642Y-16108D01*
X60004Y-16241D02*
X60004Y-15975D01*
X60004Y-15841D02*
X59985Y-15860D01*
X60004Y-15880D01*
X60023Y-15860D01*
X60004Y-15841D01*
X60004Y-15880D01*
X60252Y-16241D02*
X60214Y-16222D01*
X60195Y-16184D01*
X60195Y-15841D01*
X60404Y-16203D02*
X60423Y-16222D01*
X60404Y-16241D01*
X60385Y-16222D01*
X60404Y-16203D01*
X60404Y-16241D01*
X60652Y-16241D02*
X60614Y-16222D01*
X60595Y-16203D01*
X60576Y-16165D01*
X60576Y-16051D01*
X60595Y-16013D01*
X60614Y-15994D01*
X60652Y-15975D01*
X60709Y-15975D01*
X60747Y-15994D01*
X60766Y-16013D01*
X60785Y-16051D01*
X60785Y-16165D01*
X60766Y-16203D01*
X60747Y-16222D01*
X60709Y-16241D01*
X60652Y-16241D01*
X60957Y-16241D02*
X60957Y-15975D01*
X60957Y-16051D02*
X60976Y-16013D01*
X60995Y-15994D01*
X61033Y-15975D01*
X61071Y-15975D01*
X61376Y-15975D02*
X61376Y-16299D01*
X61357Y-16337D01*
X61338Y-16356D01*
X61300Y-16375D01*
X61242Y-16375D01*
X61204Y-16356D01*
X61376Y-16222D02*
X61338Y-16241D01*
X61261Y-16241D01*
X61223Y-16222D01*
X61204Y-16203D01*
X61185Y-16165D01*
X61185Y-16051D01*
X61204Y-16013D01*
X61223Y-15994D01*
X61261Y-15975D01*
X61338Y-15975D01*
X61376Y-15994D01*
G54D14*
X41833Y-39089D02*
X38311Y-39089D01*
X38311Y-39089D02*
X38311Y-35311D01*
X38311Y-35311D02*
X41833Y-35311D01*
X42089Y-35665D02*
X41833Y-35921D01*
X41833Y-35921D02*
X41833Y-38479D01*
X41833Y-38479D02*
X42089Y-38735D01*
X42089Y-38735D02*
X42089Y-38833D01*
X42089Y-38833D02*
X41833Y-39089D01*
G54D15*
X38252Y-36315D02*
X37779Y-36315D01*
X37779Y-36315D02*
X37779Y-36000D01*
X37779Y-36000D02*
X37956Y-36000D01*
X37956Y-36000D02*
X37956Y-35783D01*
X37956Y-35783D02*
X37779Y-35783D01*
X37779Y-35783D02*
X37779Y-35449D01*
X37779Y-35449D02*
X38252Y-35449D01*
G54D14*
X42089Y-35567D02*
X42089Y-35665D01*
X41833Y-35311D02*
X42089Y-35567D01*
G54D16*
G36*
X54132Y-24405D02*
X54036Y-24405D01*
X54036Y-24309D01*
X54036Y-22691D01*
X44374Y-22691D01*
X44374Y-24309D01*
X54036Y-24309D01*
X54036Y-24405D01*
X44287Y-24405D01*
X44287Y-22605D01*
X54132Y-22605D01*
X54132Y-24405D01*
X54132Y-24405D01*
X54132Y-24405D01*
G37*
G36*
X45000Y-24010D02*
X44957Y-24010D01*
X44930Y-24009D01*
X44918Y-24004D01*
X44913Y-23992D01*
X44913Y-23981D01*
X44913Y-23952D01*
X44913Y-23856D01*
X44913Y-23779D01*
X44913Y-23702D01*
X44831Y-23702D01*
X44750Y-23702D01*
X44750Y-23779D01*
X44750Y-23856D01*
X44831Y-23856D01*
X44913Y-23856D01*
X44913Y-23952D01*
X44831Y-23952D01*
X44750Y-23952D01*
X44750Y-23981D01*
X44748Y-23998D01*
X44742Y-24007D01*
X44725Y-24010D01*
X44701Y-24010D01*
X44653Y-24010D01*
X44653Y-23813D01*
X44653Y-23615D01*
X44827Y-23615D01*
X45000Y-23615D01*
X45000Y-23813D01*
X45000Y-24010D01*
X45000Y-24010D01*
X45000Y-24010D01*
G37*
G36*
X46792Y-23827D02*
X46320Y-23827D01*
X46320Y-24010D01*
X46224Y-24010D01*
X46224Y-23827D01*
X45752Y-23827D01*
X45752Y-23740D01*
X46224Y-23740D01*
X46224Y-23682D01*
X46224Y-23596D01*
X46224Y-23519D01*
X46224Y-23443D01*
X46224Y-23366D01*
X45954Y-23366D01*
X45954Y-23443D01*
X46224Y-23443D01*
X46224Y-23519D01*
X45954Y-23519D01*
X45954Y-23596D01*
X46224Y-23596D01*
X46224Y-23682D01*
X45857Y-23682D01*
X45857Y-23289D01*
X46686Y-23289D01*
X46686Y-23682D01*
X46599Y-23682D01*
X46599Y-23596D01*
X46599Y-23519D01*
X46599Y-23443D01*
X46599Y-23366D01*
X46320Y-23366D01*
X46320Y-23443D01*
X46599Y-23443D01*
X46599Y-23519D01*
X46320Y-23519D01*
X46320Y-23596D01*
X46599Y-23596D01*
X46599Y-23682D01*
X46320Y-23682D01*
X46320Y-23740D01*
X46792Y-23740D01*
X46792Y-23827D01*
X46792Y-23827D01*
X46792Y-23827D01*
G37*
G36*
X47322Y-23491D02*
X47207Y-23491D01*
X47092Y-23491D01*
X47082Y-23520D01*
X47075Y-23543D01*
X47071Y-23558D01*
X47071Y-23559D01*
X47080Y-23562D01*
X47105Y-23565D01*
X47141Y-23566D01*
X47183Y-23567D01*
X47296Y-23567D01*
X47289Y-23661D01*
X47279Y-23758D01*
X47266Y-23837D01*
X47249Y-23900D01*
X47227Y-23947D01*
X47200Y-23980D01*
X47166Y-24000D01*
X47125Y-24008D01*
X47106Y-24009D01*
X47073Y-24007D01*
X47045Y-24005D01*
X47036Y-24003D01*
X47017Y-23990D01*
X47006Y-23960D01*
X47004Y-23935D01*
X47006Y-23922D01*
X47013Y-23915D01*
X47033Y-23913D01*
X47055Y-23914D01*
X47098Y-23915D01*
X47126Y-23914D01*
X47143Y-23910D01*
X47153Y-23901D01*
X47160Y-23887D01*
X47162Y-23882D01*
X47168Y-23862D01*
X47175Y-23828D01*
X47183Y-23787D01*
X47189Y-23744D01*
X47194Y-23705D01*
X47196Y-23675D01*
X47196Y-23671D01*
X47187Y-23668D01*
X47163Y-23665D01*
X47126Y-23664D01*
X47081Y-23663D01*
X47071Y-23663D01*
X47017Y-23663D01*
X46979Y-23661D01*
X46957Y-23658D01*
X46947Y-23654D01*
X46946Y-23651D01*
X46949Y-23637D01*
X46957Y-23609D01*
X46967Y-23574D01*
X46970Y-23567D01*
X46993Y-23496D01*
X46945Y-23493D01*
X46898Y-23490D01*
X46898Y-23447D01*
X46898Y-23404D01*
X47110Y-23404D01*
X47322Y-23404D01*
X47322Y-23448D01*
X47322Y-23491D01*
X47322Y-23491D01*
X47322Y-23491D01*
G37*
G36*
X47919Y-23452D02*
X47914Y-23492D01*
X47900Y-23524D01*
X47880Y-23545D01*
X47874Y-23548D01*
X47856Y-23552D01*
X47823Y-23554D01*
X47779Y-23556D01*
X47729Y-23557D01*
X47712Y-23557D01*
X47650Y-23557D01*
X47604Y-23554D01*
X47572Y-23549D01*
X47550Y-23539D01*
X47538Y-23524D01*
X47531Y-23502D01*
X47527Y-23483D01*
X47522Y-23458D01*
X47514Y-23446D01*
X47499Y-23443D01*
X47494Y-23443D01*
X47473Y-23439D01*
X47463Y-23423D01*
X47461Y-23416D01*
X47455Y-23393D01*
X47452Y-23379D01*
X47458Y-23370D01*
X47479Y-23363D01*
X47486Y-23362D01*
X47510Y-23357D01*
X47521Y-23349D01*
X47524Y-23331D01*
X47524Y-23312D01*
X47524Y-23269D01*
X47482Y-23269D01*
X47440Y-23269D01*
X47435Y-23488D01*
X47431Y-23586D01*
X47427Y-23665D01*
X47421Y-23728D01*
X47414Y-23773D01*
X47413Y-23779D01*
X47403Y-23819D01*
X47390Y-23863D01*
X47374Y-23907D01*
X47359Y-23947D01*
X47344Y-23980D01*
X47332Y-24001D01*
X47327Y-24006D01*
X47313Y-24003D01*
X47291Y-23992D01*
X47281Y-23985D01*
X47245Y-23962D01*
X47260Y-23926D01*
X47282Y-23871D01*
X47302Y-23808D01*
X47320Y-23745D01*
X47331Y-23691D01*
X47331Y-23690D01*
X47334Y-23663D01*
X47337Y-23620D01*
X47339Y-23565D01*
X47340Y-23502D01*
X47341Y-23436D01*
X47341Y-23407D01*
X47341Y-23183D01*
X47447Y-23183D01*
X47553Y-23183D01*
X47553Y-23077D01*
X47553Y-22971D01*
X47601Y-22971D01*
X47649Y-22971D01*
X47649Y-23004D01*
X47649Y-23038D01*
X47775Y-23038D01*
X47900Y-23038D01*
X47900Y-23081D01*
X47900Y-23125D01*
X47775Y-23125D01*
X47649Y-23125D01*
X47649Y-23154D01*
X47649Y-23183D01*
X47784Y-23183D01*
X47919Y-23183D01*
X47919Y-23229D01*
X47915Y-23268D01*
X47900Y-23305D01*
X47890Y-23320D01*
X47874Y-23345D01*
X47860Y-23361D01*
X47855Y-23366D01*
X47844Y-23360D01*
X47824Y-23347D01*
X47817Y-23341D01*
X47797Y-23325D01*
X47790Y-23314D01*
X47795Y-23300D01*
X47800Y-23293D01*
X47816Y-23269D01*
X47718Y-23269D01*
X47620Y-23269D01*
X47620Y-23304D01*
X47620Y-23339D01*
X47676Y-23332D01*
X47709Y-23328D01*
X47737Y-23324D01*
X47748Y-23321D01*
X47760Y-23321D01*
X47765Y-23335D01*
X47765Y-23345D01*
X47767Y-23370D01*
X47770Y-23388D01*
X47769Y-23396D01*
X47756Y-23403D01*
X47726Y-23408D01*
X47720Y-23409D01*
X47675Y-23414D01*
X47646Y-23420D01*
X47630Y-23426D01*
X47623Y-23435D01*
X47622Y-23447D01*
X47622Y-23451D01*
X47624Y-23463D01*
X47630Y-23471D01*
X47643Y-23475D01*
X47667Y-23477D01*
X47707Y-23479D01*
X47711Y-23479D01*
X47758Y-23480D01*
X47790Y-23477D01*
X47809Y-23469D01*
X47821Y-23454D01*
X47828Y-23432D01*
X47832Y-23414D01*
X47839Y-23406D01*
X47853Y-23407D01*
X47880Y-23415D01*
X47882Y-23415D01*
X47907Y-23425D01*
X47917Y-23437D01*
X47919Y-23452D01*
X47919Y-23452D01*
X47919Y-23452D01*
G37*
G36*
X47939Y-23855D02*
X47936Y-23884D01*
X47928Y-23919D01*
X47912Y-23960D01*
X47889Y-23985D01*
X47854Y-23997D01*
X47806Y-23998D01*
X47772Y-23996D01*
X47748Y-23990D01*
X47731Y-23979D01*
X47720Y-23960D01*
X47714Y-23930D01*
X47711Y-23886D01*
X47709Y-23827D01*
X47706Y-23692D01*
X47645Y-23692D01*
X47585Y-23692D01*
X47579Y-23767D01*
X47574Y-23809D01*
X47568Y-23849D01*
X47561Y-23878D01*
X47561Y-23879D01*
X47550Y-23903D01*
X47530Y-23932D01*
X47507Y-23962D01*
X47484Y-23988D01*
X47464Y-24005D01*
X47453Y-24010D01*
X47439Y-24004D01*
X47420Y-23988D01*
X47415Y-23983D01*
X47398Y-23964D01*
X47390Y-23950D01*
X47389Y-23948D01*
X47395Y-23937D01*
X47411Y-23917D01*
X47427Y-23899D01*
X47449Y-23872D01*
X47465Y-23844D01*
X47476Y-23810D01*
X47484Y-23766D01*
X47490Y-23708D01*
X47490Y-23700D01*
X47497Y-23615D01*
X47650Y-23615D01*
X47803Y-23615D01*
X47806Y-23762D01*
X47807Y-23819D01*
X47809Y-23860D01*
X47811Y-23886D01*
X47815Y-23902D01*
X47820Y-23908D01*
X47823Y-23909D01*
X47832Y-23903D01*
X47838Y-23883D01*
X47840Y-23860D01*
X47843Y-23811D01*
X47891Y-23820D01*
X47918Y-23827D01*
X47933Y-23837D01*
X47939Y-23855D01*
X47939Y-23855D01*
X47939Y-23855D01*
G37*
G36*
X45646Y-23115D02*
X45549Y-23115D01*
X45453Y-23115D01*
X45453Y-23523D01*
X45453Y-23639D01*
X45452Y-23737D01*
X45451Y-23816D01*
X45449Y-23877D01*
X45447Y-23921D01*
X45444Y-23947D01*
X45442Y-23956D01*
X45429Y-23976D01*
X45407Y-23989D01*
X45373Y-23997D01*
X45326Y-24000D01*
X45299Y-24000D01*
X45214Y-24000D01*
X45208Y-23964D01*
X45202Y-23936D01*
X45197Y-23915D01*
X45197Y-23913D01*
X45197Y-23904D01*
X45205Y-23900D01*
X45224Y-23900D01*
X45260Y-23902D01*
X45305Y-23903D01*
X45333Y-23899D01*
X45342Y-23895D01*
X45346Y-23889D01*
X45349Y-23879D01*
X45351Y-23863D01*
X45353Y-23838D01*
X45354Y-23803D01*
X45355Y-23756D01*
X45356Y-23696D01*
X45356Y-23620D01*
X45357Y-23528D01*
X45357Y-23499D01*
X45357Y-23115D01*
X45207Y-23115D01*
X45058Y-23115D01*
X45058Y-23067D01*
X45058Y-23019D01*
X45352Y-23019D01*
X45646Y-23019D01*
X45646Y-23067D01*
X45646Y-23115D01*
X45646Y-23115D01*
X45646Y-23115D01*
G37*
G36*
X45000Y-23538D02*
X44644Y-23538D01*
X44644Y-23443D01*
X45000Y-23443D01*
X45000Y-23538D01*
X45000Y-23538D01*
X45000Y-23538D01*
G37*
G36*
X45000Y-23366D02*
X44644Y-23366D01*
X44644Y-23279D01*
X45000Y-23279D01*
X45000Y-23366D01*
X45000Y-23366D01*
X45000Y-23366D01*
G37*
G36*
X47283Y-23327D02*
X47197Y-23327D01*
X47197Y-23240D01*
X47197Y-23105D01*
X47023Y-23105D01*
X47023Y-23240D01*
X47197Y-23240D01*
X47197Y-23327D01*
X46937Y-23327D01*
X46937Y-23019D01*
X47283Y-23019D01*
X47283Y-23327D01*
X47283Y-23327D01*
X47283Y-23327D01*
G37*
G36*
X46224Y-23240D02*
X46127Y-23240D01*
X46127Y-23154D01*
X46127Y-23077D01*
X45915Y-23077D01*
X45915Y-23154D01*
X46127Y-23154D01*
X46127Y-23240D01*
X45829Y-23240D01*
X45829Y-23000D01*
X46224Y-23000D01*
X46224Y-23240D01*
X46224Y-23240D01*
X46224Y-23240D01*
G37*
G36*
X46705Y-23240D02*
X46619Y-23240D01*
X46619Y-23154D01*
X46619Y-23077D01*
X46407Y-23077D01*
X46407Y-23154D01*
X46619Y-23154D01*
X46619Y-23240D01*
X46310Y-23240D01*
X46310Y-23000D01*
X46705Y-23000D01*
X46705Y-23240D01*
X46705Y-23240D01*
X46705Y-23240D01*
G37*
G36*
X45039Y-23192D02*
X44817Y-23192D01*
X44596Y-23192D01*
X44596Y-23149D01*
X44596Y-23105D01*
X44677Y-23105D01*
X44714Y-23105D01*
X44743Y-23102D01*
X44758Y-23098D01*
X44759Y-23097D01*
X44755Y-23084D01*
X44746Y-23060D01*
X44740Y-23046D01*
X44722Y-23004D01*
X44753Y-22994D01*
X44788Y-22981D01*
X44810Y-22976D01*
X44823Y-22979D01*
X44833Y-22992D01*
X44842Y-23017D01*
X44844Y-23021D01*
X44856Y-23052D01*
X44865Y-23078D01*
X44869Y-23089D01*
X44874Y-23097D01*
X44886Y-23102D01*
X44909Y-23105D01*
X44947Y-23105D01*
X44956Y-23105D01*
X45039Y-23105D01*
X45039Y-23149D01*
X45039Y-23192D01*
X45039Y-23192D01*
X45039Y-23192D01*
G37*
G36*
X69932Y-24405D02*
X69836Y-24405D01*
X69836Y-24309D01*
X69836Y-22691D01*
X60174Y-22691D01*
X60174Y-24309D01*
X69836Y-24309D01*
X69836Y-24405D01*
X60087Y-24405D01*
X60087Y-22605D01*
X69932Y-22605D01*
X69932Y-24405D01*
X69932Y-24405D01*
X69932Y-24405D01*
G37*
G36*
X60800Y-24010D02*
X60757Y-24010D01*
X60730Y-24009D01*
X60718Y-24004D01*
X60713Y-23992D01*
X60713Y-23981D01*
X60713Y-23952D01*
X60713Y-23856D01*
X60713Y-23779D01*
X60713Y-23702D01*
X60631Y-23702D01*
X60550Y-23702D01*
X60550Y-23779D01*
X60550Y-23856D01*
X60631Y-23856D01*
X60713Y-23856D01*
X60713Y-23952D01*
X60631Y-23952D01*
X60550Y-23952D01*
X60550Y-23981D01*
X60548Y-23998D01*
X60542Y-24007D01*
X60525Y-24010D01*
X60501Y-24010D01*
X60453Y-24010D01*
X60453Y-23813D01*
X60453Y-23615D01*
X60627Y-23615D01*
X60800Y-23615D01*
X60800Y-23813D01*
X60800Y-24010D01*
X60800Y-24010D01*
X60800Y-24010D01*
G37*
G36*
X62592Y-23827D02*
X62120Y-23827D01*
X62120Y-24010D01*
X62024Y-24010D01*
X62024Y-23827D01*
X61552Y-23827D01*
X61552Y-23740D01*
X62024Y-23740D01*
X62024Y-23682D01*
X62024Y-23596D01*
X62024Y-23519D01*
X62024Y-23443D01*
X62024Y-23366D01*
X61754Y-23366D01*
X61754Y-23443D01*
X62024Y-23443D01*
X62024Y-23519D01*
X61754Y-23519D01*
X61754Y-23596D01*
X62024Y-23596D01*
X62024Y-23682D01*
X61657Y-23682D01*
X61657Y-23289D01*
X62486Y-23289D01*
X62486Y-23682D01*
X62399Y-23682D01*
X62399Y-23596D01*
X62399Y-23519D01*
X62399Y-23443D01*
X62399Y-23366D01*
X62120Y-23366D01*
X62120Y-23443D01*
X62399Y-23443D01*
X62399Y-23519D01*
X62120Y-23519D01*
X62120Y-23596D01*
X62399Y-23596D01*
X62399Y-23682D01*
X62120Y-23682D01*
X62120Y-23740D01*
X62592Y-23740D01*
X62592Y-23827D01*
X62592Y-23827D01*
X62592Y-23827D01*
G37*
G36*
X63122Y-23491D02*
X63007Y-23491D01*
X62892Y-23491D01*
X62882Y-23520D01*
X62875Y-23543D01*
X62871Y-23558D01*
X62871Y-23559D01*
X62880Y-23562D01*
X62905Y-23565D01*
X62941Y-23566D01*
X62983Y-23567D01*
X63096Y-23567D01*
X63089Y-23661D01*
X63079Y-23758D01*
X63066Y-23837D01*
X63049Y-23900D01*
X63027Y-23947D01*
X63000Y-23980D01*
X62966Y-24000D01*
X62925Y-24008D01*
X62906Y-24009D01*
X62873Y-24007D01*
X62845Y-24005D01*
X62836Y-24003D01*
X62817Y-23990D01*
X62806Y-23960D01*
X62804Y-23935D01*
X62806Y-23922D01*
X62813Y-23915D01*
X62833Y-23913D01*
X62855Y-23914D01*
X62898Y-23915D01*
X62926Y-23914D01*
X62943Y-23910D01*
X62953Y-23901D01*
X62960Y-23887D01*
X62962Y-23882D01*
X62968Y-23862D01*
X62975Y-23828D01*
X62983Y-23787D01*
X62989Y-23744D01*
X62994Y-23705D01*
X62996Y-23675D01*
X62996Y-23671D01*
X62987Y-23668D01*
X62963Y-23665D01*
X62926Y-23664D01*
X62881Y-23663D01*
X62871Y-23663D01*
X62817Y-23663D01*
X62779Y-23661D01*
X62757Y-23658D01*
X62747Y-23654D01*
X62746Y-23651D01*
X62749Y-23637D01*
X62757Y-23609D01*
X62767Y-23574D01*
X62770Y-23567D01*
X62793Y-23496D01*
X62745Y-23493D01*
X62698Y-23490D01*
X62698Y-23447D01*
X62698Y-23404D01*
X62910Y-23404D01*
X63122Y-23404D01*
X63122Y-23448D01*
X63122Y-23491D01*
X63122Y-23491D01*
X63122Y-23491D01*
G37*
G36*
X63719Y-23452D02*
X63714Y-23492D01*
X63700Y-23524D01*
X63680Y-23545D01*
X63674Y-23548D01*
X63656Y-23552D01*
X63623Y-23554D01*
X63579Y-23556D01*
X63529Y-23557D01*
X63512Y-23557D01*
X63450Y-23557D01*
X63404Y-23554D01*
X63372Y-23549D01*
X63350Y-23539D01*
X63338Y-23524D01*
X63331Y-23502D01*
X63327Y-23483D01*
X63322Y-23458D01*
X63314Y-23446D01*
X63299Y-23443D01*
X63294Y-23443D01*
X63273Y-23439D01*
X63263Y-23423D01*
X63261Y-23416D01*
X63255Y-23393D01*
X63252Y-23379D01*
X63258Y-23370D01*
X63279Y-23363D01*
X63286Y-23362D01*
X63310Y-23357D01*
X63321Y-23349D01*
X63324Y-23331D01*
X63324Y-23312D01*
X63324Y-23269D01*
X63282Y-23269D01*
X63240Y-23269D01*
X63235Y-23488D01*
X63231Y-23586D01*
X63227Y-23665D01*
X63221Y-23728D01*
X63214Y-23773D01*
X63213Y-23779D01*
X63203Y-23819D01*
X63190Y-23863D01*
X63174Y-23907D01*
X63159Y-23947D01*
X63144Y-23980D01*
X63132Y-24001D01*
X63127Y-24006D01*
X63113Y-24003D01*
X63091Y-23992D01*
X63081Y-23985D01*
X63045Y-23962D01*
X63060Y-23926D01*
X63082Y-23871D01*
X63102Y-23808D01*
X63120Y-23745D01*
X63131Y-23691D01*
X63131Y-23690D01*
X63134Y-23663D01*
X63137Y-23620D01*
X63139Y-23565D01*
X63140Y-23502D01*
X63141Y-23436D01*
X63141Y-23407D01*
X63141Y-23183D01*
X63247Y-23183D01*
X63353Y-23183D01*
X63353Y-23077D01*
X63353Y-22971D01*
X63401Y-22971D01*
X63449Y-22971D01*
X63449Y-23004D01*
X63449Y-23038D01*
X63575Y-23038D01*
X63700Y-23038D01*
X63700Y-23081D01*
X63700Y-23125D01*
X63575Y-23125D01*
X63449Y-23125D01*
X63449Y-23154D01*
X63449Y-23183D01*
X63584Y-23183D01*
X63719Y-23183D01*
X63719Y-23229D01*
X63715Y-23268D01*
X63700Y-23305D01*
X63690Y-23320D01*
X63674Y-23345D01*
X63660Y-23361D01*
X63655Y-23366D01*
X63644Y-23360D01*
X63624Y-23347D01*
X63617Y-23341D01*
X63597Y-23325D01*
X63590Y-23314D01*
X63595Y-23300D01*
X63600Y-23293D01*
X63616Y-23269D01*
X63518Y-23269D01*
X63420Y-23269D01*
X63420Y-23304D01*
X63420Y-23339D01*
X63476Y-23332D01*
X63509Y-23328D01*
X63537Y-23324D01*
X63548Y-23321D01*
X63560Y-23321D01*
X63565Y-23335D01*
X63565Y-23345D01*
X63567Y-23370D01*
X63570Y-23388D01*
X63569Y-23396D01*
X63556Y-23403D01*
X63526Y-23408D01*
X63520Y-23409D01*
X63475Y-23414D01*
X63446Y-23420D01*
X63430Y-23426D01*
X63423Y-23435D01*
X63422Y-23447D01*
X63422Y-23451D01*
X63424Y-23463D01*
X63430Y-23471D01*
X63443Y-23475D01*
X63467Y-23477D01*
X63507Y-23479D01*
X63511Y-23479D01*
X63558Y-23480D01*
X63590Y-23477D01*
X63609Y-23469D01*
X63621Y-23454D01*
X63628Y-23432D01*
X63632Y-23414D01*
X63639Y-23406D01*
X63653Y-23407D01*
X63680Y-23415D01*
X63682Y-23415D01*
X63707Y-23425D01*
X63717Y-23437D01*
X63719Y-23452D01*
X63719Y-23452D01*
X63719Y-23452D01*
G37*
G36*
X63739Y-23855D02*
X63736Y-23884D01*
X63728Y-23919D01*
X63712Y-23960D01*
X63689Y-23985D01*
X63654Y-23997D01*
X63606Y-23998D01*
X63572Y-23996D01*
X63548Y-23990D01*
X63531Y-23979D01*
X63520Y-23960D01*
X63514Y-23930D01*
X63511Y-23886D01*
X63509Y-23827D01*
X63506Y-23692D01*
X63445Y-23692D01*
X63385Y-23692D01*
X63379Y-23767D01*
X63374Y-23809D01*
X63368Y-23849D01*
X63361Y-23878D01*
X63361Y-23879D01*
X63350Y-23903D01*
X63330Y-23932D01*
X63307Y-23962D01*
X63284Y-23988D01*
X63264Y-24005D01*
X63253Y-24010D01*
X63239Y-24004D01*
X63220Y-23988D01*
X63215Y-23983D01*
X63198Y-23964D01*
X63190Y-23950D01*
X63189Y-23948D01*
X63195Y-23937D01*
X63211Y-23917D01*
X63227Y-23899D01*
X63249Y-23872D01*
X63265Y-23844D01*
X63276Y-23810D01*
X63284Y-23766D01*
X63290Y-23708D01*
X63290Y-23700D01*
X63297Y-23615D01*
X63450Y-23615D01*
X63603Y-23615D01*
X63606Y-23762D01*
X63607Y-23819D01*
X63609Y-23860D01*
X63611Y-23886D01*
X63615Y-23902D01*
X63620Y-23908D01*
X63623Y-23909D01*
X63632Y-23903D01*
X63638Y-23883D01*
X63640Y-23860D01*
X63643Y-23811D01*
X63691Y-23820D01*
X63718Y-23827D01*
X63733Y-23837D01*
X63739Y-23855D01*
X63739Y-23855D01*
X63739Y-23855D01*
G37*
G36*
X61446Y-23115D02*
X61349Y-23115D01*
X61253Y-23115D01*
X61253Y-23523D01*
X61253Y-23639D01*
X61252Y-23737D01*
X61251Y-23816D01*
X61249Y-23877D01*
X61247Y-23921D01*
X61244Y-23947D01*
X61242Y-23956D01*
X61229Y-23976D01*
X61207Y-23989D01*
X61173Y-23997D01*
X61126Y-24000D01*
X61099Y-24000D01*
X61014Y-24000D01*
X61008Y-23964D01*
X61002Y-23936D01*
X60997Y-23915D01*
X60997Y-23913D01*
X60997Y-23904D01*
X61005Y-23900D01*
X61024Y-23900D01*
X61060Y-23902D01*
X61105Y-23903D01*
X61133Y-23899D01*
X61142Y-23895D01*
X61146Y-23889D01*
X61149Y-23879D01*
X61151Y-23863D01*
X61153Y-23838D01*
X61154Y-23803D01*
X61155Y-23756D01*
X61156Y-23696D01*
X61156Y-23620D01*
X61157Y-23528D01*
X61157Y-23499D01*
X61157Y-23115D01*
X61007Y-23115D01*
X60858Y-23115D01*
X60858Y-23067D01*
X60858Y-23019D01*
X61152Y-23019D01*
X61446Y-23019D01*
X61446Y-23067D01*
X61446Y-23115D01*
X61446Y-23115D01*
X61446Y-23115D01*
G37*
G36*
X60800Y-23538D02*
X60444Y-23538D01*
X60444Y-23443D01*
X60800Y-23443D01*
X60800Y-23538D01*
X60800Y-23538D01*
X60800Y-23538D01*
G37*
G36*
X60800Y-23366D02*
X60444Y-23366D01*
X60444Y-23279D01*
X60800Y-23279D01*
X60800Y-23366D01*
X60800Y-23366D01*
X60800Y-23366D01*
G37*
G36*
X63083Y-23327D02*
X62997Y-23327D01*
X62997Y-23240D01*
X62997Y-23105D01*
X62823Y-23105D01*
X62823Y-23240D01*
X62997Y-23240D01*
X62997Y-23327D01*
X62737Y-23327D01*
X62737Y-23019D01*
X63083Y-23019D01*
X63083Y-23327D01*
X63083Y-23327D01*
X63083Y-23327D01*
G37*
G36*
X62024Y-23240D02*
X61927Y-23240D01*
X61927Y-23154D01*
X61927Y-23077D01*
X61715Y-23077D01*
X61715Y-23154D01*
X61927Y-23154D01*
X61927Y-23240D01*
X61629Y-23240D01*
X61629Y-23000D01*
X62024Y-23000D01*
X62024Y-23240D01*
X62024Y-23240D01*
X62024Y-23240D01*
G37*
G36*
X62505Y-23240D02*
X62419Y-23240D01*
X62419Y-23154D01*
X62419Y-23077D01*
X62207Y-23077D01*
X62207Y-23154D01*
X62419Y-23154D01*
X62419Y-23240D01*
X62110Y-23240D01*
X62110Y-23000D01*
X62505Y-23000D01*
X62505Y-23240D01*
X62505Y-23240D01*
X62505Y-23240D01*
G37*
G36*
X60839Y-23192D02*
X60617Y-23192D01*
X60396Y-23192D01*
X60396Y-23149D01*
X60396Y-23105D01*
X60477Y-23105D01*
X60514Y-23105D01*
X60543Y-23102D01*
X60558Y-23098D01*
X60559Y-23097D01*
X60555Y-23084D01*
X60546Y-23060D01*
X60540Y-23046D01*
X60522Y-23004D01*
X60553Y-22994D01*
X60588Y-22981D01*
X60610Y-22976D01*
X60623Y-22979D01*
X60633Y-22992D01*
X60642Y-23017D01*
X60644Y-23021D01*
X60656Y-23052D01*
X60665Y-23078D01*
X60669Y-23089D01*
X60674Y-23097D01*
X60686Y-23102D01*
X60709Y-23105D01*
X60747Y-23105D01*
X60756Y-23105D01*
X60839Y-23105D01*
X60839Y-23149D01*
X60839Y-23192D01*
X60839Y-23192D01*
X60839Y-23192D01*
G37*
G36*
X67836Y-16928D02*
X67854Y-16919D01*
X67895Y-16893D01*
X67954Y-16855D01*
X68023Y-16808D01*
X68092Y-16761D01*
X68149Y-16723D01*
X68189Y-16697D01*
X68206Y-16688D01*
X68215Y-16691D01*
X68248Y-16707D01*
X68296Y-16732D01*
X68324Y-16747D01*
X68368Y-16765D01*
X68389Y-16769D01*
X68393Y-16763D01*
X68409Y-16730D01*
X68434Y-16672D01*
X68467Y-16596D01*
X68505Y-16507D01*
X68546Y-16411D01*
X68587Y-16314D01*
X68625Y-16220D01*
X68660Y-16136D01*
X68687Y-16068D01*
X68705Y-16021D01*
X68712Y-16000D01*
X68710Y-15996D01*
X68688Y-15975D01*
X68649Y-15946D01*
X68567Y-15879D01*
X68485Y-15776D01*
X68435Y-15660D01*
X68418Y-15531D01*
X68432Y-15412D01*
X68479Y-15297D01*
X68560Y-15194D01*
X68657Y-15117D01*
X68770Y-15068D01*
X68898Y-15052D01*
X69020Y-15066D01*
X69137Y-15112D01*
X69241Y-15191D01*
X69284Y-15242D01*
X69345Y-15346D01*
X69379Y-15458D01*
X69382Y-15487D01*
X69377Y-15610D01*
X69341Y-15728D01*
X69276Y-15833D01*
X69186Y-15920D01*
X69175Y-15928D01*
X69133Y-15959D01*
X69105Y-15981D01*
X69083Y-15999D01*
X69239Y-16376D01*
X69265Y-16436D01*
X69307Y-16539D01*
X69345Y-16628D01*
X69376Y-16699D01*
X69396Y-16746D01*
X69406Y-16765D01*
X69407Y-16766D01*
X69420Y-16768D01*
X69449Y-16758D01*
X69502Y-16732D01*
X69537Y-16715D01*
X69577Y-16695D01*
X69595Y-16688D01*
X69610Y-16696D01*
X69649Y-16721D01*
X69705Y-16759D01*
X69772Y-16805D01*
X69836Y-16848D01*
X69895Y-16887D01*
X69939Y-16915D01*
X69959Y-16926D01*
X69963Y-16926D01*
X69981Y-16916D01*
X70015Y-16887D01*
X70067Y-16839D01*
X70139Y-16767D01*
X70150Y-16756D01*
X70210Y-16695D01*
X70259Y-16644D01*
X70291Y-16608D01*
X70303Y-16591D01*
X70303Y-16591D01*
X70292Y-16571D01*
X70265Y-16528D01*
X70226Y-16468D01*
X70178Y-16398D01*
X70053Y-16216D01*
X70122Y-16045D01*
X70143Y-15993D01*
X70170Y-15929D01*
X70190Y-15884D01*
X70200Y-15864D01*
X70218Y-15857D01*
X70265Y-15846D01*
X70333Y-15832D01*
X70414Y-15817D01*
X70492Y-15802D01*
X70561Y-15789D01*
X70612Y-15779D01*
X70635Y-15775D01*
X70640Y-15772D01*
X70644Y-15761D01*
X70647Y-15737D01*
X70649Y-15695D01*
X70650Y-15628D01*
X70650Y-15531D01*
X70650Y-15521D01*
X70649Y-15429D01*
X70648Y-15355D01*
X70645Y-15307D01*
X70642Y-15288D01*
X70642Y-15288D01*
X70620Y-15283D01*
X70571Y-15272D01*
X70501Y-15259D01*
X70418Y-15243D01*
X70413Y-15242D01*
X70330Y-15226D01*
X70260Y-15211D01*
X70212Y-15200D01*
X70191Y-15194D01*
X70187Y-15188D01*
X70170Y-15156D01*
X70146Y-15104D01*
X70119Y-15041D01*
X70092Y-14976D01*
X70068Y-14918D01*
X70052Y-14874D01*
X70048Y-14854D01*
X70048Y-14854D01*
X70060Y-14834D01*
X70089Y-14791D01*
X70129Y-14731D01*
X70178Y-14661D01*
X70181Y-14655D01*
X70229Y-14585D01*
X70268Y-14526D01*
X70293Y-14484D01*
X70303Y-14465D01*
X70303Y-14464D01*
X70287Y-14443D01*
X70251Y-14403D01*
X70200Y-14350D01*
X70139Y-14288D01*
X70119Y-14268D01*
X70051Y-14202D01*
X70004Y-14158D01*
X69975Y-14135D01*
X69960Y-14130D01*
X69960Y-14130D01*
X69939Y-14143D01*
X69895Y-14172D01*
X69834Y-14213D01*
X69763Y-14261D01*
X69758Y-14264D01*
X69688Y-14312D01*
X69630Y-14351D01*
X69589Y-14379D01*
X69570Y-14390D01*
X69567Y-14390D01*
X69539Y-14382D01*
X69489Y-14364D01*
X69428Y-14340D01*
X69363Y-14314D01*
X69304Y-14290D01*
X69260Y-14269D01*
X69239Y-14257D01*
X69238Y-14256D01*
X69231Y-14231D01*
X69219Y-14179D01*
X69204Y-14107D01*
X69188Y-14021D01*
X69185Y-14007D01*
X69169Y-13924D01*
X69156Y-13855D01*
X69146Y-13807D01*
X69141Y-13787D01*
X69129Y-13785D01*
X69088Y-13782D01*
X69026Y-13780D01*
X68951Y-13779D01*
X68872Y-13780D01*
X68794Y-13781D01*
X68728Y-13784D01*
X68681Y-13787D01*
X68661Y-13791D01*
X68660Y-13792D01*
X68653Y-13818D01*
X68641Y-13870D01*
X68627Y-13943D01*
X68610Y-14029D01*
X68607Y-14044D01*
X68592Y-14127D01*
X68578Y-14196D01*
X68568Y-14243D01*
X68562Y-14261D01*
X68555Y-14265D01*
X68520Y-14280D01*
X68464Y-14303D01*
X68395Y-14331D01*
X68235Y-14396D01*
X68038Y-14261D01*
X68020Y-14249D01*
X67949Y-14201D01*
X67891Y-14162D01*
X67851Y-14136D01*
X67834Y-14127D01*
X67833Y-14127D01*
X67813Y-14145D01*
X67774Y-14181D01*
X67721Y-14233D01*
X67659Y-14295D01*
X67613Y-14340D01*
X67559Y-14396D01*
X67524Y-14433D01*
X67506Y-14457D01*
X67499Y-14471D01*
X67501Y-14481D01*
X67513Y-14501D01*
X67542Y-14544D01*
X67583Y-14604D01*
X67631Y-14673D01*
X67670Y-14731D01*
X67713Y-14797D01*
X67741Y-14845D01*
X67750Y-14868D01*
X67748Y-14877D01*
X67734Y-14916D01*
X67711Y-14974D01*
X67681Y-15043D01*
X67613Y-15199D01*
X67511Y-15219D01*
X67449Y-15230D01*
X67362Y-15247D01*
X67279Y-15263D01*
X67150Y-15288D01*
X67146Y-15763D01*
X67166Y-15771D01*
X67185Y-15777D01*
X67233Y-15787D01*
X67301Y-15801D01*
X67382Y-15816D01*
X67450Y-15829D01*
X67520Y-15842D01*
X67569Y-15852D01*
X67591Y-15856D01*
X67597Y-15864D01*
X67614Y-15897D01*
X67639Y-15951D01*
X67666Y-16015D01*
X67694Y-16081D01*
X67718Y-16143D01*
X67736Y-16189D01*
X67742Y-16214D01*
X67732Y-16232D01*
X67706Y-16272D01*
X67668Y-16330D01*
X67621Y-16399D01*
X67574Y-16468D01*
X67534Y-16527D01*
X67507Y-16569D01*
X67495Y-16589D01*
X67501Y-16602D01*
X67528Y-16635D01*
X67580Y-16689D01*
X67657Y-16765D01*
X67670Y-16777D01*
X67732Y-16836D01*
X67783Y-16884D01*
X67820Y-16917D01*
X67836Y-16928D01*
X67836Y-16928D01*
G37*
G54D11*
X70114Y-45703D02*
G75*
G03X67003Y-46985I-914J-2196D01*
G74*
G01*
X67989Y-45853D02*
G75*
G03X67153Y-49110I1210J-2046D01*
G74*
G01*
X67153Y-49110D02*
G75*
G03X70410Y-49946I2046J1210D01*
G74*
G01*
X71537Y-48337D02*
G75*
G03X69637Y-45562I-2337J437D01*
G74*
G01*
X71183Y-50489D02*
X70409Y-49947D01*
X72344Y-48900D02*
X71537Y-48335D01*
X71151Y-50467D02*
G75*
G03X72531Y-50281I596J783D01*
G74*
G01*
X72554Y-50248D02*
G75*
G03X72312Y-48878I-806J564D01*
G74*
G01*
X65150Y-49510D02*
G75*
G03X65010Y-46149I-1750J1610D01*
G74*
G01*
X65737Y-47462D02*
G75*
G03X62962Y-45562I-2337J-437D01*
G74*
G01*
X62962Y-45562D02*
G75*
G03X61062Y-48337I437J-2337D01*
G74*
G01*
X62189Y-49946D02*
G75*
G03X65446Y-49110I1210J2046D01*
G74*
G01*
X60288Y-48877D02*
X61062Y-48335D01*
X61384Y-50512D02*
X62190Y-49947D01*
X60319Y-48855D02*
G75*
G03X60022Y-50216I532J-828D01*
G74*
G01*
X60045Y-50248D02*
G75*
G03X61416Y-50490I806J564D01*
G74*
G01*
X57296Y-25920D02*
X56903Y-25920D01*
X56903Y-25920D02*
X57099Y-26431D01*
X57099Y-26431D02*
X57296Y-25920D01*
X42927Y-25290D02*
G75*
G03X42927Y-25290I-1969J0D01*
G74*
G01*
X75210Y-25290D02*
G75*
G03X75210Y-25290I-1968J0D01*
G74*
G01*
G54D14*
X51195Y-26432D02*
X51392Y-25920D01*
X51392Y-25920D02*
X50998Y-25920D01*
X50998Y-25920D02*
X51195Y-26432D01*
X63004Y-26432D02*
X63201Y-25920D01*
X63201Y-25920D02*
X62807Y-25920D01*
X62807Y-25920D02*
X63004Y-26432D01*
X38596Y-24817D02*
X75604Y-24817D01*
X75604Y-25762D02*
X38596Y-25762D01*
X75604Y-22219D02*
X38596Y-22219D01*
X75604Y-26550D02*
X38596Y-26550D01*
X75604Y-29306D02*
X38596Y-29306D01*
X38596Y-29306D02*
X38596Y-17494D01*
X38596Y-17494D02*
X75604Y-17494D01*
X75604Y-17494D02*
X75604Y-29306D01*
G54D16*
G36*
X74432Y-19890D02*
X74432Y-19894D01*
X74431Y-19902D01*
X74428Y-19914D01*
X74426Y-19929D01*
X74424Y-19936D01*
X74416Y-19971D01*
X74408Y-20003D01*
X74400Y-20034D01*
X74390Y-20064D01*
X74379Y-20095D01*
X74367Y-20128D01*
X74352Y-20163D01*
X74335Y-20201D01*
X74318Y-20240D01*
X74301Y-20276D01*
X74287Y-20307D01*
X74275Y-20335D01*
X74264Y-20360D01*
X74254Y-20384D01*
X74245Y-20406D01*
X74237Y-20427D01*
X74231Y-20444D01*
X74225Y-20459D01*
X74220Y-20472D01*
X74216Y-20486D01*
X74211Y-20499D01*
X74206Y-20515D01*
X74201Y-20532D01*
X74195Y-20553D01*
X74188Y-20579D01*
X74181Y-20604D01*
X74172Y-20637D01*
X74164Y-20665D01*
X74157Y-20690D01*
X74150Y-20711D01*
X74143Y-20731D01*
X74135Y-20751D01*
X74127Y-20771D01*
X74117Y-20793D01*
X74112Y-20803D01*
X74095Y-20840D01*
X74076Y-20876D01*
X74057Y-20910D01*
X74037Y-20942D01*
X74018Y-20970D01*
X74002Y-20991D01*
X73987Y-21008D01*
X73969Y-21027D01*
X73951Y-21046D01*
X73933Y-21064D01*
X73917Y-21078D01*
X73916Y-21078D01*
X73876Y-21107D01*
X73833Y-21132D01*
X73785Y-21154D01*
X73733Y-21173D01*
X73676Y-21189D01*
X73614Y-21202D01*
X73572Y-21209D01*
X73544Y-21212D01*
X73512Y-21216D01*
X73478Y-21219D01*
X73442Y-21222D01*
X73406Y-21224D01*
X73371Y-21226D01*
X73338Y-21228D01*
X73308Y-21229D01*
X73282Y-21229D01*
X73268Y-21228D01*
X73240Y-21227D01*
X73270Y-21209D01*
X73333Y-21167D01*
X73394Y-21119D01*
X73453Y-21067D01*
X73508Y-21009D01*
X73561Y-20946D01*
X73574Y-20928D01*
X73623Y-20858D01*
X73667Y-20784D01*
X73706Y-20707D01*
X73741Y-20626D01*
X73770Y-20543D01*
X73793Y-20458D01*
X73808Y-20388D01*
X73812Y-20369D01*
X73815Y-20350D01*
X73817Y-20332D01*
X73820Y-20316D01*
X73821Y-20302D01*
X73822Y-20292D01*
X73822Y-20287D01*
X73822Y-20286D01*
X73818Y-20287D01*
X73811Y-20292D01*
X73800Y-20301D01*
X73786Y-20313D01*
X73769Y-20328D01*
X73761Y-20336D01*
X73733Y-20361D01*
X73707Y-20381D01*
X73682Y-20397D01*
X73656Y-20409D01*
X73628Y-20419D01*
X73602Y-20427D01*
X73588Y-20430D01*
X73572Y-20432D01*
X73557Y-20435D01*
X73543Y-20437D01*
X73531Y-20438D01*
X73524Y-20438D01*
X73521Y-20437D01*
X73522Y-20433D01*
X73525Y-20425D01*
X73529Y-20414D01*
X73532Y-20407D01*
X73548Y-20365D01*
X73564Y-20317D01*
X73579Y-20266D01*
X73592Y-20212D01*
X73605Y-20157D01*
X73616Y-20102D01*
X73625Y-20047D01*
X73632Y-19995D01*
X73636Y-19946D01*
X73638Y-19914D01*
X73638Y-19896D01*
X73639Y-19881D01*
X73639Y-19869D01*
X73639Y-19861D01*
X73638Y-19858D01*
X73637Y-19861D01*
X73633Y-19870D01*
X73629Y-19882D01*
X73623Y-19898D01*
X73616Y-19917D01*
X73611Y-19930D01*
X73599Y-19961D01*
X73589Y-19987D01*
X73581Y-20009D01*
X73573Y-20027D01*
X73566Y-20041D01*
X73560Y-20054D01*
X73553Y-20065D01*
X73551Y-20069D01*
X73538Y-20086D01*
X73524Y-20102D01*
X73508Y-20115D01*
X73497Y-20122D01*
X73484Y-20128D01*
X73470Y-20133D01*
X73456Y-20137D01*
X73445Y-20138D01*
X73442Y-20139D01*
X73438Y-20138D01*
X73435Y-20136D01*
X73434Y-20131D01*
X73432Y-20122D01*
X73432Y-20118D01*
X73430Y-20099D01*
X73426Y-20076D01*
X73422Y-20050D01*
X73417Y-20024D01*
X73412Y-19998D01*
X73407Y-19974D01*
X73405Y-19967D01*
X73386Y-19899D01*
X73363Y-19833D01*
X73336Y-19769D01*
X73307Y-19710D01*
X73274Y-19654D01*
X73262Y-19638D01*
X73251Y-19622D01*
X73241Y-19607D01*
X73232Y-19595D01*
X73226Y-19587D01*
X73222Y-19583D01*
X73221Y-19583D01*
X73221Y-19586D01*
X73222Y-19594D01*
X73224Y-19606D01*
X73226Y-19617D01*
X73234Y-19670D01*
X73239Y-19730D01*
X73243Y-19792D01*
X73244Y-19857D01*
X73242Y-19922D01*
X73238Y-19987D01*
X73232Y-20051D01*
X73224Y-20113D01*
X73222Y-20120D01*
X73218Y-20144D01*
X73215Y-20163D01*
X73212Y-20176D01*
X73210Y-20186D01*
X73208Y-20191D01*
X73207Y-20194D01*
X73206Y-20195D01*
X73202Y-20193D01*
X73194Y-20187D01*
X73184Y-20178D01*
X73171Y-20167D01*
X73157Y-20154D01*
X73143Y-20141D01*
X73128Y-20127D01*
X73115Y-20113D01*
X73113Y-20112D01*
X73073Y-20068D01*
X73038Y-20024D01*
X73010Y-19982D01*
X72987Y-19941D01*
X72976Y-19916D01*
X72972Y-19904D01*
X72968Y-19895D01*
X72965Y-19890D01*
X72965Y-19890D01*
X72963Y-19891D01*
X72960Y-19898D01*
X72955Y-19908D01*
X72950Y-19920D01*
X72945Y-19933D01*
X72941Y-19947D01*
X72938Y-19957D01*
X72933Y-19976D01*
X72929Y-19995D01*
X72925Y-20014D01*
X72923Y-20035D01*
X72921Y-20059D01*
X72919Y-20086D01*
X72918Y-20118D01*
X72918Y-20140D01*
X72918Y-20184D01*
X72918Y-20224D01*
X72919Y-20262D01*
X72922Y-20299D01*
X72925Y-20337D01*
X72930Y-20378D01*
X72931Y-20391D01*
X72939Y-20450D01*
X72948Y-20503D01*
X72958Y-20551D01*
X72969Y-20596D01*
X72972Y-20606D01*
X72974Y-20613D01*
X72962Y-20606D01*
X72935Y-20588D01*
X72912Y-20572D01*
X72893Y-20555D01*
X72878Y-20538D01*
X72864Y-20518D01*
X72852Y-20495D01*
X72845Y-20479D01*
X72842Y-20472D01*
X72837Y-20460D01*
X72830Y-20444D01*
X72823Y-20424D01*
X72814Y-20402D01*
X72805Y-20379D01*
X72795Y-20354D01*
X72786Y-20330D01*
X72777Y-20306D01*
X72769Y-20284D01*
X72761Y-20265D01*
X72760Y-20263D01*
X72756Y-20253D01*
X72753Y-20247D01*
X72752Y-20245D01*
X72750Y-20248D01*
X72749Y-20256D01*
X72747Y-20268D01*
X72745Y-20285D01*
X72742Y-20304D01*
X72740Y-20324D01*
X72739Y-20346D01*
X72737Y-20368D01*
X72736Y-20378D01*
X72735Y-20454D01*
X72738Y-20533D01*
X72747Y-20614D01*
X72761Y-20695D01*
X72780Y-20778D01*
X72804Y-20861D01*
X72832Y-20943D01*
X72852Y-20994D01*
X72864Y-21021D01*
X72879Y-21052D01*
X72894Y-21084D01*
X72910Y-21117D01*
X72926Y-21147D01*
X72941Y-21174D01*
X72948Y-21185D01*
X72957Y-21200D01*
X72964Y-21212D01*
X72969Y-21221D01*
X72973Y-21227D01*
X72973Y-21228D01*
X72970Y-21229D01*
X72962Y-21229D01*
X72949Y-21227D01*
X72932Y-21225D01*
X72919Y-21223D01*
X72848Y-21209D01*
X72782Y-21193D01*
X72720Y-21172D01*
X72664Y-21148D01*
X72612Y-21120D01*
X72565Y-21089D01*
X72523Y-21053D01*
X72499Y-21030D01*
X72470Y-20998D01*
X72445Y-20967D01*
X72423Y-20933D01*
X72402Y-20896D01*
X72394Y-20881D01*
X72382Y-20855D01*
X72370Y-20829D01*
X72360Y-20803D01*
X72349Y-20775D01*
X72340Y-20745D01*
X72331Y-20713D01*
X72322Y-20678D01*
X72313Y-20640D01*
X72304Y-20599D01*
X72295Y-20553D01*
X72286Y-20502D01*
X72276Y-20445D01*
X72269Y-20405D01*
X72260Y-20353D01*
X72252Y-20306D01*
X72245Y-20264D01*
X72238Y-20227D01*
X72232Y-20194D01*
X72226Y-20163D01*
X72220Y-20136D01*
X72214Y-20110D01*
X72209Y-20086D01*
X72203Y-20062D01*
X72196Y-20039D01*
X72190Y-20016D01*
X72172Y-19959D01*
X72151Y-19902D01*
X72128Y-19848D01*
X72104Y-19798D01*
X72087Y-19766D01*
X72079Y-19752D01*
X72073Y-19741D01*
X72069Y-19733D01*
X72068Y-19729D01*
X72068Y-19728D01*
X72072Y-19728D01*
X72080Y-19729D01*
X72093Y-19730D01*
X72108Y-19732D01*
X72125Y-19734D01*
X72142Y-19737D01*
X72154Y-19739D01*
X72186Y-19745D01*
X72220Y-19753D01*
X72257Y-19762D01*
X72294Y-19772D01*
X72330Y-19782D01*
X72364Y-19793D01*
X72395Y-19803D01*
X72422Y-19813D01*
X72432Y-19818D01*
X72441Y-19821D01*
X72448Y-19824D01*
X72450Y-19824D01*
X72452Y-19821D01*
X72456Y-19813D01*
X72460Y-19801D01*
X72464Y-19786D01*
X72469Y-19770D01*
X72472Y-19757D01*
X72480Y-19709D01*
X72483Y-19662D01*
X72481Y-19615D01*
X72475Y-19566D01*
X72463Y-19516D01*
X72447Y-19463D01*
X72437Y-19437D01*
X72431Y-19425D01*
X72423Y-19407D01*
X72413Y-19385D01*
X72401Y-19360D01*
X72387Y-19332D01*
X72373Y-19302D01*
X72357Y-19271D01*
X72341Y-19239D01*
X72324Y-19207D01*
X72309Y-19178D01*
X72303Y-19167D01*
X72299Y-19157D01*
X72298Y-19152D01*
X72298Y-19151D01*
X72302Y-19150D01*
X72311Y-19150D01*
X72324Y-19151D01*
X72339Y-19153D01*
X72355Y-19155D01*
X72372Y-19158D01*
X72387Y-19161D01*
X72396Y-19163D01*
X72438Y-19175D01*
X72484Y-19193D01*
X72531Y-19215D01*
X72581Y-19241D01*
X72632Y-19271D01*
X72684Y-19305D01*
X72730Y-19338D01*
X72742Y-19348D01*
X72753Y-19355D01*
X72761Y-19361D01*
X72765Y-19363D01*
X72766Y-19363D01*
X72767Y-19359D01*
X72769Y-19349D01*
X72772Y-19334D01*
X72774Y-19316D01*
X72776Y-19294D01*
X72779Y-19271D01*
X72781Y-19246D01*
X72783Y-19220D01*
X72785Y-19195D01*
X72787Y-19173D01*
X72789Y-19108D01*
X72787Y-19046D01*
X72782Y-18986D01*
X72773Y-18930D01*
X72762Y-18879D01*
X72755Y-18856D01*
X72747Y-18834D01*
X72738Y-18813D01*
X72728Y-18792D01*
X72715Y-18770D01*
X72700Y-18745D01*
X72684Y-18721D01*
X72666Y-18695D01*
X72652Y-18673D01*
X72640Y-18655D01*
X72631Y-18641D01*
X72624Y-18630D01*
X72619Y-18623D01*
X72615Y-18617D01*
X72613Y-18613D01*
X72612Y-18611D01*
X72612Y-18610D01*
X72615Y-18608D01*
X72623Y-18607D01*
X72634Y-18607D01*
X72648Y-18607D01*
X72663Y-18608D01*
X72677Y-18610D01*
X72691Y-18612D01*
X72697Y-18613D01*
X72731Y-18625D01*
X72764Y-18642D01*
X72797Y-18666D01*
X72828Y-18695D01*
X72859Y-18729D01*
X72888Y-18768D01*
X72915Y-18812D01*
X72941Y-18860D01*
X72956Y-18893D01*
X72961Y-18903D01*
X72965Y-18910D01*
X72967Y-18913D01*
X72968Y-18913D01*
X72970Y-18907D01*
X72974Y-18896D01*
X72977Y-18881D01*
X72981Y-18863D01*
X72985Y-18845D01*
X72985Y-18842D01*
X72988Y-18824D01*
X72991Y-18806D01*
X72993Y-18789D01*
X72995Y-18772D01*
X72996Y-18753D01*
X72997Y-18732D01*
X72998Y-18708D01*
X72998Y-18681D01*
X72998Y-18649D01*
X72997Y-18613D01*
X72997Y-18584D01*
X72996Y-18539D01*
X72996Y-18501D01*
X72996Y-18467D01*
X72997Y-18438D01*
X72997Y-18413D01*
X72999Y-18390D01*
X73000Y-18371D01*
X73002Y-18352D01*
X73005Y-18335D01*
X73008Y-18320D01*
X73020Y-18274D01*
X73036Y-18232D01*
X73058Y-18195D01*
X73084Y-18161D01*
X73115Y-18131D01*
X73152Y-18104D01*
X73172Y-18091D01*
X73182Y-18086D01*
X73190Y-18082D01*
X73194Y-18080D01*
X73194Y-18080D01*
X73195Y-18083D01*
X73198Y-18091D01*
X73200Y-18104D01*
X73203Y-18119D01*
X73205Y-18131D01*
X73220Y-18212D01*
X73237Y-18288D01*
X73254Y-18358D01*
X73274Y-18423D01*
X73295Y-18484D01*
X73319Y-18540D01*
X73344Y-18593D01*
X73362Y-18624D01*
X73368Y-18635D01*
X73378Y-18651D01*
X73390Y-18669D01*
X73403Y-18690D01*
X73418Y-18713D01*
X73433Y-18735D01*
X73439Y-18744D01*
X73465Y-18784D01*
X73488Y-18821D01*
X73507Y-18854D01*
X73523Y-18884D01*
X73537Y-18913D01*
X73547Y-18940D01*
X73552Y-18955D01*
X73557Y-18968D01*
X73561Y-18978D01*
X73564Y-18984D01*
X73565Y-18986D01*
X73569Y-18983D01*
X73574Y-18977D01*
X73575Y-18976D01*
X73578Y-18972D01*
X73580Y-18966D01*
X73581Y-18959D01*
X73581Y-18948D01*
X73581Y-18933D01*
X73580Y-18908D01*
X73576Y-18882D01*
X73570Y-18853D01*
X73562Y-18820D01*
X73550Y-18784D01*
X73544Y-18765D01*
X73539Y-18747D01*
X73534Y-18730D01*
X73531Y-18714D01*
X73528Y-18702D01*
X73528Y-18694D01*
X73528Y-18692D01*
X73532Y-18692D01*
X73540Y-18694D01*
X73552Y-18697D01*
X73566Y-18703D01*
X73582Y-18709D01*
X73597Y-18715D01*
X73611Y-18722D01*
X73612Y-18722D01*
X73654Y-18746D01*
X73692Y-18775D01*
X73728Y-18810D01*
X73760Y-18850D01*
X73789Y-18895D01*
X73815Y-18945D01*
X73837Y-19001D01*
X73856Y-19061D01*
X73857Y-19064D01*
X73869Y-19111D01*
X73879Y-19159D01*
X73888Y-19209D01*
X73895Y-19262D01*
X73901Y-19318D01*
X73905Y-19378D01*
X73908Y-19443D01*
X73909Y-19513D01*
X73910Y-19580D01*
X73910Y-19608D01*
X73910Y-19631D01*
X73910Y-19649D01*
X73911Y-19661D01*
X73911Y-19670D01*
X73913Y-19676D01*
X73915Y-19679D01*
X73918Y-19680D01*
X73921Y-19680D01*
X73926Y-19678D01*
X73929Y-19676D01*
X73948Y-19665D01*
X73964Y-19649D01*
X73978Y-19626D01*
X73991Y-19598D01*
X74000Y-19563D01*
X74004Y-19548D01*
X74006Y-19538D01*
X74007Y-19529D01*
X74009Y-19520D01*
X74009Y-19510D01*
X74010Y-19498D01*
X74011Y-19484D01*
X74011Y-19467D01*
X74011Y-19445D01*
X74011Y-19419D01*
X74011Y-19397D01*
X74011Y-19371D01*
X74011Y-19347D01*
X74011Y-19326D01*
X74012Y-19309D01*
X74012Y-19295D01*
X74012Y-19286D01*
X74012Y-19283D01*
X74015Y-19285D01*
X74021Y-19289D01*
X74026Y-19292D01*
X74057Y-19317D01*
X74084Y-19347D01*
X74108Y-19382D01*
X74128Y-19423D01*
X74146Y-19469D01*
X74160Y-19520D01*
X74164Y-19539D01*
X74170Y-19571D01*
X74174Y-19603D01*
X74177Y-19636D01*
X74179Y-19670D01*
X74180Y-19708D01*
X74180Y-19752D01*
X74180Y-19765D01*
X74179Y-19810D01*
X74177Y-19850D01*
X74174Y-19888D01*
X74170Y-19924D01*
X74166Y-19961D01*
X74163Y-19981D01*
X74161Y-19996D01*
X74159Y-20008D01*
X74158Y-20016D01*
X74158Y-20020D01*
X74162Y-20020D01*
X74170Y-20018D01*
X74182Y-20015D01*
X74197Y-20011D01*
X74213Y-20007D01*
X74230Y-20002D01*
X74246Y-19997D01*
X74260Y-19992D01*
X74260Y-19991D01*
X74305Y-19973D01*
X74344Y-19954D01*
X74377Y-19934D01*
X74405Y-19912D01*
X74410Y-19908D01*
X74419Y-19900D01*
X74426Y-19893D01*
X74431Y-19890D01*
X74432Y-19890D01*
X74432Y-19890D01*
X74432Y-19890D01*
G37*
G36*
X42182Y-19940D02*
X42182Y-19944D01*
X42181Y-19952D01*
X42178Y-19964D01*
X42176Y-19979D01*
X42174Y-19986D01*
X42166Y-20021D01*
X42158Y-20053D01*
X42150Y-20084D01*
X42140Y-20114D01*
X42129Y-20145D01*
X42117Y-20178D01*
X42102Y-20213D01*
X42085Y-20251D01*
X42068Y-20290D01*
X42051Y-20326D01*
X42037Y-20357D01*
X42025Y-20385D01*
X42014Y-20410D01*
X42004Y-20434D01*
X41995Y-20456D01*
X41987Y-20477D01*
X41981Y-20494D01*
X41975Y-20509D01*
X41970Y-20522D01*
X41966Y-20536D01*
X41961Y-20549D01*
X41956Y-20565D01*
X41951Y-20582D01*
X41945Y-20603D01*
X41938Y-20629D01*
X41931Y-20654D01*
X41922Y-20687D01*
X41914Y-20715D01*
X41907Y-20740D01*
X41900Y-20761D01*
X41893Y-20781D01*
X41885Y-20801D01*
X41877Y-20821D01*
X41867Y-20843D01*
X41862Y-20853D01*
X41845Y-20890D01*
X41826Y-20926D01*
X41807Y-20960D01*
X41787Y-20992D01*
X41768Y-21020D01*
X41752Y-21041D01*
X41737Y-21058D01*
X41719Y-21077D01*
X41701Y-21096D01*
X41683Y-21114D01*
X41667Y-21128D01*
X41666Y-21128D01*
X41626Y-21157D01*
X41583Y-21182D01*
X41535Y-21204D01*
X41483Y-21223D01*
X41426Y-21239D01*
X41364Y-21252D01*
X41322Y-21259D01*
X41294Y-21262D01*
X41262Y-21266D01*
X41228Y-21269D01*
X41192Y-21272D01*
X41156Y-21274D01*
X41121Y-21276D01*
X41088Y-21278D01*
X41058Y-21279D01*
X41032Y-21279D01*
X41018Y-21278D01*
X40990Y-21277D01*
X41020Y-21259D01*
X41083Y-21217D01*
X41144Y-21169D01*
X41203Y-21117D01*
X41258Y-21059D01*
X41311Y-20996D01*
X41324Y-20978D01*
X41373Y-20908D01*
X41417Y-20834D01*
X41456Y-20757D01*
X41491Y-20676D01*
X41520Y-20593D01*
X41543Y-20508D01*
X41558Y-20438D01*
X41562Y-20419D01*
X41565Y-20400D01*
X41567Y-20382D01*
X41570Y-20366D01*
X41571Y-20352D01*
X41572Y-20342D01*
X41572Y-20337D01*
X41572Y-20336D01*
X41568Y-20337D01*
X41561Y-20342D01*
X41550Y-20351D01*
X41536Y-20363D01*
X41519Y-20378D01*
X41511Y-20386D01*
X41483Y-20411D01*
X41457Y-20431D01*
X41432Y-20447D01*
X41406Y-20459D01*
X41378Y-20469D01*
X41352Y-20477D01*
X41338Y-20480D01*
X41322Y-20482D01*
X41307Y-20485D01*
X41293Y-20487D01*
X41281Y-20488D01*
X41274Y-20488D01*
X41271Y-20487D01*
X41272Y-20483D01*
X41275Y-20475D01*
X41279Y-20464D01*
X41282Y-20457D01*
X41298Y-20415D01*
X41314Y-20367D01*
X41329Y-20316D01*
X41342Y-20262D01*
X41355Y-20207D01*
X41366Y-20152D01*
X41375Y-20097D01*
X41382Y-20045D01*
X41386Y-19996D01*
X41388Y-19964D01*
X41388Y-19946D01*
X41389Y-19931D01*
X41389Y-19919D01*
X41389Y-19911D01*
X41388Y-19908D01*
X41387Y-19911D01*
X41383Y-19920D01*
X41379Y-19932D01*
X41373Y-19948D01*
X41366Y-19967D01*
X41361Y-19980D01*
X41349Y-20011D01*
X41339Y-20037D01*
X41331Y-20059D01*
X41323Y-20077D01*
X41316Y-20091D01*
X41310Y-20104D01*
X41303Y-20115D01*
X41301Y-20119D01*
X41288Y-20136D01*
X41274Y-20152D01*
X41258Y-20165D01*
X41247Y-20172D01*
X41234Y-20178D01*
X41220Y-20183D01*
X41206Y-20187D01*
X41195Y-20188D01*
X41192Y-20189D01*
X41188Y-20188D01*
X41185Y-20186D01*
X41184Y-20181D01*
X41182Y-20172D01*
X41182Y-20168D01*
X41180Y-20149D01*
X41176Y-20126D01*
X41172Y-20100D01*
X41167Y-20074D01*
X41162Y-20048D01*
X41157Y-20024D01*
X41155Y-20017D01*
X41136Y-19949D01*
X41113Y-19883D01*
X41086Y-19819D01*
X41057Y-19760D01*
X41024Y-19704D01*
X41012Y-19688D01*
X41001Y-19672D01*
X40991Y-19657D01*
X40982Y-19645D01*
X40976Y-19637D01*
X40972Y-19633D01*
X40971Y-19633D01*
X40971Y-19636D01*
X40972Y-19644D01*
X40974Y-19656D01*
X40976Y-19667D01*
X40984Y-19720D01*
X40989Y-19780D01*
X40993Y-19842D01*
X40994Y-19907D01*
X40992Y-19972D01*
X40988Y-20037D01*
X40982Y-20101D01*
X40974Y-20163D01*
X40972Y-20170D01*
X40968Y-20194D01*
X40965Y-20213D01*
X40962Y-20226D01*
X40960Y-20236D01*
X40958Y-20241D01*
X40957Y-20244D01*
X40956Y-20245D01*
X40952Y-20243D01*
X40944Y-20237D01*
X40934Y-20228D01*
X40921Y-20217D01*
X40907Y-20204D01*
X40893Y-20191D01*
X40878Y-20177D01*
X40865Y-20163D01*
X40863Y-20162D01*
X40823Y-20118D01*
X40788Y-20074D01*
X40760Y-20032D01*
X40737Y-19991D01*
X40726Y-19966D01*
X40722Y-19954D01*
X40718Y-19945D01*
X40715Y-19940D01*
X40715Y-19940D01*
X40713Y-19941D01*
X40710Y-19948D01*
X40705Y-19958D01*
X40700Y-19970D01*
X40695Y-19983D01*
X40691Y-19997D01*
X40688Y-20007D01*
X40683Y-20026D01*
X40679Y-20045D01*
X40675Y-20064D01*
X40673Y-20085D01*
X40671Y-20109D01*
X40669Y-20136D01*
X40668Y-20168D01*
X40668Y-20190D01*
X40668Y-20234D01*
X40668Y-20274D01*
X40669Y-20312D01*
X40672Y-20349D01*
X40675Y-20387D01*
X40680Y-20428D01*
X40681Y-20441D01*
X40689Y-20500D01*
X40698Y-20553D01*
X40708Y-20601D01*
X40719Y-20646D01*
X40722Y-20656D01*
X40724Y-20663D01*
X40712Y-20656D01*
X40685Y-20638D01*
X40662Y-20622D01*
X40643Y-20605D01*
X40628Y-20588D01*
X40614Y-20568D01*
X40602Y-20545D01*
X40595Y-20529D01*
X40592Y-20522D01*
X40587Y-20510D01*
X40580Y-20494D01*
X40573Y-20474D01*
X40564Y-20452D01*
X40555Y-20429D01*
X40545Y-20404D01*
X40536Y-20380D01*
X40527Y-20356D01*
X40519Y-20334D01*
X40511Y-20315D01*
X40510Y-20313D01*
X40506Y-20303D01*
X40503Y-20297D01*
X40502Y-20295D01*
X40500Y-20298D01*
X40499Y-20306D01*
X40497Y-20318D01*
X40495Y-20335D01*
X40492Y-20354D01*
X40490Y-20374D01*
X40489Y-20396D01*
X40487Y-20418D01*
X40486Y-20428D01*
X40485Y-20504D01*
X40488Y-20583D01*
X40497Y-20664D01*
X40511Y-20745D01*
X40530Y-20828D01*
X40554Y-20911D01*
X40582Y-20993D01*
X40602Y-21044D01*
X40614Y-21071D01*
X40629Y-21102D01*
X40644Y-21134D01*
X40660Y-21167D01*
X40676Y-21197D01*
X40691Y-21224D01*
X40698Y-21235D01*
X40707Y-21250D01*
X40714Y-21262D01*
X40719Y-21271D01*
X40723Y-21277D01*
X40723Y-21278D01*
X40720Y-21279D01*
X40712Y-21279D01*
X40699Y-21277D01*
X40682Y-21275D01*
X40669Y-21273D01*
X40598Y-21259D01*
X40532Y-21243D01*
X40470Y-21222D01*
X40414Y-21198D01*
X40362Y-21170D01*
X40315Y-21139D01*
X40273Y-21103D01*
X40249Y-21080D01*
X40220Y-21048D01*
X40195Y-21017D01*
X40173Y-20983D01*
X40152Y-20946D01*
X40144Y-20931D01*
X40132Y-20905D01*
X40120Y-20879D01*
X40110Y-20853D01*
X40099Y-20825D01*
X40090Y-20795D01*
X40081Y-20763D01*
X40072Y-20728D01*
X40063Y-20690D01*
X40054Y-20649D01*
X40045Y-20603D01*
X40036Y-20552D01*
X40026Y-20495D01*
X40019Y-20455D01*
X40010Y-20403D01*
X40002Y-20356D01*
X39995Y-20314D01*
X39988Y-20277D01*
X39982Y-20244D01*
X39976Y-20213D01*
X39970Y-20186D01*
X39964Y-20160D01*
X39959Y-20136D01*
X39953Y-20112D01*
X39946Y-20089D01*
X39940Y-20066D01*
X39922Y-20009D01*
X39901Y-19952D01*
X39878Y-19898D01*
X39854Y-19848D01*
X39837Y-19816D01*
X39829Y-19802D01*
X39823Y-19791D01*
X39819Y-19783D01*
X39818Y-19779D01*
X39818Y-19778D01*
X39822Y-19778D01*
X39830Y-19779D01*
X39843Y-19780D01*
X39858Y-19782D01*
X39875Y-19784D01*
X39892Y-19787D01*
X39904Y-19789D01*
X39936Y-19795D01*
X39970Y-19803D01*
X40007Y-19812D01*
X40044Y-19822D01*
X40080Y-19832D01*
X40114Y-19843D01*
X40145Y-19853D01*
X40172Y-19863D01*
X40182Y-19868D01*
X40191Y-19871D01*
X40198Y-19874D01*
X40200Y-19874D01*
X40202Y-19871D01*
X40206Y-19863D01*
X40210Y-19851D01*
X40214Y-19836D01*
X40219Y-19820D01*
X40222Y-19807D01*
X40230Y-19759D01*
X40233Y-19712D01*
X40231Y-19665D01*
X40225Y-19616D01*
X40213Y-19566D01*
X40197Y-19513D01*
X40187Y-19487D01*
X40181Y-19475D01*
X40173Y-19457D01*
X40163Y-19435D01*
X40151Y-19410D01*
X40137Y-19382D01*
X40123Y-19352D01*
X40107Y-19321D01*
X40091Y-19289D01*
X40074Y-19257D01*
X40059Y-19228D01*
X40053Y-19217D01*
X40049Y-19207D01*
X40048Y-19202D01*
X40048Y-19201D01*
X40052Y-19200D01*
X40061Y-19200D01*
X40074Y-19201D01*
X40089Y-19203D01*
X40105Y-19205D01*
X40122Y-19208D01*
X40137Y-19211D01*
X40146Y-19213D01*
X40188Y-19225D01*
X40234Y-19243D01*
X40281Y-19265D01*
X40331Y-19291D01*
X40382Y-19321D01*
X40434Y-19355D01*
X40480Y-19388D01*
X40492Y-19398D01*
X40503Y-19405D01*
X40511Y-19411D01*
X40515Y-19413D01*
X40516Y-19413D01*
X40517Y-19409D01*
X40519Y-19399D01*
X40522Y-19384D01*
X40524Y-19366D01*
X40526Y-19344D01*
X40529Y-19321D01*
X40531Y-19296D01*
X40533Y-19270D01*
X40535Y-19245D01*
X40537Y-19223D01*
X40539Y-19158D01*
X40537Y-19096D01*
X40532Y-19036D01*
X40523Y-18980D01*
X40512Y-18929D01*
X40505Y-18906D01*
X40497Y-18884D01*
X40488Y-18863D01*
X40478Y-18842D01*
X40465Y-18820D01*
X40450Y-18795D01*
X40434Y-18771D01*
X40416Y-18745D01*
X40402Y-18723D01*
X40390Y-18705D01*
X40381Y-18691D01*
X40374Y-18680D01*
X40369Y-18673D01*
X40365Y-18667D01*
X40363Y-18663D01*
X40362Y-18661D01*
X40362Y-18660D01*
X40365Y-18658D01*
X40373Y-18657D01*
X40384Y-18657D01*
X40398Y-18657D01*
X40413Y-18658D01*
X40427Y-18660D01*
X40441Y-18662D01*
X40447Y-18663D01*
X40481Y-18675D01*
X40514Y-18692D01*
X40547Y-18716D01*
X40578Y-18745D01*
X40609Y-18779D01*
X40638Y-18818D01*
X40665Y-18862D01*
X40691Y-18910D01*
X40706Y-18943D01*
X40711Y-18953D01*
X40715Y-18960D01*
X40717Y-18963D01*
X40718Y-18963D01*
X40720Y-18957D01*
X40724Y-18946D01*
X40727Y-18931D01*
X40731Y-18913D01*
X40735Y-18895D01*
X40735Y-18892D01*
X40738Y-18874D01*
X40741Y-18856D01*
X40743Y-18839D01*
X40745Y-18822D01*
X40746Y-18803D01*
X40747Y-18782D01*
X40748Y-18758D01*
X40748Y-18731D01*
X40748Y-18699D01*
X40747Y-18663D01*
X40747Y-18634D01*
X40746Y-18589D01*
X40746Y-18551D01*
X40746Y-18517D01*
X40747Y-18488D01*
X40747Y-18463D01*
X40749Y-18440D01*
X40750Y-18421D01*
X40752Y-18402D01*
X40755Y-18385D01*
X40758Y-18370D01*
X40770Y-18324D01*
X40786Y-18282D01*
X40808Y-18245D01*
X40834Y-18211D01*
X40865Y-18181D01*
X40902Y-18154D01*
X40922Y-18141D01*
X40932Y-18136D01*
X40940Y-18132D01*
X40944Y-18130D01*
X40944Y-18130D01*
X40945Y-18133D01*
X40948Y-18141D01*
X40950Y-18154D01*
X40953Y-18169D01*
X40955Y-18181D01*
X40970Y-18262D01*
X40987Y-18338D01*
X41004Y-18408D01*
X41024Y-18473D01*
X41045Y-18534D01*
X41069Y-18590D01*
X41094Y-18643D01*
X41112Y-18674D01*
X41118Y-18685D01*
X41128Y-18701D01*
X41140Y-18719D01*
X41153Y-18740D01*
X41168Y-18763D01*
X41183Y-18785D01*
X41189Y-18794D01*
X41215Y-18834D01*
X41238Y-18871D01*
X41257Y-18904D01*
X41273Y-18934D01*
X41287Y-18963D01*
X41297Y-18990D01*
X41302Y-19005D01*
X41307Y-19018D01*
X41311Y-19028D01*
X41314Y-19034D01*
X41315Y-19036D01*
X41319Y-19033D01*
X41324Y-19027D01*
X41325Y-19026D01*
X41328Y-19022D01*
X41330Y-19016D01*
X41331Y-19009D01*
X41331Y-18998D01*
X41331Y-18983D01*
X41330Y-18958D01*
X41326Y-18932D01*
X41320Y-18903D01*
X41312Y-18870D01*
X41300Y-18834D01*
X41294Y-18815D01*
X41289Y-18797D01*
X41284Y-18780D01*
X41281Y-18764D01*
X41278Y-18752D01*
X41278Y-18744D01*
X41278Y-18742D01*
X41282Y-18742D01*
X41290Y-18744D01*
X41302Y-18747D01*
X41316Y-18753D01*
X41332Y-18759D01*
X41347Y-18765D01*
X41361Y-18772D01*
X41362Y-18772D01*
X41404Y-18796D01*
X41442Y-18825D01*
X41478Y-18860D01*
X41510Y-18900D01*
X41539Y-18945D01*
X41565Y-18995D01*
X41587Y-19051D01*
X41606Y-19111D01*
X41607Y-19114D01*
X41619Y-19161D01*
X41629Y-19209D01*
X41638Y-19259D01*
X41645Y-19312D01*
X41651Y-19368D01*
X41655Y-19428D01*
X41658Y-19493D01*
X41659Y-19563D01*
X41660Y-19630D01*
X41660Y-19658D01*
X41660Y-19681D01*
X41660Y-19699D01*
X41661Y-19711D01*
X41661Y-19720D01*
X41663Y-19726D01*
X41665Y-19729D01*
X41668Y-19730D01*
X41671Y-19730D01*
X41676Y-19728D01*
X41679Y-19726D01*
X41698Y-19715D01*
X41714Y-19699D01*
X41728Y-19676D01*
X41741Y-19648D01*
X41750Y-19613D01*
X41754Y-19598D01*
X41756Y-19588D01*
X41757Y-19579D01*
X41759Y-19570D01*
X41759Y-19560D01*
X41760Y-19548D01*
X41761Y-19534D01*
X41761Y-19517D01*
X41761Y-19495D01*
X41761Y-19469D01*
X41761Y-19447D01*
X41761Y-19421D01*
X41761Y-19397D01*
X41761Y-19376D01*
X41762Y-19359D01*
X41762Y-19345D01*
X41762Y-19336D01*
X41762Y-19333D01*
X41765Y-19335D01*
X41771Y-19339D01*
X41776Y-19342D01*
X41807Y-19367D01*
X41834Y-19397D01*
X41858Y-19432D01*
X41878Y-19473D01*
X41896Y-19519D01*
X41910Y-19570D01*
X41914Y-19589D01*
X41920Y-19621D01*
X41924Y-19653D01*
X41927Y-19686D01*
X41929Y-19720D01*
X41930Y-19758D01*
X41930Y-19802D01*
X41930Y-19815D01*
X41929Y-19860D01*
X41927Y-19900D01*
X41924Y-19938D01*
X41920Y-19974D01*
X41916Y-20011D01*
X41913Y-20031D01*
X41911Y-20046D01*
X41909Y-20058D01*
X41908Y-20066D01*
X41908Y-20070D01*
X41912Y-20070D01*
X41920Y-20068D01*
X41932Y-20065D01*
X41947Y-20061D01*
X41963Y-20057D01*
X41980Y-20052D01*
X41996Y-20047D01*
X42010Y-20042D01*
X42010Y-20041D01*
X42055Y-20023D01*
X42094Y-20004D01*
X42127Y-19984D01*
X42155Y-19962D01*
X42160Y-19958D01*
X42169Y-19950D01*
X42176Y-19943D01*
X42181Y-19940D01*
X42182Y-19940D01*
X42182Y-19940D01*
X42182Y-19940D01*
G37*
G36*
X45868Y-16726D02*
X45907Y-16721D01*
X45944Y-16709D01*
X45960Y-16700D01*
X45993Y-16677D01*
X46020Y-16648D01*
X46040Y-16615D01*
X46053Y-16579D01*
X46059Y-16541D01*
X46058Y-16502D01*
X46049Y-16464D01*
X46031Y-16427D01*
X46020Y-16411D01*
X46003Y-16393D01*
X45985Y-16376D01*
X45969Y-16364D01*
X45963Y-16361D01*
X45929Y-16345D01*
X45894Y-16336D01*
X45855Y-16335D01*
X45842Y-16335D01*
X45821Y-16338D01*
X45802Y-16343D01*
X45781Y-16352D01*
X45759Y-16364D01*
X45726Y-16390D01*
X45700Y-16421D01*
X45681Y-16457D01*
X45676Y-16474D01*
X45671Y-16493D01*
X45668Y-16508D01*
X45668Y-16510D01*
X45668Y-16511D01*
X45666Y-16503D01*
X45666Y-16501D01*
X45660Y-16477D01*
X45651Y-16450D01*
X45639Y-16428D01*
X45617Y-16399D01*
X45587Y-16371D01*
X45552Y-16351D01*
X45514Y-16338D01*
X45473Y-16334D01*
X45462Y-16334D01*
X45431Y-16338D01*
X45401Y-16346D01*
X45396Y-16349D01*
X45363Y-16367D01*
X45333Y-16392D01*
X45309Y-16421D01*
X45290Y-16454D01*
X45280Y-16489D01*
X45279Y-16490D01*
X45277Y-16500D01*
X45276Y-16504D01*
X45276Y-16504D01*
X45275Y-16499D01*
X45272Y-16489D01*
X45272Y-16485D01*
X45260Y-16451D01*
X45241Y-16418D01*
X45215Y-16388D01*
X45193Y-16369D01*
X45158Y-16349D01*
X45121Y-16338D01*
X45079Y-16334D01*
X45050Y-16336D01*
X45011Y-16346D01*
X44975Y-16364D01*
X44944Y-16389D01*
X44918Y-16420D01*
X44915Y-16425D01*
X44907Y-16439D01*
X44900Y-16451D01*
X44897Y-16460D01*
X44891Y-16478D01*
X44887Y-16495D01*
X44885Y-16508D01*
X44885Y-16510D01*
X44884Y-16510D01*
X44883Y-16502D01*
X44878Y-16480D01*
X44869Y-16454D01*
X44857Y-16430D01*
X44834Y-16398D01*
X44804Y-16371D01*
X44769Y-16351D01*
X44731Y-16338D01*
X44690Y-16334D01*
X44653Y-16337D01*
X44614Y-16348D01*
X44580Y-16367D01*
X44548Y-16394D01*
X44533Y-16411D01*
X44518Y-16433D01*
X44506Y-16457D01*
X44499Y-16478D01*
X44493Y-16517D01*
X44494Y-16555D01*
X44503Y-16592D01*
X44518Y-16626D01*
X44539Y-16657D01*
X44566Y-16683D01*
X44598Y-16704D01*
X44634Y-16718D01*
X44673Y-16725D01*
X44677Y-16725D01*
X44717Y-16724D01*
X44754Y-16715D01*
X44790Y-16697D01*
X44803Y-16689D01*
X44829Y-16666D01*
X44852Y-16638D01*
X44868Y-16608D01*
X44873Y-16598D01*
X44878Y-16581D01*
X44882Y-16564D01*
X44884Y-16551D01*
X44884Y-16543D01*
X44885Y-16551D01*
X44886Y-16557D01*
X44890Y-16575D01*
X44895Y-16594D01*
X44901Y-16610D01*
X44911Y-16628D01*
X44935Y-16661D01*
X44965Y-16688D01*
X45000Y-16708D01*
X45038Y-16722D01*
X45045Y-16723D01*
X45072Y-16725D01*
X45100Y-16725D01*
X45126Y-16721D01*
X45152Y-16712D01*
X45189Y-16693D01*
X45221Y-16667D01*
X45223Y-16664D01*
X45245Y-16636D01*
X45262Y-16603D01*
X45272Y-16570D01*
X45273Y-16569D01*
X45275Y-16559D01*
X45276Y-16555D01*
X45277Y-16558D01*
X45279Y-16567D01*
X45279Y-16569D01*
X45284Y-16589D01*
X45294Y-16612D01*
X45305Y-16633D01*
X45322Y-16657D01*
X45352Y-16685D01*
X45386Y-16706D01*
X45425Y-16720D01*
X45432Y-16722D01*
X45459Y-16725D01*
X45487Y-16725D01*
X45512Y-16722D01*
X45534Y-16716D01*
X45571Y-16698D01*
X45603Y-16675D01*
X45630Y-16645D01*
X45651Y-16610D01*
X45655Y-16599D01*
X45661Y-16581D01*
X45665Y-16564D01*
X45667Y-16551D01*
X45667Y-16549D01*
X45667Y-16548D01*
X45669Y-16556D01*
X45669Y-16558D01*
X45675Y-16583D01*
X45684Y-16609D01*
X45696Y-16632D01*
X45701Y-16640D01*
X45727Y-16669D01*
X45757Y-16694D01*
X45791Y-16712D01*
X45828Y-16723D01*
X45868Y-16726D01*
X45868Y-16726D01*
G37*
G36*
X44284Y-16334D02*
X44308Y-16333D01*
X44330Y-16331D01*
X44357Y-16324D01*
X44393Y-16308D01*
X44426Y-16285D01*
X44453Y-16255D01*
X44474Y-16221D01*
X44487Y-16184D01*
X44492Y-16144D01*
X44490Y-16105D01*
X44479Y-16067D01*
X44462Y-16032D01*
X44437Y-16001D01*
X44405Y-15975D01*
X44395Y-15968D01*
X44358Y-15951D01*
X44318Y-15942D01*
X44278Y-15942D01*
X44238Y-15950D01*
X44206Y-15964D01*
X44171Y-15986D01*
X44143Y-16016D01*
X44121Y-16050D01*
X44106Y-16090D01*
X44102Y-16109D01*
X44101Y-16135D01*
X44101Y-16160D01*
X44105Y-16181D01*
X44107Y-16188D01*
X44122Y-16228D01*
X44145Y-16262D01*
X44175Y-16291D01*
X44210Y-16314D01*
X44227Y-16321D01*
X44250Y-16328D01*
X44270Y-16333D01*
X44284Y-16334D01*
X44284Y-16334D01*
G37*
G36*
X46260Y-16334D02*
X46300Y-16329D01*
X46339Y-16315D01*
X46376Y-16293D01*
X46383Y-16287D01*
X46410Y-16258D01*
X46432Y-16224D01*
X46446Y-16186D01*
X46450Y-16166D01*
X46451Y-16140D01*
X46451Y-16115D01*
X46447Y-16094D01*
X46445Y-16085D01*
X46429Y-16046D01*
X46407Y-16013D01*
X46378Y-15985D01*
X46345Y-15963D01*
X46307Y-15948D01*
X46266Y-15942D01*
X46251Y-15941D01*
X46212Y-15946D01*
X46175Y-15959D01*
X46142Y-15978D01*
X46113Y-16003D01*
X46090Y-16033D01*
X46073Y-16068D01*
X46062Y-16106D01*
X46060Y-16146D01*
X46062Y-16171D01*
X46067Y-16192D01*
X46075Y-16215D01*
X46091Y-16245D01*
X46116Y-16275D01*
X46147Y-16301D01*
X46182Y-16319D01*
X46220Y-16331D01*
X46260Y-16334D01*
X46260Y-16334D01*
G37*
G36*
X43893Y-15941D02*
X43921Y-15941D01*
X43946Y-15938D01*
X43974Y-15929D01*
X44010Y-15911D01*
X44042Y-15884D01*
X44063Y-15860D01*
X44083Y-15826D01*
X44096Y-15788D01*
X44099Y-15772D01*
X44100Y-15749D01*
X44099Y-15725D01*
X44097Y-15705D01*
X44093Y-15693D01*
X44078Y-15654D01*
X44055Y-15620D01*
X44026Y-15592D01*
X43991Y-15570D01*
X43977Y-15564D01*
X43952Y-15555D01*
X43927Y-15551D01*
X43897Y-15551D01*
X43879Y-15552D01*
X43858Y-15555D01*
X43838Y-15561D01*
X43817Y-15570D01*
X43804Y-15577D01*
X43772Y-15601D01*
X43745Y-15631D01*
X43724Y-15667D01*
X43712Y-15707D01*
X43710Y-15716D01*
X43709Y-15739D01*
X43709Y-15764D01*
X43712Y-15784D01*
X43715Y-15798D01*
X43730Y-15837D01*
X43753Y-15870D01*
X43782Y-15899D01*
X43816Y-15921D01*
X43856Y-15936D01*
X43867Y-15938D01*
X43893Y-15941D01*
X43893Y-15941D01*
G37*
G36*
X45467Y-15941D02*
X45506Y-15939D01*
X45543Y-15928D01*
X45565Y-15918D01*
X45599Y-15895D01*
X45626Y-15866D01*
X45648Y-15831D01*
X45662Y-15793D01*
X45664Y-15785D01*
X45668Y-15753D01*
X45666Y-15723D01*
X45659Y-15689D01*
X45643Y-15651D01*
X45620Y-15618D01*
X45591Y-15590D01*
X45556Y-15569D01*
X45516Y-15555D01*
X45491Y-15548D01*
X45504Y-15547D01*
X45507Y-15546D01*
X45535Y-15539D01*
X45565Y-15526D01*
X45592Y-15508D01*
X45596Y-15505D01*
X45625Y-15476D01*
X45646Y-15443D01*
X45660Y-15407D01*
X45667Y-15368D01*
X45666Y-15330D01*
X45657Y-15291D01*
X45640Y-15255D01*
X45640Y-15253D01*
X45615Y-15221D01*
X45586Y-15195D01*
X45553Y-15176D01*
X45517Y-15164D01*
X45479Y-15159D01*
X45441Y-15161D01*
X45404Y-15170D01*
X45369Y-15187D01*
X45337Y-15212D01*
X45319Y-15231D01*
X45300Y-15259D01*
X45286Y-15290D01*
X45279Y-15319D01*
X45277Y-15326D01*
X45276Y-15330D01*
X45275Y-15327D01*
X45273Y-15319D01*
X45267Y-15293D01*
X45255Y-15265D01*
X45238Y-15238D01*
X45229Y-15226D01*
X45199Y-15198D01*
X45165Y-15178D01*
X45127Y-15164D01*
X45088Y-15158D01*
X45048Y-15161D01*
X45023Y-15167D01*
X44986Y-15183D01*
X44953Y-15206D01*
X44925Y-15235D01*
X44904Y-15269D01*
X44890Y-15307D01*
X44886Y-15327D01*
X44885Y-15367D01*
X44892Y-15406D01*
X44906Y-15443D01*
X44928Y-15476D01*
X44956Y-15505D01*
X44991Y-15528D01*
X45006Y-15535D01*
X45024Y-15541D01*
X45041Y-15546D01*
X45054Y-15548D01*
X45056Y-15548D01*
X45055Y-15549D01*
X45046Y-15552D01*
X45027Y-15557D01*
X45001Y-15566D01*
X44979Y-15578D01*
X44966Y-15586D01*
X44940Y-15609D01*
X44917Y-15637D01*
X44900Y-15667D01*
X44890Y-15699D01*
X44885Y-15734D01*
X44885Y-15768D01*
X44887Y-15775D01*
X44897Y-15816D01*
X44916Y-15852D01*
X44943Y-15884D01*
X44964Y-15903D01*
X44999Y-15924D01*
X45038Y-15938D01*
X45053Y-15940D01*
X45074Y-15940D01*
X45097Y-15940D01*
X45118Y-15938D01*
X45134Y-15935D01*
X45147Y-15930D01*
X45185Y-15912D01*
X45217Y-15886D01*
X45244Y-15854D01*
X45253Y-15839D01*
X45265Y-15812D01*
X45272Y-15786D01*
X45273Y-15785D01*
X45275Y-15775D01*
X45276Y-15771D01*
X45276Y-15771D01*
X45276Y-15720D01*
X45276Y-15720D01*
X45275Y-15715D01*
X45272Y-15705D01*
X45272Y-15702D01*
X45260Y-15667D01*
X45241Y-15634D01*
X45216Y-15605D01*
X45187Y-15581D01*
X45153Y-15563D01*
X45151Y-15563D01*
X45134Y-15557D01*
X45118Y-15553D01*
X45100Y-15549D01*
X45117Y-15546D01*
X45140Y-15541D01*
X45175Y-15525D01*
X45207Y-15503D01*
X45235Y-15475D01*
X45255Y-15443D01*
X45263Y-15426D01*
X45270Y-15406D01*
X45273Y-15389D01*
X45275Y-15382D01*
X45276Y-15378D01*
X45277Y-15381D01*
X45279Y-15389D01*
X45282Y-15404D01*
X45288Y-15424D01*
X45297Y-15443D01*
X45309Y-15463D01*
X45334Y-15493D01*
X45365Y-15518D01*
X45399Y-15536D01*
X45436Y-15546D01*
X45453Y-15549D01*
X45435Y-15553D01*
X45433Y-15553D01*
X45415Y-15558D01*
X45399Y-15563D01*
X45395Y-15565D01*
X45362Y-15583D01*
X45333Y-15607D01*
X45309Y-15637D01*
X45290Y-15670D01*
X45280Y-15705D01*
X45279Y-15706D01*
X45277Y-15716D01*
X45276Y-15720D01*
X45276Y-15771D01*
X45276Y-15771D01*
X45277Y-15776D01*
X45280Y-15786D01*
X45286Y-15812D01*
X45303Y-15846D01*
X45327Y-15878D01*
X45356Y-15904D01*
X45390Y-15924D01*
X45390Y-15924D01*
X45427Y-15936D01*
X45467Y-15941D01*
X45467Y-15941D01*
G37*
G36*
X46633Y-15941D02*
X46665Y-15941D01*
X46694Y-15936D01*
X46713Y-15931D01*
X46750Y-15913D01*
X46782Y-15889D01*
X46808Y-15859D01*
X46827Y-15825D01*
X46839Y-15787D01*
X46844Y-15746D01*
X46843Y-15729D01*
X46836Y-15689D01*
X46820Y-15651D01*
X46795Y-15616D01*
X46789Y-15609D01*
X46761Y-15585D01*
X46728Y-15567D01*
X46693Y-15555D01*
X46692Y-15555D01*
X46663Y-15550D01*
X46632Y-15550D01*
X46602Y-15555D01*
X46591Y-15558D01*
X46554Y-15573D01*
X46522Y-15595D01*
X46495Y-15623D01*
X46474Y-15655D01*
X46459Y-15691D01*
X46452Y-15729D01*
X46453Y-15768D01*
X46462Y-15808D01*
X46475Y-15837D01*
X46497Y-15871D01*
X46526Y-15899D01*
X46560Y-15921D01*
X46599Y-15935D01*
X46603Y-15937D01*
X46633Y-15941D01*
X46633Y-15941D01*
G37*
G36*
X44695Y-14767D02*
X44733Y-14761D01*
X44771Y-14748D01*
X44789Y-14739D01*
X44806Y-14727D01*
X44825Y-14710D01*
X44845Y-14688D01*
X44865Y-14655D01*
X44879Y-14617D01*
X44881Y-14607D01*
X44884Y-14581D01*
X44884Y-14553D01*
X44881Y-14529D01*
X44870Y-14497D01*
X44852Y-14462D01*
X44828Y-14433D01*
X44824Y-14429D01*
X44806Y-14414D01*
X44785Y-14400D01*
X44765Y-14390D01*
X44758Y-14387D01*
X44742Y-14382D01*
X44726Y-14378D01*
X44715Y-14376D01*
X44708Y-14376D01*
X44715Y-14374D01*
X44725Y-14371D01*
X44737Y-14368D01*
X44751Y-14364D01*
X44781Y-14351D01*
X44809Y-14332D01*
X44833Y-14311D01*
X44837Y-14307D01*
X44860Y-14273D01*
X44876Y-14236D01*
X44884Y-14197D01*
X44884Y-14158D01*
X44882Y-14148D01*
X44872Y-14108D01*
X44853Y-14072D01*
X44826Y-14040D01*
X44802Y-14019D01*
X44769Y-13999D01*
X44730Y-13986D01*
X44723Y-13985D01*
X44696Y-13983D01*
X44668Y-13983D01*
X44644Y-13987D01*
X44621Y-13994D01*
X44585Y-14012D01*
X44554Y-14036D01*
X44528Y-14066D01*
X44508Y-14100D01*
X44497Y-14137D01*
X44496Y-14142D01*
X44493Y-14151D01*
X44491Y-14154D01*
X44490Y-14150D01*
X44489Y-14142D01*
X44485Y-14126D01*
X44480Y-14108D01*
X44473Y-14092D01*
X44467Y-14081D01*
X44442Y-14047D01*
X44412Y-14020D01*
X44378Y-14000D01*
X44339Y-13987D01*
X44298Y-13983D01*
X44265Y-13985D01*
X44228Y-13994D01*
X44193Y-14011D01*
X44174Y-14026D01*
X44145Y-14054D01*
X44123Y-14087D01*
X44108Y-14123D01*
X44101Y-14162D01*
X44101Y-14201D01*
X44110Y-14238D01*
X44126Y-14275D01*
X44150Y-14308D01*
X44179Y-14336D01*
X44215Y-14356D01*
X44255Y-14370D01*
X44277Y-14375D01*
X44265Y-14377D01*
X44256Y-14378D01*
X44225Y-14388D01*
X44194Y-14404D01*
X44165Y-14425D01*
X44142Y-14449D01*
X44129Y-14469D01*
X44115Y-14496D01*
X44106Y-14522D01*
X44102Y-14543D01*
X44101Y-14568D01*
X44101Y-14593D01*
X44105Y-14614D01*
X44111Y-14636D01*
X44130Y-14674D01*
X44155Y-14706D01*
X44186Y-14732D01*
X44222Y-14752D01*
X44263Y-14764D01*
X44274Y-14765D01*
X44298Y-14766D01*
X44323Y-14764D01*
X44345Y-14760D01*
X44361Y-14756D01*
X44398Y-14738D01*
X44430Y-14714D01*
X44457Y-14683D01*
X44476Y-14648D01*
X44489Y-14610D01*
X44489Y-14606D01*
X44492Y-14598D01*
X44493Y-14598D01*
X44493Y-14545D01*
X44491Y-14543D01*
X44489Y-14535D01*
X44489Y-14533D01*
X44482Y-14507D01*
X44470Y-14479D01*
X44453Y-14453D01*
X44442Y-14439D01*
X44411Y-14411D01*
X44376Y-14391D01*
X44336Y-14378D01*
X44317Y-14375D01*
X44331Y-14372D01*
X44342Y-14369D01*
X44355Y-14366D01*
X44363Y-14363D01*
X44398Y-14346D01*
X44430Y-14321D01*
X44456Y-14291D01*
X44476Y-14257D01*
X44488Y-14220D01*
X44490Y-14210D01*
X44492Y-14205D01*
X44494Y-14208D01*
X44497Y-14221D01*
X44497Y-14221D01*
X44503Y-14242D01*
X44513Y-14266D01*
X44525Y-14287D01*
X44535Y-14299D01*
X44552Y-14318D01*
X44572Y-14336D01*
X44591Y-14349D01*
X44592Y-14349D01*
X44622Y-14363D01*
X44654Y-14372D01*
X44668Y-14375D01*
X44652Y-14377D01*
X44617Y-14387D01*
X44582Y-14405D01*
X44551Y-14430D01*
X44526Y-14460D01*
X44520Y-14470D01*
X44511Y-14489D01*
X44503Y-14508D01*
X44497Y-14526D01*
X44495Y-14540D01*
X44495Y-14540D01*
X44493Y-14545D01*
X44493Y-14598D01*
X44494Y-14598D01*
X44496Y-14607D01*
X44498Y-14618D01*
X44502Y-14631D01*
X44509Y-14651D01*
X44529Y-14685D01*
X44555Y-14714D01*
X44585Y-14737D01*
X44620Y-14754D01*
X44656Y-14764D01*
X44695Y-14767D01*
X44695Y-14767D01*
G37*
G36*
X45874Y-14767D02*
X45913Y-14760D01*
X45949Y-14747D01*
X45982Y-14726D01*
X46011Y-14700D01*
X46034Y-14668D01*
X46050Y-14631D01*
X46054Y-14618D01*
X46056Y-14607D01*
X46057Y-14605D01*
X46059Y-14597D01*
X46059Y-14598D01*
X46059Y-14543D01*
X46057Y-14537D01*
X46054Y-14524D01*
X46047Y-14501D01*
X46030Y-14466D01*
X46006Y-14435D01*
X45976Y-14410D01*
X45941Y-14390D01*
X45903Y-14378D01*
X45884Y-14375D01*
X45898Y-14372D01*
X45899Y-14372D01*
X45931Y-14362D01*
X45961Y-14349D01*
X45974Y-14340D01*
X45993Y-14324D01*
X46012Y-14305D01*
X46027Y-14287D01*
X46037Y-14269D01*
X46048Y-14244D01*
X46055Y-14221D01*
X46057Y-14210D01*
X46059Y-14205D01*
X46061Y-14208D01*
X46064Y-14220D01*
X46071Y-14246D01*
X46089Y-14282D01*
X46115Y-14314D01*
X46145Y-14340D01*
X46181Y-14360D01*
X46221Y-14372D01*
X46235Y-14375D01*
X46216Y-14378D01*
X46198Y-14383D01*
X46160Y-14399D01*
X46127Y-14423D01*
X46099Y-14453D01*
X46091Y-14465D01*
X46080Y-14482D01*
X46071Y-14503D01*
X46067Y-14517D01*
X46063Y-14533D01*
X46063Y-14533D01*
X46061Y-14541D01*
X46059Y-14543D01*
X46059Y-14598D01*
X46061Y-14599D01*
X46063Y-14609D01*
X46066Y-14622D01*
X46077Y-14652D01*
X46093Y-14680D01*
X46104Y-14695D01*
X46133Y-14724D01*
X46168Y-14746D01*
X46208Y-14761D01*
X46225Y-14764D01*
X46252Y-14766D01*
X46280Y-14765D01*
X46304Y-14761D01*
X46307Y-14760D01*
X46346Y-14744D01*
X46380Y-14722D01*
X46409Y-14693D01*
X46431Y-14658D01*
X46446Y-14618D01*
X46450Y-14601D01*
X46451Y-14574D01*
X46450Y-14546D01*
X46446Y-14522D01*
X46439Y-14501D01*
X46425Y-14473D01*
X46410Y-14449D01*
X46392Y-14429D01*
X46368Y-14410D01*
X46343Y-14395D01*
X46333Y-14390D01*
X46314Y-14383D01*
X46296Y-14378D01*
X46282Y-14376D01*
X46281Y-14375D01*
X46286Y-14373D01*
X46297Y-14370D01*
X46320Y-14363D01*
X46345Y-14353D01*
X46367Y-14340D01*
X46371Y-14337D01*
X46396Y-14314D01*
X46419Y-14287D01*
X46436Y-14257D01*
X46441Y-14243D01*
X46450Y-14204D01*
X46451Y-14163D01*
X46444Y-14124D01*
X46442Y-14115D01*
X46425Y-14079D01*
X46401Y-14047D01*
X46371Y-14020D01*
X46336Y-14000D01*
X46298Y-13986D01*
X46292Y-13985D01*
X46265Y-13983D01*
X46236Y-13983D01*
X46210Y-13987D01*
X46205Y-13989D01*
X46165Y-14004D01*
X46131Y-14027D01*
X46102Y-14056D01*
X46079Y-14092D01*
X46074Y-14103D01*
X46068Y-14121D01*
X46064Y-14138D01*
X46062Y-14150D01*
X46062Y-14153D01*
X46060Y-14154D01*
X46058Y-14149D01*
X46056Y-14138D01*
X46048Y-14111D01*
X46032Y-14077D01*
X46008Y-14046D01*
X45978Y-14020D01*
X45944Y-13999D01*
X45944Y-13999D01*
X45908Y-13987D01*
X45868Y-13983D01*
X45829Y-13985D01*
X45792Y-13996D01*
X45770Y-14006D01*
X45736Y-14029D01*
X45709Y-14058D01*
X45687Y-14093D01*
X45673Y-14131D01*
X45671Y-14139D01*
X45667Y-14171D01*
X45668Y-14201D01*
X45677Y-14237D01*
X45693Y-14275D01*
X45716Y-14308D01*
X45746Y-14335D01*
X45782Y-14356D01*
X45822Y-14370D01*
X45830Y-14372D01*
X45837Y-14375D01*
X45837Y-14376D01*
X45825Y-14377D01*
X45803Y-14384D01*
X45779Y-14394D01*
X45756Y-14407D01*
X45734Y-14424D01*
X45706Y-14453D01*
X45685Y-14489D01*
X45682Y-14495D01*
X45671Y-14534D01*
X45668Y-14574D01*
X45672Y-14614D01*
X45685Y-14652D01*
X45694Y-14670D01*
X45706Y-14688D01*
X45723Y-14706D01*
X45724Y-14707D01*
X45756Y-14734D01*
X45791Y-14753D01*
X45830Y-14764D01*
X45834Y-14764D01*
X45874Y-14767D01*
X45874Y-14767D01*
G37*
G54D11*
X57811Y-40712D02*
X57339Y-40751D01*
X57811Y-40751D02*
X56984Y-40791D01*
X57811Y-40791D02*
X56669Y-40830D01*
X57811Y-40830D02*
X56354Y-40869D01*
X57811Y-40869D02*
X55961Y-40909D01*
X57811Y-40909D02*
X55764Y-40948D01*
X57811Y-40948D02*
X55409Y-40987D01*
X57811Y-40987D02*
X55173Y-41027D01*
X57772Y-41027D02*
X54780Y-41066D01*
X54189Y-41106D02*
X57811Y-41106D01*
X57811Y-41106D02*
X57811Y-40633D01*
X57811Y-40633D02*
X54189Y-41106D01*
X56000Y-40397D02*
X55606Y-40043D01*
X55606Y-40043D02*
X56394Y-40043D01*
X56394Y-40043D02*
X56000Y-40397D01*
X53244Y-40869D02*
X53244Y-39294D01*
X58756Y-40869D02*
X58756Y-39294D01*
X58756Y-39294D02*
X58362Y-39294D01*
X58460Y-40938D02*
G75*
G02X56000Y-50121I-2460J-4261D01*
G74*
G01*
X53539Y-40938D02*
G75*
G03X56000Y-50121I2460J-4261D01*
G74*
G01*
X53244Y-39294D02*
X53638Y-39294D01*
X57969Y-40869D02*
X58756Y-40869D01*
X54031Y-40869D02*
X53244Y-40869D01*
X54031Y-41262D02*
X54031Y-40475D01*
X54031Y-40476D02*
X57969Y-40476D01*
X57969Y-40476D02*
X57969Y-41263D01*
X57969Y-41263D02*
X54031Y-41263D01*
G54D17*
X56196Y-35918D02*
X56196Y-36046D01*
X56196Y-36046D02*
X56393Y-36046D01*
X56393Y-35918D02*
X56393Y-36046D01*
X56196Y-35918D02*
X56393Y-35918D01*
X56196Y-35673D02*
X56196Y-35732D01*
X56196Y-35732D02*
X56295Y-35732D01*
X56295Y-35673D02*
X56295Y-35732D01*
X56196Y-35673D02*
X56295Y-35673D01*
X56196Y-35868D02*
X56196Y-35927D01*
X56196Y-35927D02*
X56295Y-35927D01*
X56295Y-35868D02*
X56295Y-35927D01*
X56196Y-35868D02*
X56295Y-35868D01*
X56196Y-35722D02*
X56196Y-35878D01*
X56196Y-35878D02*
X56265Y-35878D01*
X56265Y-35722D02*
X56265Y-35878D01*
X56196Y-35722D02*
X56265Y-35722D01*
X55607Y-35918D02*
X55607Y-36046D01*
X55607Y-36046D02*
X55804Y-36046D01*
X55804Y-35918D02*
X55804Y-36046D01*
X55607Y-35918D02*
X55804Y-35918D01*
X55607Y-35554D02*
X55607Y-35682D01*
X55607Y-35682D02*
X55804Y-35682D01*
X55804Y-35554D02*
X55804Y-35682D01*
X55607Y-35554D02*
X55804Y-35554D01*
X55705Y-35868D02*
X55705Y-35927D01*
X55705Y-35927D02*
X55804Y-35927D01*
X55804Y-35868D02*
X55804Y-35927D01*
X55705Y-35868D02*
X55804Y-35868D01*
X55705Y-35673D02*
X55705Y-35732D01*
X55705Y-35732D02*
X55804Y-35732D01*
X55804Y-35673D02*
X55804Y-35732D01*
X55705Y-35673D02*
X55804Y-35673D01*
X55735Y-35722D02*
X55735Y-35878D01*
X55735Y-35878D02*
X55804Y-35878D01*
X55804Y-35722D02*
X55804Y-35878D01*
X55735Y-35722D02*
X55804Y-35722D01*
X56000Y-35761D02*
X56000Y-35839D01*
X56000Y-35839D02*
X56078Y-35839D01*
X56078Y-35761D02*
X56078Y-35839D01*
X56000Y-35761D02*
X56078Y-35761D01*
X56196Y-35564D02*
X56196Y-35682D01*
X56196Y-35682D02*
X56314Y-35682D01*
X56314Y-35564D02*
X56314Y-35682D01*
X56196Y-35564D02*
X56314Y-35564D01*
X56364Y-35554D02*
X56364Y-35643D01*
X56364Y-35643D02*
X56393Y-35643D01*
X56393Y-35554D02*
X56393Y-35643D01*
X56364Y-35554D02*
X56393Y-35554D01*
G54D18*
X56206Y-36026D02*
X55794Y-36026D01*
X55804Y-35574D02*
X56364Y-35574D01*
G54D19*
X56362Y-35623D02*
G75*
G03X56362Y-35623I-28J0D01*
G74*
G01*
G54D18*
X56393Y-35663D02*
G75*
G03X56393Y-35937I0J-137D01*
G74*
G01*
X55607Y-35937D02*
G75*
G03X55607Y-35663I0J137D01*
G74*
G01*
G54D20*
X40270Y-15354D02*
G75*
G03X40270Y-15354I-900J0D01*
G74*
G01*
X75703Y-15354D02*
G75*
G03X75703Y-15354I-900J0D01*
G74*
G01*
X40270Y-50787D02*
G75*
G03X40270Y-50787I-900J0D01*
G74*
G01*
X75703Y-50787D02*
G75*
G03X75703Y-50787I-900J0D01*
G74*
G01*
G54D11*
X43750Y-45650D02*
X43750Y-46850D01*
X43750Y-46850D02*
X46550Y-46850D01*
X46550Y-46850D02*
X46550Y-45650D01*
X43750Y-44450D02*
X43750Y-44150D01*
X43750Y-44150D02*
X44350Y-43250D01*
X44350Y-43250D02*
X45950Y-43250D01*
X45950Y-43250D02*
X46550Y-44150D01*
X46550Y-44150D02*
X46550Y-44450D01*
G54D17*
X44871Y-38085D02*
X45166Y-38085D01*
X45166Y-38085D02*
X45166Y-37515D01*
X44871Y-37515D02*
X45166Y-37515D01*
X44871Y-38085D02*
X44871Y-37515D01*
X45440Y-38085D02*
X45735Y-38085D01*
X45735Y-38085D02*
X45735Y-37515D01*
X45440Y-37515D02*
X45735Y-37515D01*
X45440Y-38085D02*
X45440Y-37515D01*
X45261Y-37957D02*
X45339Y-37957D01*
X45339Y-37957D02*
X45339Y-37643D01*
X45261Y-37643D02*
X45339Y-37643D01*
X45261Y-37957D02*
X45261Y-37643D01*
G54D19*
X44524Y-37413D02*
X46076Y-37413D01*
X46076Y-38187D02*
X44524Y-38187D01*
X44524Y-38187D02*
X44524Y-37413D01*
G54D18*
X45150Y-37541D02*
X45450Y-37541D01*
X45160Y-38059D02*
X45450Y-38059D01*
G54D19*
X46076Y-37413D02*
X46076Y-38187D01*
G54D17*
X46920Y-47415D02*
X46624Y-47415D01*
X46624Y-47415D02*
X46624Y-48084D01*
X46920Y-48084D02*
X46624Y-48084D01*
X46920Y-47415D02*
X46920Y-48084D01*
X45876Y-47416D02*
X45580Y-47416D01*
X45580Y-47416D02*
X45580Y-48085D01*
X45876Y-48085D02*
X45580Y-48085D01*
X45876Y-47416D02*
X45876Y-48085D01*
X46328Y-47593D02*
X46172Y-47593D01*
X46172Y-47593D02*
X46172Y-47907D01*
X46328Y-47907D02*
X46172Y-47907D01*
X46328Y-47593D02*
X46328Y-47907D01*
G54D19*
X47223Y-48137D02*
X45277Y-48137D01*
X45277Y-47363D02*
X47223Y-47363D01*
X47223Y-47363D02*
X47223Y-48137D01*
X45277Y-48137D02*
X45277Y-47363D01*
G54D18*
X46629Y-48059D02*
X45871Y-48059D01*
X46629Y-47441D02*
X45871Y-47441D01*
G54D17*
X43380Y-48085D02*
X43676Y-48085D01*
X43676Y-48085D02*
X43676Y-47416D01*
X43380Y-47416D02*
X43676Y-47416D01*
X43380Y-48085D02*
X43380Y-47416D01*
X44424Y-48084D02*
X44720Y-48084D01*
X44720Y-48084D02*
X44720Y-47415D01*
X44424Y-47415D02*
X44720Y-47415D01*
X44424Y-48084D02*
X44424Y-47415D01*
X43972Y-47907D02*
X44128Y-47907D01*
X44128Y-47907D02*
X44128Y-47593D01*
X43972Y-47593D02*
X44128Y-47593D01*
X43972Y-47907D02*
X43972Y-47593D01*
G54D19*
X43077Y-47363D02*
X45023Y-47363D01*
X45023Y-48137D02*
X43077Y-48137D01*
X43077Y-48137D02*
X43077Y-47363D01*
X45023Y-47363D02*
X45023Y-48137D01*
G54D18*
X43671Y-47441D02*
X44429Y-47441D01*
X43671Y-48059D02*
X44429Y-48059D01*
G54D17*
X44080Y-35054D02*
X44080Y-35247D01*
X44080Y-35247D02*
X44513Y-35247D01*
X44513Y-35054D02*
X44513Y-35247D01*
X44080Y-35054D02*
X44513Y-35054D01*
X44080Y-35554D02*
X44080Y-35747D01*
X44080Y-35747D02*
X44513Y-35747D01*
X44513Y-35554D02*
X44513Y-35747D01*
X44080Y-35554D02*
X44513Y-35554D01*
X44080Y-36053D02*
X44080Y-36246D01*
X44080Y-36246D02*
X44513Y-36246D01*
X44513Y-36053D02*
X44513Y-36246D01*
X44080Y-36053D02*
X44513Y-36053D01*
X44080Y-36553D02*
X44080Y-36746D01*
X44080Y-36746D02*
X44513Y-36746D01*
X44513Y-36553D02*
X44513Y-36746D01*
X44080Y-36553D02*
X44513Y-36553D01*
X46087Y-36553D02*
X46087Y-36746D01*
X46087Y-36746D02*
X46520Y-36746D01*
X46520Y-36553D02*
X46520Y-36746D01*
X46087Y-36553D02*
X46520Y-36553D01*
X46087Y-36053D02*
X46087Y-36246D01*
X46087Y-36246D02*
X46520Y-36246D01*
X46520Y-36053D02*
X46520Y-36246D01*
X46087Y-36053D02*
X46520Y-36053D01*
X46087Y-35554D02*
X46087Y-35747D01*
X46087Y-35747D02*
X46520Y-35747D01*
X46520Y-35554D02*
X46520Y-35747D01*
X46087Y-35554D02*
X46520Y-35554D01*
X46087Y-35054D02*
X46087Y-35247D01*
X46087Y-35247D02*
X46520Y-35247D01*
X46520Y-35054D02*
X46520Y-35247D01*
X46087Y-35054D02*
X46520Y-35054D01*
G54D21*
X46835Y-34759D02*
X46835Y-37041D01*
X46835Y-37041D02*
X43765Y-37041D01*
X43765Y-37041D02*
X43765Y-34759D01*
X43765Y-34759D02*
X46835Y-34759D01*
G54D11*
X46048Y-36844D02*
X44749Y-36844D01*
X44749Y-36844D02*
X44552Y-36844D01*
X44552Y-36844D02*
X44552Y-34956D01*
X44552Y-34956D02*
X44749Y-34956D01*
X44749Y-34956D02*
X46048Y-34956D01*
X46048Y-34956D02*
X46048Y-36844D01*
X44749Y-36844D02*
X44749Y-34956D01*
G54D17*
X56170Y-35070D02*
X56330Y-35070D01*
X56330Y-35070D02*
X56330Y-34730D01*
X56170Y-34730D02*
X56330Y-34730D01*
X56170Y-35070D02*
X56170Y-34730D01*
X55670Y-35070D02*
X55830Y-35070D01*
X55830Y-35070D02*
X55830Y-34730D01*
X55670Y-34730D02*
X55830Y-34730D01*
X55670Y-35070D02*
X55670Y-34730D01*
X55922Y-35057D02*
X56078Y-35057D01*
X56078Y-35057D02*
X56078Y-34743D01*
X55922Y-34743D02*
X56078Y-34743D01*
X55922Y-35057D02*
X55922Y-34743D01*
G54D15*
X55830Y-35040D02*
X56170Y-35040D01*
X56170Y-34760D02*
X55830Y-34760D01*
G54D19*
X55421Y-34513D02*
X56579Y-34513D01*
X56579Y-34513D02*
X56579Y-35287D01*
X56579Y-35287D02*
X55421Y-35287D01*
X55421Y-35287D02*
X55421Y-34513D01*
G54D11*
X75862Y-36000D02*
G75*
G03X75862Y-36000I-2362J0D01*
G74*
G01*
X75862Y-43000D02*
G75*
G03X75862Y-43000I-2362J0D01*
G74*
G01*
X67700Y-41921D02*
X67700Y-42551D01*
X67700Y-32079D02*
X67700Y-31449D01*
X68150Y-40242D02*
G75*
G03X67581Y-40031I-450J-340D01*
G74*
G01*
X67621Y-40465D02*
X67818Y-40268D01*
X67818Y-40268D02*
X67582Y-40031D01*
X67581Y-41133D02*
G75*
G03X68250Y-40701I118J550D01*
G74*
G01*
X67621Y-40465D02*
X68251Y-40465D01*
X68251Y-40701D02*
X67621Y-40701D01*
X67188Y-40583D02*
X68251Y-40583D01*
X67307Y-40188D02*
G75*
G03X67305Y-40975I392J-394D01*
G74*
G01*
X68426Y-40583D02*
G75*
G03X68426Y-40583I-726J0D01*
G74*
G01*
X66440Y-41921D02*
X66440Y-32079D01*
X66440Y-32079D02*
X68960Y-32079D01*
X68960Y-32079D02*
X68960Y-41921D01*
X68960Y-41921D02*
X66440Y-41921D01*
X64900Y-41921D02*
X64900Y-42551D01*
X64900Y-32079D02*
X64900Y-31449D01*
X65350Y-40242D02*
G75*
G03X64781Y-40031I-450J-340D01*
G74*
G01*
X64821Y-40465D02*
X65018Y-40268D01*
X65018Y-40268D02*
X64782Y-40031D01*
X64781Y-41133D02*
G75*
G03X65450Y-40701I118J550D01*
G74*
G01*
X64821Y-40465D02*
X65451Y-40465D01*
X65451Y-40701D02*
X64821Y-40701D01*
X64388Y-40583D02*
X65451Y-40583D01*
X64507Y-40188D02*
G75*
G03X64505Y-40975I392J-394D01*
G74*
G01*
X65626Y-40583D02*
G75*
G03X65626Y-40583I-726J0D01*
G74*
G01*
X63640Y-41921D02*
X63640Y-32079D01*
X63640Y-32079D02*
X66160Y-32079D01*
X66160Y-32079D02*
X66160Y-41921D01*
X66160Y-41921D02*
X63640Y-41921D01*
G54D17*
X45140Y-30725D02*
X44885Y-30725D01*
X44885Y-30725D02*
X44885Y-31276D01*
X45140Y-31276D02*
X44885Y-31276D01*
X45140Y-30725D02*
X45140Y-31276D01*
X45720Y-30725D02*
X45464Y-30725D01*
X45464Y-30725D02*
X45464Y-31276D01*
X45720Y-31276D02*
X45464Y-31276D01*
X45720Y-30725D02*
X45720Y-31276D01*
X45378Y-30804D02*
X45222Y-30804D01*
X45222Y-30804D02*
X45222Y-31196D01*
X45378Y-31196D02*
X45222Y-31196D01*
X45378Y-30804D02*
X45378Y-31196D01*
G54D15*
X45461Y-31250D02*
X45139Y-31250D01*
X45461Y-30750D02*
X45139Y-30750D01*
G54D19*
X46076Y-31387D02*
X44524Y-31387D01*
X44524Y-31387D02*
X44524Y-30613D01*
X44524Y-30613D02*
X46076Y-30613D01*
X46076Y-30613D02*
X46076Y-31387D01*
G54D17*
X44871Y-32485D02*
X45166Y-32485D01*
X45166Y-32485D02*
X45166Y-31915D01*
X44871Y-31915D02*
X45166Y-31915D01*
X44871Y-32485D02*
X44871Y-31915D01*
X45440Y-32485D02*
X45735Y-32485D01*
X45735Y-32485D02*
X45735Y-31915D01*
X45440Y-31915D02*
X45735Y-31915D01*
X45440Y-32485D02*
X45440Y-31915D01*
X45261Y-32357D02*
X45339Y-32357D01*
X45339Y-32357D02*
X45339Y-32043D01*
X45261Y-32043D02*
X45339Y-32043D01*
X45261Y-32357D02*
X45261Y-32043D01*
G54D19*
X44524Y-31813D02*
X46076Y-31813D01*
X46076Y-32587D02*
X44524Y-32587D01*
X44524Y-32587D02*
X44524Y-31813D01*
G54D18*
X45150Y-31941D02*
X45450Y-31941D01*
X45160Y-32459D02*
X45450Y-32459D01*
G54D19*
X46076Y-31813D02*
X46076Y-32587D01*
G54D17*
X45970Y-38765D02*
X45674Y-38765D01*
X45674Y-38765D02*
X45674Y-39434D01*
X45970Y-39434D02*
X45674Y-39434D01*
X45970Y-38765D02*
X45970Y-39434D01*
X44926Y-38766D02*
X44630Y-38766D01*
X44630Y-38766D02*
X44630Y-39435D01*
X44926Y-39435D02*
X44630Y-39435D01*
X44926Y-38766D02*
X44926Y-39435D01*
X45378Y-38943D02*
X45222Y-38943D01*
X45222Y-38943D02*
X45222Y-39257D01*
X45378Y-39257D02*
X45222Y-39257D01*
X45378Y-38943D02*
X45378Y-39257D01*
G54D19*
X46273Y-39487D02*
X44327Y-39487D01*
X44327Y-38713D02*
X46273Y-38713D01*
X46273Y-38713D02*
X46273Y-39487D01*
X44327Y-39487D02*
X44327Y-38713D01*
G54D18*
X45679Y-39409D02*
X44921Y-39409D01*
X45679Y-38791D02*
X44921Y-38791D01*
G54D17*
X45460Y-34475D02*
X45715Y-34475D01*
X45715Y-34475D02*
X45715Y-33924D01*
X45460Y-33924D02*
X45715Y-33924D01*
X45460Y-34475D02*
X45460Y-33924D01*
X44880Y-34475D02*
X45136Y-34475D01*
X45136Y-34475D02*
X45136Y-33924D01*
X44880Y-33924D02*
X45136Y-33924D01*
X44880Y-34475D02*
X44880Y-33924D01*
X45222Y-34396D02*
X45378Y-34396D01*
X45378Y-34396D02*
X45378Y-34004D01*
X45222Y-34004D02*
X45378Y-34004D01*
X45222Y-34396D02*
X45222Y-34004D01*
G54D15*
X45139Y-33950D02*
X45461Y-33950D01*
X45139Y-34450D02*
X45461Y-34450D01*
G54D19*
X44524Y-33813D02*
X46076Y-33813D01*
X46076Y-33813D02*
X46076Y-34587D01*
X46076Y-34587D02*
X44524Y-34587D01*
X44524Y-34587D02*
X44524Y-33813D01*
G54D11*
X49271Y-28341D02*
X53129Y-28341D01*
X53287Y-27002D02*
X53208Y-28262D01*
X53208Y-28262D02*
X53129Y-28341D01*
X49113Y-27002D02*
X49192Y-28262D01*
X49192Y-28262D02*
X49271Y-28341D01*
X53287Y-27002D02*
X53287Y-26490D01*
X49113Y-27002D02*
X49113Y-26490D01*
X51948Y-26490D02*
X51948Y-27002D01*
X50452Y-26490D02*
X50452Y-27002D01*
X49113Y-27002D02*
X53287Y-27002D01*
X53287Y-26490D02*
X49113Y-26490D01*
X61071Y-28341D02*
X64929Y-28341D01*
X65087Y-27002D02*
X65008Y-28262D01*
X65008Y-28262D02*
X64929Y-28341D01*
X60913Y-27002D02*
X60992Y-28262D01*
X60992Y-28262D02*
X61071Y-28341D01*
X65087Y-27002D02*
X65087Y-26490D01*
X60913Y-27002D02*
X60913Y-26490D01*
X63748Y-26490D02*
X63748Y-27002D01*
X62252Y-26490D02*
X62252Y-27002D01*
X60913Y-27002D02*
X65087Y-27002D01*
X65087Y-26490D02*
X60913Y-26490D01*
G54D17*
X53740Y-29925D02*
X53485Y-29925D01*
X53485Y-29925D02*
X53485Y-30476D01*
X53740Y-30476D02*
X53485Y-30476D01*
X53740Y-29925D02*
X53740Y-30476D01*
X54320Y-29925D02*
X54064Y-29925D01*
X54064Y-29925D02*
X54064Y-30476D01*
X54320Y-30476D02*
X54064Y-30476D01*
X54320Y-29925D02*
X54320Y-30476D01*
X53978Y-30004D02*
X53822Y-30004D01*
X53822Y-30004D02*
X53822Y-30396D01*
X53978Y-30396D02*
X53822Y-30396D01*
X53978Y-30004D02*
X53978Y-30396D01*
G54D15*
X54061Y-30450D02*
X53739Y-30450D01*
X54061Y-29950D02*
X53739Y-29950D01*
G54D19*
X54676Y-30587D02*
X53124Y-30587D01*
X53124Y-30587D02*
X53124Y-29813D01*
X53124Y-29813D02*
X54676Y-29813D01*
X54676Y-29813D02*
X54676Y-30587D01*
G54D17*
X58260Y-30475D02*
X58515Y-30475D01*
X58515Y-30475D02*
X58515Y-29924D01*
X58260Y-29924D02*
X58515Y-29924D01*
X58260Y-30475D02*
X58260Y-29924D01*
X57680Y-30475D02*
X57936Y-30475D01*
X57936Y-30475D02*
X57936Y-29924D01*
X57680Y-29924D02*
X57936Y-29924D01*
X57680Y-30475D02*
X57680Y-29924D01*
X58022Y-30396D02*
X58178Y-30396D01*
X58178Y-30396D02*
X58178Y-30004D01*
X58022Y-30004D02*
X58178Y-30004D01*
X58022Y-30396D02*
X58022Y-30004D01*
G54D15*
X57939Y-29950D02*
X58261Y-29950D01*
X57939Y-30450D02*
X58261Y-30450D01*
G54D19*
X57324Y-29813D02*
X58876Y-29813D01*
X58876Y-29813D02*
X58876Y-30587D01*
X58876Y-30587D02*
X57324Y-30587D01*
X57324Y-30587D02*
X57324Y-29813D01*
G54D11*
X55171Y-28341D02*
X59029Y-28341D01*
X59187Y-27002D02*
X59108Y-28262D01*
X59108Y-28262D02*
X59029Y-28341D01*
X55013Y-27002D02*
X55092Y-28262D01*
X55092Y-28262D02*
X55171Y-28341D01*
X59187Y-27002D02*
X59187Y-26490D01*
X55013Y-27002D02*
X55013Y-26490D01*
X57848Y-26490D02*
X57848Y-27002D01*
X56352Y-26490D02*
X56352Y-27002D01*
X55013Y-27002D02*
X59187Y-27002D01*
X59187Y-26490D02*
X55013Y-26490D01*
G54D17*
X61920Y-42590D02*
X61920Y-42410D01*
X61920Y-42410D02*
X61691Y-42410D01*
X61691Y-42590D02*
X61691Y-42410D01*
X61920Y-42590D02*
X61691Y-42590D01*
X62709Y-42220D02*
X62709Y-42040D01*
X62709Y-42040D02*
X62480Y-42040D01*
X62480Y-42220D02*
X62480Y-42040D01*
X62709Y-42220D02*
X62480Y-42220D01*
X62709Y-42960D02*
X62709Y-42780D01*
X62709Y-42780D02*
X62480Y-42780D01*
X62480Y-42960D02*
X62480Y-42780D01*
X62709Y-42960D02*
X62480Y-42960D01*
X62318Y-42696D02*
X62318Y-42304D01*
X62318Y-42304D02*
X62082Y-42304D01*
X62082Y-42696D02*
X62082Y-42304D01*
X62318Y-42696D02*
X62082Y-42696D01*
G54D19*
X61420Y-43276D02*
X61420Y-41724D01*
X62980Y-41724D02*
X62980Y-43276D01*
X62980Y-43276D02*
X61420Y-43276D01*
X61420Y-41724D02*
X62980Y-41724D01*
G54D15*
X61941Y-41941D02*
X62459Y-41941D01*
X62459Y-41941D02*
X62459Y-43059D01*
X62459Y-43059D02*
X61941Y-43059D01*
X61941Y-43059D02*
X61941Y-41941D01*
G54D17*
X61920Y-44390D02*
X61920Y-44210D01*
X61920Y-44210D02*
X61691Y-44210D01*
X61691Y-44390D02*
X61691Y-44210D01*
X61920Y-44390D02*
X61691Y-44390D01*
X62709Y-44020D02*
X62709Y-43840D01*
X62709Y-43840D02*
X62480Y-43840D01*
X62480Y-44020D02*
X62480Y-43840D01*
X62709Y-44020D02*
X62480Y-44020D01*
X62709Y-44760D02*
X62709Y-44580D01*
X62709Y-44580D02*
X62480Y-44580D01*
X62480Y-44760D02*
X62480Y-44580D01*
X62709Y-44760D02*
X62480Y-44760D01*
X62318Y-44496D02*
X62318Y-44104D01*
X62318Y-44104D02*
X62082Y-44104D01*
X62082Y-44496D02*
X62082Y-44104D01*
X62318Y-44496D02*
X62082Y-44496D01*
G54D19*
X61420Y-45076D02*
X61420Y-43524D01*
X62980Y-43524D02*
X62980Y-45076D01*
X62980Y-45076D02*
X61420Y-45076D01*
X61420Y-43524D02*
X62980Y-43524D01*
G54D15*
X61941Y-43741D02*
X62459Y-43741D01*
X62459Y-43741D02*
X62459Y-44859D01*
X62459Y-44859D02*
X61941Y-44859D01*
X61941Y-44859D02*
X61941Y-43741D01*
G54D17*
X50840Y-38125D02*
X50585Y-38125D01*
X50585Y-38125D02*
X50585Y-38676D01*
X50840Y-38676D02*
X50585Y-38676D01*
X50840Y-38125D02*
X50840Y-38676D01*
X51420Y-38125D02*
X51164Y-38125D01*
X51164Y-38125D02*
X51164Y-38676D01*
X51420Y-38676D02*
X51164Y-38676D01*
X51420Y-38125D02*
X51420Y-38676D01*
X51078Y-38204D02*
X50922Y-38204D01*
X50922Y-38204D02*
X50922Y-38596D01*
X51078Y-38596D02*
X50922Y-38596D01*
X51078Y-38204D02*
X51078Y-38596D01*
G54D15*
X51161Y-38650D02*
X50839Y-38650D01*
X51161Y-38150D02*
X50839Y-38150D01*
G54D19*
X51776Y-38787D02*
X50224Y-38787D01*
X50224Y-38787D02*
X50224Y-38013D01*
X50224Y-38013D02*
X51776Y-38013D01*
X51776Y-38013D02*
X51776Y-38787D01*
G54D12*
X60200Y-40800D02*
X60200Y-40400D01*
X60200Y-35800D02*
X60200Y-36200D01*
X59700Y-36200D02*
X60700Y-36200D01*
X60700Y-36200D02*
X60700Y-40400D01*
X60700Y-40400D02*
X59700Y-40400D01*
X59700Y-40400D02*
X59700Y-36200D01*
X59900Y-40400D02*
X59700Y-40200D01*
X61600Y-40800D02*
X61600Y-40400D01*
X61600Y-35800D02*
X61600Y-36200D01*
X61100Y-36200D02*
X62100Y-36200D01*
X62100Y-36200D02*
X62100Y-40400D01*
X62100Y-40400D02*
X61100Y-40400D01*
X61100Y-40400D02*
X61100Y-36200D01*
X61300Y-40400D02*
X61100Y-40200D01*
G54D11*
X37716Y-46417D02*
X37913Y-45157D01*
X37913Y-45157D02*
X38110Y-45157D01*
X37519Y-46417D02*
X37716Y-46417D01*
X37519Y-47205D02*
X37716Y-47205D01*
X37716Y-47205D02*
X37913Y-48465D01*
X37913Y-48465D02*
X38110Y-48465D01*
X37519Y-46417D02*
X37519Y-47205D01*
X39173Y-47677D02*
X39882Y-47677D01*
X39173Y-45315D02*
X39882Y-45315D01*
X39173Y-45315D02*
X39173Y-47677D01*
X40433Y-47575D02*
X39882Y-47575D01*
X40433Y-47417D02*
X39882Y-47417D01*
X40433Y-45575D02*
X39882Y-45575D01*
X40433Y-45417D02*
X39882Y-45417D01*
X40433Y-45575D02*
X40433Y-45417D01*
X40433Y-46575D02*
X39882Y-46575D01*
X40433Y-46417D02*
X39882Y-46417D01*
X40078Y-44527D02*
X40078Y-44921D01*
X40078Y-44921D02*
X39882Y-44921D01*
X38110Y-48465D02*
X40078Y-48465D01*
X40078Y-48465D02*
X40078Y-48071D01*
X40078Y-48071D02*
X39882Y-48071D01*
X40078Y-44527D02*
X38110Y-44527D01*
X40433Y-47417D02*
X40433Y-47575D01*
X40433Y-46417D02*
X40433Y-46575D01*
X39882Y-44527D02*
X39882Y-48465D01*
X38110Y-44527D02*
X38110Y-48465D01*
G54D12*
X52300Y-36600D02*
X51300Y-36600D01*
X51300Y-36600D02*
X51300Y-33600D01*
X51300Y-33600D02*
X52300Y-33600D01*
X52300Y-33600D02*
X52300Y-36600D01*
X51300Y-35600D02*
X52300Y-35600D01*
X39600Y-29700D02*
X39600Y-29700D01*
X38600Y-29700D02*
X39600Y-29700D01*
X39600Y-29700D02*
X39600Y-29700D01*
X39600Y-29700D02*
X39600Y-33700D01*
X39600Y-33700D02*
X38600Y-33700D01*
X38600Y-33700D02*
X38600Y-29700D01*
X38600Y-30700D02*
X39600Y-30700D01*
X55128Y-18524D02*
X55128Y-17924D01*
X55128Y-18210D02*
X55471Y-18210D01*
X55471Y-18524D02*
X55471Y-17924D01*
X55757Y-18210D02*
X55957Y-18210D01*
X56042Y-18524D02*
X55757Y-18524D01*
X55757Y-17924D01*
X56042Y-17924D01*
X56271Y-18353D02*
X56557Y-18353D01*
X56214Y-18524D02*
X56414Y-17924D01*
X56614Y-18524D01*
X56728Y-17924D02*
X57071Y-17924D01*
X56900Y-18524D02*
X56900Y-17924D01*
X57242Y-18496D02*
X57328Y-18524D01*
X57471Y-18524D01*
X57528Y-18496D01*
X57557Y-18467D01*
X57585Y-18410D01*
X57585Y-18353D01*
X57557Y-18296D01*
X57528Y-18267D01*
X57471Y-18239D01*
X57357Y-18210D01*
X57300Y-18182D01*
X57271Y-18153D01*
X57242Y-18096D01*
X57242Y-18039D01*
X57271Y-17982D01*
X57300Y-17953D01*
X57357Y-17924D01*
X57500Y-17924D01*
X57585Y-17953D01*
X57842Y-18524D02*
X57842Y-17924D01*
X58128Y-18524D02*
X58128Y-17924D01*
X58471Y-18524D01*
X58471Y-17924D01*
X58757Y-18524D02*
X58757Y-17924D01*
X59100Y-18524D02*
X58842Y-18182D01*
X59100Y-17924D02*
X58757Y-18267D01*
G54D11*
X56904Y-35961D02*
X56904Y-35561D01*
X57000Y-35561D01*
X57057Y-35580D01*
X57095Y-35619D01*
X57114Y-35657D01*
X57133Y-35733D01*
X57133Y-35790D01*
X57114Y-35866D01*
X57095Y-35904D01*
X57057Y-35942D01*
X57000Y-35961D01*
X56904Y-35961D01*
X57514Y-35961D02*
X57285Y-35961D01*
X57400Y-35961D02*
X57400Y-35561D01*
X57361Y-35619D01*
X57323Y-35657D01*
X57285Y-35676D01*
X44795Y-41861D02*
X44795Y-42185D01*
X44814Y-42223D01*
X44833Y-42242D01*
X44871Y-42261D01*
X44947Y-42261D01*
X44985Y-42242D01*
X45004Y-42223D01*
X45023Y-42185D01*
X45023Y-41861D01*
X45423Y-42261D02*
X45195Y-42261D01*
X45309Y-42261D02*
X45309Y-41861D01*
X45271Y-41919D01*
X45233Y-41957D01*
X45195Y-41976D01*
X44133Y-42561D02*
X44361Y-42561D01*
X44247Y-42961D02*
X44247Y-42561D01*
X44476Y-42942D02*
X44533Y-42961D01*
X44628Y-42961D01*
X44666Y-42942D01*
X44685Y-42923D01*
X44704Y-42885D01*
X44704Y-42847D01*
X44685Y-42809D01*
X44666Y-42790D01*
X44628Y-42771D01*
X44552Y-42752D01*
X44514Y-42733D01*
X44495Y-42714D01*
X44476Y-42676D01*
X44476Y-42638D01*
X44495Y-42600D01*
X44514Y-42580D01*
X44552Y-42561D01*
X44647Y-42561D01*
X44704Y-42580D01*
X44857Y-42600D02*
X44876Y-42580D01*
X44914Y-42561D01*
X45009Y-42561D01*
X45047Y-42580D01*
X45066Y-42600D01*
X45085Y-42638D01*
X45085Y-42676D01*
X45066Y-42733D01*
X44838Y-42961D01*
X45085Y-42961D01*
X45276Y-42961D02*
X45352Y-42961D01*
X45390Y-42942D01*
X45409Y-42923D01*
X45447Y-42866D01*
X45466Y-42790D01*
X45466Y-42638D01*
X45447Y-42600D01*
X45428Y-42580D01*
X45390Y-42561D01*
X45314Y-42561D01*
X45276Y-42580D01*
X45257Y-42600D01*
X45238Y-42638D01*
X45238Y-42733D01*
X45257Y-42771D01*
X45276Y-42790D01*
X45314Y-42809D01*
X45390Y-42809D01*
X45428Y-42790D01*
X45447Y-42771D01*
X45466Y-42733D01*
X45809Y-42695D02*
X45809Y-42961D01*
X45714Y-42542D02*
X45619Y-42828D01*
X45866Y-42828D01*
X46095Y-42561D02*
X46133Y-42561D01*
X46171Y-42580D01*
X46190Y-42600D01*
X46209Y-42638D01*
X46228Y-42714D01*
X46228Y-42809D01*
X46209Y-42885D01*
X46190Y-42923D01*
X46171Y-42942D01*
X46133Y-42961D01*
X46095Y-42961D01*
X46057Y-42942D01*
X46038Y-42923D01*
X46019Y-42885D01*
X46000Y-42809D01*
X46000Y-42714D01*
X46019Y-42638D01*
X46038Y-42600D01*
X46057Y-42580D01*
X46095Y-42561D01*
X46533Y-37923D02*
X46514Y-37942D01*
X46457Y-37961D01*
X46419Y-37961D01*
X46361Y-37942D01*
X46323Y-37904D01*
X46304Y-37866D01*
X46285Y-37790D01*
X46285Y-37733D01*
X46304Y-37657D01*
X46323Y-37619D01*
X46361Y-37580D01*
X46419Y-37561D01*
X46457Y-37561D01*
X46514Y-37580D01*
X46533Y-37600D01*
X46666Y-37561D02*
X46914Y-37561D01*
X46780Y-37714D01*
X46838Y-37714D01*
X46876Y-37733D01*
X46895Y-37752D01*
X46914Y-37790D01*
X46914Y-37885D01*
X46895Y-37923D01*
X46876Y-37942D01*
X46838Y-37961D01*
X46723Y-37961D01*
X46685Y-37942D01*
X46666Y-37923D01*
X48233Y-47923D02*
X48214Y-47942D01*
X48157Y-47961D01*
X48119Y-47961D01*
X48061Y-47942D01*
X48023Y-47904D01*
X48004Y-47866D01*
X47985Y-47790D01*
X47985Y-47733D01*
X48004Y-47657D01*
X48023Y-47619D01*
X48061Y-47580D01*
X48119Y-47561D01*
X48157Y-47561D01*
X48214Y-47580D01*
X48233Y-47600D01*
X48614Y-47961D02*
X48385Y-47961D01*
X48500Y-47961D02*
X48500Y-47561D01*
X48461Y-47619D01*
X48423Y-47657D01*
X48385Y-47676D01*
X41983Y-47873D02*
X41964Y-47892D01*
X41907Y-47911D01*
X41869Y-47911D01*
X41811Y-47892D01*
X41773Y-47854D01*
X41754Y-47816D01*
X41735Y-47740D01*
X41735Y-47683D01*
X41754Y-47607D01*
X41773Y-47569D01*
X41811Y-47530D01*
X41869Y-47511D01*
X41907Y-47511D01*
X41964Y-47530D01*
X41983Y-47550D01*
X42135Y-47550D02*
X42154Y-47530D01*
X42192Y-47511D01*
X42288Y-47511D01*
X42326Y-47530D01*
X42345Y-47550D01*
X42364Y-47588D01*
X42364Y-47626D01*
X42345Y-47683D01*
X42116Y-47911D01*
X42364Y-47911D01*
X42895Y-35661D02*
X42895Y-35985D01*
X42914Y-36023D01*
X42933Y-36042D01*
X42971Y-36061D01*
X43047Y-36061D01*
X43085Y-36042D01*
X43104Y-36023D01*
X43123Y-35985D01*
X43123Y-35661D01*
X43295Y-35700D02*
X43314Y-35680D01*
X43352Y-35661D01*
X43447Y-35661D01*
X43485Y-35680D01*
X43504Y-35700D01*
X43523Y-35738D01*
X43523Y-35776D01*
X43504Y-35833D01*
X43276Y-36061D01*
X43523Y-36061D01*
X47461Y-36766D02*
X47461Y-36957D01*
X47061Y-36957D01*
X47461Y-36633D02*
X47061Y-36633D01*
X47347Y-36500D01*
X47061Y-36366D01*
X47461Y-36366D01*
X47100Y-36195D02*
X47080Y-36176D01*
X47061Y-36138D01*
X47061Y-36042D01*
X47080Y-36004D01*
X47100Y-35985D01*
X47138Y-35966D01*
X47176Y-35966D01*
X47233Y-35985D01*
X47461Y-36214D01*
X47461Y-35966D01*
X47461Y-35776D02*
X47461Y-35699D01*
X47442Y-35661D01*
X47423Y-35642D01*
X47366Y-35604D01*
X47290Y-35585D01*
X47138Y-35585D01*
X47100Y-35604D01*
X47080Y-35623D01*
X47061Y-35661D01*
X47061Y-35738D01*
X47080Y-35776D01*
X47100Y-35795D01*
X47138Y-35814D01*
X47233Y-35814D01*
X47271Y-35795D01*
X47290Y-35776D01*
X47309Y-35738D01*
X47309Y-35661D01*
X47290Y-35623D01*
X47271Y-35604D01*
X47233Y-35585D01*
X47061Y-35338D02*
X47061Y-35300D01*
X47080Y-35261D01*
X47100Y-35242D01*
X47138Y-35223D01*
X47214Y-35204D01*
X47309Y-35204D01*
X47385Y-35223D01*
X47423Y-35242D01*
X47442Y-35261D01*
X47461Y-35300D01*
X47461Y-35338D01*
X47442Y-35376D01*
X47423Y-35395D01*
X47385Y-35414D01*
X47309Y-35433D01*
X47214Y-35433D01*
X47138Y-35414D01*
X47100Y-35395D01*
X47080Y-35376D01*
X47061Y-35338D01*
X47195Y-34861D02*
X47461Y-34861D01*
X47042Y-34957D02*
X47328Y-35052D01*
X47328Y-34804D01*
G54D22*
X56942Y-35021D02*
X56842Y-34878D01*
X56771Y-35021D02*
X56771Y-34721D01*
X56885Y-34721D01*
X56914Y-34735D01*
X56928Y-34750D01*
X56942Y-34778D01*
X56942Y-34821D01*
X56928Y-34850D01*
X56914Y-34864D01*
X56885Y-34878D01*
X56771Y-34878D01*
X57214Y-35021D02*
X57071Y-35021D01*
X57071Y-34721D01*
X57314Y-34864D02*
X57414Y-34864D01*
X57457Y-35021D02*
X57314Y-35021D01*
X57314Y-34721D01*
X57457Y-34721D01*
X57585Y-35021D02*
X57585Y-34721D01*
X57657Y-34721D01*
X57700Y-34735D01*
X57728Y-34764D01*
X57742Y-34792D01*
X57757Y-34850D01*
X57757Y-34892D01*
X57742Y-34950D01*
X57728Y-34978D01*
X57700Y-35007D01*
X57657Y-35021D01*
X57585Y-35021D01*
X58042Y-35021D02*
X57871Y-35021D01*
X57957Y-35021D02*
X57957Y-34721D01*
X57928Y-34764D01*
X57900Y-34792D01*
X57871Y-34807D01*
G54D11*
X67433Y-32761D02*
X67300Y-32571D01*
X67204Y-32761D02*
X67204Y-32361D01*
X67357Y-32361D01*
X67395Y-32380D01*
X67414Y-32400D01*
X67433Y-32438D01*
X67433Y-32495D01*
X67414Y-32533D01*
X67395Y-32552D01*
X67357Y-32571D01*
X67204Y-32571D01*
X67604Y-32761D02*
X67604Y-32361D01*
X67757Y-32361D01*
X67795Y-32380D01*
X67814Y-32400D01*
X67833Y-32438D01*
X67833Y-32495D01*
X67814Y-32533D01*
X67795Y-32552D01*
X67757Y-32571D01*
X67604Y-32571D01*
X67985Y-32400D02*
X68004Y-32380D01*
X68042Y-32361D01*
X68138Y-32361D01*
X68176Y-32380D01*
X68195Y-32400D01*
X68214Y-32438D01*
X68214Y-32476D01*
X68195Y-32533D01*
X67966Y-32761D01*
X68214Y-32761D01*
X68561Y-38190D02*
X68561Y-38419D01*
X68561Y-38304D02*
X68161Y-38304D01*
X68219Y-38342D01*
X68257Y-38380D01*
X68276Y-38419D01*
X68161Y-37942D02*
X68161Y-37904D01*
X68180Y-37866D01*
X68200Y-37847D01*
X68238Y-37828D01*
X68314Y-37809D01*
X68409Y-37809D01*
X68485Y-37828D01*
X68523Y-37847D01*
X68542Y-37866D01*
X68561Y-37904D01*
X68561Y-37942D01*
X68542Y-37980D01*
X68523Y-38000D01*
X68485Y-38019D01*
X68409Y-38038D01*
X68314Y-38038D01*
X68238Y-38019D01*
X68200Y-38000D01*
X68180Y-37980D01*
X68161Y-37942D01*
X68161Y-37561D02*
X68161Y-37523D01*
X68180Y-37485D01*
X68200Y-37466D01*
X68238Y-37447D01*
X68314Y-37428D01*
X68409Y-37428D01*
X68485Y-37447D01*
X68523Y-37466D01*
X68542Y-37485D01*
X68561Y-37523D01*
X68561Y-37561D01*
X68542Y-37600D01*
X68523Y-37619D01*
X68485Y-37638D01*
X68409Y-37657D01*
X68314Y-37657D01*
X68238Y-37638D01*
X68200Y-37619D01*
X68180Y-37600D01*
X68161Y-37561D01*
X68561Y-37257D02*
X68295Y-37257D01*
X68333Y-37257D02*
X68314Y-37238D01*
X68295Y-37200D01*
X68295Y-37142D01*
X68314Y-37104D01*
X68352Y-37085D01*
X68561Y-37085D01*
X68352Y-37085D02*
X68314Y-37066D01*
X68295Y-37028D01*
X68295Y-36971D01*
X68314Y-36933D01*
X68352Y-36914D01*
X68561Y-36914D01*
X68161Y-36647D02*
X68161Y-36571D01*
X68180Y-36533D01*
X68219Y-36495D01*
X68295Y-36476D01*
X68428Y-36476D01*
X68504Y-36495D01*
X68542Y-36533D01*
X68561Y-36571D01*
X68561Y-36647D01*
X68542Y-36685D01*
X68504Y-36723D01*
X68428Y-36742D01*
X68295Y-36742D01*
X68219Y-36723D01*
X68180Y-36685D01*
X68161Y-36647D01*
X68561Y-36304D02*
X68161Y-36304D01*
X68561Y-36133D02*
X68352Y-36133D01*
X68314Y-36152D01*
X68295Y-36190D01*
X68295Y-36247D01*
X68314Y-36285D01*
X68333Y-36304D01*
X68561Y-35942D02*
X68295Y-35942D01*
X68333Y-35942D02*
X68314Y-35923D01*
X68295Y-35885D01*
X68295Y-35828D01*
X68314Y-35790D01*
X68352Y-35771D01*
X68561Y-35771D01*
X68352Y-35771D02*
X68314Y-35752D01*
X68295Y-35714D01*
X68295Y-35657D01*
X68314Y-35619D01*
X68352Y-35600D01*
X68561Y-35600D01*
G54D23*
X66931Y-38761D02*
X66931Y-39136D01*
X67306Y-39173D01*
X67268Y-39136D01*
X67231Y-39061D01*
X67231Y-38873D01*
X67268Y-38798D01*
X67306Y-38761D01*
X67381Y-38723D01*
X67568Y-38723D01*
X67643Y-38761D01*
X67681Y-38798D01*
X67718Y-38873D01*
X67718Y-39061D01*
X67681Y-39136D01*
X67643Y-39173D01*
X66931Y-38461D02*
X67718Y-38274D01*
X67156Y-38124D01*
X67718Y-37974D01*
X66931Y-37787D01*
X67718Y-36475D02*
X67718Y-36925D01*
X67718Y-36700D02*
X66931Y-36700D01*
X67043Y-36775D01*
X67118Y-36850D01*
X67156Y-36925D01*
X66931Y-35988D02*
X66931Y-35913D01*
X66969Y-35838D01*
X67006Y-35800D01*
X67081Y-35763D01*
X67231Y-35725D01*
X67418Y-35725D01*
X67568Y-35763D01*
X67643Y-35800D01*
X67681Y-35838D01*
X67718Y-35913D01*
X67718Y-35988D01*
X67681Y-36063D01*
X67643Y-36100D01*
X67568Y-36138D01*
X67418Y-36175D01*
X67231Y-36175D01*
X67081Y-36138D01*
X67006Y-36100D01*
X66969Y-36063D01*
X66931Y-35988D01*
X67718Y-35426D02*
X66931Y-34826D01*
X66931Y-35313D02*
X66969Y-35238D01*
X67043Y-35201D01*
X67118Y-35238D01*
X67156Y-35313D01*
X67118Y-35388D01*
X67043Y-35426D01*
X66969Y-35388D01*
X66931Y-35313D01*
X67681Y-34863D02*
X67606Y-34826D01*
X67531Y-34863D01*
X67493Y-34938D01*
X67531Y-35013D01*
X67606Y-35051D01*
X67681Y-35013D01*
X67718Y-34938D01*
X67681Y-34863D01*
G54D11*
X64633Y-32761D02*
X64500Y-32571D01*
X64404Y-32761D02*
X64404Y-32361D01*
X64557Y-32361D01*
X64595Y-32380D01*
X64614Y-32400D01*
X64633Y-32438D01*
X64633Y-32495D01*
X64614Y-32533D01*
X64595Y-32552D01*
X64557Y-32571D01*
X64404Y-32571D01*
X64804Y-32761D02*
X64804Y-32361D01*
X64957Y-32361D01*
X64995Y-32380D01*
X65014Y-32400D01*
X65033Y-32438D01*
X65033Y-32495D01*
X65014Y-32533D01*
X64995Y-32552D01*
X64957Y-32571D01*
X64804Y-32571D01*
X65414Y-32761D02*
X65185Y-32761D01*
X65300Y-32761D02*
X65300Y-32361D01*
X65261Y-32419D01*
X65223Y-32457D01*
X65185Y-32476D01*
X65761Y-38190D02*
X65761Y-38419D01*
X65761Y-38304D02*
X65361Y-38304D01*
X65419Y-38342D01*
X65457Y-38380D01*
X65476Y-38419D01*
X65361Y-37942D02*
X65361Y-37904D01*
X65380Y-37866D01*
X65400Y-37847D01*
X65438Y-37828D01*
X65514Y-37809D01*
X65609Y-37809D01*
X65685Y-37828D01*
X65723Y-37847D01*
X65742Y-37866D01*
X65761Y-37904D01*
X65761Y-37942D01*
X65742Y-37980D01*
X65723Y-38000D01*
X65685Y-38019D01*
X65609Y-38038D01*
X65514Y-38038D01*
X65438Y-38019D01*
X65400Y-38000D01*
X65380Y-37980D01*
X65361Y-37942D01*
X65361Y-37561D02*
X65361Y-37523D01*
X65380Y-37485D01*
X65400Y-37466D01*
X65438Y-37447D01*
X65514Y-37428D01*
X65609Y-37428D01*
X65685Y-37447D01*
X65723Y-37466D01*
X65742Y-37485D01*
X65761Y-37523D01*
X65761Y-37561D01*
X65742Y-37600D01*
X65723Y-37619D01*
X65685Y-37638D01*
X65609Y-37657D01*
X65514Y-37657D01*
X65438Y-37638D01*
X65400Y-37619D01*
X65380Y-37600D01*
X65361Y-37561D01*
X65761Y-37257D02*
X65495Y-37257D01*
X65533Y-37257D02*
X65514Y-37238D01*
X65495Y-37200D01*
X65495Y-37142D01*
X65514Y-37104D01*
X65552Y-37085D01*
X65761Y-37085D01*
X65552Y-37085D02*
X65514Y-37066D01*
X65495Y-37028D01*
X65495Y-36971D01*
X65514Y-36933D01*
X65552Y-36914D01*
X65761Y-36914D01*
X65361Y-36647D02*
X65361Y-36571D01*
X65380Y-36533D01*
X65419Y-36495D01*
X65495Y-36476D01*
X65628Y-36476D01*
X65704Y-36495D01*
X65742Y-36533D01*
X65761Y-36571D01*
X65761Y-36647D01*
X65742Y-36685D01*
X65704Y-36723D01*
X65628Y-36742D01*
X65495Y-36742D01*
X65419Y-36723D01*
X65380Y-36685D01*
X65361Y-36647D01*
X65761Y-36304D02*
X65361Y-36304D01*
X65761Y-36133D02*
X65552Y-36133D01*
X65514Y-36152D01*
X65495Y-36190D01*
X65495Y-36247D01*
X65514Y-36285D01*
X65533Y-36304D01*
X65761Y-35942D02*
X65495Y-35942D01*
X65533Y-35942D02*
X65514Y-35923D01*
X65495Y-35885D01*
X65495Y-35828D01*
X65514Y-35790D01*
X65552Y-35771D01*
X65761Y-35771D01*
X65552Y-35771D02*
X65514Y-35752D01*
X65495Y-35714D01*
X65495Y-35657D01*
X65514Y-35619D01*
X65552Y-35600D01*
X65761Y-35600D01*
G54D23*
X64131Y-38761D02*
X64131Y-39136D01*
X64506Y-39173D01*
X64468Y-39136D01*
X64431Y-39061D01*
X64431Y-38873D01*
X64468Y-38798D01*
X64506Y-38761D01*
X64581Y-38723D01*
X64768Y-38723D01*
X64843Y-38761D01*
X64881Y-38798D01*
X64918Y-38873D01*
X64918Y-39061D01*
X64881Y-39136D01*
X64843Y-39173D01*
X64131Y-38461D02*
X64918Y-38274D01*
X64356Y-38124D01*
X64918Y-37974D01*
X64131Y-37787D01*
X64918Y-36475D02*
X64918Y-36925D01*
X64918Y-36700D02*
X64131Y-36700D01*
X64243Y-36775D01*
X64318Y-36850D01*
X64356Y-36925D01*
X64131Y-35988D02*
X64131Y-35913D01*
X64169Y-35838D01*
X64206Y-35800D01*
X64281Y-35763D01*
X64431Y-35725D01*
X64618Y-35725D01*
X64768Y-35763D01*
X64843Y-35800D01*
X64881Y-35838D01*
X64918Y-35913D01*
X64918Y-35988D01*
X64881Y-36063D01*
X64843Y-36100D01*
X64768Y-36138D01*
X64618Y-36175D01*
X64431Y-36175D01*
X64281Y-36138D01*
X64206Y-36100D01*
X64169Y-36063D01*
X64131Y-35988D01*
X64918Y-35426D02*
X64131Y-34826D01*
X64131Y-35313D02*
X64169Y-35238D01*
X64243Y-35201D01*
X64318Y-35238D01*
X64356Y-35313D01*
X64318Y-35388D01*
X64243Y-35426D01*
X64169Y-35388D01*
X64131Y-35313D01*
X64881Y-34863D02*
X64806Y-34826D01*
X64731Y-34863D01*
X64693Y-34938D01*
X64731Y-35013D01*
X64806Y-35051D01*
X64881Y-35013D01*
X64918Y-34938D01*
X64881Y-34863D01*
G54D11*
X46633Y-31161D02*
X46500Y-30971D01*
X46404Y-31161D02*
X46404Y-30761D01*
X46557Y-30761D01*
X46595Y-30780D01*
X46614Y-30800D01*
X46633Y-30838D01*
X46633Y-30895D01*
X46614Y-30933D01*
X46595Y-30952D01*
X46557Y-30971D01*
X46404Y-30971D01*
X46785Y-30800D02*
X46804Y-30780D01*
X46842Y-30761D01*
X46938Y-30761D01*
X46976Y-30780D01*
X46995Y-30800D01*
X47014Y-30838D01*
X47014Y-30876D01*
X46995Y-30933D01*
X46766Y-31161D01*
X47014Y-31161D01*
X46633Y-32323D02*
X46614Y-32342D01*
X46557Y-32361D01*
X46519Y-32361D01*
X46461Y-32342D01*
X46423Y-32304D01*
X46404Y-32266D01*
X46385Y-32190D01*
X46385Y-32133D01*
X46404Y-32057D01*
X46423Y-32019D01*
X46461Y-31980D01*
X46519Y-31961D01*
X46557Y-31961D01*
X46614Y-31980D01*
X46633Y-32000D01*
X46976Y-32095D02*
X46976Y-32361D01*
X46880Y-31942D02*
X46785Y-32228D01*
X47033Y-32228D01*
X43633Y-39223D02*
X43614Y-39242D01*
X43557Y-39261D01*
X43519Y-39261D01*
X43461Y-39242D01*
X43423Y-39204D01*
X43404Y-39166D01*
X43385Y-39090D01*
X43385Y-39033D01*
X43404Y-38957D01*
X43423Y-38919D01*
X43461Y-38880D01*
X43519Y-38861D01*
X43557Y-38861D01*
X43614Y-38880D01*
X43633Y-38900D01*
X43995Y-38861D02*
X43804Y-38861D01*
X43785Y-39052D01*
X43804Y-39033D01*
X43842Y-39014D01*
X43938Y-39014D01*
X43976Y-39033D01*
X43995Y-39052D01*
X44014Y-39090D01*
X44014Y-39185D01*
X43995Y-39223D01*
X43976Y-39242D01*
X43938Y-39261D01*
X43842Y-39261D01*
X43804Y-39242D01*
X43785Y-39223D01*
X46680Y-34324D02*
X46547Y-34134D01*
X46451Y-34324D02*
X46451Y-33924D01*
X46604Y-33924D01*
X46642Y-33943D01*
X46661Y-33963D01*
X46680Y-34001D01*
X46680Y-34058D01*
X46661Y-34096D01*
X46642Y-34115D01*
X46604Y-34134D01*
X46451Y-34134D01*
X47061Y-34324D02*
X46832Y-34324D01*
X46947Y-34324D02*
X46947Y-33924D01*
X46908Y-33982D01*
X46870Y-34020D01*
X46832Y-34039D01*
X48411Y-27950D02*
X48373Y-27930D01*
X48335Y-27892D01*
X48278Y-27835D01*
X48240Y-27816D01*
X48202Y-27816D01*
X48221Y-27911D02*
X48183Y-27892D01*
X48145Y-27854D01*
X48126Y-27778D01*
X48126Y-27645D01*
X48145Y-27569D01*
X48183Y-27530D01*
X48221Y-27511D01*
X48297Y-27511D01*
X48335Y-27530D01*
X48373Y-27569D01*
X48392Y-27645D01*
X48392Y-27778D01*
X48373Y-27854D01*
X48335Y-27892D01*
X48297Y-27911D01*
X48221Y-27911D01*
X48773Y-27911D02*
X48545Y-27911D01*
X48659Y-27911D02*
X48659Y-27511D01*
X48621Y-27569D01*
X48583Y-27607D01*
X48545Y-27626D01*
X65761Y-27950D02*
X65723Y-27930D01*
X65685Y-27892D01*
X65628Y-27835D01*
X65590Y-27816D01*
X65552Y-27816D01*
X65571Y-27911D02*
X65533Y-27892D01*
X65495Y-27854D01*
X65476Y-27778D01*
X65476Y-27645D01*
X65495Y-27569D01*
X65533Y-27530D01*
X65571Y-27511D01*
X65647Y-27511D01*
X65685Y-27530D01*
X65723Y-27569D01*
X65742Y-27645D01*
X65742Y-27778D01*
X65723Y-27854D01*
X65685Y-27892D01*
X65647Y-27911D01*
X65571Y-27911D01*
X65895Y-27550D02*
X65914Y-27530D01*
X65952Y-27511D01*
X66047Y-27511D01*
X66085Y-27530D01*
X66104Y-27550D01*
X66123Y-27588D01*
X66123Y-27626D01*
X66104Y-27683D01*
X65876Y-27911D01*
X66123Y-27911D01*
X52483Y-30361D02*
X52350Y-30171D01*
X52254Y-30361D02*
X52254Y-29961D01*
X52407Y-29961D01*
X52445Y-29980D01*
X52464Y-30000D01*
X52483Y-30038D01*
X52483Y-30095D01*
X52464Y-30133D01*
X52445Y-30152D01*
X52407Y-30171D01*
X52254Y-30171D01*
X52616Y-29961D02*
X52864Y-29961D01*
X52730Y-30114D01*
X52788Y-30114D01*
X52826Y-30133D01*
X52845Y-30152D01*
X52864Y-30190D01*
X52864Y-30285D01*
X52845Y-30323D01*
X52826Y-30342D01*
X52788Y-30361D01*
X52673Y-30361D01*
X52635Y-30342D01*
X52616Y-30323D01*
X59383Y-30361D02*
X59250Y-30171D01*
X59154Y-30361D02*
X59154Y-29961D01*
X59307Y-29961D01*
X59345Y-29980D01*
X59364Y-30000D01*
X59383Y-30038D01*
X59383Y-30095D01*
X59364Y-30133D01*
X59345Y-30152D01*
X59307Y-30171D01*
X59154Y-30171D01*
X59726Y-30095D02*
X59726Y-30361D01*
X59630Y-29942D02*
X59535Y-30228D01*
X59783Y-30228D01*
X56614Y-28961D02*
X56614Y-28561D01*
X56709Y-28561D01*
X56766Y-28580D01*
X56804Y-28619D01*
X56823Y-28657D01*
X56842Y-28733D01*
X56842Y-28790D01*
X56823Y-28866D01*
X56804Y-28904D01*
X56766Y-28942D01*
X56709Y-28961D01*
X56614Y-28961D01*
X56995Y-28942D02*
X57052Y-28961D01*
X57147Y-28961D01*
X57185Y-28942D01*
X57204Y-28923D01*
X57223Y-28885D01*
X57223Y-28847D01*
X57204Y-28809D01*
X57185Y-28790D01*
X57147Y-28771D01*
X57071Y-28752D01*
X57033Y-28733D01*
X57014Y-28714D01*
X56995Y-28676D01*
X56995Y-28638D01*
X57014Y-28600D01*
X57033Y-28580D01*
X57071Y-28561D01*
X57166Y-28561D01*
X57223Y-28580D01*
X57604Y-28961D02*
X57376Y-28961D01*
X57490Y-28961D02*
X57490Y-28561D01*
X57452Y-28619D01*
X57414Y-28657D01*
X57376Y-28676D01*
X63214Y-42661D02*
X63214Y-42261D01*
X63309Y-42261D01*
X63366Y-42280D01*
X63404Y-42319D01*
X63423Y-42357D01*
X63442Y-42433D01*
X63442Y-42490D01*
X63423Y-42566D01*
X63404Y-42604D01*
X63366Y-42642D01*
X63309Y-42661D01*
X63214Y-42661D01*
X63576Y-42261D02*
X63842Y-42261D01*
X63576Y-42661D01*
X63842Y-42661D01*
X64204Y-42661D02*
X63976Y-42661D01*
X64090Y-42661D02*
X64090Y-42261D01*
X64052Y-42319D01*
X64014Y-42357D01*
X63976Y-42376D01*
X63214Y-44661D02*
X63214Y-44261D01*
X63309Y-44261D01*
X63366Y-44280D01*
X63404Y-44319D01*
X63423Y-44357D01*
X63442Y-44433D01*
X63442Y-44490D01*
X63423Y-44566D01*
X63404Y-44604D01*
X63366Y-44642D01*
X63309Y-44661D01*
X63214Y-44661D01*
X63576Y-44261D02*
X63842Y-44261D01*
X63576Y-44661D01*
X63842Y-44661D01*
X63976Y-44300D02*
X63995Y-44280D01*
X64033Y-44261D01*
X64128Y-44261D01*
X64166Y-44280D01*
X64185Y-44300D01*
X64204Y-44338D01*
X64204Y-44376D01*
X64185Y-44433D01*
X63957Y-44661D01*
X64204Y-44661D01*
X50933Y-39361D02*
X50800Y-39171D01*
X50704Y-39361D02*
X50704Y-38961D01*
X50857Y-38961D01*
X50895Y-38980D01*
X50914Y-39000D01*
X50933Y-39038D01*
X50933Y-39095D01*
X50914Y-39133D01*
X50895Y-39152D01*
X50857Y-39171D01*
X50704Y-39171D01*
X51295Y-38961D02*
X51104Y-38961D01*
X51085Y-39152D01*
X51104Y-39133D01*
X51142Y-39114D01*
X51238Y-39114D01*
X51276Y-39133D01*
X51295Y-39152D01*
X51314Y-39190D01*
X51314Y-39285D01*
X51295Y-39323D01*
X51276Y-39342D01*
X51238Y-39361D01*
X51142Y-39361D01*
X51104Y-39342D01*
X51085Y-39323D01*
X60133Y-35161D02*
X60000Y-34971D01*
X59904Y-35161D02*
X59904Y-34761D01*
X60057Y-34761D01*
X60095Y-34780D01*
X60114Y-34800D01*
X60133Y-34838D01*
X60133Y-34895D01*
X60114Y-34933D01*
X60095Y-34952D01*
X60057Y-34971D01*
X59904Y-34971D01*
X60476Y-34761D02*
X60400Y-34761D01*
X60361Y-34780D01*
X60342Y-34800D01*
X60304Y-34857D01*
X60285Y-34933D01*
X60285Y-35085D01*
X60304Y-35123D01*
X60323Y-35142D01*
X60361Y-35161D01*
X60438Y-35161D01*
X60476Y-35142D01*
X60495Y-35123D01*
X60514Y-35085D01*
X60514Y-34990D01*
X60495Y-34952D01*
X60476Y-34933D01*
X60438Y-34914D01*
X60361Y-34914D01*
X60323Y-34933D01*
X60304Y-34952D01*
X60285Y-34990D01*
X59961Y-39738D02*
X59961Y-39490D01*
X60114Y-39623D01*
X60114Y-39566D01*
X60133Y-39528D01*
X60152Y-39509D01*
X60190Y-39490D01*
X60285Y-39490D01*
X60323Y-39509D01*
X60342Y-39528D01*
X60361Y-39566D01*
X60361Y-39680D01*
X60342Y-39719D01*
X60323Y-39738D01*
X59961Y-39242D02*
X59961Y-39204D01*
X59980Y-39166D01*
X60000Y-39147D01*
X60038Y-39128D01*
X60114Y-39109D01*
X60209Y-39109D01*
X60285Y-39128D01*
X60323Y-39147D01*
X60342Y-39166D01*
X60361Y-39204D01*
X60361Y-39242D01*
X60342Y-39280D01*
X60323Y-39300D01*
X60285Y-39319D01*
X60209Y-39338D01*
X60114Y-39338D01*
X60038Y-39319D01*
X60000Y-39300D01*
X59980Y-39280D01*
X59961Y-39242D01*
X60361Y-38938D02*
X59961Y-38938D01*
X60209Y-38900D02*
X60361Y-38785D01*
X60095Y-38785D02*
X60247Y-38938D01*
X60209Y-38614D02*
X60209Y-38309D01*
X59961Y-38042D02*
X59961Y-38004D01*
X59980Y-37966D01*
X60000Y-37947D01*
X60038Y-37928D01*
X60114Y-37909D01*
X60209Y-37909D01*
X60285Y-37928D01*
X60323Y-37947D01*
X60342Y-37966D01*
X60361Y-38004D01*
X60361Y-38042D01*
X60342Y-38080D01*
X60323Y-38100D01*
X60285Y-38119D01*
X60209Y-38138D01*
X60114Y-38138D01*
X60038Y-38119D01*
X60000Y-38100D01*
X59980Y-38080D01*
X59961Y-38042D01*
X60323Y-37738D02*
X60342Y-37719D01*
X60361Y-37738D01*
X60342Y-37757D01*
X60323Y-37738D01*
X60361Y-37738D01*
X60361Y-37338D02*
X60361Y-37566D01*
X60361Y-37452D02*
X59961Y-37452D01*
X60019Y-37490D01*
X60057Y-37528D01*
X60076Y-37566D01*
X60361Y-37185D02*
X59961Y-36880D01*
X59961Y-37128D02*
X59980Y-37090D01*
X60019Y-37071D01*
X60057Y-37090D01*
X60076Y-37128D01*
X60057Y-37166D01*
X60019Y-37185D01*
X59980Y-37166D01*
X59961Y-37128D01*
X60342Y-36900D02*
X60304Y-36880D01*
X60266Y-36900D01*
X60247Y-36938D01*
X60266Y-36976D01*
X60304Y-36995D01*
X60342Y-36976D01*
X60361Y-36938D01*
X60342Y-36900D01*
X61533Y-35161D02*
X61400Y-34971D01*
X61304Y-35161D02*
X61304Y-34761D01*
X61457Y-34761D01*
X61495Y-34780D01*
X61514Y-34800D01*
X61533Y-34838D01*
X61533Y-34895D01*
X61514Y-34933D01*
X61495Y-34952D01*
X61457Y-34971D01*
X61304Y-34971D01*
X61666Y-34761D02*
X61933Y-34761D01*
X61761Y-35161D01*
X61761Y-39490D02*
X61761Y-39719D01*
X61761Y-39604D02*
X61361Y-39604D01*
X61419Y-39642D01*
X61457Y-39680D01*
X61476Y-39719D01*
X61361Y-39242D02*
X61361Y-39204D01*
X61380Y-39166D01*
X61400Y-39147D01*
X61438Y-39128D01*
X61514Y-39109D01*
X61609Y-39109D01*
X61685Y-39128D01*
X61723Y-39147D01*
X61742Y-39166D01*
X61761Y-39204D01*
X61761Y-39242D01*
X61742Y-39280D01*
X61723Y-39300D01*
X61685Y-39319D01*
X61609Y-39338D01*
X61514Y-39338D01*
X61438Y-39319D01*
X61400Y-39300D01*
X61380Y-39280D01*
X61361Y-39242D01*
X61761Y-38938D02*
X61361Y-38938D01*
X61609Y-38900D02*
X61761Y-38785D01*
X61495Y-38785D02*
X61647Y-38938D01*
X61609Y-38614D02*
X61609Y-38309D01*
X61361Y-38042D02*
X61361Y-38004D01*
X61380Y-37966D01*
X61400Y-37947D01*
X61438Y-37928D01*
X61514Y-37909D01*
X61609Y-37909D01*
X61685Y-37928D01*
X61723Y-37947D01*
X61742Y-37966D01*
X61761Y-38004D01*
X61761Y-38042D01*
X61742Y-38080D01*
X61723Y-38100D01*
X61685Y-38119D01*
X61609Y-38138D01*
X61514Y-38138D01*
X61438Y-38119D01*
X61400Y-38100D01*
X61380Y-38080D01*
X61361Y-38042D01*
X61723Y-37738D02*
X61742Y-37719D01*
X61761Y-37738D01*
X61742Y-37757D01*
X61723Y-37738D01*
X61761Y-37738D01*
X61761Y-37338D02*
X61761Y-37566D01*
X61761Y-37452D02*
X61361Y-37452D01*
X61419Y-37490D01*
X61457Y-37528D01*
X61476Y-37566D01*
X61761Y-37185D02*
X61361Y-36880D01*
X61361Y-37128D02*
X61380Y-37090D01*
X61419Y-37071D01*
X61457Y-37090D01*
X61476Y-37128D01*
X61457Y-37166D01*
X61419Y-37185D01*
X61380Y-37166D01*
X61361Y-37128D01*
X61742Y-36900D02*
X61704Y-36880D01*
X61666Y-36900D01*
X61647Y-36938D01*
X61666Y-36976D01*
X61704Y-36995D01*
X61742Y-36976D01*
X61761Y-36938D01*
X61742Y-36900D01*
G54D24*
X38259Y-32515D02*
X38071Y-32646D01*
X38259Y-32740D02*
X37865Y-32740D01*
X37865Y-32590D01*
X37884Y-32553D01*
X37903Y-32534D01*
X37940Y-32515D01*
X37996Y-32515D01*
X38034Y-32534D01*
X38053Y-32553D01*
X38071Y-32590D01*
X38071Y-32740D01*
X38053Y-32346D02*
X38053Y-32215D01*
X38259Y-32159D02*
X38259Y-32346D01*
X37865Y-32346D01*
X37865Y-32159D01*
X38259Y-31990D02*
X37865Y-31990D01*
X38146Y-31859D01*
X37865Y-31728D01*
X38259Y-31728D01*
X37865Y-31465D02*
X37865Y-31390D01*
X37884Y-31353D01*
X37921Y-31315D01*
X37996Y-31296D01*
X38128Y-31296D01*
X38203Y-31315D01*
X38240Y-31353D01*
X38259Y-31390D01*
X38259Y-31465D01*
X38240Y-31503D01*
X38203Y-31540D01*
X38128Y-31559D01*
X37996Y-31559D01*
X37921Y-31540D01*
X37884Y-31503D01*
X37865Y-31465D01*
X37865Y-31184D02*
X37865Y-30959D01*
X38259Y-31071D02*
X37865Y-31071D01*
X38053Y-30828D02*
X38053Y-30697D01*
X38259Y-30640D02*
X38259Y-30828D01*
X37865Y-30828D01*
X37865Y-30640D01*
%LPC*%
G54D25*
X51215Y-41000D03*
X40585Y-41000D03*
G54D26*
X47908Y-50764D03*
X43892Y-50764D03*
G54D27*
X46530Y-50764D03*
X45270Y-50764D03*
G54D28*
X40200Y-36200D03*
X39200Y-37200D03*
X40200Y-38200D03*
G54D29*
X69200Y-47900D03*
G54D30*
X70635Y-48904D02*
X71763Y-49695D01*
G54D29*
X63400Y-47900D03*
G54D30*
X61964Y-48904D02*
X60836Y-49695D01*
G54D31*
X73242Y-25290D03*
X40958Y-25290D03*
G54D32*
X56000Y-45200D03*
G54D33*
X56000Y-39294D03*
X54425Y-39294D03*
X57575Y-39294D03*
G54D34*
X55587Y-35800D03*
X56413Y-35800D03*
G54D35*
X39370Y-15354D03*
X74803Y-15354D03*
X39370Y-50787D03*
X74803Y-50787D03*
G54D36*
X45150Y-43750D03*
G54D37*
X45150Y-46350D03*
X46050Y-46350D03*
X44250Y-46350D03*
G54D38*
X44926Y-37800D03*
X45674Y-37800D03*
G54D39*
X46801Y-47750D03*
X45699Y-47750D03*
X43499Y-47750D03*
X44601Y-47750D03*
G54D40*
X44277Y-35150D03*
X44277Y-35650D03*
X44277Y-36150D03*
X44277Y-36650D03*
X46323Y-36650D03*
X46323Y-36150D03*
X46323Y-35650D03*
X46323Y-35150D03*
G54D41*
X55666Y-34900D03*
X56334Y-34900D03*
G54D29*
X73500Y-36000D03*
X73500Y-43000D03*
G54D42*
X67700Y-30504D03*
X67700Y-43496D03*
X64900Y-30504D03*
X64900Y-43496D03*
G54D38*
X45674Y-31000D03*
X44926Y-31000D03*
X44926Y-32200D03*
X45674Y-32200D03*
G54D39*
X45851Y-39100D03*
X44749Y-39100D03*
G54D38*
X44926Y-34200D03*
X45674Y-34200D03*
G54D43*
X51200Y-27750D03*
X52200Y-27750D03*
X50200Y-27750D03*
X63000Y-27750D03*
X64000Y-27750D03*
X62000Y-27750D03*
G54D38*
X54274Y-30200D03*
X53526Y-30200D03*
X57726Y-30200D03*
X58474Y-30200D03*
G54D43*
X57100Y-27750D03*
X58100Y-27750D03*
X56100Y-27750D03*
G54D44*
X62633Y-42874D03*
X62633Y-42126D03*
X61767Y-42500D03*
X62633Y-44674D03*
X62633Y-43926D03*
X61767Y-44300D03*
G54D38*
X51374Y-38400D03*
X50626Y-38400D03*
G54D28*
X60200Y-40800D03*
X60200Y-35800D03*
X61600Y-40800D03*
X61600Y-35800D03*
G54D45*
X40354Y-46496D03*
X40354Y-45496D03*
X40354Y-47496D03*
G54D46*
X51800Y-36100D03*
G54D47*
X51800Y-35100D03*
X51800Y-34100D03*
G54D46*
X39100Y-30200D03*
G54D47*
X39100Y-31200D03*
X39100Y-32200D03*
X39100Y-33200D03*
M02*
