G04 (created by PCBNEW-RS274X (2012-jan-04)-stable) date Mon 11 Jun 2012 12:23:53 PM CEST*
G01*
G70*
G90*
%MOIN*%
G04 Gerber Fmt 3.4, Leading zero omitted, Abs format*
%FSLAX34Y34*%
G04 APERTURE LIST*
%ADD10C,0.006000*%
%ADD11C,0.008000*%
%ADD12C,0.196900*%
%ADD13O,0.137800X0.098400*%
%ADD14C,0.059100*%
%ADD15C,0.315000*%
%ADD16C,0.472400*%
%ADD17C,0.098400*%
%ADD18C,0.160000*%
%ADD19R,0.027600X0.039400*%
%ADD20R,0.051100X0.059000*%
%ADD21C,0.393700*%
%ADD22C,0.044000*%
%ADD23C,0.157500*%
%ADD24R,0.043300X0.039300*%
%ADD25O,0.068900X0.118100*%
G04 APERTURE END LIST*
G54D10*
G54D11*
X76772Y-52756D02*
X76772Y-13386D01*
X37402Y-52756D02*
X37402Y-13386D01*
X76772Y-52756D02*
X37402Y-52756D01*
X37402Y-13386D02*
X76772Y-13386D01*
G54D12*
X51215Y-41000D03*
X40585Y-41000D03*
G54D13*
X47908Y-50764D03*
X43892Y-50764D03*
G54D14*
X46530Y-50764D03*
X45270Y-50764D03*
G54D15*
X72835Y-25118D03*
X41339Y-25118D03*
X57087Y-25118D03*
G54D12*
X73500Y-33300D03*
X73500Y-28900D03*
G54D16*
X56000Y-45200D03*
G54D17*
X56000Y-39294D03*
X54425Y-39294D03*
X57575Y-39294D03*
G54D18*
X39370Y-15354D03*
X74803Y-15354D03*
X39370Y-50787D03*
X74803Y-50787D03*
G54D19*
X72100Y-31700D03*
X72475Y-30700D03*
X71725Y-30700D03*
X74300Y-31700D03*
X74675Y-30700D03*
X73925Y-30700D03*
G54D20*
X72726Y-40900D03*
X73474Y-40900D03*
G54D19*
X70500Y-39900D03*
X70125Y-40900D03*
X70875Y-40900D03*
G54D21*
X73500Y-37500D03*
X73500Y-44500D03*
X68800Y-47900D03*
X63400Y-47900D03*
G54D14*
X40354Y-46496D03*
X40354Y-45496D03*
X40354Y-47496D03*
G54D22*
X40200Y-36200D03*
X39200Y-37200D03*
X40200Y-38200D03*
G54D23*
X66900Y-30504D03*
X66900Y-43496D03*
X64100Y-30504D03*
X64100Y-43496D03*
G54D24*
X73500Y-47966D03*
X73500Y-48634D03*
G54D25*
X49200Y-27700D03*
X50200Y-27700D03*
X48200Y-27700D03*
X64900Y-27700D03*
X65900Y-27700D03*
X63900Y-27700D03*
M02*
