M48
INCH,TZ
T1C0.020
T2C0.024
T3C0.032
T4C0.032
T5C0.039
T6C0.040
T7C0.055
T8C0.059
T9C0.120
T10C0.158
T11C0.167
T12C0.197
T13C0.236
%
G90
G05
T1
X047550Y-033350
X047550Y-035650
X048300Y-036600
X048300Y-037500
X048300Y-038800
X048300Y-039400
X049800Y-037500
T2
X055000Y-036700
X056000Y-037700
X057000Y-036700
T3
X054425Y-039294
X056000Y-039294
X057575Y-039294
T4
X039646Y-045496
X039646Y-046496
X039646Y-047496
X062900Y-032100
X062900Y-037100
X064400Y-032100
X064400Y-037100
X066200Y-032100
X066200Y-037100
X067700Y-032100
X067700Y-037100
T5
X043242Y-050714
X047258Y-050714
T6
X048213Y-027559
X049213Y-027559
X050213Y-027559
X063961Y-027559
X064961Y-027559
X065961Y-027559
T7
X054228Y-045200
X054386Y-044531
X054386Y-045869
X054740Y-043940
X054740Y-046460
X055331Y-043586
X055331Y-046814
X056000Y-043428
X056000Y-046972
X056669Y-043586
X056669Y-046814
X057260Y-043940
X057260Y-046460
X057614Y-044531
X057614Y-045869
X057772Y-045200
T8
X044620Y-050714
X045880Y-050714
T9
X039370Y-015354
X039370Y-050787
X074803Y-015354
X074803Y-050787
T10
X041339Y-025118
X057087Y-025118
X072835Y-025118
T11
X063400Y-047900
X068800Y-047900
X073500Y-037500
X073500Y-044500
T12
X039935Y-040950
X050565Y-040950
T13
X056000Y-045200
T0
M30
