M48
INCH,TZ
T1C0.020
T2C0.024
T3C0.032
T4C0.039
T5C0.040
T6C0.047
T7C0.059
T8C0.098
T9C0.120
T10C0.158
T11C0.167
T12C0.197
T13C0.413
%
G90
G05
T1
X043900Y-037400
X045700Y-038900
X046200Y-033000
X046200Y-034400
X048300Y-036600
X048300Y-037500
X048300Y-039400
T2
X039500Y-037200
X040500Y-036200
X040500Y-038200
T3
X040354Y-045496
X040354Y-046496
X040354Y-047496
X054425Y-039294
X056000Y-039294
X057575Y-039294
T4
X043242Y-050714
X047258Y-050714
T5
X048213Y-027559
X049213Y-027559
X050213Y-027559
X063961Y-027559
X064961Y-027559
X065961Y-027559
T6
X064100Y-030504
X064100Y-043496
X066900Y-030504
X066900Y-043496
T7
X044620Y-050714
X045880Y-050714
T8
X073500Y-028900
X073500Y-033300
T9
X039370Y-015354
X039370Y-050787
X074803Y-015354
X074803Y-050787
T10
X041339Y-025118
X057087Y-025118
X072835Y-025118
T11
X063400Y-047900
X068800Y-047900
X073500Y-037500
X073500Y-044500
T12
X039935Y-040950
X050565Y-040950
T13
X056000Y-045200
T0
M30
