G04 (created by PCBNEW-RS274X (2012-jan-04)-stable) date Wed 06 Jun 2012 12:26:46 PM CEST*
G01*
G70*
G90*
%MOIN*%
G04 Gerber Fmt 3.4, Leading zero omitted, Abs format*
%FSLAX34Y34*%
G04 APERTURE LIST*
%ADD10C,0.006000*%
%ADD11C,0.008000*%
G04 APERTURE END LIST*
G54D10*
G54D11*
X54730Y-45012D02*
X54730Y-44745D01*
X54730Y-44783D02*
X54749Y-44764D01*
X54787Y-44745D01*
X54845Y-44745D01*
X54883Y-44764D01*
X54902Y-44802D01*
X54902Y-45012D01*
X54902Y-44802D02*
X54921Y-44764D01*
X54959Y-44745D01*
X55016Y-44745D01*
X55054Y-44764D01*
X55073Y-44802D01*
X55073Y-45012D01*
X55320Y-45012D02*
X55282Y-44993D01*
X55263Y-44974D01*
X55244Y-44936D01*
X55244Y-44821D01*
X55263Y-44783D01*
X55282Y-44764D01*
X55320Y-44745D01*
X55378Y-44745D01*
X55416Y-44764D01*
X55435Y-44783D01*
X55454Y-44821D01*
X55454Y-44936D01*
X55435Y-44974D01*
X55416Y-44993D01*
X55378Y-45012D01*
X55320Y-45012D01*
X55797Y-44745D02*
X55797Y-45012D01*
X55625Y-44745D02*
X55625Y-44955D01*
X55644Y-44993D01*
X55682Y-45012D01*
X55740Y-45012D01*
X55778Y-44993D01*
X55797Y-44974D01*
X55987Y-44745D02*
X55987Y-45012D01*
X55987Y-44783D02*
X56006Y-44764D01*
X56044Y-44745D01*
X56102Y-44745D01*
X56140Y-44764D01*
X56159Y-44802D01*
X56159Y-45012D01*
X56292Y-44745D02*
X56444Y-44745D01*
X56349Y-44612D02*
X56349Y-44955D01*
X56368Y-44993D01*
X56406Y-45012D01*
X56444Y-45012D01*
X56578Y-45012D02*
X56578Y-44745D01*
X56578Y-44612D02*
X56559Y-44631D01*
X56578Y-44650D01*
X56597Y-44631D01*
X56578Y-44612D01*
X56578Y-44650D01*
X56768Y-44745D02*
X56768Y-45012D01*
X56768Y-44783D02*
X56787Y-44764D01*
X56825Y-44745D01*
X56883Y-44745D01*
X56921Y-44764D01*
X56940Y-44802D01*
X56940Y-45012D01*
X57302Y-44745D02*
X57302Y-45069D01*
X57283Y-45107D01*
X57264Y-45126D01*
X57225Y-45145D01*
X57168Y-45145D01*
X57130Y-45126D01*
X57302Y-44993D02*
X57264Y-45012D01*
X57187Y-45012D01*
X57149Y-44993D01*
X57130Y-44974D01*
X57111Y-44936D01*
X57111Y-44821D01*
X57130Y-44783D01*
X57149Y-44764D01*
X57187Y-44745D01*
X57264Y-44745D01*
X57302Y-44764D01*
X55473Y-45652D02*
X55473Y-45252D01*
X55645Y-45652D02*
X55645Y-45442D01*
X55626Y-45404D01*
X55588Y-45385D01*
X55530Y-45385D01*
X55492Y-45404D01*
X55473Y-45423D01*
X55892Y-45652D02*
X55854Y-45633D01*
X55835Y-45614D01*
X55816Y-45576D01*
X55816Y-45461D01*
X55835Y-45423D01*
X55854Y-45404D01*
X55892Y-45385D01*
X55950Y-45385D01*
X55988Y-45404D01*
X56007Y-45423D01*
X56026Y-45461D01*
X56026Y-45576D01*
X56007Y-45614D01*
X55988Y-45633D01*
X55950Y-45652D01*
X55892Y-45652D01*
X56254Y-45652D02*
X56216Y-45633D01*
X56197Y-45595D01*
X56197Y-45252D01*
X56560Y-45633D02*
X56522Y-45652D01*
X56445Y-45652D01*
X56407Y-45633D01*
X56388Y-45595D01*
X56388Y-45442D01*
X56407Y-45404D01*
X56445Y-45385D01*
X56522Y-45385D01*
X56560Y-45404D01*
X56579Y-45442D01*
X56579Y-45480D01*
X56388Y-45519D01*
X54951Y-42469D02*
X54722Y-42469D01*
X54836Y-42469D02*
X54836Y-42069D01*
X54798Y-42126D01*
X54760Y-42164D01*
X54722Y-42183D01*
X55198Y-42068D02*
X55237Y-42068D01*
X55275Y-42087D01*
X55294Y-42106D01*
X55313Y-42144D01*
X55332Y-42220D01*
X55332Y-42316D01*
X55313Y-42392D01*
X55294Y-42430D01*
X55275Y-42449D01*
X55237Y-42468D01*
X55198Y-42468D01*
X55160Y-42449D01*
X55141Y-42430D01*
X55122Y-42393D01*
X55103Y-42317D01*
X55103Y-42221D01*
X55122Y-42145D01*
X55141Y-42106D01*
X55160Y-42087D01*
X55198Y-42068D01*
X55503Y-42430D02*
X55522Y-42449D01*
X55503Y-42468D01*
X55484Y-42449D01*
X55503Y-42430D01*
X55503Y-42468D01*
X55865Y-42067D02*
X55788Y-42067D01*
X55750Y-42086D01*
X55731Y-42105D01*
X55693Y-42163D01*
X55674Y-42239D01*
X55674Y-42392D01*
X55693Y-42430D01*
X55712Y-42448D01*
X55750Y-42467D01*
X55827Y-42467D01*
X55865Y-42448D01*
X55884Y-42429D01*
X55903Y-42391D01*
X55903Y-42295D01*
X55884Y-42257D01*
X55865Y-42238D01*
X55827Y-42219D01*
X55750Y-42219D01*
X55712Y-42238D01*
X55693Y-42258D01*
X55674Y-42296D01*
X56379Y-42466D02*
X56379Y-42199D01*
X56379Y-42237D02*
X56398Y-42218D01*
X56436Y-42199D01*
X56494Y-42199D01*
X56532Y-42218D01*
X56551Y-42256D01*
X56551Y-42466D01*
X56551Y-42256D02*
X56570Y-42218D01*
X56608Y-42199D01*
X56665Y-42199D01*
X56703Y-42218D01*
X56722Y-42256D01*
X56722Y-42466D01*
X56912Y-42465D02*
X56912Y-42198D01*
X56912Y-42236D02*
X56931Y-42217D01*
X56969Y-42198D01*
X57027Y-42198D01*
X57065Y-42217D01*
X57084Y-42255D01*
X57084Y-42465D01*
X57084Y-42255D02*
X57103Y-42217D01*
X57141Y-42198D01*
X57198Y-42198D01*
X57236Y-42217D01*
X57255Y-42255D01*
X57255Y-42465D01*
X58085Y-42663D02*
X53911Y-42667D01*
X58087Y-45197D02*
X58085Y-41943D01*
X53913Y-45201D02*
X53911Y-41947D01*
X53911Y-42667D02*
X54354Y-42436D01*
X53911Y-42667D02*
X54354Y-42897D01*
X58085Y-42663D02*
X57642Y-42433D01*
X58085Y-42663D02*
X57642Y-42894D01*
X58087Y-45201D02*
X58047Y-45606D01*
X57929Y-45996D01*
X57738Y-46355D01*
X57480Y-46671D01*
X57167Y-46931D01*
X56808Y-47124D01*
X56419Y-47245D01*
X56014Y-47287D01*
X55609Y-47251D01*
X55219Y-47136D01*
X54858Y-46947D01*
X54540Y-46692D01*
X54278Y-46380D01*
X54082Y-46023D01*
X53959Y-45634D01*
X53914Y-45230D01*
X53948Y-44825D01*
X54060Y-44433D01*
X54246Y-44071D01*
X54499Y-43752D01*
X54809Y-43488D01*
X55165Y-43289D01*
X55552Y-43163D01*
X55957Y-43115D01*
X56362Y-43146D01*
X56754Y-43256D01*
X57118Y-43439D01*
X57439Y-43690D01*
X57705Y-43998D01*
X57906Y-44353D01*
X58035Y-44739D01*
X58086Y-45143D01*
X58087Y-45201D01*
X37402Y-52756D02*
X37402Y-13386D01*
X76772Y-52756D02*
X37402Y-52756D01*
X76772Y-13386D02*
X76772Y-52756D01*
X37402Y-13386D02*
X76772Y-13386D01*
M02*
