G04 (created by PCBNEW-RS274X (2012-jan-04)-stable) date Wed 06 Jun 2012 06:12:05 PM CEST*
G01*
G70*
G90*
%MOIN*%
G04 Gerber Fmt 3.4, Leading zero omitted, Abs format*
%FSLAX34Y34*%
G04 APERTURE LIST*
%ADD10C,0.006000*%
%ADD11C,0.008000*%
%ADD12C,0.012000*%
%ADD13C,0.005000*%
%ADD14C,0.002600*%
%ADD15C,0.002000*%
%ADD16C,0.010000*%
%ADD17C,0.315000*%
%ADD18C,0.196900*%
%ADD19C,0.472400*%
%ADD20C,0.098400*%
%ADD21C,0.070000*%
%ADD22R,0.070000X0.070000*%
%ADD23C,0.160000*%
%ADD24R,0.027600X0.039400*%
%ADD25R,0.051100X0.059000*%
%ADD26R,0.059000X0.051100*%
%ADD27C,0.393700*%
%ADD28O,0.137800X0.098400*%
%ADD29C,0.059100*%
%ADD30C,0.044000*%
%ADD31C,0.157500*%
G04 APERTURE END LIST*
G54D10*
G54D11*
X69876Y-21362D02*
X70010Y-21171D01*
X70105Y-21362D02*
X70105Y-20962D01*
X69952Y-20962D01*
X69914Y-20981D01*
X69895Y-21000D01*
X69876Y-21038D01*
X69876Y-21095D01*
X69895Y-21133D01*
X69914Y-21152D01*
X69952Y-21171D01*
X70105Y-21171D01*
X69705Y-21362D02*
X69705Y-20962D01*
X69552Y-20962D01*
X69514Y-20981D01*
X69495Y-21000D01*
X69476Y-21038D01*
X69476Y-21095D01*
X69495Y-21133D01*
X69514Y-21152D01*
X69552Y-21171D01*
X69705Y-21171D01*
X69305Y-21362D02*
X69305Y-20962D01*
X69152Y-20962D01*
X69114Y-20981D01*
X69095Y-21000D01*
X69076Y-21038D01*
X69076Y-21095D01*
X69095Y-21133D01*
X69114Y-21152D01*
X69152Y-21171D01*
X69305Y-21171D01*
X68905Y-21324D02*
X68886Y-21343D01*
X68905Y-21362D01*
X68924Y-21343D01*
X68905Y-21324D01*
X68905Y-21362D01*
X68905Y-21114D02*
X68886Y-21133D01*
X68905Y-21152D01*
X68924Y-21133D01*
X68905Y-21114D01*
X68905Y-21152D01*
X68181Y-21362D02*
X68315Y-21171D01*
X68410Y-21362D02*
X68410Y-20962D01*
X68257Y-20962D01*
X68219Y-20981D01*
X68200Y-21000D01*
X68181Y-21038D01*
X68181Y-21095D01*
X68200Y-21133D01*
X68219Y-21152D01*
X68257Y-21171D01*
X68410Y-21171D01*
X67857Y-21343D02*
X67895Y-21362D01*
X67972Y-21362D01*
X68010Y-21343D01*
X68029Y-21305D01*
X68029Y-21152D01*
X68010Y-21114D01*
X67972Y-21095D01*
X67895Y-21095D01*
X67857Y-21114D01*
X67838Y-21152D01*
X67838Y-21190D01*
X68029Y-21229D01*
X67705Y-21095D02*
X67610Y-21362D01*
X67514Y-21095D01*
X67209Y-21343D02*
X67247Y-21362D01*
X67324Y-21362D01*
X67362Y-21343D01*
X67381Y-21305D01*
X67381Y-21152D01*
X67362Y-21114D01*
X67324Y-21095D01*
X67247Y-21095D01*
X67209Y-21114D01*
X67190Y-21152D01*
X67190Y-21190D01*
X67381Y-21229D01*
X67019Y-21362D02*
X67019Y-21095D01*
X67019Y-21171D02*
X67000Y-21133D01*
X66981Y-21114D01*
X66943Y-21095D01*
X66904Y-21095D01*
X66790Y-21343D02*
X66752Y-21362D01*
X66676Y-21362D01*
X66637Y-21343D01*
X66618Y-21305D01*
X66618Y-21286D01*
X66637Y-21248D01*
X66676Y-21229D01*
X66733Y-21229D01*
X66771Y-21210D01*
X66790Y-21171D01*
X66790Y-21152D01*
X66771Y-21114D01*
X66733Y-21095D01*
X66676Y-21095D01*
X66637Y-21114D01*
X66294Y-21343D02*
X66332Y-21362D01*
X66409Y-21362D01*
X66447Y-21343D01*
X66466Y-21305D01*
X66466Y-21152D01*
X66447Y-21114D01*
X66409Y-21095D01*
X66332Y-21095D01*
X66294Y-21114D01*
X66275Y-21152D01*
X66275Y-21190D01*
X66466Y-21229D01*
X65799Y-21362D02*
X65799Y-20962D01*
X65646Y-20962D01*
X65608Y-20981D01*
X65589Y-21000D01*
X65570Y-21038D01*
X65570Y-21095D01*
X65589Y-21133D01*
X65608Y-21152D01*
X65646Y-21171D01*
X65799Y-21171D01*
X65342Y-21362D02*
X65380Y-21343D01*
X65399Y-21324D01*
X65418Y-21286D01*
X65418Y-21171D01*
X65399Y-21133D01*
X65380Y-21114D01*
X65342Y-21095D01*
X65284Y-21095D01*
X65246Y-21114D01*
X65227Y-21133D01*
X65208Y-21171D01*
X65208Y-21286D01*
X65227Y-21324D01*
X65246Y-21343D01*
X65284Y-21362D01*
X65342Y-21362D01*
X64980Y-21362D02*
X65018Y-21343D01*
X65037Y-21305D01*
X65037Y-20962D01*
X64655Y-21362D02*
X64655Y-21152D01*
X64674Y-21114D01*
X64712Y-21095D01*
X64789Y-21095D01*
X64827Y-21114D01*
X64655Y-21343D02*
X64693Y-21362D01*
X64789Y-21362D01*
X64827Y-21343D01*
X64846Y-21305D01*
X64846Y-21267D01*
X64827Y-21229D01*
X64789Y-21210D01*
X64693Y-21210D01*
X64655Y-21190D01*
X64465Y-21362D02*
X64465Y-21095D01*
X64465Y-21171D02*
X64446Y-21133D01*
X64427Y-21114D01*
X64389Y-21095D01*
X64350Y-21095D01*
X64217Y-21362D02*
X64217Y-21095D01*
X64217Y-20962D02*
X64236Y-20981D01*
X64217Y-21000D01*
X64198Y-20981D01*
X64217Y-20962D01*
X64217Y-21000D01*
X64084Y-21095D02*
X63932Y-21095D01*
X64027Y-20962D02*
X64027Y-21305D01*
X64008Y-21343D01*
X63970Y-21362D01*
X63932Y-21362D01*
X63836Y-21095D02*
X63741Y-21362D01*
X63645Y-21095D02*
X63741Y-21362D01*
X63779Y-21457D01*
X63798Y-21476D01*
X63836Y-21495D01*
X63188Y-21362D02*
X63188Y-20962D01*
X63035Y-20962D01*
X62997Y-20981D01*
X62978Y-21000D01*
X62959Y-21038D01*
X62959Y-21095D01*
X62978Y-21133D01*
X62997Y-21152D01*
X63035Y-21171D01*
X63188Y-21171D01*
X62788Y-21362D02*
X62788Y-21095D01*
X62788Y-21171D02*
X62769Y-21133D01*
X62750Y-21114D01*
X62712Y-21095D01*
X62673Y-21095D01*
X62483Y-21362D02*
X62521Y-21343D01*
X62540Y-21324D01*
X62559Y-21286D01*
X62559Y-21171D01*
X62540Y-21133D01*
X62521Y-21114D01*
X62483Y-21095D01*
X62425Y-21095D01*
X62387Y-21114D01*
X62368Y-21133D01*
X62349Y-21171D01*
X62349Y-21286D01*
X62368Y-21324D01*
X62387Y-21343D01*
X62425Y-21362D01*
X62483Y-21362D01*
X62235Y-21095D02*
X62083Y-21095D01*
X62178Y-20962D02*
X62178Y-21305D01*
X62159Y-21343D01*
X62121Y-21362D01*
X62083Y-21362D01*
X61796Y-21343D02*
X61834Y-21362D01*
X61911Y-21362D01*
X61949Y-21343D01*
X61968Y-21305D01*
X61968Y-21152D01*
X61949Y-21114D01*
X61911Y-21095D01*
X61834Y-21095D01*
X61796Y-21114D01*
X61777Y-21152D01*
X61777Y-21190D01*
X61968Y-21229D01*
X61434Y-21343D02*
X61472Y-21362D01*
X61549Y-21362D01*
X61587Y-21343D01*
X61606Y-21324D01*
X61625Y-21286D01*
X61625Y-21171D01*
X61606Y-21133D01*
X61587Y-21114D01*
X61549Y-21095D01*
X61472Y-21095D01*
X61434Y-21114D01*
X61320Y-21095D02*
X61168Y-21095D01*
X61263Y-20962D02*
X61263Y-21305D01*
X61244Y-21343D01*
X61206Y-21362D01*
X61168Y-21362D01*
X61034Y-21362D02*
X61034Y-21095D01*
X61034Y-20962D02*
X61053Y-20981D01*
X61034Y-21000D01*
X61015Y-20981D01*
X61034Y-20962D01*
X61034Y-21000D01*
X60787Y-21362D02*
X60825Y-21343D01*
X60844Y-21324D01*
X60863Y-21286D01*
X60863Y-21171D01*
X60844Y-21133D01*
X60825Y-21114D01*
X60787Y-21095D01*
X60729Y-21095D01*
X60691Y-21114D01*
X60672Y-21133D01*
X60653Y-21171D01*
X60653Y-21286D01*
X60672Y-21324D01*
X60691Y-21343D01*
X60729Y-21362D01*
X60787Y-21362D01*
X60482Y-21095D02*
X60482Y-21362D01*
X60482Y-21133D02*
X60463Y-21114D01*
X60425Y-21095D01*
X60367Y-21095D01*
X60329Y-21114D01*
X60310Y-21152D01*
X60310Y-21362D01*
X70162Y-22242D02*
X69933Y-22242D01*
X70048Y-22642D02*
X70048Y-22242D01*
X69743Y-22642D02*
X69781Y-22623D01*
X69800Y-22604D01*
X69819Y-22566D01*
X69819Y-22451D01*
X69800Y-22413D01*
X69781Y-22394D01*
X69743Y-22375D01*
X69685Y-22375D01*
X69647Y-22394D01*
X69628Y-22413D01*
X69609Y-22451D01*
X69609Y-22566D01*
X69628Y-22604D01*
X69647Y-22623D01*
X69685Y-22642D01*
X69743Y-22642D01*
X69076Y-22642D02*
X69114Y-22623D01*
X69133Y-22604D01*
X69152Y-22566D01*
X69152Y-22451D01*
X69133Y-22413D01*
X69114Y-22394D01*
X69076Y-22375D01*
X69018Y-22375D01*
X68980Y-22394D01*
X68961Y-22413D01*
X68942Y-22451D01*
X68942Y-22566D01*
X68961Y-22604D01*
X68980Y-22623D01*
X69018Y-22642D01*
X69076Y-22642D01*
X68809Y-22375D02*
X68714Y-22642D01*
X68618Y-22375D01*
X68313Y-22623D02*
X68351Y-22642D01*
X68428Y-22642D01*
X68466Y-22623D01*
X68485Y-22585D01*
X68485Y-22432D01*
X68466Y-22394D01*
X68428Y-22375D01*
X68351Y-22375D01*
X68313Y-22394D01*
X68294Y-22432D01*
X68294Y-22470D01*
X68485Y-22509D01*
X68123Y-22642D02*
X68123Y-22375D01*
X68123Y-22451D02*
X68104Y-22413D01*
X68085Y-22394D01*
X68047Y-22375D01*
X68008Y-22375D01*
X67875Y-22642D02*
X67875Y-22375D01*
X67875Y-22451D02*
X67856Y-22413D01*
X67837Y-22394D01*
X67799Y-22375D01*
X67760Y-22375D01*
X67627Y-22642D02*
X67627Y-22375D01*
X67627Y-22242D02*
X67646Y-22261D01*
X67627Y-22280D01*
X67608Y-22261D01*
X67627Y-22242D01*
X67627Y-22280D01*
X67265Y-22642D02*
X67265Y-22242D01*
X67265Y-22623D02*
X67303Y-22642D01*
X67380Y-22642D01*
X67418Y-22623D01*
X67437Y-22604D01*
X67456Y-22566D01*
X67456Y-22451D01*
X67437Y-22413D01*
X67418Y-22394D01*
X67380Y-22375D01*
X67303Y-22375D01*
X67265Y-22394D01*
X66922Y-22623D02*
X66960Y-22642D01*
X67037Y-22642D01*
X67075Y-22623D01*
X67094Y-22585D01*
X67094Y-22432D01*
X67075Y-22394D01*
X67037Y-22375D01*
X66960Y-22375D01*
X66922Y-22394D01*
X66903Y-22432D01*
X66903Y-22470D01*
X67094Y-22509D01*
X66427Y-22375D02*
X66427Y-22775D01*
X66427Y-22394D02*
X66389Y-22375D01*
X66312Y-22375D01*
X66274Y-22394D01*
X66255Y-22413D01*
X66236Y-22451D01*
X66236Y-22566D01*
X66255Y-22604D01*
X66274Y-22623D01*
X66312Y-22642D01*
X66389Y-22642D01*
X66427Y-22623D01*
X66008Y-22642D02*
X66046Y-22623D01*
X66065Y-22585D01*
X66065Y-22242D01*
X65683Y-22642D02*
X65683Y-22432D01*
X65702Y-22394D01*
X65740Y-22375D01*
X65817Y-22375D01*
X65855Y-22394D01*
X65683Y-22623D02*
X65721Y-22642D01*
X65817Y-22642D01*
X65855Y-22623D01*
X65874Y-22585D01*
X65874Y-22547D01*
X65855Y-22509D01*
X65817Y-22490D01*
X65721Y-22490D01*
X65683Y-22470D01*
X65321Y-22623D02*
X65359Y-22642D01*
X65436Y-22642D01*
X65474Y-22623D01*
X65493Y-22604D01*
X65512Y-22566D01*
X65512Y-22451D01*
X65493Y-22413D01*
X65474Y-22394D01*
X65436Y-22375D01*
X65359Y-22375D01*
X65321Y-22394D01*
X64997Y-22623D02*
X65035Y-22642D01*
X65112Y-22642D01*
X65150Y-22623D01*
X65169Y-22585D01*
X65169Y-22432D01*
X65150Y-22394D01*
X65112Y-22375D01*
X65035Y-22375D01*
X64997Y-22394D01*
X64978Y-22432D01*
X64978Y-22470D01*
X65169Y-22509D01*
X64330Y-22642D02*
X64330Y-22432D01*
X64349Y-22394D01*
X64387Y-22375D01*
X64464Y-22375D01*
X64502Y-22394D01*
X64330Y-22623D02*
X64368Y-22642D01*
X64464Y-22642D01*
X64502Y-22623D01*
X64521Y-22585D01*
X64521Y-22547D01*
X64502Y-22509D01*
X64464Y-22490D01*
X64368Y-22490D01*
X64330Y-22470D01*
X63854Y-22623D02*
X63816Y-22642D01*
X63740Y-22642D01*
X63701Y-22623D01*
X63682Y-22585D01*
X63682Y-22566D01*
X63701Y-22528D01*
X63740Y-22509D01*
X63797Y-22509D01*
X63835Y-22490D01*
X63854Y-22451D01*
X63854Y-22432D01*
X63835Y-22394D01*
X63797Y-22375D01*
X63740Y-22375D01*
X63701Y-22394D01*
X63454Y-22642D02*
X63492Y-22623D01*
X63511Y-22604D01*
X63530Y-22566D01*
X63530Y-22451D01*
X63511Y-22413D01*
X63492Y-22394D01*
X63454Y-22375D01*
X63396Y-22375D01*
X63358Y-22394D01*
X63339Y-22413D01*
X63320Y-22451D01*
X63320Y-22566D01*
X63339Y-22604D01*
X63358Y-22623D01*
X63396Y-22642D01*
X63454Y-22642D01*
X63092Y-22642D02*
X63130Y-22623D01*
X63149Y-22585D01*
X63149Y-22242D01*
X62939Y-22642D02*
X62939Y-22375D01*
X62939Y-22242D02*
X62958Y-22261D01*
X62939Y-22280D01*
X62920Y-22261D01*
X62939Y-22242D01*
X62939Y-22280D01*
X62577Y-22642D02*
X62577Y-22242D01*
X62577Y-22623D02*
X62615Y-22642D01*
X62692Y-22642D01*
X62730Y-22623D01*
X62749Y-22604D01*
X62768Y-22566D01*
X62768Y-22451D01*
X62749Y-22413D01*
X62730Y-22394D01*
X62692Y-22375D01*
X62615Y-22375D01*
X62577Y-22394D01*
X62101Y-22280D02*
X62082Y-22261D01*
X62044Y-22242D01*
X61948Y-22242D01*
X61910Y-22261D01*
X61891Y-22280D01*
X61872Y-22318D01*
X61872Y-22356D01*
X61891Y-22413D01*
X62120Y-22642D01*
X61872Y-22642D01*
X61701Y-22642D02*
X61701Y-22375D01*
X61701Y-22413D02*
X61682Y-22394D01*
X61644Y-22375D01*
X61586Y-22375D01*
X61548Y-22394D01*
X61529Y-22432D01*
X61529Y-22642D01*
X61529Y-22432D02*
X61510Y-22394D01*
X61472Y-22375D01*
X61415Y-22375D01*
X61377Y-22394D01*
X61358Y-22432D01*
X61358Y-22642D01*
X61168Y-22642D02*
X61168Y-22375D01*
X61168Y-22413D02*
X61149Y-22394D01*
X61111Y-22375D01*
X61053Y-22375D01*
X61015Y-22394D01*
X60996Y-22432D01*
X60996Y-22642D01*
X60996Y-22432D02*
X60977Y-22394D01*
X60939Y-22375D01*
X60882Y-22375D01*
X60844Y-22394D01*
X60825Y-22432D01*
X60825Y-22642D01*
X60368Y-22375D02*
X60292Y-22642D01*
X60215Y-22451D01*
X60139Y-22642D01*
X60063Y-22375D01*
X59911Y-22642D02*
X59911Y-22375D01*
X59911Y-22242D02*
X59930Y-22261D01*
X59911Y-22280D01*
X59892Y-22261D01*
X59911Y-22242D01*
X59911Y-22280D01*
X59721Y-22642D02*
X59721Y-22375D01*
X59721Y-22451D02*
X59702Y-22413D01*
X59683Y-22394D01*
X59645Y-22375D01*
X59606Y-22375D01*
X59320Y-22623D02*
X59358Y-22642D01*
X59435Y-22642D01*
X59473Y-22623D01*
X59492Y-22585D01*
X59492Y-22432D01*
X59473Y-22394D01*
X59435Y-22375D01*
X59358Y-22375D01*
X59320Y-22394D01*
X59301Y-22432D01*
X59301Y-22470D01*
X59492Y-22509D01*
X70105Y-23282D02*
X70105Y-22882D01*
X70105Y-23034D02*
X70067Y-23015D01*
X69990Y-23015D01*
X69952Y-23034D01*
X69933Y-23053D01*
X69914Y-23091D01*
X69914Y-23206D01*
X69933Y-23244D01*
X69952Y-23263D01*
X69990Y-23282D01*
X70067Y-23282D01*
X70105Y-23263D01*
X69590Y-23263D02*
X69628Y-23282D01*
X69705Y-23282D01*
X69743Y-23263D01*
X69762Y-23225D01*
X69762Y-23072D01*
X69743Y-23034D01*
X69705Y-23015D01*
X69628Y-23015D01*
X69590Y-23034D01*
X69571Y-23072D01*
X69571Y-23110D01*
X69762Y-23149D01*
X69457Y-23015D02*
X69305Y-23015D01*
X69400Y-22882D02*
X69400Y-23225D01*
X69381Y-23263D01*
X69343Y-23282D01*
X69305Y-23282D01*
X69209Y-23015D02*
X69133Y-23282D01*
X69056Y-23091D01*
X68980Y-23282D01*
X68904Y-23015D01*
X68599Y-23263D02*
X68637Y-23282D01*
X68714Y-23282D01*
X68752Y-23263D01*
X68771Y-23225D01*
X68771Y-23072D01*
X68752Y-23034D01*
X68714Y-23015D01*
X68637Y-23015D01*
X68599Y-23034D01*
X68580Y-23072D01*
X68580Y-23110D01*
X68771Y-23149D01*
X68256Y-23263D02*
X68294Y-23282D01*
X68371Y-23282D01*
X68409Y-23263D01*
X68428Y-23225D01*
X68428Y-23072D01*
X68409Y-23034D01*
X68371Y-23015D01*
X68294Y-23015D01*
X68256Y-23034D01*
X68237Y-23072D01*
X68237Y-23110D01*
X68428Y-23149D01*
X68066Y-23015D02*
X68066Y-23282D01*
X68066Y-23053D02*
X68047Y-23034D01*
X68009Y-23015D01*
X67951Y-23015D01*
X67913Y-23034D01*
X67894Y-23072D01*
X67894Y-23282D01*
X67284Y-22882D02*
X67284Y-23168D01*
X67304Y-23225D01*
X67342Y-23263D01*
X67399Y-23282D01*
X67437Y-23282D01*
X67094Y-23282D02*
X67094Y-22882D01*
X66941Y-22882D01*
X66903Y-22901D01*
X66884Y-22920D01*
X66865Y-22958D01*
X66865Y-23015D01*
X66884Y-23053D01*
X66903Y-23072D01*
X66941Y-23091D01*
X67094Y-23091D01*
X66484Y-23282D02*
X66713Y-23282D01*
X66599Y-23282D02*
X66599Y-22882D01*
X66637Y-22939D01*
X66675Y-22977D01*
X66713Y-22996D01*
X65836Y-23282D02*
X65836Y-23072D01*
X65855Y-23034D01*
X65893Y-23015D01*
X65970Y-23015D01*
X66008Y-23034D01*
X65836Y-23263D02*
X65874Y-23282D01*
X65970Y-23282D01*
X66008Y-23263D01*
X66027Y-23225D01*
X66027Y-23187D01*
X66008Y-23149D01*
X65970Y-23130D01*
X65874Y-23130D01*
X65836Y-23110D01*
X65646Y-23015D02*
X65646Y-23282D01*
X65646Y-23053D02*
X65627Y-23034D01*
X65589Y-23015D01*
X65531Y-23015D01*
X65493Y-23034D01*
X65474Y-23072D01*
X65474Y-23282D01*
X65112Y-23282D02*
X65112Y-22882D01*
X65112Y-23263D02*
X65150Y-23282D01*
X65227Y-23282D01*
X65265Y-23263D01*
X65284Y-23244D01*
X65303Y-23206D01*
X65303Y-23091D01*
X65284Y-23053D01*
X65265Y-23034D01*
X65227Y-23015D01*
X65150Y-23015D01*
X65112Y-23034D01*
X64502Y-22882D02*
X64502Y-23168D01*
X64522Y-23225D01*
X64560Y-23263D01*
X64617Y-23282D01*
X64655Y-23282D01*
X64312Y-23282D02*
X64312Y-22882D01*
X64159Y-22882D01*
X64121Y-22901D01*
X64102Y-22920D01*
X64083Y-22958D01*
X64083Y-23015D01*
X64102Y-23053D01*
X64121Y-23072D01*
X64159Y-23091D01*
X64312Y-23091D01*
X63931Y-22920D02*
X63912Y-22901D01*
X63874Y-22882D01*
X63778Y-22882D01*
X63740Y-22901D01*
X63721Y-22920D01*
X63702Y-22958D01*
X63702Y-22996D01*
X63721Y-23053D01*
X63950Y-23282D01*
X63702Y-23282D01*
G54D12*
X73543Y-30686D02*
X73257Y-30486D01*
X73543Y-30343D02*
X72943Y-30343D01*
X72943Y-30571D01*
X72971Y-30629D01*
X73000Y-30657D01*
X73057Y-30686D01*
X73143Y-30686D01*
X73200Y-30657D01*
X73229Y-30629D01*
X73257Y-30571D01*
X73257Y-30343D01*
X73543Y-30943D02*
X72943Y-30943D01*
X72943Y-31171D01*
X72971Y-31229D01*
X73000Y-31257D01*
X73057Y-31286D01*
X73143Y-31286D01*
X73200Y-31257D01*
X73229Y-31229D01*
X73257Y-31171D01*
X73257Y-30943D01*
X73543Y-31543D02*
X72943Y-31543D01*
X72943Y-31771D01*
X72971Y-31829D01*
X73000Y-31857D01*
X73057Y-31886D01*
X73143Y-31886D01*
X73200Y-31857D01*
X73229Y-31829D01*
X73257Y-31771D01*
X73257Y-31543D01*
G54D11*
X74681Y-33300D02*
X74658Y-33529D01*
X74591Y-33750D01*
X74483Y-33953D01*
X74338Y-34132D01*
X74160Y-34279D01*
X73957Y-34388D01*
X73737Y-34456D01*
X73508Y-34480D01*
X73279Y-34460D01*
X73058Y-34395D01*
X72854Y-34288D01*
X72674Y-34143D01*
X72526Y-33967D01*
X72415Y-33765D01*
X72345Y-33545D01*
X72320Y-33316D01*
X72339Y-33087D01*
X72402Y-32866D01*
X72508Y-32661D01*
X72651Y-32480D01*
X72826Y-32331D01*
X73028Y-32218D01*
X73247Y-32147D01*
X73476Y-32120D01*
X73705Y-32137D01*
X73927Y-32199D01*
X74132Y-32303D01*
X74314Y-32445D01*
X74465Y-32620D01*
X74578Y-32820D01*
X74651Y-33039D01*
X74680Y-33268D01*
X74681Y-33300D01*
X74681Y-28900D02*
X74658Y-29129D01*
X74591Y-29350D01*
X74483Y-29553D01*
X74338Y-29732D01*
X74160Y-29879D01*
X73957Y-29988D01*
X73737Y-30056D01*
X73508Y-30080D01*
X73279Y-30060D01*
X73058Y-29995D01*
X72854Y-29888D01*
X72674Y-29743D01*
X72526Y-29567D01*
X72415Y-29365D01*
X72345Y-29145D01*
X72320Y-28916D01*
X72339Y-28687D01*
X72402Y-28466D01*
X72508Y-28261D01*
X72651Y-28080D01*
X72826Y-27931D01*
X73028Y-27818D01*
X73247Y-27747D01*
X73476Y-27720D01*
X73705Y-27737D01*
X73927Y-27799D01*
X74132Y-27903D01*
X74314Y-28045D01*
X74465Y-28220D01*
X74578Y-28420D01*
X74651Y-28639D01*
X74680Y-28868D01*
X74681Y-28900D01*
G54D13*
X71900Y-30900D02*
X71600Y-31100D01*
X72600Y-30900D02*
X71575Y-30900D01*
X71575Y-30900D02*
X71575Y-31500D01*
X71575Y-31500D02*
X72600Y-31500D01*
X72600Y-31500D02*
X72600Y-30900D01*
X74100Y-30900D02*
X73800Y-31100D01*
X74800Y-30900D02*
X73775Y-30900D01*
X73775Y-30900D02*
X73775Y-31500D01*
X73775Y-31500D02*
X74800Y-31500D01*
X74800Y-31500D02*
X74800Y-30900D01*
G54D14*
X73260Y-40625D02*
X73515Y-40625D01*
X73515Y-40625D02*
X73515Y-41176D01*
X73260Y-41176D02*
X73515Y-41176D01*
X73260Y-40625D02*
X73260Y-41176D01*
X72680Y-40625D02*
X72936Y-40625D01*
X72936Y-40625D02*
X72936Y-41176D01*
X72680Y-41176D02*
X72936Y-41176D01*
X72680Y-40625D02*
X72680Y-41176D01*
X73022Y-40704D02*
X73178Y-40704D01*
X73178Y-40704D02*
X73178Y-41096D01*
X73022Y-41096D02*
X73178Y-41096D01*
X73022Y-40704D02*
X73022Y-41096D01*
G54D10*
X72939Y-41150D02*
X73261Y-41150D01*
X72939Y-40650D02*
X73261Y-40650D01*
G54D15*
X72324Y-41287D02*
X73876Y-41287D01*
X73876Y-41287D02*
X73876Y-40513D01*
X73876Y-40513D02*
X72324Y-40513D01*
X72324Y-40513D02*
X72324Y-41287D01*
G54D13*
X70700Y-40700D02*
X71000Y-40500D01*
X70000Y-40700D02*
X71025Y-40700D01*
X71025Y-40700D02*
X71025Y-40100D01*
X71025Y-40100D02*
X70000Y-40100D01*
X70000Y-40100D02*
X70000Y-40700D01*
G54D14*
X73775Y-48460D02*
X73775Y-48715D01*
X73775Y-48715D02*
X73224Y-48715D01*
X73224Y-48460D02*
X73224Y-48715D01*
X73775Y-48460D02*
X73224Y-48460D01*
X73775Y-47880D02*
X73775Y-48136D01*
X73775Y-48136D02*
X73224Y-48136D01*
X73224Y-47880D02*
X73224Y-48136D01*
X73775Y-47880D02*
X73224Y-47880D01*
X73696Y-48222D02*
X73696Y-48378D01*
X73696Y-48378D02*
X73304Y-48378D01*
X73304Y-48222D02*
X73304Y-48378D01*
X73696Y-48222D02*
X73304Y-48222D01*
G54D10*
X73250Y-48139D02*
X73250Y-48461D01*
X73750Y-48139D02*
X73750Y-48461D01*
G54D15*
X73113Y-47524D02*
X73113Y-49076D01*
X73113Y-49076D02*
X73887Y-49076D01*
X73887Y-49076D02*
X73887Y-47524D01*
X73887Y-47524D02*
X73113Y-47524D01*
G54D11*
X41116Y-40950D02*
X41093Y-41179D01*
X41026Y-41400D01*
X40918Y-41603D01*
X40773Y-41782D01*
X40595Y-41929D01*
X40392Y-42038D01*
X40172Y-42106D01*
X39943Y-42130D01*
X39714Y-42110D01*
X39493Y-42045D01*
X39289Y-41938D01*
X39109Y-41793D01*
X38961Y-41617D01*
X38850Y-41415D01*
X38780Y-41195D01*
X38755Y-40966D01*
X38774Y-40737D01*
X38837Y-40516D01*
X38943Y-40311D01*
X39086Y-40130D01*
X39261Y-39981D01*
X39463Y-39868D01*
X39682Y-39797D01*
X39911Y-39770D01*
X40140Y-39787D01*
X40362Y-39849D01*
X40567Y-39953D01*
X40749Y-40095D01*
X40900Y-40270D01*
X41013Y-40470D01*
X41086Y-40689D01*
X41115Y-40918D01*
X41116Y-40950D01*
X51746Y-40950D02*
X51723Y-41179D01*
X51656Y-41400D01*
X51548Y-41603D01*
X51403Y-41782D01*
X51225Y-41929D01*
X51022Y-42038D01*
X50802Y-42106D01*
X50573Y-42130D01*
X50344Y-42110D01*
X50123Y-42045D01*
X49919Y-41938D01*
X49739Y-41793D01*
X49591Y-41617D01*
X49480Y-41415D01*
X49410Y-41195D01*
X49385Y-40966D01*
X49404Y-40737D01*
X49467Y-40516D01*
X49573Y-40311D01*
X49716Y-40130D01*
X49891Y-39981D01*
X50093Y-39868D01*
X50312Y-39797D01*
X50541Y-39770D01*
X50770Y-39787D01*
X50992Y-39849D01*
X51197Y-39953D01*
X51379Y-40095D01*
X51530Y-40270D01*
X51643Y-40470D01*
X51716Y-40689D01*
X51745Y-40918D01*
X51746Y-40950D01*
X41293Y-30773D02*
X49384Y-30773D01*
X41293Y-31974D02*
X40329Y-31974D01*
X41293Y-30773D02*
X41293Y-31974D01*
X49384Y-31974D02*
X49384Y-30773D01*
X50171Y-39769D02*
X40329Y-39769D01*
X50171Y-42131D02*
X40329Y-42131D01*
X50171Y-31974D02*
X49384Y-31974D01*
X50171Y-31974D02*
X50171Y-28824D01*
X50171Y-28824D02*
X40329Y-28824D01*
X40329Y-28824D02*
X40329Y-31974D01*
X43675Y-32092D02*
X43675Y-30911D01*
X43675Y-30911D02*
X41431Y-30911D01*
X41431Y-30911D02*
X41431Y-32092D01*
X47593Y-31029D02*
X47593Y-30635D01*
X47593Y-31186D02*
X47593Y-31147D01*
X47593Y-31698D02*
X47593Y-31305D01*
X47593Y-31856D02*
X47593Y-31816D01*
X47593Y-32368D02*
X47593Y-31974D01*
X49246Y-30911D02*
X45939Y-30911D01*
X45939Y-30911D02*
X45939Y-32092D01*
X49246Y-32092D02*
X49246Y-30911D01*
X50171Y-32092D02*
X40329Y-32092D01*
X40329Y-32092D02*
X40329Y-49808D01*
X40329Y-49808D02*
X50171Y-49808D01*
X50171Y-49808D02*
X50171Y-32092D01*
G54D16*
X75933Y-33062D02*
X75933Y-33348D01*
X75953Y-33405D01*
X75991Y-33443D01*
X76048Y-33462D01*
X76086Y-33462D01*
X75743Y-33462D02*
X75743Y-33062D01*
X75590Y-33062D01*
X75552Y-33081D01*
X75533Y-33100D01*
X75514Y-33138D01*
X75514Y-33195D01*
X75533Y-33233D01*
X75552Y-33252D01*
X75590Y-33271D01*
X75743Y-33271D01*
X75133Y-33462D02*
X75362Y-33462D01*
X75248Y-33462D02*
X75248Y-33062D01*
X75286Y-33119D01*
X75324Y-33157D01*
X75362Y-33176D01*
X75933Y-28662D02*
X75933Y-28948D01*
X75953Y-29005D01*
X75991Y-29043D01*
X76048Y-29062D01*
X76086Y-29062D01*
X75743Y-29062D02*
X75743Y-28662D01*
X75590Y-28662D01*
X75552Y-28681D01*
X75533Y-28700D01*
X75514Y-28738D01*
X75514Y-28795D01*
X75533Y-28833D01*
X75552Y-28852D01*
X75590Y-28871D01*
X75743Y-28871D01*
X75362Y-28700D02*
X75343Y-28681D01*
X75305Y-28662D01*
X75209Y-28662D01*
X75171Y-28681D01*
X75152Y-28700D01*
X75133Y-28738D01*
X75133Y-28776D01*
X75152Y-28833D01*
X75381Y-29062D01*
X75133Y-29062D01*
G54D11*
X70938Y-31400D02*
X70976Y-31381D01*
X71014Y-31343D01*
X71071Y-31286D01*
X71110Y-31267D01*
X71148Y-31267D01*
X71129Y-31362D02*
X71167Y-31343D01*
X71205Y-31305D01*
X71224Y-31229D01*
X71224Y-31095D01*
X71205Y-31019D01*
X71167Y-30981D01*
X71129Y-30962D01*
X71052Y-30962D01*
X71014Y-30981D01*
X70976Y-31019D01*
X70957Y-31095D01*
X70957Y-31229D01*
X70976Y-31305D01*
X71014Y-31343D01*
X71052Y-31362D01*
X71129Y-31362D01*
X70824Y-30962D02*
X70576Y-30962D01*
X70710Y-31114D01*
X70652Y-31114D01*
X70614Y-31133D01*
X70595Y-31152D01*
X70576Y-31190D01*
X70576Y-31286D01*
X70595Y-31324D01*
X70614Y-31343D01*
X70652Y-31362D01*
X70767Y-31362D01*
X70805Y-31343D01*
X70824Y-31324D01*
X75538Y-31400D02*
X75576Y-31381D01*
X75614Y-31343D01*
X75671Y-31286D01*
X75710Y-31267D01*
X75748Y-31267D01*
X75729Y-31362D02*
X75767Y-31343D01*
X75805Y-31305D01*
X75824Y-31229D01*
X75824Y-31095D01*
X75805Y-31019D01*
X75767Y-30981D01*
X75729Y-30962D01*
X75652Y-30962D01*
X75614Y-30981D01*
X75576Y-31019D01*
X75557Y-31095D01*
X75557Y-31229D01*
X75576Y-31305D01*
X75614Y-31343D01*
X75652Y-31362D01*
X75729Y-31362D01*
X75214Y-31095D02*
X75214Y-31362D01*
X75310Y-30943D02*
X75405Y-31229D01*
X75157Y-31229D01*
X74466Y-41062D02*
X74600Y-40871D01*
X74695Y-41062D02*
X74695Y-40662D01*
X74542Y-40662D01*
X74504Y-40681D01*
X74485Y-40700D01*
X74466Y-40738D01*
X74466Y-40795D01*
X74485Y-40833D01*
X74504Y-40852D01*
X74542Y-40871D01*
X74695Y-40871D01*
X74333Y-40662D02*
X74066Y-40662D01*
X74238Y-41062D01*
X69686Y-40562D02*
X69686Y-40162D01*
X69591Y-40162D01*
X69533Y-40181D01*
X69495Y-40219D01*
X69476Y-40257D01*
X69457Y-40333D01*
X69457Y-40390D01*
X69476Y-40467D01*
X69495Y-40505D01*
X69533Y-40543D01*
X69591Y-40562D01*
X69686Y-40562D01*
X69324Y-40162D02*
X69057Y-40162D01*
X69324Y-40562D01*
X69057Y-40562D01*
X68695Y-40562D02*
X68924Y-40562D01*
X68810Y-40562D02*
X68810Y-40162D01*
X68848Y-40219D01*
X68886Y-40257D01*
X68924Y-40276D01*
X73662Y-49534D02*
X73471Y-49400D01*
X73662Y-49305D02*
X73262Y-49305D01*
X73262Y-49458D01*
X73281Y-49496D01*
X73300Y-49515D01*
X73338Y-49534D01*
X73395Y-49534D01*
X73433Y-49515D01*
X73452Y-49496D01*
X73471Y-49458D01*
X73471Y-49305D01*
X73662Y-49915D02*
X73662Y-49686D01*
X73662Y-49800D02*
X73262Y-49800D01*
X73319Y-49762D01*
X73357Y-49724D01*
X73376Y-49686D01*
X46639Y-40762D02*
X46563Y-40762D01*
X46524Y-40743D01*
X46505Y-40724D01*
X46467Y-40667D01*
X46448Y-40590D01*
X46448Y-40438D01*
X46467Y-40400D01*
X46486Y-40381D01*
X46524Y-40362D01*
X46601Y-40362D01*
X46639Y-40381D01*
X46658Y-40400D01*
X46677Y-40438D01*
X46677Y-40533D01*
X46658Y-40571D01*
X46639Y-40590D01*
X46601Y-40610D01*
X46524Y-40610D01*
X46486Y-40590D01*
X46467Y-40571D01*
X46448Y-40533D01*
X46334Y-40362D02*
X46201Y-40762D01*
X46067Y-40362D01*
X46029Y-40800D02*
X45724Y-40800D01*
X45629Y-40762D02*
X45629Y-40362D01*
X45629Y-40514D02*
X45591Y-40495D01*
X45514Y-40495D01*
X45476Y-40514D01*
X45457Y-40533D01*
X45438Y-40571D01*
X45438Y-40686D01*
X45457Y-40724D01*
X45476Y-40743D01*
X45514Y-40762D01*
X45591Y-40762D01*
X45629Y-40743D01*
X45095Y-40762D02*
X45095Y-40552D01*
X45114Y-40514D01*
X45152Y-40495D01*
X45229Y-40495D01*
X45267Y-40514D01*
X45095Y-40743D02*
X45133Y-40762D01*
X45229Y-40762D01*
X45267Y-40743D01*
X45286Y-40705D01*
X45286Y-40667D01*
X45267Y-40629D01*
X45229Y-40610D01*
X45133Y-40610D01*
X45095Y-40590D01*
X44962Y-40495D02*
X44810Y-40495D01*
X44905Y-40362D02*
X44905Y-40705D01*
X44886Y-40743D01*
X44848Y-40762D01*
X44810Y-40762D01*
X44733Y-40495D02*
X44581Y-40495D01*
X44676Y-40362D02*
X44676Y-40705D01*
X44657Y-40743D01*
X44619Y-40762D01*
X44581Y-40762D01*
X44294Y-40743D02*
X44332Y-40762D01*
X44409Y-40762D01*
X44447Y-40743D01*
X44466Y-40705D01*
X44466Y-40552D01*
X44447Y-40514D01*
X44409Y-40495D01*
X44332Y-40495D01*
X44294Y-40514D01*
X44275Y-40552D01*
X44275Y-40590D01*
X44466Y-40629D01*
X44104Y-40762D02*
X44104Y-40495D01*
X44104Y-40571D02*
X44085Y-40533D01*
X44066Y-40514D01*
X44028Y-40495D01*
X43989Y-40495D01*
X43894Y-40495D02*
X43799Y-40762D01*
X43703Y-40495D02*
X43799Y-40762D01*
X43837Y-40857D01*
X43856Y-40876D01*
X43894Y-40895D01*
X48306Y-41548D02*
X48115Y-41548D01*
X48344Y-41662D02*
X48211Y-41262D01*
X48077Y-41662D01*
X48001Y-41395D02*
X47849Y-41395D01*
X47944Y-41262D02*
X47944Y-41605D01*
X47925Y-41643D01*
X47887Y-41662D01*
X47849Y-41662D01*
X47772Y-41395D02*
X47620Y-41395D01*
X47715Y-41262D02*
X47715Y-41605D01*
X47696Y-41643D01*
X47658Y-41662D01*
X47620Y-41662D01*
X47314Y-41662D02*
X47314Y-41452D01*
X47333Y-41414D01*
X47371Y-41395D01*
X47448Y-41395D01*
X47486Y-41414D01*
X47314Y-41643D02*
X47352Y-41662D01*
X47448Y-41662D01*
X47486Y-41643D01*
X47505Y-41605D01*
X47505Y-41567D01*
X47486Y-41529D01*
X47448Y-41510D01*
X47352Y-41510D01*
X47314Y-41490D01*
X46952Y-41643D02*
X46990Y-41662D01*
X47067Y-41662D01*
X47105Y-41643D01*
X47124Y-41624D01*
X47143Y-41586D01*
X47143Y-41471D01*
X47124Y-41433D01*
X47105Y-41414D01*
X47067Y-41395D01*
X46990Y-41395D01*
X46952Y-41414D01*
X46781Y-41662D02*
X46781Y-41262D01*
X46609Y-41662D02*
X46609Y-41452D01*
X46628Y-41414D01*
X46666Y-41395D01*
X46724Y-41395D01*
X46762Y-41414D01*
X46781Y-41433D01*
X46152Y-41395D02*
X46076Y-41662D01*
X45999Y-41471D01*
X45923Y-41662D01*
X45847Y-41395D01*
X45695Y-41662D02*
X45695Y-41395D01*
X45695Y-41262D02*
X45714Y-41281D01*
X45695Y-41300D01*
X45676Y-41281D01*
X45695Y-41262D01*
X45695Y-41300D01*
X45562Y-41395D02*
X45410Y-41395D01*
X45505Y-41262D02*
X45505Y-41605D01*
X45486Y-41643D01*
X45448Y-41662D01*
X45410Y-41662D01*
X45276Y-41662D02*
X45276Y-41262D01*
X45104Y-41662D02*
X45104Y-41452D01*
X45123Y-41414D01*
X45161Y-41395D01*
X45219Y-41395D01*
X45257Y-41414D01*
X45276Y-41433D01*
X44437Y-41643D02*
X44475Y-41662D01*
X44552Y-41662D01*
X44590Y-41643D01*
X44609Y-41624D01*
X44628Y-41586D01*
X44628Y-41471D01*
X44609Y-41433D01*
X44590Y-41414D01*
X44552Y-41395D01*
X44475Y-41395D01*
X44437Y-41414D01*
X44094Y-41662D02*
X44094Y-41452D01*
X44113Y-41414D01*
X44151Y-41395D01*
X44228Y-41395D01*
X44266Y-41414D01*
X44094Y-41643D02*
X44132Y-41662D01*
X44228Y-41662D01*
X44266Y-41643D01*
X44285Y-41605D01*
X44285Y-41567D01*
X44266Y-41529D01*
X44228Y-41510D01*
X44132Y-41510D01*
X44094Y-41490D01*
X43904Y-41662D02*
X43904Y-41262D01*
X43904Y-41414D02*
X43866Y-41395D01*
X43789Y-41395D01*
X43751Y-41414D01*
X43732Y-41433D01*
X43713Y-41471D01*
X43713Y-41586D01*
X43732Y-41624D01*
X43751Y-41643D01*
X43789Y-41662D01*
X43866Y-41662D01*
X43904Y-41643D01*
X43485Y-41662D02*
X43523Y-41643D01*
X43542Y-41605D01*
X43542Y-41262D01*
X43179Y-41643D02*
X43217Y-41662D01*
X43294Y-41662D01*
X43332Y-41643D01*
X43351Y-41605D01*
X43351Y-41452D01*
X43332Y-41414D01*
X43294Y-41395D01*
X43217Y-41395D01*
X43179Y-41414D01*
X43160Y-41452D01*
X43160Y-41490D01*
X43351Y-41529D01*
X42741Y-41395D02*
X42589Y-41395D01*
X42684Y-41262D02*
X42684Y-41605D01*
X42665Y-41643D01*
X42627Y-41662D01*
X42589Y-41662D01*
X42455Y-41662D02*
X42455Y-41395D01*
X42455Y-41262D02*
X42474Y-41281D01*
X42455Y-41300D01*
X42436Y-41281D01*
X42455Y-41262D01*
X42455Y-41300D01*
X42112Y-41643D02*
X42150Y-41662D01*
X42227Y-41662D01*
X42265Y-41643D01*
X42284Y-41605D01*
X42284Y-41452D01*
X42265Y-41414D01*
X42227Y-41395D01*
X42150Y-41395D01*
X42112Y-41414D01*
X42093Y-41452D01*
X42093Y-41490D01*
X42284Y-41529D01*
%LPC*%
G54D17*
X72835Y-25118D03*
X41339Y-25118D03*
X57087Y-25118D03*
G54D18*
X73500Y-33300D03*
X73500Y-28900D03*
G54D19*
X56000Y-45200D03*
G54D20*
X56000Y-39294D03*
X54425Y-39294D03*
X57575Y-39294D03*
G54D21*
X48213Y-27559D03*
X49213Y-27559D03*
G54D22*
X50213Y-27559D03*
G54D21*
X63961Y-27559D03*
X64961Y-27559D03*
G54D22*
X65961Y-27559D03*
G54D23*
X39370Y-15354D03*
X74803Y-15354D03*
X39370Y-50787D03*
X74803Y-50787D03*
G54D24*
X72100Y-31700D03*
X72475Y-30700D03*
X71725Y-30700D03*
X74300Y-31700D03*
X74675Y-30700D03*
X73925Y-30700D03*
G54D25*
X72726Y-40900D03*
X73474Y-40900D03*
G54D24*
X70500Y-39900D03*
X70125Y-40900D03*
X70875Y-40900D03*
G54D26*
X73500Y-47926D03*
X73500Y-48674D03*
G54D27*
X73500Y-37500D03*
X73500Y-44500D03*
X68800Y-47900D03*
X63400Y-47900D03*
G54D18*
X50565Y-40950D03*
X39935Y-40950D03*
G54D28*
X47258Y-50714D03*
X43242Y-50714D03*
G54D29*
X45880Y-50714D03*
X44620Y-50714D03*
X40354Y-46496D03*
X40354Y-45496D03*
X40354Y-47496D03*
G54D30*
X40500Y-36200D03*
X39500Y-37200D03*
X40500Y-38200D03*
G54D31*
X66900Y-30504D03*
X66900Y-43496D03*
X64100Y-30504D03*
X64100Y-43496D03*
M02*
