G04 (created by PCBNEW-RS274X (2012-jan-04)-stable) date Wed 06 Jun 2012 06:12:05 PM CEST*
G01*
G70*
G90*
%MOIN*%
G04 Gerber Fmt 3.4, Leading zero omitted, Abs format*
%FSLAX34Y34*%
G04 APERTURE LIST*
%ADD10C,0.006000*%
%ADD11C,0.315000*%
%ADD12C,0.196900*%
%ADD13C,0.472400*%
%ADD14C,0.098400*%
%ADD15C,0.070000*%
%ADD16R,0.070000X0.070000*%
%ADD17C,0.160000*%
%ADD18R,0.027600X0.039400*%
%ADD19R,0.051100X0.059000*%
%ADD20R,0.059000X0.051100*%
%ADD21C,0.393700*%
%ADD22O,0.137800X0.098400*%
%ADD23C,0.059100*%
%ADD24C,0.044000*%
%ADD25C,0.157500*%
G04 APERTURE END LIST*
G54D10*
G54D11*
X72835Y-25118D03*
X41339Y-25118D03*
X57087Y-25118D03*
G54D12*
X73500Y-33300D03*
X73500Y-28900D03*
G54D13*
X56000Y-45200D03*
G54D14*
X56000Y-39294D03*
X54425Y-39294D03*
X57575Y-39294D03*
G54D15*
X48213Y-27559D03*
X49213Y-27559D03*
G54D16*
X50213Y-27559D03*
G54D15*
X63961Y-27559D03*
X64961Y-27559D03*
G54D16*
X65961Y-27559D03*
G54D17*
X39370Y-15354D03*
X74803Y-15354D03*
X39370Y-50787D03*
X74803Y-50787D03*
G54D18*
X72100Y-31700D03*
X72475Y-30700D03*
X71725Y-30700D03*
X74300Y-31700D03*
X74675Y-30700D03*
X73925Y-30700D03*
G54D19*
X72726Y-40900D03*
X73474Y-40900D03*
G54D18*
X70500Y-39900D03*
X70125Y-40900D03*
X70875Y-40900D03*
G54D20*
X73500Y-47926D03*
X73500Y-48674D03*
G54D21*
X73500Y-37500D03*
X73500Y-44500D03*
X68800Y-47900D03*
X63400Y-47900D03*
G54D12*
X50565Y-40950D03*
X39935Y-40950D03*
G54D22*
X47258Y-50714D03*
X43242Y-50714D03*
G54D23*
X45880Y-50714D03*
X44620Y-50714D03*
X40354Y-46496D03*
X40354Y-45496D03*
X40354Y-47496D03*
G54D24*
X40500Y-36200D03*
X39500Y-37200D03*
X40500Y-38200D03*
G54D25*
X66900Y-30504D03*
X66900Y-43496D03*
X64100Y-30504D03*
X64100Y-43496D03*
M02*
