G04 (created by PCBNEW-RS274X (2012-jan-04)-stable) date Tue 19 Jun 2012 08:23:48 PM CEST*
G01*
G70*
G90*
%MOIN*%
G04 Gerber Fmt 3.4, Leading zero omitted, Abs format*
%FSLAX34Y34*%
G04 APERTURE LIST*
%ADD10C,0.006000*%
%ADD11C,0.393700*%
%ADD12C,0.177200*%
%ADD13C,0.315000*%
%ADD14C,0.196900*%
%ADD15O,0.137800X0.098400*%
%ADD16C,0.059100*%
%ADD17C,0.472400*%
%ADD18C,0.098400*%
%ADD19C,0.160000*%
%ADD20C,0.044000*%
%ADD21C,0.157500*%
%ADD22R,0.043300X0.039300*%
%ADD23O,0.068900X0.118100*%
%ADD24R,0.070800X0.062900*%
%ADD25C,0.035000*%
%ADD26C,0.025000*%
%ADD27C,0.070000*%
%ADD28C,0.008000*%
G04 APERTURE END LIST*
G54D10*
G54D11*
X69200Y-47900D03*
G54D12*
X70635Y-48905D02*
X71763Y-49695D01*
G54D11*
X63400Y-47900D03*
G54D12*
X61965Y-48905D02*
X60837Y-49695D01*
G54D13*
X73229Y-25118D03*
X40945Y-25118D03*
G54D14*
X51215Y-41000D03*
X40585Y-41000D03*
G54D15*
X47908Y-50764D03*
X43892Y-50764D03*
G54D16*
X46530Y-50764D03*
X45270Y-50764D03*
G54D17*
X56000Y-45200D03*
G54D18*
X56000Y-39294D03*
X54425Y-39294D03*
X57575Y-39294D03*
G54D19*
X39370Y-15354D03*
X74803Y-15354D03*
X39370Y-50787D03*
X74803Y-50787D03*
G54D11*
X73500Y-36000D03*
X73500Y-43000D03*
G54D16*
X40354Y-46496D03*
X40354Y-45496D03*
X40354Y-47496D03*
G54D20*
X40200Y-36200D03*
X39200Y-37200D03*
X40200Y-38200D03*
G54D21*
X67700Y-30504D03*
X67700Y-43496D03*
X64900Y-30504D03*
X64900Y-43496D03*
G54D22*
X73500Y-47966D03*
X73500Y-48634D03*
G54D23*
X51200Y-27750D03*
X52200Y-27750D03*
X50200Y-27750D03*
X63000Y-27750D03*
X64000Y-27750D03*
X62000Y-27750D03*
G54D24*
X72700Y-38849D03*
X72700Y-39951D03*
X74300Y-38849D03*
X74300Y-39951D03*
G54D23*
X57100Y-27750D03*
X58100Y-27750D03*
X56100Y-27750D03*
G54D25*
X45700Y-38900D03*
X43250Y-46350D03*
X47800Y-39400D03*
X47800Y-37500D03*
X43800Y-32200D03*
X43800Y-33600D03*
X43900Y-37400D03*
X48000Y-35900D03*
X46200Y-31600D03*
G54D26*
X61593Y-49707D02*
X63400Y-47900D01*
X43700Y-38200D02*
X44400Y-38900D01*
X40200Y-38200D02*
X43700Y-38200D01*
X44400Y-38900D02*
X45700Y-38900D01*
X61300Y-40800D02*
X61300Y-45800D01*
X46800Y-37600D02*
X46800Y-38600D01*
X47800Y-36600D02*
X54200Y-36600D01*
X57600Y-37100D02*
X61300Y-40800D01*
X57600Y-37100D02*
X56000Y-37100D01*
X54200Y-36600D02*
X54700Y-37100D01*
X46800Y-38600D02*
X46500Y-38900D01*
X60820Y-49707D02*
X61593Y-49707D01*
X63400Y-47900D02*
X61300Y-45800D01*
X54700Y-37100D02*
X56000Y-37100D01*
X46500Y-38900D02*
X45700Y-38900D01*
X47800Y-36600D02*
X46800Y-37600D01*
X40354Y-47496D02*
X42104Y-47496D01*
X42104Y-47496D02*
X43250Y-46350D01*
G54D27*
X56100Y-26800D02*
X56100Y-27750D01*
X55700Y-26400D02*
X56100Y-26800D01*
X56600Y-29200D02*
X62400Y-29200D01*
X63000Y-28600D02*
X63000Y-27750D01*
X51200Y-27750D02*
X51200Y-26700D01*
X55500Y-26400D02*
X55700Y-26400D01*
X56100Y-27750D02*
X56100Y-28700D01*
X51500Y-26400D02*
X55500Y-26400D01*
X56100Y-28700D02*
X56600Y-29200D01*
X62400Y-29200D02*
X63000Y-28600D01*
X51200Y-26700D02*
X51500Y-26400D01*
G54D26*
X73500Y-38800D02*
X73500Y-38849D01*
X73500Y-38849D02*
X73500Y-38800D01*
X72700Y-38849D02*
X73500Y-38849D01*
X73500Y-36000D02*
X73500Y-36100D01*
G54D27*
X65900Y-23600D02*
X60200Y-23600D01*
X60200Y-23600D02*
X58100Y-25700D01*
X73500Y-36000D02*
X73500Y-31200D01*
X73500Y-31200D02*
X65900Y-23600D01*
G54D26*
X73500Y-38849D02*
X74300Y-38849D01*
G54D27*
X58100Y-25700D02*
X58100Y-27750D01*
G54D26*
X73500Y-36000D02*
X73500Y-38849D01*
G54D27*
X66300Y-33400D02*
X66100Y-33600D01*
X52200Y-31900D02*
X53900Y-33600D01*
X66300Y-30504D02*
X67700Y-30504D01*
X64000Y-27750D02*
X65050Y-27750D01*
X66300Y-30500D02*
X66300Y-33400D01*
X64900Y-30504D02*
X66300Y-30504D01*
X65050Y-27750D02*
X65450Y-28150D01*
X66300Y-29000D02*
X66300Y-30500D01*
X53900Y-33600D02*
X66100Y-33600D01*
X66300Y-30500D02*
X66300Y-30504D01*
X65450Y-28150D02*
X66300Y-29000D01*
X52200Y-31900D02*
X52200Y-27750D01*
G54D26*
X71007Y-49707D02*
X69200Y-47900D01*
X74803Y-50787D02*
X72860Y-50787D01*
X39370Y-50787D02*
X39370Y-49770D01*
X43850Y-52000D02*
X73590Y-52000D01*
X54319Y-39400D02*
X54425Y-39294D01*
X38400Y-47860D02*
X38400Y-47600D01*
X39370Y-15354D02*
X74803Y-15354D01*
X43850Y-51958D02*
X43850Y-51950D01*
X73508Y-49492D02*
X73508Y-48642D01*
X38400Y-48800D02*
X38400Y-47860D01*
X43850Y-51950D02*
X43850Y-52000D01*
X39587Y-50787D02*
X40800Y-52000D01*
X38400Y-47600D02*
X38400Y-47450D01*
X43892Y-50764D02*
X43892Y-52000D01*
X73590Y-52000D02*
X74803Y-50787D01*
X73508Y-48642D02*
X73500Y-48634D01*
X38400Y-47450D02*
X38400Y-16324D01*
X73500Y-49484D02*
X73508Y-49492D01*
X73508Y-49492D02*
X74803Y-50787D01*
X49800Y-39400D02*
X54319Y-39400D01*
X72860Y-50787D02*
X71780Y-49707D01*
X40800Y-52000D02*
X43850Y-52000D01*
X71780Y-49707D02*
X71007Y-49707D01*
X43892Y-52000D02*
X43850Y-51958D01*
X39370Y-50787D02*
X39587Y-50787D01*
X38400Y-47496D02*
X38400Y-47600D01*
X39370Y-49770D02*
X38400Y-48800D01*
X47800Y-39400D02*
X49800Y-39400D01*
X38400Y-16324D02*
X39370Y-15354D01*
X73500Y-39951D02*
X73500Y-43000D01*
X72700Y-39951D02*
X73500Y-39951D01*
X73500Y-39951D02*
X74300Y-39951D01*
G54D27*
X67700Y-43496D02*
X73004Y-43496D01*
X73004Y-43496D02*
X73500Y-43000D01*
X64900Y-43496D02*
X67700Y-43496D01*
G54D26*
X73500Y-43000D02*
X73500Y-47966D01*
X39100Y-47750D02*
X40850Y-49500D01*
X40850Y-49500D02*
X46644Y-49500D01*
X40354Y-46496D02*
X39304Y-46496D01*
X46644Y-49500D02*
X47908Y-50764D01*
X39100Y-46700D02*
X39100Y-47750D01*
X39304Y-46496D02*
X39100Y-46700D01*
X47800Y-37500D02*
X54206Y-37500D01*
X54206Y-37500D02*
X56000Y-39294D01*
X43800Y-33600D02*
X43800Y-32200D01*
X43700Y-37200D02*
X43900Y-37400D01*
X39200Y-37200D02*
X43700Y-37200D01*
X46400Y-33700D02*
X47300Y-34600D01*
X47300Y-34600D02*
X47900Y-34600D01*
X47900Y-34600D02*
X48000Y-34700D01*
X46400Y-33700D02*
X46400Y-31800D01*
X46400Y-31800D02*
X46200Y-31600D01*
X48000Y-35900D02*
X48000Y-35300D01*
X48000Y-34700D02*
X48000Y-35300D01*
G54D10*
G36*
X73460Y-44248D02*
X73447Y-44388D01*
X73406Y-44522D01*
X73341Y-44645D01*
X73252Y-44752D01*
X73145Y-44841D01*
X73022Y-44906D01*
X72888Y-44947D01*
X72748Y-44960D01*
X64452Y-44960D01*
X64312Y-44947D01*
X64178Y-44906D01*
X64055Y-44841D01*
X63948Y-44752D01*
X63859Y-44645D01*
X63794Y-44522D01*
X63753Y-44388D01*
X63740Y-44248D01*
X63740Y-41752D01*
X63753Y-41612D01*
X63794Y-41478D01*
X63859Y-41355D01*
X63948Y-41248D01*
X64055Y-41159D01*
X64178Y-41094D01*
X64312Y-41053D01*
X64452Y-41040D01*
X72748Y-41040D01*
X72888Y-41053D01*
X73022Y-41094D01*
X73145Y-41159D01*
X73252Y-41248D01*
X73341Y-41355D01*
X73406Y-41478D01*
X73447Y-41612D01*
X73460Y-41752D01*
X73460Y-44248D01*
X73460Y-44248D01*
G37*
G54D28*
X73460Y-44248D02*
X73447Y-44388D01*
X73406Y-44522D01*
X73341Y-44645D01*
X73252Y-44752D01*
X73145Y-44841D01*
X73022Y-44906D01*
X72888Y-44947D01*
X72748Y-44960D01*
X64452Y-44960D01*
X64312Y-44947D01*
X64178Y-44906D01*
X64055Y-44841D01*
X63948Y-44752D01*
X63859Y-44645D01*
X63794Y-44522D01*
X63753Y-44388D01*
X63740Y-44248D01*
X63740Y-41752D01*
X63753Y-41612D01*
X63794Y-41478D01*
X63859Y-41355D01*
X63948Y-41248D01*
X64055Y-41159D01*
X64178Y-41094D01*
X64312Y-41053D01*
X64452Y-41040D01*
X72748Y-41040D01*
X72888Y-41053D01*
X73022Y-41094D01*
X73145Y-41159D01*
X73252Y-41248D01*
X73341Y-41355D01*
X73406Y-41478D01*
X73447Y-41612D01*
X73460Y-41752D01*
X73460Y-44248D01*
G54D10*
G36*
X76560Y-51748D02*
X76547Y-51888D01*
X76506Y-52022D01*
X76441Y-52145D01*
X76352Y-52252D01*
X76245Y-52341D01*
X76122Y-52406D01*
X75988Y-52447D01*
X75848Y-52460D01*
X75630Y-52460D01*
X75630Y-24883D01*
X75539Y-24421D01*
X75359Y-23986D01*
X75099Y-23594D01*
X74767Y-23259D01*
X74377Y-22996D01*
X73943Y-22814D01*
X73482Y-22719D01*
X73011Y-22715D01*
X72548Y-22804D01*
X72112Y-22980D01*
X71718Y-23238D01*
X71381Y-23567D01*
X71115Y-23955D01*
X70930Y-24388D01*
X70832Y-24849D01*
X70825Y-25319D01*
X70910Y-25783D01*
X71083Y-26220D01*
X71338Y-26616D01*
X71665Y-26955D01*
X72052Y-27224D01*
X72483Y-27412D01*
X72943Y-27513D01*
X73414Y-27523D01*
X73877Y-27442D01*
X74316Y-27272D01*
X74714Y-27019D01*
X75055Y-26695D01*
X75326Y-26310D01*
X75518Y-25880D01*
X75622Y-25421D01*
X75630Y-24883D01*
X75630Y-52460D01*
X75608Y-52460D01*
X75608Y-42793D01*
X75608Y-35793D01*
X75540Y-35447D01*
X75540Y-31306D01*
X75525Y-31155D01*
X75481Y-31008D01*
X75408Y-30872D01*
X75313Y-30754D01*
X67247Y-22594D01*
X67154Y-22513D01*
X67048Y-22447D01*
X66933Y-22399D01*
X66811Y-22369D01*
X66689Y-22360D01*
X58148Y-22360D01*
X57996Y-22375D01*
X57848Y-22420D01*
X57711Y-22493D01*
X57592Y-22592D01*
X57493Y-22711D01*
X57420Y-22848D01*
X57375Y-22996D01*
X57360Y-23148D01*
X57360Y-23648D01*
X57347Y-23788D01*
X57306Y-23922D01*
X57241Y-24045D01*
X57152Y-24152D01*
X57045Y-24241D01*
X56922Y-24306D01*
X56788Y-24347D01*
X56648Y-24360D01*
X50848Y-24360D01*
X50696Y-24375D01*
X50548Y-24420D01*
X50411Y-24493D01*
X50292Y-24592D01*
X50193Y-24711D01*
X50120Y-24848D01*
X50075Y-24996D01*
X50060Y-25148D01*
X50060Y-26698D01*
X50055Y-26751D01*
X50040Y-26800D01*
X50016Y-26845D01*
X49984Y-26884D01*
X49945Y-26916D01*
X49900Y-26940D01*
X49851Y-26955D01*
X49733Y-26967D01*
X49670Y-26986D01*
X49611Y-27018D01*
X49560Y-27060D01*
X49518Y-27111D01*
X49486Y-27170D01*
X49467Y-27233D01*
X49460Y-27298D01*
X49460Y-27852D01*
X49475Y-28004D01*
X49520Y-28152D01*
X49593Y-28289D01*
X49692Y-28408D01*
X49811Y-28507D01*
X49948Y-28580D01*
X50096Y-28625D01*
X50248Y-28640D01*
X50448Y-28640D01*
X50588Y-28653D01*
X50722Y-28694D01*
X50845Y-28759D01*
X50952Y-28848D01*
X51041Y-28955D01*
X51106Y-29078D01*
X51147Y-29212D01*
X51160Y-29352D01*
X51160Y-34452D01*
X51175Y-34604D01*
X51220Y-34752D01*
X51293Y-34889D01*
X51392Y-35008D01*
X51511Y-35107D01*
X51648Y-35180D01*
X51796Y-35225D01*
X51948Y-35240D01*
X68148Y-35240D01*
X68288Y-35253D01*
X68422Y-35294D01*
X68545Y-35359D01*
X68652Y-35448D01*
X68741Y-35555D01*
X68806Y-35678D01*
X68847Y-35812D01*
X68860Y-35952D01*
X68860Y-36752D01*
X68875Y-36904D01*
X68920Y-37052D01*
X68993Y-37189D01*
X69092Y-37308D01*
X69211Y-37407D01*
X69348Y-37480D01*
X69496Y-37525D01*
X69648Y-37540D01*
X72056Y-37540D01*
X72127Y-37613D01*
X72467Y-37849D01*
X72846Y-38015D01*
X73235Y-38099D01*
X73235Y-38584D01*
X73193Y-38584D01*
X73193Y-38521D01*
X73188Y-38494D01*
X73177Y-38469D01*
X73162Y-38446D01*
X73143Y-38427D01*
X73120Y-38412D01*
X73095Y-38401D01*
X73068Y-38396D01*
X73041Y-38396D01*
X72332Y-38396D01*
X72305Y-38401D01*
X72280Y-38412D01*
X72257Y-38427D01*
X72238Y-38446D01*
X72223Y-38469D01*
X72212Y-38494D01*
X72207Y-38521D01*
X72207Y-38548D01*
X72207Y-39177D01*
X72212Y-39204D01*
X72223Y-39229D01*
X72238Y-39252D01*
X72257Y-39271D01*
X72280Y-39286D01*
X72305Y-39297D01*
X72332Y-39302D01*
X72359Y-39302D01*
X73068Y-39302D01*
X73095Y-39297D01*
X73120Y-39286D01*
X73143Y-39271D01*
X73162Y-39252D01*
X73177Y-39229D01*
X73188Y-39204D01*
X73193Y-39177D01*
X73193Y-39150D01*
X73193Y-39114D01*
X73496Y-39114D01*
X73498Y-39114D01*
X73500Y-39114D01*
X73807Y-39114D01*
X73807Y-39177D01*
X73812Y-39204D01*
X73823Y-39229D01*
X73838Y-39252D01*
X73857Y-39271D01*
X73880Y-39286D01*
X73905Y-39297D01*
X73932Y-39302D01*
X73959Y-39302D01*
X74668Y-39302D01*
X74695Y-39297D01*
X74720Y-39286D01*
X74743Y-39271D01*
X74762Y-39252D01*
X74777Y-39229D01*
X74788Y-39204D01*
X74793Y-39177D01*
X74793Y-39150D01*
X74793Y-38521D01*
X74788Y-38494D01*
X74777Y-38469D01*
X74762Y-38446D01*
X74743Y-38427D01*
X74720Y-38412D01*
X74695Y-38401D01*
X74668Y-38396D01*
X74641Y-38396D01*
X73932Y-38396D01*
X73905Y-38401D01*
X73880Y-38412D01*
X73857Y-38427D01*
X73838Y-38446D01*
X73823Y-38469D01*
X73812Y-38494D01*
X73807Y-38521D01*
X73807Y-38548D01*
X73807Y-38584D01*
X73765Y-38584D01*
X73765Y-38093D01*
X74070Y-38040D01*
X74455Y-37890D01*
X74804Y-37669D01*
X74979Y-37501D01*
X75052Y-37480D01*
X75189Y-37407D01*
X75308Y-37308D01*
X75407Y-37189D01*
X75480Y-37052D01*
X75525Y-36904D01*
X75540Y-36752D01*
X75540Y-36535D01*
X75601Y-36265D01*
X75608Y-35793D01*
X75608Y-42793D01*
X75540Y-42447D01*
X75528Y-42387D01*
X75370Y-42005D01*
X75141Y-41661D01*
X74850Y-41368D01*
X74507Y-41137D01*
X74126Y-40976D01*
X73765Y-40902D01*
X73765Y-40216D01*
X73807Y-40216D01*
X73807Y-40279D01*
X73812Y-40306D01*
X73823Y-40331D01*
X73838Y-40354D01*
X73857Y-40373D01*
X73880Y-40388D01*
X73905Y-40399D01*
X73932Y-40404D01*
X73959Y-40404D01*
X74668Y-40404D01*
X74695Y-40399D01*
X74720Y-40388D01*
X74743Y-40373D01*
X74762Y-40354D01*
X74777Y-40331D01*
X74788Y-40306D01*
X74793Y-40279D01*
X74793Y-40252D01*
X74793Y-39623D01*
X74788Y-39596D01*
X74777Y-39571D01*
X74762Y-39548D01*
X74743Y-39529D01*
X74720Y-39514D01*
X74695Y-39503D01*
X74668Y-39498D01*
X74641Y-39498D01*
X73932Y-39498D01*
X73905Y-39503D01*
X73880Y-39514D01*
X73857Y-39529D01*
X73838Y-39548D01*
X73823Y-39571D01*
X73812Y-39596D01*
X73807Y-39623D01*
X73807Y-39650D01*
X73807Y-39686D01*
X73504Y-39686D01*
X73502Y-39686D01*
X73500Y-39686D01*
X73193Y-39686D01*
X73193Y-39623D01*
X73188Y-39596D01*
X73177Y-39571D01*
X73162Y-39548D01*
X73143Y-39529D01*
X73120Y-39514D01*
X73095Y-39503D01*
X73068Y-39498D01*
X73041Y-39498D01*
X72332Y-39498D01*
X72305Y-39503D01*
X72280Y-39514D01*
X72257Y-39529D01*
X72238Y-39548D01*
X72223Y-39571D01*
X72212Y-39596D01*
X72207Y-39623D01*
X72207Y-39650D01*
X72207Y-40279D01*
X72212Y-40306D01*
X72223Y-40331D01*
X72238Y-40354D01*
X72257Y-40373D01*
X72280Y-40388D01*
X72305Y-40399D01*
X72332Y-40404D01*
X72359Y-40404D01*
X73068Y-40404D01*
X73095Y-40399D01*
X73120Y-40388D01*
X73143Y-40373D01*
X73162Y-40354D01*
X73177Y-40331D01*
X73188Y-40306D01*
X73193Y-40279D01*
X73193Y-40252D01*
X73193Y-40216D01*
X73235Y-40216D01*
X73235Y-40814D01*
X73104Y-40775D01*
X72952Y-40760D01*
X69650Y-40760D01*
X64249Y-40760D01*
X64113Y-40771D01*
X63980Y-40807D01*
X63855Y-40866D01*
X63742Y-40945D01*
X63645Y-41042D01*
X63566Y-41155D01*
X63508Y-41280D01*
X63472Y-41413D01*
X63461Y-41549D01*
X63463Y-44450D01*
X63479Y-44602D01*
X63524Y-44750D01*
X63597Y-44886D01*
X63695Y-45006D01*
X63815Y-45104D01*
X63951Y-45177D01*
X64099Y-45222D01*
X64251Y-45237D01*
X71300Y-45240D01*
X72952Y-45240D01*
X73104Y-45225D01*
X73235Y-45185D01*
X73235Y-47639D01*
X73218Y-47647D01*
X73195Y-47662D01*
X73176Y-47681D01*
X73161Y-47704D01*
X73150Y-47729D01*
X73145Y-47756D01*
X73145Y-47783D01*
X73145Y-48176D01*
X73150Y-48203D01*
X73161Y-48228D01*
X73176Y-48251D01*
X73195Y-48270D01*
X73218Y-48285D01*
X73243Y-48296D01*
X73270Y-48301D01*
X73297Y-48301D01*
X73730Y-48301D01*
X73740Y-48299D01*
X73757Y-48296D01*
X73782Y-48285D01*
X73805Y-48270D01*
X73824Y-48251D01*
X73839Y-48228D01*
X73850Y-48203D01*
X73855Y-48176D01*
X73855Y-48149D01*
X73855Y-47756D01*
X73850Y-47729D01*
X73839Y-47704D01*
X73824Y-47681D01*
X73805Y-47662D01*
X73782Y-47647D01*
X73765Y-47639D01*
X73765Y-45093D01*
X74070Y-45040D01*
X74455Y-44890D01*
X74804Y-44669D01*
X75104Y-44384D01*
X75342Y-44046D01*
X75510Y-43668D01*
X75540Y-43535D01*
X75601Y-43265D01*
X75608Y-42793D01*
X75608Y-52460D01*
X75540Y-52460D01*
X73740Y-52460D01*
X71300Y-52460D01*
X65508Y-52460D01*
X65508Y-47693D01*
X65428Y-47287D01*
X65270Y-46905D01*
X65041Y-46561D01*
X64750Y-46268D01*
X64407Y-46037D01*
X64026Y-45876D01*
X63621Y-45793D01*
X63208Y-45791D01*
X62802Y-45868D01*
X62418Y-46023D01*
X62103Y-46229D01*
X61565Y-45690D01*
X61565Y-40800D01*
X61562Y-40771D01*
X61561Y-40751D01*
X61560Y-40749D01*
X61546Y-40701D01*
X61545Y-40699D01*
X61522Y-40655D01*
X61521Y-40653D01*
X61501Y-40629D01*
X61490Y-40615D01*
X61488Y-40613D01*
X61487Y-40612D01*
X57789Y-36915D01*
X57787Y-36913D01*
X57777Y-36904D01*
X57750Y-36881D01*
X57748Y-36880D01*
X57704Y-36856D01*
X57703Y-36855D01*
X57702Y-36855D01*
X57655Y-36841D01*
X57652Y-36840D01*
X57619Y-36836D01*
X57604Y-36835D01*
X57601Y-36835D01*
X57600Y-36835D01*
X56004Y-36835D01*
X56000Y-36835D01*
X54809Y-36835D01*
X54389Y-36415D01*
X54387Y-36413D01*
X54377Y-36404D01*
X54350Y-36381D01*
X54348Y-36380D01*
X54304Y-36356D01*
X54303Y-36355D01*
X54302Y-36355D01*
X54255Y-36341D01*
X54252Y-36340D01*
X54219Y-36336D01*
X54204Y-36335D01*
X54201Y-36335D01*
X54200Y-36335D01*
X48314Y-36335D01*
X48314Y-35869D01*
X48302Y-35809D01*
X48278Y-35752D01*
X48265Y-35732D01*
X48265Y-35304D01*
X48265Y-35300D01*
X48265Y-34700D01*
X48262Y-34670D01*
X48261Y-34651D01*
X48260Y-34649D01*
X48246Y-34601D01*
X48245Y-34599D01*
X48222Y-34555D01*
X48221Y-34553D01*
X48201Y-34529D01*
X48190Y-34515D01*
X48188Y-34513D01*
X48187Y-34512D01*
X48089Y-34415D01*
X48087Y-34413D01*
X48077Y-34404D01*
X48050Y-34381D01*
X48048Y-34380D01*
X48004Y-34356D01*
X48003Y-34355D01*
X48002Y-34355D01*
X47955Y-34341D01*
X47952Y-34340D01*
X47919Y-34336D01*
X47904Y-34335D01*
X47901Y-34335D01*
X47900Y-34335D01*
X47409Y-34335D01*
X46665Y-33590D01*
X46665Y-31800D01*
X46660Y-31751D01*
X46660Y-31749D01*
X46645Y-31700D01*
X46645Y-31699D01*
X46621Y-31653D01*
X46595Y-31622D01*
X46590Y-31615D01*
X46588Y-31613D01*
X46587Y-31612D01*
X46506Y-31532D01*
X46502Y-31509D01*
X46478Y-31452D01*
X46444Y-31400D01*
X46401Y-31357D01*
X46350Y-31322D01*
X46293Y-31299D01*
X46233Y-31286D01*
X46171Y-31286D01*
X46111Y-31297D01*
X46054Y-31320D01*
X46002Y-31354D01*
X45958Y-31397D01*
X45923Y-31448D01*
X45899Y-31505D01*
X45886Y-31565D01*
X45886Y-31627D01*
X45897Y-31687D01*
X45919Y-31744D01*
X45953Y-31796D01*
X45996Y-31840D01*
X46046Y-31876D01*
X46103Y-31900D01*
X46131Y-31906D01*
X46135Y-31909D01*
X46135Y-33700D01*
X46137Y-33729D01*
X46139Y-33749D01*
X46154Y-33799D01*
X46154Y-33800D01*
X46155Y-33801D01*
X46179Y-33847D01*
X46203Y-33877D01*
X46210Y-33885D01*
X46212Y-33887D01*
X46213Y-33887D01*
X46217Y-33891D01*
X47111Y-34785D01*
X47112Y-34787D01*
X47127Y-34799D01*
X47150Y-34819D01*
X47196Y-34844D01*
X47198Y-34844D01*
X47228Y-34853D01*
X47245Y-34859D01*
X47247Y-34860D01*
X47282Y-34863D01*
X47296Y-34865D01*
X47299Y-34865D01*
X47300Y-34865D01*
X47735Y-34865D01*
X47735Y-35296D01*
X47735Y-35300D01*
X47735Y-35730D01*
X47723Y-35748D01*
X47699Y-35805D01*
X47686Y-35865D01*
X47686Y-35927D01*
X47697Y-35987D01*
X47719Y-36044D01*
X47753Y-36096D01*
X47796Y-36140D01*
X47846Y-36176D01*
X47903Y-36200D01*
X47963Y-36213D01*
X48024Y-36215D01*
X48085Y-36204D01*
X48142Y-36182D01*
X48194Y-36149D01*
X48239Y-36106D01*
X48274Y-36056D01*
X48299Y-35999D01*
X48313Y-35939D01*
X48314Y-35869D01*
X48314Y-36335D01*
X47800Y-36335D01*
X47770Y-36337D01*
X47751Y-36339D01*
X47701Y-36354D01*
X47699Y-36354D01*
X47699Y-36355D01*
X47653Y-36379D01*
X47622Y-36403D01*
X47615Y-36410D01*
X47613Y-36412D01*
X47612Y-36413D01*
X46613Y-37413D01*
X46604Y-37423D01*
X46581Y-37450D01*
X46556Y-37496D01*
X46555Y-37496D01*
X46555Y-37498D01*
X46540Y-37548D01*
X46536Y-37581D01*
X46535Y-37596D01*
X46535Y-37599D01*
X46535Y-37600D01*
X46535Y-38490D01*
X46390Y-38635D01*
X45868Y-38635D01*
X45850Y-38622D01*
X45793Y-38599D01*
X45733Y-38586D01*
X45671Y-38586D01*
X45611Y-38597D01*
X45554Y-38620D01*
X45531Y-38635D01*
X44509Y-38635D01*
X44214Y-38340D01*
X44214Y-37369D01*
X44202Y-37309D01*
X44178Y-37252D01*
X44144Y-37200D01*
X44114Y-37170D01*
X44114Y-33569D01*
X44102Y-33509D01*
X44078Y-33452D01*
X44065Y-33432D01*
X44065Y-32368D01*
X44074Y-32356D01*
X44099Y-32299D01*
X44113Y-32239D01*
X44114Y-32169D01*
X44102Y-32109D01*
X44078Y-32052D01*
X44044Y-32000D01*
X44001Y-31957D01*
X43950Y-31922D01*
X43893Y-31899D01*
X43833Y-31886D01*
X43771Y-31886D01*
X43711Y-31897D01*
X43654Y-31920D01*
X43602Y-31954D01*
X43558Y-31997D01*
X43523Y-32048D01*
X43499Y-32105D01*
X43486Y-32165D01*
X43486Y-32227D01*
X43497Y-32287D01*
X43519Y-32344D01*
X43535Y-32368D01*
X43535Y-33430D01*
X43523Y-33448D01*
X43499Y-33505D01*
X43486Y-33565D01*
X43486Y-33627D01*
X43497Y-33687D01*
X43519Y-33744D01*
X43553Y-33796D01*
X43596Y-33840D01*
X43646Y-33876D01*
X43703Y-33900D01*
X43763Y-33913D01*
X43824Y-33915D01*
X43885Y-33904D01*
X43942Y-33882D01*
X43994Y-33849D01*
X44039Y-33806D01*
X44074Y-33756D01*
X44099Y-33699D01*
X44113Y-33639D01*
X44114Y-33569D01*
X44114Y-37170D01*
X44101Y-37157D01*
X44050Y-37122D01*
X43993Y-37099D01*
X43967Y-37093D01*
X43889Y-37015D01*
X43887Y-37013D01*
X43877Y-37004D01*
X43850Y-36981D01*
X43848Y-36980D01*
X43804Y-36956D01*
X43803Y-36955D01*
X43802Y-36955D01*
X43755Y-36941D01*
X43752Y-36940D01*
X43719Y-36936D01*
X43704Y-36935D01*
X43701Y-36935D01*
X43700Y-36935D01*
X43346Y-36935D01*
X43346Y-24883D01*
X43255Y-24421D01*
X43075Y-23986D01*
X42815Y-23594D01*
X42483Y-23259D01*
X42093Y-22996D01*
X41659Y-22814D01*
X41198Y-22719D01*
X40727Y-22715D01*
X40264Y-22804D01*
X39828Y-22980D01*
X39434Y-23238D01*
X39097Y-23567D01*
X38831Y-23955D01*
X38646Y-24388D01*
X38548Y-24849D01*
X38541Y-25319D01*
X38626Y-25783D01*
X38799Y-26220D01*
X39054Y-26616D01*
X39381Y-26955D01*
X39768Y-27224D01*
X40199Y-27412D01*
X40659Y-27513D01*
X41130Y-27523D01*
X41593Y-27442D01*
X42032Y-27272D01*
X42430Y-27019D01*
X42771Y-26695D01*
X43042Y-26310D01*
X43234Y-25880D01*
X43338Y-25421D01*
X43346Y-24883D01*
X43346Y-36935D01*
X39443Y-36935D01*
X39430Y-36922D01*
X39372Y-36883D01*
X39307Y-36855D01*
X39238Y-36841D01*
X39168Y-36841D01*
X39098Y-36854D01*
X39033Y-36880D01*
X38974Y-36919D01*
X38924Y-36968D01*
X38884Y-37026D01*
X38856Y-37091D01*
X38842Y-37160D01*
X38841Y-37230D01*
X38853Y-37299D01*
X38879Y-37365D01*
X38917Y-37424D01*
X38966Y-37475D01*
X39024Y-37515D01*
X39088Y-37543D01*
X39157Y-37558D01*
X39227Y-37560D01*
X39297Y-37547D01*
X39362Y-37522D01*
X39422Y-37484D01*
X39442Y-37465D01*
X43590Y-37465D01*
X43593Y-37467D01*
X43597Y-37487D01*
X43619Y-37544D01*
X43653Y-37596D01*
X43696Y-37640D01*
X43746Y-37676D01*
X43803Y-37700D01*
X43863Y-37713D01*
X43924Y-37715D01*
X43985Y-37704D01*
X44042Y-37682D01*
X44094Y-37649D01*
X44139Y-37606D01*
X44174Y-37556D01*
X44199Y-37499D01*
X44213Y-37439D01*
X44214Y-37369D01*
X44214Y-38340D01*
X43889Y-38015D01*
X43887Y-38013D01*
X43877Y-38004D01*
X43850Y-37981D01*
X43848Y-37980D01*
X43804Y-37956D01*
X43803Y-37955D01*
X43802Y-37955D01*
X43755Y-37941D01*
X43752Y-37940D01*
X43719Y-37936D01*
X43704Y-37935D01*
X43701Y-37935D01*
X43700Y-37935D01*
X40443Y-37935D01*
X40430Y-37922D01*
X40372Y-37883D01*
X40307Y-37855D01*
X40238Y-37841D01*
X40168Y-37841D01*
X40098Y-37854D01*
X40033Y-37880D01*
X39974Y-37919D01*
X39924Y-37968D01*
X39884Y-38026D01*
X39856Y-38091D01*
X39842Y-38160D01*
X39841Y-38230D01*
X39853Y-38299D01*
X39879Y-38365D01*
X39917Y-38424D01*
X39966Y-38475D01*
X40024Y-38515D01*
X40088Y-38543D01*
X40157Y-38558D01*
X40227Y-38560D01*
X40297Y-38547D01*
X40362Y-38522D01*
X40422Y-38484D01*
X40442Y-38465D01*
X43590Y-38465D01*
X44211Y-39085D01*
X44212Y-39087D01*
X44227Y-39099D01*
X44250Y-39119D01*
X44296Y-39144D01*
X44298Y-39144D01*
X44328Y-39153D01*
X44345Y-39159D01*
X44347Y-39160D01*
X44365Y-39161D01*
X44396Y-39165D01*
X44400Y-39165D01*
X45530Y-39165D01*
X45546Y-39176D01*
X45603Y-39200D01*
X45663Y-39213D01*
X45724Y-39215D01*
X45785Y-39204D01*
X45842Y-39182D01*
X45868Y-39165D01*
X46500Y-39165D01*
X46529Y-39162D01*
X46549Y-39161D01*
X46551Y-39160D01*
X46599Y-39146D01*
X46600Y-39145D01*
X46601Y-39145D01*
X46644Y-39122D01*
X46647Y-39121D01*
X46677Y-39096D01*
X46685Y-39090D01*
X46685Y-39089D01*
X46687Y-39088D01*
X46687Y-39087D01*
X46691Y-39082D01*
X46985Y-38789D01*
X46987Y-38788D01*
X47006Y-38763D01*
X47019Y-38750D01*
X47020Y-38748D01*
X47044Y-38704D01*
X47044Y-38702D01*
X47053Y-38672D01*
X47059Y-38655D01*
X47060Y-38653D01*
X47063Y-38617D01*
X47065Y-38604D01*
X47065Y-38601D01*
X47065Y-38600D01*
X47065Y-37709D01*
X47909Y-36865D01*
X54091Y-36865D01*
X54511Y-37285D01*
X54513Y-37287D01*
X54523Y-37295D01*
X54550Y-37319D01*
X54552Y-37320D01*
X54596Y-37344D01*
X54598Y-37345D01*
X54645Y-37359D01*
X54648Y-37360D01*
X54681Y-37363D01*
X54696Y-37365D01*
X54699Y-37365D01*
X54700Y-37365D01*
X55996Y-37365D01*
X56000Y-37365D01*
X57490Y-37365D01*
X61035Y-40909D01*
X61035Y-45800D01*
X61037Y-45829D01*
X61039Y-45849D01*
X61054Y-45899D01*
X61054Y-45900D01*
X61055Y-45901D01*
X61079Y-45947D01*
X61103Y-45977D01*
X61110Y-45985D01*
X61112Y-45987D01*
X61113Y-45987D01*
X61117Y-45991D01*
X61731Y-46605D01*
X61544Y-46880D01*
X61381Y-47260D01*
X61295Y-47664D01*
X61289Y-48078D01*
X61297Y-48124D01*
X60162Y-48921D01*
X60023Y-49066D01*
X59916Y-49234D01*
X59843Y-49421D01*
X59807Y-49618D01*
X59811Y-49818D01*
X59853Y-50014D01*
X59933Y-50198D01*
X60046Y-50363D01*
X60190Y-50502D01*
X60358Y-50611D01*
X60544Y-50686D01*
X60741Y-50722D01*
X60941Y-50720D01*
X61137Y-50679D01*
X61321Y-50601D01*
X61487Y-50488D01*
X62473Y-49795D01*
X62746Y-49915D01*
X63150Y-50003D01*
X63563Y-50012D01*
X63970Y-49940D01*
X64355Y-49790D01*
X64704Y-49569D01*
X65004Y-49284D01*
X65242Y-48946D01*
X65410Y-48568D01*
X65501Y-48165D01*
X65508Y-47693D01*
X65508Y-52460D01*
X58502Y-52460D01*
X58502Y-44955D01*
X58407Y-44474D01*
X58220Y-44020D01*
X58207Y-44000D01*
X58207Y-39232D01*
X58183Y-39110D01*
X58136Y-38996D01*
X58067Y-38893D01*
X57980Y-38805D01*
X57877Y-38735D01*
X57763Y-38687D01*
X57641Y-38662D01*
X57517Y-38662D01*
X57396Y-38685D01*
X57281Y-38731D01*
X57177Y-38799D01*
X57089Y-38886D01*
X57019Y-38988D01*
X56970Y-39102D01*
X56944Y-39223D01*
X56942Y-39347D01*
X56965Y-39469D01*
X57010Y-39584D01*
X57077Y-39688D01*
X57163Y-39778D01*
X57265Y-39848D01*
X57379Y-39898D01*
X57500Y-39925D01*
X57624Y-39927D01*
X57746Y-39906D01*
X57861Y-39861D01*
X57966Y-39794D01*
X58056Y-39709D01*
X58127Y-39608D01*
X58178Y-39494D01*
X58205Y-39374D01*
X58207Y-39232D01*
X58207Y-44000D01*
X57948Y-43611D01*
X57603Y-43263D01*
X57196Y-42989D01*
X56744Y-42799D01*
X56632Y-42775D01*
X56632Y-39232D01*
X56608Y-39110D01*
X56561Y-38996D01*
X56492Y-38893D01*
X56405Y-38805D01*
X56302Y-38735D01*
X56188Y-38687D01*
X56066Y-38662D01*
X55942Y-38662D01*
X55821Y-38685D01*
X55781Y-38701D01*
X54395Y-37315D01*
X54393Y-37313D01*
X54383Y-37304D01*
X54356Y-37281D01*
X54354Y-37280D01*
X54310Y-37256D01*
X54309Y-37255D01*
X54308Y-37255D01*
X54261Y-37241D01*
X54258Y-37240D01*
X54225Y-37236D01*
X54210Y-37235D01*
X54207Y-37235D01*
X54206Y-37235D01*
X47968Y-37235D01*
X47950Y-37222D01*
X47893Y-37199D01*
X47833Y-37186D01*
X47771Y-37186D01*
X47711Y-37197D01*
X47654Y-37220D01*
X47602Y-37254D01*
X47558Y-37297D01*
X47523Y-37348D01*
X47499Y-37405D01*
X47486Y-37465D01*
X47486Y-37527D01*
X47497Y-37587D01*
X47519Y-37644D01*
X47553Y-37696D01*
X47596Y-37740D01*
X47646Y-37776D01*
X47703Y-37800D01*
X47763Y-37813D01*
X47824Y-37815D01*
X47885Y-37804D01*
X47942Y-37782D01*
X47968Y-37765D01*
X54097Y-37765D01*
X55406Y-39074D01*
X55395Y-39102D01*
X55369Y-39223D01*
X55367Y-39347D01*
X55390Y-39469D01*
X55435Y-39584D01*
X55502Y-39688D01*
X55588Y-39778D01*
X55690Y-39848D01*
X55804Y-39898D01*
X55925Y-39925D01*
X56049Y-39927D01*
X56171Y-39906D01*
X56286Y-39861D01*
X56391Y-39794D01*
X56481Y-39709D01*
X56552Y-39608D01*
X56603Y-39494D01*
X56630Y-39374D01*
X56632Y-39232D01*
X56632Y-42775D01*
X56263Y-42700D01*
X55772Y-42696D01*
X55291Y-42788D01*
X54836Y-42972D01*
X54425Y-43241D01*
X54074Y-43584D01*
X53797Y-43989D01*
X53604Y-44440D01*
X53502Y-44919D01*
X53495Y-45410D01*
X53583Y-45893D01*
X53764Y-46349D01*
X54030Y-46761D01*
X54370Y-47114D01*
X54773Y-47394D01*
X55223Y-47591D01*
X55702Y-47696D01*
X56193Y-47707D01*
X56676Y-47621D01*
X57133Y-47444D01*
X57547Y-47181D01*
X57903Y-46843D01*
X58186Y-46442D01*
X58385Y-45994D01*
X58494Y-45515D01*
X58502Y-44955D01*
X58502Y-52460D01*
X52339Y-52460D01*
X52339Y-40890D01*
X52296Y-40674D01*
X52212Y-40470D01*
X52090Y-40286D01*
X51935Y-40130D01*
X51752Y-40007D01*
X51549Y-39921D01*
X51333Y-39877D01*
X51113Y-39875D01*
X50896Y-39917D01*
X50692Y-39999D01*
X50507Y-40120D01*
X50350Y-40274D01*
X50225Y-40456D01*
X50139Y-40658D01*
X50093Y-40874D01*
X50090Y-41094D01*
X50129Y-41311D01*
X50210Y-41516D01*
X50330Y-41701D01*
X50483Y-41860D01*
X50664Y-41986D01*
X50866Y-42074D01*
X51081Y-42121D01*
X51301Y-42126D01*
X51519Y-42088D01*
X51724Y-42008D01*
X51910Y-41890D01*
X52070Y-41738D01*
X52197Y-41558D01*
X52287Y-41357D01*
X52335Y-41142D01*
X52339Y-40890D01*
X52339Y-52460D01*
X48738Y-52460D01*
X48738Y-50830D01*
X48738Y-50706D01*
X48715Y-50585D01*
X48669Y-50471D01*
X48601Y-50368D01*
X48515Y-50280D01*
X48413Y-50210D01*
X48300Y-50161D01*
X48179Y-50136D01*
X48056Y-50134D01*
X47653Y-50134D01*
X46833Y-49315D01*
X46831Y-49313D01*
X46821Y-49304D01*
X46794Y-49281D01*
X46792Y-49280D01*
X46748Y-49256D01*
X46747Y-49255D01*
X46746Y-49255D01*
X46699Y-49241D01*
X46696Y-49240D01*
X46663Y-49236D01*
X46648Y-49235D01*
X46645Y-49235D01*
X46644Y-49235D01*
X43564Y-49235D01*
X43564Y-46319D01*
X43552Y-46259D01*
X43528Y-46202D01*
X43494Y-46150D01*
X43451Y-46107D01*
X43400Y-46072D01*
X43343Y-46049D01*
X43283Y-46036D01*
X43221Y-46036D01*
X43161Y-46047D01*
X43104Y-46070D01*
X43052Y-46104D01*
X43008Y-46147D01*
X42973Y-46198D01*
X42949Y-46255D01*
X42943Y-46281D01*
X41994Y-47231D01*
X41709Y-47231D01*
X41709Y-40890D01*
X41666Y-40674D01*
X41582Y-40470D01*
X41460Y-40286D01*
X41305Y-40130D01*
X41122Y-40007D01*
X40919Y-39921D01*
X40703Y-39877D01*
X40483Y-39875D01*
X40266Y-39917D01*
X40062Y-39999D01*
X39877Y-40120D01*
X39720Y-40274D01*
X39595Y-40456D01*
X39509Y-40658D01*
X39463Y-40874D01*
X39460Y-41094D01*
X39499Y-41311D01*
X39580Y-41516D01*
X39700Y-41701D01*
X39853Y-41860D01*
X40034Y-41986D01*
X40236Y-42074D01*
X40451Y-42121D01*
X40671Y-42126D01*
X40889Y-42088D01*
X41094Y-42008D01*
X41280Y-41890D01*
X41440Y-41738D01*
X41567Y-41558D01*
X41657Y-41357D01*
X41705Y-41142D01*
X41709Y-40890D01*
X41709Y-47231D01*
X40700Y-47231D01*
X40693Y-47219D01*
X40632Y-47159D01*
X40562Y-47111D01*
X40483Y-47078D01*
X40399Y-47061D01*
X40314Y-47061D01*
X40230Y-47077D01*
X40151Y-47109D01*
X40080Y-47156D01*
X40019Y-47215D01*
X39971Y-47286D01*
X39937Y-47364D01*
X39920Y-47448D01*
X39918Y-47533D01*
X39934Y-47617D01*
X39965Y-47696D01*
X40012Y-47768D01*
X40071Y-47829D01*
X40141Y-47878D01*
X40219Y-47912D01*
X40303Y-47930D01*
X40388Y-47932D01*
X40472Y-47917D01*
X40551Y-47886D01*
X40623Y-47840D01*
X40685Y-47781D01*
X40699Y-47761D01*
X42104Y-47761D01*
X42133Y-47758D01*
X42153Y-47757D01*
X42155Y-47756D01*
X42203Y-47742D01*
X42204Y-47741D01*
X42205Y-47741D01*
X42248Y-47718D01*
X42251Y-47717D01*
X42281Y-47692D01*
X42289Y-47686D01*
X42289Y-47685D01*
X42291Y-47684D01*
X42291Y-47683D01*
X42295Y-47678D01*
X43317Y-46657D01*
X43335Y-46654D01*
X43392Y-46632D01*
X43444Y-46599D01*
X43489Y-46556D01*
X43524Y-46506D01*
X43549Y-46449D01*
X43563Y-46389D01*
X43564Y-46319D01*
X43564Y-49235D01*
X40959Y-49235D01*
X39365Y-47640D01*
X39365Y-46809D01*
X39413Y-46761D01*
X40007Y-46761D01*
X40012Y-46768D01*
X40071Y-46829D01*
X40141Y-46878D01*
X40219Y-46912D01*
X40303Y-46930D01*
X40388Y-46932D01*
X40472Y-46917D01*
X40551Y-46886D01*
X40623Y-46840D01*
X40685Y-46781D01*
X40734Y-46712D01*
X40769Y-46634D01*
X40788Y-46550D01*
X40789Y-46453D01*
X40789Y-45453D01*
X40772Y-45369D01*
X40740Y-45290D01*
X40693Y-45219D01*
X40632Y-45159D01*
X40562Y-45111D01*
X40483Y-45078D01*
X40399Y-45061D01*
X40314Y-45061D01*
X40230Y-45077D01*
X40151Y-45109D01*
X40080Y-45156D01*
X40019Y-45215D01*
X39971Y-45286D01*
X39937Y-45364D01*
X39920Y-45448D01*
X39918Y-45533D01*
X39934Y-45617D01*
X39965Y-45696D01*
X40012Y-45768D01*
X40071Y-45829D01*
X40141Y-45878D01*
X40219Y-45912D01*
X40303Y-45930D01*
X40388Y-45932D01*
X40472Y-45917D01*
X40551Y-45886D01*
X40623Y-45840D01*
X40685Y-45781D01*
X40734Y-45712D01*
X40769Y-45634D01*
X40788Y-45550D01*
X40789Y-45453D01*
X40789Y-46453D01*
X40772Y-46369D01*
X40740Y-46290D01*
X40693Y-46219D01*
X40632Y-46159D01*
X40562Y-46111D01*
X40483Y-46078D01*
X40399Y-46061D01*
X40314Y-46061D01*
X40230Y-46077D01*
X40151Y-46109D01*
X40080Y-46156D01*
X40019Y-46215D01*
X40008Y-46231D01*
X39304Y-46231D01*
X39275Y-46233D01*
X39255Y-46235D01*
X39205Y-46250D01*
X39203Y-46250D01*
X39203Y-46251D01*
X39157Y-46275D01*
X39133Y-46294D01*
X39119Y-46306D01*
X39117Y-46308D01*
X39116Y-46309D01*
X38913Y-46513D01*
X38904Y-46523D01*
X38881Y-46550D01*
X38856Y-46596D01*
X38855Y-46596D01*
X38855Y-46598D01*
X38840Y-46648D01*
X38836Y-46681D01*
X38835Y-46696D01*
X38835Y-46699D01*
X38835Y-46700D01*
X38835Y-47750D01*
X38837Y-47779D01*
X38839Y-47799D01*
X38854Y-47849D01*
X38854Y-47850D01*
X38855Y-47851D01*
X38879Y-47897D01*
X38903Y-47927D01*
X38910Y-47935D01*
X38912Y-47937D01*
X38913Y-47937D01*
X38917Y-47941D01*
X40661Y-49685D01*
X40662Y-49687D01*
X40677Y-49699D01*
X40700Y-49719D01*
X40746Y-49744D01*
X40748Y-49744D01*
X40778Y-49753D01*
X40795Y-49759D01*
X40797Y-49760D01*
X40832Y-49763D01*
X40846Y-49765D01*
X40849Y-49765D01*
X40850Y-49765D01*
X46534Y-49765D01*
X47184Y-50414D01*
X47151Y-50464D01*
X47103Y-50577D01*
X47078Y-50698D01*
X47078Y-50822D01*
X47101Y-50943D01*
X47147Y-51057D01*
X47215Y-51160D01*
X47301Y-51248D01*
X47403Y-51318D01*
X47516Y-51367D01*
X47637Y-51392D01*
X47760Y-51394D01*
X48171Y-51393D01*
X48292Y-51369D01*
X48406Y-51322D01*
X48509Y-51254D01*
X48596Y-51167D01*
X48665Y-51064D01*
X48713Y-50951D01*
X48738Y-50830D01*
X48738Y-52460D01*
X46965Y-52460D01*
X46965Y-50721D01*
X46948Y-50637D01*
X46916Y-50558D01*
X46869Y-50487D01*
X46808Y-50427D01*
X46738Y-50379D01*
X46659Y-50346D01*
X46575Y-50329D01*
X46490Y-50329D01*
X46406Y-50345D01*
X46327Y-50377D01*
X46256Y-50424D01*
X46195Y-50483D01*
X46147Y-50554D01*
X46113Y-50632D01*
X46096Y-50716D01*
X46094Y-50801D01*
X46110Y-50885D01*
X46141Y-50964D01*
X46188Y-51036D01*
X46247Y-51097D01*
X46317Y-51146D01*
X46395Y-51180D01*
X46479Y-51198D01*
X46564Y-51200D01*
X46648Y-51185D01*
X46727Y-51154D01*
X46799Y-51108D01*
X46861Y-51049D01*
X46910Y-50980D01*
X46945Y-50902D01*
X46964Y-50818D01*
X46965Y-50721D01*
X46965Y-52460D01*
X45705Y-52460D01*
X45705Y-50721D01*
X45688Y-50637D01*
X45656Y-50558D01*
X45609Y-50487D01*
X45548Y-50427D01*
X45478Y-50379D01*
X45399Y-50346D01*
X45315Y-50329D01*
X45230Y-50329D01*
X45146Y-50345D01*
X45067Y-50377D01*
X44996Y-50424D01*
X44935Y-50483D01*
X44887Y-50554D01*
X44853Y-50632D01*
X44836Y-50716D01*
X44834Y-50801D01*
X44850Y-50885D01*
X44881Y-50964D01*
X44928Y-51036D01*
X44987Y-51097D01*
X45057Y-51146D01*
X45135Y-51180D01*
X45219Y-51198D01*
X45304Y-51200D01*
X45388Y-51185D01*
X45467Y-51154D01*
X45539Y-51108D01*
X45601Y-51049D01*
X45650Y-50980D01*
X45685Y-50902D01*
X45704Y-50818D01*
X45705Y-50721D01*
X45705Y-52460D01*
X38352Y-52460D01*
X38212Y-52447D01*
X38078Y-52406D01*
X37955Y-52341D01*
X37848Y-52252D01*
X37759Y-52145D01*
X37694Y-52022D01*
X37653Y-51888D01*
X37640Y-51748D01*
X37640Y-14352D01*
X37653Y-14212D01*
X37694Y-14078D01*
X37759Y-13955D01*
X37848Y-13848D01*
X37955Y-13759D01*
X38078Y-13694D01*
X38212Y-13653D01*
X38352Y-13640D01*
X75848Y-13640D01*
X75988Y-13653D01*
X76122Y-13694D01*
X76245Y-13759D01*
X76352Y-13848D01*
X76441Y-13955D01*
X76506Y-14078D01*
X76547Y-14212D01*
X76560Y-14352D01*
X76560Y-51748D01*
X76560Y-51748D01*
G37*
G54D28*
X76560Y-51748D02*
X76547Y-51888D01*
X76506Y-52022D01*
X76441Y-52145D01*
X76352Y-52252D01*
X76245Y-52341D01*
X76122Y-52406D01*
X75988Y-52447D01*
X75848Y-52460D01*
X75630Y-52460D01*
X75630Y-24883D01*
X75539Y-24421D01*
X75359Y-23986D01*
X75099Y-23594D01*
X74767Y-23259D01*
X74377Y-22996D01*
X73943Y-22814D01*
X73482Y-22719D01*
X73011Y-22715D01*
X72548Y-22804D01*
X72112Y-22980D01*
X71718Y-23238D01*
X71381Y-23567D01*
X71115Y-23955D01*
X70930Y-24388D01*
X70832Y-24849D01*
X70825Y-25319D01*
X70910Y-25783D01*
X71083Y-26220D01*
X71338Y-26616D01*
X71665Y-26955D01*
X72052Y-27224D01*
X72483Y-27412D01*
X72943Y-27513D01*
X73414Y-27523D01*
X73877Y-27442D01*
X74316Y-27272D01*
X74714Y-27019D01*
X75055Y-26695D01*
X75326Y-26310D01*
X75518Y-25880D01*
X75622Y-25421D01*
X75630Y-24883D01*
X75630Y-52460D01*
X75608Y-52460D01*
X75608Y-42793D01*
X75608Y-35793D01*
X75540Y-35447D01*
X75540Y-31306D01*
X75525Y-31155D01*
X75481Y-31008D01*
X75408Y-30872D01*
X75313Y-30754D01*
X67247Y-22594D01*
X67154Y-22513D01*
X67048Y-22447D01*
X66933Y-22399D01*
X66811Y-22369D01*
X66689Y-22360D01*
X58148Y-22360D01*
X57996Y-22375D01*
X57848Y-22420D01*
X57711Y-22493D01*
X57592Y-22592D01*
X57493Y-22711D01*
X57420Y-22848D01*
X57375Y-22996D01*
X57360Y-23148D01*
X57360Y-23648D01*
X57347Y-23788D01*
X57306Y-23922D01*
X57241Y-24045D01*
X57152Y-24152D01*
X57045Y-24241D01*
X56922Y-24306D01*
X56788Y-24347D01*
X56648Y-24360D01*
X50848Y-24360D01*
X50696Y-24375D01*
X50548Y-24420D01*
X50411Y-24493D01*
X50292Y-24592D01*
X50193Y-24711D01*
X50120Y-24848D01*
X50075Y-24996D01*
X50060Y-25148D01*
X50060Y-26698D01*
X50055Y-26751D01*
X50040Y-26800D01*
X50016Y-26845D01*
X49984Y-26884D01*
X49945Y-26916D01*
X49900Y-26940D01*
X49851Y-26955D01*
X49733Y-26967D01*
X49670Y-26986D01*
X49611Y-27018D01*
X49560Y-27060D01*
X49518Y-27111D01*
X49486Y-27170D01*
X49467Y-27233D01*
X49460Y-27298D01*
X49460Y-27852D01*
X49475Y-28004D01*
X49520Y-28152D01*
X49593Y-28289D01*
X49692Y-28408D01*
X49811Y-28507D01*
X49948Y-28580D01*
X50096Y-28625D01*
X50248Y-28640D01*
X50448Y-28640D01*
X50588Y-28653D01*
X50722Y-28694D01*
X50845Y-28759D01*
X50952Y-28848D01*
X51041Y-28955D01*
X51106Y-29078D01*
X51147Y-29212D01*
X51160Y-29352D01*
X51160Y-34452D01*
X51175Y-34604D01*
X51220Y-34752D01*
X51293Y-34889D01*
X51392Y-35008D01*
X51511Y-35107D01*
X51648Y-35180D01*
X51796Y-35225D01*
X51948Y-35240D01*
X68148Y-35240D01*
X68288Y-35253D01*
X68422Y-35294D01*
X68545Y-35359D01*
X68652Y-35448D01*
X68741Y-35555D01*
X68806Y-35678D01*
X68847Y-35812D01*
X68860Y-35952D01*
X68860Y-36752D01*
X68875Y-36904D01*
X68920Y-37052D01*
X68993Y-37189D01*
X69092Y-37308D01*
X69211Y-37407D01*
X69348Y-37480D01*
X69496Y-37525D01*
X69648Y-37540D01*
X72056Y-37540D01*
X72127Y-37613D01*
X72467Y-37849D01*
X72846Y-38015D01*
X73235Y-38099D01*
X73235Y-38584D01*
X73193Y-38584D01*
X73193Y-38521D01*
X73188Y-38494D01*
X73177Y-38469D01*
X73162Y-38446D01*
X73143Y-38427D01*
X73120Y-38412D01*
X73095Y-38401D01*
X73068Y-38396D01*
X73041Y-38396D01*
X72332Y-38396D01*
X72305Y-38401D01*
X72280Y-38412D01*
X72257Y-38427D01*
X72238Y-38446D01*
X72223Y-38469D01*
X72212Y-38494D01*
X72207Y-38521D01*
X72207Y-38548D01*
X72207Y-39177D01*
X72212Y-39204D01*
X72223Y-39229D01*
X72238Y-39252D01*
X72257Y-39271D01*
X72280Y-39286D01*
X72305Y-39297D01*
X72332Y-39302D01*
X72359Y-39302D01*
X73068Y-39302D01*
X73095Y-39297D01*
X73120Y-39286D01*
X73143Y-39271D01*
X73162Y-39252D01*
X73177Y-39229D01*
X73188Y-39204D01*
X73193Y-39177D01*
X73193Y-39150D01*
X73193Y-39114D01*
X73496Y-39114D01*
X73498Y-39114D01*
X73500Y-39114D01*
X73807Y-39114D01*
X73807Y-39177D01*
X73812Y-39204D01*
X73823Y-39229D01*
X73838Y-39252D01*
X73857Y-39271D01*
X73880Y-39286D01*
X73905Y-39297D01*
X73932Y-39302D01*
X73959Y-39302D01*
X74668Y-39302D01*
X74695Y-39297D01*
X74720Y-39286D01*
X74743Y-39271D01*
X74762Y-39252D01*
X74777Y-39229D01*
X74788Y-39204D01*
X74793Y-39177D01*
X74793Y-39150D01*
X74793Y-38521D01*
X74788Y-38494D01*
X74777Y-38469D01*
X74762Y-38446D01*
X74743Y-38427D01*
X74720Y-38412D01*
X74695Y-38401D01*
X74668Y-38396D01*
X74641Y-38396D01*
X73932Y-38396D01*
X73905Y-38401D01*
X73880Y-38412D01*
X73857Y-38427D01*
X73838Y-38446D01*
X73823Y-38469D01*
X73812Y-38494D01*
X73807Y-38521D01*
X73807Y-38548D01*
X73807Y-38584D01*
X73765Y-38584D01*
X73765Y-38093D01*
X74070Y-38040D01*
X74455Y-37890D01*
X74804Y-37669D01*
X74979Y-37501D01*
X75052Y-37480D01*
X75189Y-37407D01*
X75308Y-37308D01*
X75407Y-37189D01*
X75480Y-37052D01*
X75525Y-36904D01*
X75540Y-36752D01*
X75540Y-36535D01*
X75601Y-36265D01*
X75608Y-35793D01*
X75608Y-42793D01*
X75540Y-42447D01*
X75528Y-42387D01*
X75370Y-42005D01*
X75141Y-41661D01*
X74850Y-41368D01*
X74507Y-41137D01*
X74126Y-40976D01*
X73765Y-40902D01*
X73765Y-40216D01*
X73807Y-40216D01*
X73807Y-40279D01*
X73812Y-40306D01*
X73823Y-40331D01*
X73838Y-40354D01*
X73857Y-40373D01*
X73880Y-40388D01*
X73905Y-40399D01*
X73932Y-40404D01*
X73959Y-40404D01*
X74668Y-40404D01*
X74695Y-40399D01*
X74720Y-40388D01*
X74743Y-40373D01*
X74762Y-40354D01*
X74777Y-40331D01*
X74788Y-40306D01*
X74793Y-40279D01*
X74793Y-40252D01*
X74793Y-39623D01*
X74788Y-39596D01*
X74777Y-39571D01*
X74762Y-39548D01*
X74743Y-39529D01*
X74720Y-39514D01*
X74695Y-39503D01*
X74668Y-39498D01*
X74641Y-39498D01*
X73932Y-39498D01*
X73905Y-39503D01*
X73880Y-39514D01*
X73857Y-39529D01*
X73838Y-39548D01*
X73823Y-39571D01*
X73812Y-39596D01*
X73807Y-39623D01*
X73807Y-39650D01*
X73807Y-39686D01*
X73504Y-39686D01*
X73502Y-39686D01*
X73500Y-39686D01*
X73193Y-39686D01*
X73193Y-39623D01*
X73188Y-39596D01*
X73177Y-39571D01*
X73162Y-39548D01*
X73143Y-39529D01*
X73120Y-39514D01*
X73095Y-39503D01*
X73068Y-39498D01*
X73041Y-39498D01*
X72332Y-39498D01*
X72305Y-39503D01*
X72280Y-39514D01*
X72257Y-39529D01*
X72238Y-39548D01*
X72223Y-39571D01*
X72212Y-39596D01*
X72207Y-39623D01*
X72207Y-39650D01*
X72207Y-40279D01*
X72212Y-40306D01*
X72223Y-40331D01*
X72238Y-40354D01*
X72257Y-40373D01*
X72280Y-40388D01*
X72305Y-40399D01*
X72332Y-40404D01*
X72359Y-40404D01*
X73068Y-40404D01*
X73095Y-40399D01*
X73120Y-40388D01*
X73143Y-40373D01*
X73162Y-40354D01*
X73177Y-40331D01*
X73188Y-40306D01*
X73193Y-40279D01*
X73193Y-40252D01*
X73193Y-40216D01*
X73235Y-40216D01*
X73235Y-40814D01*
X73104Y-40775D01*
X72952Y-40760D01*
X69650Y-40760D01*
X64249Y-40760D01*
X64113Y-40771D01*
X63980Y-40807D01*
X63855Y-40866D01*
X63742Y-40945D01*
X63645Y-41042D01*
X63566Y-41155D01*
X63508Y-41280D01*
X63472Y-41413D01*
X63461Y-41549D01*
X63463Y-44450D01*
X63479Y-44602D01*
X63524Y-44750D01*
X63597Y-44886D01*
X63695Y-45006D01*
X63815Y-45104D01*
X63951Y-45177D01*
X64099Y-45222D01*
X64251Y-45237D01*
X71300Y-45240D01*
X72952Y-45240D01*
X73104Y-45225D01*
X73235Y-45185D01*
X73235Y-47639D01*
X73218Y-47647D01*
X73195Y-47662D01*
X73176Y-47681D01*
X73161Y-47704D01*
X73150Y-47729D01*
X73145Y-47756D01*
X73145Y-47783D01*
X73145Y-48176D01*
X73150Y-48203D01*
X73161Y-48228D01*
X73176Y-48251D01*
X73195Y-48270D01*
X73218Y-48285D01*
X73243Y-48296D01*
X73270Y-48301D01*
X73297Y-48301D01*
X73730Y-48301D01*
X73740Y-48299D01*
X73757Y-48296D01*
X73782Y-48285D01*
X73805Y-48270D01*
X73824Y-48251D01*
X73839Y-48228D01*
X73850Y-48203D01*
X73855Y-48176D01*
X73855Y-48149D01*
X73855Y-47756D01*
X73850Y-47729D01*
X73839Y-47704D01*
X73824Y-47681D01*
X73805Y-47662D01*
X73782Y-47647D01*
X73765Y-47639D01*
X73765Y-45093D01*
X74070Y-45040D01*
X74455Y-44890D01*
X74804Y-44669D01*
X75104Y-44384D01*
X75342Y-44046D01*
X75510Y-43668D01*
X75540Y-43535D01*
X75601Y-43265D01*
X75608Y-42793D01*
X75608Y-52460D01*
X75540Y-52460D01*
X73740Y-52460D01*
X71300Y-52460D01*
X65508Y-52460D01*
X65508Y-47693D01*
X65428Y-47287D01*
X65270Y-46905D01*
X65041Y-46561D01*
X64750Y-46268D01*
X64407Y-46037D01*
X64026Y-45876D01*
X63621Y-45793D01*
X63208Y-45791D01*
X62802Y-45868D01*
X62418Y-46023D01*
X62103Y-46229D01*
X61565Y-45690D01*
X61565Y-40800D01*
X61562Y-40771D01*
X61561Y-40751D01*
X61560Y-40749D01*
X61546Y-40701D01*
X61545Y-40699D01*
X61522Y-40655D01*
X61521Y-40653D01*
X61501Y-40629D01*
X61490Y-40615D01*
X61488Y-40613D01*
X61487Y-40612D01*
X57789Y-36915D01*
X57787Y-36913D01*
X57777Y-36904D01*
X57750Y-36881D01*
X57748Y-36880D01*
X57704Y-36856D01*
X57703Y-36855D01*
X57702Y-36855D01*
X57655Y-36841D01*
X57652Y-36840D01*
X57619Y-36836D01*
X57604Y-36835D01*
X57601Y-36835D01*
X57600Y-36835D01*
X56004Y-36835D01*
X56000Y-36835D01*
X54809Y-36835D01*
X54389Y-36415D01*
X54387Y-36413D01*
X54377Y-36404D01*
X54350Y-36381D01*
X54348Y-36380D01*
X54304Y-36356D01*
X54303Y-36355D01*
X54302Y-36355D01*
X54255Y-36341D01*
X54252Y-36340D01*
X54219Y-36336D01*
X54204Y-36335D01*
X54201Y-36335D01*
X54200Y-36335D01*
X48314Y-36335D01*
X48314Y-35869D01*
X48302Y-35809D01*
X48278Y-35752D01*
X48265Y-35732D01*
X48265Y-35304D01*
X48265Y-35300D01*
X48265Y-34700D01*
X48262Y-34670D01*
X48261Y-34651D01*
X48260Y-34649D01*
X48246Y-34601D01*
X48245Y-34599D01*
X48222Y-34555D01*
X48221Y-34553D01*
X48201Y-34529D01*
X48190Y-34515D01*
X48188Y-34513D01*
X48187Y-34512D01*
X48089Y-34415D01*
X48087Y-34413D01*
X48077Y-34404D01*
X48050Y-34381D01*
X48048Y-34380D01*
X48004Y-34356D01*
X48003Y-34355D01*
X48002Y-34355D01*
X47955Y-34341D01*
X47952Y-34340D01*
X47919Y-34336D01*
X47904Y-34335D01*
X47901Y-34335D01*
X47900Y-34335D01*
X47409Y-34335D01*
X46665Y-33590D01*
X46665Y-31800D01*
X46660Y-31751D01*
X46660Y-31749D01*
X46645Y-31700D01*
X46645Y-31699D01*
X46621Y-31653D01*
X46595Y-31622D01*
X46590Y-31615D01*
X46588Y-31613D01*
X46587Y-31612D01*
X46506Y-31532D01*
X46502Y-31509D01*
X46478Y-31452D01*
X46444Y-31400D01*
X46401Y-31357D01*
X46350Y-31322D01*
X46293Y-31299D01*
X46233Y-31286D01*
X46171Y-31286D01*
X46111Y-31297D01*
X46054Y-31320D01*
X46002Y-31354D01*
X45958Y-31397D01*
X45923Y-31448D01*
X45899Y-31505D01*
X45886Y-31565D01*
X45886Y-31627D01*
X45897Y-31687D01*
X45919Y-31744D01*
X45953Y-31796D01*
X45996Y-31840D01*
X46046Y-31876D01*
X46103Y-31900D01*
X46131Y-31906D01*
X46135Y-31909D01*
X46135Y-33700D01*
X46137Y-33729D01*
X46139Y-33749D01*
X46154Y-33799D01*
X46154Y-33800D01*
X46155Y-33801D01*
X46179Y-33847D01*
X46203Y-33877D01*
X46210Y-33885D01*
X46212Y-33887D01*
X46213Y-33887D01*
X46217Y-33891D01*
X47111Y-34785D01*
X47112Y-34787D01*
X47127Y-34799D01*
X47150Y-34819D01*
X47196Y-34844D01*
X47198Y-34844D01*
X47228Y-34853D01*
X47245Y-34859D01*
X47247Y-34860D01*
X47282Y-34863D01*
X47296Y-34865D01*
X47299Y-34865D01*
X47300Y-34865D01*
X47735Y-34865D01*
X47735Y-35296D01*
X47735Y-35300D01*
X47735Y-35730D01*
X47723Y-35748D01*
X47699Y-35805D01*
X47686Y-35865D01*
X47686Y-35927D01*
X47697Y-35987D01*
X47719Y-36044D01*
X47753Y-36096D01*
X47796Y-36140D01*
X47846Y-36176D01*
X47903Y-36200D01*
X47963Y-36213D01*
X48024Y-36215D01*
X48085Y-36204D01*
X48142Y-36182D01*
X48194Y-36149D01*
X48239Y-36106D01*
X48274Y-36056D01*
X48299Y-35999D01*
X48313Y-35939D01*
X48314Y-35869D01*
X48314Y-36335D01*
X47800Y-36335D01*
X47770Y-36337D01*
X47751Y-36339D01*
X47701Y-36354D01*
X47699Y-36354D01*
X47699Y-36355D01*
X47653Y-36379D01*
X47622Y-36403D01*
X47615Y-36410D01*
X47613Y-36412D01*
X47612Y-36413D01*
X46613Y-37413D01*
X46604Y-37423D01*
X46581Y-37450D01*
X46556Y-37496D01*
X46555Y-37496D01*
X46555Y-37498D01*
X46540Y-37548D01*
X46536Y-37581D01*
X46535Y-37596D01*
X46535Y-37599D01*
X46535Y-37600D01*
X46535Y-38490D01*
X46390Y-38635D01*
X45868Y-38635D01*
X45850Y-38622D01*
X45793Y-38599D01*
X45733Y-38586D01*
X45671Y-38586D01*
X45611Y-38597D01*
X45554Y-38620D01*
X45531Y-38635D01*
X44509Y-38635D01*
X44214Y-38340D01*
X44214Y-37369D01*
X44202Y-37309D01*
X44178Y-37252D01*
X44144Y-37200D01*
X44114Y-37170D01*
X44114Y-33569D01*
X44102Y-33509D01*
X44078Y-33452D01*
X44065Y-33432D01*
X44065Y-32368D01*
X44074Y-32356D01*
X44099Y-32299D01*
X44113Y-32239D01*
X44114Y-32169D01*
X44102Y-32109D01*
X44078Y-32052D01*
X44044Y-32000D01*
X44001Y-31957D01*
X43950Y-31922D01*
X43893Y-31899D01*
X43833Y-31886D01*
X43771Y-31886D01*
X43711Y-31897D01*
X43654Y-31920D01*
X43602Y-31954D01*
X43558Y-31997D01*
X43523Y-32048D01*
X43499Y-32105D01*
X43486Y-32165D01*
X43486Y-32227D01*
X43497Y-32287D01*
X43519Y-32344D01*
X43535Y-32368D01*
X43535Y-33430D01*
X43523Y-33448D01*
X43499Y-33505D01*
X43486Y-33565D01*
X43486Y-33627D01*
X43497Y-33687D01*
X43519Y-33744D01*
X43553Y-33796D01*
X43596Y-33840D01*
X43646Y-33876D01*
X43703Y-33900D01*
X43763Y-33913D01*
X43824Y-33915D01*
X43885Y-33904D01*
X43942Y-33882D01*
X43994Y-33849D01*
X44039Y-33806D01*
X44074Y-33756D01*
X44099Y-33699D01*
X44113Y-33639D01*
X44114Y-33569D01*
X44114Y-37170D01*
X44101Y-37157D01*
X44050Y-37122D01*
X43993Y-37099D01*
X43967Y-37093D01*
X43889Y-37015D01*
X43887Y-37013D01*
X43877Y-37004D01*
X43850Y-36981D01*
X43848Y-36980D01*
X43804Y-36956D01*
X43803Y-36955D01*
X43802Y-36955D01*
X43755Y-36941D01*
X43752Y-36940D01*
X43719Y-36936D01*
X43704Y-36935D01*
X43701Y-36935D01*
X43700Y-36935D01*
X43346Y-36935D01*
X43346Y-24883D01*
X43255Y-24421D01*
X43075Y-23986D01*
X42815Y-23594D01*
X42483Y-23259D01*
X42093Y-22996D01*
X41659Y-22814D01*
X41198Y-22719D01*
X40727Y-22715D01*
X40264Y-22804D01*
X39828Y-22980D01*
X39434Y-23238D01*
X39097Y-23567D01*
X38831Y-23955D01*
X38646Y-24388D01*
X38548Y-24849D01*
X38541Y-25319D01*
X38626Y-25783D01*
X38799Y-26220D01*
X39054Y-26616D01*
X39381Y-26955D01*
X39768Y-27224D01*
X40199Y-27412D01*
X40659Y-27513D01*
X41130Y-27523D01*
X41593Y-27442D01*
X42032Y-27272D01*
X42430Y-27019D01*
X42771Y-26695D01*
X43042Y-26310D01*
X43234Y-25880D01*
X43338Y-25421D01*
X43346Y-24883D01*
X43346Y-36935D01*
X39443Y-36935D01*
X39430Y-36922D01*
X39372Y-36883D01*
X39307Y-36855D01*
X39238Y-36841D01*
X39168Y-36841D01*
X39098Y-36854D01*
X39033Y-36880D01*
X38974Y-36919D01*
X38924Y-36968D01*
X38884Y-37026D01*
X38856Y-37091D01*
X38842Y-37160D01*
X38841Y-37230D01*
X38853Y-37299D01*
X38879Y-37365D01*
X38917Y-37424D01*
X38966Y-37475D01*
X39024Y-37515D01*
X39088Y-37543D01*
X39157Y-37558D01*
X39227Y-37560D01*
X39297Y-37547D01*
X39362Y-37522D01*
X39422Y-37484D01*
X39442Y-37465D01*
X43590Y-37465D01*
X43593Y-37467D01*
X43597Y-37487D01*
X43619Y-37544D01*
X43653Y-37596D01*
X43696Y-37640D01*
X43746Y-37676D01*
X43803Y-37700D01*
X43863Y-37713D01*
X43924Y-37715D01*
X43985Y-37704D01*
X44042Y-37682D01*
X44094Y-37649D01*
X44139Y-37606D01*
X44174Y-37556D01*
X44199Y-37499D01*
X44213Y-37439D01*
X44214Y-37369D01*
X44214Y-38340D01*
X43889Y-38015D01*
X43887Y-38013D01*
X43877Y-38004D01*
X43850Y-37981D01*
X43848Y-37980D01*
X43804Y-37956D01*
X43803Y-37955D01*
X43802Y-37955D01*
X43755Y-37941D01*
X43752Y-37940D01*
X43719Y-37936D01*
X43704Y-37935D01*
X43701Y-37935D01*
X43700Y-37935D01*
X40443Y-37935D01*
X40430Y-37922D01*
X40372Y-37883D01*
X40307Y-37855D01*
X40238Y-37841D01*
X40168Y-37841D01*
X40098Y-37854D01*
X40033Y-37880D01*
X39974Y-37919D01*
X39924Y-37968D01*
X39884Y-38026D01*
X39856Y-38091D01*
X39842Y-38160D01*
X39841Y-38230D01*
X39853Y-38299D01*
X39879Y-38365D01*
X39917Y-38424D01*
X39966Y-38475D01*
X40024Y-38515D01*
X40088Y-38543D01*
X40157Y-38558D01*
X40227Y-38560D01*
X40297Y-38547D01*
X40362Y-38522D01*
X40422Y-38484D01*
X40442Y-38465D01*
X43590Y-38465D01*
X44211Y-39085D01*
X44212Y-39087D01*
X44227Y-39099D01*
X44250Y-39119D01*
X44296Y-39144D01*
X44298Y-39144D01*
X44328Y-39153D01*
X44345Y-39159D01*
X44347Y-39160D01*
X44365Y-39161D01*
X44396Y-39165D01*
X44400Y-39165D01*
X45530Y-39165D01*
X45546Y-39176D01*
X45603Y-39200D01*
X45663Y-39213D01*
X45724Y-39215D01*
X45785Y-39204D01*
X45842Y-39182D01*
X45868Y-39165D01*
X46500Y-39165D01*
X46529Y-39162D01*
X46549Y-39161D01*
X46551Y-39160D01*
X46599Y-39146D01*
X46600Y-39145D01*
X46601Y-39145D01*
X46644Y-39122D01*
X46647Y-39121D01*
X46677Y-39096D01*
X46685Y-39090D01*
X46685Y-39089D01*
X46687Y-39088D01*
X46687Y-39087D01*
X46691Y-39082D01*
X46985Y-38789D01*
X46987Y-38788D01*
X47006Y-38763D01*
X47019Y-38750D01*
X47020Y-38748D01*
X47044Y-38704D01*
X47044Y-38702D01*
X47053Y-38672D01*
X47059Y-38655D01*
X47060Y-38653D01*
X47063Y-38617D01*
X47065Y-38604D01*
X47065Y-38601D01*
X47065Y-38600D01*
X47065Y-37709D01*
X47909Y-36865D01*
X54091Y-36865D01*
X54511Y-37285D01*
X54513Y-37287D01*
X54523Y-37295D01*
X54550Y-37319D01*
X54552Y-37320D01*
X54596Y-37344D01*
X54598Y-37345D01*
X54645Y-37359D01*
X54648Y-37360D01*
X54681Y-37363D01*
X54696Y-37365D01*
X54699Y-37365D01*
X54700Y-37365D01*
X55996Y-37365D01*
X56000Y-37365D01*
X57490Y-37365D01*
X61035Y-40909D01*
X61035Y-45800D01*
X61037Y-45829D01*
X61039Y-45849D01*
X61054Y-45899D01*
X61054Y-45900D01*
X61055Y-45901D01*
X61079Y-45947D01*
X61103Y-45977D01*
X61110Y-45985D01*
X61112Y-45987D01*
X61113Y-45987D01*
X61117Y-45991D01*
X61731Y-46605D01*
X61544Y-46880D01*
X61381Y-47260D01*
X61295Y-47664D01*
X61289Y-48078D01*
X61297Y-48124D01*
X60162Y-48921D01*
X60023Y-49066D01*
X59916Y-49234D01*
X59843Y-49421D01*
X59807Y-49618D01*
X59811Y-49818D01*
X59853Y-50014D01*
X59933Y-50198D01*
X60046Y-50363D01*
X60190Y-50502D01*
X60358Y-50611D01*
X60544Y-50686D01*
X60741Y-50722D01*
X60941Y-50720D01*
X61137Y-50679D01*
X61321Y-50601D01*
X61487Y-50488D01*
X62473Y-49795D01*
X62746Y-49915D01*
X63150Y-50003D01*
X63563Y-50012D01*
X63970Y-49940D01*
X64355Y-49790D01*
X64704Y-49569D01*
X65004Y-49284D01*
X65242Y-48946D01*
X65410Y-48568D01*
X65501Y-48165D01*
X65508Y-47693D01*
X65508Y-52460D01*
X58502Y-52460D01*
X58502Y-44955D01*
X58407Y-44474D01*
X58220Y-44020D01*
X58207Y-44000D01*
X58207Y-39232D01*
X58183Y-39110D01*
X58136Y-38996D01*
X58067Y-38893D01*
X57980Y-38805D01*
X57877Y-38735D01*
X57763Y-38687D01*
X57641Y-38662D01*
X57517Y-38662D01*
X57396Y-38685D01*
X57281Y-38731D01*
X57177Y-38799D01*
X57089Y-38886D01*
X57019Y-38988D01*
X56970Y-39102D01*
X56944Y-39223D01*
X56942Y-39347D01*
X56965Y-39469D01*
X57010Y-39584D01*
X57077Y-39688D01*
X57163Y-39778D01*
X57265Y-39848D01*
X57379Y-39898D01*
X57500Y-39925D01*
X57624Y-39927D01*
X57746Y-39906D01*
X57861Y-39861D01*
X57966Y-39794D01*
X58056Y-39709D01*
X58127Y-39608D01*
X58178Y-39494D01*
X58205Y-39374D01*
X58207Y-39232D01*
X58207Y-44000D01*
X57948Y-43611D01*
X57603Y-43263D01*
X57196Y-42989D01*
X56744Y-42799D01*
X56632Y-42775D01*
X56632Y-39232D01*
X56608Y-39110D01*
X56561Y-38996D01*
X56492Y-38893D01*
X56405Y-38805D01*
X56302Y-38735D01*
X56188Y-38687D01*
X56066Y-38662D01*
X55942Y-38662D01*
X55821Y-38685D01*
X55781Y-38701D01*
X54395Y-37315D01*
X54393Y-37313D01*
X54383Y-37304D01*
X54356Y-37281D01*
X54354Y-37280D01*
X54310Y-37256D01*
X54309Y-37255D01*
X54308Y-37255D01*
X54261Y-37241D01*
X54258Y-37240D01*
X54225Y-37236D01*
X54210Y-37235D01*
X54207Y-37235D01*
X54206Y-37235D01*
X47968Y-37235D01*
X47950Y-37222D01*
X47893Y-37199D01*
X47833Y-37186D01*
X47771Y-37186D01*
X47711Y-37197D01*
X47654Y-37220D01*
X47602Y-37254D01*
X47558Y-37297D01*
X47523Y-37348D01*
X47499Y-37405D01*
X47486Y-37465D01*
X47486Y-37527D01*
X47497Y-37587D01*
X47519Y-37644D01*
X47553Y-37696D01*
X47596Y-37740D01*
X47646Y-37776D01*
X47703Y-37800D01*
X47763Y-37813D01*
X47824Y-37815D01*
X47885Y-37804D01*
X47942Y-37782D01*
X47968Y-37765D01*
X54097Y-37765D01*
X55406Y-39074D01*
X55395Y-39102D01*
X55369Y-39223D01*
X55367Y-39347D01*
X55390Y-39469D01*
X55435Y-39584D01*
X55502Y-39688D01*
X55588Y-39778D01*
X55690Y-39848D01*
X55804Y-39898D01*
X55925Y-39925D01*
X56049Y-39927D01*
X56171Y-39906D01*
X56286Y-39861D01*
X56391Y-39794D01*
X56481Y-39709D01*
X56552Y-39608D01*
X56603Y-39494D01*
X56630Y-39374D01*
X56632Y-39232D01*
X56632Y-42775D01*
X56263Y-42700D01*
X55772Y-42696D01*
X55291Y-42788D01*
X54836Y-42972D01*
X54425Y-43241D01*
X54074Y-43584D01*
X53797Y-43989D01*
X53604Y-44440D01*
X53502Y-44919D01*
X53495Y-45410D01*
X53583Y-45893D01*
X53764Y-46349D01*
X54030Y-46761D01*
X54370Y-47114D01*
X54773Y-47394D01*
X55223Y-47591D01*
X55702Y-47696D01*
X56193Y-47707D01*
X56676Y-47621D01*
X57133Y-47444D01*
X57547Y-47181D01*
X57903Y-46843D01*
X58186Y-46442D01*
X58385Y-45994D01*
X58494Y-45515D01*
X58502Y-44955D01*
X58502Y-52460D01*
X52339Y-52460D01*
X52339Y-40890D01*
X52296Y-40674D01*
X52212Y-40470D01*
X52090Y-40286D01*
X51935Y-40130D01*
X51752Y-40007D01*
X51549Y-39921D01*
X51333Y-39877D01*
X51113Y-39875D01*
X50896Y-39917D01*
X50692Y-39999D01*
X50507Y-40120D01*
X50350Y-40274D01*
X50225Y-40456D01*
X50139Y-40658D01*
X50093Y-40874D01*
X50090Y-41094D01*
X50129Y-41311D01*
X50210Y-41516D01*
X50330Y-41701D01*
X50483Y-41860D01*
X50664Y-41986D01*
X50866Y-42074D01*
X51081Y-42121D01*
X51301Y-42126D01*
X51519Y-42088D01*
X51724Y-42008D01*
X51910Y-41890D01*
X52070Y-41738D01*
X52197Y-41558D01*
X52287Y-41357D01*
X52335Y-41142D01*
X52339Y-40890D01*
X52339Y-52460D01*
X48738Y-52460D01*
X48738Y-50830D01*
X48738Y-50706D01*
X48715Y-50585D01*
X48669Y-50471D01*
X48601Y-50368D01*
X48515Y-50280D01*
X48413Y-50210D01*
X48300Y-50161D01*
X48179Y-50136D01*
X48056Y-50134D01*
X47653Y-50134D01*
X46833Y-49315D01*
X46831Y-49313D01*
X46821Y-49304D01*
X46794Y-49281D01*
X46792Y-49280D01*
X46748Y-49256D01*
X46747Y-49255D01*
X46746Y-49255D01*
X46699Y-49241D01*
X46696Y-49240D01*
X46663Y-49236D01*
X46648Y-49235D01*
X46645Y-49235D01*
X46644Y-49235D01*
X43564Y-49235D01*
X43564Y-46319D01*
X43552Y-46259D01*
X43528Y-46202D01*
X43494Y-46150D01*
X43451Y-46107D01*
X43400Y-46072D01*
X43343Y-46049D01*
X43283Y-46036D01*
X43221Y-46036D01*
X43161Y-46047D01*
X43104Y-46070D01*
X43052Y-46104D01*
X43008Y-46147D01*
X42973Y-46198D01*
X42949Y-46255D01*
X42943Y-46281D01*
X41994Y-47231D01*
X41709Y-47231D01*
X41709Y-40890D01*
X41666Y-40674D01*
X41582Y-40470D01*
X41460Y-40286D01*
X41305Y-40130D01*
X41122Y-40007D01*
X40919Y-39921D01*
X40703Y-39877D01*
X40483Y-39875D01*
X40266Y-39917D01*
X40062Y-39999D01*
X39877Y-40120D01*
X39720Y-40274D01*
X39595Y-40456D01*
X39509Y-40658D01*
X39463Y-40874D01*
X39460Y-41094D01*
X39499Y-41311D01*
X39580Y-41516D01*
X39700Y-41701D01*
X39853Y-41860D01*
X40034Y-41986D01*
X40236Y-42074D01*
X40451Y-42121D01*
X40671Y-42126D01*
X40889Y-42088D01*
X41094Y-42008D01*
X41280Y-41890D01*
X41440Y-41738D01*
X41567Y-41558D01*
X41657Y-41357D01*
X41705Y-41142D01*
X41709Y-40890D01*
X41709Y-47231D01*
X40700Y-47231D01*
X40693Y-47219D01*
X40632Y-47159D01*
X40562Y-47111D01*
X40483Y-47078D01*
X40399Y-47061D01*
X40314Y-47061D01*
X40230Y-47077D01*
X40151Y-47109D01*
X40080Y-47156D01*
X40019Y-47215D01*
X39971Y-47286D01*
X39937Y-47364D01*
X39920Y-47448D01*
X39918Y-47533D01*
X39934Y-47617D01*
X39965Y-47696D01*
X40012Y-47768D01*
X40071Y-47829D01*
X40141Y-47878D01*
X40219Y-47912D01*
X40303Y-47930D01*
X40388Y-47932D01*
X40472Y-47917D01*
X40551Y-47886D01*
X40623Y-47840D01*
X40685Y-47781D01*
X40699Y-47761D01*
X42104Y-47761D01*
X42133Y-47758D01*
X42153Y-47757D01*
X42155Y-47756D01*
X42203Y-47742D01*
X42204Y-47741D01*
X42205Y-47741D01*
X42248Y-47718D01*
X42251Y-47717D01*
X42281Y-47692D01*
X42289Y-47686D01*
X42289Y-47685D01*
X42291Y-47684D01*
X42291Y-47683D01*
X42295Y-47678D01*
X43317Y-46657D01*
X43335Y-46654D01*
X43392Y-46632D01*
X43444Y-46599D01*
X43489Y-46556D01*
X43524Y-46506D01*
X43549Y-46449D01*
X43563Y-46389D01*
X43564Y-46319D01*
X43564Y-49235D01*
X40959Y-49235D01*
X39365Y-47640D01*
X39365Y-46809D01*
X39413Y-46761D01*
X40007Y-46761D01*
X40012Y-46768D01*
X40071Y-46829D01*
X40141Y-46878D01*
X40219Y-46912D01*
X40303Y-46930D01*
X40388Y-46932D01*
X40472Y-46917D01*
X40551Y-46886D01*
X40623Y-46840D01*
X40685Y-46781D01*
X40734Y-46712D01*
X40769Y-46634D01*
X40788Y-46550D01*
X40789Y-46453D01*
X40789Y-45453D01*
X40772Y-45369D01*
X40740Y-45290D01*
X40693Y-45219D01*
X40632Y-45159D01*
X40562Y-45111D01*
X40483Y-45078D01*
X40399Y-45061D01*
X40314Y-45061D01*
X40230Y-45077D01*
X40151Y-45109D01*
X40080Y-45156D01*
X40019Y-45215D01*
X39971Y-45286D01*
X39937Y-45364D01*
X39920Y-45448D01*
X39918Y-45533D01*
X39934Y-45617D01*
X39965Y-45696D01*
X40012Y-45768D01*
X40071Y-45829D01*
X40141Y-45878D01*
X40219Y-45912D01*
X40303Y-45930D01*
X40388Y-45932D01*
X40472Y-45917D01*
X40551Y-45886D01*
X40623Y-45840D01*
X40685Y-45781D01*
X40734Y-45712D01*
X40769Y-45634D01*
X40788Y-45550D01*
X40789Y-45453D01*
X40789Y-46453D01*
X40772Y-46369D01*
X40740Y-46290D01*
X40693Y-46219D01*
X40632Y-46159D01*
X40562Y-46111D01*
X40483Y-46078D01*
X40399Y-46061D01*
X40314Y-46061D01*
X40230Y-46077D01*
X40151Y-46109D01*
X40080Y-46156D01*
X40019Y-46215D01*
X40008Y-46231D01*
X39304Y-46231D01*
X39275Y-46233D01*
X39255Y-46235D01*
X39205Y-46250D01*
X39203Y-46250D01*
X39203Y-46251D01*
X39157Y-46275D01*
X39133Y-46294D01*
X39119Y-46306D01*
X39117Y-46308D01*
X39116Y-46309D01*
X38913Y-46513D01*
X38904Y-46523D01*
X38881Y-46550D01*
X38856Y-46596D01*
X38855Y-46596D01*
X38855Y-46598D01*
X38840Y-46648D01*
X38836Y-46681D01*
X38835Y-46696D01*
X38835Y-46699D01*
X38835Y-46700D01*
X38835Y-47750D01*
X38837Y-47779D01*
X38839Y-47799D01*
X38854Y-47849D01*
X38854Y-47850D01*
X38855Y-47851D01*
X38879Y-47897D01*
X38903Y-47927D01*
X38910Y-47935D01*
X38912Y-47937D01*
X38913Y-47937D01*
X38917Y-47941D01*
X40661Y-49685D01*
X40662Y-49687D01*
X40677Y-49699D01*
X40700Y-49719D01*
X40746Y-49744D01*
X40748Y-49744D01*
X40778Y-49753D01*
X40795Y-49759D01*
X40797Y-49760D01*
X40832Y-49763D01*
X40846Y-49765D01*
X40849Y-49765D01*
X40850Y-49765D01*
X46534Y-49765D01*
X47184Y-50414D01*
X47151Y-50464D01*
X47103Y-50577D01*
X47078Y-50698D01*
X47078Y-50822D01*
X47101Y-50943D01*
X47147Y-51057D01*
X47215Y-51160D01*
X47301Y-51248D01*
X47403Y-51318D01*
X47516Y-51367D01*
X47637Y-51392D01*
X47760Y-51394D01*
X48171Y-51393D01*
X48292Y-51369D01*
X48406Y-51322D01*
X48509Y-51254D01*
X48596Y-51167D01*
X48665Y-51064D01*
X48713Y-50951D01*
X48738Y-50830D01*
X48738Y-52460D01*
X46965Y-52460D01*
X46965Y-50721D01*
X46948Y-50637D01*
X46916Y-50558D01*
X46869Y-50487D01*
X46808Y-50427D01*
X46738Y-50379D01*
X46659Y-50346D01*
X46575Y-50329D01*
X46490Y-50329D01*
X46406Y-50345D01*
X46327Y-50377D01*
X46256Y-50424D01*
X46195Y-50483D01*
X46147Y-50554D01*
X46113Y-50632D01*
X46096Y-50716D01*
X46094Y-50801D01*
X46110Y-50885D01*
X46141Y-50964D01*
X46188Y-51036D01*
X46247Y-51097D01*
X46317Y-51146D01*
X46395Y-51180D01*
X46479Y-51198D01*
X46564Y-51200D01*
X46648Y-51185D01*
X46727Y-51154D01*
X46799Y-51108D01*
X46861Y-51049D01*
X46910Y-50980D01*
X46945Y-50902D01*
X46964Y-50818D01*
X46965Y-50721D01*
X46965Y-52460D01*
X45705Y-52460D01*
X45705Y-50721D01*
X45688Y-50637D01*
X45656Y-50558D01*
X45609Y-50487D01*
X45548Y-50427D01*
X45478Y-50379D01*
X45399Y-50346D01*
X45315Y-50329D01*
X45230Y-50329D01*
X45146Y-50345D01*
X45067Y-50377D01*
X44996Y-50424D01*
X44935Y-50483D01*
X44887Y-50554D01*
X44853Y-50632D01*
X44836Y-50716D01*
X44834Y-50801D01*
X44850Y-50885D01*
X44881Y-50964D01*
X44928Y-51036D01*
X44987Y-51097D01*
X45057Y-51146D01*
X45135Y-51180D01*
X45219Y-51198D01*
X45304Y-51200D01*
X45388Y-51185D01*
X45467Y-51154D01*
X45539Y-51108D01*
X45601Y-51049D01*
X45650Y-50980D01*
X45685Y-50902D01*
X45704Y-50818D01*
X45705Y-50721D01*
X45705Y-52460D01*
X38352Y-52460D01*
X38212Y-52447D01*
X38078Y-52406D01*
X37955Y-52341D01*
X37848Y-52252D01*
X37759Y-52145D01*
X37694Y-52022D01*
X37653Y-51888D01*
X37640Y-51748D01*
X37640Y-14352D01*
X37653Y-14212D01*
X37694Y-14078D01*
X37759Y-13955D01*
X37848Y-13848D01*
X37955Y-13759D01*
X38078Y-13694D01*
X38212Y-13653D01*
X38352Y-13640D01*
X75848Y-13640D01*
X75988Y-13653D01*
X76122Y-13694D01*
X76245Y-13759D01*
X76352Y-13848D01*
X76441Y-13955D01*
X76506Y-14078D01*
X76547Y-14212D01*
X76560Y-14352D01*
X76560Y-51748D01*
G54D10*
G36*
X63360Y-30048D02*
X63347Y-30188D01*
X63306Y-30322D01*
X63241Y-30445D01*
X63152Y-30552D01*
X63045Y-30641D01*
X62922Y-30706D01*
X62788Y-30747D01*
X62648Y-30760D01*
X56352Y-30760D01*
X56212Y-30747D01*
X56078Y-30706D01*
X55955Y-30641D01*
X55848Y-30552D01*
X55759Y-30445D01*
X55694Y-30322D01*
X55653Y-30188D01*
X55640Y-30048D01*
X55640Y-27548D01*
X55625Y-27396D01*
X55580Y-27248D01*
X55507Y-27111D01*
X55408Y-26992D01*
X55289Y-26893D01*
X55152Y-26820D01*
X55004Y-26775D01*
X54852Y-26760D01*
X51052Y-26760D01*
X50912Y-26747D01*
X50778Y-26706D01*
X50655Y-26641D01*
X50548Y-26552D01*
X50459Y-26445D01*
X50394Y-26322D01*
X50353Y-26188D01*
X50340Y-26048D01*
X50340Y-25352D01*
X50353Y-25212D01*
X50394Y-25078D01*
X50459Y-24955D01*
X50548Y-24848D01*
X50655Y-24759D01*
X50778Y-24694D01*
X50912Y-24653D01*
X51052Y-24640D01*
X56648Y-24640D01*
X56788Y-24653D01*
X56922Y-24694D01*
X57045Y-24759D01*
X57152Y-24848D01*
X57241Y-24955D01*
X57306Y-25078D01*
X57347Y-25212D01*
X57360Y-25352D01*
X57360Y-26448D01*
X57352Y-26530D01*
X57329Y-26607D01*
X57291Y-26678D01*
X57240Y-26740D01*
X57178Y-26791D01*
X57107Y-26829D01*
X57030Y-26852D01*
X56854Y-26870D01*
X56763Y-26897D01*
X56678Y-26943D01*
X56604Y-27004D01*
X56543Y-27078D01*
X56497Y-27163D01*
X56470Y-27254D01*
X56460Y-27348D01*
X56460Y-27852D01*
X56475Y-28004D01*
X56520Y-28152D01*
X56593Y-28289D01*
X56692Y-28408D01*
X56811Y-28507D01*
X56948Y-28580D01*
X57096Y-28625D01*
X57248Y-28640D01*
X61852Y-28640D01*
X62004Y-28625D01*
X62152Y-28580D01*
X62289Y-28507D01*
X62408Y-28408D01*
X62507Y-28289D01*
X62580Y-28152D01*
X62625Y-28004D01*
X62640Y-27852D01*
X62640Y-27502D01*
X62647Y-27430D01*
X62667Y-27362D01*
X62700Y-27300D01*
X62745Y-27245D01*
X62800Y-27200D01*
X62862Y-27167D01*
X62930Y-27147D01*
X63000Y-27140D01*
X63070Y-27147D01*
X63138Y-27167D01*
X63200Y-27200D01*
X63255Y-27245D01*
X63300Y-27300D01*
X63333Y-27362D01*
X63353Y-27430D01*
X63360Y-27502D01*
X63360Y-30048D01*
X63360Y-30048D01*
G37*
G54D28*
X63360Y-30048D02*
X63347Y-30188D01*
X63306Y-30322D01*
X63241Y-30445D01*
X63152Y-30552D01*
X63045Y-30641D01*
X62922Y-30706D01*
X62788Y-30747D01*
X62648Y-30760D01*
X56352Y-30760D01*
X56212Y-30747D01*
X56078Y-30706D01*
X55955Y-30641D01*
X55848Y-30552D01*
X55759Y-30445D01*
X55694Y-30322D01*
X55653Y-30188D01*
X55640Y-30048D01*
X55640Y-27548D01*
X55625Y-27396D01*
X55580Y-27248D01*
X55507Y-27111D01*
X55408Y-26992D01*
X55289Y-26893D01*
X55152Y-26820D01*
X55004Y-26775D01*
X54852Y-26760D01*
X51052Y-26760D01*
X50912Y-26747D01*
X50778Y-26706D01*
X50655Y-26641D01*
X50548Y-26552D01*
X50459Y-26445D01*
X50394Y-26322D01*
X50353Y-26188D01*
X50340Y-26048D01*
X50340Y-25352D01*
X50353Y-25212D01*
X50394Y-25078D01*
X50459Y-24955D01*
X50548Y-24848D01*
X50655Y-24759D01*
X50778Y-24694D01*
X50912Y-24653D01*
X51052Y-24640D01*
X56648Y-24640D01*
X56788Y-24653D01*
X56922Y-24694D01*
X57045Y-24759D01*
X57152Y-24848D01*
X57241Y-24955D01*
X57306Y-25078D01*
X57347Y-25212D01*
X57360Y-25352D01*
X57360Y-26448D01*
X57352Y-26530D01*
X57329Y-26607D01*
X57291Y-26678D01*
X57240Y-26740D01*
X57178Y-26791D01*
X57107Y-26829D01*
X57030Y-26852D01*
X56854Y-26870D01*
X56763Y-26897D01*
X56678Y-26943D01*
X56604Y-27004D01*
X56543Y-27078D01*
X56497Y-27163D01*
X56470Y-27254D01*
X56460Y-27348D01*
X56460Y-27852D01*
X56475Y-28004D01*
X56520Y-28152D01*
X56593Y-28289D01*
X56692Y-28408D01*
X56811Y-28507D01*
X56948Y-28580D01*
X57096Y-28625D01*
X57248Y-28640D01*
X61852Y-28640D01*
X62004Y-28625D01*
X62152Y-28580D01*
X62289Y-28507D01*
X62408Y-28408D01*
X62507Y-28289D01*
X62580Y-28152D01*
X62625Y-28004D01*
X62640Y-27852D01*
X62640Y-27502D01*
X62647Y-27430D01*
X62667Y-27362D01*
X62700Y-27300D01*
X62745Y-27245D01*
X62800Y-27200D01*
X62862Y-27167D01*
X62930Y-27147D01*
X63000Y-27140D01*
X63070Y-27147D01*
X63138Y-27167D01*
X63200Y-27200D01*
X63255Y-27245D01*
X63300Y-27300D01*
X63333Y-27362D01*
X63353Y-27430D01*
X63360Y-27502D01*
X63360Y-30048D01*
G54D10*
G36*
X68860Y-34248D02*
X68847Y-34388D01*
X68806Y-34522D01*
X68741Y-34645D01*
X68652Y-34752D01*
X68545Y-34841D01*
X68422Y-34906D01*
X68288Y-34947D01*
X68148Y-34960D01*
X52152Y-34960D01*
X52012Y-34947D01*
X51878Y-34906D01*
X51755Y-34841D01*
X51648Y-34752D01*
X51559Y-34645D01*
X51494Y-34522D01*
X51453Y-34388D01*
X51440Y-34248D01*
X51440Y-29352D01*
X51453Y-29212D01*
X51494Y-29078D01*
X51559Y-28955D01*
X51648Y-28848D01*
X51755Y-28759D01*
X51878Y-28694D01*
X52012Y-28653D01*
X52152Y-28640D01*
X54648Y-28640D01*
X54788Y-28653D01*
X54922Y-28694D01*
X55045Y-28759D01*
X55152Y-28848D01*
X55241Y-28955D01*
X55306Y-29078D01*
X55347Y-29212D01*
X55360Y-29352D01*
X55360Y-30252D01*
X55375Y-30404D01*
X55420Y-30552D01*
X55493Y-30689D01*
X55592Y-30808D01*
X55711Y-30907D01*
X55848Y-30980D01*
X55996Y-31025D01*
X56148Y-31040D01*
X62852Y-31040D01*
X63004Y-31025D01*
X63152Y-30980D01*
X63289Y-30907D01*
X63408Y-30808D01*
X63507Y-30689D01*
X63580Y-30552D01*
X63625Y-30404D01*
X63640Y-30252D01*
X63640Y-27252D01*
X63653Y-27112D01*
X63694Y-26978D01*
X63759Y-26855D01*
X63848Y-26748D01*
X63955Y-26659D01*
X64078Y-26594D01*
X64212Y-26553D01*
X64352Y-26540D01*
X65394Y-26540D01*
X65532Y-26553D01*
X65663Y-26592D01*
X65784Y-26655D01*
X65891Y-26741D01*
X68643Y-29407D01*
X68719Y-29493D01*
X68779Y-29590D01*
X68824Y-29694D01*
X68850Y-29804D01*
X68860Y-29920D01*
X68860Y-34248D01*
X68860Y-34248D01*
G37*
G54D28*
X68860Y-34248D02*
X68847Y-34388D01*
X68806Y-34522D01*
X68741Y-34645D01*
X68652Y-34752D01*
X68545Y-34841D01*
X68422Y-34906D01*
X68288Y-34947D01*
X68148Y-34960D01*
X52152Y-34960D01*
X52012Y-34947D01*
X51878Y-34906D01*
X51755Y-34841D01*
X51648Y-34752D01*
X51559Y-34645D01*
X51494Y-34522D01*
X51453Y-34388D01*
X51440Y-34248D01*
X51440Y-29352D01*
X51453Y-29212D01*
X51494Y-29078D01*
X51559Y-28955D01*
X51648Y-28848D01*
X51755Y-28759D01*
X51878Y-28694D01*
X52012Y-28653D01*
X52152Y-28640D01*
X54648Y-28640D01*
X54788Y-28653D01*
X54922Y-28694D01*
X55045Y-28759D01*
X55152Y-28848D01*
X55241Y-28955D01*
X55306Y-29078D01*
X55347Y-29212D01*
X55360Y-29352D01*
X55360Y-30252D01*
X55375Y-30404D01*
X55420Y-30552D01*
X55493Y-30689D01*
X55592Y-30808D01*
X55711Y-30907D01*
X55848Y-30980D01*
X55996Y-31025D01*
X56148Y-31040D01*
X62852Y-31040D01*
X63004Y-31025D01*
X63152Y-30980D01*
X63289Y-30907D01*
X63408Y-30808D01*
X63507Y-30689D01*
X63580Y-30552D01*
X63625Y-30404D01*
X63640Y-30252D01*
X63640Y-27252D01*
X63653Y-27112D01*
X63694Y-26978D01*
X63759Y-26855D01*
X63848Y-26748D01*
X63955Y-26659D01*
X64078Y-26594D01*
X64212Y-26553D01*
X64352Y-26540D01*
X65394Y-26540D01*
X65532Y-26553D01*
X65663Y-26592D01*
X65784Y-26655D01*
X65891Y-26741D01*
X68643Y-29407D01*
X68719Y-29493D01*
X68779Y-29590D01*
X68824Y-29694D01*
X68850Y-29804D01*
X68860Y-29920D01*
X68860Y-34248D01*
G54D10*
G36*
X75260Y-36548D02*
X75247Y-36688D01*
X75206Y-36822D01*
X75141Y-36945D01*
X75052Y-37052D01*
X74945Y-37141D01*
X74822Y-37206D01*
X74688Y-37247D01*
X74548Y-37260D01*
X69852Y-37260D01*
X69712Y-37247D01*
X69578Y-37206D01*
X69455Y-37141D01*
X69348Y-37052D01*
X69259Y-36945D01*
X69194Y-36822D01*
X69153Y-36688D01*
X69140Y-36548D01*
X69140Y-29822D01*
X69130Y-29695D01*
X69098Y-29571D01*
X69047Y-29452D01*
X68978Y-29345D01*
X68893Y-29250D01*
X65943Y-26474D01*
X65827Y-26383D01*
X65694Y-26316D01*
X65551Y-26274D01*
X65405Y-26260D01*
X63698Y-26260D01*
X63633Y-26267D01*
X63570Y-26286D01*
X63511Y-26318D01*
X63460Y-26360D01*
X63418Y-26411D01*
X63386Y-26470D01*
X63367Y-26533D01*
X63355Y-26651D01*
X63340Y-26700D01*
X63316Y-26745D01*
X63284Y-26784D01*
X63245Y-26816D01*
X63200Y-26840D01*
X63151Y-26855D01*
X63098Y-26860D01*
X58352Y-26860D01*
X58212Y-26847D01*
X58078Y-26806D01*
X57955Y-26741D01*
X57848Y-26652D01*
X57759Y-26545D01*
X57694Y-26422D01*
X57653Y-26288D01*
X57640Y-26148D01*
X57640Y-23352D01*
X57653Y-23212D01*
X57694Y-23078D01*
X57759Y-22955D01*
X57848Y-22848D01*
X57955Y-22759D01*
X58078Y-22694D01*
X58212Y-22653D01*
X58352Y-22640D01*
X66682Y-22640D01*
X66797Y-22650D01*
X66907Y-22676D01*
X67011Y-22720D01*
X67107Y-22779D01*
X67193Y-22855D01*
X75057Y-30908D01*
X75143Y-31016D01*
X75208Y-31138D01*
X75247Y-31269D01*
X75260Y-31407D01*
X75260Y-36548D01*
X75260Y-36548D01*
G37*
G54D28*
X75260Y-36548D02*
X75247Y-36688D01*
X75206Y-36822D01*
X75141Y-36945D01*
X75052Y-37052D01*
X74945Y-37141D01*
X74822Y-37206D01*
X74688Y-37247D01*
X74548Y-37260D01*
X69852Y-37260D01*
X69712Y-37247D01*
X69578Y-37206D01*
X69455Y-37141D01*
X69348Y-37052D01*
X69259Y-36945D01*
X69194Y-36822D01*
X69153Y-36688D01*
X69140Y-36548D01*
X69140Y-29822D01*
X69130Y-29695D01*
X69098Y-29571D01*
X69047Y-29452D01*
X68978Y-29345D01*
X68893Y-29250D01*
X65943Y-26474D01*
X65827Y-26383D01*
X65694Y-26316D01*
X65551Y-26274D01*
X65405Y-26260D01*
X63698Y-26260D01*
X63633Y-26267D01*
X63570Y-26286D01*
X63511Y-26318D01*
X63460Y-26360D01*
X63418Y-26411D01*
X63386Y-26470D01*
X63367Y-26533D01*
X63355Y-26651D01*
X63340Y-26700D01*
X63316Y-26745D01*
X63284Y-26784D01*
X63245Y-26816D01*
X63200Y-26840D01*
X63151Y-26855D01*
X63098Y-26860D01*
X58352Y-26860D01*
X58212Y-26847D01*
X58078Y-26806D01*
X57955Y-26741D01*
X57848Y-26652D01*
X57759Y-26545D01*
X57694Y-26422D01*
X57653Y-26288D01*
X57640Y-26148D01*
X57640Y-23352D01*
X57653Y-23212D01*
X57694Y-23078D01*
X57759Y-22955D01*
X57848Y-22848D01*
X57955Y-22759D01*
X58078Y-22694D01*
X58212Y-22653D01*
X58352Y-22640D01*
X66682Y-22640D01*
X66797Y-22650D01*
X66907Y-22676D01*
X67011Y-22720D01*
X67107Y-22779D01*
X67193Y-22855D01*
X75057Y-30908D01*
X75143Y-31016D01*
X75208Y-31138D01*
X75247Y-31269D01*
X75260Y-31407D01*
X75260Y-36548D01*
M02*
