G04 (created by PCBNEW-RS274X (2012-jan-04)-stable) date Tue 05 Jun 2012 06:27:14 AM CEST*
G01*
G70*
G90*
%MOIN*%
G04 Gerber Fmt 3.4, Leading zero omitted, Abs format*
%FSLAX34Y34*%
G04 APERTURE LIST*
%ADD10C,0.006000*%
%ADD11C,0.070000*%
%ADD12R,0.070000X0.070000*%
%ADD13C,0.160000*%
%ADD14R,0.027600X0.039400*%
%ADD15C,0.060000*%
%ADD16C,0.295300*%
%ADD17R,0.051100X0.059000*%
%ADD18R,0.059000X0.051100*%
%ADD19R,0.055000X0.055000*%
%ADD20C,0.055000*%
%ADD21C,0.044000*%
%ADD22C,0.472400*%
%ADD23C,0.098400*%
%ADD24C,0.393700*%
%ADD25C,0.196900*%
%ADD26O,0.137800X0.098400*%
%ADD27C,0.059100*%
G04 APERTURE END LIST*
G54D10*
G54D11*
X63961Y-27559D03*
X64961Y-27559D03*
G54D12*
X65961Y-27559D03*
G54D11*
X48213Y-27559D03*
X49213Y-27559D03*
G54D12*
X50213Y-27559D03*
G54D13*
X39370Y-15354D03*
X74803Y-15354D03*
X39370Y-50787D03*
X74803Y-50787D03*
G54D14*
X72600Y-33300D03*
X72975Y-32300D03*
X72225Y-32300D03*
X74400Y-33300D03*
X74775Y-32300D03*
X74025Y-32300D03*
G54D15*
X67700Y-32100D03*
X67700Y-37100D03*
X66200Y-32100D03*
X66200Y-37100D03*
X64400Y-32100D03*
X64400Y-37100D03*
X62900Y-32100D03*
X62900Y-37100D03*
G54D16*
X72835Y-25118D03*
X41339Y-25118D03*
X57087Y-25118D03*
G54D17*
X70874Y-34300D03*
X70126Y-34300D03*
G54D14*
X70900Y-32300D03*
X70525Y-33300D03*
X71275Y-33300D03*
G54D18*
X73500Y-47926D03*
X73500Y-48674D03*
G54D19*
X39646Y-47496D03*
G54D20*
X39646Y-46496D03*
X39646Y-45496D03*
G54D21*
X57000Y-36700D03*
X56000Y-37700D03*
X55000Y-36700D03*
G54D22*
X56000Y-45200D03*
G54D23*
X56000Y-39294D03*
X54425Y-39294D03*
X57575Y-39294D03*
G54D24*
X73500Y-37500D03*
X73500Y-44500D03*
X68800Y-47900D03*
X63400Y-47900D03*
G54D25*
X50565Y-40950D03*
X39935Y-40950D03*
G54D26*
X47258Y-50714D03*
X43242Y-50714D03*
G54D27*
X45880Y-50714D03*
X44620Y-50714D03*
M02*
