G04 (created by PCBNEW-RS274X (2012-jan-04)-stable) date Wed 06 Jun 2012 12:37:51 PM CEST*
G01*
G70*
G90*
%MOIN*%
G04 Gerber Fmt 3.4, Leading zero omitted, Abs format*
%FSLAX34Y34*%
G04 APERTURE LIST*
%ADD10C,0.006000*%
%ADD11C,0.008000*%
%ADD12C,0.012000*%
%ADD13C,0.005000*%
%ADD14C,0.002600*%
%ADD15C,0.002000*%
%ADD16C,0.472400*%
%ADD17C,0.098400*%
%ADD18C,0.070000*%
%ADD19R,0.070000X0.070000*%
%ADD20C,0.160000*%
%ADD21R,0.027600X0.039400*%
%ADD22C,0.060000*%
%ADD23C,0.295300*%
%ADD24R,0.051100X0.059000*%
%ADD25R,0.059000X0.051100*%
%ADD26C,0.393700*%
%ADD27C,0.196900*%
%ADD28O,0.137800X0.098400*%
%ADD29C,0.059100*%
%ADD30C,0.044000*%
G04 APERTURE END LIST*
G54D10*
G54D11*
X59500Y-16610D02*
X59195Y-16610D01*
X58624Y-16571D02*
X58624Y-16762D01*
X58757Y-16362D02*
X58624Y-16571D01*
X58490Y-16362D01*
X58185Y-16762D02*
X58185Y-16552D01*
X58204Y-16514D01*
X58242Y-16495D01*
X58319Y-16495D01*
X58357Y-16514D01*
X58185Y-16743D02*
X58223Y-16762D01*
X58319Y-16762D01*
X58357Y-16743D01*
X58376Y-16705D01*
X58376Y-16667D01*
X58357Y-16629D01*
X58319Y-16610D01*
X58223Y-16610D01*
X58185Y-16590D01*
X57823Y-16495D02*
X57823Y-16762D01*
X57995Y-16495D02*
X57995Y-16705D01*
X57976Y-16743D01*
X57938Y-16762D01*
X57880Y-16762D01*
X57842Y-16743D01*
X57823Y-16724D01*
X57633Y-16762D02*
X57633Y-16362D01*
X57538Y-16362D01*
X57480Y-16381D01*
X57442Y-16419D01*
X57423Y-16457D01*
X57404Y-16533D01*
X57404Y-16590D01*
X57423Y-16667D01*
X57442Y-16705D01*
X57480Y-16743D01*
X57538Y-16762D01*
X57633Y-16762D01*
X57042Y-16762D02*
X57233Y-16762D01*
X57233Y-16362D01*
X56661Y-16362D02*
X56528Y-16762D01*
X56394Y-16362D01*
X56185Y-16362D02*
X56146Y-16362D01*
X56108Y-16381D01*
X56089Y-16400D01*
X56070Y-16438D01*
X56051Y-16514D01*
X56051Y-16610D01*
X56070Y-16686D01*
X56089Y-16724D01*
X56108Y-16743D01*
X56146Y-16762D01*
X56185Y-16762D01*
X56223Y-16743D01*
X56242Y-16724D01*
X56261Y-16686D01*
X56280Y-16610D01*
X56280Y-16514D01*
X56261Y-16438D01*
X56242Y-16400D01*
X56223Y-16381D01*
X56185Y-16362D01*
X55880Y-16724D02*
X55861Y-16743D01*
X55880Y-16762D01*
X55899Y-16743D01*
X55880Y-16724D01*
X55880Y-16762D01*
X55480Y-16762D02*
X55709Y-16762D01*
X55595Y-16762D02*
X55595Y-16362D01*
X55633Y-16419D01*
X55671Y-16457D01*
X55709Y-16476D01*
X55004Y-16610D02*
X54699Y-16610D01*
X63313Y-17554D02*
X63333Y-17535D01*
X63371Y-17478D01*
X63390Y-17440D01*
X63409Y-17383D01*
X63428Y-17288D01*
X63428Y-17211D01*
X63409Y-17116D01*
X63390Y-17059D01*
X63371Y-17021D01*
X63333Y-16964D01*
X63313Y-16945D01*
X63085Y-17211D02*
X63085Y-17402D01*
X63218Y-17002D02*
X63085Y-17211D01*
X62951Y-17002D01*
X62856Y-17554D02*
X62837Y-17535D01*
X62799Y-17478D01*
X62780Y-17440D01*
X62761Y-17383D01*
X62742Y-17288D01*
X62742Y-17211D01*
X62761Y-17116D01*
X62780Y-17059D01*
X62799Y-17021D01*
X62837Y-16964D01*
X62856Y-16945D01*
X62398Y-17383D02*
X62436Y-17402D01*
X62513Y-17402D01*
X62551Y-17383D01*
X62570Y-17345D01*
X62570Y-17192D01*
X62551Y-17154D01*
X62513Y-17135D01*
X62436Y-17135D01*
X62398Y-17154D01*
X62379Y-17192D01*
X62379Y-17230D01*
X62570Y-17269D01*
X62265Y-17135D02*
X62113Y-17135D01*
X62208Y-17002D02*
X62208Y-17345D01*
X62189Y-17383D01*
X62151Y-17402D01*
X62113Y-17402D01*
X61559Y-17554D02*
X61579Y-17535D01*
X61617Y-17478D01*
X61636Y-17440D01*
X61655Y-17383D01*
X61674Y-17288D01*
X61674Y-17211D01*
X61655Y-17116D01*
X61636Y-17059D01*
X61617Y-17021D01*
X61579Y-16964D01*
X61559Y-16945D01*
X61235Y-17402D02*
X61235Y-17192D01*
X61254Y-17154D01*
X61292Y-17135D01*
X61369Y-17135D01*
X61407Y-17154D01*
X61235Y-17383D02*
X61273Y-17402D01*
X61369Y-17402D01*
X61407Y-17383D01*
X61426Y-17345D01*
X61426Y-17307D01*
X61407Y-17269D01*
X61369Y-17250D01*
X61273Y-17250D01*
X61235Y-17230D01*
X61083Y-17554D02*
X61064Y-17535D01*
X61026Y-17478D01*
X61007Y-17440D01*
X60988Y-17383D01*
X60969Y-17288D01*
X60969Y-17211D01*
X60988Y-17116D01*
X61007Y-17059D01*
X61026Y-17021D01*
X61064Y-16964D01*
X61083Y-16945D01*
X60778Y-17135D02*
X60778Y-17402D01*
X60778Y-17173D02*
X60759Y-17154D01*
X60721Y-17135D01*
X60663Y-17135D01*
X60625Y-17154D01*
X60606Y-17192D01*
X60606Y-17402D01*
X60359Y-17402D02*
X60397Y-17383D01*
X60416Y-17364D01*
X60435Y-17326D01*
X60435Y-17211D01*
X60416Y-17173D01*
X60397Y-17154D01*
X60359Y-17135D01*
X60301Y-17135D01*
X60263Y-17154D01*
X60244Y-17173D01*
X60225Y-17211D01*
X60225Y-17326D01*
X60244Y-17364D01*
X60263Y-17383D01*
X60301Y-17402D01*
X60359Y-17402D01*
X60111Y-17135D02*
X59959Y-17135D01*
X60054Y-17002D02*
X60054Y-17345D01*
X60035Y-17383D01*
X59997Y-17402D01*
X59959Y-17402D01*
X59825Y-17402D02*
X59825Y-17002D01*
X59653Y-17402D02*
X59653Y-17192D01*
X59672Y-17154D01*
X59710Y-17135D01*
X59768Y-17135D01*
X59806Y-17154D01*
X59825Y-17173D01*
X59310Y-17383D02*
X59348Y-17402D01*
X59425Y-17402D01*
X59463Y-17383D01*
X59482Y-17345D01*
X59482Y-17192D01*
X59463Y-17154D01*
X59425Y-17135D01*
X59348Y-17135D01*
X59310Y-17154D01*
X59291Y-17192D01*
X59291Y-17230D01*
X59482Y-17269D01*
X59120Y-17402D02*
X59120Y-17135D01*
X59120Y-17211D02*
X59101Y-17173D01*
X59082Y-17154D01*
X59044Y-17135D01*
X59005Y-17135D01*
X58452Y-17554D02*
X58472Y-17535D01*
X58510Y-17478D01*
X58529Y-17440D01*
X58548Y-17383D01*
X58567Y-17288D01*
X58567Y-17211D01*
X58548Y-17116D01*
X58529Y-17059D01*
X58510Y-17021D01*
X58472Y-16964D01*
X58452Y-16945D01*
X58128Y-17135D02*
X58128Y-17402D01*
X58300Y-17135D02*
X58300Y-17345D01*
X58281Y-17383D01*
X58243Y-17402D01*
X58185Y-17402D01*
X58147Y-17383D01*
X58128Y-17364D01*
X57976Y-17554D02*
X57957Y-17535D01*
X57919Y-17478D01*
X57900Y-17440D01*
X57881Y-17383D01*
X57862Y-17288D01*
X57862Y-17211D01*
X57881Y-17116D01*
X57900Y-17059D01*
X57919Y-17021D01*
X57957Y-16964D01*
X57976Y-16945D01*
X57690Y-17383D02*
X57652Y-17402D01*
X57576Y-17402D01*
X57537Y-17383D01*
X57518Y-17345D01*
X57518Y-17326D01*
X57537Y-17288D01*
X57576Y-17269D01*
X57633Y-17269D01*
X57671Y-17250D01*
X57690Y-17211D01*
X57690Y-17192D01*
X57671Y-17154D01*
X57633Y-17135D01*
X57576Y-17135D01*
X57537Y-17154D01*
X57194Y-17383D02*
X57232Y-17402D01*
X57309Y-17402D01*
X57347Y-17383D01*
X57366Y-17345D01*
X57366Y-17192D01*
X57347Y-17154D01*
X57309Y-17135D01*
X57232Y-17135D01*
X57194Y-17154D01*
X57175Y-17192D01*
X57175Y-17230D01*
X57366Y-17269D01*
X56947Y-17402D02*
X56985Y-17383D01*
X57004Y-17345D01*
X57004Y-17002D01*
X56641Y-17383D02*
X56679Y-17402D01*
X56756Y-17402D01*
X56794Y-17383D01*
X56813Y-17345D01*
X56813Y-17192D01*
X56794Y-17154D01*
X56756Y-17135D01*
X56679Y-17135D01*
X56641Y-17154D01*
X56622Y-17192D01*
X56622Y-17230D01*
X56813Y-17269D01*
X56470Y-17383D02*
X56432Y-17402D01*
X56356Y-17402D01*
X56317Y-17383D01*
X56298Y-17345D01*
X56298Y-17326D01*
X56317Y-17288D01*
X56356Y-17269D01*
X56413Y-17269D01*
X56451Y-17250D01*
X56470Y-17211D01*
X56470Y-17192D01*
X56451Y-17154D01*
X56413Y-17135D01*
X56356Y-17135D01*
X56317Y-17154D01*
X56146Y-17383D02*
X56108Y-17402D01*
X56032Y-17402D01*
X55993Y-17383D01*
X55974Y-17345D01*
X55974Y-17326D01*
X55993Y-17288D01*
X56032Y-17269D01*
X56089Y-17269D01*
X56127Y-17250D01*
X56146Y-17211D01*
X56146Y-17192D01*
X56127Y-17154D01*
X56089Y-17135D01*
X56032Y-17135D01*
X55993Y-17154D01*
X55383Y-17554D02*
X55403Y-17535D01*
X55441Y-17478D01*
X55460Y-17440D01*
X55479Y-17383D01*
X55498Y-17288D01*
X55498Y-17211D01*
X55479Y-17116D01*
X55460Y-17059D01*
X55441Y-17021D01*
X55403Y-16964D01*
X55383Y-16945D01*
X55231Y-17402D02*
X55231Y-17002D01*
X55136Y-17002D01*
X55078Y-17021D01*
X55040Y-17059D01*
X55021Y-17097D01*
X55002Y-17173D01*
X55002Y-17230D01*
X55021Y-17307D01*
X55040Y-17345D01*
X55078Y-17383D01*
X55136Y-17402D01*
X55231Y-17402D01*
X54869Y-17554D02*
X54850Y-17535D01*
X54812Y-17478D01*
X54793Y-17440D01*
X54774Y-17383D01*
X54755Y-17288D01*
X54755Y-17211D01*
X54774Y-17116D01*
X54793Y-17059D01*
X54812Y-17021D01*
X54850Y-16964D01*
X54869Y-16945D01*
X54392Y-17135D02*
X54392Y-17402D01*
X54564Y-17135D02*
X54564Y-17345D01*
X54545Y-17383D01*
X54507Y-17402D01*
X54449Y-17402D01*
X54411Y-17383D01*
X54392Y-17364D01*
X54202Y-17402D02*
X54202Y-17135D01*
X54202Y-17173D02*
X54183Y-17154D01*
X54145Y-17135D01*
X54087Y-17135D01*
X54049Y-17154D01*
X54030Y-17192D01*
X54030Y-17402D01*
X54030Y-17192D02*
X54011Y-17154D01*
X53973Y-17135D01*
X53916Y-17135D01*
X53878Y-17154D01*
X53859Y-17192D01*
X53859Y-17402D01*
X53669Y-17402D02*
X53669Y-17135D01*
X53669Y-17173D02*
X53650Y-17154D01*
X53612Y-17135D01*
X53554Y-17135D01*
X53516Y-17154D01*
X53497Y-17192D01*
X53497Y-17402D01*
X53497Y-17192D02*
X53478Y-17154D01*
X53440Y-17135D01*
X53383Y-17135D01*
X53345Y-17154D01*
X53326Y-17192D01*
X53326Y-17402D01*
X53174Y-17135D02*
X53079Y-17402D01*
X52983Y-17135D02*
X53079Y-17402D01*
X53117Y-17497D01*
X53136Y-17516D01*
X53174Y-17535D01*
X52411Y-17554D02*
X52431Y-17535D01*
X52469Y-17478D01*
X52488Y-17440D01*
X52507Y-17383D01*
X52526Y-17288D01*
X52526Y-17211D01*
X52507Y-17116D01*
X52488Y-17059D01*
X52469Y-17021D01*
X52431Y-16964D01*
X52411Y-16945D01*
X52068Y-17402D02*
X52259Y-17402D01*
X52259Y-17002D01*
X51973Y-17554D02*
X51954Y-17535D01*
X51916Y-17478D01*
X51897Y-17440D01*
X51878Y-17383D01*
X51859Y-17288D01*
X51859Y-17211D01*
X51878Y-17116D01*
X51897Y-17059D01*
X51916Y-17021D01*
X51954Y-16964D01*
X51973Y-16945D01*
X51611Y-17402D02*
X51649Y-17383D01*
X51668Y-17364D01*
X51687Y-17326D01*
X51687Y-17211D01*
X51668Y-17173D01*
X51649Y-17154D01*
X51611Y-17135D01*
X51553Y-17135D01*
X51515Y-17154D01*
X51496Y-17173D01*
X51477Y-17211D01*
X51477Y-17326D01*
X51496Y-17364D01*
X51515Y-17383D01*
X51553Y-17402D01*
X51611Y-17402D01*
X51134Y-17402D02*
X51134Y-17192D01*
X51153Y-17154D01*
X51191Y-17135D01*
X51268Y-17135D01*
X51306Y-17154D01*
X51134Y-17383D02*
X51172Y-17402D01*
X51268Y-17402D01*
X51306Y-17383D01*
X51325Y-17345D01*
X51325Y-17307D01*
X51306Y-17269D01*
X51268Y-17250D01*
X51172Y-17250D01*
X51134Y-17230D01*
X50772Y-17402D02*
X50772Y-17002D01*
X50772Y-17383D02*
X50810Y-17402D01*
X50887Y-17402D01*
X50925Y-17383D01*
X50944Y-17364D01*
X50963Y-17326D01*
X50963Y-17211D01*
X50944Y-17173D01*
X50925Y-17154D01*
X50887Y-17135D01*
X50810Y-17135D01*
X50772Y-17154D01*
X61396Y-17680D02*
X61377Y-17661D01*
X61339Y-17642D01*
X61243Y-17642D01*
X61205Y-17661D01*
X61186Y-17680D01*
X61167Y-17718D01*
X61167Y-17756D01*
X61186Y-17813D01*
X61415Y-18042D01*
X61167Y-18042D01*
X60920Y-17642D02*
X60881Y-17642D01*
X60843Y-17661D01*
X60824Y-17680D01*
X60805Y-17718D01*
X60786Y-17794D01*
X60786Y-17890D01*
X60805Y-17966D01*
X60824Y-18004D01*
X60843Y-18023D01*
X60881Y-18042D01*
X60920Y-18042D01*
X60958Y-18023D01*
X60977Y-18004D01*
X60996Y-17966D01*
X61015Y-17890D01*
X61015Y-17794D01*
X60996Y-17718D01*
X60977Y-17680D01*
X60958Y-17661D01*
X60920Y-17642D01*
X60405Y-18042D02*
X60634Y-18042D01*
X60520Y-18042D02*
X60520Y-17642D01*
X60558Y-17699D01*
X60596Y-17737D01*
X60634Y-17756D01*
X60253Y-17680D02*
X60234Y-17661D01*
X60196Y-17642D01*
X60100Y-17642D01*
X60062Y-17661D01*
X60043Y-17680D01*
X60024Y-17718D01*
X60024Y-17756D01*
X60043Y-17813D01*
X60272Y-18042D01*
X60024Y-18042D01*
X59548Y-17890D02*
X59243Y-17890D01*
X58748Y-18042D02*
X58748Y-17642D01*
X58748Y-17794D02*
X58710Y-17775D01*
X58633Y-17775D01*
X58595Y-17794D01*
X58576Y-17813D01*
X58557Y-17851D01*
X58557Y-17966D01*
X58576Y-18004D01*
X58595Y-18023D01*
X58633Y-18042D01*
X58710Y-18042D01*
X58748Y-18023D01*
X58329Y-18042D02*
X58367Y-18023D01*
X58386Y-17985D01*
X58386Y-17642D01*
X58119Y-18042D02*
X58157Y-18023D01*
X58176Y-18004D01*
X58195Y-17966D01*
X58195Y-17851D01*
X58176Y-17813D01*
X58157Y-17794D01*
X58119Y-17775D01*
X58061Y-17775D01*
X58023Y-17794D01*
X58004Y-17813D01*
X57985Y-17851D01*
X57985Y-17966D01*
X58004Y-18004D01*
X58023Y-18023D01*
X58061Y-18042D01*
X58119Y-18042D01*
X57642Y-17775D02*
X57642Y-18099D01*
X57661Y-18137D01*
X57680Y-18156D01*
X57719Y-18175D01*
X57776Y-18175D01*
X57814Y-18156D01*
X57642Y-18023D02*
X57680Y-18042D01*
X57757Y-18042D01*
X57795Y-18023D01*
X57814Y-18004D01*
X57833Y-17966D01*
X57833Y-17851D01*
X57814Y-17813D01*
X57795Y-17794D01*
X57757Y-17775D01*
X57680Y-17775D01*
X57642Y-17794D01*
X57452Y-18004D02*
X57433Y-18023D01*
X57452Y-18042D01*
X57471Y-18023D01*
X57452Y-18004D01*
X57452Y-18042D01*
X57281Y-18023D02*
X57243Y-18042D01*
X57167Y-18042D01*
X57128Y-18023D01*
X57109Y-17985D01*
X57109Y-17966D01*
X57128Y-17928D01*
X57167Y-17909D01*
X57224Y-17909D01*
X57262Y-17890D01*
X57281Y-17851D01*
X57281Y-17832D01*
X57262Y-17794D01*
X57224Y-17775D01*
X57167Y-17775D01*
X57128Y-17794D01*
X56938Y-17775D02*
X56938Y-18175D01*
X56938Y-17794D02*
X56900Y-17775D01*
X56823Y-17775D01*
X56785Y-17794D01*
X56766Y-17813D01*
X56747Y-17851D01*
X56747Y-17966D01*
X56766Y-18004D01*
X56785Y-18023D01*
X56823Y-18042D01*
X56900Y-18042D01*
X56938Y-18023D01*
X56576Y-18042D02*
X56576Y-17775D01*
X56576Y-17642D02*
X56595Y-17661D01*
X56576Y-17680D01*
X56557Y-17661D01*
X56576Y-17642D01*
X56576Y-17680D01*
X56443Y-17775D02*
X56291Y-17775D01*
X56386Y-17642D02*
X56386Y-17985D01*
X56367Y-18023D01*
X56329Y-18042D01*
X56291Y-18042D01*
X56195Y-17775D02*
X55985Y-17775D01*
X56195Y-18042D01*
X55985Y-18042D01*
X55680Y-18023D02*
X55718Y-18042D01*
X55795Y-18042D01*
X55833Y-18023D01*
X55852Y-17985D01*
X55852Y-17832D01*
X55833Y-17794D01*
X55795Y-17775D01*
X55718Y-17775D01*
X55680Y-17794D01*
X55661Y-17832D01*
X55661Y-17870D01*
X55852Y-17909D01*
X55490Y-17775D02*
X55490Y-18042D01*
X55490Y-17813D02*
X55471Y-17794D01*
X55433Y-17775D01*
X55375Y-17775D01*
X55337Y-17794D01*
X55318Y-17832D01*
X55318Y-18042D01*
X55128Y-17775D02*
X55128Y-18175D01*
X55128Y-17794D02*
X55090Y-17775D01*
X55013Y-17775D01*
X54975Y-17794D01*
X54956Y-17813D01*
X54937Y-17851D01*
X54937Y-17966D01*
X54956Y-18004D01*
X54975Y-18023D01*
X55013Y-18042D01*
X55090Y-18042D01*
X55128Y-18023D01*
X54823Y-17775D02*
X54671Y-17775D01*
X54766Y-18042D02*
X54766Y-17699D01*
X54747Y-17661D01*
X54709Y-17642D01*
X54671Y-17642D01*
X54384Y-18023D02*
X54422Y-18042D01*
X54499Y-18042D01*
X54537Y-18023D01*
X54556Y-17985D01*
X54556Y-17832D01*
X54537Y-17794D01*
X54499Y-17775D01*
X54422Y-17775D01*
X54384Y-17794D01*
X54365Y-17832D01*
X54365Y-17870D01*
X54556Y-17909D01*
X54194Y-18042D02*
X54194Y-17775D01*
X54194Y-17642D02*
X54213Y-17661D01*
X54194Y-17680D01*
X54175Y-17661D01*
X54194Y-17642D01*
X54194Y-17680D01*
X53947Y-18042D02*
X53985Y-18023D01*
X54004Y-17985D01*
X54004Y-17642D01*
X53794Y-18004D02*
X53775Y-18023D01*
X53794Y-18042D01*
X53813Y-18023D01*
X53794Y-18004D01*
X53794Y-18042D01*
X53547Y-18042D02*
X53585Y-18023D01*
X53604Y-18004D01*
X53623Y-17966D01*
X53623Y-17851D01*
X53604Y-17813D01*
X53585Y-17794D01*
X53547Y-17775D01*
X53489Y-17775D01*
X53451Y-17794D01*
X53432Y-17813D01*
X53413Y-17851D01*
X53413Y-17966D01*
X53432Y-18004D01*
X53451Y-18023D01*
X53489Y-18042D01*
X53547Y-18042D01*
X53242Y-18042D02*
X53242Y-17775D01*
X53242Y-17851D02*
X53223Y-17813D01*
X53204Y-17794D01*
X53166Y-17775D01*
X53127Y-17775D01*
X52822Y-17775D02*
X52822Y-18099D01*
X52841Y-18137D01*
X52860Y-18156D01*
X52899Y-18175D01*
X52956Y-18175D01*
X52994Y-18156D01*
X52822Y-18023D02*
X52860Y-18042D01*
X52937Y-18042D01*
X52975Y-18023D01*
X52994Y-18004D01*
X53013Y-17966D01*
X53013Y-17851D01*
X52994Y-17813D01*
X52975Y-17794D01*
X52937Y-17775D01*
X52860Y-17775D01*
X52822Y-17794D01*
G54D12*
X74971Y-30043D02*
X75171Y-29757D01*
X75314Y-30043D02*
X75314Y-29443D01*
X75086Y-29443D01*
X75028Y-29471D01*
X75000Y-29500D01*
X74971Y-29557D01*
X74971Y-29643D01*
X75000Y-29700D01*
X75028Y-29729D01*
X75086Y-29757D01*
X75314Y-29757D01*
X74486Y-30014D02*
X74543Y-30043D01*
X74657Y-30043D01*
X74714Y-30014D01*
X74743Y-29957D01*
X74743Y-29729D01*
X74714Y-29671D01*
X74657Y-29643D01*
X74543Y-29643D01*
X74486Y-29671D01*
X74457Y-29729D01*
X74457Y-29786D01*
X74743Y-29843D01*
X74257Y-29643D02*
X74114Y-30043D01*
X73972Y-29643D01*
X73743Y-29986D02*
X73715Y-30014D01*
X73743Y-30043D01*
X73772Y-30014D01*
X73743Y-29986D01*
X73743Y-30043D01*
X73000Y-29643D02*
X73000Y-30243D01*
X73000Y-29671D02*
X72943Y-29643D01*
X72829Y-29643D01*
X72772Y-29671D01*
X72743Y-29700D01*
X72714Y-29757D01*
X72714Y-29929D01*
X72743Y-29986D01*
X72772Y-30014D01*
X72829Y-30043D01*
X72943Y-30043D01*
X73000Y-30014D01*
X72371Y-30043D02*
X72429Y-30014D01*
X72457Y-29986D01*
X72486Y-29929D01*
X72486Y-29757D01*
X72457Y-29700D01*
X72429Y-29671D01*
X72371Y-29643D01*
X72286Y-29643D01*
X72229Y-29671D01*
X72200Y-29700D01*
X72171Y-29757D01*
X72171Y-29929D01*
X72200Y-29986D01*
X72229Y-30014D01*
X72286Y-30043D01*
X72371Y-30043D01*
X71828Y-30043D02*
X71886Y-30014D01*
X71914Y-29957D01*
X71914Y-29443D01*
X71343Y-30043D02*
X71343Y-29729D01*
X71372Y-29671D01*
X71429Y-29643D01*
X71543Y-29643D01*
X71600Y-29671D01*
X71343Y-30014D02*
X71400Y-30043D01*
X71543Y-30043D01*
X71600Y-30014D01*
X71629Y-29957D01*
X71629Y-29900D01*
X71600Y-29843D01*
X71543Y-29814D01*
X71400Y-29814D01*
X71343Y-29786D01*
X71057Y-30043D02*
X71057Y-29643D01*
X71057Y-29757D02*
X71029Y-29700D01*
X71000Y-29671D01*
X70943Y-29643D01*
X70886Y-29643D01*
X70686Y-30043D02*
X70686Y-29643D01*
X70686Y-29443D02*
X70715Y-29471D01*
X70686Y-29500D01*
X70658Y-29471D01*
X70686Y-29443D01*
X70686Y-29500D01*
X70486Y-29643D02*
X70257Y-29643D01*
X70400Y-29443D02*
X70400Y-29957D01*
X70372Y-30014D01*
X70314Y-30043D01*
X70257Y-30043D01*
X70114Y-29643D02*
X69971Y-30043D01*
X69829Y-29643D02*
X69971Y-30043D01*
X70029Y-30186D01*
X70057Y-30214D01*
X70114Y-30243D01*
X74728Y-30603D02*
X74728Y-31203D01*
X74728Y-30631D02*
X74671Y-30603D01*
X74557Y-30603D01*
X74500Y-30631D01*
X74471Y-30660D01*
X74442Y-30717D01*
X74442Y-30889D01*
X74471Y-30946D01*
X74500Y-30974D01*
X74557Y-31003D01*
X74671Y-31003D01*
X74728Y-30974D01*
X74185Y-31003D02*
X74185Y-30603D01*
X74185Y-30717D02*
X74157Y-30660D01*
X74128Y-30631D01*
X74071Y-30603D01*
X74014Y-30603D01*
X73728Y-31003D02*
X73786Y-30974D01*
X73814Y-30946D01*
X73843Y-30889D01*
X73843Y-30717D01*
X73814Y-30660D01*
X73786Y-30631D01*
X73728Y-30603D01*
X73643Y-30603D01*
X73586Y-30631D01*
X73557Y-30660D01*
X73528Y-30717D01*
X73528Y-30889D01*
X73557Y-30946D01*
X73586Y-30974D01*
X73643Y-31003D01*
X73728Y-31003D01*
X73357Y-30603D02*
X73128Y-30603D01*
X73271Y-30403D02*
X73271Y-30917D01*
X73243Y-30974D01*
X73185Y-31003D01*
X73128Y-31003D01*
X72700Y-30974D02*
X72757Y-31003D01*
X72871Y-31003D01*
X72928Y-30974D01*
X72957Y-30917D01*
X72957Y-30689D01*
X72928Y-30631D01*
X72871Y-30603D01*
X72757Y-30603D01*
X72700Y-30631D01*
X72671Y-30689D01*
X72671Y-30746D01*
X72957Y-30803D01*
X72157Y-30974D02*
X72214Y-31003D01*
X72328Y-31003D01*
X72386Y-30974D01*
X72414Y-30946D01*
X72443Y-30889D01*
X72443Y-30717D01*
X72414Y-30660D01*
X72386Y-30631D01*
X72328Y-30603D01*
X72214Y-30603D01*
X72157Y-30631D01*
X71986Y-30603D02*
X71757Y-30603D01*
X71900Y-30403D02*
X71900Y-30917D01*
X71872Y-30974D01*
X71814Y-31003D01*
X71757Y-31003D01*
X71557Y-31003D02*
X71557Y-30603D01*
X71557Y-30403D02*
X71586Y-30431D01*
X71557Y-30460D01*
X71529Y-30431D01*
X71557Y-30403D01*
X71557Y-30460D01*
X71185Y-31003D02*
X71243Y-30974D01*
X71271Y-30946D01*
X71300Y-30889D01*
X71300Y-30717D01*
X71271Y-30660D01*
X71243Y-30631D01*
X71185Y-30603D01*
X71100Y-30603D01*
X71043Y-30631D01*
X71014Y-30660D01*
X70985Y-30717D01*
X70985Y-30889D01*
X71014Y-30946D01*
X71043Y-30974D01*
X71100Y-31003D01*
X71185Y-31003D01*
X70728Y-30603D02*
X70728Y-31003D01*
X70728Y-30660D02*
X70700Y-30631D01*
X70642Y-30603D01*
X70557Y-30603D01*
X70500Y-30631D01*
X70471Y-30689D01*
X70471Y-31003D01*
G54D11*
X37402Y-52756D02*
X37402Y-13386D01*
X76772Y-52756D02*
X37402Y-52756D01*
X76772Y-13386D02*
X76772Y-52756D01*
X37402Y-13386D02*
X76772Y-13386D01*
G54D13*
X71000Y-32500D02*
X70700Y-32700D01*
X71700Y-32500D02*
X70675Y-32500D01*
X70675Y-32500D02*
X70675Y-33100D01*
X70675Y-33100D02*
X71700Y-33100D01*
X71700Y-33100D02*
X71700Y-32500D01*
X73100Y-32500D02*
X72800Y-32700D01*
X73800Y-32500D02*
X72775Y-32500D01*
X72775Y-32500D02*
X72775Y-33100D01*
X72775Y-33100D02*
X73800Y-33100D01*
X73800Y-33100D02*
X73800Y-32500D01*
G54D14*
X73260Y-40625D02*
X73515Y-40625D01*
X73515Y-40625D02*
X73515Y-41176D01*
X73260Y-41176D02*
X73515Y-41176D01*
X73260Y-40625D02*
X73260Y-41176D01*
X72680Y-40625D02*
X72936Y-40625D01*
X72936Y-40625D02*
X72936Y-41176D01*
X72680Y-41176D02*
X72936Y-41176D01*
X72680Y-40625D02*
X72680Y-41176D01*
X73022Y-40704D02*
X73178Y-40704D01*
X73178Y-40704D02*
X73178Y-41096D01*
X73022Y-41096D02*
X73178Y-41096D01*
X73022Y-40704D02*
X73022Y-41096D01*
G54D10*
X72939Y-41150D02*
X73261Y-41150D01*
X72939Y-40650D02*
X73261Y-40650D01*
G54D15*
X72324Y-41287D02*
X73876Y-41287D01*
X73876Y-41287D02*
X73876Y-40513D01*
X73876Y-40513D02*
X72324Y-40513D01*
X72324Y-40513D02*
X72324Y-41287D01*
G54D13*
X70700Y-40700D02*
X71000Y-40500D01*
X70000Y-40700D02*
X71025Y-40700D01*
X71025Y-40700D02*
X71025Y-40100D01*
X71025Y-40100D02*
X70000Y-40100D01*
X70000Y-40100D02*
X70000Y-40700D01*
G54D14*
X73775Y-48460D02*
X73775Y-48715D01*
X73775Y-48715D02*
X73224Y-48715D01*
X73224Y-48460D02*
X73224Y-48715D01*
X73775Y-48460D02*
X73224Y-48460D01*
X73775Y-47880D02*
X73775Y-48136D01*
X73775Y-48136D02*
X73224Y-48136D01*
X73224Y-47880D02*
X73224Y-48136D01*
X73775Y-47880D02*
X73224Y-47880D01*
X73696Y-48222D02*
X73696Y-48378D01*
X73696Y-48378D02*
X73304Y-48378D01*
X73304Y-48222D02*
X73304Y-48378D01*
X73696Y-48222D02*
X73304Y-48222D01*
G54D10*
X73250Y-48139D02*
X73250Y-48461D01*
X73750Y-48139D02*
X73750Y-48461D01*
G54D15*
X73113Y-47524D02*
X73113Y-49076D01*
X73113Y-49076D02*
X73887Y-49076D01*
X73887Y-49076D02*
X73887Y-47524D01*
X73887Y-47524D02*
X73113Y-47524D01*
G54D11*
X41116Y-40950D02*
X41093Y-41179D01*
X41026Y-41400D01*
X40918Y-41603D01*
X40773Y-41782D01*
X40595Y-41929D01*
X40392Y-42038D01*
X40172Y-42106D01*
X39943Y-42130D01*
X39714Y-42110D01*
X39493Y-42045D01*
X39289Y-41938D01*
X39109Y-41793D01*
X38961Y-41617D01*
X38850Y-41415D01*
X38780Y-41195D01*
X38755Y-40966D01*
X38774Y-40737D01*
X38837Y-40516D01*
X38943Y-40311D01*
X39086Y-40130D01*
X39261Y-39981D01*
X39463Y-39868D01*
X39682Y-39797D01*
X39911Y-39770D01*
X40140Y-39787D01*
X40362Y-39849D01*
X40567Y-39953D01*
X40749Y-40095D01*
X40900Y-40270D01*
X41013Y-40470D01*
X41086Y-40689D01*
X41115Y-40918D01*
X41116Y-40950D01*
X51746Y-40950D02*
X51723Y-41179D01*
X51656Y-41400D01*
X51548Y-41603D01*
X51403Y-41782D01*
X51225Y-41929D01*
X51022Y-42038D01*
X50802Y-42106D01*
X50573Y-42130D01*
X50344Y-42110D01*
X50123Y-42045D01*
X49919Y-41938D01*
X49739Y-41793D01*
X49591Y-41617D01*
X49480Y-41415D01*
X49410Y-41195D01*
X49385Y-40966D01*
X49404Y-40737D01*
X49467Y-40516D01*
X49573Y-40311D01*
X49716Y-40130D01*
X49891Y-39981D01*
X50093Y-39868D01*
X50312Y-39797D01*
X50541Y-39770D01*
X50770Y-39787D01*
X50992Y-39849D01*
X51197Y-39953D01*
X51379Y-40095D01*
X51530Y-40270D01*
X51643Y-40470D01*
X51716Y-40689D01*
X51745Y-40918D01*
X51746Y-40950D01*
X41293Y-30773D02*
X49384Y-30773D01*
X41293Y-31974D02*
X40329Y-31974D01*
X41293Y-30773D02*
X41293Y-31974D01*
X49384Y-31974D02*
X49384Y-30773D01*
X50171Y-39769D02*
X40329Y-39769D01*
X50171Y-42131D02*
X40329Y-42131D01*
X50171Y-31974D02*
X49384Y-31974D01*
X50171Y-31974D02*
X50171Y-28824D01*
X50171Y-28824D02*
X40329Y-28824D01*
X40329Y-28824D02*
X40329Y-31974D01*
X43675Y-32092D02*
X43675Y-30911D01*
X43675Y-30911D02*
X41431Y-30911D01*
X41431Y-30911D02*
X41431Y-32092D01*
X47593Y-31029D02*
X47593Y-30635D01*
X47593Y-31186D02*
X47593Y-31147D01*
X47593Y-31698D02*
X47593Y-31305D01*
X47593Y-31856D02*
X47593Y-31816D01*
X47593Y-32368D02*
X47593Y-31974D01*
X49246Y-30911D02*
X45939Y-30911D01*
X45939Y-30911D02*
X45939Y-32092D01*
X49246Y-32092D02*
X49246Y-30911D01*
X50171Y-32092D02*
X40329Y-32092D01*
X40329Y-32092D02*
X40329Y-49808D01*
X40329Y-49808D02*
X50171Y-49808D01*
X50171Y-49808D02*
X50171Y-32092D01*
X72500Y-32762D02*
X72481Y-32724D01*
X72443Y-32686D01*
X72386Y-32629D01*
X72367Y-32590D01*
X72367Y-32552D01*
X72462Y-32571D02*
X72443Y-32533D01*
X72405Y-32495D01*
X72329Y-32476D01*
X72195Y-32476D01*
X72119Y-32495D01*
X72081Y-32533D01*
X72062Y-32571D01*
X72062Y-32648D01*
X72081Y-32686D01*
X72119Y-32724D01*
X72195Y-32743D01*
X72329Y-32743D01*
X72405Y-32724D01*
X72443Y-32686D01*
X72462Y-32648D01*
X72462Y-32571D01*
X72062Y-32876D02*
X72062Y-33124D01*
X72214Y-32990D01*
X72214Y-33048D01*
X72233Y-33086D01*
X72252Y-33105D01*
X72290Y-33124D01*
X72386Y-33124D01*
X72424Y-33105D01*
X72443Y-33086D01*
X72462Y-33048D01*
X72462Y-32933D01*
X72443Y-32895D01*
X72424Y-32876D01*
X74700Y-32762D02*
X74681Y-32724D01*
X74643Y-32686D01*
X74586Y-32629D01*
X74567Y-32590D01*
X74567Y-32552D01*
X74662Y-32571D02*
X74643Y-32533D01*
X74605Y-32495D01*
X74529Y-32476D01*
X74395Y-32476D01*
X74319Y-32495D01*
X74281Y-32533D01*
X74262Y-32571D01*
X74262Y-32648D01*
X74281Y-32686D01*
X74319Y-32724D01*
X74395Y-32743D01*
X74529Y-32743D01*
X74605Y-32724D01*
X74643Y-32686D01*
X74662Y-32648D01*
X74662Y-32571D01*
X74395Y-33086D02*
X74662Y-33086D01*
X74243Y-32990D02*
X74529Y-32895D01*
X74529Y-33143D01*
X74666Y-41062D02*
X74800Y-40871D01*
X74895Y-41062D02*
X74895Y-40662D01*
X74742Y-40662D01*
X74704Y-40681D01*
X74685Y-40700D01*
X74666Y-40738D01*
X74666Y-40795D01*
X74685Y-40833D01*
X74704Y-40852D01*
X74742Y-40871D01*
X74895Y-40871D01*
X74533Y-40662D02*
X74266Y-40662D01*
X74438Y-41062D01*
X70986Y-38962D02*
X70986Y-38562D01*
X70891Y-38562D01*
X70833Y-38581D01*
X70795Y-38619D01*
X70776Y-38657D01*
X70757Y-38733D01*
X70757Y-38790D01*
X70776Y-38867D01*
X70795Y-38905D01*
X70833Y-38943D01*
X70891Y-38962D01*
X70986Y-38962D01*
X70624Y-38562D02*
X70357Y-38562D01*
X70624Y-38962D01*
X70357Y-38962D01*
X69995Y-38962D02*
X70224Y-38962D01*
X70110Y-38962D02*
X70110Y-38562D01*
X70148Y-38619D01*
X70186Y-38657D01*
X70224Y-38676D01*
X74462Y-48234D02*
X74271Y-48100D01*
X74462Y-48005D02*
X74062Y-48005D01*
X74062Y-48158D01*
X74081Y-48196D01*
X74100Y-48215D01*
X74138Y-48234D01*
X74195Y-48234D01*
X74233Y-48215D01*
X74252Y-48196D01*
X74271Y-48158D01*
X74271Y-48005D01*
X74462Y-48615D02*
X74462Y-48386D01*
X74462Y-48500D02*
X74062Y-48500D01*
X74119Y-48462D01*
X74157Y-48424D01*
X74176Y-48386D01*
X46639Y-40762D02*
X46563Y-40762D01*
X46524Y-40743D01*
X46505Y-40724D01*
X46467Y-40667D01*
X46448Y-40590D01*
X46448Y-40438D01*
X46467Y-40400D01*
X46486Y-40381D01*
X46524Y-40362D01*
X46601Y-40362D01*
X46639Y-40381D01*
X46658Y-40400D01*
X46677Y-40438D01*
X46677Y-40533D01*
X46658Y-40571D01*
X46639Y-40590D01*
X46601Y-40610D01*
X46524Y-40610D01*
X46486Y-40590D01*
X46467Y-40571D01*
X46448Y-40533D01*
X46334Y-40362D02*
X46201Y-40762D01*
X46067Y-40362D01*
X46029Y-40800D02*
X45724Y-40800D01*
X45629Y-40762D02*
X45629Y-40362D01*
X45629Y-40514D02*
X45591Y-40495D01*
X45514Y-40495D01*
X45476Y-40514D01*
X45457Y-40533D01*
X45438Y-40571D01*
X45438Y-40686D01*
X45457Y-40724D01*
X45476Y-40743D01*
X45514Y-40762D01*
X45591Y-40762D01*
X45629Y-40743D01*
X45095Y-40762D02*
X45095Y-40552D01*
X45114Y-40514D01*
X45152Y-40495D01*
X45229Y-40495D01*
X45267Y-40514D01*
X45095Y-40743D02*
X45133Y-40762D01*
X45229Y-40762D01*
X45267Y-40743D01*
X45286Y-40705D01*
X45286Y-40667D01*
X45267Y-40629D01*
X45229Y-40610D01*
X45133Y-40610D01*
X45095Y-40590D01*
X44962Y-40495D02*
X44810Y-40495D01*
X44905Y-40362D02*
X44905Y-40705D01*
X44886Y-40743D01*
X44848Y-40762D01*
X44810Y-40762D01*
X44733Y-40495D02*
X44581Y-40495D01*
X44676Y-40362D02*
X44676Y-40705D01*
X44657Y-40743D01*
X44619Y-40762D01*
X44581Y-40762D01*
X44294Y-40743D02*
X44332Y-40762D01*
X44409Y-40762D01*
X44447Y-40743D01*
X44466Y-40705D01*
X44466Y-40552D01*
X44447Y-40514D01*
X44409Y-40495D01*
X44332Y-40495D01*
X44294Y-40514D01*
X44275Y-40552D01*
X44275Y-40590D01*
X44466Y-40629D01*
X44104Y-40762D02*
X44104Y-40495D01*
X44104Y-40571D02*
X44085Y-40533D01*
X44066Y-40514D01*
X44028Y-40495D01*
X43989Y-40495D01*
X43894Y-40495D02*
X43799Y-40762D01*
X43703Y-40495D02*
X43799Y-40762D01*
X43837Y-40857D01*
X43856Y-40876D01*
X43894Y-40895D01*
X48306Y-41548D02*
X48115Y-41548D01*
X48344Y-41662D02*
X48211Y-41262D01*
X48077Y-41662D01*
X48001Y-41395D02*
X47849Y-41395D01*
X47944Y-41262D02*
X47944Y-41605D01*
X47925Y-41643D01*
X47887Y-41662D01*
X47849Y-41662D01*
X47772Y-41395D02*
X47620Y-41395D01*
X47715Y-41262D02*
X47715Y-41605D01*
X47696Y-41643D01*
X47658Y-41662D01*
X47620Y-41662D01*
X47314Y-41662D02*
X47314Y-41452D01*
X47333Y-41414D01*
X47371Y-41395D01*
X47448Y-41395D01*
X47486Y-41414D01*
X47314Y-41643D02*
X47352Y-41662D01*
X47448Y-41662D01*
X47486Y-41643D01*
X47505Y-41605D01*
X47505Y-41567D01*
X47486Y-41529D01*
X47448Y-41510D01*
X47352Y-41510D01*
X47314Y-41490D01*
X46952Y-41643D02*
X46990Y-41662D01*
X47067Y-41662D01*
X47105Y-41643D01*
X47124Y-41624D01*
X47143Y-41586D01*
X47143Y-41471D01*
X47124Y-41433D01*
X47105Y-41414D01*
X47067Y-41395D01*
X46990Y-41395D01*
X46952Y-41414D01*
X46781Y-41662D02*
X46781Y-41262D01*
X46609Y-41662D02*
X46609Y-41452D01*
X46628Y-41414D01*
X46666Y-41395D01*
X46724Y-41395D01*
X46762Y-41414D01*
X46781Y-41433D01*
X46152Y-41395D02*
X46076Y-41662D01*
X45999Y-41471D01*
X45923Y-41662D01*
X45847Y-41395D01*
X45695Y-41662D02*
X45695Y-41395D01*
X45695Y-41262D02*
X45714Y-41281D01*
X45695Y-41300D01*
X45676Y-41281D01*
X45695Y-41262D01*
X45695Y-41300D01*
X45562Y-41395D02*
X45410Y-41395D01*
X45505Y-41262D02*
X45505Y-41605D01*
X45486Y-41643D01*
X45448Y-41662D01*
X45410Y-41662D01*
X45276Y-41662D02*
X45276Y-41262D01*
X45104Y-41662D02*
X45104Y-41452D01*
X45123Y-41414D01*
X45161Y-41395D01*
X45219Y-41395D01*
X45257Y-41414D01*
X45276Y-41433D01*
X44437Y-41643D02*
X44475Y-41662D01*
X44552Y-41662D01*
X44590Y-41643D01*
X44609Y-41624D01*
X44628Y-41586D01*
X44628Y-41471D01*
X44609Y-41433D01*
X44590Y-41414D01*
X44552Y-41395D01*
X44475Y-41395D01*
X44437Y-41414D01*
X44094Y-41662D02*
X44094Y-41452D01*
X44113Y-41414D01*
X44151Y-41395D01*
X44228Y-41395D01*
X44266Y-41414D01*
X44094Y-41643D02*
X44132Y-41662D01*
X44228Y-41662D01*
X44266Y-41643D01*
X44285Y-41605D01*
X44285Y-41567D01*
X44266Y-41529D01*
X44228Y-41510D01*
X44132Y-41510D01*
X44094Y-41490D01*
X43904Y-41662D02*
X43904Y-41262D01*
X43904Y-41414D02*
X43866Y-41395D01*
X43789Y-41395D01*
X43751Y-41414D01*
X43732Y-41433D01*
X43713Y-41471D01*
X43713Y-41586D01*
X43732Y-41624D01*
X43751Y-41643D01*
X43789Y-41662D01*
X43866Y-41662D01*
X43904Y-41643D01*
X43485Y-41662D02*
X43523Y-41643D01*
X43542Y-41605D01*
X43542Y-41262D01*
X43179Y-41643D02*
X43217Y-41662D01*
X43294Y-41662D01*
X43332Y-41643D01*
X43351Y-41605D01*
X43351Y-41452D01*
X43332Y-41414D01*
X43294Y-41395D01*
X43217Y-41395D01*
X43179Y-41414D01*
X43160Y-41452D01*
X43160Y-41490D01*
X43351Y-41529D01*
X42741Y-41395D02*
X42589Y-41395D01*
X42684Y-41262D02*
X42684Y-41605D01*
X42665Y-41643D01*
X42627Y-41662D01*
X42589Y-41662D01*
X42455Y-41662D02*
X42455Y-41395D01*
X42455Y-41262D02*
X42474Y-41281D01*
X42455Y-41300D01*
X42436Y-41281D01*
X42455Y-41262D01*
X42455Y-41300D01*
X42112Y-41643D02*
X42150Y-41662D01*
X42227Y-41662D01*
X42265Y-41643D01*
X42284Y-41605D01*
X42284Y-41452D01*
X42265Y-41414D01*
X42227Y-41395D01*
X42150Y-41395D01*
X42112Y-41414D01*
X42093Y-41452D01*
X42093Y-41490D01*
X42284Y-41529D01*
%LPC*%
G54D16*
X56000Y-45200D03*
G54D17*
X56000Y-39294D03*
X54425Y-39294D03*
X57575Y-39294D03*
G54D18*
X48213Y-27559D03*
X49213Y-27559D03*
G54D19*
X50213Y-27559D03*
G54D18*
X63961Y-27559D03*
X64961Y-27559D03*
G54D19*
X65961Y-27559D03*
G54D20*
X39370Y-15354D03*
X74803Y-15354D03*
X39370Y-50787D03*
X74803Y-50787D03*
G54D21*
X71200Y-33300D03*
X71575Y-32300D03*
X70825Y-32300D03*
X73300Y-33300D03*
X73675Y-32300D03*
X72925Y-32300D03*
G54D22*
X67700Y-32100D03*
X67700Y-37100D03*
X66200Y-32100D03*
X66200Y-37100D03*
X64400Y-32100D03*
X64400Y-37100D03*
X62900Y-32100D03*
X62900Y-37100D03*
G54D23*
X72835Y-25118D03*
X41339Y-25118D03*
X57087Y-25118D03*
G54D24*
X72726Y-40900D03*
X73474Y-40900D03*
G54D21*
X70500Y-39900D03*
X70125Y-40900D03*
X70875Y-40900D03*
G54D25*
X73500Y-47926D03*
X73500Y-48674D03*
G54D26*
X73500Y-37500D03*
X73500Y-44500D03*
X68800Y-47900D03*
X63400Y-47900D03*
G54D27*
X50565Y-40950D03*
X39935Y-40950D03*
G54D28*
X47258Y-50714D03*
X43242Y-50714D03*
G54D29*
X45880Y-50714D03*
X44620Y-50714D03*
X40354Y-46496D03*
X40354Y-45496D03*
X40354Y-47496D03*
G54D30*
X56000Y-35100D03*
X55000Y-36100D03*
X56000Y-37100D03*
M02*
