G04 (created by PCBNEW-RS274X (2012-jan-04)-stable) date Wed 06 Jun 2012 12:26:46 PM CEST*
G01*
G70*
G90*
%MOIN*%
G04 Gerber Fmt 3.4, Leading zero omitted, Abs format*
%FSLAX34Y34*%
G04 APERTURE LIST*
%ADD10C,0.006000*%
%ADD11C,0.008000*%
%ADD12C,0.070000*%
%ADD13R,0.070000X0.070000*%
%ADD14R,0.047200X0.047200*%
%ADD15C,0.160000*%
%ADD16R,0.144000X0.080000*%
%ADD17R,0.040000X0.080000*%
%ADD18C,0.060000*%
%ADD19C,0.295300*%
%ADD20R,0.051100X0.059000*%
%ADD21R,0.062900X0.070800*%
%ADD22R,0.086600X0.023600*%
%ADD23R,0.039300X0.043300*%
%ADD24C,0.393700*%
%ADD25C,0.196900*%
%ADD26O,0.137800X0.098400*%
%ADD27C,0.059100*%
%ADD28C,0.044000*%
%ADD29C,0.472400*%
%ADD30C,0.098400*%
G04 APERTURE END LIST*
G54D10*
G54D11*
X37402Y-52756D02*
X37402Y-13386D01*
X76772Y-52756D02*
X37402Y-52756D01*
X76772Y-13386D02*
X76772Y-52756D01*
X37402Y-13386D02*
X76772Y-13386D01*
G54D12*
X48213Y-27559D03*
X49213Y-27559D03*
G54D13*
X50213Y-27559D03*
G54D12*
X63961Y-27559D03*
X64961Y-27559D03*
G54D13*
X65961Y-27559D03*
G54D14*
X65487Y-41300D03*
X66313Y-41300D03*
G54D15*
X39370Y-15354D03*
X74803Y-15354D03*
X39370Y-50787D03*
X74803Y-50787D03*
G54D16*
X45150Y-43750D03*
G54D17*
X45150Y-46350D03*
X46050Y-46350D03*
X44250Y-46350D03*
G54D18*
X67700Y-32100D03*
X67700Y-37100D03*
X66200Y-32100D03*
X66200Y-37100D03*
X64400Y-32100D03*
X64400Y-37100D03*
X62900Y-32100D03*
X62900Y-37100D03*
G54D19*
X72835Y-25118D03*
X41339Y-25118D03*
X57087Y-25118D03*
G54D20*
X45674Y-32100D03*
X44926Y-32100D03*
X45674Y-38100D03*
X44926Y-38100D03*
G54D21*
X46801Y-47750D03*
X45699Y-47750D03*
X43499Y-47750D03*
X44601Y-47750D03*
G54D22*
X44277Y-35150D03*
X44277Y-35650D03*
X44277Y-36150D03*
X44277Y-36650D03*
X46323Y-36650D03*
X46323Y-36150D03*
X46323Y-35650D03*
X46323Y-35150D03*
G54D23*
X65566Y-40400D03*
X66234Y-40400D03*
G54D24*
X73500Y-37500D03*
X73500Y-44500D03*
X68800Y-47900D03*
X63400Y-47900D03*
G54D25*
X50565Y-40950D03*
X39935Y-40950D03*
G54D26*
X47258Y-50714D03*
X43242Y-50714D03*
G54D27*
X45880Y-50714D03*
X44620Y-50714D03*
X40354Y-46496D03*
X40354Y-45496D03*
X40354Y-47496D03*
G54D28*
X56000Y-35100D03*
X55000Y-36100D03*
X56000Y-37100D03*
G54D29*
X56000Y-45200D03*
G54D30*
X56000Y-39294D03*
X54425Y-39294D03*
X57575Y-39294D03*
M02*
