G04 (created by PCBNEW-RS274X (2012-jan-04)-stable) date Thu 21 Jun 2012 03:53:30 PM CEST*
G01*
G70*
G90*
%MOIN*%
G04 Gerber Fmt 3.4, Leading zero omitted, Abs format*
%FSLAX34Y34*%
G04 APERTURE LIST*
%ADD10C,0.006000*%
%ADD11C,0.008000*%
%ADD12C,0.012000*%
%ADD13C,0.019700*%
%ADD14C,0.010000*%
%ADD15C,0.000100*%
%ADD16C,0.002600*%
%ADD17C,0.004000*%
%ADD18C,0.002000*%
%ADD19C,0.015000*%
%ADD20C,0.007800*%
%ADD21C,0.007500*%
%ADD22C,0.011800*%
%ADD23C,0.060000*%
%ADD24C,0.393700*%
%ADD25C,0.177200*%
%ADD26C,0.315000*%
%ADD27C,0.196900*%
%ADD28O,0.137800X0.098400*%
%ADD29C,0.059100*%
%ADD30C,0.472400*%
%ADD31C,0.098400*%
%ADD32R,0.047200X0.047200*%
%ADD33C,0.160000*%
%ADD34R,0.144000X0.080000*%
%ADD35R,0.040000X0.080000*%
%ADD36R,0.051100X0.059000*%
%ADD37R,0.062900X0.070800*%
%ADD38R,0.086600X0.023600*%
%ADD39R,0.039300X0.043300*%
%ADD40C,0.157500*%
%ADD41O,0.068900X0.118100*%
%ADD42R,0.055000X0.055000*%
%ADD43C,0.055000*%
%ADD44R,0.055100X0.039300*%
G04 APERTURE END LIST*
G54D10*
G54D11*
X49047Y-37743D02*
X49104Y-37762D01*
X49200Y-37762D01*
X49238Y-37743D01*
X49257Y-37724D01*
X49276Y-37686D01*
X49276Y-37648D01*
X49257Y-37610D01*
X49238Y-37590D01*
X49200Y-37571D01*
X49123Y-37552D01*
X49085Y-37533D01*
X49066Y-37514D01*
X49047Y-37476D01*
X49047Y-37438D01*
X49066Y-37400D01*
X49085Y-37381D01*
X49123Y-37362D01*
X49219Y-37362D01*
X49276Y-37381D01*
X49447Y-37552D02*
X49581Y-37552D01*
X49638Y-37762D02*
X49447Y-37762D01*
X49447Y-37362D01*
X49638Y-37362D01*
X49752Y-37362D02*
X49981Y-37362D01*
X49866Y-37762D02*
X49866Y-37362D01*
X50648Y-37724D02*
X50629Y-37743D01*
X50572Y-37762D01*
X50534Y-37762D01*
X50476Y-37743D01*
X50438Y-37705D01*
X50419Y-37667D01*
X50400Y-37590D01*
X50400Y-37533D01*
X50419Y-37457D01*
X50438Y-37419D01*
X50476Y-37381D01*
X50534Y-37362D01*
X50572Y-37362D01*
X50629Y-37381D01*
X50648Y-37400D01*
X50819Y-37362D02*
X50819Y-37686D01*
X50838Y-37724D01*
X50857Y-37743D01*
X50895Y-37762D01*
X50972Y-37762D01*
X51010Y-37743D01*
X51029Y-37724D01*
X51048Y-37686D01*
X51048Y-37362D01*
X51467Y-37762D02*
X51333Y-37571D01*
X51238Y-37762D02*
X51238Y-37362D01*
X51391Y-37362D01*
X51429Y-37381D01*
X51448Y-37400D01*
X51467Y-37438D01*
X51467Y-37495D01*
X51448Y-37533D01*
X51429Y-37552D01*
X51391Y-37571D01*
X51238Y-37571D01*
X51867Y-37762D02*
X51733Y-37571D01*
X51638Y-37762D02*
X51638Y-37362D01*
X51791Y-37362D01*
X51829Y-37381D01*
X51848Y-37400D01*
X51867Y-37438D01*
X51867Y-37495D01*
X51848Y-37533D01*
X51829Y-37552D01*
X51791Y-37571D01*
X51638Y-37571D01*
X52038Y-37552D02*
X52172Y-37552D01*
X52229Y-37762D02*
X52038Y-37762D01*
X52038Y-37362D01*
X52229Y-37362D01*
X52400Y-37762D02*
X52400Y-37362D01*
X52629Y-37762D01*
X52629Y-37362D01*
X52762Y-37362D02*
X52991Y-37362D01*
X52876Y-37762D02*
X52876Y-37362D01*
X52162Y-35428D02*
X51971Y-35562D01*
X52162Y-35657D02*
X51762Y-35657D01*
X51762Y-35504D01*
X51781Y-35466D01*
X51800Y-35447D01*
X51838Y-35428D01*
X51895Y-35428D01*
X51933Y-35447D01*
X51952Y-35466D01*
X51971Y-35504D01*
X51971Y-35657D01*
X51952Y-35257D02*
X51952Y-35123D01*
X52162Y-35066D02*
X52162Y-35257D01*
X51762Y-35257D01*
X51762Y-35066D01*
X52162Y-34895D02*
X51762Y-34895D01*
X52048Y-34761D01*
X51762Y-34628D01*
X52162Y-34628D01*
X51762Y-34362D02*
X51762Y-34285D01*
X51781Y-34247D01*
X51819Y-34209D01*
X51895Y-34190D01*
X52029Y-34190D01*
X52105Y-34209D01*
X52143Y-34247D01*
X52162Y-34285D01*
X52162Y-34362D01*
X52143Y-34400D01*
X52105Y-34438D01*
X52029Y-34457D01*
X51895Y-34457D01*
X51819Y-34438D01*
X51781Y-34400D01*
X51762Y-34362D01*
X51762Y-34076D02*
X51762Y-33847D01*
X52162Y-33962D02*
X51762Y-33962D01*
X51952Y-33714D02*
X51952Y-33580D01*
X52162Y-33523D02*
X52162Y-33714D01*
X51762Y-33714D01*
X51762Y-33523D01*
X50162Y-35695D02*
X49762Y-35695D01*
X49952Y-35695D02*
X49952Y-35466D01*
X50162Y-35466D02*
X49762Y-35466D01*
X50048Y-35295D02*
X50048Y-35104D01*
X50162Y-35333D02*
X49762Y-35200D01*
X50162Y-35066D01*
X50162Y-34933D02*
X49762Y-34933D01*
X50162Y-34704D01*
X49762Y-34704D01*
X50162Y-34514D02*
X49762Y-34514D01*
X49762Y-34419D01*
X49781Y-34361D01*
X49819Y-34323D01*
X49857Y-34304D01*
X49933Y-34285D01*
X49990Y-34285D01*
X50067Y-34304D01*
X50105Y-34323D01*
X50143Y-34361D01*
X50162Y-34419D01*
X50162Y-34514D01*
X39657Y-33195D02*
X39962Y-33310D01*
X39657Y-33424D01*
X40152Y-33462D02*
X40152Y-33062D01*
X40247Y-33500D02*
X40552Y-33500D01*
X40628Y-33443D02*
X40685Y-33462D01*
X40781Y-33462D01*
X40819Y-33443D01*
X40838Y-33424D01*
X40857Y-33386D01*
X40857Y-33348D01*
X40838Y-33310D01*
X40819Y-33290D01*
X40781Y-33271D01*
X40704Y-33252D01*
X40666Y-33233D01*
X40647Y-33214D01*
X40628Y-33176D01*
X40628Y-33138D01*
X40647Y-33100D01*
X40666Y-33081D01*
X40704Y-33062D01*
X40800Y-33062D01*
X40857Y-33081D01*
X41028Y-33252D02*
X41162Y-33252D01*
X41219Y-33462D02*
X41028Y-33462D01*
X41028Y-33062D01*
X41219Y-33062D01*
X41333Y-33062D02*
X41562Y-33062D01*
X41447Y-33462D02*
X41447Y-33062D01*
X42115Y-33614D02*
X42095Y-33595D01*
X42057Y-33538D01*
X42038Y-33500D01*
X42019Y-33443D01*
X42000Y-33348D01*
X42000Y-33271D01*
X42019Y-33176D01*
X42038Y-33119D01*
X42057Y-33081D01*
X42095Y-33024D01*
X42115Y-33005D01*
X42343Y-33062D02*
X42382Y-33062D01*
X42420Y-33081D01*
X42439Y-33100D01*
X42458Y-33138D01*
X42477Y-33214D01*
X42477Y-33310D01*
X42458Y-33386D01*
X42439Y-33424D01*
X42420Y-33443D01*
X42382Y-33462D01*
X42343Y-33462D01*
X42305Y-33443D01*
X42286Y-33424D01*
X42267Y-33386D01*
X42248Y-33310D01*
X42248Y-33214D01*
X42267Y-33138D01*
X42286Y-33100D01*
X42305Y-33081D01*
X42343Y-33062D01*
X42648Y-33310D02*
X42953Y-33310D01*
X43334Y-33062D02*
X43143Y-33062D01*
X43124Y-33252D01*
X43143Y-33233D01*
X43181Y-33214D01*
X43277Y-33214D01*
X43315Y-33233D01*
X43334Y-33252D01*
X43353Y-33290D01*
X43353Y-33386D01*
X43334Y-33424D01*
X43315Y-33443D01*
X43277Y-33462D01*
X43181Y-33462D01*
X43143Y-33443D01*
X43124Y-33424D01*
X43467Y-33062D02*
X43600Y-33462D01*
X43734Y-33062D01*
X43829Y-33614D02*
X43848Y-33595D01*
X43886Y-33538D01*
X43905Y-33500D01*
X43924Y-33443D01*
X43943Y-33348D01*
X43943Y-33271D01*
X43924Y-33176D01*
X43905Y-33119D01*
X43886Y-33081D01*
X43848Y-33024D01*
X43829Y-33005D01*
X39924Y-32195D02*
X39619Y-32310D01*
X39924Y-32424D01*
X40114Y-32462D02*
X40114Y-32062D01*
X40209Y-32500D02*
X40514Y-32500D01*
X40609Y-32462D02*
X40609Y-32062D01*
X40704Y-32062D01*
X40762Y-32081D01*
X40800Y-32119D01*
X40819Y-32157D01*
X40838Y-32233D01*
X40838Y-32290D01*
X40819Y-32367D01*
X40800Y-32405D01*
X40762Y-32443D01*
X40704Y-32462D01*
X40609Y-32462D01*
X41009Y-32062D02*
X41009Y-32386D01*
X41028Y-32424D01*
X41047Y-32443D01*
X41085Y-32462D01*
X41162Y-32462D01*
X41200Y-32443D01*
X41219Y-32424D01*
X41238Y-32386D01*
X41238Y-32062D01*
X41371Y-32062D02*
X41600Y-32062D01*
X41485Y-32462D02*
X41485Y-32062D01*
X42153Y-32614D02*
X42133Y-32595D01*
X42095Y-32538D01*
X42076Y-32500D01*
X42057Y-32443D01*
X42038Y-32348D01*
X42038Y-32271D01*
X42057Y-32176D01*
X42076Y-32119D01*
X42095Y-32081D01*
X42133Y-32024D01*
X42153Y-32005D01*
X42381Y-32062D02*
X42420Y-32062D01*
X42458Y-32081D01*
X42477Y-32100D01*
X42496Y-32138D01*
X42515Y-32214D01*
X42515Y-32310D01*
X42496Y-32386D01*
X42477Y-32424D01*
X42458Y-32443D01*
X42420Y-32462D01*
X42381Y-32462D01*
X42343Y-32443D01*
X42324Y-32424D01*
X42305Y-32386D01*
X42286Y-32310D01*
X42286Y-32214D01*
X42305Y-32138D01*
X42324Y-32100D01*
X42343Y-32081D01*
X42381Y-32062D01*
X42686Y-32310D02*
X42991Y-32310D01*
X43372Y-32062D02*
X43181Y-32062D01*
X43162Y-32252D01*
X43181Y-32233D01*
X43219Y-32214D01*
X43315Y-32214D01*
X43353Y-32233D01*
X43372Y-32252D01*
X43391Y-32290D01*
X43391Y-32386D01*
X43372Y-32424D01*
X43353Y-32443D01*
X43315Y-32462D01*
X43219Y-32462D01*
X43181Y-32443D01*
X43162Y-32424D01*
X43505Y-32062D02*
X43638Y-32462D01*
X43772Y-32062D01*
X43867Y-32614D02*
X43886Y-32595D01*
X43924Y-32538D01*
X43943Y-32500D01*
X43962Y-32443D01*
X43981Y-32348D01*
X43981Y-32271D01*
X43962Y-32176D01*
X43943Y-32119D01*
X43924Y-32081D01*
X43886Y-32024D01*
X43867Y-32005D01*
X39947Y-31095D02*
X39642Y-31210D01*
X39947Y-31324D01*
X40080Y-30962D02*
X40213Y-31362D01*
X40347Y-30962D01*
X40385Y-31400D02*
X40690Y-31400D01*
X40785Y-31362D02*
X40785Y-30962D01*
X40880Y-30962D01*
X40938Y-30981D01*
X40976Y-31019D01*
X40995Y-31057D01*
X41014Y-31133D01*
X41014Y-31190D01*
X40995Y-31267D01*
X40976Y-31305D01*
X40938Y-31343D01*
X40880Y-31362D01*
X40785Y-31362D01*
X41185Y-30962D02*
X41185Y-31286D01*
X41204Y-31324D01*
X41223Y-31343D01*
X41261Y-31362D01*
X41338Y-31362D01*
X41376Y-31343D01*
X41395Y-31324D01*
X41414Y-31286D01*
X41414Y-30962D01*
X41547Y-30962D02*
X41776Y-30962D01*
X41661Y-31362D02*
X41661Y-30962D01*
X42329Y-31514D02*
X42309Y-31495D01*
X42271Y-31438D01*
X42252Y-31400D01*
X42233Y-31343D01*
X42214Y-31248D01*
X42214Y-31171D01*
X42233Y-31076D01*
X42252Y-31019D01*
X42271Y-30981D01*
X42309Y-30924D01*
X42329Y-30905D01*
X42557Y-30962D02*
X42596Y-30962D01*
X42634Y-30981D01*
X42653Y-31000D01*
X42672Y-31038D01*
X42691Y-31114D01*
X42691Y-31210D01*
X42672Y-31286D01*
X42653Y-31324D01*
X42634Y-31343D01*
X42596Y-31362D01*
X42557Y-31362D01*
X42519Y-31343D01*
X42500Y-31324D01*
X42481Y-31286D01*
X42462Y-31210D01*
X42462Y-31114D01*
X42481Y-31038D01*
X42500Y-31000D01*
X42519Y-30981D01*
X42557Y-30962D01*
X42862Y-31210D02*
X43167Y-31210D01*
X43548Y-30962D02*
X43357Y-30962D01*
X43338Y-31152D01*
X43357Y-31133D01*
X43395Y-31114D01*
X43491Y-31114D01*
X43529Y-31133D01*
X43548Y-31152D01*
X43567Y-31190D01*
X43567Y-31286D01*
X43548Y-31324D01*
X43529Y-31343D01*
X43491Y-31362D01*
X43395Y-31362D01*
X43357Y-31343D01*
X43338Y-31324D01*
X43681Y-30962D02*
X43814Y-31362D01*
X43948Y-30962D01*
X44043Y-31514D02*
X44062Y-31495D01*
X44100Y-31438D01*
X44119Y-31400D01*
X44138Y-31343D01*
X44157Y-31248D01*
X44157Y-31171D01*
X44138Y-31076D01*
X44119Y-31019D01*
X44100Y-30981D01*
X44062Y-30924D01*
X44043Y-30905D01*
X40096Y-29981D02*
X40058Y-29962D01*
X40001Y-29962D01*
X39943Y-29981D01*
X39905Y-30019D01*
X39886Y-30057D01*
X39867Y-30133D01*
X39867Y-30190D01*
X39886Y-30267D01*
X39905Y-30305D01*
X39943Y-30343D01*
X40001Y-30362D01*
X40039Y-30362D01*
X40096Y-30343D01*
X40115Y-30324D01*
X40115Y-30190D01*
X40039Y-30190D01*
X40286Y-30362D02*
X40286Y-29962D01*
X40515Y-30362D01*
X40515Y-29962D01*
X40705Y-30362D02*
X40705Y-29962D01*
X40800Y-29962D01*
X40858Y-29981D01*
X40896Y-30019D01*
X40915Y-30057D01*
X40934Y-30133D01*
X40934Y-30190D01*
X40915Y-30267D01*
X40896Y-30305D01*
X40858Y-30343D01*
X40800Y-30362D01*
X40705Y-30362D01*
X48800Y-36900D02*
X48800Y-36300D01*
X49300Y-36600D02*
X48800Y-36900D01*
X49300Y-36600D02*
X48800Y-36300D01*
X65048Y-45900D02*
X64868Y-45764D01*
X64676Y-45645D01*
X64474Y-45542D01*
X64265Y-45457D01*
X64048Y-45391D01*
X63827Y-45344D01*
X63603Y-45316D01*
X63378Y-45309D01*
X63152Y-45320D01*
X62928Y-45352D01*
X62708Y-45403D01*
X62493Y-45473D01*
X62285Y-45561D01*
X62085Y-45667D01*
X61895Y-45790D01*
X61717Y-45930D01*
X61552Y-46084D01*
X61400Y-46252D01*
X61264Y-46432D01*
X61145Y-46624D01*
X61042Y-46826D01*
X60957Y-47035D01*
X60891Y-47252D01*
X60844Y-47473D01*
X60816Y-47697D01*
X60809Y-47922D01*
X60820Y-48148D01*
X60852Y-48372D01*
X60870Y-48461D01*
X71730Y-48461D02*
X71769Y-48238D01*
X71789Y-48013D01*
X71789Y-47787D01*
X71769Y-47562D01*
X71730Y-47339D01*
X71672Y-47121D01*
X71594Y-46909D01*
X71499Y-46704D01*
X71386Y-46508D01*
X71256Y-46323D01*
X71111Y-46149D01*
X70951Y-45989D01*
X70777Y-45844D01*
X70592Y-45714D01*
X70396Y-45601D01*
X70191Y-45506D01*
X69979Y-45428D01*
X69761Y-45370D01*
X69538Y-45331D01*
X69313Y-45311D01*
X69087Y-45311D01*
X68862Y-45331D01*
X68639Y-45370D01*
X68421Y-45428D01*
X68209Y-45506D01*
X68004Y-45601D01*
X67808Y-45714D01*
X67623Y-45844D01*
X67552Y-45900D01*
X69200Y-50500D02*
X69426Y-50490D01*
X69651Y-50460D01*
X69872Y-50411D01*
X70089Y-50343D01*
X70298Y-50256D01*
X70500Y-50151D01*
X70596Y-50092D01*
X62004Y-50092D02*
X62200Y-50206D01*
X62406Y-50302D01*
X62619Y-50379D01*
X62838Y-50438D01*
X63061Y-50477D01*
X63287Y-50497D01*
X63400Y-50500D01*
X63400Y-50500D02*
X69200Y-50500D01*
X65050Y-45900D02*
X67550Y-45900D01*
X46750Y-40200D02*
X46749Y-40209D01*
X46746Y-40219D01*
X46741Y-40227D01*
X46735Y-40235D01*
X46727Y-40241D01*
X46719Y-40246D01*
X46710Y-40248D01*
X46700Y-40249D01*
X46691Y-40249D01*
X46682Y-40246D01*
X46673Y-40241D01*
X46666Y-40235D01*
X46659Y-40228D01*
X46655Y-40219D01*
X46652Y-40210D01*
X46651Y-40200D01*
X46651Y-40191D01*
X46654Y-40182D01*
X46658Y-40173D01*
X46665Y-40166D01*
X46672Y-40159D01*
X46680Y-40155D01*
X46690Y-40152D01*
X46699Y-40151D01*
X46708Y-40151D01*
X46718Y-40154D01*
X46726Y-40158D01*
X46734Y-40164D01*
X46740Y-40172D01*
X46745Y-40180D01*
X46748Y-40189D01*
X46749Y-40199D01*
X46750Y-40200D01*
X46811Y-40200D02*
X46808Y-40221D01*
X46802Y-40242D01*
X46792Y-40261D01*
X46778Y-40278D01*
X46762Y-40292D01*
X46743Y-40302D01*
X46722Y-40308D01*
X46700Y-40310D01*
X46680Y-40309D01*
X46659Y-40302D01*
X46640Y-40292D01*
X46623Y-40279D01*
X46609Y-40262D01*
X46598Y-40243D01*
X46592Y-40223D01*
X46590Y-40201D01*
X46591Y-40180D01*
X46597Y-40160D01*
X46607Y-40140D01*
X46621Y-40123D01*
X46637Y-40109D01*
X46656Y-40099D01*
X46677Y-40092D01*
X46698Y-40090D01*
X46719Y-40091D01*
X46740Y-40097D01*
X46759Y-40107D01*
X46776Y-40120D01*
X46790Y-40137D01*
X46801Y-40155D01*
X46808Y-40176D01*
X46810Y-40197D01*
X46811Y-40200D01*
G54D12*
X51828Y-32386D02*
X51856Y-32414D01*
X51828Y-32443D01*
X51799Y-32414D01*
X51828Y-32386D01*
X51828Y-32443D01*
X51828Y-32214D02*
X51799Y-31871D01*
X51828Y-31843D01*
X51856Y-31871D01*
X51828Y-32214D01*
X51828Y-31843D01*
X52571Y-32443D02*
X52571Y-31843D01*
X52571Y-32129D02*
X52914Y-32129D01*
X52914Y-32443D02*
X52914Y-31843D01*
X53428Y-32414D02*
X53371Y-32443D01*
X53257Y-32443D01*
X53200Y-32414D01*
X53171Y-32357D01*
X53171Y-32129D01*
X53200Y-32071D01*
X53257Y-32043D01*
X53371Y-32043D01*
X53428Y-32071D01*
X53457Y-32129D01*
X53457Y-32186D01*
X53171Y-32243D01*
X53971Y-32443D02*
X53971Y-32129D01*
X53942Y-32071D01*
X53885Y-32043D01*
X53771Y-32043D01*
X53714Y-32071D01*
X53971Y-32414D02*
X53914Y-32443D01*
X53771Y-32443D01*
X53714Y-32414D01*
X53685Y-32357D01*
X53685Y-32300D01*
X53714Y-32243D01*
X53771Y-32214D01*
X53914Y-32214D01*
X53971Y-32186D01*
X54171Y-32043D02*
X54400Y-32043D01*
X54257Y-31843D02*
X54257Y-32357D01*
X54285Y-32414D01*
X54343Y-32443D01*
X54400Y-32443D01*
X54571Y-32414D02*
X54628Y-32443D01*
X54743Y-32443D01*
X54800Y-32414D01*
X54828Y-32357D01*
X54828Y-32329D01*
X54800Y-32271D01*
X54743Y-32243D01*
X54657Y-32243D01*
X54600Y-32214D01*
X54571Y-32157D01*
X54571Y-32129D01*
X54600Y-32071D01*
X54657Y-32043D01*
X54743Y-32043D01*
X54800Y-32071D01*
X55086Y-32443D02*
X55086Y-32043D01*
X55086Y-31843D02*
X55057Y-31871D01*
X55086Y-31900D01*
X55114Y-31871D01*
X55086Y-31843D01*
X55086Y-31900D01*
X55372Y-32043D02*
X55372Y-32443D01*
X55372Y-32100D02*
X55400Y-32071D01*
X55458Y-32043D01*
X55543Y-32043D01*
X55600Y-32071D01*
X55629Y-32129D01*
X55629Y-32443D01*
X55915Y-32443D02*
X55915Y-31843D01*
X55972Y-32214D02*
X56143Y-32443D01*
X56143Y-32043D02*
X55915Y-32271D01*
X56858Y-32443D02*
X56858Y-32043D01*
X56858Y-31843D02*
X56829Y-31871D01*
X56858Y-31900D01*
X56886Y-31871D01*
X56858Y-31843D01*
X56858Y-31900D01*
X57115Y-32414D02*
X57172Y-32443D01*
X57287Y-32443D01*
X57344Y-32414D01*
X57372Y-32357D01*
X57372Y-32329D01*
X57344Y-32271D01*
X57287Y-32243D01*
X57201Y-32243D01*
X57144Y-32214D01*
X57115Y-32157D01*
X57115Y-32129D01*
X57144Y-32071D01*
X57201Y-32043D01*
X57287Y-32043D01*
X57344Y-32071D01*
X58373Y-32443D02*
X58087Y-32443D01*
X58087Y-31843D01*
X58573Y-32443D02*
X58573Y-31843D01*
X58773Y-31843D02*
X58973Y-32443D01*
X59173Y-31843D01*
X59373Y-32129D02*
X59573Y-32129D01*
X59659Y-32443D02*
X59373Y-32443D01*
X59373Y-31843D01*
X59659Y-31843D01*
X60373Y-32386D02*
X60401Y-32414D01*
X60373Y-32443D01*
X60344Y-32414D01*
X60373Y-32386D01*
X60373Y-32443D01*
X60373Y-32214D02*
X60344Y-31871D01*
X60373Y-31843D01*
X60401Y-31871D01*
X60373Y-32214D01*
X60373Y-31843D01*
G54D11*
X47600Y-47750D02*
X47599Y-47759D01*
X47596Y-47769D01*
X47591Y-47777D01*
X47585Y-47785D01*
X47577Y-47791D01*
X47569Y-47796D01*
X47560Y-47798D01*
X47550Y-47799D01*
X47541Y-47799D01*
X47532Y-47796D01*
X47523Y-47791D01*
X47516Y-47785D01*
X47509Y-47778D01*
X47505Y-47769D01*
X47502Y-47760D01*
X47501Y-47750D01*
X47501Y-47741D01*
X47504Y-47732D01*
X47508Y-47723D01*
X47515Y-47716D01*
X47522Y-47709D01*
X47530Y-47705D01*
X47540Y-47702D01*
X47549Y-47701D01*
X47558Y-47701D01*
X47568Y-47704D01*
X47576Y-47708D01*
X47584Y-47714D01*
X47590Y-47722D01*
X47595Y-47730D01*
X47598Y-47739D01*
X47599Y-47749D01*
X47600Y-47750D01*
X47661Y-47750D02*
X47658Y-47771D01*
X47652Y-47792D01*
X47642Y-47811D01*
X47628Y-47828D01*
X47612Y-47842D01*
X47593Y-47852D01*
X47572Y-47858D01*
X47550Y-47860D01*
X47530Y-47859D01*
X47509Y-47852D01*
X47490Y-47842D01*
X47473Y-47829D01*
X47459Y-47812D01*
X47448Y-47793D01*
X47442Y-47773D01*
X47440Y-47751D01*
X47441Y-47730D01*
X47447Y-47710D01*
X47457Y-47690D01*
X47471Y-47673D01*
X47487Y-47659D01*
X47506Y-47649D01*
X47527Y-47642D01*
X47548Y-47640D01*
X47569Y-47641D01*
X47590Y-47647D01*
X47609Y-47657D01*
X47626Y-47670D01*
X47640Y-47687D01*
X47651Y-47705D01*
X47658Y-47726D01*
X47660Y-47747D01*
X47661Y-47750D01*
X42800Y-47750D02*
X42799Y-47759D01*
X42796Y-47769D01*
X42791Y-47777D01*
X42785Y-47785D01*
X42777Y-47791D01*
X42769Y-47796D01*
X42760Y-47798D01*
X42750Y-47799D01*
X42741Y-47799D01*
X42732Y-47796D01*
X42723Y-47791D01*
X42716Y-47785D01*
X42709Y-47778D01*
X42705Y-47769D01*
X42702Y-47760D01*
X42701Y-47750D01*
X42701Y-47741D01*
X42704Y-47732D01*
X42708Y-47723D01*
X42715Y-47716D01*
X42722Y-47709D01*
X42730Y-47705D01*
X42740Y-47702D01*
X42749Y-47701D01*
X42758Y-47701D01*
X42768Y-47704D01*
X42776Y-47708D01*
X42784Y-47714D01*
X42790Y-47722D01*
X42795Y-47730D01*
X42798Y-47739D01*
X42799Y-47749D01*
X42800Y-47750D01*
X42850Y-47750D02*
X42848Y-47769D01*
X42842Y-47788D01*
X42833Y-47805D01*
X42820Y-47820D01*
X42805Y-47832D01*
X42788Y-47842D01*
X42770Y-47847D01*
X42750Y-47849D01*
X42732Y-47848D01*
X42713Y-47842D01*
X42696Y-47833D01*
X42681Y-47821D01*
X42668Y-47806D01*
X42659Y-47789D01*
X42653Y-47770D01*
X42651Y-47751D01*
X42652Y-47732D01*
X42658Y-47714D01*
X42666Y-47696D01*
X42679Y-47681D01*
X42693Y-47668D01*
X42710Y-47659D01*
X42729Y-47653D01*
X42748Y-47651D01*
X42767Y-47652D01*
X42786Y-47657D01*
X42803Y-47666D01*
X42818Y-47678D01*
X42831Y-47693D01*
X42841Y-47710D01*
X42847Y-47728D01*
X42849Y-47748D01*
X42850Y-47750D01*
G54D12*
X70744Y-40885D02*
X70720Y-40861D01*
X70695Y-40812D01*
X70695Y-40690D01*
X70720Y-40642D01*
X70744Y-40617D01*
X70793Y-40593D01*
X70842Y-40593D01*
X70915Y-40617D01*
X71207Y-40910D01*
X71207Y-40593D01*
X70695Y-40276D02*
X70695Y-40227D01*
X70720Y-40178D01*
X70744Y-40154D01*
X70793Y-40129D01*
X70890Y-40105D01*
X71012Y-40105D01*
X71110Y-40129D01*
X71158Y-40154D01*
X71183Y-40178D01*
X71207Y-40227D01*
X71207Y-40276D01*
X71183Y-40324D01*
X71158Y-40349D01*
X71110Y-40373D01*
X71012Y-40397D01*
X70890Y-40397D01*
X70793Y-40373D01*
X70744Y-40349D01*
X70720Y-40324D01*
X70695Y-40276D01*
X70695Y-39958D02*
X71207Y-39788D01*
X70695Y-39617D01*
X71012Y-39446D02*
X71012Y-39056D01*
X70695Y-38568D02*
X70695Y-38812D01*
X70939Y-38836D01*
X70915Y-38812D01*
X70890Y-38763D01*
X70890Y-38641D01*
X70915Y-38593D01*
X70939Y-38568D01*
X70988Y-38544D01*
X71110Y-38544D01*
X71158Y-38568D01*
X71183Y-38593D01*
X71207Y-38641D01*
X71207Y-38763D01*
X71183Y-38812D01*
X71158Y-38836D01*
X71061Y-38348D02*
X71061Y-38105D01*
X71207Y-38397D02*
X70695Y-38227D01*
X71207Y-38056D01*
X70695Y-37812D02*
X70817Y-37812D01*
X70768Y-37934D02*
X70817Y-37812D01*
X70768Y-37690D01*
X70915Y-37885D02*
X70817Y-37812D01*
X70915Y-37739D01*
G54D11*
X73500Y-33200D02*
X73256Y-33211D01*
X73014Y-33243D01*
X72776Y-33296D01*
X72543Y-33369D01*
X72317Y-33463D01*
X72101Y-33576D01*
X71894Y-33707D01*
X71701Y-33856D01*
X71521Y-34021D01*
X71356Y-34201D01*
X71207Y-34394D01*
X71076Y-34601D01*
X70963Y-34817D01*
X70869Y-35043D01*
X70796Y-35276D01*
X70743Y-35514D01*
X70711Y-35756D01*
X70700Y-36000D01*
X71550Y-41000D02*
X71550Y-38000D01*
X71538Y-41003D02*
X71371Y-41182D01*
X71221Y-41375D01*
X71088Y-41579D01*
X70973Y-41795D01*
X70878Y-42020D01*
X70802Y-42252D01*
X70747Y-42490D01*
X70713Y-42732D01*
X70701Y-42976D01*
X70700Y-43000D01*
X56100Y-36400D02*
X56100Y-36700D01*
X56050Y-36550D02*
X55900Y-36400D01*
X55900Y-36400D02*
X55900Y-36700D01*
X55900Y-36700D02*
X56050Y-36550D01*
X55650Y-36550D02*
X56350Y-36550D01*
X58300Y-34000D02*
X58296Y-33913D01*
X58284Y-33827D01*
X58265Y-33742D01*
X58239Y-33658D01*
X58206Y-33578D01*
X58166Y-33501D01*
X58119Y-33427D01*
X58066Y-33358D01*
X58007Y-33293D01*
X57942Y-33234D01*
X57873Y-33181D01*
X57800Y-33134D01*
X57722Y-33094D01*
X57642Y-33061D01*
X57558Y-33035D01*
X57473Y-33016D01*
X57387Y-33004D01*
X57300Y-33000D01*
X54700Y-33000D02*
X54613Y-33004D01*
X54527Y-33016D01*
X54442Y-33035D01*
X54358Y-33061D01*
X54278Y-33094D01*
X54201Y-33134D01*
X54127Y-33181D01*
X54058Y-33234D01*
X53993Y-33293D01*
X53934Y-33358D01*
X53881Y-33427D01*
X53834Y-33501D01*
X53794Y-33578D01*
X53761Y-33658D01*
X53735Y-33742D01*
X53716Y-33827D01*
X53704Y-33913D01*
X53700Y-34000D01*
X57300Y-37100D02*
X57387Y-37096D01*
X57473Y-37084D01*
X57558Y-37065D01*
X57642Y-37039D01*
X57722Y-37006D01*
X57800Y-36966D01*
X57873Y-36919D01*
X57942Y-36866D01*
X58007Y-36807D01*
X58066Y-36742D01*
X58119Y-36673D01*
X58166Y-36599D01*
X58206Y-36522D01*
X58239Y-36442D01*
X58265Y-36358D01*
X58284Y-36273D01*
X58296Y-36187D01*
X58300Y-36100D01*
X53700Y-36100D02*
X53704Y-36187D01*
X53716Y-36273D01*
X53735Y-36358D01*
X53761Y-36442D01*
X53794Y-36522D01*
X53834Y-36599D01*
X53881Y-36673D01*
X53934Y-36742D01*
X53993Y-36807D01*
X54058Y-36866D01*
X54127Y-36919D01*
X54201Y-36966D01*
X54278Y-37006D01*
X54358Y-37039D01*
X54442Y-37065D01*
X54527Y-37084D01*
X54613Y-37096D01*
X54700Y-37100D01*
X54700Y-37100D02*
X57300Y-37100D01*
X58300Y-36100D02*
X58300Y-34000D01*
X54700Y-33000D02*
X57300Y-33000D01*
X53700Y-36100D02*
X53700Y-34000D01*
X65272Y-49914D02*
X65729Y-49914D01*
X65500Y-50143D02*
X65500Y-49686D01*
X66910Y-49914D02*
X67291Y-49914D01*
X65850Y-49900D02*
X65843Y-49967D01*
X65823Y-50033D01*
X65791Y-50093D01*
X65748Y-50146D01*
X65695Y-50190D01*
X65635Y-50222D01*
X65570Y-50242D01*
X65502Y-50249D01*
X65435Y-50243D01*
X65369Y-50224D01*
X65309Y-50192D01*
X65256Y-50150D01*
X65212Y-50097D01*
X65179Y-50037D01*
X65158Y-49972D01*
X65151Y-49904D01*
X65156Y-49837D01*
X65175Y-49772D01*
X65206Y-49711D01*
X65249Y-49657D01*
X65301Y-49613D01*
X65360Y-49580D01*
X65425Y-49559D01*
X65493Y-49551D01*
X65560Y-49556D01*
X65626Y-49574D01*
X65687Y-49605D01*
X65741Y-49647D01*
X65786Y-49699D01*
X65819Y-49758D01*
X65841Y-49823D01*
X65849Y-49891D01*
X65850Y-49900D01*
X67450Y-49900D02*
X67443Y-49967D01*
X67423Y-50033D01*
X67391Y-50093D01*
X67348Y-50146D01*
X67295Y-50190D01*
X67235Y-50222D01*
X67170Y-50242D01*
X67102Y-50249D01*
X67035Y-50243D01*
X66969Y-50224D01*
X66909Y-50192D01*
X66856Y-50150D01*
X66812Y-50097D01*
X66779Y-50037D01*
X66758Y-49972D01*
X66751Y-49904D01*
X66756Y-49837D01*
X66775Y-49772D01*
X66806Y-49711D01*
X66849Y-49657D01*
X66901Y-49613D01*
X66960Y-49580D01*
X67025Y-49559D01*
X67093Y-49551D01*
X67160Y-49556D01*
X67226Y-49574D01*
X67287Y-49605D01*
X67341Y-49647D01*
X67386Y-49699D01*
X67419Y-49758D01*
X67441Y-49823D01*
X67449Y-49891D01*
X67450Y-49900D01*
X76000Y-40800D02*
X75992Y-40877D01*
X75969Y-40952D01*
X75933Y-41021D01*
X75883Y-41081D01*
X75823Y-41131D01*
X75755Y-41168D01*
X75680Y-41191D01*
X75602Y-41199D01*
X75526Y-41192D01*
X75451Y-41170D01*
X75381Y-41134D01*
X75321Y-41085D01*
X75270Y-41025D01*
X75233Y-40957D01*
X75209Y-40883D01*
X75201Y-40805D01*
X75207Y-40728D01*
X75229Y-40653D01*
X75264Y-40584D01*
X75313Y-40523D01*
X75372Y-40472D01*
X75440Y-40434D01*
X75515Y-40410D01*
X75592Y-40401D01*
X75669Y-40407D01*
X75744Y-40428D01*
X75814Y-40463D01*
X75875Y-40511D01*
X75926Y-40570D01*
X75965Y-40638D01*
X75990Y-40712D01*
X75999Y-40789D01*
X76000Y-40800D01*
X76024Y-38200D02*
X76015Y-38282D01*
X75992Y-38361D01*
X75953Y-38434D01*
X75900Y-38498D01*
X75837Y-38551D01*
X75764Y-38590D01*
X75685Y-38615D01*
X75602Y-38623D01*
X75521Y-38616D01*
X75442Y-38593D01*
X75368Y-38554D01*
X75304Y-38502D01*
X75251Y-38439D01*
X75211Y-38367D01*
X75186Y-38288D01*
X75177Y-38205D01*
X75183Y-38124D01*
X75206Y-38044D01*
X75244Y-37971D01*
X75295Y-37906D01*
X75359Y-37852D01*
X75431Y-37812D01*
X75509Y-37786D01*
X75592Y-37777D01*
X75673Y-37783D01*
X75753Y-37805D01*
X75827Y-37843D01*
X75892Y-37893D01*
X75946Y-37956D01*
X75987Y-38028D01*
X76013Y-38107D01*
X76023Y-38189D01*
X76024Y-38200D01*
X75372Y-38214D02*
X75829Y-38214D01*
X75600Y-38443D02*
X75600Y-37986D01*
X75614Y-40990D02*
X75614Y-40609D01*
X43642Y-51710D02*
X43947Y-51710D01*
X44461Y-51862D02*
X44537Y-51862D01*
X44576Y-51843D01*
X44595Y-51824D01*
X44633Y-51767D01*
X44652Y-51690D01*
X44652Y-51538D01*
X44633Y-51500D01*
X44614Y-51481D01*
X44576Y-51462D01*
X44499Y-51462D01*
X44461Y-51481D01*
X44442Y-51500D01*
X44423Y-51538D01*
X44423Y-51633D01*
X44442Y-51671D01*
X44461Y-51690D01*
X44499Y-51710D01*
X44576Y-51710D01*
X44614Y-51690D01*
X44633Y-51671D01*
X44652Y-51633D01*
X44766Y-51462D02*
X44899Y-51862D01*
X45033Y-51462D01*
X45471Y-51862D02*
X45471Y-51462D01*
X45471Y-51614D02*
X45509Y-51595D01*
X45586Y-51595D01*
X45624Y-51614D01*
X45643Y-51633D01*
X45662Y-51671D01*
X45662Y-51786D01*
X45643Y-51824D01*
X45624Y-51843D01*
X45586Y-51862D01*
X45509Y-51862D01*
X45471Y-51843D01*
X46005Y-51862D02*
X46005Y-51652D01*
X45986Y-51614D01*
X45948Y-51595D01*
X45871Y-51595D01*
X45833Y-51614D01*
X46005Y-51843D02*
X45967Y-51862D01*
X45871Y-51862D01*
X45833Y-51843D01*
X45814Y-51805D01*
X45814Y-51767D01*
X45833Y-51729D01*
X45871Y-51710D01*
X45967Y-51710D01*
X46005Y-51690D01*
X46138Y-51595D02*
X46290Y-51595D01*
X46195Y-51462D02*
X46195Y-51805D01*
X46214Y-51843D01*
X46252Y-51862D01*
X46290Y-51862D01*
X46367Y-51595D02*
X46519Y-51595D01*
X46424Y-51462D02*
X46424Y-51805D01*
X46443Y-51843D01*
X46481Y-51862D01*
X46519Y-51862D01*
X46806Y-51843D02*
X46768Y-51862D01*
X46691Y-51862D01*
X46653Y-51843D01*
X46634Y-51805D01*
X46634Y-51652D01*
X46653Y-51614D01*
X46691Y-51595D01*
X46768Y-51595D01*
X46806Y-51614D01*
X46825Y-51652D01*
X46825Y-51690D01*
X46634Y-51729D01*
X46996Y-51862D02*
X46996Y-51595D01*
X46996Y-51671D02*
X47015Y-51633D01*
X47034Y-51614D01*
X47072Y-51595D01*
X47111Y-51595D01*
X47206Y-51595D02*
X47301Y-51862D01*
X47397Y-51595D02*
X47301Y-51862D01*
X47263Y-51957D01*
X47244Y-51976D01*
X47206Y-51995D01*
X47854Y-51710D02*
X48159Y-51710D01*
X48007Y-51862D02*
X48007Y-51557D01*
G54D13*
X61741Y-51978D02*
X61741Y-50797D01*
X62135Y-51640D01*
X62529Y-50797D01*
X62529Y-51978D01*
X63597Y-51190D02*
X63597Y-51978D01*
X63091Y-51190D02*
X63091Y-51809D01*
X63147Y-51921D01*
X63260Y-51978D01*
X63429Y-51978D01*
X63541Y-51921D01*
X63597Y-51865D01*
X64329Y-51978D02*
X64216Y-51921D01*
X64160Y-51809D01*
X64160Y-50797D01*
X64610Y-51190D02*
X65060Y-51190D01*
X64779Y-50797D02*
X64779Y-51809D01*
X64835Y-51921D01*
X64948Y-51978D01*
X65060Y-51978D01*
X65454Y-51978D02*
X65454Y-51190D01*
X65454Y-50797D02*
X65398Y-50853D01*
X65454Y-50909D01*
X65510Y-50853D01*
X65454Y-50797D01*
X65454Y-50909D01*
X66016Y-51978D02*
X66016Y-51190D01*
X66016Y-51303D02*
X66072Y-51246D01*
X66185Y-51190D01*
X66354Y-51190D01*
X66466Y-51246D01*
X66522Y-51359D01*
X66522Y-51978D01*
X66522Y-51359D02*
X66579Y-51246D01*
X66691Y-51190D01*
X66860Y-51190D01*
X66972Y-51246D01*
X67028Y-51359D01*
X67028Y-51978D01*
X68041Y-51921D02*
X67929Y-51978D01*
X67704Y-51978D01*
X67591Y-51921D01*
X67535Y-51809D01*
X67535Y-51359D01*
X67591Y-51246D01*
X67704Y-51190D01*
X67929Y-51190D01*
X68041Y-51246D01*
X68097Y-51359D01*
X68097Y-51471D01*
X67535Y-51584D01*
X68434Y-51190D02*
X68884Y-51190D01*
X68603Y-50797D02*
X68603Y-51809D01*
X68659Y-51921D01*
X68772Y-51978D01*
X68884Y-51978D01*
X69728Y-51921D02*
X69616Y-51978D01*
X69391Y-51978D01*
X69278Y-51921D01*
X69222Y-51809D01*
X69222Y-51359D01*
X69278Y-51246D01*
X69391Y-51190D01*
X69616Y-51190D01*
X69728Y-51246D01*
X69784Y-51359D01*
X69784Y-51471D01*
X69222Y-51584D01*
X70290Y-51978D02*
X70290Y-51190D01*
X70290Y-51415D02*
X70346Y-51303D01*
X70403Y-51246D01*
X70515Y-51190D01*
X70628Y-51190D01*
G54D11*
X76300Y-43000D02*
X76300Y-36000D01*
X70700Y-43000D02*
X70711Y-43244D01*
X70743Y-43486D01*
X70796Y-43724D01*
X70869Y-43957D01*
X70963Y-44183D01*
X71076Y-44399D01*
X71207Y-44606D01*
X71356Y-44799D01*
X71521Y-44979D01*
X71701Y-45144D01*
X71894Y-45293D01*
X72101Y-45424D01*
X72317Y-45537D01*
X72543Y-45631D01*
X72776Y-45704D01*
X73014Y-45757D01*
X73256Y-45789D01*
X73500Y-45800D01*
X73500Y-45800D02*
X73744Y-45789D01*
X73986Y-45757D01*
X74224Y-45704D01*
X74457Y-45631D01*
X74683Y-45537D01*
X74900Y-45424D01*
X75106Y-45293D01*
X75299Y-45144D01*
X75479Y-44979D01*
X75644Y-44799D01*
X75793Y-44606D01*
X75924Y-44399D01*
X76037Y-44183D01*
X76131Y-43957D01*
X76204Y-43724D01*
X76257Y-43486D01*
X76289Y-43244D01*
X76300Y-43000D01*
X70700Y-36000D02*
X70711Y-36244D01*
X70743Y-36486D01*
X70796Y-36724D01*
X70869Y-36957D01*
X70963Y-37183D01*
X71076Y-37399D01*
X71207Y-37606D01*
X71356Y-37799D01*
X71521Y-37979D01*
X71538Y-37997D01*
X76300Y-36000D02*
X76289Y-35756D01*
X76257Y-35514D01*
X76204Y-35276D01*
X76131Y-35043D01*
X76037Y-34817D01*
X75924Y-34601D01*
X75793Y-34394D01*
X75644Y-34201D01*
X75479Y-34021D01*
X75299Y-33856D01*
X75106Y-33707D01*
X74900Y-33576D01*
X74683Y-33463D01*
X74457Y-33369D01*
X74224Y-33296D01*
X73986Y-33243D01*
X73744Y-33211D01*
X73500Y-33200D01*
G54D12*
X54614Y-34143D02*
X54614Y-33543D01*
X54842Y-33543D01*
X54900Y-33571D01*
X54928Y-33600D01*
X54957Y-33657D01*
X54957Y-33743D01*
X54928Y-33800D01*
X54900Y-33829D01*
X54842Y-33857D01*
X54614Y-33857D01*
X55328Y-33543D02*
X55442Y-33543D01*
X55500Y-33571D01*
X55557Y-33629D01*
X55585Y-33743D01*
X55585Y-33943D01*
X55557Y-34057D01*
X55500Y-34114D01*
X55442Y-34143D01*
X55328Y-34143D01*
X55271Y-34114D01*
X55214Y-34057D01*
X55185Y-33943D01*
X55185Y-33743D01*
X55214Y-33629D01*
X55271Y-33571D01*
X55328Y-33543D01*
X55786Y-33543D02*
X55929Y-34143D01*
X56043Y-33714D01*
X56157Y-34143D01*
X56300Y-33543D01*
X56529Y-33829D02*
X56729Y-33829D01*
X56815Y-34143D02*
X56529Y-34143D01*
X56529Y-33543D01*
X56815Y-33543D01*
X57415Y-34143D02*
X57215Y-33857D01*
X57072Y-34143D02*
X57072Y-33543D01*
X57300Y-33543D01*
X57358Y-33571D01*
X57386Y-33600D01*
X57415Y-33657D01*
X57415Y-33743D01*
X57386Y-33800D01*
X57358Y-33829D01*
X57300Y-33857D01*
X57072Y-33857D01*
X37857Y-43943D02*
X37799Y-43914D01*
X37771Y-43886D01*
X37742Y-43829D01*
X37742Y-43657D01*
X37771Y-43600D01*
X37799Y-43571D01*
X37857Y-43543D01*
X37942Y-43543D01*
X37999Y-43571D01*
X38028Y-43600D01*
X38057Y-43657D01*
X38057Y-43829D01*
X38028Y-43886D01*
X37999Y-43914D01*
X37942Y-43943D01*
X37857Y-43943D01*
X38314Y-43543D02*
X38314Y-43943D01*
X38314Y-43600D02*
X38342Y-43571D01*
X38400Y-43543D01*
X38485Y-43543D01*
X38542Y-43571D01*
X38571Y-43629D01*
X38571Y-43943D01*
X39285Y-43314D02*
X38771Y-44086D01*
X39572Y-43943D02*
X39514Y-43914D01*
X39486Y-43886D01*
X39457Y-43829D01*
X39457Y-43657D01*
X39486Y-43600D01*
X39514Y-43571D01*
X39572Y-43543D01*
X39657Y-43543D01*
X39714Y-43571D01*
X39743Y-43600D01*
X39772Y-43657D01*
X39772Y-43829D01*
X39743Y-43886D01*
X39714Y-43914D01*
X39657Y-43943D01*
X39572Y-43943D01*
X39943Y-43543D02*
X40172Y-43543D01*
X40029Y-43943D02*
X40029Y-43429D01*
X40057Y-43371D01*
X40115Y-43343D01*
X40172Y-43343D01*
X40286Y-43543D02*
X40515Y-43543D01*
X40372Y-43943D02*
X40372Y-43429D01*
X40400Y-43371D01*
X40458Y-43343D01*
X40515Y-43343D01*
X65358Y-45443D02*
X65015Y-45443D01*
X65187Y-45443D02*
X65187Y-44843D01*
X65130Y-44929D01*
X65072Y-44986D01*
X65015Y-45014D01*
X65529Y-44843D02*
X65729Y-45443D01*
X65929Y-44843D01*
X66557Y-44814D02*
X66043Y-45586D01*
X67072Y-45443D02*
X66729Y-45443D01*
X66901Y-45443D02*
X66901Y-44843D01*
X66844Y-44929D01*
X66786Y-44986D01*
X66729Y-45014D01*
X67300Y-45271D02*
X67586Y-45271D01*
X67243Y-45443D02*
X67443Y-44843D01*
X67643Y-45443D01*
G54D13*
X72122Y-40078D02*
X72122Y-38897D01*
X72403Y-38897D01*
X72572Y-38953D01*
X72685Y-39065D01*
X72741Y-39178D01*
X72797Y-39403D01*
X72797Y-39571D01*
X72741Y-39796D01*
X72685Y-39909D01*
X72572Y-40021D01*
X72403Y-40078D01*
X72122Y-40078D01*
X73303Y-38897D02*
X73303Y-39853D01*
X73359Y-39965D01*
X73416Y-40021D01*
X73528Y-40078D01*
X73753Y-40078D01*
X73866Y-40021D01*
X73922Y-39965D01*
X73978Y-39853D01*
X73978Y-38897D01*
X74371Y-38897D02*
X75046Y-38897D01*
X74709Y-40078D02*
X74709Y-38897D01*
X52963Y-51865D02*
X52907Y-51921D01*
X52738Y-51978D01*
X52626Y-51978D01*
X52457Y-51921D01*
X52344Y-51809D01*
X52288Y-51696D01*
X52232Y-51471D01*
X52232Y-51303D01*
X52288Y-51078D01*
X52344Y-50965D01*
X52457Y-50853D01*
X52626Y-50797D01*
X52738Y-50797D01*
X52907Y-50853D01*
X52963Y-50909D01*
X53469Y-50797D02*
X53469Y-51753D01*
X53525Y-51865D01*
X53582Y-51921D01*
X53694Y-51978D01*
X53919Y-51978D01*
X54032Y-51921D01*
X54088Y-51865D01*
X54144Y-51753D01*
X54144Y-50797D01*
X55381Y-51978D02*
X54987Y-51415D01*
X54706Y-51978D02*
X54706Y-50797D01*
X55156Y-50797D01*
X55269Y-50853D01*
X55325Y-50909D01*
X55381Y-51021D01*
X55381Y-51190D01*
X55325Y-51303D01*
X55269Y-51359D01*
X55156Y-51415D01*
X54706Y-51415D01*
X56562Y-51978D02*
X56168Y-51415D01*
X55887Y-51978D02*
X55887Y-50797D01*
X56337Y-50797D01*
X56450Y-50853D01*
X56506Y-50909D01*
X56562Y-51021D01*
X56562Y-51190D01*
X56506Y-51303D01*
X56450Y-51359D01*
X56337Y-51415D01*
X55887Y-51415D01*
X57068Y-51359D02*
X57462Y-51359D01*
X57631Y-51978D02*
X57068Y-51978D01*
X57068Y-50797D01*
X57631Y-50797D01*
X58137Y-51978D02*
X58137Y-50797D01*
X58812Y-51978D01*
X58812Y-50797D01*
X59205Y-50797D02*
X59880Y-50797D01*
X59543Y-51978D02*
X59543Y-50797D01*
G54D12*
X39072Y-34943D02*
X39072Y-34343D01*
X39215Y-35000D02*
X39672Y-35000D01*
X40158Y-34886D02*
X40129Y-34914D01*
X40043Y-34943D01*
X39986Y-34943D01*
X39901Y-34914D01*
X39843Y-34857D01*
X39815Y-34800D01*
X39786Y-34686D01*
X39786Y-34600D01*
X39815Y-34486D01*
X39843Y-34429D01*
X39901Y-34371D01*
X39986Y-34343D01*
X40043Y-34343D01*
X40129Y-34371D01*
X40158Y-34400D01*
X40386Y-34771D02*
X40672Y-34771D01*
X40329Y-34943D02*
X40529Y-34343D01*
X40729Y-34943D01*
X41215Y-34943D02*
X40929Y-34943D01*
X40929Y-34343D01*
G54D11*
X54509Y-14910D02*
X54814Y-14910D01*
X55385Y-14871D02*
X55385Y-15062D01*
X55252Y-14662D02*
X55385Y-14871D01*
X55519Y-14662D01*
X55824Y-15062D02*
X55824Y-14852D01*
X55805Y-14814D01*
X55767Y-14795D01*
X55690Y-14795D01*
X55652Y-14814D01*
X55824Y-15043D02*
X55786Y-15062D01*
X55690Y-15062D01*
X55652Y-15043D01*
X55633Y-15005D01*
X55633Y-14967D01*
X55652Y-14929D01*
X55690Y-14910D01*
X55786Y-14910D01*
X55824Y-14890D01*
X56186Y-14795D02*
X56186Y-15062D01*
X56014Y-14795D02*
X56014Y-15005D01*
X56033Y-15043D01*
X56071Y-15062D01*
X56129Y-15062D01*
X56167Y-15043D01*
X56186Y-15024D01*
X56376Y-15062D02*
X56376Y-14662D01*
X56471Y-14662D01*
X56529Y-14681D01*
X56567Y-14719D01*
X56586Y-14757D01*
X56605Y-14833D01*
X56605Y-14890D01*
X56586Y-14967D01*
X56567Y-15005D01*
X56529Y-15043D01*
X56471Y-15062D01*
X56376Y-15062D01*
X56967Y-15062D02*
X56776Y-15062D01*
X56776Y-14662D01*
X57348Y-14662D02*
X57481Y-15062D01*
X57615Y-14662D01*
X57958Y-15062D02*
X57729Y-15062D01*
X57843Y-15062D02*
X57843Y-14662D01*
X57805Y-14719D01*
X57767Y-14757D01*
X57729Y-14776D01*
X58129Y-15024D02*
X58148Y-15043D01*
X58129Y-15062D01*
X58110Y-15043D01*
X58129Y-15024D01*
X58129Y-15062D01*
X58395Y-14662D02*
X58434Y-14662D01*
X58472Y-14681D01*
X58491Y-14700D01*
X58510Y-14738D01*
X58529Y-14814D01*
X58529Y-14910D01*
X58510Y-14986D01*
X58491Y-15024D01*
X58472Y-15043D01*
X58434Y-15062D01*
X58395Y-15062D01*
X58357Y-15043D01*
X58338Y-15024D01*
X58319Y-14986D01*
X58300Y-14910D01*
X58300Y-14814D01*
X58319Y-14738D01*
X58338Y-14700D01*
X58357Y-14681D01*
X58395Y-14662D01*
X58776Y-14662D02*
X58815Y-14662D01*
X58853Y-14681D01*
X58872Y-14700D01*
X58891Y-14738D01*
X58910Y-14814D01*
X58910Y-14910D01*
X58891Y-14986D01*
X58872Y-15024D01*
X58853Y-15043D01*
X58815Y-15062D01*
X58776Y-15062D01*
X58738Y-15043D01*
X58719Y-15024D01*
X58700Y-14986D01*
X58681Y-14910D01*
X58681Y-14814D01*
X58700Y-14738D01*
X58719Y-14700D01*
X58738Y-14681D01*
X58776Y-14662D01*
X59386Y-14910D02*
X59691Y-14910D01*
X50887Y-15854D02*
X50867Y-15835D01*
X50829Y-15778D01*
X50810Y-15740D01*
X50791Y-15683D01*
X50772Y-15588D01*
X50772Y-15511D01*
X50791Y-15416D01*
X50810Y-15359D01*
X50829Y-15321D01*
X50867Y-15264D01*
X50887Y-15245D01*
X51115Y-15511D02*
X51115Y-15702D01*
X50982Y-15302D02*
X51115Y-15511D01*
X51249Y-15302D01*
X51344Y-15854D02*
X51363Y-15835D01*
X51401Y-15778D01*
X51420Y-15740D01*
X51439Y-15683D01*
X51458Y-15588D01*
X51458Y-15511D01*
X51439Y-15416D01*
X51420Y-15359D01*
X51401Y-15321D01*
X51363Y-15264D01*
X51344Y-15245D01*
X51802Y-15683D02*
X51764Y-15702D01*
X51687Y-15702D01*
X51649Y-15683D01*
X51630Y-15645D01*
X51630Y-15492D01*
X51649Y-15454D01*
X51687Y-15435D01*
X51764Y-15435D01*
X51802Y-15454D01*
X51821Y-15492D01*
X51821Y-15530D01*
X51630Y-15569D01*
X51935Y-15435D02*
X52087Y-15435D01*
X51992Y-15302D02*
X51992Y-15645D01*
X52011Y-15683D01*
X52049Y-15702D01*
X52087Y-15702D01*
X52641Y-15854D02*
X52621Y-15835D01*
X52583Y-15778D01*
X52564Y-15740D01*
X52545Y-15683D01*
X52526Y-15588D01*
X52526Y-15511D01*
X52545Y-15416D01*
X52564Y-15359D01*
X52583Y-15321D01*
X52621Y-15264D01*
X52641Y-15245D01*
X52965Y-15702D02*
X52965Y-15492D01*
X52946Y-15454D01*
X52908Y-15435D01*
X52831Y-15435D01*
X52793Y-15454D01*
X52965Y-15683D02*
X52927Y-15702D01*
X52831Y-15702D01*
X52793Y-15683D01*
X52774Y-15645D01*
X52774Y-15607D01*
X52793Y-15569D01*
X52831Y-15550D01*
X52927Y-15550D01*
X52965Y-15530D01*
X53117Y-15854D02*
X53136Y-15835D01*
X53174Y-15778D01*
X53193Y-15740D01*
X53212Y-15683D01*
X53231Y-15588D01*
X53231Y-15511D01*
X53212Y-15416D01*
X53193Y-15359D01*
X53174Y-15321D01*
X53136Y-15264D01*
X53117Y-15245D01*
X53422Y-15435D02*
X53422Y-15702D01*
X53422Y-15473D02*
X53441Y-15454D01*
X53479Y-15435D01*
X53537Y-15435D01*
X53575Y-15454D01*
X53594Y-15492D01*
X53594Y-15702D01*
X53841Y-15702D02*
X53803Y-15683D01*
X53784Y-15664D01*
X53765Y-15626D01*
X53765Y-15511D01*
X53784Y-15473D01*
X53803Y-15454D01*
X53841Y-15435D01*
X53899Y-15435D01*
X53937Y-15454D01*
X53956Y-15473D01*
X53975Y-15511D01*
X53975Y-15626D01*
X53956Y-15664D01*
X53937Y-15683D01*
X53899Y-15702D01*
X53841Y-15702D01*
X54089Y-15435D02*
X54241Y-15435D01*
X54146Y-15302D02*
X54146Y-15645D01*
X54165Y-15683D01*
X54203Y-15702D01*
X54241Y-15702D01*
X54375Y-15702D02*
X54375Y-15302D01*
X54547Y-15702D02*
X54547Y-15492D01*
X54528Y-15454D01*
X54490Y-15435D01*
X54432Y-15435D01*
X54394Y-15454D01*
X54375Y-15473D01*
X54890Y-15683D02*
X54852Y-15702D01*
X54775Y-15702D01*
X54737Y-15683D01*
X54718Y-15645D01*
X54718Y-15492D01*
X54737Y-15454D01*
X54775Y-15435D01*
X54852Y-15435D01*
X54890Y-15454D01*
X54909Y-15492D01*
X54909Y-15530D01*
X54718Y-15569D01*
X55080Y-15702D02*
X55080Y-15435D01*
X55080Y-15511D02*
X55099Y-15473D01*
X55118Y-15454D01*
X55156Y-15435D01*
X55195Y-15435D01*
X55748Y-15854D02*
X55728Y-15835D01*
X55690Y-15778D01*
X55671Y-15740D01*
X55652Y-15683D01*
X55633Y-15588D01*
X55633Y-15511D01*
X55652Y-15416D01*
X55671Y-15359D01*
X55690Y-15321D01*
X55728Y-15264D01*
X55748Y-15245D01*
X56072Y-15435D02*
X56072Y-15702D01*
X55900Y-15435D02*
X55900Y-15645D01*
X55919Y-15683D01*
X55957Y-15702D01*
X56015Y-15702D01*
X56053Y-15683D01*
X56072Y-15664D01*
X56224Y-15854D02*
X56243Y-15835D01*
X56281Y-15778D01*
X56300Y-15740D01*
X56319Y-15683D01*
X56338Y-15588D01*
X56338Y-15511D01*
X56319Y-15416D01*
X56300Y-15359D01*
X56281Y-15321D01*
X56243Y-15264D01*
X56224Y-15245D01*
X56510Y-15683D02*
X56548Y-15702D01*
X56624Y-15702D01*
X56663Y-15683D01*
X56682Y-15645D01*
X56682Y-15626D01*
X56663Y-15588D01*
X56624Y-15569D01*
X56567Y-15569D01*
X56529Y-15550D01*
X56510Y-15511D01*
X56510Y-15492D01*
X56529Y-15454D01*
X56567Y-15435D01*
X56624Y-15435D01*
X56663Y-15454D01*
X57006Y-15683D02*
X56968Y-15702D01*
X56891Y-15702D01*
X56853Y-15683D01*
X56834Y-15645D01*
X56834Y-15492D01*
X56853Y-15454D01*
X56891Y-15435D01*
X56968Y-15435D01*
X57006Y-15454D01*
X57025Y-15492D01*
X57025Y-15530D01*
X56834Y-15569D01*
X57253Y-15702D02*
X57215Y-15683D01*
X57196Y-15645D01*
X57196Y-15302D01*
X57559Y-15683D02*
X57521Y-15702D01*
X57444Y-15702D01*
X57406Y-15683D01*
X57387Y-15645D01*
X57387Y-15492D01*
X57406Y-15454D01*
X57444Y-15435D01*
X57521Y-15435D01*
X57559Y-15454D01*
X57578Y-15492D01*
X57578Y-15530D01*
X57387Y-15569D01*
X57730Y-15683D02*
X57768Y-15702D01*
X57844Y-15702D01*
X57883Y-15683D01*
X57902Y-15645D01*
X57902Y-15626D01*
X57883Y-15588D01*
X57844Y-15569D01*
X57787Y-15569D01*
X57749Y-15550D01*
X57730Y-15511D01*
X57730Y-15492D01*
X57749Y-15454D01*
X57787Y-15435D01*
X57844Y-15435D01*
X57883Y-15454D01*
X58054Y-15683D02*
X58092Y-15702D01*
X58168Y-15702D01*
X58207Y-15683D01*
X58226Y-15645D01*
X58226Y-15626D01*
X58207Y-15588D01*
X58168Y-15569D01*
X58111Y-15569D01*
X58073Y-15550D01*
X58054Y-15511D01*
X58054Y-15492D01*
X58073Y-15454D01*
X58111Y-15435D01*
X58168Y-15435D01*
X58207Y-15454D01*
X58817Y-15854D02*
X58797Y-15835D01*
X58759Y-15778D01*
X58740Y-15740D01*
X58721Y-15683D01*
X58702Y-15588D01*
X58702Y-15511D01*
X58721Y-15416D01*
X58740Y-15359D01*
X58759Y-15321D01*
X58797Y-15264D01*
X58817Y-15245D01*
X58969Y-15702D02*
X58969Y-15302D01*
X59064Y-15302D01*
X59122Y-15321D01*
X59160Y-15359D01*
X59179Y-15397D01*
X59198Y-15473D01*
X59198Y-15530D01*
X59179Y-15607D01*
X59160Y-15645D01*
X59122Y-15683D01*
X59064Y-15702D01*
X58969Y-15702D01*
X59331Y-15854D02*
X59350Y-15835D01*
X59388Y-15778D01*
X59407Y-15740D01*
X59426Y-15683D01*
X59445Y-15588D01*
X59445Y-15511D01*
X59426Y-15416D01*
X59407Y-15359D01*
X59388Y-15321D01*
X59350Y-15264D01*
X59331Y-15245D01*
X59808Y-15435D02*
X59808Y-15702D01*
X59636Y-15435D02*
X59636Y-15645D01*
X59655Y-15683D01*
X59693Y-15702D01*
X59751Y-15702D01*
X59789Y-15683D01*
X59808Y-15664D01*
X59998Y-15702D02*
X59998Y-15435D01*
X59998Y-15473D02*
X60017Y-15454D01*
X60055Y-15435D01*
X60113Y-15435D01*
X60151Y-15454D01*
X60170Y-15492D01*
X60170Y-15702D01*
X60170Y-15492D02*
X60189Y-15454D01*
X60227Y-15435D01*
X60284Y-15435D01*
X60322Y-15454D01*
X60341Y-15492D01*
X60341Y-15702D01*
X60531Y-15702D02*
X60531Y-15435D01*
X60531Y-15473D02*
X60550Y-15454D01*
X60588Y-15435D01*
X60646Y-15435D01*
X60684Y-15454D01*
X60703Y-15492D01*
X60703Y-15702D01*
X60703Y-15492D02*
X60722Y-15454D01*
X60760Y-15435D01*
X60817Y-15435D01*
X60855Y-15454D01*
X60874Y-15492D01*
X60874Y-15702D01*
X61026Y-15435D02*
X61121Y-15702D01*
X61217Y-15435D02*
X61121Y-15702D01*
X61083Y-15797D01*
X61064Y-15816D01*
X61026Y-15835D01*
X61789Y-15854D02*
X61769Y-15835D01*
X61731Y-15778D01*
X61712Y-15740D01*
X61693Y-15683D01*
X61674Y-15588D01*
X61674Y-15511D01*
X61693Y-15416D01*
X61712Y-15359D01*
X61731Y-15321D01*
X61769Y-15264D01*
X61789Y-15245D01*
X62132Y-15702D02*
X61941Y-15702D01*
X61941Y-15302D01*
X62227Y-15854D02*
X62246Y-15835D01*
X62284Y-15778D01*
X62303Y-15740D01*
X62322Y-15683D01*
X62341Y-15588D01*
X62341Y-15511D01*
X62322Y-15416D01*
X62303Y-15359D01*
X62284Y-15321D01*
X62246Y-15264D01*
X62227Y-15245D01*
X62589Y-15702D02*
X62551Y-15683D01*
X62532Y-15664D01*
X62513Y-15626D01*
X62513Y-15511D01*
X62532Y-15473D01*
X62551Y-15454D01*
X62589Y-15435D01*
X62647Y-15435D01*
X62685Y-15454D01*
X62704Y-15473D01*
X62723Y-15511D01*
X62723Y-15626D01*
X62704Y-15664D01*
X62685Y-15683D01*
X62647Y-15702D01*
X62589Y-15702D01*
X63066Y-15702D02*
X63066Y-15492D01*
X63047Y-15454D01*
X63009Y-15435D01*
X62932Y-15435D01*
X62894Y-15454D01*
X63066Y-15683D02*
X63028Y-15702D01*
X62932Y-15702D01*
X62894Y-15683D01*
X62875Y-15645D01*
X62875Y-15607D01*
X62894Y-15569D01*
X62932Y-15550D01*
X63028Y-15550D01*
X63066Y-15530D01*
X63428Y-15702D02*
X63428Y-15302D01*
X63428Y-15683D02*
X63390Y-15702D01*
X63313Y-15702D01*
X63275Y-15683D01*
X63256Y-15664D01*
X63237Y-15626D01*
X63237Y-15511D01*
X63256Y-15473D01*
X63275Y-15454D01*
X63313Y-15435D01*
X63390Y-15435D01*
X63428Y-15454D01*
X52804Y-15980D02*
X52823Y-15961D01*
X52861Y-15942D01*
X52957Y-15942D01*
X52995Y-15961D01*
X53014Y-15980D01*
X53033Y-16018D01*
X53033Y-16056D01*
X53014Y-16113D01*
X52785Y-16342D01*
X53033Y-16342D01*
X53280Y-15942D02*
X53319Y-15942D01*
X53357Y-15961D01*
X53376Y-15980D01*
X53395Y-16018D01*
X53414Y-16094D01*
X53414Y-16190D01*
X53395Y-16266D01*
X53376Y-16304D01*
X53357Y-16323D01*
X53319Y-16342D01*
X53280Y-16342D01*
X53242Y-16323D01*
X53223Y-16304D01*
X53204Y-16266D01*
X53185Y-16190D01*
X53185Y-16094D01*
X53204Y-16018D01*
X53223Y-15980D01*
X53242Y-15961D01*
X53280Y-15942D01*
X53795Y-16342D02*
X53566Y-16342D01*
X53680Y-16342D02*
X53680Y-15942D01*
X53642Y-15999D01*
X53604Y-16037D01*
X53566Y-16056D01*
X53947Y-15980D02*
X53966Y-15961D01*
X54004Y-15942D01*
X54100Y-15942D01*
X54138Y-15961D01*
X54157Y-15980D01*
X54176Y-16018D01*
X54176Y-16056D01*
X54157Y-16113D01*
X53928Y-16342D01*
X54176Y-16342D01*
X54652Y-16190D02*
X54957Y-16190D01*
X55452Y-16342D02*
X55452Y-15942D01*
X55452Y-16094D02*
X55490Y-16075D01*
X55567Y-16075D01*
X55605Y-16094D01*
X55624Y-16113D01*
X55643Y-16151D01*
X55643Y-16266D01*
X55624Y-16304D01*
X55605Y-16323D01*
X55567Y-16342D01*
X55490Y-16342D01*
X55452Y-16323D01*
X55871Y-16342D02*
X55833Y-16323D01*
X55814Y-16285D01*
X55814Y-15942D01*
X56081Y-16342D02*
X56043Y-16323D01*
X56024Y-16304D01*
X56005Y-16266D01*
X56005Y-16151D01*
X56024Y-16113D01*
X56043Y-16094D01*
X56081Y-16075D01*
X56139Y-16075D01*
X56177Y-16094D01*
X56196Y-16113D01*
X56215Y-16151D01*
X56215Y-16266D01*
X56196Y-16304D01*
X56177Y-16323D01*
X56139Y-16342D01*
X56081Y-16342D01*
X56558Y-16075D02*
X56558Y-16399D01*
X56539Y-16437D01*
X56520Y-16456D01*
X56481Y-16475D01*
X56424Y-16475D01*
X56386Y-16456D01*
X56558Y-16323D02*
X56520Y-16342D01*
X56443Y-16342D01*
X56405Y-16323D01*
X56386Y-16304D01*
X56367Y-16266D01*
X56367Y-16151D01*
X56386Y-16113D01*
X56405Y-16094D01*
X56443Y-16075D01*
X56520Y-16075D01*
X56558Y-16094D01*
X56748Y-16304D02*
X56767Y-16323D01*
X56748Y-16342D01*
X56729Y-16323D01*
X56748Y-16304D01*
X56748Y-16342D01*
X56919Y-16323D02*
X56957Y-16342D01*
X57033Y-16342D01*
X57072Y-16323D01*
X57091Y-16285D01*
X57091Y-16266D01*
X57072Y-16228D01*
X57033Y-16209D01*
X56976Y-16209D01*
X56938Y-16190D01*
X56919Y-16151D01*
X56919Y-16132D01*
X56938Y-16094D01*
X56976Y-16075D01*
X57033Y-16075D01*
X57072Y-16094D01*
X57262Y-16075D02*
X57262Y-16475D01*
X57262Y-16094D02*
X57300Y-16075D01*
X57377Y-16075D01*
X57415Y-16094D01*
X57434Y-16113D01*
X57453Y-16151D01*
X57453Y-16266D01*
X57434Y-16304D01*
X57415Y-16323D01*
X57377Y-16342D01*
X57300Y-16342D01*
X57262Y-16323D01*
X57624Y-16342D02*
X57624Y-16075D01*
X57624Y-15942D02*
X57605Y-15961D01*
X57624Y-15980D01*
X57643Y-15961D01*
X57624Y-15942D01*
X57624Y-15980D01*
X57757Y-16075D02*
X57909Y-16075D01*
X57814Y-15942D02*
X57814Y-16285D01*
X57833Y-16323D01*
X57871Y-16342D01*
X57909Y-16342D01*
X58005Y-16075D02*
X58215Y-16075D01*
X58005Y-16342D01*
X58215Y-16342D01*
X58520Y-16323D02*
X58482Y-16342D01*
X58405Y-16342D01*
X58367Y-16323D01*
X58348Y-16285D01*
X58348Y-16132D01*
X58367Y-16094D01*
X58405Y-16075D01*
X58482Y-16075D01*
X58520Y-16094D01*
X58539Y-16132D01*
X58539Y-16170D01*
X58348Y-16209D01*
X58710Y-16075D02*
X58710Y-16342D01*
X58710Y-16113D02*
X58729Y-16094D01*
X58767Y-16075D01*
X58825Y-16075D01*
X58863Y-16094D01*
X58882Y-16132D01*
X58882Y-16342D01*
X59072Y-16075D02*
X59072Y-16475D01*
X59072Y-16094D02*
X59110Y-16075D01*
X59187Y-16075D01*
X59225Y-16094D01*
X59244Y-16113D01*
X59263Y-16151D01*
X59263Y-16266D01*
X59244Y-16304D01*
X59225Y-16323D01*
X59187Y-16342D01*
X59110Y-16342D01*
X59072Y-16323D01*
X59377Y-16075D02*
X59529Y-16075D01*
X59434Y-16342D02*
X59434Y-15999D01*
X59453Y-15961D01*
X59491Y-15942D01*
X59529Y-15942D01*
X59816Y-16323D02*
X59778Y-16342D01*
X59701Y-16342D01*
X59663Y-16323D01*
X59644Y-16285D01*
X59644Y-16132D01*
X59663Y-16094D01*
X59701Y-16075D01*
X59778Y-16075D01*
X59816Y-16094D01*
X59835Y-16132D01*
X59835Y-16170D01*
X59644Y-16209D01*
X60006Y-16342D02*
X60006Y-16075D01*
X60006Y-15942D02*
X59987Y-15961D01*
X60006Y-15980D01*
X60025Y-15961D01*
X60006Y-15942D01*
X60006Y-15980D01*
X60253Y-16342D02*
X60215Y-16323D01*
X60196Y-16285D01*
X60196Y-15942D01*
X60406Y-16304D02*
X60425Y-16323D01*
X60406Y-16342D01*
X60387Y-16323D01*
X60406Y-16304D01*
X60406Y-16342D01*
X60653Y-16342D02*
X60615Y-16323D01*
X60596Y-16304D01*
X60577Y-16266D01*
X60577Y-16151D01*
X60596Y-16113D01*
X60615Y-16094D01*
X60653Y-16075D01*
X60711Y-16075D01*
X60749Y-16094D01*
X60768Y-16113D01*
X60787Y-16151D01*
X60787Y-16266D01*
X60768Y-16304D01*
X60749Y-16323D01*
X60711Y-16342D01*
X60653Y-16342D01*
X60958Y-16342D02*
X60958Y-16075D01*
X60958Y-16151D02*
X60977Y-16113D01*
X60996Y-16094D01*
X61034Y-16075D01*
X61073Y-16075D01*
X61378Y-16075D02*
X61378Y-16399D01*
X61359Y-16437D01*
X61340Y-16456D01*
X61301Y-16475D01*
X61244Y-16475D01*
X61206Y-16456D01*
X61378Y-16323D02*
X61340Y-16342D01*
X61263Y-16342D01*
X61225Y-16323D01*
X61206Y-16304D01*
X61187Y-16266D01*
X61187Y-16151D01*
X61206Y-16113D01*
X61225Y-16094D01*
X61263Y-16075D01*
X61340Y-16075D01*
X61378Y-16094D01*
G54D14*
X41833Y-39089D02*
X38311Y-39089D01*
X38311Y-39089D02*
X38311Y-35311D01*
X38311Y-35311D02*
X41833Y-35311D01*
X42089Y-35665D02*
X41833Y-35921D01*
X41833Y-35921D02*
X41833Y-38479D01*
X41833Y-38479D02*
X42089Y-38735D01*
X42089Y-38735D02*
X42089Y-38833D01*
X42089Y-38833D02*
X41833Y-39089D01*
G54D10*
X38252Y-36315D02*
X37779Y-36315D01*
X37779Y-36315D02*
X37779Y-36000D01*
X37779Y-36000D02*
X37956Y-36000D01*
X37956Y-36000D02*
X37956Y-35783D01*
X37956Y-35783D02*
X37779Y-35783D01*
X37779Y-35783D02*
X37779Y-35449D01*
X37779Y-35449D02*
X38252Y-35449D01*
G54D14*
X42089Y-35567D02*
X42089Y-35665D01*
X41833Y-35311D02*
X42089Y-35567D01*
G54D15*
G36*
X54132Y-24205D02*
X54036Y-24205D01*
X54036Y-24109D01*
X54036Y-22491D01*
X44374Y-22491D01*
X44374Y-24109D01*
X54036Y-24109D01*
X54036Y-24205D01*
X44287Y-24205D01*
X44287Y-22405D01*
X54132Y-22405D01*
X54132Y-24205D01*
X54132Y-24205D01*
X54132Y-24205D01*
G37*
G36*
X45000Y-23810D02*
X44957Y-23810D01*
X44930Y-23809D01*
X44918Y-23804D01*
X44913Y-23792D01*
X44913Y-23781D01*
X44913Y-23752D01*
X44913Y-23656D01*
X44913Y-23579D01*
X44913Y-23502D01*
X44831Y-23502D01*
X44750Y-23502D01*
X44750Y-23579D01*
X44750Y-23656D01*
X44831Y-23656D01*
X44913Y-23656D01*
X44913Y-23752D01*
X44831Y-23752D01*
X44750Y-23752D01*
X44750Y-23781D01*
X44748Y-23798D01*
X44742Y-23807D01*
X44725Y-23810D01*
X44701Y-23810D01*
X44653Y-23810D01*
X44653Y-23613D01*
X44653Y-23415D01*
X44827Y-23415D01*
X45000Y-23415D01*
X45000Y-23613D01*
X45000Y-23810D01*
X45000Y-23810D01*
X45000Y-23810D01*
G37*
G36*
X46792Y-23627D02*
X46320Y-23627D01*
X46320Y-23810D01*
X46224Y-23810D01*
X46224Y-23627D01*
X45752Y-23627D01*
X45752Y-23540D01*
X46224Y-23540D01*
X46224Y-23482D01*
X46224Y-23396D01*
X46224Y-23319D01*
X46224Y-23243D01*
X46224Y-23166D01*
X45954Y-23166D01*
X45954Y-23243D01*
X46224Y-23243D01*
X46224Y-23319D01*
X45954Y-23319D01*
X45954Y-23396D01*
X46224Y-23396D01*
X46224Y-23482D01*
X45857Y-23482D01*
X45857Y-23089D01*
X46686Y-23089D01*
X46686Y-23482D01*
X46599Y-23482D01*
X46599Y-23396D01*
X46599Y-23319D01*
X46599Y-23243D01*
X46599Y-23166D01*
X46320Y-23166D01*
X46320Y-23243D01*
X46599Y-23243D01*
X46599Y-23319D01*
X46320Y-23319D01*
X46320Y-23396D01*
X46599Y-23396D01*
X46599Y-23482D01*
X46320Y-23482D01*
X46320Y-23540D01*
X46792Y-23540D01*
X46792Y-23627D01*
X46792Y-23627D01*
X46792Y-23627D01*
G37*
G36*
X47322Y-23291D02*
X47207Y-23291D01*
X47092Y-23291D01*
X47082Y-23320D01*
X47075Y-23343D01*
X47071Y-23358D01*
X47071Y-23359D01*
X47080Y-23362D01*
X47105Y-23365D01*
X47141Y-23366D01*
X47183Y-23367D01*
X47296Y-23367D01*
X47289Y-23461D01*
X47279Y-23558D01*
X47266Y-23637D01*
X47249Y-23700D01*
X47227Y-23747D01*
X47200Y-23780D01*
X47166Y-23800D01*
X47125Y-23808D01*
X47106Y-23809D01*
X47073Y-23807D01*
X47045Y-23805D01*
X47036Y-23803D01*
X47017Y-23790D01*
X47006Y-23760D01*
X47004Y-23735D01*
X47006Y-23722D01*
X47013Y-23715D01*
X47033Y-23713D01*
X47055Y-23714D01*
X47098Y-23715D01*
X47126Y-23714D01*
X47143Y-23710D01*
X47153Y-23701D01*
X47160Y-23687D01*
X47162Y-23682D01*
X47168Y-23662D01*
X47175Y-23628D01*
X47183Y-23587D01*
X47189Y-23544D01*
X47194Y-23505D01*
X47196Y-23475D01*
X47196Y-23471D01*
X47187Y-23468D01*
X47163Y-23465D01*
X47126Y-23464D01*
X47081Y-23463D01*
X47071Y-23463D01*
X47017Y-23463D01*
X46979Y-23461D01*
X46957Y-23458D01*
X46947Y-23454D01*
X46946Y-23451D01*
X46949Y-23437D01*
X46957Y-23409D01*
X46967Y-23374D01*
X46970Y-23367D01*
X46993Y-23296D01*
X46945Y-23293D01*
X46898Y-23290D01*
X46898Y-23247D01*
X46898Y-23204D01*
X47110Y-23204D01*
X47322Y-23204D01*
X47322Y-23248D01*
X47322Y-23291D01*
X47322Y-23291D01*
X47322Y-23291D01*
G37*
G36*
X47919Y-23252D02*
X47914Y-23292D01*
X47900Y-23324D01*
X47880Y-23345D01*
X47874Y-23348D01*
X47856Y-23352D01*
X47823Y-23354D01*
X47779Y-23356D01*
X47729Y-23357D01*
X47712Y-23357D01*
X47650Y-23357D01*
X47604Y-23354D01*
X47572Y-23349D01*
X47550Y-23339D01*
X47538Y-23324D01*
X47531Y-23302D01*
X47527Y-23283D01*
X47522Y-23258D01*
X47514Y-23246D01*
X47499Y-23243D01*
X47494Y-23243D01*
X47473Y-23239D01*
X47463Y-23223D01*
X47461Y-23216D01*
X47455Y-23193D01*
X47452Y-23179D01*
X47458Y-23170D01*
X47479Y-23163D01*
X47486Y-23162D01*
X47510Y-23157D01*
X47521Y-23149D01*
X47524Y-23131D01*
X47524Y-23112D01*
X47524Y-23069D01*
X47482Y-23069D01*
X47440Y-23069D01*
X47435Y-23288D01*
X47431Y-23386D01*
X47427Y-23465D01*
X47421Y-23528D01*
X47414Y-23573D01*
X47413Y-23579D01*
X47403Y-23619D01*
X47390Y-23663D01*
X47374Y-23707D01*
X47359Y-23747D01*
X47344Y-23780D01*
X47332Y-23801D01*
X47327Y-23806D01*
X47313Y-23803D01*
X47291Y-23792D01*
X47281Y-23785D01*
X47245Y-23762D01*
X47260Y-23726D01*
X47282Y-23671D01*
X47302Y-23608D01*
X47320Y-23545D01*
X47331Y-23491D01*
X47331Y-23490D01*
X47334Y-23463D01*
X47337Y-23420D01*
X47339Y-23365D01*
X47340Y-23302D01*
X47341Y-23236D01*
X47341Y-23207D01*
X47341Y-22983D01*
X47447Y-22983D01*
X47553Y-22983D01*
X47553Y-22877D01*
X47553Y-22771D01*
X47601Y-22771D01*
X47649Y-22771D01*
X47649Y-22804D01*
X47649Y-22838D01*
X47775Y-22838D01*
X47900Y-22838D01*
X47900Y-22881D01*
X47900Y-22925D01*
X47775Y-22925D01*
X47649Y-22925D01*
X47649Y-22954D01*
X47649Y-22983D01*
X47784Y-22983D01*
X47919Y-22983D01*
X47919Y-23029D01*
X47915Y-23068D01*
X47900Y-23105D01*
X47890Y-23120D01*
X47874Y-23145D01*
X47860Y-23161D01*
X47855Y-23166D01*
X47844Y-23160D01*
X47824Y-23147D01*
X47817Y-23141D01*
X47797Y-23125D01*
X47790Y-23114D01*
X47795Y-23100D01*
X47800Y-23093D01*
X47816Y-23069D01*
X47718Y-23069D01*
X47620Y-23069D01*
X47620Y-23104D01*
X47620Y-23139D01*
X47676Y-23132D01*
X47709Y-23128D01*
X47737Y-23124D01*
X47748Y-23121D01*
X47760Y-23121D01*
X47765Y-23135D01*
X47765Y-23145D01*
X47767Y-23170D01*
X47770Y-23188D01*
X47769Y-23196D01*
X47756Y-23203D01*
X47726Y-23208D01*
X47720Y-23209D01*
X47675Y-23214D01*
X47646Y-23220D01*
X47630Y-23226D01*
X47623Y-23235D01*
X47622Y-23247D01*
X47622Y-23251D01*
X47624Y-23263D01*
X47630Y-23271D01*
X47643Y-23275D01*
X47667Y-23277D01*
X47707Y-23279D01*
X47711Y-23279D01*
X47758Y-23280D01*
X47790Y-23277D01*
X47809Y-23269D01*
X47821Y-23254D01*
X47828Y-23232D01*
X47832Y-23214D01*
X47839Y-23206D01*
X47853Y-23207D01*
X47880Y-23215D01*
X47882Y-23215D01*
X47907Y-23225D01*
X47917Y-23237D01*
X47919Y-23252D01*
X47919Y-23252D01*
X47919Y-23252D01*
G37*
G36*
X47939Y-23655D02*
X47936Y-23684D01*
X47928Y-23719D01*
X47912Y-23760D01*
X47889Y-23785D01*
X47854Y-23797D01*
X47806Y-23798D01*
X47772Y-23796D01*
X47748Y-23790D01*
X47731Y-23779D01*
X47720Y-23760D01*
X47714Y-23730D01*
X47711Y-23686D01*
X47709Y-23627D01*
X47706Y-23492D01*
X47645Y-23492D01*
X47585Y-23492D01*
X47579Y-23567D01*
X47574Y-23609D01*
X47568Y-23649D01*
X47561Y-23678D01*
X47561Y-23679D01*
X47550Y-23703D01*
X47530Y-23732D01*
X47507Y-23762D01*
X47484Y-23788D01*
X47464Y-23805D01*
X47453Y-23810D01*
X47439Y-23804D01*
X47420Y-23788D01*
X47415Y-23783D01*
X47398Y-23764D01*
X47390Y-23750D01*
X47389Y-23748D01*
X47395Y-23737D01*
X47411Y-23717D01*
X47427Y-23699D01*
X47449Y-23672D01*
X47465Y-23644D01*
X47476Y-23610D01*
X47484Y-23566D01*
X47490Y-23508D01*
X47490Y-23500D01*
X47497Y-23415D01*
X47650Y-23415D01*
X47803Y-23415D01*
X47806Y-23562D01*
X47807Y-23619D01*
X47809Y-23660D01*
X47811Y-23686D01*
X47815Y-23702D01*
X47820Y-23708D01*
X47823Y-23709D01*
X47832Y-23703D01*
X47838Y-23683D01*
X47840Y-23660D01*
X47843Y-23611D01*
X47891Y-23620D01*
X47918Y-23627D01*
X47933Y-23637D01*
X47939Y-23655D01*
X47939Y-23655D01*
X47939Y-23655D01*
G37*
G36*
X45646Y-22915D02*
X45549Y-22915D01*
X45453Y-22915D01*
X45453Y-23323D01*
X45453Y-23439D01*
X45452Y-23537D01*
X45451Y-23616D01*
X45449Y-23677D01*
X45447Y-23721D01*
X45444Y-23747D01*
X45442Y-23756D01*
X45429Y-23776D01*
X45407Y-23789D01*
X45373Y-23797D01*
X45326Y-23800D01*
X45299Y-23800D01*
X45214Y-23800D01*
X45208Y-23764D01*
X45202Y-23736D01*
X45197Y-23715D01*
X45197Y-23713D01*
X45197Y-23704D01*
X45205Y-23700D01*
X45224Y-23700D01*
X45260Y-23702D01*
X45305Y-23703D01*
X45333Y-23699D01*
X45342Y-23695D01*
X45346Y-23689D01*
X45349Y-23679D01*
X45351Y-23663D01*
X45353Y-23638D01*
X45354Y-23603D01*
X45355Y-23556D01*
X45356Y-23496D01*
X45356Y-23420D01*
X45357Y-23328D01*
X45357Y-23299D01*
X45357Y-22915D01*
X45207Y-22915D01*
X45058Y-22915D01*
X45058Y-22867D01*
X45058Y-22819D01*
X45352Y-22819D01*
X45646Y-22819D01*
X45646Y-22867D01*
X45646Y-22915D01*
X45646Y-22915D01*
X45646Y-22915D01*
G37*
G36*
X45000Y-23338D02*
X44644Y-23338D01*
X44644Y-23243D01*
X45000Y-23243D01*
X45000Y-23338D01*
X45000Y-23338D01*
X45000Y-23338D01*
G37*
G36*
X45000Y-23166D02*
X44644Y-23166D01*
X44644Y-23079D01*
X45000Y-23079D01*
X45000Y-23166D01*
X45000Y-23166D01*
X45000Y-23166D01*
G37*
G36*
X47283Y-23127D02*
X47197Y-23127D01*
X47197Y-23040D01*
X47197Y-22905D01*
X47023Y-22905D01*
X47023Y-23040D01*
X47197Y-23040D01*
X47197Y-23127D01*
X46937Y-23127D01*
X46937Y-22819D01*
X47283Y-22819D01*
X47283Y-23127D01*
X47283Y-23127D01*
X47283Y-23127D01*
G37*
G36*
X46224Y-23040D02*
X46127Y-23040D01*
X46127Y-22954D01*
X46127Y-22877D01*
X45915Y-22877D01*
X45915Y-22954D01*
X46127Y-22954D01*
X46127Y-23040D01*
X45829Y-23040D01*
X45829Y-22800D01*
X46224Y-22800D01*
X46224Y-23040D01*
X46224Y-23040D01*
X46224Y-23040D01*
G37*
G36*
X46705Y-23040D02*
X46619Y-23040D01*
X46619Y-22954D01*
X46619Y-22877D01*
X46407Y-22877D01*
X46407Y-22954D01*
X46619Y-22954D01*
X46619Y-23040D01*
X46310Y-23040D01*
X46310Y-22800D01*
X46705Y-22800D01*
X46705Y-23040D01*
X46705Y-23040D01*
X46705Y-23040D01*
G37*
G36*
X45039Y-22992D02*
X44817Y-22992D01*
X44596Y-22992D01*
X44596Y-22949D01*
X44596Y-22905D01*
X44677Y-22905D01*
X44714Y-22905D01*
X44743Y-22902D01*
X44758Y-22898D01*
X44759Y-22897D01*
X44755Y-22884D01*
X44746Y-22860D01*
X44740Y-22846D01*
X44722Y-22804D01*
X44753Y-22794D01*
X44788Y-22781D01*
X44810Y-22776D01*
X44823Y-22779D01*
X44833Y-22792D01*
X44842Y-22817D01*
X44844Y-22821D01*
X44856Y-22852D01*
X44865Y-22878D01*
X44869Y-22889D01*
X44874Y-22897D01*
X44886Y-22902D01*
X44909Y-22905D01*
X44947Y-22905D01*
X44956Y-22905D01*
X45039Y-22905D01*
X45039Y-22949D01*
X45039Y-22992D01*
X45039Y-22992D01*
X45039Y-22992D01*
G37*
G36*
X69932Y-24205D02*
X69836Y-24205D01*
X69836Y-24109D01*
X69836Y-22491D01*
X60174Y-22491D01*
X60174Y-24109D01*
X69836Y-24109D01*
X69836Y-24205D01*
X60087Y-24205D01*
X60087Y-22405D01*
X69932Y-22405D01*
X69932Y-24205D01*
X69932Y-24205D01*
X69932Y-24205D01*
G37*
G36*
X60800Y-23810D02*
X60757Y-23810D01*
X60730Y-23809D01*
X60718Y-23804D01*
X60713Y-23792D01*
X60713Y-23781D01*
X60713Y-23752D01*
X60713Y-23656D01*
X60713Y-23579D01*
X60713Y-23502D01*
X60631Y-23502D01*
X60550Y-23502D01*
X60550Y-23579D01*
X60550Y-23656D01*
X60631Y-23656D01*
X60713Y-23656D01*
X60713Y-23752D01*
X60631Y-23752D01*
X60550Y-23752D01*
X60550Y-23781D01*
X60548Y-23798D01*
X60542Y-23807D01*
X60525Y-23810D01*
X60501Y-23810D01*
X60453Y-23810D01*
X60453Y-23613D01*
X60453Y-23415D01*
X60627Y-23415D01*
X60800Y-23415D01*
X60800Y-23613D01*
X60800Y-23810D01*
X60800Y-23810D01*
X60800Y-23810D01*
G37*
G36*
X62592Y-23627D02*
X62120Y-23627D01*
X62120Y-23810D01*
X62024Y-23810D01*
X62024Y-23627D01*
X61552Y-23627D01*
X61552Y-23540D01*
X62024Y-23540D01*
X62024Y-23482D01*
X62024Y-23396D01*
X62024Y-23319D01*
X62024Y-23243D01*
X62024Y-23166D01*
X61754Y-23166D01*
X61754Y-23243D01*
X62024Y-23243D01*
X62024Y-23319D01*
X61754Y-23319D01*
X61754Y-23396D01*
X62024Y-23396D01*
X62024Y-23482D01*
X61657Y-23482D01*
X61657Y-23089D01*
X62486Y-23089D01*
X62486Y-23482D01*
X62399Y-23482D01*
X62399Y-23396D01*
X62399Y-23319D01*
X62399Y-23243D01*
X62399Y-23166D01*
X62120Y-23166D01*
X62120Y-23243D01*
X62399Y-23243D01*
X62399Y-23319D01*
X62120Y-23319D01*
X62120Y-23396D01*
X62399Y-23396D01*
X62399Y-23482D01*
X62120Y-23482D01*
X62120Y-23540D01*
X62592Y-23540D01*
X62592Y-23627D01*
X62592Y-23627D01*
X62592Y-23627D01*
G37*
G36*
X63122Y-23291D02*
X63007Y-23291D01*
X62892Y-23291D01*
X62882Y-23320D01*
X62875Y-23343D01*
X62871Y-23358D01*
X62871Y-23359D01*
X62880Y-23362D01*
X62905Y-23365D01*
X62941Y-23366D01*
X62983Y-23367D01*
X63096Y-23367D01*
X63089Y-23461D01*
X63079Y-23558D01*
X63066Y-23637D01*
X63049Y-23700D01*
X63027Y-23747D01*
X63000Y-23780D01*
X62966Y-23800D01*
X62925Y-23808D01*
X62906Y-23809D01*
X62873Y-23807D01*
X62845Y-23805D01*
X62836Y-23803D01*
X62817Y-23790D01*
X62806Y-23760D01*
X62804Y-23735D01*
X62806Y-23722D01*
X62813Y-23715D01*
X62833Y-23713D01*
X62855Y-23714D01*
X62898Y-23715D01*
X62926Y-23714D01*
X62943Y-23710D01*
X62953Y-23701D01*
X62960Y-23687D01*
X62962Y-23682D01*
X62968Y-23662D01*
X62975Y-23628D01*
X62983Y-23587D01*
X62989Y-23544D01*
X62994Y-23505D01*
X62996Y-23475D01*
X62996Y-23471D01*
X62987Y-23468D01*
X62963Y-23465D01*
X62926Y-23464D01*
X62881Y-23463D01*
X62871Y-23463D01*
X62817Y-23463D01*
X62779Y-23461D01*
X62757Y-23458D01*
X62747Y-23454D01*
X62746Y-23451D01*
X62749Y-23437D01*
X62757Y-23409D01*
X62767Y-23374D01*
X62770Y-23367D01*
X62793Y-23296D01*
X62745Y-23293D01*
X62698Y-23290D01*
X62698Y-23247D01*
X62698Y-23204D01*
X62910Y-23204D01*
X63122Y-23204D01*
X63122Y-23248D01*
X63122Y-23291D01*
X63122Y-23291D01*
X63122Y-23291D01*
G37*
G36*
X63719Y-23252D02*
X63714Y-23292D01*
X63700Y-23324D01*
X63680Y-23345D01*
X63674Y-23348D01*
X63656Y-23352D01*
X63623Y-23354D01*
X63579Y-23356D01*
X63529Y-23357D01*
X63512Y-23357D01*
X63450Y-23357D01*
X63404Y-23354D01*
X63372Y-23349D01*
X63350Y-23339D01*
X63338Y-23324D01*
X63331Y-23302D01*
X63327Y-23283D01*
X63322Y-23258D01*
X63314Y-23246D01*
X63299Y-23243D01*
X63294Y-23243D01*
X63273Y-23239D01*
X63263Y-23223D01*
X63261Y-23216D01*
X63255Y-23193D01*
X63252Y-23179D01*
X63258Y-23170D01*
X63279Y-23163D01*
X63286Y-23162D01*
X63310Y-23157D01*
X63321Y-23149D01*
X63324Y-23131D01*
X63324Y-23112D01*
X63324Y-23069D01*
X63282Y-23069D01*
X63240Y-23069D01*
X63235Y-23288D01*
X63231Y-23386D01*
X63227Y-23465D01*
X63221Y-23528D01*
X63214Y-23573D01*
X63213Y-23579D01*
X63203Y-23619D01*
X63190Y-23663D01*
X63174Y-23707D01*
X63159Y-23747D01*
X63144Y-23780D01*
X63132Y-23801D01*
X63127Y-23806D01*
X63113Y-23803D01*
X63091Y-23792D01*
X63081Y-23785D01*
X63045Y-23762D01*
X63060Y-23726D01*
X63082Y-23671D01*
X63102Y-23608D01*
X63120Y-23545D01*
X63131Y-23491D01*
X63131Y-23490D01*
X63134Y-23463D01*
X63137Y-23420D01*
X63139Y-23365D01*
X63140Y-23302D01*
X63141Y-23236D01*
X63141Y-23207D01*
X63141Y-22983D01*
X63247Y-22983D01*
X63353Y-22983D01*
X63353Y-22877D01*
X63353Y-22771D01*
X63401Y-22771D01*
X63449Y-22771D01*
X63449Y-22804D01*
X63449Y-22838D01*
X63575Y-22838D01*
X63700Y-22838D01*
X63700Y-22881D01*
X63700Y-22925D01*
X63575Y-22925D01*
X63449Y-22925D01*
X63449Y-22954D01*
X63449Y-22983D01*
X63584Y-22983D01*
X63719Y-22983D01*
X63719Y-23029D01*
X63715Y-23068D01*
X63700Y-23105D01*
X63690Y-23120D01*
X63674Y-23145D01*
X63660Y-23161D01*
X63655Y-23166D01*
X63644Y-23160D01*
X63624Y-23147D01*
X63617Y-23141D01*
X63597Y-23125D01*
X63590Y-23114D01*
X63595Y-23100D01*
X63600Y-23093D01*
X63616Y-23069D01*
X63518Y-23069D01*
X63420Y-23069D01*
X63420Y-23104D01*
X63420Y-23139D01*
X63476Y-23132D01*
X63509Y-23128D01*
X63537Y-23124D01*
X63548Y-23121D01*
X63560Y-23121D01*
X63565Y-23135D01*
X63565Y-23145D01*
X63567Y-23170D01*
X63570Y-23188D01*
X63569Y-23196D01*
X63556Y-23203D01*
X63526Y-23208D01*
X63520Y-23209D01*
X63475Y-23214D01*
X63446Y-23220D01*
X63430Y-23226D01*
X63423Y-23235D01*
X63422Y-23247D01*
X63422Y-23251D01*
X63424Y-23263D01*
X63430Y-23271D01*
X63443Y-23275D01*
X63467Y-23277D01*
X63507Y-23279D01*
X63511Y-23279D01*
X63558Y-23280D01*
X63590Y-23277D01*
X63609Y-23269D01*
X63621Y-23254D01*
X63628Y-23232D01*
X63632Y-23214D01*
X63639Y-23206D01*
X63653Y-23207D01*
X63680Y-23215D01*
X63682Y-23215D01*
X63707Y-23225D01*
X63717Y-23237D01*
X63719Y-23252D01*
X63719Y-23252D01*
X63719Y-23252D01*
G37*
G36*
X63739Y-23655D02*
X63736Y-23684D01*
X63728Y-23719D01*
X63712Y-23760D01*
X63689Y-23785D01*
X63654Y-23797D01*
X63606Y-23798D01*
X63572Y-23796D01*
X63548Y-23790D01*
X63531Y-23779D01*
X63520Y-23760D01*
X63514Y-23730D01*
X63511Y-23686D01*
X63509Y-23627D01*
X63506Y-23492D01*
X63445Y-23492D01*
X63385Y-23492D01*
X63379Y-23567D01*
X63374Y-23609D01*
X63368Y-23649D01*
X63361Y-23678D01*
X63361Y-23679D01*
X63350Y-23703D01*
X63330Y-23732D01*
X63307Y-23762D01*
X63284Y-23788D01*
X63264Y-23805D01*
X63253Y-23810D01*
X63239Y-23804D01*
X63220Y-23788D01*
X63215Y-23783D01*
X63198Y-23764D01*
X63190Y-23750D01*
X63189Y-23748D01*
X63195Y-23737D01*
X63211Y-23717D01*
X63227Y-23699D01*
X63249Y-23672D01*
X63265Y-23644D01*
X63276Y-23610D01*
X63284Y-23566D01*
X63290Y-23508D01*
X63290Y-23500D01*
X63297Y-23415D01*
X63450Y-23415D01*
X63603Y-23415D01*
X63606Y-23562D01*
X63607Y-23619D01*
X63609Y-23660D01*
X63611Y-23686D01*
X63615Y-23702D01*
X63620Y-23708D01*
X63623Y-23709D01*
X63632Y-23703D01*
X63638Y-23683D01*
X63640Y-23660D01*
X63643Y-23611D01*
X63691Y-23620D01*
X63718Y-23627D01*
X63733Y-23637D01*
X63739Y-23655D01*
X63739Y-23655D01*
X63739Y-23655D01*
G37*
G36*
X61446Y-22915D02*
X61349Y-22915D01*
X61253Y-22915D01*
X61253Y-23323D01*
X61253Y-23439D01*
X61252Y-23537D01*
X61251Y-23616D01*
X61249Y-23677D01*
X61247Y-23721D01*
X61244Y-23747D01*
X61242Y-23756D01*
X61229Y-23776D01*
X61207Y-23789D01*
X61173Y-23797D01*
X61126Y-23800D01*
X61099Y-23800D01*
X61014Y-23800D01*
X61008Y-23764D01*
X61002Y-23736D01*
X60997Y-23715D01*
X60997Y-23713D01*
X60997Y-23704D01*
X61005Y-23700D01*
X61024Y-23700D01*
X61060Y-23702D01*
X61105Y-23703D01*
X61133Y-23699D01*
X61142Y-23695D01*
X61146Y-23689D01*
X61149Y-23679D01*
X61151Y-23663D01*
X61153Y-23638D01*
X61154Y-23603D01*
X61155Y-23556D01*
X61156Y-23496D01*
X61156Y-23420D01*
X61157Y-23328D01*
X61157Y-23299D01*
X61157Y-22915D01*
X61007Y-22915D01*
X60858Y-22915D01*
X60858Y-22867D01*
X60858Y-22819D01*
X61152Y-22819D01*
X61446Y-22819D01*
X61446Y-22867D01*
X61446Y-22915D01*
X61446Y-22915D01*
X61446Y-22915D01*
G37*
G36*
X60800Y-23338D02*
X60444Y-23338D01*
X60444Y-23243D01*
X60800Y-23243D01*
X60800Y-23338D01*
X60800Y-23338D01*
X60800Y-23338D01*
G37*
G36*
X60800Y-23166D02*
X60444Y-23166D01*
X60444Y-23079D01*
X60800Y-23079D01*
X60800Y-23166D01*
X60800Y-23166D01*
X60800Y-23166D01*
G37*
G36*
X63083Y-23127D02*
X62997Y-23127D01*
X62997Y-23040D01*
X62997Y-22905D01*
X62823Y-22905D01*
X62823Y-23040D01*
X62997Y-23040D01*
X62997Y-23127D01*
X62737Y-23127D01*
X62737Y-22819D01*
X63083Y-22819D01*
X63083Y-23127D01*
X63083Y-23127D01*
X63083Y-23127D01*
G37*
G36*
X62024Y-23040D02*
X61927Y-23040D01*
X61927Y-22954D01*
X61927Y-22877D01*
X61715Y-22877D01*
X61715Y-22954D01*
X61927Y-22954D01*
X61927Y-23040D01*
X61629Y-23040D01*
X61629Y-22800D01*
X62024Y-22800D01*
X62024Y-23040D01*
X62024Y-23040D01*
X62024Y-23040D01*
G37*
G36*
X62505Y-23040D02*
X62419Y-23040D01*
X62419Y-22954D01*
X62419Y-22877D01*
X62207Y-22877D01*
X62207Y-22954D01*
X62419Y-22954D01*
X62419Y-23040D01*
X62110Y-23040D01*
X62110Y-22800D01*
X62505Y-22800D01*
X62505Y-23040D01*
X62505Y-23040D01*
X62505Y-23040D01*
G37*
G36*
X60839Y-22992D02*
X60617Y-22992D01*
X60396Y-22992D01*
X60396Y-22949D01*
X60396Y-22905D01*
X60477Y-22905D01*
X60514Y-22905D01*
X60543Y-22902D01*
X60558Y-22898D01*
X60559Y-22897D01*
X60555Y-22884D01*
X60546Y-22860D01*
X60540Y-22846D01*
X60522Y-22804D01*
X60553Y-22794D01*
X60588Y-22781D01*
X60610Y-22776D01*
X60623Y-22779D01*
X60633Y-22792D01*
X60642Y-22817D01*
X60644Y-22821D01*
X60656Y-22852D01*
X60665Y-22878D01*
X60669Y-22889D01*
X60674Y-22897D01*
X60686Y-22902D01*
X60709Y-22905D01*
X60747Y-22905D01*
X60756Y-22905D01*
X60839Y-22905D01*
X60839Y-22949D01*
X60839Y-22992D01*
X60839Y-22992D01*
X60839Y-22992D01*
G37*
G36*
X67836Y-16928D02*
X67854Y-16919D01*
X67895Y-16893D01*
X67954Y-16855D01*
X68023Y-16808D01*
X68092Y-16761D01*
X68149Y-16723D01*
X68189Y-16697D01*
X68206Y-16688D01*
X68215Y-16691D01*
X68248Y-16707D01*
X68296Y-16732D01*
X68324Y-16747D01*
X68368Y-16765D01*
X68389Y-16769D01*
X68393Y-16763D01*
X68409Y-16730D01*
X68434Y-16672D01*
X68467Y-16596D01*
X68505Y-16507D01*
X68546Y-16411D01*
X68587Y-16314D01*
X68625Y-16220D01*
X68660Y-16136D01*
X68687Y-16068D01*
X68705Y-16021D01*
X68712Y-16000D01*
X68710Y-15996D01*
X68688Y-15975D01*
X68649Y-15946D01*
X68567Y-15879D01*
X68485Y-15776D01*
X68435Y-15660D01*
X68418Y-15531D01*
X68432Y-15412D01*
X68479Y-15297D01*
X68560Y-15194D01*
X68657Y-15117D01*
X68770Y-15068D01*
X68898Y-15052D01*
X69020Y-15066D01*
X69137Y-15112D01*
X69241Y-15191D01*
X69284Y-15242D01*
X69345Y-15346D01*
X69379Y-15458D01*
X69382Y-15487D01*
X69377Y-15610D01*
X69341Y-15728D01*
X69276Y-15833D01*
X69186Y-15920D01*
X69175Y-15928D01*
X69133Y-15959D01*
X69105Y-15981D01*
X69083Y-15999D01*
X69239Y-16376D01*
X69265Y-16436D01*
X69307Y-16539D01*
X69345Y-16628D01*
X69376Y-16699D01*
X69396Y-16746D01*
X69406Y-16765D01*
X69407Y-16766D01*
X69420Y-16768D01*
X69449Y-16758D01*
X69502Y-16732D01*
X69537Y-16715D01*
X69577Y-16695D01*
X69595Y-16688D01*
X69610Y-16696D01*
X69649Y-16721D01*
X69705Y-16759D01*
X69772Y-16805D01*
X69836Y-16848D01*
X69895Y-16887D01*
X69939Y-16915D01*
X69959Y-16926D01*
X69963Y-16926D01*
X69981Y-16916D01*
X70015Y-16887D01*
X70067Y-16839D01*
X70139Y-16767D01*
X70150Y-16756D01*
X70210Y-16695D01*
X70259Y-16644D01*
X70291Y-16608D01*
X70303Y-16591D01*
X70303Y-16591D01*
X70292Y-16571D01*
X70265Y-16528D01*
X70226Y-16468D01*
X70178Y-16398D01*
X70053Y-16216D01*
X70122Y-16045D01*
X70143Y-15993D01*
X70170Y-15929D01*
X70190Y-15884D01*
X70200Y-15864D01*
X70218Y-15857D01*
X70265Y-15846D01*
X70333Y-15832D01*
X70414Y-15817D01*
X70492Y-15802D01*
X70561Y-15789D01*
X70612Y-15779D01*
X70635Y-15775D01*
X70640Y-15772D01*
X70644Y-15761D01*
X70647Y-15737D01*
X70649Y-15695D01*
X70650Y-15628D01*
X70650Y-15531D01*
X70650Y-15521D01*
X70649Y-15429D01*
X70648Y-15355D01*
X70645Y-15307D01*
X70642Y-15288D01*
X70642Y-15288D01*
X70620Y-15283D01*
X70571Y-15272D01*
X70501Y-15259D01*
X70418Y-15243D01*
X70413Y-15242D01*
X70330Y-15226D01*
X70260Y-15211D01*
X70212Y-15200D01*
X70191Y-15194D01*
X70187Y-15188D01*
X70170Y-15156D01*
X70146Y-15104D01*
X70119Y-15041D01*
X70092Y-14976D01*
X70068Y-14918D01*
X70052Y-14874D01*
X70048Y-14854D01*
X70048Y-14854D01*
X70060Y-14834D01*
X70089Y-14791D01*
X70129Y-14731D01*
X70178Y-14661D01*
X70181Y-14655D01*
X70229Y-14585D01*
X70268Y-14526D01*
X70293Y-14484D01*
X70303Y-14465D01*
X70303Y-14464D01*
X70287Y-14443D01*
X70251Y-14403D01*
X70200Y-14350D01*
X70139Y-14288D01*
X70119Y-14268D01*
X70051Y-14202D01*
X70004Y-14158D01*
X69975Y-14135D01*
X69960Y-14130D01*
X69960Y-14130D01*
X69939Y-14143D01*
X69895Y-14172D01*
X69834Y-14213D01*
X69763Y-14261D01*
X69758Y-14264D01*
X69688Y-14312D01*
X69630Y-14351D01*
X69589Y-14379D01*
X69570Y-14390D01*
X69567Y-14390D01*
X69539Y-14382D01*
X69489Y-14364D01*
X69428Y-14340D01*
X69363Y-14314D01*
X69304Y-14290D01*
X69260Y-14269D01*
X69239Y-14257D01*
X69238Y-14256D01*
X69231Y-14231D01*
X69219Y-14179D01*
X69204Y-14107D01*
X69188Y-14021D01*
X69185Y-14007D01*
X69169Y-13924D01*
X69156Y-13855D01*
X69146Y-13807D01*
X69141Y-13787D01*
X69129Y-13785D01*
X69088Y-13782D01*
X69026Y-13780D01*
X68951Y-13779D01*
X68872Y-13780D01*
X68794Y-13781D01*
X68728Y-13784D01*
X68681Y-13787D01*
X68661Y-13791D01*
X68660Y-13792D01*
X68653Y-13818D01*
X68641Y-13870D01*
X68627Y-13943D01*
X68610Y-14029D01*
X68607Y-14044D01*
X68592Y-14127D01*
X68578Y-14196D01*
X68568Y-14243D01*
X68562Y-14261D01*
X68555Y-14265D01*
X68520Y-14280D01*
X68464Y-14303D01*
X68395Y-14331D01*
X68235Y-14396D01*
X68038Y-14261D01*
X68020Y-14249D01*
X67949Y-14201D01*
X67891Y-14162D01*
X67851Y-14136D01*
X67834Y-14127D01*
X67833Y-14127D01*
X67813Y-14145D01*
X67774Y-14181D01*
X67721Y-14233D01*
X67659Y-14295D01*
X67613Y-14340D01*
X67559Y-14396D01*
X67524Y-14433D01*
X67506Y-14457D01*
X67499Y-14471D01*
X67501Y-14481D01*
X67513Y-14501D01*
X67542Y-14544D01*
X67583Y-14604D01*
X67631Y-14673D01*
X67670Y-14731D01*
X67713Y-14797D01*
X67741Y-14845D01*
X67750Y-14868D01*
X67748Y-14877D01*
X67734Y-14916D01*
X67711Y-14974D01*
X67681Y-15043D01*
X67613Y-15199D01*
X67511Y-15219D01*
X67449Y-15230D01*
X67362Y-15247D01*
X67279Y-15263D01*
X67150Y-15288D01*
X67146Y-15763D01*
X67166Y-15771D01*
X67185Y-15777D01*
X67233Y-15787D01*
X67301Y-15801D01*
X67382Y-15816D01*
X67450Y-15829D01*
X67520Y-15842D01*
X67569Y-15852D01*
X67591Y-15856D01*
X67597Y-15864D01*
X67614Y-15897D01*
X67639Y-15951D01*
X67666Y-16015D01*
X67694Y-16081D01*
X67718Y-16143D01*
X67736Y-16189D01*
X67742Y-16214D01*
X67732Y-16232D01*
X67706Y-16272D01*
X67668Y-16330D01*
X67621Y-16399D01*
X67574Y-16468D01*
X67534Y-16527D01*
X67507Y-16569D01*
X67495Y-16589D01*
X67501Y-16602D01*
X67528Y-16635D01*
X67580Y-16689D01*
X67657Y-16765D01*
X67670Y-16777D01*
X67732Y-16836D01*
X67783Y-16884D01*
X67820Y-16917D01*
X67836Y-16928D01*
X67836Y-16928D01*
G37*
G54D11*
X70114Y-45704D02*
X69919Y-45633D01*
X69718Y-45579D01*
X69514Y-45542D01*
X69307Y-45524D01*
X69101Y-45524D01*
X68894Y-45541D01*
X68690Y-45577D01*
X68489Y-45630D01*
X68294Y-45701D01*
X68106Y-45788D01*
X67926Y-45892D01*
X67756Y-46011D01*
X67596Y-46144D01*
X67449Y-46290D01*
X67316Y-46449D01*
X67196Y-46619D01*
X67092Y-46798D01*
X67004Y-46986D01*
X67990Y-45854D02*
X67816Y-45967D01*
X67653Y-46095D01*
X67501Y-46237D01*
X67363Y-46391D01*
X67238Y-46557D01*
X67129Y-46733D01*
X67035Y-46918D01*
X66958Y-47111D01*
X66897Y-47309D01*
X66854Y-47512D01*
X66830Y-47718D01*
X66823Y-47924D01*
X66834Y-48132D01*
X66863Y-48337D01*
X66910Y-48539D01*
X66975Y-48736D01*
X67056Y-48927D01*
X67154Y-49110D01*
X67154Y-49110D02*
X67267Y-49284D01*
X67395Y-49447D01*
X67537Y-49599D01*
X67691Y-49737D01*
X67857Y-49862D01*
X68033Y-49971D01*
X68218Y-50065D01*
X68411Y-50142D01*
X68609Y-50203D01*
X68812Y-50246D01*
X69018Y-50270D01*
X69224Y-50277D01*
X69432Y-50266D01*
X69637Y-50237D01*
X69839Y-50190D01*
X70036Y-50125D01*
X70227Y-50044D01*
X70410Y-49946D01*
X71537Y-48337D02*
X71566Y-48132D01*
X71577Y-47924D01*
X71570Y-47718D01*
X71546Y-47512D01*
X71503Y-47309D01*
X71442Y-47111D01*
X71365Y-46918D01*
X71271Y-46733D01*
X71162Y-46557D01*
X71037Y-46391D01*
X70899Y-46237D01*
X70747Y-46095D01*
X70584Y-45967D01*
X70410Y-45854D01*
X70227Y-45756D01*
X70036Y-45675D01*
X69839Y-45610D01*
X69637Y-45563D01*
X71183Y-50490D02*
X70409Y-49948D01*
X72345Y-48901D02*
X71538Y-48336D01*
X71152Y-50467D02*
X71222Y-50516D01*
X71297Y-50559D01*
X71375Y-50595D01*
X71456Y-50624D01*
X71539Y-50646D01*
X71623Y-50661D01*
X71709Y-50668D01*
X71794Y-50667D01*
X71879Y-50660D01*
X71964Y-50644D01*
X72047Y-50622D01*
X72128Y-50592D01*
X72205Y-50556D01*
X72280Y-50512D01*
X72350Y-50463D01*
X72415Y-50407D01*
X72476Y-50346D01*
X72531Y-50280D01*
X72554Y-50248D02*
X72600Y-50175D01*
X72639Y-50099D01*
X72672Y-50020D01*
X72698Y-49938D01*
X72717Y-49854D01*
X72728Y-49769D01*
X72732Y-49684D01*
X72728Y-49599D01*
X72717Y-49514D01*
X72698Y-49430D01*
X72672Y-49348D01*
X72639Y-49269D01*
X72600Y-49193D01*
X72554Y-49120D01*
X72501Y-49052D01*
X72443Y-48989D01*
X72380Y-48931D01*
X72312Y-48878D01*
X65150Y-49509D02*
X65284Y-49350D01*
X65403Y-49181D01*
X65507Y-49001D01*
X65595Y-48813D01*
X65666Y-48619D01*
X65720Y-48418D01*
X65757Y-48214D01*
X65775Y-48007D01*
X65775Y-47801D01*
X65758Y-47594D01*
X65722Y-47390D01*
X65669Y-47189D01*
X65598Y-46994D01*
X65511Y-46806D01*
X65407Y-46626D01*
X65289Y-46456D01*
X65156Y-46297D01*
X65009Y-46150D01*
X65737Y-47463D02*
X65690Y-47261D01*
X65625Y-47064D01*
X65544Y-46873D01*
X65446Y-46690D01*
X65333Y-46516D01*
X65205Y-46353D01*
X65063Y-46201D01*
X64909Y-46063D01*
X64743Y-45938D01*
X64567Y-45829D01*
X64382Y-45735D01*
X64189Y-45658D01*
X63991Y-45597D01*
X63788Y-45554D01*
X63582Y-45530D01*
X63376Y-45523D01*
X63168Y-45534D01*
X62963Y-45563D01*
X62963Y-45563D02*
X62761Y-45610D01*
X62564Y-45675D01*
X62373Y-45756D01*
X62190Y-45854D01*
X62016Y-45967D01*
X61853Y-46095D01*
X61701Y-46237D01*
X61563Y-46391D01*
X61438Y-46557D01*
X61329Y-46733D01*
X61235Y-46918D01*
X61158Y-47111D01*
X61097Y-47309D01*
X61054Y-47512D01*
X61030Y-47718D01*
X61023Y-47924D01*
X61034Y-48132D01*
X61063Y-48337D01*
X62190Y-49946D02*
X62373Y-50044D01*
X62564Y-50125D01*
X62761Y-50190D01*
X62963Y-50237D01*
X63168Y-50266D01*
X63376Y-50277D01*
X63582Y-50270D01*
X63788Y-50246D01*
X63991Y-50203D01*
X64189Y-50142D01*
X64382Y-50065D01*
X64567Y-49971D01*
X64743Y-49862D01*
X64909Y-49737D01*
X65063Y-49599D01*
X65205Y-49447D01*
X65333Y-49284D01*
X65446Y-49110D01*
X60288Y-48878D02*
X61062Y-48336D01*
X61384Y-50513D02*
X62191Y-49948D01*
X60320Y-48856D02*
X60250Y-48905D01*
X60185Y-48961D01*
X60124Y-49022D01*
X60069Y-49088D01*
X60020Y-49158D01*
X59977Y-49233D01*
X59941Y-49311D01*
X59912Y-49392D01*
X59890Y-49475D01*
X59875Y-49559D01*
X59868Y-49645D01*
X59869Y-49730D01*
X59876Y-49815D01*
X59892Y-49900D01*
X59914Y-49983D01*
X59944Y-50064D01*
X59980Y-50141D01*
X60024Y-50216D01*
X60047Y-50247D02*
X60099Y-50315D01*
X60157Y-50379D01*
X60221Y-50437D01*
X60289Y-50489D01*
X60361Y-50535D01*
X60437Y-50574D01*
X60516Y-50607D01*
X60598Y-50633D01*
X60682Y-50652D01*
X60767Y-50663D01*
X60852Y-50667D01*
X60937Y-50663D01*
X61022Y-50652D01*
X61106Y-50633D01*
X61188Y-50607D01*
X61267Y-50574D01*
X61343Y-50535D01*
X61415Y-50489D01*
X57283Y-25748D02*
X56890Y-25748D01*
X56890Y-25748D02*
X57086Y-26259D01*
X57086Y-26259D02*
X57283Y-25748D01*
X42914Y-25118D02*
X42876Y-25500D01*
X42765Y-25868D01*
X42585Y-26207D01*
X42342Y-26505D01*
X42046Y-26750D01*
X41708Y-26933D01*
X41340Y-27046D01*
X40958Y-27086D01*
X40577Y-27052D01*
X40208Y-26943D01*
X39867Y-26765D01*
X39568Y-26524D01*
X39321Y-26230D01*
X39136Y-25893D01*
X39020Y-25527D01*
X38977Y-25145D01*
X39009Y-24763D01*
X39115Y-24394D01*
X39290Y-24052D01*
X39529Y-23751D01*
X39822Y-23502D01*
X40157Y-23314D01*
X40523Y-23195D01*
X40904Y-23150D01*
X41286Y-23179D01*
X41657Y-23283D01*
X42000Y-23456D01*
X42302Y-23693D01*
X42553Y-23984D01*
X42743Y-24318D01*
X42865Y-24682D01*
X42913Y-25064D01*
X42914Y-25118D01*
X75197Y-25118D02*
X75159Y-25500D01*
X75048Y-25867D01*
X74868Y-26207D01*
X74625Y-26504D01*
X74329Y-26749D01*
X73991Y-26932D01*
X73624Y-27045D01*
X73242Y-27085D01*
X72861Y-27051D01*
X72492Y-26942D01*
X72152Y-26764D01*
X71853Y-26524D01*
X71606Y-26229D01*
X71421Y-25893D01*
X71305Y-25527D01*
X71262Y-25145D01*
X71294Y-24763D01*
X71400Y-24394D01*
X71575Y-24052D01*
X71814Y-23751D01*
X72106Y-23502D01*
X72442Y-23315D01*
X72807Y-23196D01*
X73188Y-23151D01*
X73570Y-23180D01*
X73940Y-23284D01*
X74283Y-23457D01*
X74586Y-23693D01*
X74837Y-23984D01*
X75026Y-24318D01*
X75148Y-24682D01*
X75196Y-25064D01*
X75197Y-25118D01*
G54D14*
X51182Y-26260D02*
X51379Y-25748D01*
X51379Y-25748D02*
X50985Y-25748D01*
X50985Y-25748D02*
X51182Y-26260D01*
X62991Y-26260D02*
X63188Y-25748D01*
X63188Y-25748D02*
X62794Y-25748D01*
X62794Y-25748D02*
X62991Y-26260D01*
X38583Y-24645D02*
X75591Y-24645D01*
X75591Y-25590D02*
X38583Y-25590D01*
X75591Y-22047D02*
X38583Y-22047D01*
X75591Y-26378D02*
X38583Y-26378D01*
X75591Y-29134D02*
X38583Y-29134D01*
X38583Y-29134D02*
X38583Y-17322D01*
X38583Y-17322D02*
X75591Y-17322D01*
X75591Y-17322D02*
X75591Y-29134D01*
G54D15*
G36*
X74432Y-19890D02*
X74432Y-19894D01*
X74431Y-19902D01*
X74428Y-19914D01*
X74426Y-19929D01*
X74424Y-19936D01*
X74416Y-19971D01*
X74408Y-20003D01*
X74400Y-20034D01*
X74390Y-20064D01*
X74379Y-20095D01*
X74367Y-20128D01*
X74352Y-20163D01*
X74335Y-20201D01*
X74318Y-20240D01*
X74301Y-20276D01*
X74287Y-20307D01*
X74275Y-20335D01*
X74264Y-20360D01*
X74254Y-20384D01*
X74245Y-20406D01*
X74237Y-20427D01*
X74231Y-20444D01*
X74225Y-20459D01*
X74220Y-20472D01*
X74216Y-20486D01*
X74211Y-20499D01*
X74206Y-20515D01*
X74201Y-20532D01*
X74195Y-20553D01*
X74188Y-20579D01*
X74181Y-20604D01*
X74172Y-20637D01*
X74164Y-20665D01*
X74157Y-20690D01*
X74150Y-20711D01*
X74143Y-20731D01*
X74135Y-20751D01*
X74127Y-20771D01*
X74117Y-20793D01*
X74112Y-20803D01*
X74095Y-20840D01*
X74076Y-20876D01*
X74057Y-20910D01*
X74037Y-20942D01*
X74018Y-20970D01*
X74002Y-20991D01*
X73987Y-21008D01*
X73969Y-21027D01*
X73951Y-21046D01*
X73933Y-21064D01*
X73917Y-21078D01*
X73916Y-21078D01*
X73876Y-21107D01*
X73833Y-21132D01*
X73785Y-21154D01*
X73733Y-21173D01*
X73676Y-21189D01*
X73614Y-21202D01*
X73572Y-21209D01*
X73544Y-21212D01*
X73512Y-21216D01*
X73478Y-21219D01*
X73442Y-21222D01*
X73406Y-21224D01*
X73371Y-21226D01*
X73338Y-21228D01*
X73308Y-21229D01*
X73282Y-21229D01*
X73268Y-21228D01*
X73240Y-21227D01*
X73270Y-21209D01*
X73333Y-21167D01*
X73394Y-21119D01*
X73453Y-21067D01*
X73508Y-21009D01*
X73561Y-20946D01*
X73574Y-20928D01*
X73623Y-20858D01*
X73667Y-20784D01*
X73706Y-20707D01*
X73741Y-20626D01*
X73770Y-20543D01*
X73793Y-20458D01*
X73808Y-20388D01*
X73812Y-20369D01*
X73815Y-20350D01*
X73817Y-20332D01*
X73820Y-20316D01*
X73821Y-20302D01*
X73822Y-20292D01*
X73822Y-20287D01*
X73822Y-20286D01*
X73818Y-20287D01*
X73811Y-20292D01*
X73800Y-20301D01*
X73786Y-20313D01*
X73769Y-20328D01*
X73761Y-20336D01*
X73733Y-20361D01*
X73707Y-20381D01*
X73682Y-20397D01*
X73656Y-20409D01*
X73628Y-20419D01*
X73602Y-20427D01*
X73588Y-20430D01*
X73572Y-20432D01*
X73557Y-20435D01*
X73543Y-20437D01*
X73531Y-20438D01*
X73524Y-20438D01*
X73521Y-20437D01*
X73522Y-20433D01*
X73525Y-20425D01*
X73529Y-20414D01*
X73532Y-20407D01*
X73548Y-20365D01*
X73564Y-20317D01*
X73579Y-20266D01*
X73592Y-20212D01*
X73605Y-20157D01*
X73616Y-20102D01*
X73625Y-20047D01*
X73632Y-19995D01*
X73636Y-19946D01*
X73638Y-19914D01*
X73638Y-19896D01*
X73639Y-19881D01*
X73639Y-19869D01*
X73639Y-19861D01*
X73638Y-19858D01*
X73637Y-19861D01*
X73633Y-19870D01*
X73629Y-19882D01*
X73623Y-19898D01*
X73616Y-19917D01*
X73611Y-19930D01*
X73599Y-19961D01*
X73589Y-19987D01*
X73581Y-20009D01*
X73573Y-20027D01*
X73566Y-20041D01*
X73560Y-20054D01*
X73553Y-20065D01*
X73551Y-20069D01*
X73538Y-20086D01*
X73524Y-20102D01*
X73508Y-20115D01*
X73497Y-20122D01*
X73484Y-20128D01*
X73470Y-20133D01*
X73456Y-20137D01*
X73445Y-20138D01*
X73442Y-20139D01*
X73438Y-20138D01*
X73435Y-20136D01*
X73434Y-20131D01*
X73432Y-20122D01*
X73432Y-20118D01*
X73430Y-20099D01*
X73426Y-20076D01*
X73422Y-20050D01*
X73417Y-20024D01*
X73412Y-19998D01*
X73407Y-19974D01*
X73405Y-19967D01*
X73386Y-19899D01*
X73363Y-19833D01*
X73336Y-19769D01*
X73307Y-19710D01*
X73274Y-19654D01*
X73262Y-19638D01*
X73251Y-19622D01*
X73241Y-19607D01*
X73232Y-19595D01*
X73226Y-19587D01*
X73222Y-19583D01*
X73221Y-19583D01*
X73221Y-19586D01*
X73222Y-19594D01*
X73224Y-19606D01*
X73226Y-19617D01*
X73234Y-19670D01*
X73239Y-19730D01*
X73243Y-19792D01*
X73244Y-19857D01*
X73242Y-19922D01*
X73238Y-19987D01*
X73232Y-20051D01*
X73224Y-20113D01*
X73222Y-20120D01*
X73218Y-20144D01*
X73215Y-20163D01*
X73212Y-20176D01*
X73210Y-20186D01*
X73208Y-20191D01*
X73207Y-20194D01*
X73206Y-20195D01*
X73202Y-20193D01*
X73194Y-20187D01*
X73184Y-20178D01*
X73171Y-20167D01*
X73157Y-20154D01*
X73143Y-20141D01*
X73128Y-20127D01*
X73115Y-20113D01*
X73113Y-20112D01*
X73073Y-20068D01*
X73038Y-20024D01*
X73010Y-19982D01*
X72987Y-19941D01*
X72976Y-19916D01*
X72972Y-19904D01*
X72968Y-19895D01*
X72965Y-19890D01*
X72965Y-19890D01*
X72963Y-19891D01*
X72960Y-19898D01*
X72955Y-19908D01*
X72950Y-19920D01*
X72945Y-19933D01*
X72941Y-19947D01*
X72938Y-19957D01*
X72933Y-19976D01*
X72929Y-19995D01*
X72925Y-20014D01*
X72923Y-20035D01*
X72921Y-20059D01*
X72919Y-20086D01*
X72918Y-20118D01*
X72918Y-20140D01*
X72918Y-20184D01*
X72918Y-20224D01*
X72919Y-20262D01*
X72922Y-20299D01*
X72925Y-20337D01*
X72930Y-20378D01*
X72931Y-20391D01*
X72939Y-20450D01*
X72948Y-20503D01*
X72958Y-20551D01*
X72969Y-20596D01*
X72972Y-20606D01*
X72974Y-20613D01*
X72962Y-20606D01*
X72935Y-20588D01*
X72912Y-20572D01*
X72893Y-20555D01*
X72878Y-20538D01*
X72864Y-20518D01*
X72852Y-20495D01*
X72845Y-20479D01*
X72842Y-20472D01*
X72837Y-20460D01*
X72830Y-20444D01*
X72823Y-20424D01*
X72814Y-20402D01*
X72805Y-20379D01*
X72795Y-20354D01*
X72786Y-20330D01*
X72777Y-20306D01*
X72769Y-20284D01*
X72761Y-20265D01*
X72760Y-20263D01*
X72756Y-20253D01*
X72753Y-20247D01*
X72752Y-20245D01*
X72750Y-20248D01*
X72749Y-20256D01*
X72747Y-20268D01*
X72745Y-20285D01*
X72742Y-20304D01*
X72740Y-20324D01*
X72739Y-20346D01*
X72737Y-20368D01*
X72736Y-20378D01*
X72735Y-20454D01*
X72738Y-20533D01*
X72747Y-20614D01*
X72761Y-20695D01*
X72780Y-20778D01*
X72804Y-20861D01*
X72832Y-20943D01*
X72852Y-20994D01*
X72864Y-21021D01*
X72879Y-21052D01*
X72894Y-21084D01*
X72910Y-21117D01*
X72926Y-21147D01*
X72941Y-21174D01*
X72948Y-21185D01*
X72957Y-21200D01*
X72964Y-21212D01*
X72969Y-21221D01*
X72973Y-21227D01*
X72973Y-21228D01*
X72970Y-21229D01*
X72962Y-21229D01*
X72949Y-21227D01*
X72932Y-21225D01*
X72919Y-21223D01*
X72848Y-21209D01*
X72782Y-21193D01*
X72720Y-21172D01*
X72664Y-21148D01*
X72612Y-21120D01*
X72565Y-21089D01*
X72523Y-21053D01*
X72499Y-21030D01*
X72470Y-20998D01*
X72445Y-20967D01*
X72423Y-20933D01*
X72402Y-20896D01*
X72394Y-20881D01*
X72382Y-20855D01*
X72370Y-20829D01*
X72360Y-20803D01*
X72349Y-20775D01*
X72340Y-20745D01*
X72331Y-20713D01*
X72322Y-20678D01*
X72313Y-20640D01*
X72304Y-20599D01*
X72295Y-20553D01*
X72286Y-20502D01*
X72276Y-20445D01*
X72269Y-20405D01*
X72260Y-20353D01*
X72252Y-20306D01*
X72245Y-20264D01*
X72238Y-20227D01*
X72232Y-20194D01*
X72226Y-20163D01*
X72220Y-20136D01*
X72214Y-20110D01*
X72209Y-20086D01*
X72203Y-20062D01*
X72196Y-20039D01*
X72190Y-20016D01*
X72172Y-19959D01*
X72151Y-19902D01*
X72128Y-19848D01*
X72104Y-19798D01*
X72087Y-19766D01*
X72079Y-19752D01*
X72073Y-19741D01*
X72069Y-19733D01*
X72068Y-19729D01*
X72068Y-19728D01*
X72072Y-19728D01*
X72080Y-19729D01*
X72093Y-19730D01*
X72108Y-19732D01*
X72125Y-19734D01*
X72142Y-19737D01*
X72154Y-19739D01*
X72186Y-19745D01*
X72220Y-19753D01*
X72257Y-19762D01*
X72294Y-19772D01*
X72330Y-19782D01*
X72364Y-19793D01*
X72395Y-19803D01*
X72422Y-19813D01*
X72432Y-19818D01*
X72441Y-19821D01*
X72448Y-19824D01*
X72450Y-19824D01*
X72452Y-19821D01*
X72456Y-19813D01*
X72460Y-19801D01*
X72464Y-19786D01*
X72469Y-19770D01*
X72472Y-19757D01*
X72480Y-19709D01*
X72483Y-19662D01*
X72481Y-19615D01*
X72475Y-19566D01*
X72463Y-19516D01*
X72447Y-19463D01*
X72437Y-19437D01*
X72431Y-19425D01*
X72423Y-19407D01*
X72413Y-19385D01*
X72401Y-19360D01*
X72387Y-19332D01*
X72373Y-19302D01*
X72357Y-19271D01*
X72341Y-19239D01*
X72324Y-19207D01*
X72309Y-19178D01*
X72303Y-19167D01*
X72299Y-19157D01*
X72298Y-19152D01*
X72298Y-19151D01*
X72302Y-19150D01*
X72311Y-19150D01*
X72324Y-19151D01*
X72339Y-19153D01*
X72355Y-19155D01*
X72372Y-19158D01*
X72387Y-19161D01*
X72396Y-19163D01*
X72438Y-19175D01*
X72484Y-19193D01*
X72531Y-19215D01*
X72581Y-19241D01*
X72632Y-19271D01*
X72684Y-19305D01*
X72730Y-19338D01*
X72742Y-19348D01*
X72753Y-19355D01*
X72761Y-19361D01*
X72765Y-19363D01*
X72766Y-19363D01*
X72767Y-19359D01*
X72769Y-19349D01*
X72772Y-19334D01*
X72774Y-19316D01*
X72776Y-19294D01*
X72779Y-19271D01*
X72781Y-19246D01*
X72783Y-19220D01*
X72785Y-19195D01*
X72787Y-19173D01*
X72789Y-19108D01*
X72787Y-19046D01*
X72782Y-18986D01*
X72773Y-18930D01*
X72762Y-18879D01*
X72755Y-18856D01*
X72747Y-18834D01*
X72738Y-18813D01*
X72728Y-18792D01*
X72715Y-18770D01*
X72700Y-18745D01*
X72684Y-18721D01*
X72666Y-18695D01*
X72652Y-18673D01*
X72640Y-18655D01*
X72631Y-18641D01*
X72624Y-18630D01*
X72619Y-18623D01*
X72615Y-18617D01*
X72613Y-18613D01*
X72612Y-18611D01*
X72612Y-18610D01*
X72615Y-18608D01*
X72623Y-18607D01*
X72634Y-18607D01*
X72648Y-18607D01*
X72663Y-18608D01*
X72677Y-18610D01*
X72691Y-18612D01*
X72697Y-18613D01*
X72731Y-18625D01*
X72764Y-18642D01*
X72797Y-18666D01*
X72828Y-18695D01*
X72859Y-18729D01*
X72888Y-18768D01*
X72915Y-18812D01*
X72941Y-18860D01*
X72956Y-18893D01*
X72961Y-18903D01*
X72965Y-18910D01*
X72967Y-18913D01*
X72968Y-18913D01*
X72970Y-18907D01*
X72974Y-18896D01*
X72977Y-18881D01*
X72981Y-18863D01*
X72985Y-18845D01*
X72985Y-18842D01*
X72988Y-18824D01*
X72991Y-18806D01*
X72993Y-18789D01*
X72995Y-18772D01*
X72996Y-18753D01*
X72997Y-18732D01*
X72998Y-18708D01*
X72998Y-18681D01*
X72998Y-18649D01*
X72997Y-18613D01*
X72997Y-18584D01*
X72996Y-18539D01*
X72996Y-18501D01*
X72996Y-18467D01*
X72997Y-18438D01*
X72997Y-18413D01*
X72999Y-18390D01*
X73000Y-18371D01*
X73002Y-18352D01*
X73005Y-18335D01*
X73008Y-18320D01*
X73020Y-18274D01*
X73036Y-18232D01*
X73058Y-18195D01*
X73084Y-18161D01*
X73115Y-18131D01*
X73152Y-18104D01*
X73172Y-18091D01*
X73182Y-18086D01*
X73190Y-18082D01*
X73194Y-18080D01*
X73194Y-18080D01*
X73195Y-18083D01*
X73198Y-18091D01*
X73200Y-18104D01*
X73203Y-18119D01*
X73205Y-18131D01*
X73220Y-18212D01*
X73237Y-18288D01*
X73254Y-18358D01*
X73274Y-18423D01*
X73295Y-18484D01*
X73319Y-18540D01*
X73344Y-18593D01*
X73362Y-18624D01*
X73368Y-18635D01*
X73378Y-18651D01*
X73390Y-18669D01*
X73403Y-18690D01*
X73418Y-18713D01*
X73433Y-18735D01*
X73439Y-18744D01*
X73465Y-18784D01*
X73488Y-18821D01*
X73507Y-18854D01*
X73523Y-18884D01*
X73537Y-18913D01*
X73547Y-18940D01*
X73552Y-18955D01*
X73557Y-18968D01*
X73561Y-18978D01*
X73564Y-18984D01*
X73565Y-18986D01*
X73569Y-18983D01*
X73574Y-18977D01*
X73575Y-18976D01*
X73578Y-18972D01*
X73580Y-18966D01*
X73581Y-18959D01*
X73581Y-18948D01*
X73581Y-18933D01*
X73580Y-18908D01*
X73576Y-18882D01*
X73570Y-18853D01*
X73562Y-18820D01*
X73550Y-18784D01*
X73544Y-18765D01*
X73539Y-18747D01*
X73534Y-18730D01*
X73531Y-18714D01*
X73528Y-18702D01*
X73528Y-18694D01*
X73528Y-18692D01*
X73532Y-18692D01*
X73540Y-18694D01*
X73552Y-18697D01*
X73566Y-18703D01*
X73582Y-18709D01*
X73597Y-18715D01*
X73611Y-18722D01*
X73612Y-18722D01*
X73654Y-18746D01*
X73692Y-18775D01*
X73728Y-18810D01*
X73760Y-18850D01*
X73789Y-18895D01*
X73815Y-18945D01*
X73837Y-19001D01*
X73856Y-19061D01*
X73857Y-19064D01*
X73869Y-19111D01*
X73879Y-19159D01*
X73888Y-19209D01*
X73895Y-19262D01*
X73901Y-19318D01*
X73905Y-19378D01*
X73908Y-19443D01*
X73909Y-19513D01*
X73910Y-19580D01*
X73910Y-19608D01*
X73910Y-19631D01*
X73910Y-19649D01*
X73911Y-19661D01*
X73911Y-19670D01*
X73913Y-19676D01*
X73915Y-19679D01*
X73918Y-19680D01*
X73921Y-19680D01*
X73926Y-19678D01*
X73929Y-19676D01*
X73948Y-19665D01*
X73964Y-19649D01*
X73978Y-19626D01*
X73991Y-19598D01*
X74000Y-19563D01*
X74004Y-19548D01*
X74006Y-19538D01*
X74007Y-19529D01*
X74009Y-19520D01*
X74009Y-19510D01*
X74010Y-19498D01*
X74011Y-19484D01*
X74011Y-19467D01*
X74011Y-19445D01*
X74011Y-19419D01*
X74011Y-19397D01*
X74011Y-19371D01*
X74011Y-19347D01*
X74011Y-19326D01*
X74012Y-19309D01*
X74012Y-19295D01*
X74012Y-19286D01*
X74012Y-19283D01*
X74015Y-19285D01*
X74021Y-19289D01*
X74026Y-19292D01*
X74057Y-19317D01*
X74084Y-19347D01*
X74108Y-19382D01*
X74128Y-19423D01*
X74146Y-19469D01*
X74160Y-19520D01*
X74164Y-19539D01*
X74170Y-19571D01*
X74174Y-19603D01*
X74177Y-19636D01*
X74179Y-19670D01*
X74180Y-19708D01*
X74180Y-19752D01*
X74180Y-19765D01*
X74179Y-19810D01*
X74177Y-19850D01*
X74174Y-19888D01*
X74170Y-19924D01*
X74166Y-19961D01*
X74163Y-19981D01*
X74161Y-19996D01*
X74159Y-20008D01*
X74158Y-20016D01*
X74158Y-20020D01*
X74162Y-20020D01*
X74170Y-20018D01*
X74182Y-20015D01*
X74197Y-20011D01*
X74213Y-20007D01*
X74230Y-20002D01*
X74246Y-19997D01*
X74260Y-19992D01*
X74260Y-19991D01*
X74305Y-19973D01*
X74344Y-19954D01*
X74377Y-19934D01*
X74405Y-19912D01*
X74410Y-19908D01*
X74419Y-19900D01*
X74426Y-19893D01*
X74431Y-19890D01*
X74432Y-19890D01*
X74432Y-19890D01*
X74432Y-19890D01*
G37*
G36*
X42182Y-19940D02*
X42182Y-19944D01*
X42181Y-19952D01*
X42178Y-19964D01*
X42176Y-19979D01*
X42174Y-19986D01*
X42166Y-20021D01*
X42158Y-20053D01*
X42150Y-20084D01*
X42140Y-20114D01*
X42129Y-20145D01*
X42117Y-20178D01*
X42102Y-20213D01*
X42085Y-20251D01*
X42068Y-20290D01*
X42051Y-20326D01*
X42037Y-20357D01*
X42025Y-20385D01*
X42014Y-20410D01*
X42004Y-20434D01*
X41995Y-20456D01*
X41987Y-20477D01*
X41981Y-20494D01*
X41975Y-20509D01*
X41970Y-20522D01*
X41966Y-20536D01*
X41961Y-20549D01*
X41956Y-20565D01*
X41951Y-20582D01*
X41945Y-20603D01*
X41938Y-20629D01*
X41931Y-20654D01*
X41922Y-20687D01*
X41914Y-20715D01*
X41907Y-20740D01*
X41900Y-20761D01*
X41893Y-20781D01*
X41885Y-20801D01*
X41877Y-20821D01*
X41867Y-20843D01*
X41862Y-20853D01*
X41845Y-20890D01*
X41826Y-20926D01*
X41807Y-20960D01*
X41787Y-20992D01*
X41768Y-21020D01*
X41752Y-21041D01*
X41737Y-21058D01*
X41719Y-21077D01*
X41701Y-21096D01*
X41683Y-21114D01*
X41667Y-21128D01*
X41666Y-21128D01*
X41626Y-21157D01*
X41583Y-21182D01*
X41535Y-21204D01*
X41483Y-21223D01*
X41426Y-21239D01*
X41364Y-21252D01*
X41322Y-21259D01*
X41294Y-21262D01*
X41262Y-21266D01*
X41228Y-21269D01*
X41192Y-21272D01*
X41156Y-21274D01*
X41121Y-21276D01*
X41088Y-21278D01*
X41058Y-21279D01*
X41032Y-21279D01*
X41018Y-21278D01*
X40990Y-21277D01*
X41020Y-21259D01*
X41083Y-21217D01*
X41144Y-21169D01*
X41203Y-21117D01*
X41258Y-21059D01*
X41311Y-20996D01*
X41324Y-20978D01*
X41373Y-20908D01*
X41417Y-20834D01*
X41456Y-20757D01*
X41491Y-20676D01*
X41520Y-20593D01*
X41543Y-20508D01*
X41558Y-20438D01*
X41562Y-20419D01*
X41565Y-20400D01*
X41567Y-20382D01*
X41570Y-20366D01*
X41571Y-20352D01*
X41572Y-20342D01*
X41572Y-20337D01*
X41572Y-20336D01*
X41568Y-20337D01*
X41561Y-20342D01*
X41550Y-20351D01*
X41536Y-20363D01*
X41519Y-20378D01*
X41511Y-20386D01*
X41483Y-20411D01*
X41457Y-20431D01*
X41432Y-20447D01*
X41406Y-20459D01*
X41378Y-20469D01*
X41352Y-20477D01*
X41338Y-20480D01*
X41322Y-20482D01*
X41307Y-20485D01*
X41293Y-20487D01*
X41281Y-20488D01*
X41274Y-20488D01*
X41271Y-20487D01*
X41272Y-20483D01*
X41275Y-20475D01*
X41279Y-20464D01*
X41282Y-20457D01*
X41298Y-20415D01*
X41314Y-20367D01*
X41329Y-20316D01*
X41342Y-20262D01*
X41355Y-20207D01*
X41366Y-20152D01*
X41375Y-20097D01*
X41382Y-20045D01*
X41386Y-19996D01*
X41388Y-19964D01*
X41388Y-19946D01*
X41389Y-19931D01*
X41389Y-19919D01*
X41389Y-19911D01*
X41388Y-19908D01*
X41387Y-19911D01*
X41383Y-19920D01*
X41379Y-19932D01*
X41373Y-19948D01*
X41366Y-19967D01*
X41361Y-19980D01*
X41349Y-20011D01*
X41339Y-20037D01*
X41331Y-20059D01*
X41323Y-20077D01*
X41316Y-20091D01*
X41310Y-20104D01*
X41303Y-20115D01*
X41301Y-20119D01*
X41288Y-20136D01*
X41274Y-20152D01*
X41258Y-20165D01*
X41247Y-20172D01*
X41234Y-20178D01*
X41220Y-20183D01*
X41206Y-20187D01*
X41195Y-20188D01*
X41192Y-20189D01*
X41188Y-20188D01*
X41185Y-20186D01*
X41184Y-20181D01*
X41182Y-20172D01*
X41182Y-20168D01*
X41180Y-20149D01*
X41176Y-20126D01*
X41172Y-20100D01*
X41167Y-20074D01*
X41162Y-20048D01*
X41157Y-20024D01*
X41155Y-20017D01*
X41136Y-19949D01*
X41113Y-19883D01*
X41086Y-19819D01*
X41057Y-19760D01*
X41024Y-19704D01*
X41012Y-19688D01*
X41001Y-19672D01*
X40991Y-19657D01*
X40982Y-19645D01*
X40976Y-19637D01*
X40972Y-19633D01*
X40971Y-19633D01*
X40971Y-19636D01*
X40972Y-19644D01*
X40974Y-19656D01*
X40976Y-19667D01*
X40984Y-19720D01*
X40989Y-19780D01*
X40993Y-19842D01*
X40994Y-19907D01*
X40992Y-19972D01*
X40988Y-20037D01*
X40982Y-20101D01*
X40974Y-20163D01*
X40972Y-20170D01*
X40968Y-20194D01*
X40965Y-20213D01*
X40962Y-20226D01*
X40960Y-20236D01*
X40958Y-20241D01*
X40957Y-20244D01*
X40956Y-20245D01*
X40952Y-20243D01*
X40944Y-20237D01*
X40934Y-20228D01*
X40921Y-20217D01*
X40907Y-20204D01*
X40893Y-20191D01*
X40878Y-20177D01*
X40865Y-20163D01*
X40863Y-20162D01*
X40823Y-20118D01*
X40788Y-20074D01*
X40760Y-20032D01*
X40737Y-19991D01*
X40726Y-19966D01*
X40722Y-19954D01*
X40718Y-19945D01*
X40715Y-19940D01*
X40715Y-19940D01*
X40713Y-19941D01*
X40710Y-19948D01*
X40705Y-19958D01*
X40700Y-19970D01*
X40695Y-19983D01*
X40691Y-19997D01*
X40688Y-20007D01*
X40683Y-20026D01*
X40679Y-20045D01*
X40675Y-20064D01*
X40673Y-20085D01*
X40671Y-20109D01*
X40669Y-20136D01*
X40668Y-20168D01*
X40668Y-20190D01*
X40668Y-20234D01*
X40668Y-20274D01*
X40669Y-20312D01*
X40672Y-20349D01*
X40675Y-20387D01*
X40680Y-20428D01*
X40681Y-20441D01*
X40689Y-20500D01*
X40698Y-20553D01*
X40708Y-20601D01*
X40719Y-20646D01*
X40722Y-20656D01*
X40724Y-20663D01*
X40712Y-20656D01*
X40685Y-20638D01*
X40662Y-20622D01*
X40643Y-20605D01*
X40628Y-20588D01*
X40614Y-20568D01*
X40602Y-20545D01*
X40595Y-20529D01*
X40592Y-20522D01*
X40587Y-20510D01*
X40580Y-20494D01*
X40573Y-20474D01*
X40564Y-20452D01*
X40555Y-20429D01*
X40545Y-20404D01*
X40536Y-20380D01*
X40527Y-20356D01*
X40519Y-20334D01*
X40511Y-20315D01*
X40510Y-20313D01*
X40506Y-20303D01*
X40503Y-20297D01*
X40502Y-20295D01*
X40500Y-20298D01*
X40499Y-20306D01*
X40497Y-20318D01*
X40495Y-20335D01*
X40492Y-20354D01*
X40490Y-20374D01*
X40489Y-20396D01*
X40487Y-20418D01*
X40486Y-20428D01*
X40485Y-20504D01*
X40488Y-20583D01*
X40497Y-20664D01*
X40511Y-20745D01*
X40530Y-20828D01*
X40554Y-20911D01*
X40582Y-20993D01*
X40602Y-21044D01*
X40614Y-21071D01*
X40629Y-21102D01*
X40644Y-21134D01*
X40660Y-21167D01*
X40676Y-21197D01*
X40691Y-21224D01*
X40698Y-21235D01*
X40707Y-21250D01*
X40714Y-21262D01*
X40719Y-21271D01*
X40723Y-21277D01*
X40723Y-21278D01*
X40720Y-21279D01*
X40712Y-21279D01*
X40699Y-21277D01*
X40682Y-21275D01*
X40669Y-21273D01*
X40598Y-21259D01*
X40532Y-21243D01*
X40470Y-21222D01*
X40414Y-21198D01*
X40362Y-21170D01*
X40315Y-21139D01*
X40273Y-21103D01*
X40249Y-21080D01*
X40220Y-21048D01*
X40195Y-21017D01*
X40173Y-20983D01*
X40152Y-20946D01*
X40144Y-20931D01*
X40132Y-20905D01*
X40120Y-20879D01*
X40110Y-20853D01*
X40099Y-20825D01*
X40090Y-20795D01*
X40081Y-20763D01*
X40072Y-20728D01*
X40063Y-20690D01*
X40054Y-20649D01*
X40045Y-20603D01*
X40036Y-20552D01*
X40026Y-20495D01*
X40019Y-20455D01*
X40010Y-20403D01*
X40002Y-20356D01*
X39995Y-20314D01*
X39988Y-20277D01*
X39982Y-20244D01*
X39976Y-20213D01*
X39970Y-20186D01*
X39964Y-20160D01*
X39959Y-20136D01*
X39953Y-20112D01*
X39946Y-20089D01*
X39940Y-20066D01*
X39922Y-20009D01*
X39901Y-19952D01*
X39878Y-19898D01*
X39854Y-19848D01*
X39837Y-19816D01*
X39829Y-19802D01*
X39823Y-19791D01*
X39819Y-19783D01*
X39818Y-19779D01*
X39818Y-19778D01*
X39822Y-19778D01*
X39830Y-19779D01*
X39843Y-19780D01*
X39858Y-19782D01*
X39875Y-19784D01*
X39892Y-19787D01*
X39904Y-19789D01*
X39936Y-19795D01*
X39970Y-19803D01*
X40007Y-19812D01*
X40044Y-19822D01*
X40080Y-19832D01*
X40114Y-19843D01*
X40145Y-19853D01*
X40172Y-19863D01*
X40182Y-19868D01*
X40191Y-19871D01*
X40198Y-19874D01*
X40200Y-19874D01*
X40202Y-19871D01*
X40206Y-19863D01*
X40210Y-19851D01*
X40214Y-19836D01*
X40219Y-19820D01*
X40222Y-19807D01*
X40230Y-19759D01*
X40233Y-19712D01*
X40231Y-19665D01*
X40225Y-19616D01*
X40213Y-19566D01*
X40197Y-19513D01*
X40187Y-19487D01*
X40181Y-19475D01*
X40173Y-19457D01*
X40163Y-19435D01*
X40151Y-19410D01*
X40137Y-19382D01*
X40123Y-19352D01*
X40107Y-19321D01*
X40091Y-19289D01*
X40074Y-19257D01*
X40059Y-19228D01*
X40053Y-19217D01*
X40049Y-19207D01*
X40048Y-19202D01*
X40048Y-19201D01*
X40052Y-19200D01*
X40061Y-19200D01*
X40074Y-19201D01*
X40089Y-19203D01*
X40105Y-19205D01*
X40122Y-19208D01*
X40137Y-19211D01*
X40146Y-19213D01*
X40188Y-19225D01*
X40234Y-19243D01*
X40281Y-19265D01*
X40331Y-19291D01*
X40382Y-19321D01*
X40434Y-19355D01*
X40480Y-19388D01*
X40492Y-19398D01*
X40503Y-19405D01*
X40511Y-19411D01*
X40515Y-19413D01*
X40516Y-19413D01*
X40517Y-19409D01*
X40519Y-19399D01*
X40522Y-19384D01*
X40524Y-19366D01*
X40526Y-19344D01*
X40529Y-19321D01*
X40531Y-19296D01*
X40533Y-19270D01*
X40535Y-19245D01*
X40537Y-19223D01*
X40539Y-19158D01*
X40537Y-19096D01*
X40532Y-19036D01*
X40523Y-18980D01*
X40512Y-18929D01*
X40505Y-18906D01*
X40497Y-18884D01*
X40488Y-18863D01*
X40478Y-18842D01*
X40465Y-18820D01*
X40450Y-18795D01*
X40434Y-18771D01*
X40416Y-18745D01*
X40402Y-18723D01*
X40390Y-18705D01*
X40381Y-18691D01*
X40374Y-18680D01*
X40369Y-18673D01*
X40365Y-18667D01*
X40363Y-18663D01*
X40362Y-18661D01*
X40362Y-18660D01*
X40365Y-18658D01*
X40373Y-18657D01*
X40384Y-18657D01*
X40398Y-18657D01*
X40413Y-18658D01*
X40427Y-18660D01*
X40441Y-18662D01*
X40447Y-18663D01*
X40481Y-18675D01*
X40514Y-18692D01*
X40547Y-18716D01*
X40578Y-18745D01*
X40609Y-18779D01*
X40638Y-18818D01*
X40665Y-18862D01*
X40691Y-18910D01*
X40706Y-18943D01*
X40711Y-18953D01*
X40715Y-18960D01*
X40717Y-18963D01*
X40718Y-18963D01*
X40720Y-18957D01*
X40724Y-18946D01*
X40727Y-18931D01*
X40731Y-18913D01*
X40735Y-18895D01*
X40735Y-18892D01*
X40738Y-18874D01*
X40741Y-18856D01*
X40743Y-18839D01*
X40745Y-18822D01*
X40746Y-18803D01*
X40747Y-18782D01*
X40748Y-18758D01*
X40748Y-18731D01*
X40748Y-18699D01*
X40747Y-18663D01*
X40747Y-18634D01*
X40746Y-18589D01*
X40746Y-18551D01*
X40746Y-18517D01*
X40747Y-18488D01*
X40747Y-18463D01*
X40749Y-18440D01*
X40750Y-18421D01*
X40752Y-18402D01*
X40755Y-18385D01*
X40758Y-18370D01*
X40770Y-18324D01*
X40786Y-18282D01*
X40808Y-18245D01*
X40834Y-18211D01*
X40865Y-18181D01*
X40902Y-18154D01*
X40922Y-18141D01*
X40932Y-18136D01*
X40940Y-18132D01*
X40944Y-18130D01*
X40944Y-18130D01*
X40945Y-18133D01*
X40948Y-18141D01*
X40950Y-18154D01*
X40953Y-18169D01*
X40955Y-18181D01*
X40970Y-18262D01*
X40987Y-18338D01*
X41004Y-18408D01*
X41024Y-18473D01*
X41045Y-18534D01*
X41069Y-18590D01*
X41094Y-18643D01*
X41112Y-18674D01*
X41118Y-18685D01*
X41128Y-18701D01*
X41140Y-18719D01*
X41153Y-18740D01*
X41168Y-18763D01*
X41183Y-18785D01*
X41189Y-18794D01*
X41215Y-18834D01*
X41238Y-18871D01*
X41257Y-18904D01*
X41273Y-18934D01*
X41287Y-18963D01*
X41297Y-18990D01*
X41302Y-19005D01*
X41307Y-19018D01*
X41311Y-19028D01*
X41314Y-19034D01*
X41315Y-19036D01*
X41319Y-19033D01*
X41324Y-19027D01*
X41325Y-19026D01*
X41328Y-19022D01*
X41330Y-19016D01*
X41331Y-19009D01*
X41331Y-18998D01*
X41331Y-18983D01*
X41330Y-18958D01*
X41326Y-18932D01*
X41320Y-18903D01*
X41312Y-18870D01*
X41300Y-18834D01*
X41294Y-18815D01*
X41289Y-18797D01*
X41284Y-18780D01*
X41281Y-18764D01*
X41278Y-18752D01*
X41278Y-18744D01*
X41278Y-18742D01*
X41282Y-18742D01*
X41290Y-18744D01*
X41302Y-18747D01*
X41316Y-18753D01*
X41332Y-18759D01*
X41347Y-18765D01*
X41361Y-18772D01*
X41362Y-18772D01*
X41404Y-18796D01*
X41442Y-18825D01*
X41478Y-18860D01*
X41510Y-18900D01*
X41539Y-18945D01*
X41565Y-18995D01*
X41587Y-19051D01*
X41606Y-19111D01*
X41607Y-19114D01*
X41619Y-19161D01*
X41629Y-19209D01*
X41638Y-19259D01*
X41645Y-19312D01*
X41651Y-19368D01*
X41655Y-19428D01*
X41658Y-19493D01*
X41659Y-19563D01*
X41660Y-19630D01*
X41660Y-19658D01*
X41660Y-19681D01*
X41660Y-19699D01*
X41661Y-19711D01*
X41661Y-19720D01*
X41663Y-19726D01*
X41665Y-19729D01*
X41668Y-19730D01*
X41671Y-19730D01*
X41676Y-19728D01*
X41679Y-19726D01*
X41698Y-19715D01*
X41714Y-19699D01*
X41728Y-19676D01*
X41741Y-19648D01*
X41750Y-19613D01*
X41754Y-19598D01*
X41756Y-19588D01*
X41757Y-19579D01*
X41759Y-19570D01*
X41759Y-19560D01*
X41760Y-19548D01*
X41761Y-19534D01*
X41761Y-19517D01*
X41761Y-19495D01*
X41761Y-19469D01*
X41761Y-19447D01*
X41761Y-19421D01*
X41761Y-19397D01*
X41761Y-19376D01*
X41762Y-19359D01*
X41762Y-19345D01*
X41762Y-19336D01*
X41762Y-19333D01*
X41765Y-19335D01*
X41771Y-19339D01*
X41776Y-19342D01*
X41807Y-19367D01*
X41834Y-19397D01*
X41858Y-19432D01*
X41878Y-19473D01*
X41896Y-19519D01*
X41910Y-19570D01*
X41914Y-19589D01*
X41920Y-19621D01*
X41924Y-19653D01*
X41927Y-19686D01*
X41929Y-19720D01*
X41930Y-19758D01*
X41930Y-19802D01*
X41930Y-19815D01*
X41929Y-19860D01*
X41927Y-19900D01*
X41924Y-19938D01*
X41920Y-19974D01*
X41916Y-20011D01*
X41913Y-20031D01*
X41911Y-20046D01*
X41909Y-20058D01*
X41908Y-20066D01*
X41908Y-20070D01*
X41912Y-20070D01*
X41920Y-20068D01*
X41932Y-20065D01*
X41947Y-20061D01*
X41963Y-20057D01*
X41980Y-20052D01*
X41996Y-20047D01*
X42010Y-20042D01*
X42010Y-20041D01*
X42055Y-20023D01*
X42094Y-20004D01*
X42127Y-19984D01*
X42155Y-19962D01*
X42160Y-19958D01*
X42169Y-19950D01*
X42176Y-19943D01*
X42181Y-19940D01*
X42182Y-19940D01*
X42182Y-19940D01*
X42182Y-19940D01*
G37*
G36*
X45868Y-16726D02*
X45907Y-16721D01*
X45944Y-16709D01*
X45960Y-16700D01*
X45993Y-16677D01*
X46020Y-16648D01*
X46040Y-16615D01*
X46053Y-16579D01*
X46059Y-16541D01*
X46058Y-16502D01*
X46049Y-16464D01*
X46031Y-16427D01*
X46020Y-16411D01*
X46003Y-16393D01*
X45985Y-16376D01*
X45969Y-16364D01*
X45963Y-16361D01*
X45929Y-16345D01*
X45894Y-16336D01*
X45855Y-16335D01*
X45842Y-16335D01*
X45821Y-16338D01*
X45802Y-16343D01*
X45781Y-16352D01*
X45759Y-16364D01*
X45726Y-16390D01*
X45700Y-16421D01*
X45681Y-16457D01*
X45676Y-16474D01*
X45671Y-16493D01*
X45668Y-16508D01*
X45668Y-16510D01*
X45668Y-16511D01*
X45666Y-16503D01*
X45666Y-16501D01*
X45660Y-16477D01*
X45651Y-16450D01*
X45639Y-16428D01*
X45617Y-16399D01*
X45587Y-16371D01*
X45552Y-16351D01*
X45514Y-16338D01*
X45473Y-16334D01*
X45462Y-16334D01*
X45431Y-16338D01*
X45401Y-16346D01*
X45396Y-16349D01*
X45363Y-16367D01*
X45333Y-16392D01*
X45309Y-16421D01*
X45290Y-16454D01*
X45280Y-16489D01*
X45279Y-16490D01*
X45277Y-16500D01*
X45276Y-16504D01*
X45276Y-16504D01*
X45275Y-16499D01*
X45272Y-16489D01*
X45272Y-16485D01*
X45260Y-16451D01*
X45241Y-16418D01*
X45215Y-16388D01*
X45193Y-16369D01*
X45158Y-16349D01*
X45121Y-16338D01*
X45079Y-16334D01*
X45050Y-16336D01*
X45011Y-16346D01*
X44975Y-16364D01*
X44944Y-16389D01*
X44918Y-16420D01*
X44915Y-16425D01*
X44907Y-16439D01*
X44900Y-16451D01*
X44897Y-16460D01*
X44891Y-16478D01*
X44887Y-16495D01*
X44885Y-16508D01*
X44885Y-16510D01*
X44884Y-16510D01*
X44883Y-16502D01*
X44878Y-16480D01*
X44869Y-16454D01*
X44857Y-16430D01*
X44834Y-16398D01*
X44804Y-16371D01*
X44769Y-16351D01*
X44731Y-16338D01*
X44690Y-16334D01*
X44653Y-16337D01*
X44614Y-16348D01*
X44580Y-16367D01*
X44548Y-16394D01*
X44533Y-16411D01*
X44518Y-16433D01*
X44506Y-16457D01*
X44499Y-16478D01*
X44493Y-16517D01*
X44494Y-16555D01*
X44503Y-16592D01*
X44518Y-16626D01*
X44539Y-16657D01*
X44566Y-16683D01*
X44598Y-16704D01*
X44634Y-16718D01*
X44673Y-16725D01*
X44677Y-16725D01*
X44717Y-16724D01*
X44754Y-16715D01*
X44790Y-16697D01*
X44803Y-16689D01*
X44829Y-16666D01*
X44852Y-16638D01*
X44868Y-16608D01*
X44873Y-16598D01*
X44878Y-16581D01*
X44882Y-16564D01*
X44884Y-16551D01*
X44884Y-16543D01*
X44885Y-16551D01*
X44886Y-16557D01*
X44890Y-16575D01*
X44895Y-16594D01*
X44901Y-16610D01*
X44911Y-16628D01*
X44935Y-16661D01*
X44965Y-16688D01*
X45000Y-16708D01*
X45038Y-16722D01*
X45045Y-16723D01*
X45072Y-16725D01*
X45100Y-16725D01*
X45126Y-16721D01*
X45152Y-16712D01*
X45189Y-16693D01*
X45221Y-16667D01*
X45223Y-16664D01*
X45245Y-16636D01*
X45262Y-16603D01*
X45272Y-16570D01*
X45273Y-16569D01*
X45275Y-16559D01*
X45276Y-16555D01*
X45277Y-16558D01*
X45279Y-16567D01*
X45279Y-16569D01*
X45284Y-16589D01*
X45294Y-16612D01*
X45305Y-16633D01*
X45322Y-16657D01*
X45352Y-16685D01*
X45386Y-16706D01*
X45425Y-16720D01*
X45432Y-16722D01*
X45459Y-16725D01*
X45487Y-16725D01*
X45512Y-16722D01*
X45534Y-16716D01*
X45571Y-16698D01*
X45603Y-16675D01*
X45630Y-16645D01*
X45651Y-16610D01*
X45655Y-16599D01*
X45661Y-16581D01*
X45665Y-16564D01*
X45667Y-16551D01*
X45667Y-16549D01*
X45667Y-16548D01*
X45669Y-16556D01*
X45669Y-16558D01*
X45675Y-16583D01*
X45684Y-16609D01*
X45696Y-16632D01*
X45701Y-16640D01*
X45727Y-16669D01*
X45757Y-16694D01*
X45791Y-16712D01*
X45828Y-16723D01*
X45868Y-16726D01*
X45868Y-16726D01*
G37*
G36*
X44284Y-16334D02*
X44308Y-16333D01*
X44330Y-16331D01*
X44357Y-16324D01*
X44393Y-16308D01*
X44426Y-16285D01*
X44453Y-16255D01*
X44474Y-16221D01*
X44487Y-16184D01*
X44492Y-16144D01*
X44490Y-16105D01*
X44479Y-16067D01*
X44462Y-16032D01*
X44437Y-16001D01*
X44405Y-15975D01*
X44395Y-15968D01*
X44358Y-15951D01*
X44318Y-15942D01*
X44278Y-15942D01*
X44238Y-15950D01*
X44206Y-15964D01*
X44171Y-15986D01*
X44143Y-16016D01*
X44121Y-16050D01*
X44106Y-16090D01*
X44102Y-16109D01*
X44101Y-16135D01*
X44101Y-16160D01*
X44105Y-16181D01*
X44107Y-16188D01*
X44122Y-16228D01*
X44145Y-16262D01*
X44175Y-16291D01*
X44210Y-16314D01*
X44227Y-16321D01*
X44250Y-16328D01*
X44270Y-16333D01*
X44284Y-16334D01*
X44284Y-16334D01*
G37*
G36*
X46260Y-16334D02*
X46300Y-16329D01*
X46339Y-16315D01*
X46376Y-16293D01*
X46383Y-16287D01*
X46410Y-16258D01*
X46432Y-16224D01*
X46446Y-16186D01*
X46450Y-16166D01*
X46451Y-16140D01*
X46451Y-16115D01*
X46447Y-16094D01*
X46445Y-16085D01*
X46429Y-16046D01*
X46407Y-16013D01*
X46378Y-15985D01*
X46345Y-15963D01*
X46307Y-15948D01*
X46266Y-15942D01*
X46251Y-15941D01*
X46212Y-15946D01*
X46175Y-15959D01*
X46142Y-15978D01*
X46113Y-16003D01*
X46090Y-16033D01*
X46073Y-16068D01*
X46062Y-16106D01*
X46060Y-16146D01*
X46062Y-16171D01*
X46067Y-16192D01*
X46075Y-16215D01*
X46091Y-16245D01*
X46116Y-16275D01*
X46147Y-16301D01*
X46182Y-16319D01*
X46220Y-16331D01*
X46260Y-16334D01*
X46260Y-16334D01*
G37*
G36*
X43893Y-15941D02*
X43921Y-15941D01*
X43946Y-15938D01*
X43974Y-15929D01*
X44010Y-15911D01*
X44042Y-15884D01*
X44063Y-15860D01*
X44083Y-15826D01*
X44096Y-15788D01*
X44099Y-15772D01*
X44100Y-15749D01*
X44099Y-15725D01*
X44097Y-15705D01*
X44093Y-15693D01*
X44078Y-15654D01*
X44055Y-15620D01*
X44026Y-15592D01*
X43991Y-15570D01*
X43977Y-15564D01*
X43952Y-15555D01*
X43927Y-15551D01*
X43897Y-15551D01*
X43879Y-15552D01*
X43858Y-15555D01*
X43838Y-15561D01*
X43817Y-15570D01*
X43804Y-15577D01*
X43772Y-15601D01*
X43745Y-15631D01*
X43724Y-15667D01*
X43712Y-15707D01*
X43710Y-15716D01*
X43709Y-15739D01*
X43709Y-15764D01*
X43712Y-15784D01*
X43715Y-15798D01*
X43730Y-15837D01*
X43753Y-15870D01*
X43782Y-15899D01*
X43816Y-15921D01*
X43856Y-15936D01*
X43867Y-15938D01*
X43893Y-15941D01*
X43893Y-15941D01*
G37*
G36*
X45467Y-15941D02*
X45506Y-15939D01*
X45543Y-15928D01*
X45565Y-15918D01*
X45599Y-15895D01*
X45626Y-15866D01*
X45648Y-15831D01*
X45662Y-15793D01*
X45664Y-15785D01*
X45668Y-15753D01*
X45666Y-15723D01*
X45659Y-15689D01*
X45643Y-15651D01*
X45620Y-15618D01*
X45591Y-15590D01*
X45556Y-15569D01*
X45516Y-15555D01*
X45491Y-15548D01*
X45504Y-15547D01*
X45507Y-15546D01*
X45535Y-15539D01*
X45565Y-15526D01*
X45592Y-15508D01*
X45596Y-15505D01*
X45625Y-15476D01*
X45646Y-15443D01*
X45660Y-15407D01*
X45667Y-15368D01*
X45666Y-15330D01*
X45657Y-15291D01*
X45640Y-15255D01*
X45640Y-15253D01*
X45615Y-15221D01*
X45586Y-15195D01*
X45553Y-15176D01*
X45517Y-15164D01*
X45479Y-15159D01*
X45441Y-15161D01*
X45404Y-15170D01*
X45369Y-15187D01*
X45337Y-15212D01*
X45319Y-15231D01*
X45300Y-15259D01*
X45286Y-15290D01*
X45279Y-15319D01*
X45277Y-15326D01*
X45276Y-15330D01*
X45275Y-15327D01*
X45273Y-15319D01*
X45267Y-15293D01*
X45255Y-15265D01*
X45238Y-15238D01*
X45229Y-15226D01*
X45199Y-15198D01*
X45165Y-15178D01*
X45127Y-15164D01*
X45088Y-15158D01*
X45048Y-15161D01*
X45023Y-15167D01*
X44986Y-15183D01*
X44953Y-15206D01*
X44925Y-15235D01*
X44904Y-15269D01*
X44890Y-15307D01*
X44886Y-15327D01*
X44885Y-15367D01*
X44892Y-15406D01*
X44906Y-15443D01*
X44928Y-15476D01*
X44956Y-15505D01*
X44991Y-15528D01*
X45006Y-15535D01*
X45024Y-15541D01*
X45041Y-15546D01*
X45054Y-15548D01*
X45056Y-15548D01*
X45055Y-15549D01*
X45046Y-15552D01*
X45027Y-15557D01*
X45001Y-15566D01*
X44979Y-15578D01*
X44966Y-15586D01*
X44940Y-15609D01*
X44917Y-15637D01*
X44900Y-15667D01*
X44890Y-15699D01*
X44885Y-15734D01*
X44885Y-15768D01*
X44887Y-15775D01*
X44897Y-15816D01*
X44916Y-15852D01*
X44943Y-15884D01*
X44964Y-15903D01*
X44999Y-15924D01*
X45038Y-15938D01*
X45053Y-15940D01*
X45074Y-15940D01*
X45097Y-15940D01*
X45118Y-15938D01*
X45134Y-15935D01*
X45147Y-15930D01*
X45185Y-15912D01*
X45217Y-15886D01*
X45244Y-15854D01*
X45253Y-15839D01*
X45265Y-15812D01*
X45272Y-15786D01*
X45273Y-15785D01*
X45275Y-15775D01*
X45276Y-15771D01*
X45276Y-15771D01*
X45276Y-15720D01*
X45276Y-15720D01*
X45275Y-15715D01*
X45272Y-15705D01*
X45272Y-15702D01*
X45260Y-15667D01*
X45241Y-15634D01*
X45216Y-15605D01*
X45187Y-15581D01*
X45153Y-15563D01*
X45151Y-15563D01*
X45134Y-15557D01*
X45118Y-15553D01*
X45100Y-15549D01*
X45117Y-15546D01*
X45140Y-15541D01*
X45175Y-15525D01*
X45207Y-15503D01*
X45235Y-15475D01*
X45255Y-15443D01*
X45263Y-15426D01*
X45270Y-15406D01*
X45273Y-15389D01*
X45275Y-15382D01*
X45276Y-15378D01*
X45277Y-15381D01*
X45279Y-15389D01*
X45282Y-15404D01*
X45288Y-15424D01*
X45297Y-15443D01*
X45309Y-15463D01*
X45334Y-15493D01*
X45365Y-15518D01*
X45399Y-15536D01*
X45436Y-15546D01*
X45453Y-15549D01*
X45435Y-15553D01*
X45433Y-15553D01*
X45415Y-15558D01*
X45399Y-15563D01*
X45395Y-15565D01*
X45362Y-15583D01*
X45333Y-15607D01*
X45309Y-15637D01*
X45290Y-15670D01*
X45280Y-15705D01*
X45279Y-15706D01*
X45277Y-15716D01*
X45276Y-15720D01*
X45276Y-15771D01*
X45276Y-15771D01*
X45277Y-15776D01*
X45280Y-15786D01*
X45286Y-15812D01*
X45303Y-15846D01*
X45327Y-15878D01*
X45356Y-15904D01*
X45390Y-15924D01*
X45390Y-15924D01*
X45427Y-15936D01*
X45467Y-15941D01*
X45467Y-15941D01*
G37*
G36*
X46633Y-15941D02*
X46665Y-15941D01*
X46694Y-15936D01*
X46713Y-15931D01*
X46750Y-15913D01*
X46782Y-15889D01*
X46808Y-15859D01*
X46827Y-15825D01*
X46839Y-15787D01*
X46844Y-15746D01*
X46843Y-15729D01*
X46836Y-15689D01*
X46820Y-15651D01*
X46795Y-15616D01*
X46789Y-15609D01*
X46761Y-15585D01*
X46728Y-15567D01*
X46693Y-15555D01*
X46692Y-15555D01*
X46663Y-15550D01*
X46632Y-15550D01*
X46602Y-15555D01*
X46591Y-15558D01*
X46554Y-15573D01*
X46522Y-15595D01*
X46495Y-15623D01*
X46474Y-15655D01*
X46459Y-15691D01*
X46452Y-15729D01*
X46453Y-15768D01*
X46462Y-15808D01*
X46475Y-15837D01*
X46497Y-15871D01*
X46526Y-15899D01*
X46560Y-15921D01*
X46599Y-15935D01*
X46603Y-15937D01*
X46633Y-15941D01*
X46633Y-15941D01*
G37*
G36*
X44695Y-14767D02*
X44733Y-14761D01*
X44771Y-14748D01*
X44789Y-14739D01*
X44806Y-14727D01*
X44825Y-14710D01*
X44845Y-14688D01*
X44865Y-14655D01*
X44879Y-14617D01*
X44881Y-14607D01*
X44884Y-14581D01*
X44884Y-14553D01*
X44881Y-14529D01*
X44870Y-14497D01*
X44852Y-14462D01*
X44828Y-14433D01*
X44824Y-14429D01*
X44806Y-14414D01*
X44785Y-14400D01*
X44765Y-14390D01*
X44758Y-14387D01*
X44742Y-14382D01*
X44726Y-14378D01*
X44715Y-14376D01*
X44708Y-14376D01*
X44715Y-14374D01*
X44725Y-14371D01*
X44737Y-14368D01*
X44751Y-14364D01*
X44781Y-14351D01*
X44809Y-14332D01*
X44833Y-14311D01*
X44837Y-14307D01*
X44860Y-14273D01*
X44876Y-14236D01*
X44884Y-14197D01*
X44884Y-14158D01*
X44882Y-14148D01*
X44872Y-14108D01*
X44853Y-14072D01*
X44826Y-14040D01*
X44802Y-14019D01*
X44769Y-13999D01*
X44730Y-13986D01*
X44723Y-13985D01*
X44696Y-13983D01*
X44668Y-13983D01*
X44644Y-13987D01*
X44621Y-13994D01*
X44585Y-14012D01*
X44554Y-14036D01*
X44528Y-14066D01*
X44508Y-14100D01*
X44497Y-14137D01*
X44496Y-14142D01*
X44493Y-14151D01*
X44491Y-14154D01*
X44490Y-14150D01*
X44489Y-14142D01*
X44485Y-14126D01*
X44480Y-14108D01*
X44473Y-14092D01*
X44467Y-14081D01*
X44442Y-14047D01*
X44412Y-14020D01*
X44378Y-14000D01*
X44339Y-13987D01*
X44298Y-13983D01*
X44265Y-13985D01*
X44228Y-13994D01*
X44193Y-14011D01*
X44174Y-14026D01*
X44145Y-14054D01*
X44123Y-14087D01*
X44108Y-14123D01*
X44101Y-14162D01*
X44101Y-14201D01*
X44110Y-14238D01*
X44126Y-14275D01*
X44150Y-14308D01*
X44179Y-14336D01*
X44215Y-14356D01*
X44255Y-14370D01*
X44277Y-14375D01*
X44265Y-14377D01*
X44256Y-14378D01*
X44225Y-14388D01*
X44194Y-14404D01*
X44165Y-14425D01*
X44142Y-14449D01*
X44129Y-14469D01*
X44115Y-14496D01*
X44106Y-14522D01*
X44102Y-14543D01*
X44101Y-14568D01*
X44101Y-14593D01*
X44105Y-14614D01*
X44111Y-14636D01*
X44130Y-14674D01*
X44155Y-14706D01*
X44186Y-14732D01*
X44222Y-14752D01*
X44263Y-14764D01*
X44274Y-14765D01*
X44298Y-14766D01*
X44323Y-14764D01*
X44345Y-14760D01*
X44361Y-14756D01*
X44398Y-14738D01*
X44430Y-14714D01*
X44457Y-14683D01*
X44476Y-14648D01*
X44489Y-14610D01*
X44489Y-14606D01*
X44492Y-14598D01*
X44493Y-14598D01*
X44493Y-14545D01*
X44491Y-14543D01*
X44489Y-14535D01*
X44489Y-14533D01*
X44482Y-14507D01*
X44470Y-14479D01*
X44453Y-14453D01*
X44442Y-14439D01*
X44411Y-14411D01*
X44376Y-14391D01*
X44336Y-14378D01*
X44317Y-14375D01*
X44331Y-14372D01*
X44342Y-14369D01*
X44355Y-14366D01*
X44363Y-14363D01*
X44398Y-14346D01*
X44430Y-14321D01*
X44456Y-14291D01*
X44476Y-14257D01*
X44488Y-14220D01*
X44490Y-14210D01*
X44492Y-14205D01*
X44494Y-14208D01*
X44497Y-14221D01*
X44497Y-14221D01*
X44503Y-14242D01*
X44513Y-14266D01*
X44525Y-14287D01*
X44535Y-14299D01*
X44552Y-14318D01*
X44572Y-14336D01*
X44591Y-14349D01*
X44592Y-14349D01*
X44622Y-14363D01*
X44654Y-14372D01*
X44668Y-14375D01*
X44652Y-14377D01*
X44617Y-14387D01*
X44582Y-14405D01*
X44551Y-14430D01*
X44526Y-14460D01*
X44520Y-14470D01*
X44511Y-14489D01*
X44503Y-14508D01*
X44497Y-14526D01*
X44495Y-14540D01*
X44495Y-14540D01*
X44493Y-14545D01*
X44493Y-14598D01*
X44494Y-14598D01*
X44496Y-14607D01*
X44498Y-14618D01*
X44502Y-14631D01*
X44509Y-14651D01*
X44529Y-14685D01*
X44555Y-14714D01*
X44585Y-14737D01*
X44620Y-14754D01*
X44656Y-14764D01*
X44695Y-14767D01*
X44695Y-14767D01*
G37*
G36*
X45874Y-14767D02*
X45913Y-14760D01*
X45949Y-14747D01*
X45982Y-14726D01*
X46011Y-14700D01*
X46034Y-14668D01*
X46050Y-14631D01*
X46054Y-14618D01*
X46056Y-14607D01*
X46057Y-14605D01*
X46059Y-14597D01*
X46059Y-14598D01*
X46059Y-14543D01*
X46057Y-14537D01*
X46054Y-14524D01*
X46047Y-14501D01*
X46030Y-14466D01*
X46006Y-14435D01*
X45976Y-14410D01*
X45941Y-14390D01*
X45903Y-14378D01*
X45884Y-14375D01*
X45898Y-14372D01*
X45899Y-14372D01*
X45931Y-14362D01*
X45961Y-14349D01*
X45974Y-14340D01*
X45993Y-14324D01*
X46012Y-14305D01*
X46027Y-14287D01*
X46037Y-14269D01*
X46048Y-14244D01*
X46055Y-14221D01*
X46057Y-14210D01*
X46059Y-14205D01*
X46061Y-14208D01*
X46064Y-14220D01*
X46071Y-14246D01*
X46089Y-14282D01*
X46115Y-14314D01*
X46145Y-14340D01*
X46181Y-14360D01*
X46221Y-14372D01*
X46235Y-14375D01*
X46216Y-14378D01*
X46198Y-14383D01*
X46160Y-14399D01*
X46127Y-14423D01*
X46099Y-14453D01*
X46091Y-14465D01*
X46080Y-14482D01*
X46071Y-14503D01*
X46067Y-14517D01*
X46063Y-14533D01*
X46063Y-14533D01*
X46061Y-14541D01*
X46059Y-14543D01*
X46059Y-14598D01*
X46061Y-14599D01*
X46063Y-14609D01*
X46066Y-14622D01*
X46077Y-14652D01*
X46093Y-14680D01*
X46104Y-14695D01*
X46133Y-14724D01*
X46168Y-14746D01*
X46208Y-14761D01*
X46225Y-14764D01*
X46252Y-14766D01*
X46280Y-14765D01*
X46304Y-14761D01*
X46307Y-14760D01*
X46346Y-14744D01*
X46380Y-14722D01*
X46409Y-14693D01*
X46431Y-14658D01*
X46446Y-14618D01*
X46450Y-14601D01*
X46451Y-14574D01*
X46450Y-14546D01*
X46446Y-14522D01*
X46439Y-14501D01*
X46425Y-14473D01*
X46410Y-14449D01*
X46392Y-14429D01*
X46368Y-14410D01*
X46343Y-14395D01*
X46333Y-14390D01*
X46314Y-14383D01*
X46296Y-14378D01*
X46282Y-14376D01*
X46281Y-14375D01*
X46286Y-14373D01*
X46297Y-14370D01*
X46320Y-14363D01*
X46345Y-14353D01*
X46367Y-14340D01*
X46371Y-14337D01*
X46396Y-14314D01*
X46419Y-14287D01*
X46436Y-14257D01*
X46441Y-14243D01*
X46450Y-14204D01*
X46451Y-14163D01*
X46444Y-14124D01*
X46442Y-14115D01*
X46425Y-14079D01*
X46401Y-14047D01*
X46371Y-14020D01*
X46336Y-14000D01*
X46298Y-13986D01*
X46292Y-13985D01*
X46265Y-13983D01*
X46236Y-13983D01*
X46210Y-13987D01*
X46205Y-13989D01*
X46165Y-14004D01*
X46131Y-14027D01*
X46102Y-14056D01*
X46079Y-14092D01*
X46074Y-14103D01*
X46068Y-14121D01*
X46064Y-14138D01*
X46062Y-14150D01*
X46062Y-14153D01*
X46060Y-14154D01*
X46058Y-14149D01*
X46056Y-14138D01*
X46048Y-14111D01*
X46032Y-14077D01*
X46008Y-14046D01*
X45978Y-14020D01*
X45944Y-13999D01*
X45944Y-13999D01*
X45908Y-13987D01*
X45868Y-13983D01*
X45829Y-13985D01*
X45792Y-13996D01*
X45770Y-14006D01*
X45736Y-14029D01*
X45709Y-14058D01*
X45687Y-14093D01*
X45673Y-14131D01*
X45671Y-14139D01*
X45667Y-14171D01*
X45668Y-14201D01*
X45677Y-14237D01*
X45693Y-14275D01*
X45716Y-14308D01*
X45746Y-14335D01*
X45782Y-14356D01*
X45822Y-14370D01*
X45830Y-14372D01*
X45837Y-14375D01*
X45837Y-14376D01*
X45825Y-14377D01*
X45803Y-14384D01*
X45779Y-14394D01*
X45756Y-14407D01*
X45734Y-14424D01*
X45706Y-14453D01*
X45685Y-14489D01*
X45682Y-14495D01*
X45671Y-14534D01*
X45668Y-14574D01*
X45672Y-14614D01*
X45685Y-14652D01*
X45694Y-14670D01*
X45706Y-14688D01*
X45723Y-14706D01*
X45724Y-14707D01*
X45756Y-14734D01*
X45791Y-14753D01*
X45830Y-14764D01*
X45834Y-14764D01*
X45874Y-14767D01*
X45874Y-14767D01*
G37*
G54D11*
X57811Y-40712D02*
X57339Y-40751D01*
X57811Y-40751D02*
X56984Y-40791D01*
X57811Y-40791D02*
X56669Y-40830D01*
X57811Y-40830D02*
X56354Y-40869D01*
X57811Y-40869D02*
X55961Y-40909D01*
X57811Y-40909D02*
X55764Y-40948D01*
X57811Y-40948D02*
X55409Y-40987D01*
X57811Y-40987D02*
X55173Y-41027D01*
X57772Y-41027D02*
X54780Y-41066D01*
X54189Y-41106D02*
X57811Y-41106D01*
X57811Y-41106D02*
X57811Y-40633D01*
X57811Y-40633D02*
X54189Y-41106D01*
X56000Y-40397D02*
X55606Y-40043D01*
X55606Y-40043D02*
X56394Y-40043D01*
X56394Y-40043D02*
X56000Y-40397D01*
X53244Y-40869D02*
X53244Y-39294D01*
X58756Y-40869D02*
X58756Y-39294D01*
X58756Y-39294D02*
X58362Y-39294D01*
X56000Y-50121D02*
X56428Y-50102D01*
X56854Y-50046D01*
X57273Y-49953D01*
X57683Y-49824D01*
X58079Y-49659D01*
X58460Y-49461D01*
X58822Y-49231D01*
X59163Y-48969D01*
X59479Y-48679D01*
X59769Y-48363D01*
X60031Y-48022D01*
X60261Y-47660D01*
X60459Y-47279D01*
X60624Y-46883D01*
X60753Y-46473D01*
X60846Y-46054D01*
X60902Y-45628D01*
X60921Y-45200D01*
X60902Y-44772D01*
X60846Y-44346D01*
X60753Y-43927D01*
X60624Y-43517D01*
X60459Y-43121D01*
X60261Y-42740D01*
X60031Y-42378D01*
X59769Y-42037D01*
X59479Y-41721D01*
X59163Y-41431D01*
X58822Y-41169D01*
X58460Y-40939D01*
X53540Y-40939D02*
X53178Y-41169D01*
X52837Y-41431D01*
X52521Y-41721D01*
X52231Y-42037D01*
X51969Y-42378D01*
X51739Y-42740D01*
X51541Y-43121D01*
X51376Y-43517D01*
X51247Y-43927D01*
X51154Y-44346D01*
X51098Y-44772D01*
X51079Y-45200D01*
X51098Y-45628D01*
X51154Y-46054D01*
X51247Y-46473D01*
X51376Y-46883D01*
X51541Y-47279D01*
X51739Y-47660D01*
X51969Y-48022D01*
X52231Y-48363D01*
X52521Y-48679D01*
X52837Y-48969D01*
X53178Y-49231D01*
X53540Y-49461D01*
X53921Y-49659D01*
X54317Y-49824D01*
X54727Y-49953D01*
X55146Y-50046D01*
X55572Y-50102D01*
X56000Y-50121D01*
X53244Y-39294D02*
X53638Y-39294D01*
X57969Y-40869D02*
X58756Y-40869D01*
X54031Y-40869D02*
X53244Y-40869D01*
X54031Y-41262D02*
X54031Y-40475D01*
X54031Y-40476D02*
X57969Y-40476D01*
X57969Y-40476D02*
X57969Y-41263D01*
X57969Y-41263D02*
X54031Y-41263D01*
G54D16*
X56196Y-35918D02*
X56196Y-36046D01*
X56196Y-36046D02*
X56393Y-36046D01*
X56393Y-35918D02*
X56393Y-36046D01*
X56196Y-35918D02*
X56393Y-35918D01*
X56196Y-35673D02*
X56196Y-35732D01*
X56196Y-35732D02*
X56295Y-35732D01*
X56295Y-35673D02*
X56295Y-35732D01*
X56196Y-35673D02*
X56295Y-35673D01*
X56196Y-35868D02*
X56196Y-35927D01*
X56196Y-35927D02*
X56295Y-35927D01*
X56295Y-35868D02*
X56295Y-35927D01*
X56196Y-35868D02*
X56295Y-35868D01*
X56196Y-35722D02*
X56196Y-35878D01*
X56196Y-35878D02*
X56265Y-35878D01*
X56265Y-35722D02*
X56265Y-35878D01*
X56196Y-35722D02*
X56265Y-35722D01*
X55607Y-35918D02*
X55607Y-36046D01*
X55607Y-36046D02*
X55804Y-36046D01*
X55804Y-35918D02*
X55804Y-36046D01*
X55607Y-35918D02*
X55804Y-35918D01*
X55607Y-35554D02*
X55607Y-35682D01*
X55607Y-35682D02*
X55804Y-35682D01*
X55804Y-35554D02*
X55804Y-35682D01*
X55607Y-35554D02*
X55804Y-35554D01*
X55705Y-35868D02*
X55705Y-35927D01*
X55705Y-35927D02*
X55804Y-35927D01*
X55804Y-35868D02*
X55804Y-35927D01*
X55705Y-35868D02*
X55804Y-35868D01*
X55705Y-35673D02*
X55705Y-35732D01*
X55705Y-35732D02*
X55804Y-35732D01*
X55804Y-35673D02*
X55804Y-35732D01*
X55705Y-35673D02*
X55804Y-35673D01*
X55735Y-35722D02*
X55735Y-35878D01*
X55735Y-35878D02*
X55804Y-35878D01*
X55804Y-35722D02*
X55804Y-35878D01*
X55735Y-35722D02*
X55804Y-35722D01*
X56000Y-35761D02*
X56000Y-35839D01*
X56000Y-35839D02*
X56078Y-35839D01*
X56078Y-35761D02*
X56078Y-35839D01*
X56000Y-35761D02*
X56078Y-35761D01*
X56196Y-35564D02*
X56196Y-35682D01*
X56196Y-35682D02*
X56314Y-35682D01*
X56314Y-35564D02*
X56314Y-35682D01*
X56196Y-35564D02*
X56314Y-35564D01*
X56364Y-35554D02*
X56364Y-35643D01*
X56364Y-35643D02*
X56393Y-35643D01*
X56393Y-35554D02*
X56393Y-35643D01*
X56364Y-35554D02*
X56393Y-35554D01*
G54D17*
X56206Y-36026D02*
X55794Y-36026D01*
X55804Y-35574D02*
X56364Y-35574D01*
G54D18*
X56362Y-35623D02*
X56361Y-35628D01*
X56359Y-35633D01*
X56357Y-35638D01*
X56353Y-35642D01*
X56349Y-35646D01*
X56344Y-35648D01*
X56339Y-35650D01*
X56334Y-35650D01*
X56329Y-35650D01*
X56324Y-35648D01*
X56319Y-35646D01*
X56315Y-35643D01*
X56311Y-35638D01*
X56309Y-35634D01*
X56307Y-35628D01*
X56307Y-35623D01*
X56307Y-35618D01*
X56308Y-35613D01*
X56311Y-35608D01*
X56314Y-35604D01*
X56319Y-35601D01*
X56323Y-35598D01*
X56328Y-35596D01*
X56334Y-35596D01*
X56338Y-35596D01*
X56344Y-35597D01*
X56349Y-35600D01*
X56353Y-35603D01*
X56356Y-35607D01*
X56359Y-35612D01*
X56361Y-35617D01*
X56361Y-35623D01*
X56362Y-35623D01*
G54D17*
X56393Y-35663D02*
X56382Y-35664D01*
X56370Y-35666D01*
X56358Y-35668D01*
X56347Y-35672D01*
X56336Y-35676D01*
X56325Y-35682D01*
X56315Y-35688D01*
X56305Y-35696D01*
X56297Y-35704D01*
X56289Y-35712D01*
X56281Y-35722D01*
X56275Y-35732D01*
X56269Y-35743D01*
X56265Y-35754D01*
X56261Y-35765D01*
X56259Y-35777D01*
X56257Y-35789D01*
X56256Y-35800D01*
X56257Y-35811D01*
X56259Y-35823D01*
X56261Y-35835D01*
X56265Y-35846D01*
X56269Y-35857D01*
X56275Y-35868D01*
X56281Y-35878D01*
X56289Y-35888D01*
X56297Y-35896D01*
X56305Y-35904D01*
X56315Y-35912D01*
X56325Y-35918D01*
X56336Y-35924D01*
X56347Y-35928D01*
X56358Y-35932D01*
X56370Y-35934D01*
X56382Y-35936D01*
X56393Y-35937D01*
X55607Y-35937D02*
X55618Y-35936D01*
X55630Y-35934D01*
X55642Y-35932D01*
X55653Y-35928D01*
X55664Y-35924D01*
X55675Y-35918D01*
X55685Y-35912D01*
X55695Y-35904D01*
X55703Y-35896D01*
X55711Y-35888D01*
X55719Y-35878D01*
X55725Y-35868D01*
X55731Y-35857D01*
X55735Y-35846D01*
X55739Y-35835D01*
X55741Y-35823D01*
X55743Y-35811D01*
X55744Y-35800D01*
X55743Y-35789D01*
X55741Y-35777D01*
X55739Y-35765D01*
X55735Y-35754D01*
X55731Y-35743D01*
X55725Y-35732D01*
X55719Y-35722D01*
X55711Y-35712D01*
X55703Y-35704D01*
X55695Y-35696D01*
X55685Y-35688D01*
X55675Y-35682D01*
X55664Y-35676D01*
X55653Y-35672D01*
X55642Y-35668D01*
X55630Y-35666D01*
X55618Y-35664D01*
X55607Y-35663D01*
G54D19*
X40270Y-15354D02*
X40252Y-15528D01*
X40202Y-15696D01*
X40119Y-15852D01*
X40008Y-15988D01*
X39873Y-16100D01*
X39718Y-16183D01*
X39550Y-16235D01*
X39376Y-16253D01*
X39202Y-16238D01*
X39033Y-16188D01*
X38878Y-16107D01*
X38741Y-15997D01*
X38628Y-15862D01*
X38543Y-15708D01*
X38490Y-15541D01*
X38471Y-15366D01*
X38485Y-15192D01*
X38534Y-15023D01*
X38614Y-14867D01*
X38723Y-14729D01*
X38857Y-14615D01*
X39010Y-14530D01*
X39177Y-14475D01*
X39352Y-14455D01*
X39526Y-14468D01*
X39695Y-14515D01*
X39852Y-14595D01*
X39990Y-14703D01*
X40105Y-14836D01*
X40192Y-14988D01*
X40247Y-15155D01*
X40269Y-15329D01*
X40270Y-15354D01*
X75703Y-15354D02*
X75685Y-15528D01*
X75635Y-15696D01*
X75552Y-15852D01*
X75441Y-15988D01*
X75306Y-16100D01*
X75151Y-16183D01*
X74983Y-16235D01*
X74809Y-16253D01*
X74635Y-16238D01*
X74466Y-16188D01*
X74311Y-16107D01*
X74174Y-15997D01*
X74061Y-15862D01*
X73976Y-15708D01*
X73923Y-15541D01*
X73904Y-15366D01*
X73918Y-15192D01*
X73967Y-15023D01*
X74047Y-14867D01*
X74156Y-14729D01*
X74290Y-14615D01*
X74443Y-14530D01*
X74610Y-14475D01*
X74785Y-14455D01*
X74959Y-14468D01*
X75128Y-14515D01*
X75285Y-14595D01*
X75423Y-14703D01*
X75538Y-14836D01*
X75625Y-14988D01*
X75680Y-15155D01*
X75702Y-15329D01*
X75703Y-15354D01*
X40270Y-50787D02*
X40252Y-50961D01*
X40202Y-51129D01*
X40119Y-51285D01*
X40008Y-51421D01*
X39873Y-51533D01*
X39718Y-51616D01*
X39550Y-51668D01*
X39376Y-51686D01*
X39202Y-51671D01*
X39033Y-51621D01*
X38878Y-51540D01*
X38741Y-51430D01*
X38628Y-51295D01*
X38543Y-51141D01*
X38490Y-50974D01*
X38471Y-50799D01*
X38485Y-50625D01*
X38534Y-50456D01*
X38614Y-50300D01*
X38723Y-50162D01*
X38857Y-50048D01*
X39010Y-49963D01*
X39177Y-49908D01*
X39352Y-49888D01*
X39526Y-49901D01*
X39695Y-49948D01*
X39852Y-50028D01*
X39990Y-50136D01*
X40105Y-50269D01*
X40192Y-50421D01*
X40247Y-50588D01*
X40269Y-50762D01*
X40270Y-50787D01*
X75703Y-50787D02*
X75685Y-50961D01*
X75635Y-51129D01*
X75552Y-51285D01*
X75441Y-51421D01*
X75306Y-51533D01*
X75151Y-51616D01*
X74983Y-51668D01*
X74809Y-51686D01*
X74635Y-51671D01*
X74466Y-51621D01*
X74311Y-51540D01*
X74174Y-51430D01*
X74061Y-51295D01*
X73976Y-51141D01*
X73923Y-50974D01*
X73904Y-50799D01*
X73918Y-50625D01*
X73967Y-50456D01*
X74047Y-50300D01*
X74156Y-50162D01*
X74290Y-50048D01*
X74443Y-49963D01*
X74610Y-49908D01*
X74785Y-49888D01*
X74959Y-49901D01*
X75128Y-49948D01*
X75285Y-50028D01*
X75423Y-50136D01*
X75538Y-50269D01*
X75625Y-50421D01*
X75680Y-50588D01*
X75702Y-50762D01*
X75703Y-50787D01*
G54D11*
X43750Y-45650D02*
X43750Y-46850D01*
X43750Y-46850D02*
X46550Y-46850D01*
X46550Y-46850D02*
X46550Y-45650D01*
X43750Y-44450D02*
X43750Y-44150D01*
X43750Y-44150D02*
X44350Y-43250D01*
X44350Y-43250D02*
X45950Y-43250D01*
X45950Y-43250D02*
X46550Y-44150D01*
X46550Y-44150D02*
X46550Y-44450D01*
G54D16*
X44871Y-38385D02*
X45166Y-38385D01*
X45166Y-38385D02*
X45166Y-37815D01*
X44871Y-37815D02*
X45166Y-37815D01*
X44871Y-38385D02*
X44871Y-37815D01*
X45440Y-38385D02*
X45735Y-38385D01*
X45735Y-38385D02*
X45735Y-37815D01*
X45440Y-37815D02*
X45735Y-37815D01*
X45440Y-38385D02*
X45440Y-37815D01*
X45261Y-38257D02*
X45339Y-38257D01*
X45339Y-38257D02*
X45339Y-37943D01*
X45261Y-37943D02*
X45339Y-37943D01*
X45261Y-38257D02*
X45261Y-37943D01*
G54D18*
X44524Y-37713D02*
X46076Y-37713D01*
X46076Y-38487D02*
X44524Y-38487D01*
X44524Y-38487D02*
X44524Y-37713D01*
G54D17*
X45150Y-37841D02*
X45450Y-37841D01*
X45160Y-38359D02*
X45450Y-38359D01*
G54D18*
X46076Y-37713D02*
X46076Y-38487D01*
G54D16*
X46920Y-47415D02*
X46624Y-47415D01*
X46624Y-47415D02*
X46624Y-48084D01*
X46920Y-48084D02*
X46624Y-48084D01*
X46920Y-47415D02*
X46920Y-48084D01*
X45876Y-47416D02*
X45580Y-47416D01*
X45580Y-47416D02*
X45580Y-48085D01*
X45876Y-48085D02*
X45580Y-48085D01*
X45876Y-47416D02*
X45876Y-48085D01*
X46328Y-47593D02*
X46172Y-47593D01*
X46172Y-47593D02*
X46172Y-47907D01*
X46328Y-47907D02*
X46172Y-47907D01*
X46328Y-47593D02*
X46328Y-47907D01*
G54D18*
X47223Y-48137D02*
X45277Y-48137D01*
X45277Y-47363D02*
X47223Y-47363D01*
X47223Y-47363D02*
X47223Y-48137D01*
X45277Y-48137D02*
X45277Y-47363D01*
G54D17*
X46629Y-48059D02*
X45871Y-48059D01*
X46629Y-47441D02*
X45871Y-47441D01*
G54D16*
X43380Y-48085D02*
X43676Y-48085D01*
X43676Y-48085D02*
X43676Y-47416D01*
X43380Y-47416D02*
X43676Y-47416D01*
X43380Y-48085D02*
X43380Y-47416D01*
X44424Y-48084D02*
X44720Y-48084D01*
X44720Y-48084D02*
X44720Y-47415D01*
X44424Y-47415D02*
X44720Y-47415D01*
X44424Y-48084D02*
X44424Y-47415D01*
X43972Y-47907D02*
X44128Y-47907D01*
X44128Y-47907D02*
X44128Y-47593D01*
X43972Y-47593D02*
X44128Y-47593D01*
X43972Y-47907D02*
X43972Y-47593D01*
G54D18*
X43077Y-47363D02*
X45023Y-47363D01*
X45023Y-48137D02*
X43077Y-48137D01*
X43077Y-48137D02*
X43077Y-47363D01*
X45023Y-47363D02*
X45023Y-48137D01*
G54D17*
X43671Y-47441D02*
X44429Y-47441D01*
X43671Y-48059D02*
X44429Y-48059D01*
G54D16*
X44080Y-35054D02*
X44080Y-35247D01*
X44080Y-35247D02*
X44513Y-35247D01*
X44513Y-35054D02*
X44513Y-35247D01*
X44080Y-35054D02*
X44513Y-35054D01*
X44080Y-35554D02*
X44080Y-35747D01*
X44080Y-35747D02*
X44513Y-35747D01*
X44513Y-35554D02*
X44513Y-35747D01*
X44080Y-35554D02*
X44513Y-35554D01*
X44080Y-36053D02*
X44080Y-36246D01*
X44080Y-36246D02*
X44513Y-36246D01*
X44513Y-36053D02*
X44513Y-36246D01*
X44080Y-36053D02*
X44513Y-36053D01*
X44080Y-36553D02*
X44080Y-36746D01*
X44080Y-36746D02*
X44513Y-36746D01*
X44513Y-36553D02*
X44513Y-36746D01*
X44080Y-36553D02*
X44513Y-36553D01*
X46087Y-36553D02*
X46087Y-36746D01*
X46087Y-36746D02*
X46520Y-36746D01*
X46520Y-36553D02*
X46520Y-36746D01*
X46087Y-36553D02*
X46520Y-36553D01*
X46087Y-36053D02*
X46087Y-36246D01*
X46087Y-36246D02*
X46520Y-36246D01*
X46520Y-36053D02*
X46520Y-36246D01*
X46087Y-36053D02*
X46520Y-36053D01*
X46087Y-35554D02*
X46087Y-35747D01*
X46087Y-35747D02*
X46520Y-35747D01*
X46520Y-35554D02*
X46520Y-35747D01*
X46087Y-35554D02*
X46520Y-35554D01*
X46087Y-35054D02*
X46087Y-35247D01*
X46087Y-35247D02*
X46520Y-35247D01*
X46520Y-35054D02*
X46520Y-35247D01*
X46087Y-35054D02*
X46520Y-35054D01*
G54D20*
X46835Y-34759D02*
X46835Y-37041D01*
X46835Y-37041D02*
X43765Y-37041D01*
X43765Y-37041D02*
X43765Y-34759D01*
X43765Y-34759D02*
X46835Y-34759D01*
G54D11*
X46048Y-36844D02*
X44749Y-36844D01*
X44749Y-36844D02*
X44552Y-36844D01*
X44552Y-36844D02*
X44552Y-34956D01*
X44552Y-34956D02*
X44749Y-34956D01*
X44749Y-34956D02*
X46048Y-34956D01*
X46048Y-34956D02*
X46048Y-36844D01*
X44749Y-36844D02*
X44749Y-34956D01*
G54D16*
X56170Y-35070D02*
X56330Y-35070D01*
X56330Y-35070D02*
X56330Y-34730D01*
X56170Y-34730D02*
X56330Y-34730D01*
X56170Y-35070D02*
X56170Y-34730D01*
X55670Y-35070D02*
X55830Y-35070D01*
X55830Y-35070D02*
X55830Y-34730D01*
X55670Y-34730D02*
X55830Y-34730D01*
X55670Y-35070D02*
X55670Y-34730D01*
X55922Y-35057D02*
X56078Y-35057D01*
X56078Y-35057D02*
X56078Y-34743D01*
X55922Y-34743D02*
X56078Y-34743D01*
X55922Y-35057D02*
X55922Y-34743D01*
G54D10*
X55830Y-35040D02*
X56170Y-35040D01*
X56170Y-34760D02*
X55830Y-34760D01*
G54D18*
X55421Y-34513D02*
X56579Y-34513D01*
X56579Y-34513D02*
X56579Y-35287D01*
X56579Y-35287D02*
X55421Y-35287D01*
X55421Y-35287D02*
X55421Y-34513D01*
G54D11*
X75862Y-36000D02*
X75817Y-36458D01*
X75683Y-36900D01*
X75467Y-37307D01*
X75176Y-37664D01*
X74820Y-37958D01*
X74415Y-38177D01*
X73974Y-38313D01*
X73516Y-38361D01*
X73058Y-38320D01*
X72616Y-38190D01*
X72207Y-37976D01*
X71848Y-37687D01*
X71552Y-37334D01*
X71330Y-36930D01*
X71190Y-36491D01*
X71139Y-36032D01*
X71177Y-35574D01*
X71304Y-35131D01*
X71515Y-34721D01*
X71801Y-34360D01*
X72152Y-34061D01*
X72555Y-33836D01*
X72993Y-33694D01*
X73451Y-33639D01*
X73910Y-33674D01*
X74354Y-33798D01*
X74765Y-34006D01*
X75128Y-34290D01*
X75430Y-34639D01*
X75657Y-35040D01*
X75803Y-35477D01*
X75861Y-35935D01*
X75862Y-36000D01*
X75862Y-43000D02*
X75817Y-43458D01*
X75683Y-43900D01*
X75467Y-44307D01*
X75176Y-44664D01*
X74820Y-44958D01*
X74415Y-45177D01*
X73974Y-45313D01*
X73516Y-45361D01*
X73058Y-45320D01*
X72616Y-45190D01*
X72207Y-44976D01*
X71848Y-44687D01*
X71552Y-44334D01*
X71330Y-43930D01*
X71190Y-43491D01*
X71139Y-43032D01*
X71177Y-42574D01*
X71304Y-42131D01*
X71515Y-41721D01*
X71801Y-41360D01*
X72152Y-41061D01*
X72555Y-40836D01*
X72993Y-40694D01*
X73451Y-40639D01*
X73910Y-40674D01*
X74354Y-40798D01*
X74765Y-41006D01*
X75128Y-41290D01*
X75430Y-41639D01*
X75657Y-42040D01*
X75803Y-42477D01*
X75861Y-42935D01*
X75862Y-43000D01*
X37716Y-46417D02*
X37913Y-45157D01*
X37913Y-45157D02*
X38110Y-45157D01*
X37519Y-46417D02*
X37716Y-46417D01*
X37519Y-47205D02*
X37716Y-47205D01*
X37716Y-47205D02*
X37913Y-48465D01*
X37913Y-48465D02*
X38110Y-48465D01*
X37519Y-46417D02*
X37519Y-47205D01*
X39173Y-47677D02*
X39882Y-47677D01*
X39173Y-45315D02*
X39882Y-45315D01*
X39173Y-45315D02*
X39173Y-47677D01*
X40433Y-47575D02*
X39882Y-47575D01*
X40433Y-47417D02*
X39882Y-47417D01*
X40433Y-45575D02*
X39882Y-45575D01*
X40433Y-45417D02*
X39882Y-45417D01*
X40433Y-45575D02*
X40433Y-45417D01*
X40433Y-46575D02*
X39882Y-46575D01*
X40433Y-46417D02*
X39882Y-46417D01*
X40078Y-44527D02*
X40078Y-44921D01*
X40078Y-44921D02*
X39882Y-44921D01*
X38110Y-48465D02*
X40078Y-48465D01*
X40078Y-48465D02*
X40078Y-48071D01*
X40078Y-48071D02*
X39882Y-48071D01*
X40078Y-44527D02*
X38110Y-44527D01*
X40433Y-47417D02*
X40433Y-47575D01*
X40433Y-46417D02*
X40433Y-46575D01*
X39882Y-44527D02*
X39882Y-48465D01*
X38110Y-44527D02*
X38110Y-48465D01*
X67700Y-41921D02*
X67700Y-42551D01*
X67700Y-32079D02*
X67700Y-31449D01*
X68149Y-40243D02*
X68118Y-40205D01*
X68083Y-40170D01*
X68046Y-40138D01*
X68006Y-40110D01*
X67963Y-40085D01*
X67919Y-40064D01*
X67873Y-40047D01*
X67825Y-40034D01*
X67777Y-40025D01*
X67728Y-40020D01*
X67680Y-40020D01*
X67631Y-40024D01*
X67582Y-40032D01*
X67621Y-40465D02*
X67818Y-40268D01*
X67818Y-40268D02*
X67582Y-40031D01*
X67582Y-41133D02*
X67631Y-41141D01*
X67680Y-41145D01*
X67728Y-41145D01*
X67777Y-41140D01*
X67825Y-41131D01*
X67873Y-41118D01*
X67919Y-41101D01*
X67963Y-41080D01*
X68005Y-41055D01*
X68045Y-41027D01*
X68083Y-40995D01*
X68117Y-40960D01*
X68149Y-40922D01*
X68176Y-40882D01*
X68201Y-40839D01*
X68221Y-40794D01*
X68238Y-40748D01*
X68250Y-40701D01*
X67621Y-40465D02*
X68251Y-40465D01*
X68251Y-40701D02*
X67621Y-40701D01*
X67188Y-40583D02*
X68251Y-40583D01*
X67308Y-40190D02*
X67275Y-40225D01*
X67246Y-40264D01*
X67219Y-40305D01*
X67197Y-40348D01*
X67178Y-40392D01*
X67164Y-40439D01*
X67153Y-40486D01*
X67147Y-40534D01*
X67145Y-40583D01*
X67147Y-40630D01*
X67153Y-40678D01*
X67163Y-40725D01*
X67178Y-40772D01*
X67196Y-40817D01*
X67219Y-40860D01*
X67244Y-40901D01*
X67274Y-40939D01*
X67307Y-40975D01*
X68426Y-40583D02*
X68412Y-40724D01*
X68371Y-40859D01*
X68304Y-40984D01*
X68215Y-41094D01*
X68105Y-41184D01*
X67981Y-41252D01*
X67845Y-41294D01*
X67705Y-41308D01*
X67564Y-41296D01*
X67429Y-41256D01*
X67303Y-41190D01*
X67193Y-41101D01*
X67101Y-40993D01*
X67033Y-40869D01*
X66990Y-40733D01*
X66975Y-40593D01*
X66986Y-40452D01*
X67025Y-40316D01*
X67090Y-40190D01*
X67178Y-40079D01*
X67286Y-39987D01*
X67410Y-39918D01*
X67545Y-39874D01*
X67685Y-39858D01*
X67826Y-39869D01*
X67962Y-39907D01*
X68089Y-39971D01*
X68200Y-40058D01*
X68293Y-40165D01*
X68363Y-40288D01*
X68407Y-40423D01*
X68425Y-40563D01*
X68426Y-40583D01*
X66440Y-41921D02*
X66440Y-32079D01*
X66440Y-32079D02*
X68960Y-32079D01*
X68960Y-32079D02*
X68960Y-41921D01*
X68960Y-41921D02*
X66440Y-41921D01*
X64900Y-41921D02*
X64900Y-42551D01*
X64900Y-32079D02*
X64900Y-31449D01*
X65349Y-40243D02*
X65318Y-40205D01*
X65283Y-40170D01*
X65246Y-40138D01*
X65206Y-40110D01*
X65163Y-40085D01*
X65119Y-40064D01*
X65073Y-40047D01*
X65025Y-40034D01*
X64977Y-40025D01*
X64928Y-40020D01*
X64880Y-40020D01*
X64831Y-40024D01*
X64782Y-40032D01*
X64821Y-40465D02*
X65018Y-40268D01*
X65018Y-40268D02*
X64782Y-40031D01*
X64782Y-41133D02*
X64831Y-41141D01*
X64880Y-41145D01*
X64928Y-41145D01*
X64977Y-41140D01*
X65025Y-41131D01*
X65073Y-41118D01*
X65119Y-41101D01*
X65163Y-41080D01*
X65205Y-41055D01*
X65245Y-41027D01*
X65283Y-40995D01*
X65317Y-40960D01*
X65349Y-40922D01*
X65376Y-40882D01*
X65401Y-40839D01*
X65421Y-40794D01*
X65438Y-40748D01*
X65450Y-40701D01*
X64821Y-40465D02*
X65451Y-40465D01*
X65451Y-40701D02*
X64821Y-40701D01*
X64388Y-40583D02*
X65451Y-40583D01*
X64508Y-40190D02*
X64475Y-40225D01*
X64446Y-40264D01*
X64419Y-40305D01*
X64397Y-40348D01*
X64378Y-40392D01*
X64364Y-40439D01*
X64353Y-40486D01*
X64347Y-40534D01*
X64345Y-40583D01*
X64347Y-40630D01*
X64353Y-40678D01*
X64363Y-40725D01*
X64378Y-40772D01*
X64396Y-40817D01*
X64419Y-40860D01*
X64444Y-40901D01*
X64474Y-40939D01*
X64507Y-40975D01*
X65626Y-40583D02*
X65612Y-40724D01*
X65571Y-40859D01*
X65504Y-40984D01*
X65415Y-41094D01*
X65305Y-41184D01*
X65181Y-41252D01*
X65045Y-41294D01*
X64905Y-41308D01*
X64764Y-41296D01*
X64629Y-41256D01*
X64503Y-41190D01*
X64393Y-41101D01*
X64301Y-40993D01*
X64233Y-40869D01*
X64190Y-40733D01*
X64175Y-40593D01*
X64186Y-40452D01*
X64225Y-40316D01*
X64290Y-40190D01*
X64378Y-40079D01*
X64486Y-39987D01*
X64610Y-39918D01*
X64745Y-39874D01*
X64885Y-39858D01*
X65026Y-39869D01*
X65162Y-39907D01*
X65289Y-39971D01*
X65400Y-40058D01*
X65493Y-40165D01*
X65563Y-40288D01*
X65607Y-40423D01*
X65625Y-40563D01*
X65626Y-40583D01*
X63640Y-41921D02*
X63640Y-32079D01*
X63640Y-32079D02*
X66160Y-32079D01*
X66160Y-32079D02*
X66160Y-41921D01*
X66160Y-41921D02*
X63640Y-41921D01*
G54D16*
X45140Y-30725D02*
X44885Y-30725D01*
X44885Y-30725D02*
X44885Y-31276D01*
X45140Y-31276D02*
X44885Y-31276D01*
X45140Y-30725D02*
X45140Y-31276D01*
X45720Y-30725D02*
X45464Y-30725D01*
X45464Y-30725D02*
X45464Y-31276D01*
X45720Y-31276D02*
X45464Y-31276D01*
X45720Y-30725D02*
X45720Y-31276D01*
X45378Y-30804D02*
X45222Y-30804D01*
X45222Y-30804D02*
X45222Y-31196D01*
X45378Y-31196D02*
X45222Y-31196D01*
X45378Y-30804D02*
X45378Y-31196D01*
G54D10*
X45461Y-31250D02*
X45139Y-31250D01*
X45461Y-30750D02*
X45139Y-30750D01*
G54D18*
X46076Y-31387D02*
X44524Y-31387D01*
X44524Y-31387D02*
X44524Y-30613D01*
X44524Y-30613D02*
X46076Y-30613D01*
X46076Y-30613D02*
X46076Y-31387D01*
G54D16*
X44871Y-32485D02*
X45166Y-32485D01*
X45166Y-32485D02*
X45166Y-31915D01*
X44871Y-31915D02*
X45166Y-31915D01*
X44871Y-32485D02*
X44871Y-31915D01*
X45440Y-32485D02*
X45735Y-32485D01*
X45735Y-32485D02*
X45735Y-31915D01*
X45440Y-31915D02*
X45735Y-31915D01*
X45440Y-32485D02*
X45440Y-31915D01*
X45261Y-32357D02*
X45339Y-32357D01*
X45339Y-32357D02*
X45339Y-32043D01*
X45261Y-32043D02*
X45339Y-32043D01*
X45261Y-32357D02*
X45261Y-32043D01*
G54D18*
X44524Y-31813D02*
X46076Y-31813D01*
X46076Y-32587D02*
X44524Y-32587D01*
X44524Y-32587D02*
X44524Y-31813D01*
G54D17*
X45150Y-31941D02*
X45450Y-31941D01*
X45160Y-32459D02*
X45450Y-32459D01*
G54D18*
X46076Y-31813D02*
X46076Y-32587D01*
G54D16*
X45970Y-39865D02*
X45674Y-39865D01*
X45674Y-39865D02*
X45674Y-40534D01*
X45970Y-40534D02*
X45674Y-40534D01*
X45970Y-39865D02*
X45970Y-40534D01*
X44926Y-39866D02*
X44630Y-39866D01*
X44630Y-39866D02*
X44630Y-40535D01*
X44926Y-40535D02*
X44630Y-40535D01*
X44926Y-39866D02*
X44926Y-40535D01*
X45378Y-40043D02*
X45222Y-40043D01*
X45222Y-40043D02*
X45222Y-40357D01*
X45378Y-40357D02*
X45222Y-40357D01*
X45378Y-40043D02*
X45378Y-40357D01*
G54D18*
X46273Y-40587D02*
X44327Y-40587D01*
X44327Y-39813D02*
X46273Y-39813D01*
X46273Y-39813D02*
X46273Y-40587D01*
X44327Y-40587D02*
X44327Y-39813D01*
G54D17*
X45679Y-40509D02*
X44921Y-40509D01*
X45679Y-39891D02*
X44921Y-39891D01*
G54D16*
X45460Y-34475D02*
X45715Y-34475D01*
X45715Y-34475D02*
X45715Y-33924D01*
X45460Y-33924D02*
X45715Y-33924D01*
X45460Y-34475D02*
X45460Y-33924D01*
X44880Y-34475D02*
X45136Y-34475D01*
X45136Y-34475D02*
X45136Y-33924D01*
X44880Y-33924D02*
X45136Y-33924D01*
X44880Y-34475D02*
X44880Y-33924D01*
X45222Y-34396D02*
X45378Y-34396D01*
X45378Y-34396D02*
X45378Y-34004D01*
X45222Y-34004D02*
X45378Y-34004D01*
X45222Y-34396D02*
X45222Y-34004D01*
G54D10*
X45139Y-33950D02*
X45461Y-33950D01*
X45139Y-34450D02*
X45461Y-34450D01*
G54D18*
X44524Y-33813D02*
X46076Y-33813D01*
X46076Y-33813D02*
X46076Y-34587D01*
X46076Y-34587D02*
X44524Y-34587D01*
X44524Y-34587D02*
X44524Y-33813D01*
G54D11*
X49271Y-28341D02*
X53129Y-28341D01*
X53287Y-27002D02*
X53208Y-28262D01*
X53208Y-28262D02*
X53129Y-28341D01*
X49113Y-27002D02*
X49192Y-28262D01*
X49192Y-28262D02*
X49271Y-28341D01*
X53287Y-27002D02*
X53287Y-26490D01*
X49113Y-27002D02*
X49113Y-26490D01*
X51948Y-26490D02*
X51948Y-27002D01*
X50452Y-26490D02*
X50452Y-27002D01*
X49113Y-27002D02*
X53287Y-27002D01*
X53287Y-26490D02*
X49113Y-26490D01*
X61071Y-28341D02*
X64929Y-28341D01*
X65087Y-27002D02*
X65008Y-28262D01*
X65008Y-28262D02*
X64929Y-28341D01*
X60913Y-27002D02*
X60992Y-28262D01*
X60992Y-28262D02*
X61071Y-28341D01*
X65087Y-27002D02*
X65087Y-26490D01*
X60913Y-27002D02*
X60913Y-26490D01*
X63748Y-26490D02*
X63748Y-27002D01*
X62252Y-26490D02*
X62252Y-27002D01*
X60913Y-27002D02*
X65087Y-27002D01*
X65087Y-26490D02*
X60913Y-26490D01*
G54D16*
X53740Y-29925D02*
X53485Y-29925D01*
X53485Y-29925D02*
X53485Y-30476D01*
X53740Y-30476D02*
X53485Y-30476D01*
X53740Y-29925D02*
X53740Y-30476D01*
X54320Y-29925D02*
X54064Y-29925D01*
X54064Y-29925D02*
X54064Y-30476D01*
X54320Y-30476D02*
X54064Y-30476D01*
X54320Y-29925D02*
X54320Y-30476D01*
X53978Y-30004D02*
X53822Y-30004D01*
X53822Y-30004D02*
X53822Y-30396D01*
X53978Y-30396D02*
X53822Y-30396D01*
X53978Y-30004D02*
X53978Y-30396D01*
G54D10*
X54061Y-30450D02*
X53739Y-30450D01*
X54061Y-29950D02*
X53739Y-29950D01*
G54D18*
X54676Y-30587D02*
X53124Y-30587D01*
X53124Y-30587D02*
X53124Y-29813D01*
X53124Y-29813D02*
X54676Y-29813D01*
X54676Y-29813D02*
X54676Y-30587D01*
G54D16*
X58260Y-30475D02*
X58515Y-30475D01*
X58515Y-30475D02*
X58515Y-29924D01*
X58260Y-29924D02*
X58515Y-29924D01*
X58260Y-30475D02*
X58260Y-29924D01*
X57680Y-30475D02*
X57936Y-30475D01*
X57936Y-30475D02*
X57936Y-29924D01*
X57680Y-29924D02*
X57936Y-29924D01*
X57680Y-30475D02*
X57680Y-29924D01*
X58022Y-30396D02*
X58178Y-30396D01*
X58178Y-30396D02*
X58178Y-30004D01*
X58022Y-30004D02*
X58178Y-30004D01*
X58022Y-30396D02*
X58022Y-30004D01*
G54D10*
X57939Y-29950D02*
X58261Y-29950D01*
X57939Y-30450D02*
X58261Y-30450D01*
G54D18*
X57324Y-29813D02*
X58876Y-29813D01*
X58876Y-29813D02*
X58876Y-30587D01*
X58876Y-30587D02*
X57324Y-30587D01*
X57324Y-30587D02*
X57324Y-29813D01*
G54D11*
X55171Y-28341D02*
X59029Y-28341D01*
X59187Y-27002D02*
X59108Y-28262D01*
X59108Y-28262D02*
X59029Y-28341D01*
X55013Y-27002D02*
X55092Y-28262D01*
X55092Y-28262D02*
X55171Y-28341D01*
X59187Y-27002D02*
X59187Y-26490D01*
X55013Y-27002D02*
X55013Y-26490D01*
X57848Y-26490D02*
X57848Y-27002D01*
X56352Y-26490D02*
X56352Y-27002D01*
X55013Y-27002D02*
X59187Y-27002D01*
X59187Y-26490D02*
X55013Y-26490D01*
G54D12*
X39600Y-29700D02*
X39600Y-29700D01*
X38600Y-29700D02*
X39600Y-29700D01*
X39600Y-29700D02*
X39600Y-29700D01*
X39600Y-29700D02*
X39600Y-33700D01*
X39600Y-33700D02*
X38600Y-33700D01*
X38600Y-33700D02*
X38600Y-29700D01*
X38600Y-30700D02*
X39600Y-30700D01*
X49500Y-37100D02*
X49500Y-36100D01*
X49500Y-36100D02*
X52500Y-36100D01*
X52500Y-36100D02*
X52500Y-37100D01*
X52500Y-37100D02*
X49500Y-37100D01*
X50500Y-36100D02*
X50500Y-37100D01*
G54D16*
X61920Y-42590D02*
X61920Y-42410D01*
X61920Y-42410D02*
X61691Y-42410D01*
X61691Y-42590D02*
X61691Y-42410D01*
X61920Y-42590D02*
X61691Y-42590D01*
X62709Y-42220D02*
X62709Y-42040D01*
X62709Y-42040D02*
X62480Y-42040D01*
X62480Y-42220D02*
X62480Y-42040D01*
X62709Y-42220D02*
X62480Y-42220D01*
X62709Y-42960D02*
X62709Y-42780D01*
X62709Y-42780D02*
X62480Y-42780D01*
X62480Y-42960D02*
X62480Y-42780D01*
X62709Y-42960D02*
X62480Y-42960D01*
X62318Y-42696D02*
X62318Y-42304D01*
X62318Y-42304D02*
X62082Y-42304D01*
X62082Y-42696D02*
X62082Y-42304D01*
X62318Y-42696D02*
X62082Y-42696D01*
G54D18*
X61420Y-43276D02*
X61420Y-41724D01*
X62980Y-41724D02*
X62980Y-43276D01*
X62980Y-43276D02*
X61420Y-43276D01*
X61420Y-41724D02*
X62980Y-41724D01*
G54D10*
X61941Y-41941D02*
X62459Y-41941D01*
X62459Y-41941D02*
X62459Y-43059D01*
X62459Y-43059D02*
X61941Y-43059D01*
X61941Y-43059D02*
X61941Y-41941D01*
G54D16*
X61920Y-44390D02*
X61920Y-44210D01*
X61920Y-44210D02*
X61691Y-44210D01*
X61691Y-44390D02*
X61691Y-44210D01*
X61920Y-44390D02*
X61691Y-44390D01*
X62709Y-44020D02*
X62709Y-43840D01*
X62709Y-43840D02*
X62480Y-43840D01*
X62480Y-44020D02*
X62480Y-43840D01*
X62709Y-44020D02*
X62480Y-44020D01*
X62709Y-44760D02*
X62709Y-44580D01*
X62709Y-44580D02*
X62480Y-44580D01*
X62480Y-44760D02*
X62480Y-44580D01*
X62709Y-44760D02*
X62480Y-44760D01*
X62318Y-44496D02*
X62318Y-44104D01*
X62318Y-44104D02*
X62082Y-44104D01*
X62082Y-44496D02*
X62082Y-44104D01*
X62318Y-44496D02*
X62082Y-44496D01*
G54D18*
X61420Y-45076D02*
X61420Y-43524D01*
X62980Y-43524D02*
X62980Y-45076D01*
X62980Y-45076D02*
X61420Y-45076D01*
X61420Y-43524D02*
X62980Y-43524D01*
G54D10*
X61941Y-43741D02*
X62459Y-43741D01*
X62459Y-43741D02*
X62459Y-44859D01*
X62459Y-44859D02*
X61941Y-44859D01*
X61941Y-44859D02*
X61941Y-43741D01*
G54D16*
X50840Y-38125D02*
X50585Y-38125D01*
X50585Y-38125D02*
X50585Y-38676D01*
X50840Y-38676D02*
X50585Y-38676D01*
X50840Y-38125D02*
X50840Y-38676D01*
X51420Y-38125D02*
X51164Y-38125D01*
X51164Y-38125D02*
X51164Y-38676D01*
X51420Y-38676D02*
X51164Y-38676D01*
X51420Y-38125D02*
X51420Y-38676D01*
X51078Y-38204D02*
X50922Y-38204D01*
X50922Y-38204D02*
X50922Y-38596D01*
X51078Y-38596D02*
X50922Y-38596D01*
X51078Y-38204D02*
X51078Y-38596D01*
G54D10*
X51161Y-38650D02*
X50839Y-38650D01*
X51161Y-38150D02*
X50839Y-38150D01*
G54D18*
X51776Y-38787D02*
X50224Y-38787D01*
X50224Y-38787D02*
X50224Y-38013D01*
X50224Y-38013D02*
X51776Y-38013D01*
X51776Y-38013D02*
X51776Y-38787D01*
G54D12*
X60200Y-40800D02*
X60200Y-40400D01*
X60200Y-35800D02*
X60200Y-36200D01*
X59700Y-36200D02*
X60700Y-36200D01*
X60700Y-36200D02*
X60700Y-40400D01*
X60700Y-40400D02*
X59700Y-40400D01*
X59700Y-40400D02*
X59700Y-36200D01*
X59900Y-40400D02*
X59700Y-40200D01*
X61600Y-40800D02*
X61600Y-40400D01*
X61600Y-35800D02*
X61600Y-36200D01*
X61100Y-36200D02*
X62100Y-36200D01*
X62100Y-36200D02*
X62100Y-40400D01*
X62100Y-40400D02*
X61100Y-40400D01*
X61100Y-40400D02*
X61100Y-36200D01*
X61300Y-40400D02*
X61100Y-40200D01*
X55116Y-18353D02*
X55116Y-17753D01*
X55116Y-18039D02*
X55459Y-18039D01*
X55459Y-18353D02*
X55459Y-17753D01*
X55745Y-18039D02*
X55945Y-18039D01*
X56031Y-18353D02*
X55745Y-18353D01*
X55745Y-17753D01*
X56031Y-17753D01*
X56259Y-18181D02*
X56545Y-18181D01*
X56202Y-18353D02*
X56402Y-17753D01*
X56602Y-18353D01*
X56716Y-17753D02*
X57059Y-17753D01*
X56888Y-18353D02*
X56888Y-17753D01*
X57230Y-18324D02*
X57316Y-18353D01*
X57459Y-18353D01*
X57516Y-18324D01*
X57545Y-18296D01*
X57573Y-18239D01*
X57573Y-18181D01*
X57545Y-18124D01*
X57516Y-18096D01*
X57459Y-18067D01*
X57345Y-18039D01*
X57287Y-18010D01*
X57259Y-17981D01*
X57230Y-17924D01*
X57230Y-17867D01*
X57259Y-17810D01*
X57287Y-17781D01*
X57345Y-17753D01*
X57487Y-17753D01*
X57573Y-17781D01*
X57830Y-18353D02*
X57830Y-17753D01*
X58116Y-18353D02*
X58116Y-17753D01*
X58459Y-18353D01*
X58459Y-17753D01*
X58745Y-18353D02*
X58745Y-17753D01*
X59088Y-18353D02*
X58831Y-18010D01*
X59088Y-17753D02*
X58745Y-18096D01*
G54D11*
X56905Y-35962D02*
X56905Y-35562D01*
X57000Y-35562D01*
X57058Y-35581D01*
X57096Y-35619D01*
X57115Y-35657D01*
X57134Y-35733D01*
X57134Y-35790D01*
X57115Y-35867D01*
X57096Y-35905D01*
X57058Y-35943D01*
X57000Y-35962D01*
X56905Y-35962D01*
X57515Y-35962D02*
X57286Y-35962D01*
X57400Y-35962D02*
X57400Y-35562D01*
X57362Y-35619D01*
X57324Y-35657D01*
X57286Y-35676D01*
X44795Y-41862D02*
X44795Y-42186D01*
X44814Y-42224D01*
X44833Y-42243D01*
X44871Y-42262D01*
X44948Y-42262D01*
X44986Y-42243D01*
X45005Y-42224D01*
X45024Y-42186D01*
X45024Y-41862D01*
X45424Y-42262D02*
X45195Y-42262D01*
X45309Y-42262D02*
X45309Y-41862D01*
X45271Y-41919D01*
X45233Y-41957D01*
X45195Y-41976D01*
X44133Y-42562D02*
X44362Y-42562D01*
X44247Y-42962D02*
X44247Y-42562D01*
X44476Y-42943D02*
X44533Y-42962D01*
X44629Y-42962D01*
X44667Y-42943D01*
X44686Y-42924D01*
X44705Y-42886D01*
X44705Y-42848D01*
X44686Y-42810D01*
X44667Y-42790D01*
X44629Y-42771D01*
X44552Y-42752D01*
X44514Y-42733D01*
X44495Y-42714D01*
X44476Y-42676D01*
X44476Y-42638D01*
X44495Y-42600D01*
X44514Y-42581D01*
X44552Y-42562D01*
X44648Y-42562D01*
X44705Y-42581D01*
X44857Y-42600D02*
X44876Y-42581D01*
X44914Y-42562D01*
X45010Y-42562D01*
X45048Y-42581D01*
X45067Y-42600D01*
X45086Y-42638D01*
X45086Y-42676D01*
X45067Y-42733D01*
X44838Y-42962D01*
X45086Y-42962D01*
X45276Y-42962D02*
X45352Y-42962D01*
X45391Y-42943D01*
X45410Y-42924D01*
X45448Y-42867D01*
X45467Y-42790D01*
X45467Y-42638D01*
X45448Y-42600D01*
X45429Y-42581D01*
X45391Y-42562D01*
X45314Y-42562D01*
X45276Y-42581D01*
X45257Y-42600D01*
X45238Y-42638D01*
X45238Y-42733D01*
X45257Y-42771D01*
X45276Y-42790D01*
X45314Y-42810D01*
X45391Y-42810D01*
X45429Y-42790D01*
X45448Y-42771D01*
X45467Y-42733D01*
X45810Y-42695D02*
X45810Y-42962D01*
X45714Y-42543D02*
X45619Y-42829D01*
X45867Y-42829D01*
X46095Y-42562D02*
X46134Y-42562D01*
X46172Y-42581D01*
X46191Y-42600D01*
X46210Y-42638D01*
X46229Y-42714D01*
X46229Y-42810D01*
X46210Y-42886D01*
X46191Y-42924D01*
X46172Y-42943D01*
X46134Y-42962D01*
X46095Y-42962D01*
X46057Y-42943D01*
X46038Y-42924D01*
X46019Y-42886D01*
X46000Y-42810D01*
X46000Y-42714D01*
X46019Y-42638D01*
X46038Y-42600D01*
X46057Y-42581D01*
X46095Y-42562D01*
X46534Y-38224D02*
X46515Y-38243D01*
X46458Y-38262D01*
X46420Y-38262D01*
X46362Y-38243D01*
X46324Y-38205D01*
X46305Y-38167D01*
X46286Y-38090D01*
X46286Y-38033D01*
X46305Y-37957D01*
X46324Y-37919D01*
X46362Y-37881D01*
X46420Y-37862D01*
X46458Y-37862D01*
X46515Y-37881D01*
X46534Y-37900D01*
X46667Y-37862D02*
X46915Y-37862D01*
X46781Y-38014D01*
X46839Y-38014D01*
X46877Y-38033D01*
X46896Y-38052D01*
X46915Y-38090D01*
X46915Y-38186D01*
X46896Y-38224D01*
X46877Y-38243D01*
X46839Y-38262D01*
X46724Y-38262D01*
X46686Y-38243D01*
X46667Y-38224D01*
X48234Y-47924D02*
X48215Y-47943D01*
X48158Y-47962D01*
X48120Y-47962D01*
X48062Y-47943D01*
X48024Y-47905D01*
X48005Y-47867D01*
X47986Y-47790D01*
X47986Y-47733D01*
X48005Y-47657D01*
X48024Y-47619D01*
X48062Y-47581D01*
X48120Y-47562D01*
X48158Y-47562D01*
X48215Y-47581D01*
X48234Y-47600D01*
X48615Y-47962D02*
X48386Y-47962D01*
X48500Y-47962D02*
X48500Y-47562D01*
X48462Y-47619D01*
X48424Y-47657D01*
X48386Y-47676D01*
X41984Y-47874D02*
X41965Y-47893D01*
X41908Y-47912D01*
X41870Y-47912D01*
X41812Y-47893D01*
X41774Y-47855D01*
X41755Y-47817D01*
X41736Y-47740D01*
X41736Y-47683D01*
X41755Y-47607D01*
X41774Y-47569D01*
X41812Y-47531D01*
X41870Y-47512D01*
X41908Y-47512D01*
X41965Y-47531D01*
X41984Y-47550D01*
X42136Y-47550D02*
X42155Y-47531D01*
X42193Y-47512D01*
X42289Y-47512D01*
X42327Y-47531D01*
X42346Y-47550D01*
X42365Y-47588D01*
X42365Y-47626D01*
X42346Y-47683D01*
X42117Y-47912D01*
X42365Y-47912D01*
X42895Y-35662D02*
X42895Y-35986D01*
X42914Y-36024D01*
X42933Y-36043D01*
X42971Y-36062D01*
X43048Y-36062D01*
X43086Y-36043D01*
X43105Y-36024D01*
X43124Y-35986D01*
X43124Y-35662D01*
X43295Y-35700D02*
X43314Y-35681D01*
X43352Y-35662D01*
X43448Y-35662D01*
X43486Y-35681D01*
X43505Y-35700D01*
X43524Y-35738D01*
X43524Y-35776D01*
X43505Y-35833D01*
X43276Y-36062D01*
X43524Y-36062D01*
X47462Y-36866D02*
X47462Y-37057D01*
X47062Y-37057D01*
X47462Y-36733D02*
X47062Y-36733D01*
X47348Y-36599D01*
X47062Y-36466D01*
X47462Y-36466D01*
X47100Y-36295D02*
X47081Y-36276D01*
X47062Y-36238D01*
X47062Y-36142D01*
X47081Y-36104D01*
X47100Y-36085D01*
X47138Y-36066D01*
X47176Y-36066D01*
X47233Y-36085D01*
X47462Y-36314D01*
X47462Y-36066D01*
X47462Y-35876D02*
X47462Y-35800D01*
X47443Y-35761D01*
X47424Y-35742D01*
X47367Y-35704D01*
X47290Y-35685D01*
X47138Y-35685D01*
X47100Y-35704D01*
X47081Y-35723D01*
X47062Y-35761D01*
X47062Y-35838D01*
X47081Y-35876D01*
X47100Y-35895D01*
X47138Y-35914D01*
X47233Y-35914D01*
X47271Y-35895D01*
X47290Y-35876D01*
X47310Y-35838D01*
X47310Y-35761D01*
X47290Y-35723D01*
X47271Y-35704D01*
X47233Y-35685D01*
X47062Y-35438D02*
X47062Y-35399D01*
X47081Y-35361D01*
X47100Y-35342D01*
X47138Y-35323D01*
X47214Y-35304D01*
X47310Y-35304D01*
X47386Y-35323D01*
X47424Y-35342D01*
X47443Y-35361D01*
X47462Y-35399D01*
X47462Y-35438D01*
X47443Y-35476D01*
X47424Y-35495D01*
X47386Y-35514D01*
X47310Y-35533D01*
X47214Y-35533D01*
X47138Y-35514D01*
X47100Y-35495D01*
X47081Y-35476D01*
X47062Y-35438D01*
X47195Y-34961D02*
X47462Y-34961D01*
X47043Y-35057D02*
X47329Y-35152D01*
X47329Y-34904D01*
G54D21*
X56943Y-35021D02*
X56843Y-34879D01*
X56771Y-35021D02*
X56771Y-34721D01*
X56886Y-34721D01*
X56914Y-34736D01*
X56929Y-34750D01*
X56943Y-34779D01*
X56943Y-34821D01*
X56929Y-34850D01*
X56914Y-34864D01*
X56886Y-34879D01*
X56771Y-34879D01*
X57214Y-35021D02*
X57071Y-35021D01*
X57071Y-34721D01*
X57314Y-34864D02*
X57414Y-34864D01*
X57457Y-35021D02*
X57314Y-35021D01*
X57314Y-34721D01*
X57457Y-34721D01*
X57585Y-35021D02*
X57585Y-34721D01*
X57657Y-34721D01*
X57700Y-34736D01*
X57728Y-34764D01*
X57743Y-34793D01*
X57757Y-34850D01*
X57757Y-34893D01*
X57743Y-34950D01*
X57728Y-34979D01*
X57700Y-35007D01*
X57657Y-35021D01*
X57585Y-35021D01*
X58043Y-35021D02*
X57871Y-35021D01*
X57957Y-35021D02*
X57957Y-34721D01*
X57928Y-34764D01*
X57900Y-34793D01*
X57871Y-34807D01*
G54D11*
X67434Y-32762D02*
X67300Y-32571D01*
X67205Y-32762D02*
X67205Y-32362D01*
X67358Y-32362D01*
X67396Y-32381D01*
X67415Y-32400D01*
X67434Y-32438D01*
X67434Y-32495D01*
X67415Y-32533D01*
X67396Y-32552D01*
X67358Y-32571D01*
X67205Y-32571D01*
X67605Y-32762D02*
X67605Y-32362D01*
X67758Y-32362D01*
X67796Y-32381D01*
X67815Y-32400D01*
X67834Y-32438D01*
X67834Y-32495D01*
X67815Y-32533D01*
X67796Y-32552D01*
X67758Y-32571D01*
X67605Y-32571D01*
X67986Y-32400D02*
X68005Y-32381D01*
X68043Y-32362D01*
X68139Y-32362D01*
X68177Y-32381D01*
X68196Y-32400D01*
X68215Y-32438D01*
X68215Y-32476D01*
X68196Y-32533D01*
X67967Y-32762D01*
X68215Y-32762D01*
X68562Y-38190D02*
X68562Y-38419D01*
X68562Y-38305D02*
X68162Y-38305D01*
X68219Y-38343D01*
X68257Y-38381D01*
X68276Y-38419D01*
X68162Y-37943D02*
X68162Y-37904D01*
X68181Y-37866D01*
X68200Y-37847D01*
X68238Y-37828D01*
X68314Y-37809D01*
X68410Y-37809D01*
X68486Y-37828D01*
X68524Y-37847D01*
X68543Y-37866D01*
X68562Y-37904D01*
X68562Y-37943D01*
X68543Y-37981D01*
X68524Y-38000D01*
X68486Y-38019D01*
X68410Y-38038D01*
X68314Y-38038D01*
X68238Y-38019D01*
X68200Y-38000D01*
X68181Y-37981D01*
X68162Y-37943D01*
X68162Y-37562D02*
X68162Y-37523D01*
X68181Y-37485D01*
X68200Y-37466D01*
X68238Y-37447D01*
X68314Y-37428D01*
X68410Y-37428D01*
X68486Y-37447D01*
X68524Y-37466D01*
X68543Y-37485D01*
X68562Y-37523D01*
X68562Y-37562D01*
X68543Y-37600D01*
X68524Y-37619D01*
X68486Y-37638D01*
X68410Y-37657D01*
X68314Y-37657D01*
X68238Y-37638D01*
X68200Y-37619D01*
X68181Y-37600D01*
X68162Y-37562D01*
X68562Y-37257D02*
X68295Y-37257D01*
X68333Y-37257D02*
X68314Y-37238D01*
X68295Y-37200D01*
X68295Y-37142D01*
X68314Y-37104D01*
X68352Y-37085D01*
X68562Y-37085D01*
X68352Y-37085D02*
X68314Y-37066D01*
X68295Y-37028D01*
X68295Y-36971D01*
X68314Y-36933D01*
X68352Y-36914D01*
X68562Y-36914D01*
X68162Y-36648D02*
X68162Y-36571D01*
X68181Y-36533D01*
X68219Y-36495D01*
X68295Y-36476D01*
X68429Y-36476D01*
X68505Y-36495D01*
X68543Y-36533D01*
X68562Y-36571D01*
X68562Y-36648D01*
X68543Y-36686D01*
X68505Y-36724D01*
X68429Y-36743D01*
X68295Y-36743D01*
X68219Y-36724D01*
X68181Y-36686D01*
X68162Y-36648D01*
X68562Y-36305D02*
X68162Y-36305D01*
X68562Y-36133D02*
X68352Y-36133D01*
X68314Y-36152D01*
X68295Y-36190D01*
X68295Y-36248D01*
X68314Y-36286D01*
X68333Y-36305D01*
X68562Y-35943D02*
X68295Y-35943D01*
X68333Y-35943D02*
X68314Y-35924D01*
X68295Y-35886D01*
X68295Y-35828D01*
X68314Y-35790D01*
X68352Y-35771D01*
X68562Y-35771D01*
X68352Y-35771D02*
X68314Y-35752D01*
X68295Y-35714D01*
X68295Y-35657D01*
X68314Y-35619D01*
X68352Y-35600D01*
X68562Y-35600D01*
G54D22*
X66931Y-38762D02*
X66931Y-39137D01*
X67306Y-39174D01*
X67268Y-39137D01*
X67231Y-39062D01*
X67231Y-38874D01*
X67268Y-38799D01*
X67306Y-38762D01*
X67381Y-38724D01*
X67568Y-38724D01*
X67643Y-38762D01*
X67681Y-38799D01*
X67718Y-38874D01*
X67718Y-39062D01*
X67681Y-39137D01*
X67643Y-39174D01*
X66931Y-38462D02*
X67718Y-38274D01*
X67156Y-38124D01*
X67718Y-37974D01*
X66931Y-37787D01*
X67718Y-36475D02*
X67718Y-36925D01*
X67718Y-36700D02*
X66931Y-36700D01*
X67043Y-36775D01*
X67118Y-36850D01*
X67156Y-36925D01*
X66931Y-35988D02*
X66931Y-35913D01*
X66969Y-35838D01*
X67006Y-35800D01*
X67081Y-35763D01*
X67231Y-35725D01*
X67418Y-35725D01*
X67568Y-35763D01*
X67643Y-35800D01*
X67681Y-35838D01*
X67718Y-35913D01*
X67718Y-35988D01*
X67681Y-36063D01*
X67643Y-36100D01*
X67568Y-36138D01*
X67418Y-36175D01*
X67231Y-36175D01*
X67081Y-36138D01*
X67006Y-36100D01*
X66969Y-36063D01*
X66931Y-35988D01*
X67718Y-35425D02*
X66931Y-34825D01*
X66931Y-35313D02*
X66969Y-35238D01*
X67043Y-35200D01*
X67118Y-35238D01*
X67156Y-35313D01*
X67118Y-35388D01*
X67043Y-35425D01*
X66969Y-35388D01*
X66931Y-35313D01*
X67681Y-34863D02*
X67606Y-34825D01*
X67531Y-34863D01*
X67493Y-34938D01*
X67531Y-35013D01*
X67606Y-35050D01*
X67681Y-35013D01*
X67718Y-34938D01*
X67681Y-34863D01*
G54D11*
X64634Y-32762D02*
X64500Y-32571D01*
X64405Y-32762D02*
X64405Y-32362D01*
X64558Y-32362D01*
X64596Y-32381D01*
X64615Y-32400D01*
X64634Y-32438D01*
X64634Y-32495D01*
X64615Y-32533D01*
X64596Y-32552D01*
X64558Y-32571D01*
X64405Y-32571D01*
X64805Y-32762D02*
X64805Y-32362D01*
X64958Y-32362D01*
X64996Y-32381D01*
X65015Y-32400D01*
X65034Y-32438D01*
X65034Y-32495D01*
X65015Y-32533D01*
X64996Y-32552D01*
X64958Y-32571D01*
X64805Y-32571D01*
X65415Y-32762D02*
X65186Y-32762D01*
X65300Y-32762D02*
X65300Y-32362D01*
X65262Y-32419D01*
X65224Y-32457D01*
X65186Y-32476D01*
X65762Y-38190D02*
X65762Y-38419D01*
X65762Y-38305D02*
X65362Y-38305D01*
X65419Y-38343D01*
X65457Y-38381D01*
X65476Y-38419D01*
X65362Y-37943D02*
X65362Y-37904D01*
X65381Y-37866D01*
X65400Y-37847D01*
X65438Y-37828D01*
X65514Y-37809D01*
X65610Y-37809D01*
X65686Y-37828D01*
X65724Y-37847D01*
X65743Y-37866D01*
X65762Y-37904D01*
X65762Y-37943D01*
X65743Y-37981D01*
X65724Y-38000D01*
X65686Y-38019D01*
X65610Y-38038D01*
X65514Y-38038D01*
X65438Y-38019D01*
X65400Y-38000D01*
X65381Y-37981D01*
X65362Y-37943D01*
X65362Y-37562D02*
X65362Y-37523D01*
X65381Y-37485D01*
X65400Y-37466D01*
X65438Y-37447D01*
X65514Y-37428D01*
X65610Y-37428D01*
X65686Y-37447D01*
X65724Y-37466D01*
X65743Y-37485D01*
X65762Y-37523D01*
X65762Y-37562D01*
X65743Y-37600D01*
X65724Y-37619D01*
X65686Y-37638D01*
X65610Y-37657D01*
X65514Y-37657D01*
X65438Y-37638D01*
X65400Y-37619D01*
X65381Y-37600D01*
X65362Y-37562D01*
X65762Y-37257D02*
X65495Y-37257D01*
X65533Y-37257D02*
X65514Y-37238D01*
X65495Y-37200D01*
X65495Y-37142D01*
X65514Y-37104D01*
X65552Y-37085D01*
X65762Y-37085D01*
X65552Y-37085D02*
X65514Y-37066D01*
X65495Y-37028D01*
X65495Y-36971D01*
X65514Y-36933D01*
X65552Y-36914D01*
X65762Y-36914D01*
X65362Y-36648D02*
X65362Y-36571D01*
X65381Y-36533D01*
X65419Y-36495D01*
X65495Y-36476D01*
X65629Y-36476D01*
X65705Y-36495D01*
X65743Y-36533D01*
X65762Y-36571D01*
X65762Y-36648D01*
X65743Y-36686D01*
X65705Y-36724D01*
X65629Y-36743D01*
X65495Y-36743D01*
X65419Y-36724D01*
X65381Y-36686D01*
X65362Y-36648D01*
X65762Y-36305D02*
X65362Y-36305D01*
X65762Y-36133D02*
X65552Y-36133D01*
X65514Y-36152D01*
X65495Y-36190D01*
X65495Y-36248D01*
X65514Y-36286D01*
X65533Y-36305D01*
X65762Y-35943D02*
X65495Y-35943D01*
X65533Y-35943D02*
X65514Y-35924D01*
X65495Y-35886D01*
X65495Y-35828D01*
X65514Y-35790D01*
X65552Y-35771D01*
X65762Y-35771D01*
X65552Y-35771D02*
X65514Y-35752D01*
X65495Y-35714D01*
X65495Y-35657D01*
X65514Y-35619D01*
X65552Y-35600D01*
X65762Y-35600D01*
G54D22*
X64131Y-38762D02*
X64131Y-39137D01*
X64506Y-39174D01*
X64468Y-39137D01*
X64431Y-39062D01*
X64431Y-38874D01*
X64468Y-38799D01*
X64506Y-38762D01*
X64581Y-38724D01*
X64768Y-38724D01*
X64843Y-38762D01*
X64881Y-38799D01*
X64918Y-38874D01*
X64918Y-39062D01*
X64881Y-39137D01*
X64843Y-39174D01*
X64131Y-38462D02*
X64918Y-38274D01*
X64356Y-38124D01*
X64918Y-37974D01*
X64131Y-37787D01*
X64918Y-36475D02*
X64918Y-36925D01*
X64918Y-36700D02*
X64131Y-36700D01*
X64243Y-36775D01*
X64318Y-36850D01*
X64356Y-36925D01*
X64131Y-35988D02*
X64131Y-35913D01*
X64169Y-35838D01*
X64206Y-35800D01*
X64281Y-35763D01*
X64431Y-35725D01*
X64618Y-35725D01*
X64768Y-35763D01*
X64843Y-35800D01*
X64881Y-35838D01*
X64918Y-35913D01*
X64918Y-35988D01*
X64881Y-36063D01*
X64843Y-36100D01*
X64768Y-36138D01*
X64618Y-36175D01*
X64431Y-36175D01*
X64281Y-36138D01*
X64206Y-36100D01*
X64169Y-36063D01*
X64131Y-35988D01*
X64918Y-35425D02*
X64131Y-34825D01*
X64131Y-35313D02*
X64169Y-35238D01*
X64243Y-35200D01*
X64318Y-35238D01*
X64356Y-35313D01*
X64318Y-35388D01*
X64243Y-35425D01*
X64169Y-35388D01*
X64131Y-35313D01*
X64881Y-34863D02*
X64806Y-34825D01*
X64731Y-34863D01*
X64693Y-34938D01*
X64731Y-35013D01*
X64806Y-35050D01*
X64881Y-35013D01*
X64918Y-34938D01*
X64881Y-34863D01*
G54D11*
X46634Y-31162D02*
X46500Y-30971D01*
X46405Y-31162D02*
X46405Y-30762D01*
X46558Y-30762D01*
X46596Y-30781D01*
X46615Y-30800D01*
X46634Y-30838D01*
X46634Y-30895D01*
X46615Y-30933D01*
X46596Y-30952D01*
X46558Y-30971D01*
X46405Y-30971D01*
X46786Y-30800D02*
X46805Y-30781D01*
X46843Y-30762D01*
X46939Y-30762D01*
X46977Y-30781D01*
X46996Y-30800D01*
X47015Y-30838D01*
X47015Y-30876D01*
X46996Y-30933D01*
X46767Y-31162D01*
X47015Y-31162D01*
X46634Y-32324D02*
X46615Y-32343D01*
X46558Y-32362D01*
X46520Y-32362D01*
X46462Y-32343D01*
X46424Y-32305D01*
X46405Y-32267D01*
X46386Y-32190D01*
X46386Y-32133D01*
X46405Y-32057D01*
X46424Y-32019D01*
X46462Y-31981D01*
X46520Y-31962D01*
X46558Y-31962D01*
X46615Y-31981D01*
X46634Y-32000D01*
X46977Y-32095D02*
X46977Y-32362D01*
X46881Y-31943D02*
X46786Y-32229D01*
X47034Y-32229D01*
X43634Y-40324D02*
X43615Y-40343D01*
X43558Y-40362D01*
X43520Y-40362D01*
X43462Y-40343D01*
X43424Y-40305D01*
X43405Y-40267D01*
X43386Y-40190D01*
X43386Y-40133D01*
X43405Y-40057D01*
X43424Y-40019D01*
X43462Y-39981D01*
X43520Y-39962D01*
X43558Y-39962D01*
X43615Y-39981D01*
X43634Y-40000D01*
X43996Y-39962D02*
X43805Y-39962D01*
X43786Y-40152D01*
X43805Y-40133D01*
X43843Y-40114D01*
X43939Y-40114D01*
X43977Y-40133D01*
X43996Y-40152D01*
X44015Y-40190D01*
X44015Y-40286D01*
X43996Y-40324D01*
X43977Y-40343D01*
X43939Y-40362D01*
X43843Y-40362D01*
X43805Y-40343D01*
X43786Y-40324D01*
X46681Y-34325D02*
X46547Y-34134D01*
X46452Y-34325D02*
X46452Y-33925D01*
X46605Y-33925D01*
X46643Y-33944D01*
X46662Y-33963D01*
X46681Y-34001D01*
X46681Y-34058D01*
X46662Y-34096D01*
X46643Y-34115D01*
X46605Y-34134D01*
X46452Y-34134D01*
X47062Y-34325D02*
X46833Y-34325D01*
X46947Y-34325D02*
X46947Y-33925D01*
X46909Y-33982D01*
X46871Y-34020D01*
X46833Y-34039D01*
X48112Y-27950D02*
X48074Y-27931D01*
X48036Y-27893D01*
X47979Y-27836D01*
X47940Y-27817D01*
X47902Y-27817D01*
X47921Y-27912D02*
X47883Y-27893D01*
X47845Y-27855D01*
X47826Y-27779D01*
X47826Y-27645D01*
X47845Y-27569D01*
X47883Y-27531D01*
X47921Y-27512D01*
X47998Y-27512D01*
X48036Y-27531D01*
X48074Y-27569D01*
X48093Y-27645D01*
X48093Y-27779D01*
X48074Y-27855D01*
X48036Y-27893D01*
X47998Y-27912D01*
X47921Y-27912D01*
X48474Y-27912D02*
X48245Y-27912D01*
X48359Y-27912D02*
X48359Y-27512D01*
X48321Y-27569D01*
X48283Y-27607D01*
X48245Y-27626D01*
X66062Y-27950D02*
X66024Y-27931D01*
X65986Y-27893D01*
X65929Y-27836D01*
X65890Y-27817D01*
X65852Y-27817D01*
X65871Y-27912D02*
X65833Y-27893D01*
X65795Y-27855D01*
X65776Y-27779D01*
X65776Y-27645D01*
X65795Y-27569D01*
X65833Y-27531D01*
X65871Y-27512D01*
X65948Y-27512D01*
X65986Y-27531D01*
X66024Y-27569D01*
X66043Y-27645D01*
X66043Y-27779D01*
X66024Y-27855D01*
X65986Y-27893D01*
X65948Y-27912D01*
X65871Y-27912D01*
X66195Y-27550D02*
X66214Y-27531D01*
X66252Y-27512D01*
X66348Y-27512D01*
X66386Y-27531D01*
X66405Y-27550D01*
X66424Y-27588D01*
X66424Y-27626D01*
X66405Y-27683D01*
X66176Y-27912D01*
X66424Y-27912D01*
X53834Y-31262D02*
X53700Y-31071D01*
X53605Y-31262D02*
X53605Y-30862D01*
X53758Y-30862D01*
X53796Y-30881D01*
X53815Y-30900D01*
X53834Y-30938D01*
X53834Y-30995D01*
X53815Y-31033D01*
X53796Y-31052D01*
X53758Y-31071D01*
X53605Y-31071D01*
X53967Y-30862D02*
X54215Y-30862D01*
X54081Y-31014D01*
X54139Y-31014D01*
X54177Y-31033D01*
X54196Y-31052D01*
X54215Y-31090D01*
X54215Y-31186D01*
X54196Y-31224D01*
X54177Y-31243D01*
X54139Y-31262D01*
X54024Y-31262D01*
X53986Y-31243D01*
X53967Y-31224D01*
X58034Y-31212D02*
X57900Y-31021D01*
X57805Y-31212D02*
X57805Y-30812D01*
X57958Y-30812D01*
X57996Y-30831D01*
X58015Y-30850D01*
X58034Y-30888D01*
X58034Y-30945D01*
X58015Y-30983D01*
X57996Y-31002D01*
X57958Y-31021D01*
X57805Y-31021D01*
X58377Y-30945D02*
X58377Y-31212D01*
X58281Y-30793D02*
X58186Y-31079D01*
X58434Y-31079D01*
X56614Y-28962D02*
X56614Y-28562D01*
X56709Y-28562D01*
X56767Y-28581D01*
X56805Y-28619D01*
X56824Y-28657D01*
X56843Y-28733D01*
X56843Y-28790D01*
X56824Y-28867D01*
X56805Y-28905D01*
X56767Y-28943D01*
X56709Y-28962D01*
X56614Y-28962D01*
X56995Y-28943D02*
X57052Y-28962D01*
X57148Y-28962D01*
X57186Y-28943D01*
X57205Y-28924D01*
X57224Y-28886D01*
X57224Y-28848D01*
X57205Y-28810D01*
X57186Y-28790D01*
X57148Y-28771D01*
X57071Y-28752D01*
X57033Y-28733D01*
X57014Y-28714D01*
X56995Y-28676D01*
X56995Y-28638D01*
X57014Y-28600D01*
X57033Y-28581D01*
X57071Y-28562D01*
X57167Y-28562D01*
X57224Y-28581D01*
X57605Y-28962D02*
X57376Y-28962D01*
X57490Y-28962D02*
X57490Y-28562D01*
X57452Y-28619D01*
X57414Y-28657D01*
X57376Y-28676D01*
X38202Y-32835D02*
X37964Y-33002D01*
X38202Y-33121D02*
X37702Y-33121D01*
X37702Y-32930D01*
X37726Y-32883D01*
X37750Y-32859D01*
X37798Y-32835D01*
X37869Y-32835D01*
X37917Y-32859D01*
X37940Y-32883D01*
X37964Y-32930D01*
X37964Y-33121D01*
X37940Y-32621D02*
X37940Y-32454D01*
X38202Y-32383D02*
X38202Y-32621D01*
X37702Y-32621D01*
X37702Y-32383D01*
X38202Y-32169D02*
X37702Y-32169D01*
X38060Y-32002D01*
X37702Y-31836D01*
X38202Y-31836D01*
X37702Y-31503D02*
X37702Y-31407D01*
X37726Y-31360D01*
X37774Y-31312D01*
X37869Y-31288D01*
X38036Y-31288D01*
X38131Y-31312D01*
X38179Y-31360D01*
X38202Y-31407D01*
X38202Y-31503D01*
X38179Y-31550D01*
X38131Y-31598D01*
X38036Y-31622D01*
X37869Y-31622D01*
X37774Y-31598D01*
X37726Y-31550D01*
X37702Y-31503D01*
X37702Y-31145D02*
X37702Y-30860D01*
X38202Y-31003D02*
X37702Y-31003D01*
X37940Y-30693D02*
X37940Y-30526D01*
X38202Y-30455D02*
X38202Y-30693D01*
X37702Y-30693D01*
X37702Y-30455D01*
X52762Y-36933D02*
X53048Y-36933D01*
X53105Y-36953D01*
X53143Y-36991D01*
X53162Y-37048D01*
X53162Y-37086D01*
X53162Y-36743D02*
X52762Y-36743D01*
X52762Y-36590D01*
X52781Y-36552D01*
X52800Y-36533D01*
X52838Y-36514D01*
X52895Y-36514D01*
X52933Y-36533D01*
X52952Y-36552D01*
X52971Y-36590D01*
X52971Y-36743D01*
X53162Y-36133D02*
X53162Y-36362D01*
X53162Y-36248D02*
X52762Y-36248D01*
X52819Y-36286D01*
X52857Y-36324D01*
X52876Y-36362D01*
X63214Y-42662D02*
X63214Y-42262D01*
X63309Y-42262D01*
X63367Y-42281D01*
X63405Y-42319D01*
X63424Y-42357D01*
X63443Y-42433D01*
X63443Y-42490D01*
X63424Y-42567D01*
X63405Y-42605D01*
X63367Y-42643D01*
X63309Y-42662D01*
X63214Y-42662D01*
X63576Y-42262D02*
X63843Y-42262D01*
X63576Y-42662D01*
X63843Y-42662D01*
X64205Y-42662D02*
X63976Y-42662D01*
X64090Y-42662D02*
X64090Y-42262D01*
X64052Y-42319D01*
X64014Y-42357D01*
X63976Y-42376D01*
X63214Y-44662D02*
X63214Y-44262D01*
X63309Y-44262D01*
X63367Y-44281D01*
X63405Y-44319D01*
X63424Y-44357D01*
X63443Y-44433D01*
X63443Y-44490D01*
X63424Y-44567D01*
X63405Y-44605D01*
X63367Y-44643D01*
X63309Y-44662D01*
X63214Y-44662D01*
X63576Y-44262D02*
X63843Y-44262D01*
X63576Y-44662D01*
X63843Y-44662D01*
X63976Y-44300D02*
X63995Y-44281D01*
X64033Y-44262D01*
X64129Y-44262D01*
X64167Y-44281D01*
X64186Y-44300D01*
X64205Y-44338D01*
X64205Y-44376D01*
X64186Y-44433D01*
X63957Y-44662D01*
X64205Y-44662D01*
X50934Y-39362D02*
X50800Y-39171D01*
X50705Y-39362D02*
X50705Y-38962D01*
X50858Y-38962D01*
X50896Y-38981D01*
X50915Y-39000D01*
X50934Y-39038D01*
X50934Y-39095D01*
X50915Y-39133D01*
X50896Y-39152D01*
X50858Y-39171D01*
X50705Y-39171D01*
X51296Y-38962D02*
X51105Y-38962D01*
X51086Y-39152D01*
X51105Y-39133D01*
X51143Y-39114D01*
X51239Y-39114D01*
X51277Y-39133D01*
X51296Y-39152D01*
X51315Y-39190D01*
X51315Y-39286D01*
X51296Y-39324D01*
X51277Y-39343D01*
X51239Y-39362D01*
X51143Y-39362D01*
X51105Y-39343D01*
X51086Y-39324D01*
X60134Y-35162D02*
X60000Y-34971D01*
X59905Y-35162D02*
X59905Y-34762D01*
X60058Y-34762D01*
X60096Y-34781D01*
X60115Y-34800D01*
X60134Y-34838D01*
X60134Y-34895D01*
X60115Y-34933D01*
X60096Y-34952D01*
X60058Y-34971D01*
X59905Y-34971D01*
X60477Y-34762D02*
X60400Y-34762D01*
X60362Y-34781D01*
X60343Y-34800D01*
X60305Y-34857D01*
X60286Y-34933D01*
X60286Y-35086D01*
X60305Y-35124D01*
X60324Y-35143D01*
X60362Y-35162D01*
X60439Y-35162D01*
X60477Y-35143D01*
X60496Y-35124D01*
X60515Y-35086D01*
X60515Y-34990D01*
X60496Y-34952D01*
X60477Y-34933D01*
X60439Y-34914D01*
X60362Y-34914D01*
X60324Y-34933D01*
X60305Y-34952D01*
X60286Y-34990D01*
X59962Y-39738D02*
X59962Y-39490D01*
X60114Y-39624D01*
X60114Y-39566D01*
X60133Y-39528D01*
X60152Y-39509D01*
X60190Y-39490D01*
X60286Y-39490D01*
X60324Y-39509D01*
X60343Y-39528D01*
X60362Y-39566D01*
X60362Y-39681D01*
X60343Y-39719D01*
X60324Y-39738D01*
X59962Y-39243D02*
X59962Y-39204D01*
X59981Y-39166D01*
X60000Y-39147D01*
X60038Y-39128D01*
X60114Y-39109D01*
X60210Y-39109D01*
X60286Y-39128D01*
X60324Y-39147D01*
X60343Y-39166D01*
X60362Y-39204D01*
X60362Y-39243D01*
X60343Y-39281D01*
X60324Y-39300D01*
X60286Y-39319D01*
X60210Y-39338D01*
X60114Y-39338D01*
X60038Y-39319D01*
X60000Y-39300D01*
X59981Y-39281D01*
X59962Y-39243D01*
X60362Y-38938D02*
X59962Y-38938D01*
X60210Y-38900D02*
X60362Y-38785D01*
X60095Y-38785D02*
X60248Y-38938D01*
X60210Y-38614D02*
X60210Y-38309D01*
X59962Y-38043D02*
X59962Y-38004D01*
X59981Y-37966D01*
X60000Y-37947D01*
X60038Y-37928D01*
X60114Y-37909D01*
X60210Y-37909D01*
X60286Y-37928D01*
X60324Y-37947D01*
X60343Y-37966D01*
X60362Y-38004D01*
X60362Y-38043D01*
X60343Y-38081D01*
X60324Y-38100D01*
X60286Y-38119D01*
X60210Y-38138D01*
X60114Y-38138D01*
X60038Y-38119D01*
X60000Y-38100D01*
X59981Y-38081D01*
X59962Y-38043D01*
X60324Y-37738D02*
X60343Y-37719D01*
X60362Y-37738D01*
X60343Y-37757D01*
X60324Y-37738D01*
X60362Y-37738D01*
X60362Y-37338D02*
X60362Y-37567D01*
X60362Y-37453D02*
X59962Y-37453D01*
X60019Y-37491D01*
X60057Y-37529D01*
X60076Y-37567D01*
X60362Y-37186D02*
X59962Y-36881D01*
X59962Y-37129D02*
X59981Y-37091D01*
X60019Y-37072D01*
X60057Y-37091D01*
X60076Y-37129D01*
X60057Y-37167D01*
X60019Y-37186D01*
X59981Y-37167D01*
X59962Y-37129D01*
X60343Y-36900D02*
X60305Y-36881D01*
X60267Y-36900D01*
X60248Y-36938D01*
X60267Y-36976D01*
X60305Y-36995D01*
X60343Y-36976D01*
X60362Y-36938D01*
X60343Y-36900D01*
X61534Y-35162D02*
X61400Y-34971D01*
X61305Y-35162D02*
X61305Y-34762D01*
X61458Y-34762D01*
X61496Y-34781D01*
X61515Y-34800D01*
X61534Y-34838D01*
X61534Y-34895D01*
X61515Y-34933D01*
X61496Y-34952D01*
X61458Y-34971D01*
X61305Y-34971D01*
X61667Y-34762D02*
X61934Y-34762D01*
X61762Y-35162D01*
X61762Y-39490D02*
X61762Y-39719D01*
X61762Y-39605D02*
X61362Y-39605D01*
X61419Y-39643D01*
X61457Y-39681D01*
X61476Y-39719D01*
X61362Y-39243D02*
X61362Y-39204D01*
X61381Y-39166D01*
X61400Y-39147D01*
X61438Y-39128D01*
X61514Y-39109D01*
X61610Y-39109D01*
X61686Y-39128D01*
X61724Y-39147D01*
X61743Y-39166D01*
X61762Y-39204D01*
X61762Y-39243D01*
X61743Y-39281D01*
X61724Y-39300D01*
X61686Y-39319D01*
X61610Y-39338D01*
X61514Y-39338D01*
X61438Y-39319D01*
X61400Y-39300D01*
X61381Y-39281D01*
X61362Y-39243D01*
X61762Y-38938D02*
X61362Y-38938D01*
X61610Y-38900D02*
X61762Y-38785D01*
X61495Y-38785D02*
X61648Y-38938D01*
X61610Y-38614D02*
X61610Y-38309D01*
X61362Y-38043D02*
X61362Y-38004D01*
X61381Y-37966D01*
X61400Y-37947D01*
X61438Y-37928D01*
X61514Y-37909D01*
X61610Y-37909D01*
X61686Y-37928D01*
X61724Y-37947D01*
X61743Y-37966D01*
X61762Y-38004D01*
X61762Y-38043D01*
X61743Y-38081D01*
X61724Y-38100D01*
X61686Y-38119D01*
X61610Y-38138D01*
X61514Y-38138D01*
X61438Y-38119D01*
X61400Y-38100D01*
X61381Y-38081D01*
X61362Y-38043D01*
X61724Y-37738D02*
X61743Y-37719D01*
X61762Y-37738D01*
X61743Y-37757D01*
X61724Y-37738D01*
X61762Y-37738D01*
X61762Y-37338D02*
X61762Y-37567D01*
X61762Y-37453D02*
X61362Y-37453D01*
X61419Y-37491D01*
X61457Y-37529D01*
X61476Y-37567D01*
X61762Y-37186D02*
X61362Y-36881D01*
X61362Y-37129D02*
X61381Y-37091D01*
X61419Y-37072D01*
X61457Y-37091D01*
X61476Y-37129D01*
X61457Y-37167D01*
X61419Y-37186D01*
X61381Y-37167D01*
X61362Y-37129D01*
X61743Y-36900D02*
X61705Y-36881D01*
X61667Y-36900D01*
X61648Y-36938D01*
X61667Y-36976D01*
X61705Y-36995D01*
X61743Y-36976D01*
X61762Y-36938D01*
X61743Y-36900D01*
%LPC*%
G54D23*
X40200Y-36200D03*
X39200Y-37200D03*
X40200Y-38200D03*
G54D24*
X69200Y-47900D03*
G54D25*
X70635Y-48905D02*
X71763Y-49695D01*
G54D24*
X63400Y-47900D03*
G54D25*
X61965Y-48905D02*
X60837Y-49695D01*
G54D26*
X73229Y-25118D03*
X40945Y-25118D03*
G54D27*
X51215Y-41000D03*
X40585Y-41000D03*
G54D28*
X47908Y-50764D03*
X43892Y-50764D03*
G54D29*
X46530Y-50764D03*
X45270Y-50764D03*
G54D30*
X56000Y-45200D03*
G54D31*
X56000Y-39294D03*
X54425Y-39294D03*
X57575Y-39294D03*
G54D32*
X55587Y-35800D03*
X56413Y-35800D03*
G54D33*
X39370Y-15354D03*
X74803Y-15354D03*
X39370Y-50787D03*
X74803Y-50787D03*
G54D34*
X45150Y-43750D03*
G54D35*
X45150Y-46350D03*
X46050Y-46350D03*
X44250Y-46350D03*
G54D36*
X44926Y-38100D03*
X45674Y-38100D03*
G54D37*
X46801Y-47750D03*
X45699Y-47750D03*
X43499Y-47750D03*
X44601Y-47750D03*
G54D38*
X44277Y-35150D03*
X44277Y-35650D03*
X44277Y-36150D03*
X44277Y-36650D03*
X46323Y-36650D03*
X46323Y-36150D03*
X46323Y-35650D03*
X46323Y-35150D03*
G54D39*
X55666Y-34900D03*
X56334Y-34900D03*
G54D24*
X73500Y-36000D03*
X73500Y-43000D03*
G54D29*
X40354Y-46496D03*
X40354Y-45496D03*
X40354Y-47496D03*
G54D40*
X67700Y-30504D03*
X67700Y-43496D03*
X64900Y-30504D03*
X64900Y-43496D03*
G54D36*
X45674Y-31000D03*
X44926Y-31000D03*
X44926Y-32200D03*
X45674Y-32200D03*
G54D37*
X45851Y-40200D03*
X44749Y-40200D03*
G54D36*
X44926Y-34200D03*
X45674Y-34200D03*
G54D41*
X51200Y-27750D03*
X52200Y-27750D03*
X50200Y-27750D03*
X63000Y-27750D03*
X64000Y-27750D03*
X62000Y-27750D03*
G54D36*
X54274Y-30200D03*
X53526Y-30200D03*
X57726Y-30200D03*
X58474Y-30200D03*
G54D41*
X57100Y-27750D03*
X58100Y-27750D03*
X56100Y-27750D03*
G54D42*
X39100Y-30200D03*
G54D43*
X39100Y-31200D03*
X39100Y-32200D03*
X39100Y-33200D03*
G54D42*
X50000Y-36600D03*
G54D43*
X51000Y-36600D03*
X52000Y-36600D03*
G54D44*
X62633Y-42874D03*
X62633Y-42126D03*
X61767Y-42500D03*
X62633Y-44674D03*
X62633Y-43926D03*
X61767Y-44300D03*
G54D36*
X51374Y-38400D03*
X50626Y-38400D03*
G54D23*
X60200Y-40800D03*
X60200Y-35800D03*
X61600Y-40800D03*
X61600Y-35800D03*
M02*
