G04 (created by PCBNEW-RS274X (2012-jan-04)-stable) date Mon 04 Jun 2012 05:41:14 PM CEST*
G01*
G70*
G90*
%MOIN*%
G04 Gerber Fmt 3.4, Leading zero omitted, Abs format*
%FSLAX34Y34*%
G04 APERTURE LIST*
%ADD10C,0.006000*%
%ADD11C,0.070000*%
%ADD12R,0.070000X0.070000*%
%ADD13C,0.160000*%
%ADD14R,0.027600X0.039400*%
%ADD15C,0.374000*%
%ADD16C,0.060000*%
%ADD17C,0.295300*%
%ADD18R,0.051100X0.059000*%
%ADD19R,0.059000X0.051100*%
%ADD20R,0.055000X0.055000*%
%ADD21C,0.055000*%
%ADD22C,0.044000*%
%ADD23C,0.196900*%
%ADD24C,0.137800*%
%ADD25C,0.059100*%
%ADD26C,0.472400*%
%ADD27R,0.118100X0.167300*%
%ADD28R,0.167300X0.118100*%
%ADD29C,0.098400*%
%ADD30C,0.035000*%
%ADD31C,0.025000*%
%ADD32C,0.070000*%
%ADD33C,0.010000*%
%ADD34C,0.020000*%
G04 APERTURE END LIST*
G54D10*
G54D11*
X63961Y-27559D03*
X64961Y-27559D03*
G54D12*
X65961Y-27559D03*
G54D11*
X48213Y-27559D03*
X49213Y-27559D03*
G54D12*
X50213Y-27559D03*
G54D13*
X39370Y-15354D03*
X74803Y-15354D03*
X39370Y-50787D03*
X74803Y-50787D03*
G54D14*
X72600Y-33300D03*
X72975Y-32300D03*
X72225Y-32300D03*
X74400Y-33300D03*
X74775Y-32300D03*
X74025Y-32300D03*
G54D15*
X64600Y-48300D03*
X69400Y-48300D03*
G54D16*
X67700Y-32100D03*
X67700Y-37100D03*
X66200Y-32100D03*
X66200Y-37100D03*
X64400Y-32100D03*
X64400Y-37100D03*
X62900Y-32100D03*
X62900Y-37100D03*
G54D17*
X72835Y-25118D03*
X41339Y-25118D03*
X57087Y-25118D03*
G54D18*
X70874Y-34300D03*
X70126Y-34300D03*
G54D14*
X70900Y-32300D03*
X70525Y-33300D03*
X71275Y-33300D03*
G54D19*
X73500Y-47926D03*
X73500Y-48674D03*
G54D20*
X39646Y-47496D03*
G54D21*
X39646Y-46496D03*
X39646Y-45496D03*
G54D22*
X57500Y-36700D03*
X56500Y-37700D03*
X55500Y-36700D03*
G54D23*
X50565Y-40950D03*
X39935Y-40950D03*
G54D24*
X47258Y-50950D03*
X43242Y-50950D03*
G54D25*
X45880Y-50950D03*
X44620Y-50950D03*
G54D26*
X73500Y-37500D03*
G54D27*
X73500Y-34606D03*
G54D26*
X73500Y-44500D03*
G54D28*
X70606Y-44500D03*
G54D26*
X56500Y-45000D03*
G54D29*
X56500Y-39094D03*
X54925Y-39094D03*
X58075Y-39094D03*
G54D30*
X48300Y-36600D03*
X48300Y-39400D03*
X48300Y-37500D03*
X49800Y-37500D03*
X48300Y-38800D03*
X47550Y-35650D03*
X47550Y-33350D03*
G54D31*
X64600Y-47600D02*
X61600Y-44600D01*
X55500Y-36700D02*
X48400Y-36700D01*
X56500Y-35700D02*
X55500Y-36700D01*
X64600Y-48300D02*
X64600Y-47600D01*
X48400Y-36700D02*
X48300Y-36600D01*
X61600Y-42800D02*
X60300Y-41500D01*
X60300Y-41500D02*
X60300Y-36500D01*
X61600Y-44600D02*
X61600Y-42800D01*
X48300Y-36600D02*
X48400Y-36700D01*
X60300Y-36500D02*
X59500Y-35700D01*
X59500Y-35700D02*
X56500Y-35700D01*
X74775Y-31625D02*
X74750Y-31600D01*
X74775Y-32300D02*
X74775Y-31625D01*
G54D32*
X74500Y-31600D02*
X73000Y-30100D01*
G54D31*
X72975Y-31725D02*
X73000Y-31700D01*
G54D32*
X66000Y-25500D02*
X65000Y-26500D01*
X58500Y-27500D02*
X60500Y-25500D01*
X50000Y-25500D02*
X53500Y-25500D01*
X60500Y-25500D02*
X64000Y-25500D01*
X64000Y-25500D02*
X65000Y-26500D01*
X73000Y-30100D02*
X68400Y-25500D01*
X73000Y-31700D02*
X73000Y-30300D01*
X49213Y-27559D02*
X49213Y-26287D01*
G54D31*
X70900Y-32300D02*
X70900Y-31700D01*
X74750Y-31600D02*
X74500Y-31600D01*
G54D32*
X49213Y-26287D02*
X50000Y-25500D01*
X65000Y-27500D02*
X64961Y-27559D01*
X70900Y-31700D02*
X72300Y-30300D01*
X65000Y-26500D02*
X65000Y-27500D01*
X68400Y-25500D02*
X66000Y-25500D01*
X73000Y-30300D02*
X73000Y-30100D01*
X55500Y-27500D02*
X58500Y-27500D01*
G54D31*
X72975Y-32300D02*
X72975Y-31725D01*
G54D32*
X53500Y-25500D02*
X55500Y-27500D01*
X72300Y-30300D02*
X73000Y-30300D01*
G54D31*
X72600Y-33300D02*
X72600Y-33900D01*
G54D32*
X73500Y-35000D02*
X74400Y-34100D01*
G54D31*
X74400Y-33300D02*
X74400Y-33900D01*
G54D32*
X73500Y-37500D02*
X73500Y-35000D01*
X73500Y-35000D02*
X72600Y-34100D01*
X64000Y-28500D02*
X64000Y-27500D01*
X48213Y-27559D02*
X48213Y-28713D01*
X49500Y-30000D02*
X62500Y-30000D01*
X48213Y-28713D02*
X49500Y-30000D01*
X64400Y-32100D02*
X66200Y-32100D01*
X62900Y-32100D02*
X64400Y-32100D01*
X62550Y-29950D02*
X62550Y-31750D01*
X62500Y-30000D02*
X62550Y-29950D01*
X66200Y-32100D02*
X67700Y-32100D01*
X62550Y-29950D02*
X64000Y-28500D01*
X64000Y-27500D02*
X63961Y-27559D01*
X62550Y-31750D02*
X62900Y-32100D01*
G54D31*
X41000Y-52200D02*
X73390Y-52200D01*
X39370Y-50787D02*
X39587Y-50787D01*
X39370Y-50787D02*
X39370Y-49770D01*
X39587Y-50787D02*
X41000Y-52200D01*
X73390Y-52200D02*
X74803Y-50787D01*
X38446Y-47450D02*
X38450Y-47450D01*
X39370Y-15354D02*
X74803Y-15354D01*
X38450Y-47450D02*
X38400Y-47450D01*
X73500Y-48674D02*
X73500Y-49484D01*
X72200Y-48300D02*
X72574Y-48674D01*
X39370Y-49770D02*
X38400Y-48800D01*
X72574Y-48674D02*
X73500Y-48674D01*
X49800Y-39400D02*
X54619Y-39400D01*
X54619Y-39400D02*
X54925Y-39094D01*
X38400Y-16324D02*
X39370Y-15354D01*
X73500Y-49484D02*
X74803Y-50787D01*
X38400Y-47450D02*
X38400Y-16324D01*
X38400Y-48800D02*
X38400Y-47450D01*
X48300Y-39400D02*
X49800Y-39400D01*
X69400Y-48300D02*
X72200Y-48300D01*
X38400Y-47496D02*
X38446Y-47450D01*
X39646Y-47496D02*
X38400Y-47496D01*
X73000Y-41000D02*
X73500Y-41500D01*
G54D32*
X69000Y-44500D02*
X73500Y-44500D01*
X66200Y-37100D02*
X67700Y-37100D01*
G54D31*
X73500Y-47926D02*
X73500Y-44500D01*
G54D32*
X65300Y-37100D02*
X65300Y-40800D01*
G54D31*
X71200Y-41000D02*
X73000Y-41000D01*
G54D32*
X62900Y-37100D02*
X64400Y-37100D01*
X65300Y-40800D02*
X69000Y-44500D01*
G54D31*
X73500Y-41500D02*
X73500Y-44500D01*
X70126Y-39926D02*
X71200Y-41000D01*
G54D32*
X64400Y-37100D02*
X65300Y-37100D01*
X65300Y-37100D02*
X66200Y-37100D01*
G54D31*
X70126Y-34300D02*
X70126Y-39926D01*
X49800Y-37500D02*
X48300Y-37500D01*
X48300Y-38800D02*
X51200Y-38800D01*
X51200Y-38800D02*
X52300Y-37700D01*
X52300Y-37700D02*
X56500Y-37700D01*
X47550Y-35650D02*
X47550Y-33350D01*
G54D33*
X70874Y-33701D02*
X71275Y-33300D01*
X73400Y-32800D02*
X73900Y-32300D01*
X71800Y-32300D02*
X72225Y-32300D01*
X72225Y-32300D02*
X72225Y-32725D01*
X70874Y-34300D02*
X70874Y-33701D01*
X73900Y-32300D02*
X74025Y-32300D01*
X71275Y-32825D02*
X71800Y-32300D01*
X71275Y-33300D02*
X71275Y-32825D01*
X72300Y-32800D02*
X73400Y-32800D01*
X72225Y-32725D02*
X72300Y-32800D01*
G54D10*
G36*
X75200Y-30995D02*
X75182Y-31175D01*
X75131Y-31344D01*
X75048Y-31500D01*
X74936Y-31636D01*
X74811Y-31738D01*
X74811Y-24924D01*
X74736Y-24544D01*
X74588Y-24186D01*
X74373Y-23863D01*
X74100Y-23588D01*
X73779Y-23371D01*
X73422Y-23221D01*
X73042Y-23143D01*
X72655Y-23141D01*
X72274Y-23213D01*
X71915Y-23359D01*
X71591Y-23571D01*
X71314Y-23842D01*
X71095Y-24162D01*
X70942Y-24518D01*
X70862Y-24897D01*
X70856Y-25284D01*
X70926Y-25666D01*
X71069Y-26026D01*
X71279Y-26351D01*
X71548Y-26630D01*
X71867Y-26851D01*
X72222Y-27006D01*
X72600Y-27090D01*
X72988Y-27098D01*
X73369Y-27030D01*
X73730Y-26890D01*
X74058Y-26682D01*
X74338Y-26415D01*
X74562Y-26099D01*
X74719Y-25744D01*
X74805Y-25367D01*
X74811Y-24924D01*
X74811Y-31738D01*
X74800Y-31748D01*
X74644Y-31831D01*
X74475Y-31882D01*
X74295Y-31900D01*
X70905Y-31900D01*
X70725Y-31882D01*
X70556Y-31831D01*
X70400Y-31748D01*
X70264Y-31636D01*
X70152Y-31500D01*
X70069Y-31344D01*
X70018Y-31175D01*
X70000Y-30995D01*
X70000Y-29576D01*
X69983Y-29382D01*
X69929Y-29189D01*
X69841Y-29010D01*
X69725Y-28853D01*
X69184Y-28244D01*
X69163Y-28221D01*
X67766Y-26741D01*
X67636Y-26625D01*
X67485Y-26528D01*
X67321Y-26458D01*
X67147Y-26414D01*
X66973Y-26400D01*
X63495Y-26400D01*
X63285Y-26420D01*
X63078Y-26483D01*
X62888Y-26586D01*
X62722Y-26722D01*
X62586Y-26888D01*
X62483Y-27078D01*
X62420Y-27285D01*
X62382Y-27675D01*
X62331Y-27844D01*
X62248Y-28000D01*
X62136Y-28136D01*
X62000Y-28248D01*
X61844Y-28331D01*
X61675Y-28382D01*
X61495Y-28400D01*
X59063Y-28400D01*
X59063Y-24924D01*
X58988Y-24544D01*
X58840Y-24186D01*
X58625Y-23863D01*
X58352Y-23588D01*
X58031Y-23371D01*
X57674Y-23221D01*
X57294Y-23143D01*
X56907Y-23141D01*
X56526Y-23213D01*
X56167Y-23359D01*
X55843Y-23571D01*
X55566Y-23842D01*
X55347Y-24162D01*
X55194Y-24518D01*
X55114Y-24897D01*
X55108Y-25284D01*
X55178Y-25666D01*
X55321Y-26026D01*
X55531Y-26351D01*
X55800Y-26630D01*
X56119Y-26851D01*
X56474Y-27006D01*
X56852Y-27090D01*
X57240Y-27098D01*
X57621Y-27030D01*
X57982Y-26890D01*
X58310Y-26682D01*
X58590Y-26415D01*
X58814Y-26099D01*
X58971Y-25744D01*
X59057Y-25367D01*
X59063Y-24924D01*
X59063Y-28400D01*
X52505Y-28400D01*
X52325Y-28382D01*
X52156Y-28331D01*
X52000Y-28248D01*
X51864Y-28136D01*
X51752Y-28000D01*
X51669Y-27844D01*
X51618Y-27675D01*
X51580Y-27285D01*
X51517Y-27078D01*
X51414Y-26888D01*
X51278Y-26722D01*
X51112Y-26586D01*
X50922Y-26483D01*
X50715Y-26420D01*
X50505Y-26400D01*
X48205Y-26400D01*
X48025Y-26382D01*
X47856Y-26331D01*
X47700Y-26248D01*
X47564Y-26136D01*
X47452Y-26000D01*
X47369Y-25844D01*
X47318Y-25675D01*
X47300Y-25495D01*
X47300Y-22005D01*
X47318Y-21825D01*
X47369Y-21656D01*
X47452Y-21500D01*
X47564Y-21364D01*
X47700Y-21252D01*
X47856Y-21169D01*
X48025Y-21118D01*
X48205Y-21100D01*
X74295Y-21100D01*
X74475Y-21118D01*
X74644Y-21169D01*
X74800Y-21252D01*
X74936Y-21364D01*
X75048Y-21500D01*
X75131Y-21656D01*
X75182Y-21825D01*
X75200Y-22005D01*
X75200Y-30995D01*
X75200Y-30995D01*
G37*
G54D34*
X75200Y-30995D02*
X75182Y-31175D01*
X75131Y-31344D01*
X75048Y-31500D01*
X74936Y-31636D01*
X74811Y-31738D01*
X74811Y-24924D01*
X74736Y-24544D01*
X74588Y-24186D01*
X74373Y-23863D01*
X74100Y-23588D01*
X73779Y-23371D01*
X73422Y-23221D01*
X73042Y-23143D01*
X72655Y-23141D01*
X72274Y-23213D01*
X71915Y-23359D01*
X71591Y-23571D01*
X71314Y-23842D01*
X71095Y-24162D01*
X70942Y-24518D01*
X70862Y-24897D01*
X70856Y-25284D01*
X70926Y-25666D01*
X71069Y-26026D01*
X71279Y-26351D01*
X71548Y-26630D01*
X71867Y-26851D01*
X72222Y-27006D01*
X72600Y-27090D01*
X72988Y-27098D01*
X73369Y-27030D01*
X73730Y-26890D01*
X74058Y-26682D01*
X74338Y-26415D01*
X74562Y-26099D01*
X74719Y-25744D01*
X74805Y-25367D01*
X74811Y-24924D01*
X74811Y-31738D01*
X74800Y-31748D01*
X74644Y-31831D01*
X74475Y-31882D01*
X74295Y-31900D01*
X70905Y-31900D01*
X70725Y-31882D01*
X70556Y-31831D01*
X70400Y-31748D01*
X70264Y-31636D01*
X70152Y-31500D01*
X70069Y-31344D01*
X70018Y-31175D01*
X70000Y-30995D01*
X70000Y-29576D01*
X69983Y-29382D01*
X69929Y-29189D01*
X69841Y-29010D01*
X69725Y-28853D01*
X69184Y-28244D01*
X69163Y-28221D01*
X67766Y-26741D01*
X67636Y-26625D01*
X67485Y-26528D01*
X67321Y-26458D01*
X67147Y-26414D01*
X66973Y-26400D01*
X63495Y-26400D01*
X63285Y-26420D01*
X63078Y-26483D01*
X62888Y-26586D01*
X62722Y-26722D01*
X62586Y-26888D01*
X62483Y-27078D01*
X62420Y-27285D01*
X62382Y-27675D01*
X62331Y-27844D01*
X62248Y-28000D01*
X62136Y-28136D01*
X62000Y-28248D01*
X61844Y-28331D01*
X61675Y-28382D01*
X61495Y-28400D01*
X59063Y-28400D01*
X59063Y-24924D01*
X58988Y-24544D01*
X58840Y-24186D01*
X58625Y-23863D01*
X58352Y-23588D01*
X58031Y-23371D01*
X57674Y-23221D01*
X57294Y-23143D01*
X56907Y-23141D01*
X56526Y-23213D01*
X56167Y-23359D01*
X55843Y-23571D01*
X55566Y-23842D01*
X55347Y-24162D01*
X55194Y-24518D01*
X55114Y-24897D01*
X55108Y-25284D01*
X55178Y-25666D01*
X55321Y-26026D01*
X55531Y-26351D01*
X55800Y-26630D01*
X56119Y-26851D01*
X56474Y-27006D01*
X56852Y-27090D01*
X57240Y-27098D01*
X57621Y-27030D01*
X57982Y-26890D01*
X58310Y-26682D01*
X58590Y-26415D01*
X58814Y-26099D01*
X58971Y-25744D01*
X59057Y-25367D01*
X59063Y-24924D01*
X59063Y-28400D01*
X52505Y-28400D01*
X52325Y-28382D01*
X52156Y-28331D01*
X52000Y-28248D01*
X51864Y-28136D01*
X51752Y-28000D01*
X51669Y-27844D01*
X51618Y-27675D01*
X51580Y-27285D01*
X51517Y-27078D01*
X51414Y-26888D01*
X51278Y-26722D01*
X51112Y-26586D01*
X50922Y-26483D01*
X50715Y-26420D01*
X50505Y-26400D01*
X48205Y-26400D01*
X48025Y-26382D01*
X47856Y-26331D01*
X47700Y-26248D01*
X47564Y-26136D01*
X47452Y-26000D01*
X47369Y-25844D01*
X47318Y-25675D01*
X47300Y-25495D01*
X47300Y-22005D01*
X47318Y-21825D01*
X47369Y-21656D01*
X47452Y-21500D01*
X47564Y-21364D01*
X47700Y-21252D01*
X47856Y-21169D01*
X48025Y-21118D01*
X48205Y-21100D01*
X74295Y-21100D01*
X74475Y-21118D01*
X74644Y-21169D01*
X74800Y-21252D01*
X74936Y-21364D01*
X75048Y-21500D01*
X75131Y-21656D01*
X75182Y-21825D01*
X75200Y-22005D01*
X75200Y-30995D01*
G54D10*
G36*
X75400Y-36495D02*
X75382Y-36675D01*
X75331Y-36844D01*
X75248Y-37000D01*
X75136Y-37136D01*
X75000Y-37248D01*
X74844Y-37331D01*
X74675Y-37382D01*
X74495Y-37400D01*
X72505Y-37400D01*
X72325Y-37382D01*
X72156Y-37331D01*
X72000Y-37248D01*
X71864Y-37136D01*
X71752Y-37000D01*
X71669Y-36844D01*
X71618Y-36675D01*
X71600Y-36495D01*
X71600Y-34818D01*
X71611Y-34674D01*
X71644Y-34536D01*
X71698Y-34405D01*
X71772Y-34285D01*
X71866Y-34175D01*
X71974Y-34067D01*
X72115Y-33953D01*
X72271Y-33869D01*
X72439Y-33818D01*
X72619Y-33800D01*
X74381Y-33800D01*
X74561Y-33818D01*
X74729Y-33869D01*
X74885Y-33953D01*
X75026Y-34067D01*
X75134Y-34175D01*
X75228Y-34285D01*
X75302Y-34405D01*
X75356Y-34536D01*
X75389Y-34674D01*
X75400Y-34818D01*
X75400Y-36495D01*
X75400Y-36495D01*
G37*
G54D34*
X75400Y-36495D02*
X75382Y-36675D01*
X75331Y-36844D01*
X75248Y-37000D01*
X75136Y-37136D01*
X75000Y-37248D01*
X74844Y-37331D01*
X74675Y-37382D01*
X74495Y-37400D01*
X72505Y-37400D01*
X72325Y-37382D01*
X72156Y-37331D01*
X72000Y-37248D01*
X71864Y-37136D01*
X71752Y-37000D01*
X71669Y-36844D01*
X71618Y-36675D01*
X71600Y-36495D01*
X71600Y-34818D01*
X71611Y-34674D01*
X71644Y-34536D01*
X71698Y-34405D01*
X71772Y-34285D01*
X71866Y-34175D01*
X71974Y-34067D01*
X72115Y-33953D01*
X72271Y-33869D01*
X72439Y-33818D01*
X72619Y-33800D01*
X74381Y-33800D01*
X74561Y-33818D01*
X74729Y-33869D01*
X74885Y-33953D01*
X75026Y-34067D01*
X75134Y-34175D01*
X75228Y-34285D01*
X75302Y-34405D01*
X75356Y-34536D01*
X75389Y-34674D01*
X75400Y-34818D01*
X75400Y-36495D01*
G54D10*
G36*
X68100Y-31795D02*
X68082Y-31975D01*
X68031Y-32144D01*
X67948Y-32300D01*
X67836Y-32436D01*
X67700Y-32548D01*
X67544Y-32631D01*
X67375Y-32682D01*
X67195Y-32700D01*
X48205Y-32700D01*
X48025Y-32682D01*
X47856Y-32631D01*
X47700Y-32548D01*
X47564Y-32436D01*
X47452Y-32300D01*
X47369Y-32144D01*
X47318Y-31975D01*
X47300Y-31795D01*
X47300Y-29505D01*
X47318Y-29325D01*
X47369Y-29156D01*
X47452Y-29000D01*
X47564Y-28864D01*
X47700Y-28752D01*
X47856Y-28669D01*
X48025Y-28618D01*
X48205Y-28600D01*
X50795Y-28600D01*
X50820Y-28603D01*
X50838Y-28608D01*
X50854Y-28617D01*
X50870Y-28630D01*
X50883Y-28646D01*
X50892Y-28662D01*
X50897Y-28680D01*
X50905Y-28758D01*
X50922Y-28816D01*
X50951Y-28868D01*
X50988Y-28912D01*
X51032Y-28949D01*
X51084Y-28978D01*
X51142Y-28995D01*
X51195Y-29000D01*
X62855Y-29000D01*
X62898Y-28996D01*
X62945Y-28982D01*
X62989Y-28958D01*
X63027Y-28927D01*
X63058Y-28889D01*
X63082Y-28845D01*
X63096Y-28798D01*
X63102Y-28740D01*
X63104Y-28731D01*
X63108Y-28723D01*
X63115Y-28715D01*
X63123Y-28708D01*
X63131Y-28704D01*
X63140Y-28702D01*
X63155Y-28700D01*
X66581Y-28700D01*
X66761Y-28718D01*
X66929Y-28769D01*
X67085Y-28853D01*
X67226Y-28967D01*
X67834Y-29575D01*
X67928Y-29685D01*
X68002Y-29805D01*
X68056Y-29936D01*
X68089Y-30074D01*
X68100Y-30218D01*
X68100Y-31795D01*
X68100Y-31795D01*
G37*
G54D34*
X68100Y-31795D02*
X68082Y-31975D01*
X68031Y-32144D01*
X67948Y-32300D01*
X67836Y-32436D01*
X67700Y-32548D01*
X67544Y-32631D01*
X67375Y-32682D01*
X67195Y-32700D01*
X48205Y-32700D01*
X48025Y-32682D01*
X47856Y-32631D01*
X47700Y-32548D01*
X47564Y-32436D01*
X47452Y-32300D01*
X47369Y-32144D01*
X47318Y-31975D01*
X47300Y-31795D01*
X47300Y-29505D01*
X47318Y-29325D01*
X47369Y-29156D01*
X47452Y-29000D01*
X47564Y-28864D01*
X47700Y-28752D01*
X47856Y-28669D01*
X48025Y-28618D01*
X48205Y-28600D01*
X50795Y-28600D01*
X50820Y-28603D01*
X50838Y-28608D01*
X50854Y-28617D01*
X50870Y-28630D01*
X50883Y-28646D01*
X50892Y-28662D01*
X50897Y-28680D01*
X50905Y-28758D01*
X50922Y-28816D01*
X50951Y-28868D01*
X50988Y-28912D01*
X51032Y-28949D01*
X51084Y-28978D01*
X51142Y-28995D01*
X51195Y-29000D01*
X62855Y-29000D01*
X62898Y-28996D01*
X62945Y-28982D01*
X62989Y-28958D01*
X63027Y-28927D01*
X63058Y-28889D01*
X63082Y-28845D01*
X63096Y-28798D01*
X63102Y-28740D01*
X63104Y-28731D01*
X63108Y-28723D01*
X63115Y-28715D01*
X63123Y-28708D01*
X63131Y-28704D01*
X63140Y-28702D01*
X63155Y-28700D01*
X66581Y-28700D01*
X66761Y-28718D01*
X66929Y-28769D01*
X67085Y-28853D01*
X67226Y-28967D01*
X67834Y-29575D01*
X67928Y-29685D01*
X68002Y-29805D01*
X68056Y-29936D01*
X68089Y-30074D01*
X68100Y-30218D01*
X68100Y-31795D01*
G54D10*
G36*
X73400Y-45795D02*
X73382Y-45975D01*
X73331Y-46144D01*
X73248Y-46300D01*
X73136Y-46436D01*
X73000Y-46548D01*
X72844Y-46631D01*
X72675Y-46682D01*
X72495Y-46700D01*
X70728Y-46700D01*
X70726Y-46697D01*
X70389Y-46470D01*
X70015Y-46313D01*
X69617Y-46231D01*
X69211Y-46229D01*
X68813Y-46305D01*
X68436Y-46457D01*
X68097Y-46679D01*
X68075Y-46700D01*
X65928Y-46700D01*
X65926Y-46697D01*
X65589Y-46470D01*
X65215Y-46313D01*
X64817Y-46231D01*
X64532Y-46229D01*
X62591Y-44427D01*
X62488Y-44314D01*
X62407Y-44190D01*
X62349Y-44055D01*
X62312Y-43911D01*
X62300Y-43760D01*
X62300Y-37405D01*
X62318Y-37225D01*
X62369Y-37056D01*
X62452Y-36900D01*
X62564Y-36764D01*
X62700Y-36652D01*
X62856Y-36569D01*
X63025Y-36518D01*
X63205Y-36500D01*
X67395Y-36500D01*
X67575Y-36518D01*
X67744Y-36569D01*
X67900Y-36652D01*
X68036Y-36764D01*
X68148Y-36900D01*
X68231Y-37056D01*
X68282Y-37225D01*
X68300Y-37405D01*
X68300Y-40564D01*
X68315Y-40741D01*
X68359Y-40919D01*
X68433Y-41085D01*
X68533Y-41238D01*
X68653Y-41368D01*
X69249Y-41914D01*
X69408Y-42034D01*
X69590Y-42126D01*
X69787Y-42182D01*
X69984Y-42200D01*
X72495Y-42200D01*
X72675Y-42218D01*
X72844Y-42269D01*
X73000Y-42352D01*
X73136Y-42464D01*
X73248Y-42600D01*
X73331Y-42756D01*
X73382Y-42925D01*
X73400Y-43105D01*
X73400Y-45795D01*
X73400Y-45795D01*
G37*
G54D34*
X73400Y-45795D02*
X73382Y-45975D01*
X73331Y-46144D01*
X73248Y-46300D01*
X73136Y-46436D01*
X73000Y-46548D01*
X72844Y-46631D01*
X72675Y-46682D01*
X72495Y-46700D01*
X70728Y-46700D01*
X70726Y-46697D01*
X70389Y-46470D01*
X70015Y-46313D01*
X69617Y-46231D01*
X69211Y-46229D01*
X68813Y-46305D01*
X68436Y-46457D01*
X68097Y-46679D01*
X68075Y-46700D01*
X65928Y-46700D01*
X65926Y-46697D01*
X65589Y-46470D01*
X65215Y-46313D01*
X64817Y-46231D01*
X64532Y-46229D01*
X62591Y-44427D01*
X62488Y-44314D01*
X62407Y-44190D01*
X62349Y-44055D01*
X62312Y-43911D01*
X62300Y-43760D01*
X62300Y-37405D01*
X62318Y-37225D01*
X62369Y-37056D01*
X62452Y-36900D01*
X62564Y-36764D01*
X62700Y-36652D01*
X62856Y-36569D01*
X63025Y-36518D01*
X63205Y-36500D01*
X67395Y-36500D01*
X67575Y-36518D01*
X67744Y-36569D01*
X67900Y-36652D01*
X68036Y-36764D01*
X68148Y-36900D01*
X68231Y-37056D01*
X68282Y-37225D01*
X68300Y-37405D01*
X68300Y-40564D01*
X68315Y-40741D01*
X68359Y-40919D01*
X68433Y-41085D01*
X68533Y-41238D01*
X68653Y-41368D01*
X69249Y-41914D01*
X69408Y-42034D01*
X69590Y-42126D01*
X69787Y-42182D01*
X69984Y-42200D01*
X72495Y-42200D01*
X72675Y-42218D01*
X72844Y-42269D01*
X73000Y-42352D01*
X73136Y-42464D01*
X73248Y-42600D01*
X73331Y-42756D01*
X73382Y-42925D01*
X73400Y-43105D01*
X73400Y-45795D01*
G54D10*
G36*
X76278Y-51357D02*
X76260Y-51537D01*
X76209Y-51706D01*
X76126Y-51862D01*
X76062Y-51939D01*
X76062Y-44249D01*
X75964Y-43756D01*
X75800Y-43357D01*
X75773Y-43292D01*
X75495Y-42873D01*
X75141Y-42517D01*
X74725Y-42236D01*
X74261Y-42041D01*
X73825Y-41951D01*
X73825Y-41500D01*
X73821Y-41461D01*
X73820Y-41441D01*
X73819Y-41437D01*
X73816Y-41429D01*
X73802Y-41379D01*
X73800Y-41376D01*
X73773Y-41323D01*
X73771Y-41321D01*
X73771Y-41320D01*
X73733Y-41274D01*
X73731Y-41271D01*
X73730Y-41270D01*
X73230Y-40770D01*
X73195Y-40742D01*
X73184Y-40732D01*
X73182Y-40731D01*
X73181Y-40730D01*
X73168Y-40723D01*
X73128Y-40701D01*
X73124Y-40700D01*
X73068Y-40682D01*
X73066Y-40681D01*
X73064Y-40681D01*
X73029Y-40677D01*
X73005Y-40675D01*
X73001Y-40675D01*
X73000Y-40675D01*
X71334Y-40675D01*
X70451Y-39791D01*
X70451Y-34781D01*
X70475Y-34771D01*
X70500Y-34754D01*
X70524Y-34771D01*
X70560Y-34786D01*
X70599Y-34794D01*
X70638Y-34794D01*
X71149Y-34794D01*
X71187Y-34786D01*
X71200Y-34780D01*
X71200Y-36362D01*
X71046Y-36721D01*
X70942Y-37213D01*
X70935Y-37715D01*
X71025Y-38209D01*
X71210Y-38677D01*
X71482Y-39099D01*
X71831Y-39460D01*
X72244Y-39747D01*
X72704Y-39948D01*
X73195Y-40056D01*
X73697Y-40067D01*
X74192Y-39979D01*
X74660Y-39798D01*
X75085Y-39529D01*
X75449Y-39182D01*
X75738Y-38772D01*
X75800Y-38633D01*
X75943Y-38313D01*
X76054Y-37823D01*
X76062Y-37249D01*
X75964Y-36756D01*
X75800Y-36357D01*
X75800Y-34710D01*
X75787Y-34542D01*
X75746Y-34374D01*
X75680Y-34215D01*
X75600Y-34083D01*
X75590Y-34067D01*
X75480Y-33939D01*
X75260Y-33719D01*
X75097Y-33585D01*
X74907Y-33483D01*
X74737Y-33431D01*
X74737Y-33083D01*
X74729Y-33045D01*
X74714Y-33009D01*
X74693Y-32976D01*
X74665Y-32949D01*
X74633Y-32927D01*
X74597Y-32912D01*
X74558Y-32904D01*
X74519Y-32904D01*
X74242Y-32904D01*
X74204Y-32912D01*
X74168Y-32927D01*
X74135Y-32948D01*
X74108Y-32976D01*
X74086Y-33008D01*
X74071Y-33044D01*
X74063Y-33083D01*
X74063Y-33122D01*
X74063Y-33400D01*
X72937Y-33400D01*
X72937Y-33083D01*
X72930Y-33050D01*
X73397Y-33050D01*
X73400Y-33050D01*
X73446Y-33045D01*
X73449Y-33045D01*
X73478Y-33035D01*
X73493Y-33032D01*
X73494Y-33031D01*
X73495Y-33031D01*
X73496Y-33030D01*
X73536Y-33010D01*
X73538Y-33008D01*
X73575Y-32979D01*
X73576Y-32977D01*
X73577Y-32977D01*
X73859Y-32694D01*
X73867Y-32696D01*
X73906Y-32696D01*
X74183Y-32696D01*
X74221Y-32688D01*
X74257Y-32673D01*
X74290Y-32652D01*
X74317Y-32624D01*
X74339Y-32592D01*
X74354Y-32556D01*
X74362Y-32517D01*
X74362Y-32478D01*
X74362Y-32300D01*
X74438Y-32300D01*
X74438Y-32517D01*
X74446Y-32555D01*
X74461Y-32591D01*
X74482Y-32624D01*
X74510Y-32651D01*
X74542Y-32673D01*
X74578Y-32688D01*
X74617Y-32696D01*
X74656Y-32696D01*
X74933Y-32696D01*
X74971Y-32688D01*
X75007Y-32673D01*
X75040Y-32652D01*
X75067Y-32624D01*
X75089Y-32592D01*
X75104Y-32556D01*
X75112Y-32517D01*
X75112Y-32478D01*
X75112Y-32114D01*
X75278Y-31978D01*
X75414Y-31812D01*
X75517Y-31622D01*
X75580Y-31415D01*
X75600Y-31205D01*
X75600Y-21795D01*
X75580Y-21585D01*
X75517Y-21378D01*
X75414Y-21188D01*
X75278Y-21022D01*
X75112Y-20886D01*
X74922Y-20783D01*
X74715Y-20720D01*
X74505Y-20700D01*
X47995Y-20700D01*
X47785Y-20720D01*
X47578Y-20783D01*
X47388Y-20886D01*
X47222Y-21022D01*
X47086Y-21188D01*
X46983Y-21378D01*
X46920Y-21585D01*
X46900Y-21795D01*
X46900Y-25705D01*
X46920Y-25915D01*
X46983Y-26122D01*
X47086Y-26312D01*
X47222Y-26478D01*
X47388Y-26614D01*
X47578Y-26717D01*
X47785Y-26780D01*
X47995Y-26800D01*
X48663Y-26800D01*
X48663Y-27244D01*
X48640Y-27210D01*
X48609Y-27179D01*
X48603Y-27171D01*
X48594Y-27164D01*
X48565Y-27134D01*
X48531Y-27111D01*
X48521Y-27103D01*
X48508Y-27096D01*
X48475Y-27074D01*
X48436Y-27057D01*
X48426Y-27052D01*
X48415Y-27048D01*
X48376Y-27032D01*
X48335Y-27023D01*
X48324Y-27020D01*
X48312Y-27018D01*
X48270Y-27010D01*
X48226Y-27010D01*
X48217Y-27009D01*
X48206Y-27010D01*
X48163Y-27010D01*
X48120Y-27018D01*
X48110Y-27019D01*
X48100Y-27021D01*
X48057Y-27030D01*
X48016Y-27046D01*
X48007Y-27049D01*
X47999Y-27053D01*
X47957Y-27070D01*
X47915Y-27096D01*
X47912Y-27099D01*
X47908Y-27101D01*
X47867Y-27129D01*
X47835Y-27159D01*
X47828Y-27166D01*
X47820Y-27174D01*
X47790Y-27205D01*
X47767Y-27237D01*
X47759Y-27248D01*
X47751Y-27261D01*
X47730Y-27293D01*
X47714Y-27327D01*
X47707Y-27342D01*
X47702Y-27355D01*
X47687Y-27392D01*
X47678Y-27435D01*
X47675Y-27445D01*
X47673Y-27455D01*
X47665Y-27498D01*
X47664Y-27540D01*
X47663Y-27551D01*
X47663Y-27559D01*
X47663Y-27605D01*
X47663Y-28257D01*
X47578Y-28283D01*
X47388Y-28386D01*
X47222Y-28522D01*
X47086Y-28688D01*
X46983Y-28878D01*
X46920Y-29085D01*
X46900Y-29295D01*
X46900Y-32005D01*
X46920Y-32215D01*
X46983Y-32422D01*
X47086Y-32612D01*
X47222Y-32778D01*
X47388Y-32914D01*
X47505Y-32977D01*
X47444Y-32990D01*
X47376Y-33017D01*
X47314Y-33057D01*
X47262Y-33109D01*
X47221Y-33169D01*
X47192Y-33237D01*
X47176Y-33308D01*
X47176Y-33382D01*
X47189Y-33454D01*
X47216Y-33522D01*
X47225Y-33535D01*
X47225Y-35463D01*
X47221Y-35469D01*
X47192Y-35537D01*
X47176Y-35608D01*
X47176Y-35682D01*
X47189Y-35754D01*
X47216Y-35822D01*
X47256Y-35884D01*
X47307Y-35936D01*
X47367Y-35978D01*
X47434Y-36008D01*
X47506Y-36023D01*
X47579Y-36025D01*
X47651Y-36012D01*
X47720Y-35985D01*
X47782Y-35946D01*
X47835Y-35895D01*
X47877Y-35835D01*
X47907Y-35768D01*
X47923Y-35697D01*
X47924Y-35613D01*
X47910Y-35541D01*
X47882Y-35473D01*
X47875Y-35462D01*
X47875Y-33537D01*
X47877Y-33535D01*
X47907Y-33468D01*
X47923Y-33397D01*
X47924Y-33313D01*
X47910Y-33241D01*
X47882Y-33173D01*
X47841Y-33112D01*
X47811Y-33082D01*
X47995Y-33100D01*
X67405Y-33100D01*
X67615Y-33080D01*
X67822Y-33017D01*
X68012Y-32914D01*
X68178Y-32778D01*
X68314Y-32612D01*
X68417Y-32422D01*
X68480Y-32215D01*
X68500Y-32005D01*
X68500Y-30010D01*
X68487Y-29842D01*
X68446Y-29674D01*
X68380Y-29515D01*
X68290Y-29367D01*
X68180Y-29239D01*
X67560Y-28619D01*
X67397Y-28485D01*
X67207Y-28383D01*
X67001Y-28320D01*
X66791Y-28300D01*
X64550Y-28300D01*
X64550Y-27923D01*
X64562Y-27936D01*
X64571Y-27947D01*
X64580Y-27954D01*
X64604Y-27979D01*
X64647Y-28009D01*
X64654Y-28015D01*
X64658Y-28017D01*
X64692Y-28041D01*
X64746Y-28064D01*
X64749Y-28066D01*
X64751Y-28066D01*
X64791Y-28084D01*
X64841Y-28095D01*
X64851Y-28098D01*
X64858Y-28098D01*
X64896Y-28107D01*
X64948Y-28107D01*
X64958Y-28109D01*
X64965Y-28108D01*
X65003Y-28109D01*
X65053Y-28100D01*
X65065Y-28099D01*
X65073Y-28096D01*
X65110Y-28090D01*
X65151Y-28073D01*
X65168Y-28069D01*
X65179Y-28062D01*
X65210Y-28051D01*
X65251Y-28025D01*
X65263Y-28019D01*
X65269Y-28013D01*
X65301Y-27994D01*
X65338Y-27957D01*
X65347Y-27951D01*
X65352Y-27944D01*
X65379Y-27919D01*
X65409Y-27875D01*
X65412Y-27872D01*
X65412Y-27929D01*
X65420Y-27967D01*
X65435Y-28003D01*
X65456Y-28036D01*
X65484Y-28063D01*
X65516Y-28085D01*
X65552Y-28100D01*
X65591Y-28108D01*
X65630Y-28108D01*
X66331Y-28108D01*
X66369Y-28100D01*
X66405Y-28085D01*
X66438Y-28064D01*
X66465Y-28036D01*
X66487Y-28004D01*
X66502Y-27968D01*
X66510Y-27929D01*
X66510Y-27890D01*
X66510Y-27189D01*
X66502Y-27151D01*
X66487Y-27115D01*
X66466Y-27082D01*
X66438Y-27055D01*
X66406Y-27033D01*
X66370Y-27018D01*
X66331Y-27010D01*
X66292Y-27010D01*
X65591Y-27010D01*
X65553Y-27018D01*
X65550Y-27019D01*
X65550Y-26800D01*
X66759Y-26800D01*
X66911Y-26813D01*
X67055Y-26849D01*
X67190Y-26908D01*
X67314Y-26988D01*
X67426Y-27092D01*
X69357Y-29176D01*
X69462Y-29313D01*
X69538Y-29464D01*
X69584Y-29625D01*
X69600Y-29797D01*
X69600Y-31205D01*
X69620Y-31415D01*
X69683Y-31622D01*
X69786Y-31812D01*
X69922Y-31978D01*
X70088Y-32114D01*
X70278Y-32217D01*
X70485Y-32280D01*
X70563Y-32287D01*
X70563Y-32517D01*
X70571Y-32555D01*
X70586Y-32591D01*
X70607Y-32624D01*
X70635Y-32651D01*
X70667Y-32673D01*
X70703Y-32688D01*
X70742Y-32696D01*
X70781Y-32696D01*
X71058Y-32696D01*
X71062Y-32695D01*
X71046Y-32724D01*
X71045Y-32727D01*
X71044Y-32727D01*
X71044Y-32729D01*
X71040Y-32741D01*
X71030Y-32773D01*
X71025Y-32822D01*
X71025Y-32824D01*
X71025Y-32825D01*
X71025Y-32938D01*
X71010Y-32948D01*
X70983Y-32976D01*
X70961Y-33008D01*
X70946Y-33044D01*
X70938Y-33083D01*
X70938Y-33122D01*
X70938Y-33283D01*
X70862Y-33359D01*
X70862Y-33083D01*
X70854Y-33045D01*
X70839Y-33009D01*
X70818Y-32976D01*
X70790Y-32949D01*
X70758Y-32927D01*
X70722Y-32912D01*
X70683Y-32904D01*
X70644Y-32904D01*
X70367Y-32904D01*
X70329Y-32912D01*
X70293Y-32927D01*
X70260Y-32948D01*
X70233Y-32976D01*
X70211Y-33008D01*
X70196Y-33044D01*
X70188Y-33083D01*
X70188Y-33122D01*
X70188Y-33517D01*
X70196Y-33555D01*
X70211Y-33591D01*
X70232Y-33624D01*
X70260Y-33651D01*
X70292Y-33673D01*
X70328Y-33688D01*
X70367Y-33696D01*
X70406Y-33696D01*
X70624Y-33696D01*
X70624Y-33698D01*
X70624Y-33700D01*
X70624Y-33701D01*
X70624Y-33806D01*
X70599Y-33806D01*
X70561Y-33814D01*
X70525Y-33829D01*
X70499Y-33845D01*
X70476Y-33829D01*
X70440Y-33814D01*
X70401Y-33806D01*
X70362Y-33806D01*
X69851Y-33806D01*
X69813Y-33814D01*
X69777Y-33829D01*
X69744Y-33850D01*
X69717Y-33878D01*
X69695Y-33910D01*
X69680Y-33946D01*
X69672Y-33985D01*
X69672Y-34024D01*
X69672Y-34615D01*
X69680Y-34653D01*
X69695Y-34689D01*
X69716Y-34722D01*
X69744Y-34749D01*
X69776Y-34771D01*
X69801Y-34781D01*
X69801Y-39922D01*
X69801Y-39926D01*
X69802Y-39946D01*
X69806Y-39985D01*
X69806Y-39988D01*
X69807Y-39989D01*
X69809Y-39996D01*
X69824Y-40047D01*
X69826Y-40050D01*
X69853Y-40103D01*
X69854Y-40104D01*
X69855Y-40106D01*
X69893Y-40152D01*
X69895Y-40155D01*
X69896Y-40156D01*
X70968Y-41227D01*
X70970Y-41229D01*
X71016Y-41268D01*
X71018Y-41270D01*
X71037Y-41280D01*
X71072Y-41299D01*
X71075Y-41299D01*
X71132Y-41318D01*
X71135Y-41318D01*
X71195Y-41325D01*
X71198Y-41325D01*
X71200Y-41325D01*
X72865Y-41325D01*
X73175Y-41635D01*
X73175Y-41868D01*
X73015Y-41820D01*
X72805Y-41800D01*
X72300Y-41800D01*
X70092Y-41800D01*
X69921Y-41784D01*
X69762Y-41739D01*
X69614Y-41666D01*
X69478Y-41563D01*
X68997Y-41127D01*
X68893Y-41014D01*
X68810Y-40889D01*
X68750Y-40752D01*
X68713Y-40606D01*
X68700Y-40454D01*
X68700Y-37195D01*
X68680Y-36985D01*
X68617Y-36778D01*
X68514Y-36588D01*
X68378Y-36422D01*
X68212Y-36286D01*
X68022Y-36183D01*
X67815Y-36120D01*
X67605Y-36100D01*
X62995Y-36100D01*
X62785Y-36120D01*
X62578Y-36183D01*
X62388Y-36286D01*
X62222Y-36422D01*
X62086Y-36588D01*
X61983Y-36778D01*
X61920Y-36985D01*
X61900Y-37195D01*
X61900Y-42675D01*
X61873Y-42623D01*
X61871Y-42621D01*
X61871Y-42620D01*
X61851Y-42595D01*
X61833Y-42573D01*
X61832Y-42572D01*
X61831Y-42571D01*
X61829Y-42570D01*
X61825Y-42566D01*
X60625Y-41365D01*
X60625Y-36500D01*
X60619Y-36440D01*
X60619Y-36437D01*
X60611Y-36411D01*
X60602Y-36379D01*
X60600Y-36376D01*
X60573Y-36323D01*
X60571Y-36321D01*
X60571Y-36320D01*
X60551Y-36295D01*
X60533Y-36273D01*
X60531Y-36271D01*
X60530Y-36270D01*
X59730Y-35470D01*
X59695Y-35442D01*
X59684Y-35432D01*
X59682Y-35431D01*
X59681Y-35430D01*
X59668Y-35423D01*
X59628Y-35401D01*
X59624Y-35400D01*
X59568Y-35382D01*
X59566Y-35381D01*
X59564Y-35381D01*
X59529Y-35377D01*
X59505Y-35375D01*
X59501Y-35375D01*
X59500Y-35375D01*
X56500Y-35375D01*
X56437Y-35381D01*
X56411Y-35388D01*
X56379Y-35398D01*
X56323Y-35427D01*
X56321Y-35428D01*
X56320Y-35429D01*
X56271Y-35469D01*
X56270Y-35469D01*
X56270Y-35470D01*
X55459Y-36280D01*
X55381Y-36295D01*
X55305Y-36326D01*
X55236Y-36371D01*
X55231Y-36375D01*
X48599Y-36375D01*
X48591Y-36362D01*
X48539Y-36310D01*
X48478Y-36269D01*
X48411Y-36241D01*
X48339Y-36226D01*
X48266Y-36226D01*
X48194Y-36240D01*
X48126Y-36267D01*
X48064Y-36307D01*
X48012Y-36359D01*
X47971Y-36419D01*
X47942Y-36487D01*
X47926Y-36558D01*
X47926Y-36632D01*
X47939Y-36704D01*
X47966Y-36772D01*
X48006Y-36834D01*
X48057Y-36886D01*
X48117Y-36928D01*
X48184Y-36958D01*
X48210Y-36963D01*
X48211Y-36963D01*
X48216Y-36968D01*
X48217Y-36968D01*
X48219Y-36970D01*
X48238Y-36980D01*
X48272Y-36999D01*
X48274Y-36999D01*
X48275Y-37000D01*
X48332Y-37018D01*
X48335Y-37019D01*
X48377Y-37023D01*
X48395Y-37025D01*
X48398Y-37025D01*
X48400Y-37025D01*
X55231Y-37025D01*
X55294Y-37068D01*
X55369Y-37101D01*
X55450Y-37119D01*
X55532Y-37121D01*
X55613Y-37106D01*
X55690Y-37077D01*
X55760Y-37033D01*
X55819Y-36976D01*
X55867Y-36909D01*
X55900Y-36833D01*
X55919Y-36753D01*
X55919Y-36740D01*
X56635Y-36025D01*
X59365Y-36025D01*
X59975Y-36635D01*
X59975Y-41496D01*
X59975Y-41500D01*
X59976Y-41520D01*
X59980Y-41559D01*
X59980Y-41562D01*
X59981Y-41563D01*
X59983Y-41570D01*
X59998Y-41621D01*
X60000Y-41624D01*
X60027Y-41677D01*
X60028Y-41678D01*
X60029Y-41680D01*
X60067Y-41726D01*
X60069Y-41729D01*
X60070Y-41730D01*
X61275Y-42934D01*
X61275Y-44596D01*
X61275Y-44600D01*
X61276Y-44620D01*
X61280Y-44659D01*
X61280Y-44662D01*
X61281Y-44663D01*
X61283Y-44670D01*
X61298Y-44721D01*
X61300Y-44724D01*
X61327Y-44777D01*
X61328Y-44778D01*
X61329Y-44780D01*
X61367Y-44826D01*
X61369Y-44829D01*
X61370Y-44830D01*
X63257Y-46717D01*
X63007Y-46963D01*
X62777Y-47298D01*
X62617Y-47671D01*
X62533Y-48068D01*
X62527Y-48474D01*
X62601Y-48873D01*
X62750Y-49251D01*
X62970Y-49592D01*
X63252Y-49884D01*
X63585Y-50116D01*
X63957Y-50278D01*
X64354Y-50365D01*
X64760Y-50374D01*
X65159Y-50303D01*
X65538Y-50157D01*
X65881Y-49939D01*
X66175Y-49659D01*
X66409Y-49327D01*
X66574Y-48956D01*
X66664Y-48561D01*
X66670Y-48097D01*
X66591Y-47699D01*
X66436Y-47324D01*
X66354Y-47200D01*
X72805Y-47200D01*
X73015Y-47180D01*
X73175Y-47131D01*
X73175Y-47474D01*
X73147Y-47480D01*
X73111Y-47495D01*
X73078Y-47516D01*
X73051Y-47544D01*
X73029Y-47576D01*
X73014Y-47612D01*
X73006Y-47651D01*
X73006Y-47690D01*
X73006Y-48201D01*
X73014Y-48239D01*
X73029Y-48275D01*
X73050Y-48308D01*
X73078Y-48335D01*
X73110Y-48357D01*
X73146Y-48372D01*
X73185Y-48380D01*
X73224Y-48380D01*
X73815Y-48380D01*
X73853Y-48372D01*
X73889Y-48357D01*
X73900Y-48350D01*
X73922Y-48336D01*
X73949Y-48308D01*
X73971Y-48276D01*
X73986Y-48240D01*
X73994Y-48201D01*
X73994Y-48162D01*
X73994Y-47651D01*
X73986Y-47613D01*
X73971Y-47577D01*
X73950Y-47544D01*
X73922Y-47517D01*
X73900Y-47501D01*
X73890Y-47495D01*
X73854Y-47480D01*
X73825Y-47474D01*
X73825Y-47044D01*
X73900Y-47030D01*
X74192Y-46979D01*
X74660Y-46798D01*
X75085Y-46529D01*
X75449Y-46182D01*
X75738Y-45772D01*
X75800Y-45633D01*
X75943Y-45313D01*
X76054Y-44823D01*
X76062Y-44249D01*
X76062Y-51939D01*
X76014Y-51998D01*
X75878Y-52110D01*
X75800Y-52151D01*
X75722Y-52193D01*
X75553Y-52244D01*
X75373Y-52262D01*
X73900Y-52262D01*
X65394Y-52262D01*
X59062Y-52262D01*
X59062Y-44749D01*
X58964Y-44256D01*
X58773Y-43792D01*
X58767Y-43782D01*
X58767Y-39026D01*
X58741Y-38893D01*
X58689Y-38767D01*
X58614Y-38654D01*
X58518Y-38558D01*
X58406Y-38482D01*
X58280Y-38430D01*
X58148Y-38402D01*
X58012Y-38402D01*
X57879Y-38427D01*
X57753Y-38478D01*
X57639Y-38552D01*
X57542Y-38647D01*
X57466Y-38759D01*
X57412Y-38884D01*
X57384Y-39017D01*
X57382Y-39152D01*
X57407Y-39286D01*
X57457Y-39412D01*
X57530Y-39526D01*
X57624Y-39624D01*
X57736Y-39701D01*
X57860Y-39755D01*
X57993Y-39784D01*
X58128Y-39787D01*
X58262Y-39764D01*
X58389Y-39715D01*
X58503Y-39642D01*
X58601Y-39548D01*
X58680Y-39437D01*
X58735Y-39313D01*
X58765Y-39181D01*
X58767Y-39026D01*
X58767Y-43782D01*
X58495Y-43373D01*
X58141Y-43017D01*
X57725Y-42736D01*
X57261Y-42541D01*
X57192Y-42526D01*
X57192Y-39026D01*
X57166Y-38893D01*
X57114Y-38767D01*
X57039Y-38654D01*
X56943Y-38558D01*
X56920Y-38542D01*
X56920Y-37659D01*
X56904Y-37578D01*
X56873Y-37502D01*
X56827Y-37433D01*
X56769Y-37375D01*
X56701Y-37329D01*
X56625Y-37297D01*
X56544Y-37280D01*
X56462Y-37280D01*
X56381Y-37295D01*
X56305Y-37326D01*
X56236Y-37371D01*
X56231Y-37375D01*
X52300Y-37375D01*
X52237Y-37381D01*
X52183Y-37397D01*
X52179Y-37399D01*
X52178Y-37399D01*
X52176Y-37400D01*
X52120Y-37429D01*
X52083Y-37459D01*
X52073Y-37467D01*
X52072Y-37467D01*
X52071Y-37469D01*
X52066Y-37474D01*
X51065Y-38475D01*
X50174Y-38475D01*
X50174Y-37463D01*
X50160Y-37391D01*
X50132Y-37323D01*
X50091Y-37262D01*
X50039Y-37210D01*
X49978Y-37169D01*
X49911Y-37141D01*
X49839Y-37126D01*
X49766Y-37126D01*
X49694Y-37140D01*
X49626Y-37167D01*
X49613Y-37175D01*
X48486Y-37175D01*
X48478Y-37169D01*
X48411Y-37141D01*
X48339Y-37126D01*
X48266Y-37126D01*
X48194Y-37140D01*
X48126Y-37167D01*
X48064Y-37207D01*
X48012Y-37259D01*
X47971Y-37319D01*
X47942Y-37387D01*
X47926Y-37458D01*
X47926Y-37532D01*
X47939Y-37604D01*
X47966Y-37672D01*
X48006Y-37734D01*
X48057Y-37786D01*
X48117Y-37828D01*
X48184Y-37858D01*
X48256Y-37873D01*
X48329Y-37875D01*
X48401Y-37862D01*
X48470Y-37835D01*
X48485Y-37825D01*
X49612Y-37825D01*
X49617Y-37828D01*
X49684Y-37858D01*
X49756Y-37873D01*
X49829Y-37875D01*
X49901Y-37862D01*
X49970Y-37835D01*
X50032Y-37796D01*
X50085Y-37745D01*
X50127Y-37685D01*
X50157Y-37618D01*
X50173Y-37547D01*
X50174Y-37463D01*
X50174Y-38475D01*
X48486Y-38475D01*
X48478Y-38469D01*
X48411Y-38441D01*
X48339Y-38426D01*
X48266Y-38426D01*
X48194Y-38440D01*
X48126Y-38467D01*
X48064Y-38507D01*
X48012Y-38559D01*
X47971Y-38619D01*
X47942Y-38687D01*
X47926Y-38758D01*
X47926Y-38832D01*
X47939Y-38904D01*
X47966Y-38972D01*
X48006Y-39034D01*
X48057Y-39086D01*
X48117Y-39128D01*
X48184Y-39158D01*
X48256Y-39173D01*
X48329Y-39175D01*
X48401Y-39162D01*
X48470Y-39135D01*
X48485Y-39125D01*
X51196Y-39125D01*
X51200Y-39125D01*
X51220Y-39123D01*
X51259Y-39120D01*
X51262Y-39119D01*
X51263Y-39119D01*
X51270Y-39116D01*
X51321Y-39102D01*
X51324Y-39100D01*
X51377Y-39073D01*
X51378Y-39071D01*
X51380Y-39071D01*
X51426Y-39033D01*
X51429Y-39031D01*
X51429Y-39030D01*
X51430Y-39030D01*
X52434Y-38025D01*
X56231Y-38025D01*
X56294Y-38068D01*
X56369Y-38101D01*
X56450Y-38119D01*
X56532Y-38121D01*
X56613Y-38106D01*
X56690Y-38077D01*
X56760Y-38033D01*
X56819Y-37976D01*
X56867Y-37909D01*
X56900Y-37833D01*
X56919Y-37753D01*
X56920Y-37659D01*
X56920Y-38542D01*
X56831Y-38482D01*
X56705Y-38430D01*
X56573Y-38402D01*
X56437Y-38402D01*
X56304Y-38427D01*
X56178Y-38478D01*
X56064Y-38552D01*
X55967Y-38647D01*
X55891Y-38759D01*
X55837Y-38884D01*
X55809Y-39017D01*
X55807Y-39152D01*
X55832Y-39286D01*
X55882Y-39412D01*
X55955Y-39526D01*
X56049Y-39624D01*
X56161Y-39701D01*
X56285Y-39755D01*
X56418Y-39784D01*
X56553Y-39787D01*
X56687Y-39764D01*
X56814Y-39715D01*
X56928Y-39642D01*
X57026Y-39548D01*
X57105Y-39437D01*
X57160Y-39313D01*
X57190Y-39181D01*
X57192Y-39026D01*
X57192Y-42526D01*
X56769Y-42440D01*
X56267Y-42436D01*
X55773Y-42530D01*
X55308Y-42719D01*
X54887Y-42994D01*
X54528Y-43345D01*
X54244Y-43760D01*
X54046Y-44221D01*
X53942Y-44713D01*
X53935Y-45215D01*
X54025Y-45709D01*
X54210Y-46177D01*
X54482Y-46599D01*
X54831Y-46960D01*
X55244Y-47247D01*
X55704Y-47448D01*
X56195Y-47556D01*
X56697Y-47567D01*
X57192Y-47479D01*
X57660Y-47298D01*
X58085Y-47029D01*
X58449Y-46682D01*
X58738Y-46272D01*
X58943Y-45813D01*
X59054Y-45323D01*
X59062Y-44749D01*
X59062Y-52262D01*
X51748Y-52262D01*
X51748Y-40834D01*
X51703Y-40606D01*
X51615Y-40392D01*
X51486Y-40199D01*
X51323Y-40034D01*
X51130Y-39904D01*
X50916Y-39814D01*
X50689Y-39768D01*
X50457Y-39766D01*
X50229Y-39810D01*
X50014Y-39897D01*
X49820Y-40024D01*
X49654Y-40186D01*
X49523Y-40377D01*
X49432Y-40591D01*
X49384Y-40818D01*
X49380Y-41049D01*
X49422Y-41278D01*
X49508Y-41493D01*
X49633Y-41688D01*
X49795Y-41855D01*
X49985Y-41988D01*
X50198Y-42080D01*
X50424Y-42130D01*
X50656Y-42135D01*
X50885Y-42095D01*
X51101Y-42011D01*
X51297Y-41887D01*
X51465Y-41727D01*
X51599Y-41537D01*
X51693Y-41325D01*
X51744Y-41099D01*
X51748Y-40834D01*
X51748Y-52262D01*
X48147Y-52262D01*
X48147Y-50863D01*
X48113Y-50692D01*
X48047Y-50531D01*
X47950Y-50386D01*
X47828Y-50262D01*
X47683Y-50164D01*
X47522Y-50097D01*
X47352Y-50062D01*
X47177Y-50060D01*
X47006Y-50093D01*
X46844Y-50158D01*
X46698Y-50254D01*
X46574Y-50376D01*
X46475Y-50520D01*
X46407Y-50680D01*
X46370Y-50850D01*
X46369Y-50875D01*
X46356Y-50807D01*
X46319Y-50717D01*
X46266Y-50636D01*
X46197Y-50567D01*
X46117Y-50513D01*
X46028Y-50475D01*
X45933Y-50455D01*
X45835Y-50455D01*
X45740Y-50473D01*
X45650Y-50509D01*
X45569Y-50562D01*
X45499Y-50630D01*
X45444Y-50710D01*
X45406Y-50799D01*
X45386Y-50894D01*
X45384Y-50991D01*
X45402Y-51087D01*
X45437Y-51177D01*
X45490Y-51258D01*
X45557Y-51328D01*
X45637Y-51384D01*
X45726Y-51423D01*
X45821Y-51444D01*
X45918Y-51446D01*
X46013Y-51429D01*
X46104Y-51394D01*
X46186Y-51342D01*
X46256Y-51275D01*
X46312Y-51196D01*
X46352Y-51107D01*
X46369Y-51030D01*
X46399Y-51196D01*
X46463Y-51358D01*
X46558Y-51505D01*
X46679Y-51630D01*
X46822Y-51730D01*
X46982Y-51799D01*
X47152Y-51837D01*
X47326Y-51841D01*
X47498Y-51810D01*
X47661Y-51747D01*
X47808Y-51654D01*
X47934Y-51534D01*
X48035Y-51391D01*
X48106Y-51232D01*
X48144Y-51062D01*
X48147Y-50863D01*
X48147Y-52262D01*
X48000Y-52262D01*
X45115Y-52262D01*
X45115Y-50902D01*
X45096Y-50807D01*
X45059Y-50717D01*
X45006Y-50636D01*
X44937Y-50567D01*
X44857Y-50513D01*
X44768Y-50475D01*
X44673Y-50455D01*
X44575Y-50455D01*
X44480Y-50473D01*
X44390Y-50509D01*
X44309Y-50562D01*
X44239Y-50630D01*
X44184Y-50710D01*
X44146Y-50799D01*
X44131Y-50863D01*
X44097Y-50692D01*
X44031Y-50531D01*
X43934Y-50386D01*
X43812Y-50262D01*
X43667Y-50164D01*
X43506Y-50097D01*
X43336Y-50062D01*
X43315Y-50061D01*
X43315Y-24924D01*
X43240Y-24544D01*
X43092Y-24186D01*
X42877Y-23863D01*
X42604Y-23588D01*
X42283Y-23371D01*
X41926Y-23221D01*
X41546Y-23143D01*
X41159Y-23141D01*
X40778Y-23213D01*
X40419Y-23359D01*
X40095Y-23571D01*
X39818Y-23842D01*
X39599Y-24162D01*
X39446Y-24518D01*
X39366Y-24897D01*
X39360Y-25284D01*
X39430Y-25666D01*
X39573Y-26026D01*
X39783Y-26351D01*
X40052Y-26630D01*
X40371Y-26851D01*
X40726Y-27006D01*
X41104Y-27090D01*
X41492Y-27098D01*
X41873Y-27030D01*
X42234Y-26890D01*
X42562Y-26682D01*
X42842Y-26415D01*
X43066Y-26099D01*
X43223Y-25744D01*
X43309Y-25367D01*
X43315Y-24924D01*
X43315Y-50061D01*
X43161Y-50060D01*
X42990Y-50093D01*
X42828Y-50158D01*
X42682Y-50254D01*
X42558Y-50376D01*
X42459Y-50520D01*
X42391Y-50680D01*
X42354Y-50850D01*
X42352Y-51025D01*
X42383Y-51196D01*
X42447Y-51358D01*
X42542Y-51505D01*
X42663Y-51630D01*
X42806Y-51730D01*
X42966Y-51799D01*
X43136Y-51837D01*
X43310Y-51841D01*
X43482Y-51810D01*
X43645Y-51747D01*
X43792Y-51654D01*
X43918Y-51534D01*
X44019Y-51391D01*
X44090Y-51232D01*
X44128Y-51062D01*
X44128Y-51016D01*
X44142Y-51087D01*
X44177Y-51177D01*
X44230Y-51258D01*
X44297Y-51328D01*
X44377Y-51384D01*
X44466Y-51423D01*
X44561Y-51444D01*
X44658Y-51446D01*
X44753Y-51429D01*
X44844Y-51394D01*
X44926Y-51342D01*
X44996Y-51275D01*
X45052Y-51196D01*
X45092Y-51107D01*
X45113Y-51013D01*
X45115Y-50902D01*
X45115Y-52262D01*
X41118Y-52262D01*
X41118Y-40834D01*
X41073Y-40606D01*
X40985Y-40392D01*
X40856Y-40199D01*
X40693Y-40034D01*
X40500Y-39904D01*
X40286Y-39814D01*
X40059Y-39768D01*
X39827Y-39766D01*
X39599Y-39810D01*
X39384Y-39897D01*
X39190Y-40024D01*
X39024Y-40186D01*
X38893Y-40377D01*
X38802Y-40591D01*
X38754Y-40818D01*
X38750Y-41049D01*
X38792Y-41278D01*
X38878Y-41493D01*
X39003Y-41688D01*
X39165Y-41855D01*
X39355Y-41988D01*
X39568Y-42080D01*
X39794Y-42130D01*
X40026Y-42135D01*
X40255Y-42095D01*
X40471Y-42011D01*
X40667Y-41887D01*
X40835Y-41727D01*
X40969Y-41537D01*
X41063Y-41325D01*
X41114Y-41099D01*
X41118Y-40834D01*
X41118Y-52262D01*
X40121Y-52262D01*
X40121Y-46449D01*
X40121Y-45449D01*
X40103Y-45358D01*
X40067Y-45272D01*
X40016Y-45194D01*
X39950Y-45128D01*
X39873Y-45076D01*
X39787Y-45040D01*
X39695Y-45021D01*
X39602Y-45021D01*
X39511Y-45038D01*
X39424Y-45073D01*
X39347Y-45124D01*
X39280Y-45190D01*
X39228Y-45266D01*
X39191Y-45352D01*
X39172Y-45443D01*
X39170Y-45536D01*
X39187Y-45628D01*
X39222Y-45715D01*
X39272Y-45793D01*
X39337Y-45860D01*
X39414Y-45913D01*
X39499Y-45950D01*
X39590Y-45970D01*
X39683Y-45972D01*
X39775Y-45956D01*
X39862Y-45922D01*
X39940Y-45872D01*
X40008Y-45808D01*
X40061Y-45731D01*
X40099Y-45646D01*
X40120Y-45555D01*
X40121Y-45449D01*
X40121Y-46449D01*
X40103Y-46358D01*
X40067Y-46272D01*
X40016Y-46194D01*
X39950Y-46128D01*
X39873Y-46076D01*
X39787Y-46040D01*
X39695Y-46021D01*
X39602Y-46021D01*
X39511Y-46038D01*
X39424Y-46073D01*
X39347Y-46124D01*
X39280Y-46190D01*
X39228Y-46266D01*
X39191Y-46352D01*
X39172Y-46443D01*
X39170Y-46536D01*
X39187Y-46628D01*
X39222Y-46715D01*
X39272Y-46793D01*
X39337Y-46860D01*
X39414Y-46913D01*
X39499Y-46950D01*
X39590Y-46970D01*
X39683Y-46972D01*
X39775Y-46956D01*
X39862Y-46922D01*
X39940Y-46872D01*
X40008Y-46808D01*
X40061Y-46731D01*
X40099Y-46646D01*
X40120Y-46555D01*
X40121Y-46449D01*
X40121Y-52262D01*
X38800Y-52262D01*
X38620Y-52244D01*
X38451Y-52193D01*
X38295Y-52110D01*
X38159Y-51998D01*
X38047Y-51862D01*
X37964Y-51706D01*
X37913Y-51537D01*
X37895Y-51357D01*
X37895Y-14785D01*
X37913Y-14605D01*
X37964Y-14436D01*
X38047Y-14280D01*
X38159Y-14144D01*
X38295Y-14032D01*
X38451Y-13949D01*
X38620Y-13898D01*
X38800Y-13880D01*
X75373Y-13880D01*
X75553Y-13898D01*
X75722Y-13949D01*
X75878Y-14032D01*
X76014Y-14144D01*
X76126Y-14280D01*
X76209Y-14436D01*
X76260Y-14605D01*
X76278Y-14785D01*
X76278Y-51357D01*
X76278Y-51357D01*
G37*
G54D34*
X76278Y-51357D02*
X76260Y-51537D01*
X76209Y-51706D01*
X76126Y-51862D01*
X76062Y-51939D01*
X76062Y-44249D01*
X75964Y-43756D01*
X75800Y-43357D01*
X75773Y-43292D01*
X75495Y-42873D01*
X75141Y-42517D01*
X74725Y-42236D01*
X74261Y-42041D01*
X73825Y-41951D01*
X73825Y-41500D01*
X73821Y-41461D01*
X73820Y-41441D01*
X73819Y-41437D01*
X73816Y-41429D01*
X73802Y-41379D01*
X73800Y-41376D01*
X73773Y-41323D01*
X73771Y-41321D01*
X73771Y-41320D01*
X73733Y-41274D01*
X73731Y-41271D01*
X73730Y-41270D01*
X73230Y-40770D01*
X73195Y-40742D01*
X73184Y-40732D01*
X73182Y-40731D01*
X73181Y-40730D01*
X73168Y-40723D01*
X73128Y-40701D01*
X73124Y-40700D01*
X73068Y-40682D01*
X73066Y-40681D01*
X73064Y-40681D01*
X73029Y-40677D01*
X73005Y-40675D01*
X73001Y-40675D01*
X73000Y-40675D01*
X71334Y-40675D01*
X70451Y-39791D01*
X70451Y-34781D01*
X70475Y-34771D01*
X70500Y-34754D01*
X70524Y-34771D01*
X70560Y-34786D01*
X70599Y-34794D01*
X70638Y-34794D01*
X71149Y-34794D01*
X71187Y-34786D01*
X71200Y-34780D01*
X71200Y-36362D01*
X71046Y-36721D01*
X70942Y-37213D01*
X70935Y-37715D01*
X71025Y-38209D01*
X71210Y-38677D01*
X71482Y-39099D01*
X71831Y-39460D01*
X72244Y-39747D01*
X72704Y-39948D01*
X73195Y-40056D01*
X73697Y-40067D01*
X74192Y-39979D01*
X74660Y-39798D01*
X75085Y-39529D01*
X75449Y-39182D01*
X75738Y-38772D01*
X75800Y-38633D01*
X75943Y-38313D01*
X76054Y-37823D01*
X76062Y-37249D01*
X75964Y-36756D01*
X75800Y-36357D01*
X75800Y-34710D01*
X75787Y-34542D01*
X75746Y-34374D01*
X75680Y-34215D01*
X75600Y-34083D01*
X75590Y-34067D01*
X75480Y-33939D01*
X75260Y-33719D01*
X75097Y-33585D01*
X74907Y-33483D01*
X74737Y-33431D01*
X74737Y-33083D01*
X74729Y-33045D01*
X74714Y-33009D01*
X74693Y-32976D01*
X74665Y-32949D01*
X74633Y-32927D01*
X74597Y-32912D01*
X74558Y-32904D01*
X74519Y-32904D01*
X74242Y-32904D01*
X74204Y-32912D01*
X74168Y-32927D01*
X74135Y-32948D01*
X74108Y-32976D01*
X74086Y-33008D01*
X74071Y-33044D01*
X74063Y-33083D01*
X74063Y-33122D01*
X74063Y-33400D01*
X72937Y-33400D01*
X72937Y-33083D01*
X72930Y-33050D01*
X73397Y-33050D01*
X73400Y-33050D01*
X73446Y-33045D01*
X73449Y-33045D01*
X73478Y-33035D01*
X73493Y-33032D01*
X73494Y-33031D01*
X73495Y-33031D01*
X73496Y-33030D01*
X73536Y-33010D01*
X73538Y-33008D01*
X73575Y-32979D01*
X73576Y-32977D01*
X73577Y-32977D01*
X73859Y-32694D01*
X73867Y-32696D01*
X73906Y-32696D01*
X74183Y-32696D01*
X74221Y-32688D01*
X74257Y-32673D01*
X74290Y-32652D01*
X74317Y-32624D01*
X74339Y-32592D01*
X74354Y-32556D01*
X74362Y-32517D01*
X74362Y-32478D01*
X74362Y-32300D01*
X74438Y-32300D01*
X74438Y-32517D01*
X74446Y-32555D01*
X74461Y-32591D01*
X74482Y-32624D01*
X74510Y-32651D01*
X74542Y-32673D01*
X74578Y-32688D01*
X74617Y-32696D01*
X74656Y-32696D01*
X74933Y-32696D01*
X74971Y-32688D01*
X75007Y-32673D01*
X75040Y-32652D01*
X75067Y-32624D01*
X75089Y-32592D01*
X75104Y-32556D01*
X75112Y-32517D01*
X75112Y-32478D01*
X75112Y-32114D01*
X75278Y-31978D01*
X75414Y-31812D01*
X75517Y-31622D01*
X75580Y-31415D01*
X75600Y-31205D01*
X75600Y-21795D01*
X75580Y-21585D01*
X75517Y-21378D01*
X75414Y-21188D01*
X75278Y-21022D01*
X75112Y-20886D01*
X74922Y-20783D01*
X74715Y-20720D01*
X74505Y-20700D01*
X47995Y-20700D01*
X47785Y-20720D01*
X47578Y-20783D01*
X47388Y-20886D01*
X47222Y-21022D01*
X47086Y-21188D01*
X46983Y-21378D01*
X46920Y-21585D01*
X46900Y-21795D01*
X46900Y-25705D01*
X46920Y-25915D01*
X46983Y-26122D01*
X47086Y-26312D01*
X47222Y-26478D01*
X47388Y-26614D01*
X47578Y-26717D01*
X47785Y-26780D01*
X47995Y-26800D01*
X48663Y-26800D01*
X48663Y-27244D01*
X48640Y-27210D01*
X48609Y-27179D01*
X48603Y-27171D01*
X48594Y-27164D01*
X48565Y-27134D01*
X48531Y-27111D01*
X48521Y-27103D01*
X48508Y-27096D01*
X48475Y-27074D01*
X48436Y-27057D01*
X48426Y-27052D01*
X48415Y-27048D01*
X48376Y-27032D01*
X48335Y-27023D01*
X48324Y-27020D01*
X48312Y-27018D01*
X48270Y-27010D01*
X48226Y-27010D01*
X48217Y-27009D01*
X48206Y-27010D01*
X48163Y-27010D01*
X48120Y-27018D01*
X48110Y-27019D01*
X48100Y-27021D01*
X48057Y-27030D01*
X48016Y-27046D01*
X48007Y-27049D01*
X47999Y-27053D01*
X47957Y-27070D01*
X47915Y-27096D01*
X47912Y-27099D01*
X47908Y-27101D01*
X47867Y-27129D01*
X47835Y-27159D01*
X47828Y-27166D01*
X47820Y-27174D01*
X47790Y-27205D01*
X47767Y-27237D01*
X47759Y-27248D01*
X47751Y-27261D01*
X47730Y-27293D01*
X47714Y-27327D01*
X47707Y-27342D01*
X47702Y-27355D01*
X47687Y-27392D01*
X47678Y-27435D01*
X47675Y-27445D01*
X47673Y-27455D01*
X47665Y-27498D01*
X47664Y-27540D01*
X47663Y-27551D01*
X47663Y-27559D01*
X47663Y-27605D01*
X47663Y-28257D01*
X47578Y-28283D01*
X47388Y-28386D01*
X47222Y-28522D01*
X47086Y-28688D01*
X46983Y-28878D01*
X46920Y-29085D01*
X46900Y-29295D01*
X46900Y-32005D01*
X46920Y-32215D01*
X46983Y-32422D01*
X47086Y-32612D01*
X47222Y-32778D01*
X47388Y-32914D01*
X47505Y-32977D01*
X47444Y-32990D01*
X47376Y-33017D01*
X47314Y-33057D01*
X47262Y-33109D01*
X47221Y-33169D01*
X47192Y-33237D01*
X47176Y-33308D01*
X47176Y-33382D01*
X47189Y-33454D01*
X47216Y-33522D01*
X47225Y-33535D01*
X47225Y-35463D01*
X47221Y-35469D01*
X47192Y-35537D01*
X47176Y-35608D01*
X47176Y-35682D01*
X47189Y-35754D01*
X47216Y-35822D01*
X47256Y-35884D01*
X47307Y-35936D01*
X47367Y-35978D01*
X47434Y-36008D01*
X47506Y-36023D01*
X47579Y-36025D01*
X47651Y-36012D01*
X47720Y-35985D01*
X47782Y-35946D01*
X47835Y-35895D01*
X47877Y-35835D01*
X47907Y-35768D01*
X47923Y-35697D01*
X47924Y-35613D01*
X47910Y-35541D01*
X47882Y-35473D01*
X47875Y-35462D01*
X47875Y-33537D01*
X47877Y-33535D01*
X47907Y-33468D01*
X47923Y-33397D01*
X47924Y-33313D01*
X47910Y-33241D01*
X47882Y-33173D01*
X47841Y-33112D01*
X47811Y-33082D01*
X47995Y-33100D01*
X67405Y-33100D01*
X67615Y-33080D01*
X67822Y-33017D01*
X68012Y-32914D01*
X68178Y-32778D01*
X68314Y-32612D01*
X68417Y-32422D01*
X68480Y-32215D01*
X68500Y-32005D01*
X68500Y-30010D01*
X68487Y-29842D01*
X68446Y-29674D01*
X68380Y-29515D01*
X68290Y-29367D01*
X68180Y-29239D01*
X67560Y-28619D01*
X67397Y-28485D01*
X67207Y-28383D01*
X67001Y-28320D01*
X66791Y-28300D01*
X64550Y-28300D01*
X64550Y-27923D01*
X64562Y-27936D01*
X64571Y-27947D01*
X64580Y-27954D01*
X64604Y-27979D01*
X64647Y-28009D01*
X64654Y-28015D01*
X64658Y-28017D01*
X64692Y-28041D01*
X64746Y-28064D01*
X64749Y-28066D01*
X64751Y-28066D01*
X64791Y-28084D01*
X64841Y-28095D01*
X64851Y-28098D01*
X64858Y-28098D01*
X64896Y-28107D01*
X64948Y-28107D01*
X64958Y-28109D01*
X64965Y-28108D01*
X65003Y-28109D01*
X65053Y-28100D01*
X65065Y-28099D01*
X65073Y-28096D01*
X65110Y-28090D01*
X65151Y-28073D01*
X65168Y-28069D01*
X65179Y-28062D01*
X65210Y-28051D01*
X65251Y-28025D01*
X65263Y-28019D01*
X65269Y-28013D01*
X65301Y-27994D01*
X65338Y-27957D01*
X65347Y-27951D01*
X65352Y-27944D01*
X65379Y-27919D01*
X65409Y-27875D01*
X65412Y-27872D01*
X65412Y-27929D01*
X65420Y-27967D01*
X65435Y-28003D01*
X65456Y-28036D01*
X65484Y-28063D01*
X65516Y-28085D01*
X65552Y-28100D01*
X65591Y-28108D01*
X65630Y-28108D01*
X66331Y-28108D01*
X66369Y-28100D01*
X66405Y-28085D01*
X66438Y-28064D01*
X66465Y-28036D01*
X66487Y-28004D01*
X66502Y-27968D01*
X66510Y-27929D01*
X66510Y-27890D01*
X66510Y-27189D01*
X66502Y-27151D01*
X66487Y-27115D01*
X66466Y-27082D01*
X66438Y-27055D01*
X66406Y-27033D01*
X66370Y-27018D01*
X66331Y-27010D01*
X66292Y-27010D01*
X65591Y-27010D01*
X65553Y-27018D01*
X65550Y-27019D01*
X65550Y-26800D01*
X66759Y-26800D01*
X66911Y-26813D01*
X67055Y-26849D01*
X67190Y-26908D01*
X67314Y-26988D01*
X67426Y-27092D01*
X69357Y-29176D01*
X69462Y-29313D01*
X69538Y-29464D01*
X69584Y-29625D01*
X69600Y-29797D01*
X69600Y-31205D01*
X69620Y-31415D01*
X69683Y-31622D01*
X69786Y-31812D01*
X69922Y-31978D01*
X70088Y-32114D01*
X70278Y-32217D01*
X70485Y-32280D01*
X70563Y-32287D01*
X70563Y-32517D01*
X70571Y-32555D01*
X70586Y-32591D01*
X70607Y-32624D01*
X70635Y-32651D01*
X70667Y-32673D01*
X70703Y-32688D01*
X70742Y-32696D01*
X70781Y-32696D01*
X71058Y-32696D01*
X71062Y-32695D01*
X71046Y-32724D01*
X71045Y-32727D01*
X71044Y-32727D01*
X71044Y-32729D01*
X71040Y-32741D01*
X71030Y-32773D01*
X71025Y-32822D01*
X71025Y-32824D01*
X71025Y-32825D01*
X71025Y-32938D01*
X71010Y-32948D01*
X70983Y-32976D01*
X70961Y-33008D01*
X70946Y-33044D01*
X70938Y-33083D01*
X70938Y-33122D01*
X70938Y-33283D01*
X70862Y-33359D01*
X70862Y-33083D01*
X70854Y-33045D01*
X70839Y-33009D01*
X70818Y-32976D01*
X70790Y-32949D01*
X70758Y-32927D01*
X70722Y-32912D01*
X70683Y-32904D01*
X70644Y-32904D01*
X70367Y-32904D01*
X70329Y-32912D01*
X70293Y-32927D01*
X70260Y-32948D01*
X70233Y-32976D01*
X70211Y-33008D01*
X70196Y-33044D01*
X70188Y-33083D01*
X70188Y-33122D01*
X70188Y-33517D01*
X70196Y-33555D01*
X70211Y-33591D01*
X70232Y-33624D01*
X70260Y-33651D01*
X70292Y-33673D01*
X70328Y-33688D01*
X70367Y-33696D01*
X70406Y-33696D01*
X70624Y-33696D01*
X70624Y-33698D01*
X70624Y-33700D01*
X70624Y-33701D01*
X70624Y-33806D01*
X70599Y-33806D01*
X70561Y-33814D01*
X70525Y-33829D01*
X70499Y-33845D01*
X70476Y-33829D01*
X70440Y-33814D01*
X70401Y-33806D01*
X70362Y-33806D01*
X69851Y-33806D01*
X69813Y-33814D01*
X69777Y-33829D01*
X69744Y-33850D01*
X69717Y-33878D01*
X69695Y-33910D01*
X69680Y-33946D01*
X69672Y-33985D01*
X69672Y-34024D01*
X69672Y-34615D01*
X69680Y-34653D01*
X69695Y-34689D01*
X69716Y-34722D01*
X69744Y-34749D01*
X69776Y-34771D01*
X69801Y-34781D01*
X69801Y-39922D01*
X69801Y-39926D01*
X69802Y-39946D01*
X69806Y-39985D01*
X69806Y-39988D01*
X69807Y-39989D01*
X69809Y-39996D01*
X69824Y-40047D01*
X69826Y-40050D01*
X69853Y-40103D01*
X69854Y-40104D01*
X69855Y-40106D01*
X69893Y-40152D01*
X69895Y-40155D01*
X69896Y-40156D01*
X70968Y-41227D01*
X70970Y-41229D01*
X71016Y-41268D01*
X71018Y-41270D01*
X71037Y-41280D01*
X71072Y-41299D01*
X71075Y-41299D01*
X71132Y-41318D01*
X71135Y-41318D01*
X71195Y-41325D01*
X71198Y-41325D01*
X71200Y-41325D01*
X72865Y-41325D01*
X73175Y-41635D01*
X73175Y-41868D01*
X73015Y-41820D01*
X72805Y-41800D01*
X72300Y-41800D01*
X70092Y-41800D01*
X69921Y-41784D01*
X69762Y-41739D01*
X69614Y-41666D01*
X69478Y-41563D01*
X68997Y-41127D01*
X68893Y-41014D01*
X68810Y-40889D01*
X68750Y-40752D01*
X68713Y-40606D01*
X68700Y-40454D01*
X68700Y-37195D01*
X68680Y-36985D01*
X68617Y-36778D01*
X68514Y-36588D01*
X68378Y-36422D01*
X68212Y-36286D01*
X68022Y-36183D01*
X67815Y-36120D01*
X67605Y-36100D01*
X62995Y-36100D01*
X62785Y-36120D01*
X62578Y-36183D01*
X62388Y-36286D01*
X62222Y-36422D01*
X62086Y-36588D01*
X61983Y-36778D01*
X61920Y-36985D01*
X61900Y-37195D01*
X61900Y-42675D01*
X61873Y-42623D01*
X61871Y-42621D01*
X61871Y-42620D01*
X61851Y-42595D01*
X61833Y-42573D01*
X61832Y-42572D01*
X61831Y-42571D01*
X61829Y-42570D01*
X61825Y-42566D01*
X60625Y-41365D01*
X60625Y-36500D01*
X60619Y-36440D01*
X60619Y-36437D01*
X60611Y-36411D01*
X60602Y-36379D01*
X60600Y-36376D01*
X60573Y-36323D01*
X60571Y-36321D01*
X60571Y-36320D01*
X60551Y-36295D01*
X60533Y-36273D01*
X60531Y-36271D01*
X60530Y-36270D01*
X59730Y-35470D01*
X59695Y-35442D01*
X59684Y-35432D01*
X59682Y-35431D01*
X59681Y-35430D01*
X59668Y-35423D01*
X59628Y-35401D01*
X59624Y-35400D01*
X59568Y-35382D01*
X59566Y-35381D01*
X59564Y-35381D01*
X59529Y-35377D01*
X59505Y-35375D01*
X59501Y-35375D01*
X59500Y-35375D01*
X56500Y-35375D01*
X56437Y-35381D01*
X56411Y-35388D01*
X56379Y-35398D01*
X56323Y-35427D01*
X56321Y-35428D01*
X56320Y-35429D01*
X56271Y-35469D01*
X56270Y-35469D01*
X56270Y-35470D01*
X55459Y-36280D01*
X55381Y-36295D01*
X55305Y-36326D01*
X55236Y-36371D01*
X55231Y-36375D01*
X48599Y-36375D01*
X48591Y-36362D01*
X48539Y-36310D01*
X48478Y-36269D01*
X48411Y-36241D01*
X48339Y-36226D01*
X48266Y-36226D01*
X48194Y-36240D01*
X48126Y-36267D01*
X48064Y-36307D01*
X48012Y-36359D01*
X47971Y-36419D01*
X47942Y-36487D01*
X47926Y-36558D01*
X47926Y-36632D01*
X47939Y-36704D01*
X47966Y-36772D01*
X48006Y-36834D01*
X48057Y-36886D01*
X48117Y-36928D01*
X48184Y-36958D01*
X48210Y-36963D01*
X48211Y-36963D01*
X48216Y-36968D01*
X48217Y-36968D01*
X48219Y-36970D01*
X48238Y-36980D01*
X48272Y-36999D01*
X48274Y-36999D01*
X48275Y-37000D01*
X48332Y-37018D01*
X48335Y-37019D01*
X48377Y-37023D01*
X48395Y-37025D01*
X48398Y-37025D01*
X48400Y-37025D01*
X55231Y-37025D01*
X55294Y-37068D01*
X55369Y-37101D01*
X55450Y-37119D01*
X55532Y-37121D01*
X55613Y-37106D01*
X55690Y-37077D01*
X55760Y-37033D01*
X55819Y-36976D01*
X55867Y-36909D01*
X55900Y-36833D01*
X55919Y-36753D01*
X55919Y-36740D01*
X56635Y-36025D01*
X59365Y-36025D01*
X59975Y-36635D01*
X59975Y-41496D01*
X59975Y-41500D01*
X59976Y-41520D01*
X59980Y-41559D01*
X59980Y-41562D01*
X59981Y-41563D01*
X59983Y-41570D01*
X59998Y-41621D01*
X60000Y-41624D01*
X60027Y-41677D01*
X60028Y-41678D01*
X60029Y-41680D01*
X60067Y-41726D01*
X60069Y-41729D01*
X60070Y-41730D01*
X61275Y-42934D01*
X61275Y-44596D01*
X61275Y-44600D01*
X61276Y-44620D01*
X61280Y-44659D01*
X61280Y-44662D01*
X61281Y-44663D01*
X61283Y-44670D01*
X61298Y-44721D01*
X61300Y-44724D01*
X61327Y-44777D01*
X61328Y-44778D01*
X61329Y-44780D01*
X61367Y-44826D01*
X61369Y-44829D01*
X61370Y-44830D01*
X63257Y-46717D01*
X63007Y-46963D01*
X62777Y-47298D01*
X62617Y-47671D01*
X62533Y-48068D01*
X62527Y-48474D01*
X62601Y-48873D01*
X62750Y-49251D01*
X62970Y-49592D01*
X63252Y-49884D01*
X63585Y-50116D01*
X63957Y-50278D01*
X64354Y-50365D01*
X64760Y-50374D01*
X65159Y-50303D01*
X65538Y-50157D01*
X65881Y-49939D01*
X66175Y-49659D01*
X66409Y-49327D01*
X66574Y-48956D01*
X66664Y-48561D01*
X66670Y-48097D01*
X66591Y-47699D01*
X66436Y-47324D01*
X66354Y-47200D01*
X72805Y-47200D01*
X73015Y-47180D01*
X73175Y-47131D01*
X73175Y-47474D01*
X73147Y-47480D01*
X73111Y-47495D01*
X73078Y-47516D01*
X73051Y-47544D01*
X73029Y-47576D01*
X73014Y-47612D01*
X73006Y-47651D01*
X73006Y-47690D01*
X73006Y-48201D01*
X73014Y-48239D01*
X73029Y-48275D01*
X73050Y-48308D01*
X73078Y-48335D01*
X73110Y-48357D01*
X73146Y-48372D01*
X73185Y-48380D01*
X73224Y-48380D01*
X73815Y-48380D01*
X73853Y-48372D01*
X73889Y-48357D01*
X73900Y-48350D01*
X73922Y-48336D01*
X73949Y-48308D01*
X73971Y-48276D01*
X73986Y-48240D01*
X73994Y-48201D01*
X73994Y-48162D01*
X73994Y-47651D01*
X73986Y-47613D01*
X73971Y-47577D01*
X73950Y-47544D01*
X73922Y-47517D01*
X73900Y-47501D01*
X73890Y-47495D01*
X73854Y-47480D01*
X73825Y-47474D01*
X73825Y-47044D01*
X73900Y-47030D01*
X74192Y-46979D01*
X74660Y-46798D01*
X75085Y-46529D01*
X75449Y-46182D01*
X75738Y-45772D01*
X75800Y-45633D01*
X75943Y-45313D01*
X76054Y-44823D01*
X76062Y-44249D01*
X76062Y-51939D01*
X76014Y-51998D01*
X75878Y-52110D01*
X75800Y-52151D01*
X75722Y-52193D01*
X75553Y-52244D01*
X75373Y-52262D01*
X73900Y-52262D01*
X65394Y-52262D01*
X59062Y-52262D01*
X59062Y-44749D01*
X58964Y-44256D01*
X58773Y-43792D01*
X58767Y-43782D01*
X58767Y-39026D01*
X58741Y-38893D01*
X58689Y-38767D01*
X58614Y-38654D01*
X58518Y-38558D01*
X58406Y-38482D01*
X58280Y-38430D01*
X58148Y-38402D01*
X58012Y-38402D01*
X57879Y-38427D01*
X57753Y-38478D01*
X57639Y-38552D01*
X57542Y-38647D01*
X57466Y-38759D01*
X57412Y-38884D01*
X57384Y-39017D01*
X57382Y-39152D01*
X57407Y-39286D01*
X57457Y-39412D01*
X57530Y-39526D01*
X57624Y-39624D01*
X57736Y-39701D01*
X57860Y-39755D01*
X57993Y-39784D01*
X58128Y-39787D01*
X58262Y-39764D01*
X58389Y-39715D01*
X58503Y-39642D01*
X58601Y-39548D01*
X58680Y-39437D01*
X58735Y-39313D01*
X58765Y-39181D01*
X58767Y-39026D01*
X58767Y-43782D01*
X58495Y-43373D01*
X58141Y-43017D01*
X57725Y-42736D01*
X57261Y-42541D01*
X57192Y-42526D01*
X57192Y-39026D01*
X57166Y-38893D01*
X57114Y-38767D01*
X57039Y-38654D01*
X56943Y-38558D01*
X56920Y-38542D01*
X56920Y-37659D01*
X56904Y-37578D01*
X56873Y-37502D01*
X56827Y-37433D01*
X56769Y-37375D01*
X56701Y-37329D01*
X56625Y-37297D01*
X56544Y-37280D01*
X56462Y-37280D01*
X56381Y-37295D01*
X56305Y-37326D01*
X56236Y-37371D01*
X56231Y-37375D01*
X52300Y-37375D01*
X52237Y-37381D01*
X52183Y-37397D01*
X52179Y-37399D01*
X52178Y-37399D01*
X52176Y-37400D01*
X52120Y-37429D01*
X52083Y-37459D01*
X52073Y-37467D01*
X52072Y-37467D01*
X52071Y-37469D01*
X52066Y-37474D01*
X51065Y-38475D01*
X50174Y-38475D01*
X50174Y-37463D01*
X50160Y-37391D01*
X50132Y-37323D01*
X50091Y-37262D01*
X50039Y-37210D01*
X49978Y-37169D01*
X49911Y-37141D01*
X49839Y-37126D01*
X49766Y-37126D01*
X49694Y-37140D01*
X49626Y-37167D01*
X49613Y-37175D01*
X48486Y-37175D01*
X48478Y-37169D01*
X48411Y-37141D01*
X48339Y-37126D01*
X48266Y-37126D01*
X48194Y-37140D01*
X48126Y-37167D01*
X48064Y-37207D01*
X48012Y-37259D01*
X47971Y-37319D01*
X47942Y-37387D01*
X47926Y-37458D01*
X47926Y-37532D01*
X47939Y-37604D01*
X47966Y-37672D01*
X48006Y-37734D01*
X48057Y-37786D01*
X48117Y-37828D01*
X48184Y-37858D01*
X48256Y-37873D01*
X48329Y-37875D01*
X48401Y-37862D01*
X48470Y-37835D01*
X48485Y-37825D01*
X49612Y-37825D01*
X49617Y-37828D01*
X49684Y-37858D01*
X49756Y-37873D01*
X49829Y-37875D01*
X49901Y-37862D01*
X49970Y-37835D01*
X50032Y-37796D01*
X50085Y-37745D01*
X50127Y-37685D01*
X50157Y-37618D01*
X50173Y-37547D01*
X50174Y-37463D01*
X50174Y-38475D01*
X48486Y-38475D01*
X48478Y-38469D01*
X48411Y-38441D01*
X48339Y-38426D01*
X48266Y-38426D01*
X48194Y-38440D01*
X48126Y-38467D01*
X48064Y-38507D01*
X48012Y-38559D01*
X47971Y-38619D01*
X47942Y-38687D01*
X47926Y-38758D01*
X47926Y-38832D01*
X47939Y-38904D01*
X47966Y-38972D01*
X48006Y-39034D01*
X48057Y-39086D01*
X48117Y-39128D01*
X48184Y-39158D01*
X48256Y-39173D01*
X48329Y-39175D01*
X48401Y-39162D01*
X48470Y-39135D01*
X48485Y-39125D01*
X51196Y-39125D01*
X51200Y-39125D01*
X51220Y-39123D01*
X51259Y-39120D01*
X51262Y-39119D01*
X51263Y-39119D01*
X51270Y-39116D01*
X51321Y-39102D01*
X51324Y-39100D01*
X51377Y-39073D01*
X51378Y-39071D01*
X51380Y-39071D01*
X51426Y-39033D01*
X51429Y-39031D01*
X51429Y-39030D01*
X51430Y-39030D01*
X52434Y-38025D01*
X56231Y-38025D01*
X56294Y-38068D01*
X56369Y-38101D01*
X56450Y-38119D01*
X56532Y-38121D01*
X56613Y-38106D01*
X56690Y-38077D01*
X56760Y-38033D01*
X56819Y-37976D01*
X56867Y-37909D01*
X56900Y-37833D01*
X56919Y-37753D01*
X56920Y-37659D01*
X56920Y-38542D01*
X56831Y-38482D01*
X56705Y-38430D01*
X56573Y-38402D01*
X56437Y-38402D01*
X56304Y-38427D01*
X56178Y-38478D01*
X56064Y-38552D01*
X55967Y-38647D01*
X55891Y-38759D01*
X55837Y-38884D01*
X55809Y-39017D01*
X55807Y-39152D01*
X55832Y-39286D01*
X55882Y-39412D01*
X55955Y-39526D01*
X56049Y-39624D01*
X56161Y-39701D01*
X56285Y-39755D01*
X56418Y-39784D01*
X56553Y-39787D01*
X56687Y-39764D01*
X56814Y-39715D01*
X56928Y-39642D01*
X57026Y-39548D01*
X57105Y-39437D01*
X57160Y-39313D01*
X57190Y-39181D01*
X57192Y-39026D01*
X57192Y-42526D01*
X56769Y-42440D01*
X56267Y-42436D01*
X55773Y-42530D01*
X55308Y-42719D01*
X54887Y-42994D01*
X54528Y-43345D01*
X54244Y-43760D01*
X54046Y-44221D01*
X53942Y-44713D01*
X53935Y-45215D01*
X54025Y-45709D01*
X54210Y-46177D01*
X54482Y-46599D01*
X54831Y-46960D01*
X55244Y-47247D01*
X55704Y-47448D01*
X56195Y-47556D01*
X56697Y-47567D01*
X57192Y-47479D01*
X57660Y-47298D01*
X58085Y-47029D01*
X58449Y-46682D01*
X58738Y-46272D01*
X58943Y-45813D01*
X59054Y-45323D01*
X59062Y-44749D01*
X59062Y-52262D01*
X51748Y-52262D01*
X51748Y-40834D01*
X51703Y-40606D01*
X51615Y-40392D01*
X51486Y-40199D01*
X51323Y-40034D01*
X51130Y-39904D01*
X50916Y-39814D01*
X50689Y-39768D01*
X50457Y-39766D01*
X50229Y-39810D01*
X50014Y-39897D01*
X49820Y-40024D01*
X49654Y-40186D01*
X49523Y-40377D01*
X49432Y-40591D01*
X49384Y-40818D01*
X49380Y-41049D01*
X49422Y-41278D01*
X49508Y-41493D01*
X49633Y-41688D01*
X49795Y-41855D01*
X49985Y-41988D01*
X50198Y-42080D01*
X50424Y-42130D01*
X50656Y-42135D01*
X50885Y-42095D01*
X51101Y-42011D01*
X51297Y-41887D01*
X51465Y-41727D01*
X51599Y-41537D01*
X51693Y-41325D01*
X51744Y-41099D01*
X51748Y-40834D01*
X51748Y-52262D01*
X48147Y-52262D01*
X48147Y-50863D01*
X48113Y-50692D01*
X48047Y-50531D01*
X47950Y-50386D01*
X47828Y-50262D01*
X47683Y-50164D01*
X47522Y-50097D01*
X47352Y-50062D01*
X47177Y-50060D01*
X47006Y-50093D01*
X46844Y-50158D01*
X46698Y-50254D01*
X46574Y-50376D01*
X46475Y-50520D01*
X46407Y-50680D01*
X46370Y-50850D01*
X46369Y-50875D01*
X46356Y-50807D01*
X46319Y-50717D01*
X46266Y-50636D01*
X46197Y-50567D01*
X46117Y-50513D01*
X46028Y-50475D01*
X45933Y-50455D01*
X45835Y-50455D01*
X45740Y-50473D01*
X45650Y-50509D01*
X45569Y-50562D01*
X45499Y-50630D01*
X45444Y-50710D01*
X45406Y-50799D01*
X45386Y-50894D01*
X45384Y-50991D01*
X45402Y-51087D01*
X45437Y-51177D01*
X45490Y-51258D01*
X45557Y-51328D01*
X45637Y-51384D01*
X45726Y-51423D01*
X45821Y-51444D01*
X45918Y-51446D01*
X46013Y-51429D01*
X46104Y-51394D01*
X46186Y-51342D01*
X46256Y-51275D01*
X46312Y-51196D01*
X46352Y-51107D01*
X46369Y-51030D01*
X46399Y-51196D01*
X46463Y-51358D01*
X46558Y-51505D01*
X46679Y-51630D01*
X46822Y-51730D01*
X46982Y-51799D01*
X47152Y-51837D01*
X47326Y-51841D01*
X47498Y-51810D01*
X47661Y-51747D01*
X47808Y-51654D01*
X47934Y-51534D01*
X48035Y-51391D01*
X48106Y-51232D01*
X48144Y-51062D01*
X48147Y-50863D01*
X48147Y-52262D01*
X48000Y-52262D01*
X45115Y-52262D01*
X45115Y-50902D01*
X45096Y-50807D01*
X45059Y-50717D01*
X45006Y-50636D01*
X44937Y-50567D01*
X44857Y-50513D01*
X44768Y-50475D01*
X44673Y-50455D01*
X44575Y-50455D01*
X44480Y-50473D01*
X44390Y-50509D01*
X44309Y-50562D01*
X44239Y-50630D01*
X44184Y-50710D01*
X44146Y-50799D01*
X44131Y-50863D01*
X44097Y-50692D01*
X44031Y-50531D01*
X43934Y-50386D01*
X43812Y-50262D01*
X43667Y-50164D01*
X43506Y-50097D01*
X43336Y-50062D01*
X43315Y-50061D01*
X43315Y-24924D01*
X43240Y-24544D01*
X43092Y-24186D01*
X42877Y-23863D01*
X42604Y-23588D01*
X42283Y-23371D01*
X41926Y-23221D01*
X41546Y-23143D01*
X41159Y-23141D01*
X40778Y-23213D01*
X40419Y-23359D01*
X40095Y-23571D01*
X39818Y-23842D01*
X39599Y-24162D01*
X39446Y-24518D01*
X39366Y-24897D01*
X39360Y-25284D01*
X39430Y-25666D01*
X39573Y-26026D01*
X39783Y-26351D01*
X40052Y-26630D01*
X40371Y-26851D01*
X40726Y-27006D01*
X41104Y-27090D01*
X41492Y-27098D01*
X41873Y-27030D01*
X42234Y-26890D01*
X42562Y-26682D01*
X42842Y-26415D01*
X43066Y-26099D01*
X43223Y-25744D01*
X43309Y-25367D01*
X43315Y-24924D01*
X43315Y-50061D01*
X43161Y-50060D01*
X42990Y-50093D01*
X42828Y-50158D01*
X42682Y-50254D01*
X42558Y-50376D01*
X42459Y-50520D01*
X42391Y-50680D01*
X42354Y-50850D01*
X42352Y-51025D01*
X42383Y-51196D01*
X42447Y-51358D01*
X42542Y-51505D01*
X42663Y-51630D01*
X42806Y-51730D01*
X42966Y-51799D01*
X43136Y-51837D01*
X43310Y-51841D01*
X43482Y-51810D01*
X43645Y-51747D01*
X43792Y-51654D01*
X43918Y-51534D01*
X44019Y-51391D01*
X44090Y-51232D01*
X44128Y-51062D01*
X44128Y-51016D01*
X44142Y-51087D01*
X44177Y-51177D01*
X44230Y-51258D01*
X44297Y-51328D01*
X44377Y-51384D01*
X44466Y-51423D01*
X44561Y-51444D01*
X44658Y-51446D01*
X44753Y-51429D01*
X44844Y-51394D01*
X44926Y-51342D01*
X44996Y-51275D01*
X45052Y-51196D01*
X45092Y-51107D01*
X45113Y-51013D01*
X45115Y-50902D01*
X45115Y-52262D01*
X41118Y-52262D01*
X41118Y-40834D01*
X41073Y-40606D01*
X40985Y-40392D01*
X40856Y-40199D01*
X40693Y-40034D01*
X40500Y-39904D01*
X40286Y-39814D01*
X40059Y-39768D01*
X39827Y-39766D01*
X39599Y-39810D01*
X39384Y-39897D01*
X39190Y-40024D01*
X39024Y-40186D01*
X38893Y-40377D01*
X38802Y-40591D01*
X38754Y-40818D01*
X38750Y-41049D01*
X38792Y-41278D01*
X38878Y-41493D01*
X39003Y-41688D01*
X39165Y-41855D01*
X39355Y-41988D01*
X39568Y-42080D01*
X39794Y-42130D01*
X40026Y-42135D01*
X40255Y-42095D01*
X40471Y-42011D01*
X40667Y-41887D01*
X40835Y-41727D01*
X40969Y-41537D01*
X41063Y-41325D01*
X41114Y-41099D01*
X41118Y-40834D01*
X41118Y-52262D01*
X40121Y-52262D01*
X40121Y-46449D01*
X40121Y-45449D01*
X40103Y-45358D01*
X40067Y-45272D01*
X40016Y-45194D01*
X39950Y-45128D01*
X39873Y-45076D01*
X39787Y-45040D01*
X39695Y-45021D01*
X39602Y-45021D01*
X39511Y-45038D01*
X39424Y-45073D01*
X39347Y-45124D01*
X39280Y-45190D01*
X39228Y-45266D01*
X39191Y-45352D01*
X39172Y-45443D01*
X39170Y-45536D01*
X39187Y-45628D01*
X39222Y-45715D01*
X39272Y-45793D01*
X39337Y-45860D01*
X39414Y-45913D01*
X39499Y-45950D01*
X39590Y-45970D01*
X39683Y-45972D01*
X39775Y-45956D01*
X39862Y-45922D01*
X39940Y-45872D01*
X40008Y-45808D01*
X40061Y-45731D01*
X40099Y-45646D01*
X40120Y-45555D01*
X40121Y-45449D01*
X40121Y-46449D01*
X40103Y-46358D01*
X40067Y-46272D01*
X40016Y-46194D01*
X39950Y-46128D01*
X39873Y-46076D01*
X39787Y-46040D01*
X39695Y-46021D01*
X39602Y-46021D01*
X39511Y-46038D01*
X39424Y-46073D01*
X39347Y-46124D01*
X39280Y-46190D01*
X39228Y-46266D01*
X39191Y-46352D01*
X39172Y-46443D01*
X39170Y-46536D01*
X39187Y-46628D01*
X39222Y-46715D01*
X39272Y-46793D01*
X39337Y-46860D01*
X39414Y-46913D01*
X39499Y-46950D01*
X39590Y-46970D01*
X39683Y-46972D01*
X39775Y-46956D01*
X39862Y-46922D01*
X39940Y-46872D01*
X40008Y-46808D01*
X40061Y-46731D01*
X40099Y-46646D01*
X40120Y-46555D01*
X40121Y-46449D01*
X40121Y-52262D01*
X38800Y-52262D01*
X38620Y-52244D01*
X38451Y-52193D01*
X38295Y-52110D01*
X38159Y-51998D01*
X38047Y-51862D01*
X37964Y-51706D01*
X37913Y-51537D01*
X37895Y-51357D01*
X37895Y-14785D01*
X37913Y-14605D01*
X37964Y-14436D01*
X38047Y-14280D01*
X38159Y-14144D01*
X38295Y-14032D01*
X38451Y-13949D01*
X38620Y-13898D01*
X38800Y-13880D01*
X75373Y-13880D01*
X75553Y-13898D01*
X75722Y-13949D01*
X75878Y-14032D01*
X76014Y-14144D01*
X76126Y-14280D01*
X76209Y-14436D01*
X76260Y-14605D01*
X76278Y-14785D01*
X76278Y-51357D01*
M02*
