G04 (created by PCBNEW (2012-jan-04)-stable) date Wed 06 Jun 2012 07:40:23 AM CEST*
G01*
G70*
G90*
%MOIN*%
G04 Gerber Fmt 3.4, Leading zero omitted, Abs format*
%FSLAX34Y34*%
G04 APERTURE LIST*
%ADD10C,0.001000*%
%ADD11C,0.008000*%
G04 APERTURE END LIST*
G54D10*
G54D11*
X37402Y-52756D02*
X37402Y-13386D01*
X76772Y-52756D02*
X37402Y-52756D01*
X76772Y-13386D02*
X76772Y-52756D01*
X37402Y-13386D02*
X76772Y-13386D01*
G54D10*
X47450Y-33250D02*
X47650Y-33450D01*
X47650Y-33250D02*
X47450Y-33450D01*
X47450Y-35550D02*
X47650Y-35750D01*
X47650Y-35550D02*
X47450Y-35750D01*
X48200Y-36500D02*
X48400Y-36700D01*
X48400Y-36500D02*
X48200Y-36700D01*
X48200Y-37400D02*
X48400Y-37600D01*
X48400Y-37400D02*
X48200Y-37600D01*
X48200Y-39300D02*
X48400Y-39500D01*
X48400Y-39300D02*
X48200Y-39500D01*
X55120Y-36100D02*
X55117Y-36123D01*
X55110Y-36145D01*
X55099Y-36166D01*
X55085Y-36184D01*
X55067Y-36199D01*
X55046Y-36210D01*
X55024Y-36217D01*
X55000Y-36219D01*
X54978Y-36217D01*
X54956Y-36211D01*
X54935Y-36200D01*
X54917Y-36185D01*
X54901Y-36167D01*
X54890Y-36147D01*
X54883Y-36124D01*
X54881Y-36101D01*
X54882Y-36079D01*
X54889Y-36056D01*
X54900Y-36035D01*
X54914Y-36017D01*
X54932Y-36002D01*
X54952Y-35991D01*
X54975Y-35983D01*
X54998Y-35981D01*
X55020Y-35982D01*
X55043Y-35989D01*
X55064Y-35999D01*
X55082Y-36014D01*
X55098Y-36031D01*
X55109Y-36052D01*
X55117Y-36074D01*
X55119Y-36097D01*
X55120Y-36100D01*
X56120Y-35100D02*
X56117Y-35123D01*
X56110Y-35145D01*
X56099Y-35166D01*
X56085Y-35184D01*
X56067Y-35199D01*
X56046Y-35210D01*
X56024Y-35217D01*
X56000Y-35219D01*
X55978Y-35217D01*
X55956Y-35211D01*
X55935Y-35200D01*
X55917Y-35185D01*
X55901Y-35167D01*
X55890Y-35147D01*
X55883Y-35124D01*
X55881Y-35101D01*
X55882Y-35079D01*
X55889Y-35056D01*
X55900Y-35035D01*
X55914Y-35017D01*
X55932Y-35002D01*
X55952Y-34991D01*
X55975Y-34983D01*
X55998Y-34981D01*
X56020Y-34982D01*
X56043Y-34989D01*
X56064Y-34999D01*
X56082Y-35014D01*
X56098Y-35031D01*
X56109Y-35052D01*
X56117Y-35074D01*
X56119Y-35097D01*
X56120Y-35100D01*
X56120Y-37100D02*
X56117Y-37123D01*
X56110Y-37145D01*
X56099Y-37166D01*
X56085Y-37184D01*
X56067Y-37199D01*
X56046Y-37210D01*
X56024Y-37217D01*
X56000Y-37219D01*
X55978Y-37217D01*
X55956Y-37211D01*
X55935Y-37200D01*
X55917Y-37185D01*
X55901Y-37167D01*
X55890Y-37147D01*
X55883Y-37124D01*
X55881Y-37101D01*
X55882Y-37079D01*
X55889Y-37056D01*
X55900Y-37035D01*
X55914Y-37017D01*
X55932Y-37002D01*
X55952Y-36991D01*
X55975Y-36983D01*
X55998Y-36981D01*
X56020Y-36982D01*
X56043Y-36989D01*
X56064Y-36999D01*
X56082Y-37014D01*
X56098Y-37031D01*
X56109Y-37052D01*
X56117Y-37074D01*
X56119Y-37097D01*
X56120Y-37100D01*
X40354Y-45339D02*
X40354Y-45653D01*
X40511Y-45496D02*
X40197Y-45496D01*
X40354Y-46339D02*
X40354Y-46653D01*
X40511Y-46496D02*
X40197Y-46496D01*
X40354Y-47339D02*
X40354Y-47653D01*
X40511Y-47496D02*
X40197Y-47496D01*
X54425Y-39137D02*
X54425Y-39451D01*
X54582Y-39294D02*
X54268Y-39294D01*
X56000Y-39137D02*
X56000Y-39451D01*
X56157Y-39294D02*
X55843Y-39294D01*
X57575Y-39137D02*
X57575Y-39451D01*
X57732Y-39294D02*
X57418Y-39294D01*
X63060Y-32100D02*
X63056Y-32131D01*
X63047Y-32160D01*
X63033Y-32188D01*
X63013Y-32212D01*
X62989Y-32232D01*
X62962Y-32247D01*
X62932Y-32256D01*
X62901Y-32259D01*
X62871Y-32257D01*
X62841Y-32248D01*
X62813Y-32233D01*
X62789Y-32214D01*
X62768Y-32190D01*
X62753Y-32163D01*
X62744Y-32133D01*
X62741Y-32102D01*
X62743Y-32072D01*
X62752Y-32042D01*
X62766Y-32014D01*
X62785Y-31989D01*
X62809Y-31969D01*
X62836Y-31954D01*
X62866Y-31944D01*
X62897Y-31941D01*
X62927Y-31943D01*
X62957Y-31951D01*
X62985Y-31965D01*
X63010Y-31985D01*
X63030Y-32008D01*
X63046Y-32035D01*
X63056Y-32065D01*
X63059Y-32096D01*
X63060Y-32100D01*
X62740Y-31940D02*
X63060Y-32260D01*
X63060Y-31940D02*
X62740Y-32260D01*
X63060Y-37100D02*
X63056Y-37131D01*
X63047Y-37160D01*
X63033Y-37188D01*
X63013Y-37212D01*
X62989Y-37232D01*
X62962Y-37247D01*
X62932Y-37256D01*
X62901Y-37259D01*
X62871Y-37257D01*
X62841Y-37248D01*
X62813Y-37233D01*
X62789Y-37214D01*
X62768Y-37190D01*
X62753Y-37163D01*
X62744Y-37133D01*
X62741Y-37102D01*
X62743Y-37072D01*
X62752Y-37042D01*
X62766Y-37014D01*
X62785Y-36989D01*
X62809Y-36969D01*
X62836Y-36954D01*
X62866Y-36944D01*
X62897Y-36941D01*
X62927Y-36943D01*
X62957Y-36951D01*
X62985Y-36965D01*
X63010Y-36985D01*
X63030Y-37008D01*
X63046Y-37035D01*
X63056Y-37065D01*
X63059Y-37096D01*
X63060Y-37100D01*
X62740Y-36940D02*
X63060Y-37260D01*
X63060Y-36940D02*
X62740Y-37260D01*
X64560Y-32100D02*
X64556Y-32131D01*
X64547Y-32160D01*
X64533Y-32188D01*
X64513Y-32212D01*
X64489Y-32232D01*
X64462Y-32247D01*
X64432Y-32256D01*
X64401Y-32259D01*
X64371Y-32257D01*
X64341Y-32248D01*
X64313Y-32233D01*
X64289Y-32214D01*
X64268Y-32190D01*
X64253Y-32163D01*
X64244Y-32133D01*
X64241Y-32102D01*
X64243Y-32072D01*
X64252Y-32042D01*
X64266Y-32014D01*
X64285Y-31989D01*
X64309Y-31969D01*
X64336Y-31954D01*
X64366Y-31944D01*
X64397Y-31941D01*
X64427Y-31943D01*
X64457Y-31951D01*
X64485Y-31965D01*
X64510Y-31985D01*
X64530Y-32008D01*
X64546Y-32035D01*
X64556Y-32065D01*
X64559Y-32096D01*
X64560Y-32100D01*
X64240Y-31940D02*
X64560Y-32260D01*
X64560Y-31940D02*
X64240Y-32260D01*
X64560Y-37100D02*
X64556Y-37131D01*
X64547Y-37160D01*
X64533Y-37188D01*
X64513Y-37212D01*
X64489Y-37232D01*
X64462Y-37247D01*
X64432Y-37256D01*
X64401Y-37259D01*
X64371Y-37257D01*
X64341Y-37248D01*
X64313Y-37233D01*
X64289Y-37214D01*
X64268Y-37190D01*
X64253Y-37163D01*
X64244Y-37133D01*
X64241Y-37102D01*
X64243Y-37072D01*
X64252Y-37042D01*
X64266Y-37014D01*
X64285Y-36989D01*
X64309Y-36969D01*
X64336Y-36954D01*
X64366Y-36944D01*
X64397Y-36941D01*
X64427Y-36943D01*
X64457Y-36951D01*
X64485Y-36965D01*
X64510Y-36985D01*
X64530Y-37008D01*
X64546Y-37035D01*
X64556Y-37065D01*
X64559Y-37096D01*
X64560Y-37100D01*
X64240Y-36940D02*
X64560Y-37260D01*
X64560Y-36940D02*
X64240Y-37260D01*
X66360Y-32100D02*
X66356Y-32131D01*
X66347Y-32160D01*
X66333Y-32188D01*
X66313Y-32212D01*
X66289Y-32232D01*
X66262Y-32247D01*
X66232Y-32256D01*
X66201Y-32259D01*
X66171Y-32257D01*
X66141Y-32248D01*
X66113Y-32233D01*
X66089Y-32214D01*
X66068Y-32190D01*
X66053Y-32163D01*
X66044Y-32133D01*
X66041Y-32102D01*
X66043Y-32072D01*
X66052Y-32042D01*
X66066Y-32014D01*
X66085Y-31989D01*
X66109Y-31969D01*
X66136Y-31954D01*
X66166Y-31944D01*
X66197Y-31941D01*
X66227Y-31943D01*
X66257Y-31951D01*
X66285Y-31965D01*
X66310Y-31985D01*
X66330Y-32008D01*
X66346Y-32035D01*
X66356Y-32065D01*
X66359Y-32096D01*
X66360Y-32100D01*
X66040Y-31940D02*
X66360Y-32260D01*
X66360Y-31940D02*
X66040Y-32260D01*
X66360Y-37100D02*
X66356Y-37131D01*
X66347Y-37160D01*
X66333Y-37188D01*
X66313Y-37212D01*
X66289Y-37232D01*
X66262Y-37247D01*
X66232Y-37256D01*
X66201Y-37259D01*
X66171Y-37257D01*
X66141Y-37248D01*
X66113Y-37233D01*
X66089Y-37214D01*
X66068Y-37190D01*
X66053Y-37163D01*
X66044Y-37133D01*
X66041Y-37102D01*
X66043Y-37072D01*
X66052Y-37042D01*
X66066Y-37014D01*
X66085Y-36989D01*
X66109Y-36969D01*
X66136Y-36954D01*
X66166Y-36944D01*
X66197Y-36941D01*
X66227Y-36943D01*
X66257Y-36951D01*
X66285Y-36965D01*
X66310Y-36985D01*
X66330Y-37008D01*
X66346Y-37035D01*
X66356Y-37065D01*
X66359Y-37096D01*
X66360Y-37100D01*
X66040Y-36940D02*
X66360Y-37260D01*
X66360Y-36940D02*
X66040Y-37260D01*
X67860Y-32100D02*
X67856Y-32131D01*
X67847Y-32160D01*
X67833Y-32188D01*
X67813Y-32212D01*
X67789Y-32232D01*
X67762Y-32247D01*
X67732Y-32256D01*
X67701Y-32259D01*
X67671Y-32257D01*
X67641Y-32248D01*
X67613Y-32233D01*
X67589Y-32214D01*
X67568Y-32190D01*
X67553Y-32163D01*
X67544Y-32133D01*
X67541Y-32102D01*
X67543Y-32072D01*
X67552Y-32042D01*
X67566Y-32014D01*
X67585Y-31989D01*
X67609Y-31969D01*
X67636Y-31954D01*
X67666Y-31944D01*
X67697Y-31941D01*
X67727Y-31943D01*
X67757Y-31951D01*
X67785Y-31965D01*
X67810Y-31985D01*
X67830Y-32008D01*
X67846Y-32035D01*
X67856Y-32065D01*
X67859Y-32096D01*
X67860Y-32100D01*
X67540Y-31940D02*
X67860Y-32260D01*
X67860Y-31940D02*
X67540Y-32260D01*
X67860Y-37100D02*
X67856Y-37131D01*
X67847Y-37160D01*
X67833Y-37188D01*
X67813Y-37212D01*
X67789Y-37232D01*
X67762Y-37247D01*
X67732Y-37256D01*
X67701Y-37259D01*
X67671Y-37257D01*
X67641Y-37248D01*
X67613Y-37233D01*
X67589Y-37214D01*
X67568Y-37190D01*
X67553Y-37163D01*
X67544Y-37133D01*
X67541Y-37102D01*
X67543Y-37072D01*
X67552Y-37042D01*
X67566Y-37014D01*
X67585Y-36989D01*
X67609Y-36969D01*
X67636Y-36954D01*
X67666Y-36944D01*
X67697Y-36941D01*
X67727Y-36943D01*
X67757Y-36951D01*
X67785Y-36965D01*
X67810Y-36985D01*
X67830Y-37008D01*
X67846Y-37035D01*
X67856Y-37065D01*
X67859Y-37096D01*
X67860Y-37100D01*
X67540Y-36940D02*
X67860Y-37260D01*
X67860Y-36940D02*
X67540Y-37260D01*
X43439Y-50714D02*
X43435Y-50752D01*
X43424Y-50789D01*
X43406Y-50823D01*
X43381Y-50852D01*
X43352Y-50877D01*
X43318Y-50895D01*
X43281Y-50906D01*
X43243Y-50910D01*
X43206Y-50907D01*
X43169Y-50896D01*
X43135Y-50878D01*
X43105Y-50854D01*
X43080Y-50825D01*
X43061Y-50791D01*
X43050Y-50754D01*
X43046Y-50716D01*
X43049Y-50679D01*
X43059Y-50642D01*
X43077Y-50608D01*
X43101Y-50578D01*
X43130Y-50553D01*
X43164Y-50534D01*
X43200Y-50522D01*
X43238Y-50518D01*
X43276Y-50520D01*
X43313Y-50531D01*
X43347Y-50548D01*
X43377Y-50572D01*
X43402Y-50601D01*
X43421Y-50634D01*
X43434Y-50671D01*
X43438Y-50709D01*
X43439Y-50714D01*
X43045Y-50714D02*
X43439Y-50714D01*
X47455Y-50714D02*
X47451Y-50752D01*
X47440Y-50789D01*
X47422Y-50823D01*
X47397Y-50852D01*
X47368Y-50877D01*
X47334Y-50895D01*
X47297Y-50906D01*
X47259Y-50910D01*
X47222Y-50907D01*
X47185Y-50896D01*
X47151Y-50878D01*
X47121Y-50854D01*
X47096Y-50825D01*
X47077Y-50791D01*
X47066Y-50754D01*
X47062Y-50716D01*
X47065Y-50679D01*
X47075Y-50642D01*
X47093Y-50608D01*
X47117Y-50578D01*
X47146Y-50553D01*
X47180Y-50534D01*
X47216Y-50522D01*
X47254Y-50518D01*
X47292Y-50520D01*
X47329Y-50531D01*
X47363Y-50548D01*
X47393Y-50572D01*
X47418Y-50601D01*
X47437Y-50634D01*
X47450Y-50671D01*
X47454Y-50709D01*
X47455Y-50714D01*
X47061Y-50714D02*
X47455Y-50714D01*
X48413Y-27559D02*
X48409Y-27597D01*
X48397Y-27635D01*
X48379Y-27669D01*
X48354Y-27699D01*
X48324Y-27724D01*
X48290Y-27743D01*
X48253Y-27754D01*
X48214Y-27758D01*
X48176Y-27755D01*
X48139Y-27744D01*
X48104Y-27726D01*
X48074Y-27701D01*
X48048Y-27671D01*
X48030Y-27637D01*
X48018Y-27600D01*
X48014Y-27561D01*
X48017Y-27523D01*
X48028Y-27486D01*
X48045Y-27451D01*
X48070Y-27421D01*
X48099Y-27395D01*
X48133Y-27376D01*
X48171Y-27364D01*
X48209Y-27360D01*
X48247Y-27363D01*
X48285Y-27373D01*
X48320Y-27391D01*
X48350Y-27415D01*
X48376Y-27444D01*
X48395Y-27478D01*
X48408Y-27515D01*
X48412Y-27554D01*
X48413Y-27559D01*
X48213Y-27359D02*
X48213Y-27759D01*
X49413Y-27559D02*
X49409Y-27597D01*
X49397Y-27635D01*
X49379Y-27669D01*
X49354Y-27699D01*
X49324Y-27724D01*
X49290Y-27743D01*
X49253Y-27754D01*
X49214Y-27758D01*
X49176Y-27755D01*
X49139Y-27744D01*
X49104Y-27726D01*
X49074Y-27701D01*
X49048Y-27671D01*
X49030Y-27637D01*
X49018Y-27600D01*
X49014Y-27561D01*
X49017Y-27523D01*
X49028Y-27486D01*
X49045Y-27451D01*
X49070Y-27421D01*
X49099Y-27395D01*
X49133Y-27376D01*
X49171Y-27364D01*
X49209Y-27360D01*
X49247Y-27363D01*
X49285Y-27373D01*
X49320Y-27391D01*
X49350Y-27415D01*
X49376Y-27444D01*
X49395Y-27478D01*
X49408Y-27515D01*
X49412Y-27554D01*
X49413Y-27559D01*
X49213Y-27359D02*
X49213Y-27759D01*
X50413Y-27559D02*
X50409Y-27597D01*
X50397Y-27635D01*
X50379Y-27669D01*
X50354Y-27699D01*
X50324Y-27724D01*
X50290Y-27743D01*
X50253Y-27754D01*
X50214Y-27758D01*
X50176Y-27755D01*
X50139Y-27744D01*
X50104Y-27726D01*
X50074Y-27701D01*
X50048Y-27671D01*
X50030Y-27637D01*
X50018Y-27600D01*
X50014Y-27561D01*
X50017Y-27523D01*
X50028Y-27486D01*
X50045Y-27451D01*
X50070Y-27421D01*
X50099Y-27395D01*
X50133Y-27376D01*
X50171Y-27364D01*
X50209Y-27360D01*
X50247Y-27363D01*
X50285Y-27373D01*
X50320Y-27391D01*
X50350Y-27415D01*
X50376Y-27444D01*
X50395Y-27478D01*
X50408Y-27515D01*
X50412Y-27554D01*
X50413Y-27559D01*
X50213Y-27359D02*
X50213Y-27759D01*
X64161Y-27559D02*
X64157Y-27597D01*
X64145Y-27635D01*
X64127Y-27669D01*
X64102Y-27699D01*
X64072Y-27724D01*
X64038Y-27743D01*
X64001Y-27754D01*
X63962Y-27758D01*
X63924Y-27755D01*
X63887Y-27744D01*
X63852Y-27726D01*
X63822Y-27701D01*
X63796Y-27671D01*
X63778Y-27637D01*
X63766Y-27600D01*
X63762Y-27561D01*
X63765Y-27523D01*
X63776Y-27486D01*
X63793Y-27451D01*
X63818Y-27421D01*
X63847Y-27395D01*
X63881Y-27376D01*
X63919Y-27364D01*
X63957Y-27360D01*
X63995Y-27363D01*
X64033Y-27373D01*
X64068Y-27391D01*
X64098Y-27415D01*
X64124Y-27444D01*
X64143Y-27478D01*
X64156Y-27515D01*
X64160Y-27554D01*
X64161Y-27559D01*
X63961Y-27359D02*
X63961Y-27759D01*
X65161Y-27559D02*
X65157Y-27597D01*
X65145Y-27635D01*
X65127Y-27669D01*
X65102Y-27699D01*
X65072Y-27724D01*
X65038Y-27743D01*
X65001Y-27754D01*
X64962Y-27758D01*
X64924Y-27755D01*
X64887Y-27744D01*
X64852Y-27726D01*
X64822Y-27701D01*
X64796Y-27671D01*
X64778Y-27637D01*
X64766Y-27600D01*
X64762Y-27561D01*
X64765Y-27523D01*
X64776Y-27486D01*
X64793Y-27451D01*
X64818Y-27421D01*
X64847Y-27395D01*
X64881Y-27376D01*
X64919Y-27364D01*
X64957Y-27360D01*
X64995Y-27363D01*
X65033Y-27373D01*
X65068Y-27391D01*
X65098Y-27415D01*
X65124Y-27444D01*
X65143Y-27478D01*
X65156Y-27515D01*
X65160Y-27554D01*
X65161Y-27559D01*
X64961Y-27359D02*
X64961Y-27759D01*
X66161Y-27559D02*
X66157Y-27597D01*
X66145Y-27635D01*
X66127Y-27669D01*
X66102Y-27699D01*
X66072Y-27724D01*
X66038Y-27743D01*
X66001Y-27754D01*
X65962Y-27758D01*
X65924Y-27755D01*
X65887Y-27744D01*
X65852Y-27726D01*
X65822Y-27701D01*
X65796Y-27671D01*
X65778Y-27637D01*
X65766Y-27600D01*
X65762Y-27561D01*
X65765Y-27523D01*
X65776Y-27486D01*
X65793Y-27451D01*
X65818Y-27421D01*
X65847Y-27395D01*
X65881Y-27376D01*
X65919Y-27364D01*
X65957Y-27360D01*
X65995Y-27363D01*
X66033Y-27373D01*
X66068Y-27391D01*
X66098Y-27415D01*
X66124Y-27444D01*
X66143Y-27478D01*
X66156Y-27515D01*
X66160Y-27554D01*
X66161Y-27559D01*
X65961Y-27359D02*
X65961Y-27759D01*
X54423Y-45395D02*
X54423Y-45005D01*
X54033Y-45005D01*
X54033Y-45395D01*
X54423Y-45395D01*
X54581Y-44726D02*
X54581Y-44336D01*
X54191Y-44336D01*
X54191Y-44726D01*
X54581Y-44726D01*
X54581Y-46064D02*
X54581Y-45674D01*
X54191Y-45674D01*
X54191Y-46064D01*
X54581Y-46064D01*
X54935Y-44135D02*
X54935Y-43745D01*
X54545Y-43745D01*
X54545Y-44135D01*
X54935Y-44135D01*
X54935Y-46655D02*
X54935Y-46265D01*
X54545Y-46265D01*
X54545Y-46655D01*
X54935Y-46655D01*
X55526Y-43781D02*
X55526Y-43391D01*
X55136Y-43391D01*
X55136Y-43781D01*
X55526Y-43781D01*
X55526Y-47009D02*
X55526Y-46619D01*
X55136Y-46619D01*
X55136Y-47009D01*
X55526Y-47009D01*
X56195Y-43623D02*
X56195Y-43233D01*
X55805Y-43233D01*
X55805Y-43623D01*
X56195Y-43623D01*
X56195Y-47167D02*
X56195Y-46777D01*
X55805Y-46777D01*
X55805Y-47167D01*
X56195Y-47167D01*
X56864Y-43781D02*
X56864Y-43391D01*
X56474Y-43391D01*
X56474Y-43781D01*
X56864Y-43781D01*
X56864Y-47009D02*
X56864Y-46619D01*
X56474Y-46619D01*
X56474Y-47009D01*
X56864Y-47009D01*
X57455Y-44135D02*
X57455Y-43745D01*
X57065Y-43745D01*
X57065Y-44135D01*
X57455Y-44135D01*
X57455Y-46655D02*
X57455Y-46265D01*
X57065Y-46265D01*
X57065Y-46655D01*
X57455Y-46655D01*
X57809Y-44726D02*
X57809Y-44336D01*
X57419Y-44336D01*
X57419Y-44726D01*
X57809Y-44726D01*
X57809Y-46064D02*
X57809Y-45674D01*
X57419Y-45674D01*
X57419Y-46064D01*
X57809Y-46064D01*
X57967Y-45395D02*
X57967Y-45005D01*
X57577Y-45005D01*
X57577Y-45395D01*
X57967Y-45395D01*
X44620Y-51009D02*
X44915Y-50714D01*
X44620Y-50419D01*
X44325Y-50714D01*
X44620Y-51009D01*
X45880Y-51009D02*
X46175Y-50714D01*
X45880Y-50419D01*
X45585Y-50714D01*
X45880Y-51009D01*
X39794Y-15778D02*
X39794Y-14930D01*
X38946Y-14930D01*
X38946Y-15778D01*
X39794Y-15778D01*
X38770Y-14754D02*
X39970Y-15954D01*
X39970Y-14754D02*
X38770Y-15954D01*
X39794Y-51211D02*
X39794Y-50363D01*
X38946Y-50363D01*
X38946Y-51211D01*
X39794Y-51211D01*
X38770Y-50187D02*
X39970Y-51387D01*
X39970Y-50187D02*
X38770Y-51387D01*
X75227Y-15778D02*
X75227Y-14930D01*
X74379Y-14930D01*
X74379Y-15778D01*
X75227Y-15778D01*
X74203Y-14754D02*
X75403Y-15954D01*
X75403Y-14754D02*
X74203Y-15954D01*
X75227Y-51211D02*
X75227Y-50363D01*
X74379Y-50363D01*
X74379Y-51211D01*
X75227Y-51211D01*
X74203Y-50187D02*
X75403Y-51387D01*
X75403Y-50187D02*
X74203Y-51387D01*
X41339Y-25905D02*
X42126Y-25118D01*
X41339Y-24331D01*
X40552Y-25118D01*
X41339Y-25905D01*
X41339Y-24331D02*
X41339Y-25905D01*
X42126Y-25118D02*
X40552Y-25118D01*
X57087Y-25905D02*
X57874Y-25118D01*
X57087Y-24331D01*
X56300Y-25118D01*
X57087Y-25905D01*
X57087Y-24331D02*
X57087Y-25905D01*
X57874Y-25118D02*
X56300Y-25118D01*
X72835Y-25905D02*
X73622Y-25118D01*
X72835Y-24331D01*
X72048Y-25118D01*
X72835Y-25905D01*
X72835Y-24331D02*
X72835Y-25905D01*
X73622Y-25118D02*
X72048Y-25118D01*
X63992Y-48492D02*
X63992Y-47308D01*
X62808Y-47308D01*
X62808Y-48492D01*
X63992Y-48492D01*
X62564Y-47064D02*
X64236Y-48736D01*
X69392Y-48492D02*
X69392Y-47308D01*
X68208Y-47308D01*
X68208Y-48492D01*
X69392Y-48492D01*
X67964Y-47064D02*
X69636Y-48736D01*
X74092Y-38092D02*
X74092Y-36908D01*
X72908Y-36908D01*
X72908Y-38092D01*
X74092Y-38092D01*
X72664Y-36664D02*
X74336Y-38336D01*
X74092Y-45092D02*
X74092Y-43908D01*
X72908Y-43908D01*
X72908Y-45092D01*
X74092Y-45092D01*
X72664Y-43664D02*
X74336Y-45336D01*
X39935Y-41934D02*
X40919Y-40950D01*
X39935Y-39966D01*
X38951Y-40950D01*
X39935Y-41934D01*
X39935Y-39966D02*
X39935Y-41934D01*
X50565Y-41934D02*
X51549Y-40950D01*
X50565Y-39966D01*
X49581Y-40950D01*
X50565Y-41934D01*
X50565Y-39966D02*
X50565Y-41934D01*
X56000Y-46381D02*
X57181Y-45200D01*
X56000Y-44019D01*
X54819Y-45200D01*
X56000Y-46381D01*
X54819Y-45200D02*
X57181Y-45200D01*
G54D11*
X37248Y-54041D02*
X37248Y-53241D01*
X37439Y-53241D01*
X37553Y-53279D01*
X37629Y-53355D01*
X37668Y-53431D01*
X37706Y-53584D01*
X37706Y-53698D01*
X37668Y-53850D01*
X37629Y-53927D01*
X37553Y-54003D01*
X37439Y-54041D01*
X37248Y-54041D01*
X38048Y-54041D02*
X38048Y-53507D01*
X38048Y-53660D02*
X38087Y-53584D01*
X38125Y-53546D01*
X38201Y-53507D01*
X38277Y-53507D01*
X38543Y-54041D02*
X38543Y-53507D01*
X38543Y-53241D02*
X38505Y-53279D01*
X38543Y-53317D01*
X38582Y-53279D01*
X38543Y-53241D01*
X38543Y-53317D01*
X39039Y-54041D02*
X38963Y-54003D01*
X38924Y-53927D01*
X38924Y-53241D01*
X39458Y-54041D02*
X39382Y-54003D01*
X39343Y-53927D01*
X39343Y-53241D01*
X40372Y-54041D02*
X40372Y-53241D01*
X40639Y-53812D01*
X40906Y-53241D01*
X40906Y-54041D01*
X41629Y-54041D02*
X41629Y-53622D01*
X41591Y-53546D01*
X41515Y-53507D01*
X41363Y-53507D01*
X41286Y-53546D01*
X41629Y-54003D02*
X41553Y-54041D01*
X41363Y-54041D01*
X41286Y-54003D01*
X41248Y-53927D01*
X41248Y-53850D01*
X41286Y-53774D01*
X41363Y-53736D01*
X41553Y-53736D01*
X41629Y-53698D01*
X42010Y-53507D02*
X42010Y-54307D01*
X42010Y-53546D02*
X42087Y-53507D01*
X42239Y-53507D01*
X42315Y-53546D01*
X42353Y-53584D01*
X42391Y-53660D01*
X42391Y-53888D01*
X42353Y-53965D01*
X42315Y-54003D01*
X42239Y-54041D01*
X42087Y-54041D01*
X42010Y-54003D01*
X42734Y-53965D02*
X42773Y-54003D01*
X42734Y-54041D01*
X42696Y-54003D01*
X42734Y-53965D01*
X42734Y-54041D01*
X42734Y-53546D02*
X42773Y-53584D01*
X42734Y-53622D01*
X42696Y-53584D01*
X42734Y-53546D01*
X42734Y-53622D01*
X36658Y-55297D02*
X36858Y-55497D01*
X36858Y-55297D02*
X36658Y-55497D01*
X37401Y-54921D02*
X37477Y-54921D01*
X37553Y-54959D01*
X37591Y-54997D01*
X37629Y-55073D01*
X37668Y-55226D01*
X37668Y-55416D01*
X37629Y-55568D01*
X37591Y-55645D01*
X37553Y-55683D01*
X37477Y-55721D01*
X37401Y-55721D01*
X37325Y-55683D01*
X37287Y-55645D01*
X37248Y-55568D01*
X37210Y-55416D01*
X37210Y-55226D01*
X37248Y-55073D01*
X37287Y-54997D01*
X37325Y-54959D01*
X37401Y-54921D01*
X38010Y-55645D02*
X38049Y-55683D01*
X38010Y-55721D01*
X37972Y-55683D01*
X38010Y-55645D01*
X38010Y-55721D01*
X38544Y-54921D02*
X38620Y-54921D01*
X38696Y-54959D01*
X38734Y-54997D01*
X38772Y-55073D01*
X38811Y-55226D01*
X38811Y-55416D01*
X38772Y-55568D01*
X38734Y-55645D01*
X38696Y-55683D01*
X38620Y-55721D01*
X38544Y-55721D01*
X38468Y-55683D01*
X38430Y-55645D01*
X38391Y-55568D01*
X38353Y-55416D01*
X38353Y-55226D01*
X38391Y-55073D01*
X38430Y-54997D01*
X38468Y-54959D01*
X38544Y-54921D01*
X39115Y-54997D02*
X39153Y-54959D01*
X39230Y-54921D01*
X39420Y-54921D01*
X39496Y-54959D01*
X39534Y-54997D01*
X39573Y-55073D01*
X39573Y-55149D01*
X39534Y-55264D01*
X39077Y-55721D01*
X39573Y-55721D01*
X40068Y-54921D02*
X40144Y-54921D01*
X40220Y-54959D01*
X40258Y-54997D01*
X40296Y-55073D01*
X40335Y-55226D01*
X40335Y-55416D01*
X40296Y-55568D01*
X40258Y-55645D01*
X40220Y-55683D01*
X40144Y-55721D01*
X40068Y-55721D01*
X39992Y-55683D01*
X39954Y-55645D01*
X39915Y-55568D01*
X39877Y-55416D01*
X39877Y-55226D01*
X39915Y-55073D01*
X39954Y-54997D01*
X39992Y-54959D01*
X40068Y-54921D01*
X40639Y-54921D02*
X40639Y-55073D01*
X40944Y-54921D02*
X40944Y-55073D01*
X42469Y-54883D02*
X41783Y-55911D01*
X43498Y-54921D02*
X43574Y-54921D01*
X43650Y-54959D01*
X43688Y-54997D01*
X43726Y-55073D01*
X43765Y-55226D01*
X43765Y-55416D01*
X43726Y-55568D01*
X43688Y-55645D01*
X43650Y-55683D01*
X43574Y-55721D01*
X43498Y-55721D01*
X43422Y-55683D01*
X43384Y-55645D01*
X43345Y-55568D01*
X43307Y-55416D01*
X43307Y-55226D01*
X43345Y-55073D01*
X43384Y-54997D01*
X43422Y-54959D01*
X43498Y-54921D01*
X44107Y-55645D02*
X44146Y-55683D01*
X44107Y-55721D01*
X44069Y-55683D01*
X44107Y-55645D01*
X44107Y-55721D01*
X44869Y-54921D02*
X44488Y-54921D01*
X44450Y-55302D01*
X44488Y-55264D01*
X44565Y-55226D01*
X44755Y-55226D01*
X44831Y-55264D01*
X44869Y-55302D01*
X44908Y-55378D01*
X44908Y-55568D01*
X44869Y-55645D01*
X44831Y-55683D01*
X44755Y-55721D01*
X44565Y-55721D01*
X44488Y-55683D01*
X44450Y-55645D01*
X45670Y-55721D02*
X45212Y-55721D01*
X45441Y-55721D02*
X45441Y-54921D01*
X45365Y-55035D01*
X45289Y-55111D01*
X45212Y-55149D01*
X46012Y-55721D02*
X46012Y-55187D01*
X46012Y-55264D02*
X46051Y-55226D01*
X46127Y-55187D01*
X46241Y-55187D01*
X46317Y-55226D01*
X46355Y-55302D01*
X46355Y-55721D01*
X46355Y-55302D02*
X46393Y-55226D01*
X46470Y-55187D01*
X46584Y-55187D01*
X46660Y-55226D01*
X46698Y-55302D01*
X46698Y-55721D01*
X47079Y-55721D02*
X47079Y-55187D01*
X47079Y-55264D02*
X47118Y-55226D01*
X47194Y-55187D01*
X47308Y-55187D01*
X47384Y-55226D01*
X47422Y-55302D01*
X47422Y-55721D01*
X47422Y-55302D02*
X47460Y-55226D01*
X47537Y-55187D01*
X47651Y-55187D01*
X47727Y-55226D01*
X47765Y-55302D01*
X47765Y-55721D01*
X48985Y-56026D02*
X48947Y-55987D01*
X48871Y-55873D01*
X48833Y-55797D01*
X48795Y-55683D01*
X48756Y-55492D01*
X48756Y-55340D01*
X48795Y-55149D01*
X48833Y-55035D01*
X48871Y-54959D01*
X48947Y-54845D01*
X48985Y-54807D01*
X49670Y-54921D02*
X49289Y-54921D01*
X49251Y-55302D01*
X49289Y-55264D01*
X49366Y-55226D01*
X49556Y-55226D01*
X49632Y-55264D01*
X49670Y-55302D01*
X49709Y-55378D01*
X49709Y-55568D01*
X49670Y-55645D01*
X49632Y-55683D01*
X49556Y-55721D01*
X49366Y-55721D01*
X49289Y-55683D01*
X49251Y-55645D01*
X50661Y-55721D02*
X50661Y-54921D01*
X51004Y-55721D02*
X51004Y-55302D01*
X50966Y-55226D01*
X50890Y-55187D01*
X50776Y-55187D01*
X50700Y-55226D01*
X50661Y-55264D01*
X51500Y-55721D02*
X51424Y-55683D01*
X51385Y-55645D01*
X51347Y-55568D01*
X51347Y-55340D01*
X51385Y-55264D01*
X51424Y-55226D01*
X51500Y-55187D01*
X51614Y-55187D01*
X51690Y-55226D01*
X51728Y-55264D01*
X51766Y-55340D01*
X51766Y-55568D01*
X51728Y-55645D01*
X51690Y-55683D01*
X51614Y-55721D01*
X51500Y-55721D01*
X52224Y-55721D02*
X52148Y-55683D01*
X52109Y-55607D01*
X52109Y-54921D01*
X52833Y-55683D02*
X52757Y-55721D01*
X52605Y-55721D01*
X52528Y-55683D01*
X52490Y-55607D01*
X52490Y-55302D01*
X52528Y-55226D01*
X52605Y-55187D01*
X52757Y-55187D01*
X52833Y-55226D01*
X52871Y-55302D01*
X52871Y-55378D01*
X52490Y-55454D01*
X53176Y-55683D02*
X53253Y-55721D01*
X53405Y-55721D01*
X53481Y-55683D01*
X53519Y-55607D01*
X53519Y-55568D01*
X53481Y-55492D01*
X53405Y-55454D01*
X53291Y-55454D01*
X53214Y-55416D01*
X53176Y-55340D01*
X53176Y-55302D01*
X53214Y-55226D01*
X53291Y-55187D01*
X53405Y-55187D01*
X53481Y-55226D01*
X53786Y-56026D02*
X53824Y-55987D01*
X53901Y-55873D01*
X53939Y-55797D01*
X53977Y-55683D01*
X54015Y-55492D01*
X54015Y-55340D01*
X53977Y-55149D01*
X53939Y-55035D01*
X53901Y-54959D01*
X53824Y-54845D01*
X53786Y-54807D01*
G54D10*
X36858Y-56452D02*
X36855Y-56475D01*
X36848Y-56497D01*
X36837Y-56518D01*
X36823Y-56536D01*
X36805Y-56551D01*
X36784Y-56562D01*
X36762Y-56569D01*
X36738Y-56571D01*
X36716Y-56569D01*
X36694Y-56563D01*
X36673Y-56552D01*
X36655Y-56537D01*
X36639Y-56519D01*
X36628Y-56499D01*
X36621Y-56476D01*
X36619Y-56453D01*
X36620Y-56431D01*
X36627Y-56408D01*
X36638Y-56387D01*
X36652Y-56369D01*
X36670Y-56354D01*
X36690Y-56343D01*
X36713Y-56335D01*
X36736Y-56333D01*
X36758Y-56334D01*
X36781Y-56341D01*
X36802Y-56351D01*
X36820Y-56366D01*
X36836Y-56383D01*
X36847Y-56404D01*
X36855Y-56426D01*
X36857Y-56449D01*
X36858Y-56452D01*
G54D11*
X37401Y-55976D02*
X37477Y-55976D01*
X37553Y-56014D01*
X37591Y-56052D01*
X37629Y-56128D01*
X37668Y-56281D01*
X37668Y-56471D01*
X37629Y-56623D01*
X37591Y-56700D01*
X37553Y-56738D01*
X37477Y-56776D01*
X37401Y-56776D01*
X37325Y-56738D01*
X37287Y-56700D01*
X37248Y-56623D01*
X37210Y-56471D01*
X37210Y-56281D01*
X37248Y-56128D01*
X37287Y-56052D01*
X37325Y-56014D01*
X37401Y-55976D01*
X38010Y-56700D02*
X38049Y-56738D01*
X38010Y-56776D01*
X37972Y-56738D01*
X38010Y-56700D01*
X38010Y-56776D01*
X38544Y-55976D02*
X38620Y-55976D01*
X38696Y-56014D01*
X38734Y-56052D01*
X38772Y-56128D01*
X38811Y-56281D01*
X38811Y-56471D01*
X38772Y-56623D01*
X38734Y-56700D01*
X38696Y-56738D01*
X38620Y-56776D01*
X38544Y-56776D01*
X38468Y-56738D01*
X38430Y-56700D01*
X38391Y-56623D01*
X38353Y-56471D01*
X38353Y-56281D01*
X38391Y-56128D01*
X38430Y-56052D01*
X38468Y-56014D01*
X38544Y-55976D01*
X39115Y-56052D02*
X39153Y-56014D01*
X39230Y-55976D01*
X39420Y-55976D01*
X39496Y-56014D01*
X39534Y-56052D01*
X39573Y-56128D01*
X39573Y-56204D01*
X39534Y-56319D01*
X39077Y-56776D01*
X39573Y-56776D01*
X40258Y-56242D02*
X40258Y-56776D01*
X40068Y-55938D02*
X39877Y-56509D01*
X40373Y-56509D01*
X40639Y-55976D02*
X40639Y-56128D01*
X40944Y-55976D02*
X40944Y-56128D01*
X42469Y-55938D02*
X41783Y-56966D01*
X43498Y-55976D02*
X43574Y-55976D01*
X43650Y-56014D01*
X43688Y-56052D01*
X43726Y-56128D01*
X43765Y-56281D01*
X43765Y-56471D01*
X43726Y-56623D01*
X43688Y-56700D01*
X43650Y-56738D01*
X43574Y-56776D01*
X43498Y-56776D01*
X43422Y-56738D01*
X43384Y-56700D01*
X43345Y-56623D01*
X43307Y-56471D01*
X43307Y-56281D01*
X43345Y-56128D01*
X43384Y-56052D01*
X43422Y-56014D01*
X43498Y-55976D01*
X44107Y-56700D02*
X44146Y-56738D01*
X44107Y-56776D01*
X44069Y-56738D01*
X44107Y-56700D01*
X44107Y-56776D01*
X44831Y-55976D02*
X44679Y-55976D01*
X44603Y-56014D01*
X44565Y-56052D01*
X44488Y-56166D01*
X44450Y-56319D01*
X44450Y-56623D01*
X44488Y-56700D01*
X44527Y-56738D01*
X44603Y-56776D01*
X44755Y-56776D01*
X44831Y-56738D01*
X44869Y-56700D01*
X44908Y-56623D01*
X44908Y-56433D01*
X44869Y-56357D01*
X44831Y-56319D01*
X44755Y-56281D01*
X44603Y-56281D01*
X44527Y-56319D01*
X44488Y-56357D01*
X44450Y-56433D01*
X45670Y-56776D02*
X45212Y-56776D01*
X45441Y-56776D02*
X45441Y-55976D01*
X45365Y-56090D01*
X45289Y-56166D01*
X45212Y-56204D01*
X46012Y-56776D02*
X46012Y-56242D01*
X46012Y-56319D02*
X46051Y-56281D01*
X46127Y-56242D01*
X46241Y-56242D01*
X46317Y-56281D01*
X46355Y-56357D01*
X46355Y-56776D01*
X46355Y-56357D02*
X46393Y-56281D01*
X46470Y-56242D01*
X46584Y-56242D01*
X46660Y-56281D01*
X46698Y-56357D01*
X46698Y-56776D01*
X47079Y-56776D02*
X47079Y-56242D01*
X47079Y-56319D02*
X47118Y-56281D01*
X47194Y-56242D01*
X47308Y-56242D01*
X47384Y-56281D01*
X47422Y-56357D01*
X47422Y-56776D01*
X47422Y-56357D02*
X47460Y-56281D01*
X47537Y-56242D01*
X47651Y-56242D01*
X47727Y-56281D01*
X47765Y-56357D01*
X47765Y-56776D01*
X48985Y-57081D02*
X48947Y-57042D01*
X48871Y-56928D01*
X48833Y-56852D01*
X48795Y-56738D01*
X48756Y-56547D01*
X48756Y-56395D01*
X48795Y-56204D01*
X48833Y-56090D01*
X48871Y-56014D01*
X48947Y-55900D01*
X48985Y-55862D01*
X49213Y-55976D02*
X49709Y-55976D01*
X49442Y-56281D01*
X49556Y-56281D01*
X49632Y-56319D01*
X49670Y-56357D01*
X49709Y-56433D01*
X49709Y-56623D01*
X49670Y-56700D01*
X49632Y-56738D01*
X49556Y-56776D01*
X49328Y-56776D01*
X49251Y-56738D01*
X49213Y-56700D01*
X50661Y-56776D02*
X50661Y-55976D01*
X51004Y-56776D02*
X51004Y-56357D01*
X50966Y-56281D01*
X50890Y-56242D01*
X50776Y-56242D01*
X50700Y-56281D01*
X50661Y-56319D01*
X51500Y-56776D02*
X51424Y-56738D01*
X51385Y-56700D01*
X51347Y-56623D01*
X51347Y-56395D01*
X51385Y-56319D01*
X51424Y-56281D01*
X51500Y-56242D01*
X51614Y-56242D01*
X51690Y-56281D01*
X51728Y-56319D01*
X51766Y-56395D01*
X51766Y-56623D01*
X51728Y-56700D01*
X51690Y-56738D01*
X51614Y-56776D01*
X51500Y-56776D01*
X52224Y-56776D02*
X52148Y-56738D01*
X52109Y-56662D01*
X52109Y-55976D01*
X52833Y-56738D02*
X52757Y-56776D01*
X52605Y-56776D01*
X52528Y-56738D01*
X52490Y-56662D01*
X52490Y-56357D01*
X52528Y-56281D01*
X52605Y-56242D01*
X52757Y-56242D01*
X52833Y-56281D01*
X52871Y-56357D01*
X52871Y-56433D01*
X52490Y-56509D01*
X53176Y-56738D02*
X53253Y-56776D01*
X53405Y-56776D01*
X53481Y-56738D01*
X53519Y-56662D01*
X53519Y-56623D01*
X53481Y-56547D01*
X53405Y-56509D01*
X53291Y-56509D01*
X53214Y-56471D01*
X53176Y-56395D01*
X53176Y-56357D01*
X53214Y-56281D01*
X53291Y-56242D01*
X53405Y-56242D01*
X53481Y-56281D01*
X53786Y-57081D02*
X53824Y-57042D01*
X53901Y-56928D01*
X53939Y-56852D01*
X53977Y-56738D01*
X54015Y-56547D01*
X54015Y-56395D01*
X53977Y-56204D01*
X53939Y-56090D01*
X53901Y-56014D01*
X53824Y-55900D01*
X53786Y-55862D01*
X36700Y-57350D02*
X36700Y-57664D01*
X36857Y-57507D02*
X36543Y-57507D01*
X37401Y-57031D02*
X37477Y-57031D01*
X37553Y-57069D01*
X37591Y-57107D01*
X37629Y-57183D01*
X37668Y-57336D01*
X37668Y-57526D01*
X37629Y-57678D01*
X37591Y-57755D01*
X37553Y-57793D01*
X37477Y-57831D01*
X37401Y-57831D01*
X37325Y-57793D01*
X37287Y-57755D01*
X37248Y-57678D01*
X37210Y-57526D01*
X37210Y-57336D01*
X37248Y-57183D01*
X37287Y-57107D01*
X37325Y-57069D01*
X37401Y-57031D01*
X38010Y-57755D02*
X38049Y-57793D01*
X38010Y-57831D01*
X37972Y-57793D01*
X38010Y-57755D01*
X38010Y-57831D01*
X38544Y-57031D02*
X38620Y-57031D01*
X38696Y-57069D01*
X38734Y-57107D01*
X38772Y-57183D01*
X38811Y-57336D01*
X38811Y-57526D01*
X38772Y-57678D01*
X38734Y-57755D01*
X38696Y-57793D01*
X38620Y-57831D01*
X38544Y-57831D01*
X38468Y-57793D01*
X38430Y-57755D01*
X38391Y-57678D01*
X38353Y-57526D01*
X38353Y-57336D01*
X38391Y-57183D01*
X38430Y-57107D01*
X38468Y-57069D01*
X38544Y-57031D01*
X39077Y-57031D02*
X39573Y-57031D01*
X39306Y-57336D01*
X39420Y-57336D01*
X39496Y-57374D01*
X39534Y-57412D01*
X39573Y-57488D01*
X39573Y-57678D01*
X39534Y-57755D01*
X39496Y-57793D01*
X39420Y-57831D01*
X39192Y-57831D01*
X39115Y-57793D01*
X39077Y-57755D01*
X39877Y-57107D02*
X39915Y-57069D01*
X39992Y-57031D01*
X40182Y-57031D01*
X40258Y-57069D01*
X40296Y-57107D01*
X40335Y-57183D01*
X40335Y-57259D01*
X40296Y-57374D01*
X39839Y-57831D01*
X40335Y-57831D01*
X40639Y-57031D02*
X40639Y-57183D01*
X40944Y-57031D02*
X40944Y-57183D01*
X42469Y-56993D02*
X41783Y-58021D01*
X43498Y-57031D02*
X43574Y-57031D01*
X43650Y-57069D01*
X43688Y-57107D01*
X43726Y-57183D01*
X43765Y-57336D01*
X43765Y-57526D01*
X43726Y-57678D01*
X43688Y-57755D01*
X43650Y-57793D01*
X43574Y-57831D01*
X43498Y-57831D01*
X43422Y-57793D01*
X43384Y-57755D01*
X43345Y-57678D01*
X43307Y-57526D01*
X43307Y-57336D01*
X43345Y-57183D01*
X43384Y-57107D01*
X43422Y-57069D01*
X43498Y-57031D01*
X44107Y-57755D02*
X44146Y-57793D01*
X44107Y-57831D01*
X44069Y-57793D01*
X44107Y-57755D01*
X44107Y-57831D01*
X44603Y-57374D02*
X44527Y-57336D01*
X44488Y-57297D01*
X44450Y-57221D01*
X44450Y-57183D01*
X44488Y-57107D01*
X44527Y-57069D01*
X44603Y-57031D01*
X44755Y-57031D01*
X44831Y-57069D01*
X44869Y-57107D01*
X44908Y-57183D01*
X44908Y-57221D01*
X44869Y-57297D01*
X44831Y-57336D01*
X44755Y-57374D01*
X44603Y-57374D01*
X44527Y-57412D01*
X44488Y-57450D01*
X44450Y-57526D01*
X44450Y-57678D01*
X44488Y-57755D01*
X44527Y-57793D01*
X44603Y-57831D01*
X44755Y-57831D01*
X44831Y-57793D01*
X44869Y-57755D01*
X44908Y-57678D01*
X44908Y-57526D01*
X44869Y-57450D01*
X44831Y-57412D01*
X44755Y-57374D01*
X45403Y-57031D02*
X45479Y-57031D01*
X45555Y-57069D01*
X45593Y-57107D01*
X45631Y-57183D01*
X45670Y-57336D01*
X45670Y-57526D01*
X45631Y-57678D01*
X45593Y-57755D01*
X45555Y-57793D01*
X45479Y-57831D01*
X45403Y-57831D01*
X45327Y-57793D01*
X45289Y-57755D01*
X45250Y-57678D01*
X45212Y-57526D01*
X45212Y-57336D01*
X45250Y-57183D01*
X45289Y-57107D01*
X45327Y-57069D01*
X45403Y-57031D01*
X46012Y-57831D02*
X46012Y-57297D01*
X46012Y-57374D02*
X46051Y-57336D01*
X46127Y-57297D01*
X46241Y-57297D01*
X46317Y-57336D01*
X46355Y-57412D01*
X46355Y-57831D01*
X46355Y-57412D02*
X46393Y-57336D01*
X46470Y-57297D01*
X46584Y-57297D01*
X46660Y-57336D01*
X46698Y-57412D01*
X46698Y-57831D01*
X47079Y-57831D02*
X47079Y-57297D01*
X47079Y-57374D02*
X47118Y-57336D01*
X47194Y-57297D01*
X47308Y-57297D01*
X47384Y-57336D01*
X47422Y-57412D01*
X47422Y-57831D01*
X47422Y-57412D02*
X47460Y-57336D01*
X47537Y-57297D01*
X47651Y-57297D01*
X47727Y-57336D01*
X47765Y-57412D01*
X47765Y-57831D01*
X48985Y-58136D02*
X48947Y-58097D01*
X48871Y-57983D01*
X48833Y-57907D01*
X48795Y-57793D01*
X48756Y-57602D01*
X48756Y-57450D01*
X48795Y-57259D01*
X48833Y-57145D01*
X48871Y-57069D01*
X48947Y-56955D01*
X48985Y-56917D01*
X49632Y-57031D02*
X49480Y-57031D01*
X49404Y-57069D01*
X49366Y-57107D01*
X49289Y-57221D01*
X49251Y-57374D01*
X49251Y-57678D01*
X49289Y-57755D01*
X49328Y-57793D01*
X49404Y-57831D01*
X49556Y-57831D01*
X49632Y-57793D01*
X49670Y-57755D01*
X49709Y-57678D01*
X49709Y-57488D01*
X49670Y-57412D01*
X49632Y-57374D01*
X49556Y-57336D01*
X49404Y-57336D01*
X49328Y-57374D01*
X49289Y-57412D01*
X49251Y-57488D01*
X50661Y-57831D02*
X50661Y-57031D01*
X51004Y-57831D02*
X51004Y-57412D01*
X50966Y-57336D01*
X50890Y-57297D01*
X50776Y-57297D01*
X50700Y-57336D01*
X50661Y-57374D01*
X51500Y-57831D02*
X51424Y-57793D01*
X51385Y-57755D01*
X51347Y-57678D01*
X51347Y-57450D01*
X51385Y-57374D01*
X51424Y-57336D01*
X51500Y-57297D01*
X51614Y-57297D01*
X51690Y-57336D01*
X51728Y-57374D01*
X51766Y-57450D01*
X51766Y-57678D01*
X51728Y-57755D01*
X51690Y-57793D01*
X51614Y-57831D01*
X51500Y-57831D01*
X52224Y-57831D02*
X52148Y-57793D01*
X52109Y-57717D01*
X52109Y-57031D01*
X52833Y-57793D02*
X52757Y-57831D01*
X52605Y-57831D01*
X52528Y-57793D01*
X52490Y-57717D01*
X52490Y-57412D01*
X52528Y-57336D01*
X52605Y-57297D01*
X52757Y-57297D01*
X52833Y-57336D01*
X52871Y-57412D01*
X52871Y-57488D01*
X52490Y-57564D01*
X53176Y-57793D02*
X53253Y-57831D01*
X53405Y-57831D01*
X53481Y-57793D01*
X53519Y-57717D01*
X53519Y-57678D01*
X53481Y-57602D01*
X53405Y-57564D01*
X53291Y-57564D01*
X53214Y-57526D01*
X53176Y-57450D01*
X53176Y-57412D01*
X53214Y-57336D01*
X53291Y-57297D01*
X53405Y-57297D01*
X53481Y-57336D01*
X53786Y-58136D02*
X53824Y-58097D01*
X53901Y-57983D01*
X53939Y-57907D01*
X53977Y-57793D01*
X54015Y-57602D01*
X54015Y-57450D01*
X53977Y-57259D01*
X53939Y-57145D01*
X53901Y-57069D01*
X53824Y-56955D01*
X53786Y-56917D01*
G54D10*
X36858Y-58562D02*
X36854Y-58593D01*
X36845Y-58622D01*
X36831Y-58650D01*
X36811Y-58674D01*
X36787Y-58694D01*
X36760Y-58709D01*
X36730Y-58718D01*
X36699Y-58721D01*
X36669Y-58719D01*
X36639Y-58710D01*
X36611Y-58695D01*
X36587Y-58676D01*
X36566Y-58652D01*
X36551Y-58625D01*
X36542Y-58595D01*
X36539Y-58564D01*
X36541Y-58534D01*
X36550Y-58504D01*
X36564Y-58476D01*
X36583Y-58451D01*
X36607Y-58431D01*
X36634Y-58416D01*
X36664Y-58406D01*
X36695Y-58403D01*
X36725Y-58405D01*
X36755Y-58413D01*
X36783Y-58427D01*
X36808Y-58447D01*
X36828Y-58470D01*
X36844Y-58497D01*
X36854Y-58527D01*
X36857Y-58558D01*
X36858Y-58562D01*
X36538Y-58402D02*
X36858Y-58722D01*
X36858Y-58402D02*
X36538Y-58722D01*
G54D11*
X37401Y-58086D02*
X37477Y-58086D01*
X37553Y-58124D01*
X37591Y-58162D01*
X37629Y-58238D01*
X37668Y-58391D01*
X37668Y-58581D01*
X37629Y-58733D01*
X37591Y-58810D01*
X37553Y-58848D01*
X37477Y-58886D01*
X37401Y-58886D01*
X37325Y-58848D01*
X37287Y-58810D01*
X37248Y-58733D01*
X37210Y-58581D01*
X37210Y-58391D01*
X37248Y-58238D01*
X37287Y-58162D01*
X37325Y-58124D01*
X37401Y-58086D01*
X38010Y-58810D02*
X38049Y-58848D01*
X38010Y-58886D01*
X37972Y-58848D01*
X38010Y-58810D01*
X38010Y-58886D01*
X38544Y-58086D02*
X38620Y-58086D01*
X38696Y-58124D01*
X38734Y-58162D01*
X38772Y-58238D01*
X38811Y-58391D01*
X38811Y-58581D01*
X38772Y-58733D01*
X38734Y-58810D01*
X38696Y-58848D01*
X38620Y-58886D01*
X38544Y-58886D01*
X38468Y-58848D01*
X38430Y-58810D01*
X38391Y-58733D01*
X38353Y-58581D01*
X38353Y-58391D01*
X38391Y-58238D01*
X38430Y-58162D01*
X38468Y-58124D01*
X38544Y-58086D01*
X39077Y-58086D02*
X39573Y-58086D01*
X39306Y-58391D01*
X39420Y-58391D01*
X39496Y-58429D01*
X39534Y-58467D01*
X39573Y-58543D01*
X39573Y-58733D01*
X39534Y-58810D01*
X39496Y-58848D01*
X39420Y-58886D01*
X39192Y-58886D01*
X39115Y-58848D01*
X39077Y-58810D01*
X39877Y-58162D02*
X39915Y-58124D01*
X39992Y-58086D01*
X40182Y-58086D01*
X40258Y-58124D01*
X40296Y-58162D01*
X40335Y-58238D01*
X40335Y-58314D01*
X40296Y-58429D01*
X39839Y-58886D01*
X40335Y-58886D01*
X40639Y-58086D02*
X40639Y-58238D01*
X40944Y-58086D02*
X40944Y-58238D01*
X42469Y-58048D02*
X41783Y-59076D01*
X43498Y-58086D02*
X43574Y-58086D01*
X43650Y-58124D01*
X43688Y-58162D01*
X43726Y-58238D01*
X43765Y-58391D01*
X43765Y-58581D01*
X43726Y-58733D01*
X43688Y-58810D01*
X43650Y-58848D01*
X43574Y-58886D01*
X43498Y-58886D01*
X43422Y-58848D01*
X43384Y-58810D01*
X43345Y-58733D01*
X43307Y-58581D01*
X43307Y-58391D01*
X43345Y-58238D01*
X43384Y-58162D01*
X43422Y-58124D01*
X43498Y-58086D01*
X44107Y-58810D02*
X44146Y-58848D01*
X44107Y-58886D01*
X44069Y-58848D01*
X44107Y-58810D01*
X44107Y-58886D01*
X44603Y-58429D02*
X44527Y-58391D01*
X44488Y-58352D01*
X44450Y-58276D01*
X44450Y-58238D01*
X44488Y-58162D01*
X44527Y-58124D01*
X44603Y-58086D01*
X44755Y-58086D01*
X44831Y-58124D01*
X44869Y-58162D01*
X44908Y-58238D01*
X44908Y-58276D01*
X44869Y-58352D01*
X44831Y-58391D01*
X44755Y-58429D01*
X44603Y-58429D01*
X44527Y-58467D01*
X44488Y-58505D01*
X44450Y-58581D01*
X44450Y-58733D01*
X44488Y-58810D01*
X44527Y-58848D01*
X44603Y-58886D01*
X44755Y-58886D01*
X44831Y-58848D01*
X44869Y-58810D01*
X44908Y-58733D01*
X44908Y-58581D01*
X44869Y-58505D01*
X44831Y-58467D01*
X44755Y-58429D01*
X45670Y-58886D02*
X45212Y-58886D01*
X45441Y-58886D02*
X45441Y-58086D01*
X45365Y-58200D01*
X45289Y-58276D01*
X45212Y-58314D01*
X46012Y-58886D02*
X46012Y-58352D01*
X46012Y-58429D02*
X46051Y-58391D01*
X46127Y-58352D01*
X46241Y-58352D01*
X46317Y-58391D01*
X46355Y-58467D01*
X46355Y-58886D01*
X46355Y-58467D02*
X46393Y-58391D01*
X46470Y-58352D01*
X46584Y-58352D01*
X46660Y-58391D01*
X46698Y-58467D01*
X46698Y-58886D01*
X47079Y-58886D02*
X47079Y-58352D01*
X47079Y-58429D02*
X47118Y-58391D01*
X47194Y-58352D01*
X47308Y-58352D01*
X47384Y-58391D01*
X47422Y-58467D01*
X47422Y-58886D01*
X47422Y-58467D02*
X47460Y-58391D01*
X47537Y-58352D01*
X47651Y-58352D01*
X47727Y-58391D01*
X47765Y-58467D01*
X47765Y-58886D01*
X48985Y-59191D02*
X48947Y-59152D01*
X48871Y-59038D01*
X48833Y-58962D01*
X48795Y-58848D01*
X48756Y-58657D01*
X48756Y-58505D01*
X48795Y-58314D01*
X48833Y-58200D01*
X48871Y-58124D01*
X48947Y-58010D01*
X48985Y-57972D01*
X49404Y-58429D02*
X49328Y-58391D01*
X49289Y-58352D01*
X49251Y-58276D01*
X49251Y-58238D01*
X49289Y-58162D01*
X49328Y-58124D01*
X49404Y-58086D01*
X49556Y-58086D01*
X49632Y-58124D01*
X49670Y-58162D01*
X49709Y-58238D01*
X49709Y-58276D01*
X49670Y-58352D01*
X49632Y-58391D01*
X49556Y-58429D01*
X49404Y-58429D01*
X49328Y-58467D01*
X49289Y-58505D01*
X49251Y-58581D01*
X49251Y-58733D01*
X49289Y-58810D01*
X49328Y-58848D01*
X49404Y-58886D01*
X49556Y-58886D01*
X49632Y-58848D01*
X49670Y-58810D01*
X49709Y-58733D01*
X49709Y-58581D01*
X49670Y-58505D01*
X49632Y-58467D01*
X49556Y-58429D01*
X50661Y-58886D02*
X50661Y-58086D01*
X51004Y-58886D02*
X51004Y-58467D01*
X50966Y-58391D01*
X50890Y-58352D01*
X50776Y-58352D01*
X50700Y-58391D01*
X50661Y-58429D01*
X51500Y-58886D02*
X51424Y-58848D01*
X51385Y-58810D01*
X51347Y-58733D01*
X51347Y-58505D01*
X51385Y-58429D01*
X51424Y-58391D01*
X51500Y-58352D01*
X51614Y-58352D01*
X51690Y-58391D01*
X51728Y-58429D01*
X51766Y-58505D01*
X51766Y-58733D01*
X51728Y-58810D01*
X51690Y-58848D01*
X51614Y-58886D01*
X51500Y-58886D01*
X52224Y-58886D02*
X52148Y-58848D01*
X52109Y-58772D01*
X52109Y-58086D01*
X52833Y-58848D02*
X52757Y-58886D01*
X52605Y-58886D01*
X52528Y-58848D01*
X52490Y-58772D01*
X52490Y-58467D01*
X52528Y-58391D01*
X52605Y-58352D01*
X52757Y-58352D01*
X52833Y-58391D01*
X52871Y-58467D01*
X52871Y-58543D01*
X52490Y-58619D01*
X53176Y-58848D02*
X53253Y-58886D01*
X53405Y-58886D01*
X53481Y-58848D01*
X53519Y-58772D01*
X53519Y-58733D01*
X53481Y-58657D01*
X53405Y-58619D01*
X53291Y-58619D01*
X53214Y-58581D01*
X53176Y-58505D01*
X53176Y-58467D01*
X53214Y-58391D01*
X53291Y-58352D01*
X53405Y-58352D01*
X53481Y-58391D01*
X53786Y-59191D02*
X53824Y-59152D01*
X53901Y-59038D01*
X53939Y-58962D01*
X53977Y-58848D01*
X54015Y-58657D01*
X54015Y-58505D01*
X53977Y-58314D01*
X53939Y-58200D01*
X53901Y-58124D01*
X53824Y-58010D01*
X53786Y-57972D01*
G54D10*
X36858Y-59617D02*
X36854Y-59655D01*
X36843Y-59692D01*
X36825Y-59726D01*
X36800Y-59755D01*
X36771Y-59780D01*
X36737Y-59798D01*
X36700Y-59809D01*
X36662Y-59813D01*
X36625Y-59810D01*
X36588Y-59799D01*
X36554Y-59781D01*
X36524Y-59757D01*
X36499Y-59728D01*
X36480Y-59694D01*
X36469Y-59657D01*
X36465Y-59619D01*
X36468Y-59582D01*
X36478Y-59545D01*
X36496Y-59511D01*
X36520Y-59481D01*
X36549Y-59456D01*
X36583Y-59437D01*
X36619Y-59425D01*
X36657Y-59421D01*
X36695Y-59423D01*
X36732Y-59434D01*
X36766Y-59451D01*
X36796Y-59475D01*
X36821Y-59504D01*
X36840Y-59537D01*
X36853Y-59574D01*
X36857Y-59612D01*
X36858Y-59617D01*
X36464Y-59617D02*
X36858Y-59617D01*
G54D11*
X37401Y-59141D02*
X37477Y-59141D01*
X37553Y-59179D01*
X37591Y-59217D01*
X37629Y-59293D01*
X37668Y-59446D01*
X37668Y-59636D01*
X37629Y-59788D01*
X37591Y-59865D01*
X37553Y-59903D01*
X37477Y-59941D01*
X37401Y-59941D01*
X37325Y-59903D01*
X37287Y-59865D01*
X37248Y-59788D01*
X37210Y-59636D01*
X37210Y-59446D01*
X37248Y-59293D01*
X37287Y-59217D01*
X37325Y-59179D01*
X37401Y-59141D01*
X38010Y-59865D02*
X38049Y-59903D01*
X38010Y-59941D01*
X37972Y-59903D01*
X38010Y-59865D01*
X38010Y-59941D01*
X38544Y-59141D02*
X38620Y-59141D01*
X38696Y-59179D01*
X38734Y-59217D01*
X38772Y-59293D01*
X38811Y-59446D01*
X38811Y-59636D01*
X38772Y-59788D01*
X38734Y-59865D01*
X38696Y-59903D01*
X38620Y-59941D01*
X38544Y-59941D01*
X38468Y-59903D01*
X38430Y-59865D01*
X38391Y-59788D01*
X38353Y-59636D01*
X38353Y-59446D01*
X38391Y-59293D01*
X38430Y-59217D01*
X38468Y-59179D01*
X38544Y-59141D01*
X39077Y-59141D02*
X39573Y-59141D01*
X39306Y-59446D01*
X39420Y-59446D01*
X39496Y-59484D01*
X39534Y-59522D01*
X39573Y-59598D01*
X39573Y-59788D01*
X39534Y-59865D01*
X39496Y-59903D01*
X39420Y-59941D01*
X39192Y-59941D01*
X39115Y-59903D01*
X39077Y-59865D01*
X39954Y-59941D02*
X40106Y-59941D01*
X40182Y-59903D01*
X40220Y-59865D01*
X40296Y-59750D01*
X40335Y-59598D01*
X40335Y-59293D01*
X40296Y-59217D01*
X40258Y-59179D01*
X40182Y-59141D01*
X40030Y-59141D01*
X39954Y-59179D01*
X39915Y-59217D01*
X39877Y-59293D01*
X39877Y-59484D01*
X39915Y-59560D01*
X39954Y-59598D01*
X40030Y-59636D01*
X40182Y-59636D01*
X40258Y-59598D01*
X40296Y-59560D01*
X40335Y-59484D01*
X40639Y-59141D02*
X40639Y-59293D01*
X40944Y-59141D02*
X40944Y-59293D01*
X42469Y-59103D02*
X41783Y-60131D01*
X43765Y-59941D02*
X43307Y-59941D01*
X43536Y-59941D02*
X43536Y-59141D01*
X43460Y-59255D01*
X43384Y-59331D01*
X43307Y-59369D01*
X44107Y-59865D02*
X44146Y-59903D01*
X44107Y-59941D01*
X44069Y-59903D01*
X44107Y-59865D01*
X44107Y-59941D01*
X44641Y-59141D02*
X44717Y-59141D01*
X44793Y-59179D01*
X44831Y-59217D01*
X44869Y-59293D01*
X44908Y-59446D01*
X44908Y-59636D01*
X44869Y-59788D01*
X44831Y-59865D01*
X44793Y-59903D01*
X44717Y-59941D01*
X44641Y-59941D01*
X44565Y-59903D01*
X44527Y-59865D01*
X44488Y-59788D01*
X44450Y-59636D01*
X44450Y-59446D01*
X44488Y-59293D01*
X44527Y-59217D01*
X44565Y-59179D01*
X44641Y-59141D01*
X45403Y-59141D02*
X45479Y-59141D01*
X45555Y-59179D01*
X45593Y-59217D01*
X45631Y-59293D01*
X45670Y-59446D01*
X45670Y-59636D01*
X45631Y-59788D01*
X45593Y-59865D01*
X45555Y-59903D01*
X45479Y-59941D01*
X45403Y-59941D01*
X45327Y-59903D01*
X45289Y-59865D01*
X45250Y-59788D01*
X45212Y-59636D01*
X45212Y-59446D01*
X45250Y-59293D01*
X45289Y-59217D01*
X45327Y-59179D01*
X45403Y-59141D01*
X46012Y-59941D02*
X46012Y-59407D01*
X46012Y-59484D02*
X46051Y-59446D01*
X46127Y-59407D01*
X46241Y-59407D01*
X46317Y-59446D01*
X46355Y-59522D01*
X46355Y-59941D01*
X46355Y-59522D02*
X46393Y-59446D01*
X46470Y-59407D01*
X46584Y-59407D01*
X46660Y-59446D01*
X46698Y-59522D01*
X46698Y-59941D01*
X47079Y-59941D02*
X47079Y-59407D01*
X47079Y-59484D02*
X47118Y-59446D01*
X47194Y-59407D01*
X47308Y-59407D01*
X47384Y-59446D01*
X47422Y-59522D01*
X47422Y-59941D01*
X47422Y-59522D02*
X47460Y-59446D01*
X47537Y-59407D01*
X47651Y-59407D01*
X47727Y-59446D01*
X47765Y-59522D01*
X47765Y-59941D01*
X48985Y-60246D02*
X48947Y-60207D01*
X48871Y-60093D01*
X48833Y-60017D01*
X48795Y-59903D01*
X48756Y-59712D01*
X48756Y-59560D01*
X48795Y-59369D01*
X48833Y-59255D01*
X48871Y-59179D01*
X48947Y-59065D01*
X48985Y-59027D01*
X49251Y-59217D02*
X49289Y-59179D01*
X49366Y-59141D01*
X49556Y-59141D01*
X49632Y-59179D01*
X49670Y-59217D01*
X49709Y-59293D01*
X49709Y-59369D01*
X49670Y-59484D01*
X49213Y-59941D01*
X49709Y-59941D01*
X50661Y-59941D02*
X50661Y-59141D01*
X51004Y-59941D02*
X51004Y-59522D01*
X50966Y-59446D01*
X50890Y-59407D01*
X50776Y-59407D01*
X50700Y-59446D01*
X50661Y-59484D01*
X51500Y-59941D02*
X51424Y-59903D01*
X51385Y-59865D01*
X51347Y-59788D01*
X51347Y-59560D01*
X51385Y-59484D01*
X51424Y-59446D01*
X51500Y-59407D01*
X51614Y-59407D01*
X51690Y-59446D01*
X51728Y-59484D01*
X51766Y-59560D01*
X51766Y-59788D01*
X51728Y-59865D01*
X51690Y-59903D01*
X51614Y-59941D01*
X51500Y-59941D01*
X52224Y-59941D02*
X52148Y-59903D01*
X52109Y-59827D01*
X52109Y-59141D01*
X52833Y-59903D02*
X52757Y-59941D01*
X52605Y-59941D01*
X52528Y-59903D01*
X52490Y-59827D01*
X52490Y-59522D01*
X52528Y-59446D01*
X52605Y-59407D01*
X52757Y-59407D01*
X52833Y-59446D01*
X52871Y-59522D01*
X52871Y-59598D01*
X52490Y-59674D01*
X53176Y-59903D02*
X53253Y-59941D01*
X53405Y-59941D01*
X53481Y-59903D01*
X53519Y-59827D01*
X53519Y-59788D01*
X53481Y-59712D01*
X53405Y-59674D01*
X53291Y-59674D01*
X53214Y-59636D01*
X53176Y-59560D01*
X53176Y-59522D01*
X53214Y-59446D01*
X53291Y-59407D01*
X53405Y-59407D01*
X53481Y-59446D01*
X53786Y-60246D02*
X53824Y-60207D01*
X53901Y-60093D01*
X53939Y-60017D01*
X53977Y-59903D01*
X54015Y-59712D01*
X54015Y-59560D01*
X53977Y-59369D01*
X53939Y-59255D01*
X53901Y-59179D01*
X53824Y-59065D01*
X53786Y-59027D01*
G54D10*
X36858Y-60672D02*
X36854Y-60710D01*
X36842Y-60748D01*
X36824Y-60782D01*
X36799Y-60812D01*
X36769Y-60837D01*
X36735Y-60856D01*
X36698Y-60867D01*
X36659Y-60871D01*
X36621Y-60868D01*
X36584Y-60857D01*
X36549Y-60839D01*
X36519Y-60814D01*
X36493Y-60784D01*
X36475Y-60750D01*
X36463Y-60713D01*
X36459Y-60674D01*
X36462Y-60636D01*
X36473Y-60599D01*
X36490Y-60564D01*
X36515Y-60534D01*
X36544Y-60508D01*
X36578Y-60489D01*
X36616Y-60477D01*
X36654Y-60473D01*
X36692Y-60476D01*
X36730Y-60486D01*
X36765Y-60504D01*
X36795Y-60528D01*
X36821Y-60557D01*
X36840Y-60591D01*
X36853Y-60628D01*
X36857Y-60667D01*
X36858Y-60672D01*
X36658Y-60472D02*
X36658Y-60872D01*
G54D11*
X37401Y-60196D02*
X37477Y-60196D01*
X37553Y-60234D01*
X37591Y-60272D01*
X37629Y-60348D01*
X37668Y-60501D01*
X37668Y-60691D01*
X37629Y-60843D01*
X37591Y-60920D01*
X37553Y-60958D01*
X37477Y-60996D01*
X37401Y-60996D01*
X37325Y-60958D01*
X37287Y-60920D01*
X37248Y-60843D01*
X37210Y-60691D01*
X37210Y-60501D01*
X37248Y-60348D01*
X37287Y-60272D01*
X37325Y-60234D01*
X37401Y-60196D01*
X38010Y-60920D02*
X38049Y-60958D01*
X38010Y-60996D01*
X37972Y-60958D01*
X38010Y-60920D01*
X38010Y-60996D01*
X38544Y-60196D02*
X38620Y-60196D01*
X38696Y-60234D01*
X38734Y-60272D01*
X38772Y-60348D01*
X38811Y-60501D01*
X38811Y-60691D01*
X38772Y-60843D01*
X38734Y-60920D01*
X38696Y-60958D01*
X38620Y-60996D01*
X38544Y-60996D01*
X38468Y-60958D01*
X38430Y-60920D01*
X38391Y-60843D01*
X38353Y-60691D01*
X38353Y-60501D01*
X38391Y-60348D01*
X38430Y-60272D01*
X38468Y-60234D01*
X38544Y-60196D01*
X39496Y-60462D02*
X39496Y-60996D01*
X39306Y-60158D02*
X39115Y-60729D01*
X39611Y-60729D01*
X40068Y-60196D02*
X40144Y-60196D01*
X40220Y-60234D01*
X40258Y-60272D01*
X40296Y-60348D01*
X40335Y-60501D01*
X40335Y-60691D01*
X40296Y-60843D01*
X40258Y-60920D01*
X40220Y-60958D01*
X40144Y-60996D01*
X40068Y-60996D01*
X39992Y-60958D01*
X39954Y-60920D01*
X39915Y-60843D01*
X39877Y-60691D01*
X39877Y-60501D01*
X39915Y-60348D01*
X39954Y-60272D01*
X39992Y-60234D01*
X40068Y-60196D01*
X40639Y-60196D02*
X40639Y-60348D01*
X40944Y-60196D02*
X40944Y-60348D01*
X42469Y-60158D02*
X41783Y-61186D01*
X43765Y-60996D02*
X43307Y-60996D01*
X43536Y-60996D02*
X43536Y-60196D01*
X43460Y-60310D01*
X43384Y-60386D01*
X43307Y-60424D01*
X44107Y-60920D02*
X44146Y-60958D01*
X44107Y-60996D01*
X44069Y-60958D01*
X44107Y-60920D01*
X44107Y-60996D01*
X44641Y-60196D02*
X44717Y-60196D01*
X44793Y-60234D01*
X44831Y-60272D01*
X44869Y-60348D01*
X44908Y-60501D01*
X44908Y-60691D01*
X44869Y-60843D01*
X44831Y-60920D01*
X44793Y-60958D01*
X44717Y-60996D01*
X44641Y-60996D01*
X44565Y-60958D01*
X44527Y-60920D01*
X44488Y-60843D01*
X44450Y-60691D01*
X44450Y-60501D01*
X44488Y-60348D01*
X44527Y-60272D01*
X44565Y-60234D01*
X44641Y-60196D01*
X45212Y-60272D02*
X45250Y-60234D01*
X45327Y-60196D01*
X45517Y-60196D01*
X45593Y-60234D01*
X45631Y-60272D01*
X45670Y-60348D01*
X45670Y-60424D01*
X45631Y-60539D01*
X45174Y-60996D01*
X45670Y-60996D01*
X46012Y-60996D02*
X46012Y-60462D01*
X46012Y-60539D02*
X46051Y-60501D01*
X46127Y-60462D01*
X46241Y-60462D01*
X46317Y-60501D01*
X46355Y-60577D01*
X46355Y-60996D01*
X46355Y-60577D02*
X46393Y-60501D01*
X46470Y-60462D01*
X46584Y-60462D01*
X46660Y-60501D01*
X46698Y-60577D01*
X46698Y-60996D01*
X47079Y-60996D02*
X47079Y-60462D01*
X47079Y-60539D02*
X47118Y-60501D01*
X47194Y-60462D01*
X47308Y-60462D01*
X47384Y-60501D01*
X47422Y-60577D01*
X47422Y-60996D01*
X47422Y-60577D02*
X47460Y-60501D01*
X47537Y-60462D01*
X47651Y-60462D01*
X47727Y-60501D01*
X47765Y-60577D01*
X47765Y-60996D01*
X48985Y-61301D02*
X48947Y-61262D01*
X48871Y-61148D01*
X48833Y-61072D01*
X48795Y-60958D01*
X48756Y-60767D01*
X48756Y-60615D01*
X48795Y-60424D01*
X48833Y-60310D01*
X48871Y-60234D01*
X48947Y-60120D01*
X48985Y-60082D01*
X49632Y-60196D02*
X49480Y-60196D01*
X49404Y-60234D01*
X49366Y-60272D01*
X49289Y-60386D01*
X49251Y-60539D01*
X49251Y-60843D01*
X49289Y-60920D01*
X49328Y-60958D01*
X49404Y-60996D01*
X49556Y-60996D01*
X49632Y-60958D01*
X49670Y-60920D01*
X49709Y-60843D01*
X49709Y-60653D01*
X49670Y-60577D01*
X49632Y-60539D01*
X49556Y-60501D01*
X49404Y-60501D01*
X49328Y-60539D01*
X49289Y-60577D01*
X49251Y-60653D01*
X50661Y-60996D02*
X50661Y-60196D01*
X51004Y-60996D02*
X51004Y-60577D01*
X50966Y-60501D01*
X50890Y-60462D01*
X50776Y-60462D01*
X50700Y-60501D01*
X50661Y-60539D01*
X51500Y-60996D02*
X51424Y-60958D01*
X51385Y-60920D01*
X51347Y-60843D01*
X51347Y-60615D01*
X51385Y-60539D01*
X51424Y-60501D01*
X51500Y-60462D01*
X51614Y-60462D01*
X51690Y-60501D01*
X51728Y-60539D01*
X51766Y-60615D01*
X51766Y-60843D01*
X51728Y-60920D01*
X51690Y-60958D01*
X51614Y-60996D01*
X51500Y-60996D01*
X52224Y-60996D02*
X52148Y-60958D01*
X52109Y-60882D01*
X52109Y-60196D01*
X52833Y-60958D02*
X52757Y-60996D01*
X52605Y-60996D01*
X52528Y-60958D01*
X52490Y-60882D01*
X52490Y-60577D01*
X52528Y-60501D01*
X52605Y-60462D01*
X52757Y-60462D01*
X52833Y-60501D01*
X52871Y-60577D01*
X52871Y-60653D01*
X52490Y-60729D01*
X53176Y-60958D02*
X53253Y-60996D01*
X53405Y-60996D01*
X53481Y-60958D01*
X53519Y-60882D01*
X53519Y-60843D01*
X53481Y-60767D01*
X53405Y-60729D01*
X53291Y-60729D01*
X53214Y-60691D01*
X53176Y-60615D01*
X53176Y-60577D01*
X53214Y-60501D01*
X53291Y-60462D01*
X53405Y-60462D01*
X53481Y-60501D01*
X53786Y-61301D02*
X53824Y-61262D01*
X53901Y-61148D01*
X53939Y-61072D01*
X53977Y-60958D01*
X54015Y-60767D01*
X54015Y-60615D01*
X53977Y-60424D01*
X53939Y-60310D01*
X53901Y-60234D01*
X53824Y-60120D01*
X53786Y-60082D01*
G54D10*
X36777Y-61922D02*
X36777Y-61532D01*
X36387Y-61532D01*
X36387Y-61922D01*
X36777Y-61922D01*
G54D11*
X37401Y-61251D02*
X37477Y-61251D01*
X37553Y-61289D01*
X37591Y-61327D01*
X37629Y-61403D01*
X37668Y-61556D01*
X37668Y-61746D01*
X37629Y-61898D01*
X37591Y-61975D01*
X37553Y-62013D01*
X37477Y-62051D01*
X37401Y-62051D01*
X37325Y-62013D01*
X37287Y-61975D01*
X37248Y-61898D01*
X37210Y-61746D01*
X37210Y-61556D01*
X37248Y-61403D01*
X37287Y-61327D01*
X37325Y-61289D01*
X37401Y-61251D01*
X38010Y-61975D02*
X38049Y-62013D01*
X38010Y-62051D01*
X37972Y-62013D01*
X38010Y-61975D01*
X38010Y-62051D01*
X38544Y-61251D02*
X38620Y-61251D01*
X38696Y-61289D01*
X38734Y-61327D01*
X38772Y-61403D01*
X38811Y-61556D01*
X38811Y-61746D01*
X38772Y-61898D01*
X38734Y-61975D01*
X38696Y-62013D01*
X38620Y-62051D01*
X38544Y-62051D01*
X38468Y-62013D01*
X38430Y-61975D01*
X38391Y-61898D01*
X38353Y-61746D01*
X38353Y-61556D01*
X38391Y-61403D01*
X38430Y-61327D01*
X38468Y-61289D01*
X38544Y-61251D01*
X39534Y-61251D02*
X39153Y-61251D01*
X39115Y-61632D01*
X39153Y-61594D01*
X39230Y-61556D01*
X39420Y-61556D01*
X39496Y-61594D01*
X39534Y-61632D01*
X39573Y-61708D01*
X39573Y-61898D01*
X39534Y-61975D01*
X39496Y-62013D01*
X39420Y-62051D01*
X39230Y-62051D01*
X39153Y-62013D01*
X39115Y-61975D01*
X40296Y-61251D02*
X39915Y-61251D01*
X39877Y-61632D01*
X39915Y-61594D01*
X39992Y-61556D01*
X40182Y-61556D01*
X40258Y-61594D01*
X40296Y-61632D01*
X40335Y-61708D01*
X40335Y-61898D01*
X40296Y-61975D01*
X40258Y-62013D01*
X40182Y-62051D01*
X39992Y-62051D01*
X39915Y-62013D01*
X39877Y-61975D01*
X40639Y-61251D02*
X40639Y-61403D01*
X40944Y-61251D02*
X40944Y-61403D01*
X42469Y-61213D02*
X41783Y-62241D01*
X43765Y-62051D02*
X43307Y-62051D01*
X43536Y-62051D02*
X43536Y-61251D01*
X43460Y-61365D01*
X43384Y-61441D01*
X43307Y-61479D01*
X44107Y-61975D02*
X44146Y-62013D01*
X44107Y-62051D01*
X44069Y-62013D01*
X44107Y-61975D01*
X44107Y-62051D01*
X44831Y-61517D02*
X44831Y-62051D01*
X44641Y-61213D02*
X44450Y-61784D01*
X44946Y-61784D01*
X45403Y-61251D02*
X45479Y-61251D01*
X45555Y-61289D01*
X45593Y-61327D01*
X45631Y-61403D01*
X45670Y-61556D01*
X45670Y-61746D01*
X45631Y-61898D01*
X45593Y-61975D01*
X45555Y-62013D01*
X45479Y-62051D01*
X45403Y-62051D01*
X45327Y-62013D01*
X45289Y-61975D01*
X45250Y-61898D01*
X45212Y-61746D01*
X45212Y-61556D01*
X45250Y-61403D01*
X45289Y-61327D01*
X45327Y-61289D01*
X45403Y-61251D01*
X46012Y-62051D02*
X46012Y-61517D01*
X46012Y-61594D02*
X46051Y-61556D01*
X46127Y-61517D01*
X46241Y-61517D01*
X46317Y-61556D01*
X46355Y-61632D01*
X46355Y-62051D01*
X46355Y-61632D02*
X46393Y-61556D01*
X46470Y-61517D01*
X46584Y-61517D01*
X46660Y-61556D01*
X46698Y-61632D01*
X46698Y-62051D01*
X47079Y-62051D02*
X47079Y-61517D01*
X47079Y-61594D02*
X47118Y-61556D01*
X47194Y-61517D01*
X47308Y-61517D01*
X47384Y-61556D01*
X47422Y-61632D01*
X47422Y-62051D01*
X47422Y-61632D02*
X47460Y-61556D01*
X47537Y-61517D01*
X47651Y-61517D01*
X47727Y-61556D01*
X47765Y-61632D01*
X47765Y-62051D01*
X48985Y-62356D02*
X48947Y-62317D01*
X48871Y-62203D01*
X48833Y-62127D01*
X48795Y-62013D01*
X48756Y-61822D01*
X48756Y-61670D01*
X48795Y-61479D01*
X48833Y-61365D01*
X48871Y-61289D01*
X48947Y-61175D01*
X48985Y-61137D01*
X49709Y-62051D02*
X49251Y-62051D01*
X49480Y-62051D02*
X49480Y-61251D01*
X49404Y-61365D01*
X49328Y-61441D01*
X49251Y-61479D01*
X50394Y-61251D02*
X50242Y-61251D01*
X50166Y-61289D01*
X50128Y-61327D01*
X50051Y-61441D01*
X50013Y-61594D01*
X50013Y-61898D01*
X50051Y-61975D01*
X50090Y-62013D01*
X50166Y-62051D01*
X50318Y-62051D01*
X50394Y-62013D01*
X50432Y-61975D01*
X50471Y-61898D01*
X50471Y-61708D01*
X50432Y-61632D01*
X50394Y-61594D01*
X50318Y-61556D01*
X50166Y-61556D01*
X50090Y-61594D01*
X50051Y-61632D01*
X50013Y-61708D01*
X51423Y-62051D02*
X51423Y-61251D01*
X51766Y-62051D02*
X51766Y-61632D01*
X51728Y-61556D01*
X51652Y-61517D01*
X51538Y-61517D01*
X51462Y-61556D01*
X51423Y-61594D01*
X52262Y-62051D02*
X52186Y-62013D01*
X52147Y-61975D01*
X52109Y-61898D01*
X52109Y-61670D01*
X52147Y-61594D01*
X52186Y-61556D01*
X52262Y-61517D01*
X52376Y-61517D01*
X52452Y-61556D01*
X52490Y-61594D01*
X52528Y-61670D01*
X52528Y-61898D01*
X52490Y-61975D01*
X52452Y-62013D01*
X52376Y-62051D01*
X52262Y-62051D01*
X52986Y-62051D02*
X52910Y-62013D01*
X52871Y-61937D01*
X52871Y-61251D01*
X53595Y-62013D02*
X53519Y-62051D01*
X53367Y-62051D01*
X53290Y-62013D01*
X53252Y-61937D01*
X53252Y-61632D01*
X53290Y-61556D01*
X53367Y-61517D01*
X53519Y-61517D01*
X53595Y-61556D01*
X53633Y-61632D01*
X53633Y-61708D01*
X53252Y-61784D01*
X53938Y-62013D02*
X54015Y-62051D01*
X54167Y-62051D01*
X54243Y-62013D01*
X54281Y-61937D01*
X54281Y-61898D01*
X54243Y-61822D01*
X54167Y-61784D01*
X54053Y-61784D01*
X53976Y-61746D01*
X53938Y-61670D01*
X53938Y-61632D01*
X53976Y-61556D01*
X54053Y-61517D01*
X54167Y-61517D01*
X54243Y-61556D01*
X54548Y-62356D02*
X54586Y-62317D01*
X54663Y-62203D01*
X54701Y-62127D01*
X54739Y-62013D01*
X54777Y-61822D01*
X54777Y-61670D01*
X54739Y-61479D01*
X54701Y-61365D01*
X54663Y-61289D01*
X54586Y-61175D01*
X54548Y-61137D01*
G54D10*
X36562Y-63077D02*
X36857Y-62782D01*
X36562Y-62487D01*
X36267Y-62782D01*
X36562Y-63077D01*
G54D11*
X37401Y-62306D02*
X37477Y-62306D01*
X37553Y-62344D01*
X37591Y-62382D01*
X37629Y-62458D01*
X37668Y-62611D01*
X37668Y-62801D01*
X37629Y-62953D01*
X37591Y-63030D01*
X37553Y-63068D01*
X37477Y-63106D01*
X37401Y-63106D01*
X37325Y-63068D01*
X37287Y-63030D01*
X37248Y-62953D01*
X37210Y-62801D01*
X37210Y-62611D01*
X37248Y-62458D01*
X37287Y-62382D01*
X37325Y-62344D01*
X37401Y-62306D01*
X38010Y-63030D02*
X38049Y-63068D01*
X38010Y-63106D01*
X37972Y-63068D01*
X38010Y-63030D01*
X38010Y-63106D01*
X38544Y-62306D02*
X38620Y-62306D01*
X38696Y-62344D01*
X38734Y-62382D01*
X38772Y-62458D01*
X38811Y-62611D01*
X38811Y-62801D01*
X38772Y-62953D01*
X38734Y-63030D01*
X38696Y-63068D01*
X38620Y-63106D01*
X38544Y-63106D01*
X38468Y-63068D01*
X38430Y-63030D01*
X38391Y-62953D01*
X38353Y-62801D01*
X38353Y-62611D01*
X38391Y-62458D01*
X38430Y-62382D01*
X38468Y-62344D01*
X38544Y-62306D01*
X39534Y-62306D02*
X39153Y-62306D01*
X39115Y-62687D01*
X39153Y-62649D01*
X39230Y-62611D01*
X39420Y-62611D01*
X39496Y-62649D01*
X39534Y-62687D01*
X39573Y-62763D01*
X39573Y-62953D01*
X39534Y-63030D01*
X39496Y-63068D01*
X39420Y-63106D01*
X39230Y-63106D01*
X39153Y-63068D01*
X39115Y-63030D01*
X39954Y-63106D02*
X40106Y-63106D01*
X40182Y-63068D01*
X40220Y-63030D01*
X40296Y-62915D01*
X40335Y-62763D01*
X40335Y-62458D01*
X40296Y-62382D01*
X40258Y-62344D01*
X40182Y-62306D01*
X40030Y-62306D01*
X39954Y-62344D01*
X39915Y-62382D01*
X39877Y-62458D01*
X39877Y-62649D01*
X39915Y-62725D01*
X39954Y-62763D01*
X40030Y-62801D01*
X40182Y-62801D01*
X40258Y-62763D01*
X40296Y-62725D01*
X40335Y-62649D01*
X40639Y-62306D02*
X40639Y-62458D01*
X40944Y-62306D02*
X40944Y-62458D01*
X42469Y-62268D02*
X41783Y-63296D01*
X43765Y-63106D02*
X43307Y-63106D01*
X43536Y-63106D02*
X43536Y-62306D01*
X43460Y-62420D01*
X43384Y-62496D01*
X43307Y-62534D01*
X44107Y-63030D02*
X44146Y-63068D01*
X44107Y-63106D01*
X44069Y-63068D01*
X44107Y-63030D01*
X44107Y-63106D01*
X44869Y-62306D02*
X44488Y-62306D01*
X44450Y-62687D01*
X44488Y-62649D01*
X44565Y-62611D01*
X44755Y-62611D01*
X44831Y-62649D01*
X44869Y-62687D01*
X44908Y-62763D01*
X44908Y-62953D01*
X44869Y-63030D01*
X44831Y-63068D01*
X44755Y-63106D01*
X44565Y-63106D01*
X44488Y-63068D01*
X44450Y-63030D01*
X45403Y-62306D02*
X45479Y-62306D01*
X45555Y-62344D01*
X45593Y-62382D01*
X45631Y-62458D01*
X45670Y-62611D01*
X45670Y-62801D01*
X45631Y-62953D01*
X45593Y-63030D01*
X45555Y-63068D01*
X45479Y-63106D01*
X45403Y-63106D01*
X45327Y-63068D01*
X45289Y-63030D01*
X45250Y-62953D01*
X45212Y-62801D01*
X45212Y-62611D01*
X45250Y-62458D01*
X45289Y-62382D01*
X45327Y-62344D01*
X45403Y-62306D01*
X46012Y-63106D02*
X46012Y-62572D01*
X46012Y-62649D02*
X46051Y-62611D01*
X46127Y-62572D01*
X46241Y-62572D01*
X46317Y-62611D01*
X46355Y-62687D01*
X46355Y-63106D01*
X46355Y-62687D02*
X46393Y-62611D01*
X46470Y-62572D01*
X46584Y-62572D01*
X46660Y-62611D01*
X46698Y-62687D01*
X46698Y-63106D01*
X47079Y-63106D02*
X47079Y-62572D01*
X47079Y-62649D02*
X47118Y-62611D01*
X47194Y-62572D01*
X47308Y-62572D01*
X47384Y-62611D01*
X47422Y-62687D01*
X47422Y-63106D01*
X47422Y-62687D02*
X47460Y-62611D01*
X47537Y-62572D01*
X47651Y-62572D01*
X47727Y-62611D01*
X47765Y-62687D01*
X47765Y-63106D01*
X48985Y-63411D02*
X48947Y-63372D01*
X48871Y-63258D01*
X48833Y-63182D01*
X48795Y-63068D01*
X48756Y-62877D01*
X48756Y-62725D01*
X48795Y-62534D01*
X48833Y-62420D01*
X48871Y-62344D01*
X48947Y-62230D01*
X48985Y-62192D01*
X49251Y-62382D02*
X49289Y-62344D01*
X49366Y-62306D01*
X49556Y-62306D01*
X49632Y-62344D01*
X49670Y-62382D01*
X49709Y-62458D01*
X49709Y-62534D01*
X49670Y-62649D01*
X49213Y-63106D01*
X49709Y-63106D01*
X50661Y-63106D02*
X50661Y-62306D01*
X51004Y-63106D02*
X51004Y-62687D01*
X50966Y-62611D01*
X50890Y-62572D01*
X50776Y-62572D01*
X50700Y-62611D01*
X50661Y-62649D01*
X51500Y-63106D02*
X51424Y-63068D01*
X51385Y-63030D01*
X51347Y-62953D01*
X51347Y-62725D01*
X51385Y-62649D01*
X51424Y-62611D01*
X51500Y-62572D01*
X51614Y-62572D01*
X51690Y-62611D01*
X51728Y-62649D01*
X51766Y-62725D01*
X51766Y-62953D01*
X51728Y-63030D01*
X51690Y-63068D01*
X51614Y-63106D01*
X51500Y-63106D01*
X52224Y-63106D02*
X52148Y-63068D01*
X52109Y-62992D01*
X52109Y-62306D01*
X52833Y-63068D02*
X52757Y-63106D01*
X52605Y-63106D01*
X52528Y-63068D01*
X52490Y-62992D01*
X52490Y-62687D01*
X52528Y-62611D01*
X52605Y-62572D01*
X52757Y-62572D01*
X52833Y-62611D01*
X52871Y-62687D01*
X52871Y-62763D01*
X52490Y-62839D01*
X53176Y-63068D02*
X53253Y-63106D01*
X53405Y-63106D01*
X53481Y-63068D01*
X53519Y-62992D01*
X53519Y-62953D01*
X53481Y-62877D01*
X53405Y-62839D01*
X53291Y-62839D01*
X53214Y-62801D01*
X53176Y-62725D01*
X53176Y-62687D01*
X53214Y-62611D01*
X53291Y-62572D01*
X53405Y-62572D01*
X53481Y-62611D01*
X53786Y-63411D02*
X53824Y-63372D01*
X53901Y-63258D01*
X53939Y-63182D01*
X53977Y-63068D01*
X54015Y-62877D01*
X54015Y-62725D01*
X53977Y-62534D01*
X53939Y-62420D01*
X53901Y-62344D01*
X53824Y-62230D01*
X53786Y-62192D01*
G54D10*
X36682Y-64261D02*
X36682Y-63413D01*
X35834Y-63413D01*
X35834Y-64261D01*
X36682Y-64261D01*
X35658Y-63237D02*
X36858Y-64437D01*
X36858Y-63237D02*
X35658Y-64437D01*
G54D11*
X37401Y-63361D02*
X37477Y-63361D01*
X37553Y-63399D01*
X37591Y-63437D01*
X37629Y-63513D01*
X37668Y-63666D01*
X37668Y-63856D01*
X37629Y-64008D01*
X37591Y-64085D01*
X37553Y-64123D01*
X37477Y-64161D01*
X37401Y-64161D01*
X37325Y-64123D01*
X37287Y-64085D01*
X37248Y-64008D01*
X37210Y-63856D01*
X37210Y-63666D01*
X37248Y-63513D01*
X37287Y-63437D01*
X37325Y-63399D01*
X37401Y-63361D01*
X38010Y-64085D02*
X38049Y-64123D01*
X38010Y-64161D01*
X37972Y-64123D01*
X38010Y-64085D01*
X38010Y-64161D01*
X38811Y-64161D02*
X38353Y-64161D01*
X38582Y-64161D02*
X38582Y-63361D01*
X38506Y-63475D01*
X38430Y-63551D01*
X38353Y-63589D01*
X39115Y-63437D02*
X39153Y-63399D01*
X39230Y-63361D01*
X39420Y-63361D01*
X39496Y-63399D01*
X39534Y-63437D01*
X39573Y-63513D01*
X39573Y-63589D01*
X39534Y-63704D01*
X39077Y-64161D01*
X39573Y-64161D01*
X40068Y-63361D02*
X40144Y-63361D01*
X40220Y-63399D01*
X40258Y-63437D01*
X40296Y-63513D01*
X40335Y-63666D01*
X40335Y-63856D01*
X40296Y-64008D01*
X40258Y-64085D01*
X40220Y-64123D01*
X40144Y-64161D01*
X40068Y-64161D01*
X39992Y-64123D01*
X39954Y-64085D01*
X39915Y-64008D01*
X39877Y-63856D01*
X39877Y-63666D01*
X39915Y-63513D01*
X39954Y-63437D01*
X39992Y-63399D01*
X40068Y-63361D01*
X40639Y-63361D02*
X40639Y-63513D01*
X40944Y-63361D02*
X40944Y-63513D01*
X42469Y-63323D02*
X41783Y-64351D01*
X43269Y-63361D02*
X43765Y-63361D01*
X43498Y-63666D01*
X43612Y-63666D01*
X43688Y-63704D01*
X43726Y-63742D01*
X43765Y-63818D01*
X43765Y-64008D01*
X43726Y-64085D01*
X43688Y-64123D01*
X43612Y-64161D01*
X43384Y-64161D01*
X43307Y-64123D01*
X43269Y-64085D01*
X44107Y-64085D02*
X44146Y-64123D01*
X44107Y-64161D01*
X44069Y-64123D01*
X44107Y-64085D01*
X44107Y-64161D01*
X44641Y-63361D02*
X44717Y-63361D01*
X44793Y-63399D01*
X44831Y-63437D01*
X44869Y-63513D01*
X44908Y-63666D01*
X44908Y-63856D01*
X44869Y-64008D01*
X44831Y-64085D01*
X44793Y-64123D01*
X44717Y-64161D01*
X44641Y-64161D01*
X44565Y-64123D01*
X44527Y-64085D01*
X44488Y-64008D01*
X44450Y-63856D01*
X44450Y-63666D01*
X44488Y-63513D01*
X44527Y-63437D01*
X44565Y-63399D01*
X44641Y-63361D01*
X45631Y-63361D02*
X45250Y-63361D01*
X45212Y-63742D01*
X45250Y-63704D01*
X45327Y-63666D01*
X45517Y-63666D01*
X45593Y-63704D01*
X45631Y-63742D01*
X45670Y-63818D01*
X45670Y-64008D01*
X45631Y-64085D01*
X45593Y-64123D01*
X45517Y-64161D01*
X45327Y-64161D01*
X45250Y-64123D01*
X45212Y-64085D01*
X46012Y-64161D02*
X46012Y-63627D01*
X46012Y-63704D02*
X46051Y-63666D01*
X46127Y-63627D01*
X46241Y-63627D01*
X46317Y-63666D01*
X46355Y-63742D01*
X46355Y-64161D01*
X46355Y-63742D02*
X46393Y-63666D01*
X46470Y-63627D01*
X46584Y-63627D01*
X46660Y-63666D01*
X46698Y-63742D01*
X46698Y-64161D01*
X47079Y-64161D02*
X47079Y-63627D01*
X47079Y-63704D02*
X47118Y-63666D01*
X47194Y-63627D01*
X47308Y-63627D01*
X47384Y-63666D01*
X47422Y-63742D01*
X47422Y-64161D01*
X47422Y-63742D02*
X47460Y-63666D01*
X47537Y-63627D01*
X47651Y-63627D01*
X47727Y-63666D01*
X47765Y-63742D01*
X47765Y-64161D01*
X48985Y-64466D02*
X48947Y-64427D01*
X48871Y-64313D01*
X48833Y-64237D01*
X48795Y-64123D01*
X48756Y-63932D01*
X48756Y-63780D01*
X48795Y-63589D01*
X48833Y-63475D01*
X48871Y-63399D01*
X48947Y-63285D01*
X48985Y-63247D01*
X49632Y-63627D02*
X49632Y-64161D01*
X49442Y-63323D02*
X49251Y-63894D01*
X49747Y-63894D01*
X50661Y-64161D02*
X50661Y-63361D01*
X51004Y-64161D02*
X51004Y-63742D01*
X50966Y-63666D01*
X50890Y-63627D01*
X50776Y-63627D01*
X50700Y-63666D01*
X50661Y-63704D01*
X51500Y-64161D02*
X51424Y-64123D01*
X51385Y-64085D01*
X51347Y-64008D01*
X51347Y-63780D01*
X51385Y-63704D01*
X51424Y-63666D01*
X51500Y-63627D01*
X51614Y-63627D01*
X51690Y-63666D01*
X51728Y-63704D01*
X51766Y-63780D01*
X51766Y-64008D01*
X51728Y-64085D01*
X51690Y-64123D01*
X51614Y-64161D01*
X51500Y-64161D01*
X52224Y-64161D02*
X52148Y-64123D01*
X52109Y-64047D01*
X52109Y-63361D01*
X52833Y-64123D02*
X52757Y-64161D01*
X52605Y-64161D01*
X52528Y-64123D01*
X52490Y-64047D01*
X52490Y-63742D01*
X52528Y-63666D01*
X52605Y-63627D01*
X52757Y-63627D01*
X52833Y-63666D01*
X52871Y-63742D01*
X52871Y-63818D01*
X52490Y-63894D01*
X53176Y-64123D02*
X53253Y-64161D01*
X53405Y-64161D01*
X53481Y-64123D01*
X53519Y-64047D01*
X53519Y-64008D01*
X53481Y-63932D01*
X53405Y-63894D01*
X53291Y-63894D01*
X53214Y-63856D01*
X53176Y-63780D01*
X53176Y-63742D01*
X53214Y-63666D01*
X53291Y-63627D01*
X53405Y-63627D01*
X53481Y-63666D01*
X53786Y-64466D02*
X53824Y-64427D01*
X53901Y-64313D01*
X53939Y-64237D01*
X53977Y-64123D01*
X54015Y-63932D01*
X54015Y-63780D01*
X53977Y-63589D01*
X53939Y-63475D01*
X53901Y-63399D01*
X53824Y-63285D01*
X53786Y-63247D01*
G54D10*
X36070Y-66104D02*
X36857Y-65317D01*
X36070Y-64530D01*
X35283Y-65317D01*
X36070Y-66104D01*
X36070Y-64530D02*
X36070Y-66104D01*
X36857Y-65317D02*
X35283Y-65317D01*
G54D11*
X37401Y-64841D02*
X37477Y-64841D01*
X37553Y-64879D01*
X37591Y-64917D01*
X37629Y-64993D01*
X37668Y-65146D01*
X37668Y-65336D01*
X37629Y-65488D01*
X37591Y-65565D01*
X37553Y-65603D01*
X37477Y-65641D01*
X37401Y-65641D01*
X37325Y-65603D01*
X37287Y-65565D01*
X37248Y-65488D01*
X37210Y-65336D01*
X37210Y-65146D01*
X37248Y-64993D01*
X37287Y-64917D01*
X37325Y-64879D01*
X37401Y-64841D01*
X38010Y-65565D02*
X38049Y-65603D01*
X38010Y-65641D01*
X37972Y-65603D01*
X38010Y-65565D01*
X38010Y-65641D01*
X38811Y-65641D02*
X38353Y-65641D01*
X38582Y-65641D02*
X38582Y-64841D01*
X38506Y-64955D01*
X38430Y-65031D01*
X38353Y-65069D01*
X39534Y-64841D02*
X39153Y-64841D01*
X39115Y-65222D01*
X39153Y-65184D01*
X39230Y-65146D01*
X39420Y-65146D01*
X39496Y-65184D01*
X39534Y-65222D01*
X39573Y-65298D01*
X39573Y-65488D01*
X39534Y-65565D01*
X39496Y-65603D01*
X39420Y-65641D01*
X39230Y-65641D01*
X39153Y-65603D01*
X39115Y-65565D01*
X40030Y-65184D02*
X39954Y-65146D01*
X39915Y-65107D01*
X39877Y-65031D01*
X39877Y-64993D01*
X39915Y-64917D01*
X39954Y-64879D01*
X40030Y-64841D01*
X40182Y-64841D01*
X40258Y-64879D01*
X40296Y-64917D01*
X40335Y-64993D01*
X40335Y-65031D01*
X40296Y-65107D01*
X40258Y-65146D01*
X40182Y-65184D01*
X40030Y-65184D01*
X39954Y-65222D01*
X39915Y-65260D01*
X39877Y-65336D01*
X39877Y-65488D01*
X39915Y-65565D01*
X39954Y-65603D01*
X40030Y-65641D01*
X40182Y-65641D01*
X40258Y-65603D01*
X40296Y-65565D01*
X40335Y-65488D01*
X40335Y-65336D01*
X40296Y-65260D01*
X40258Y-65222D01*
X40182Y-65184D01*
X40639Y-64841D02*
X40639Y-64993D01*
X40944Y-64841D02*
X40944Y-64993D01*
X42469Y-64803D02*
X41783Y-65831D01*
X43688Y-65107D02*
X43688Y-65641D01*
X43498Y-64803D02*
X43307Y-65374D01*
X43803Y-65374D01*
X44107Y-65565D02*
X44146Y-65603D01*
X44107Y-65641D01*
X44069Y-65603D01*
X44107Y-65565D01*
X44107Y-65641D01*
X44641Y-64841D02*
X44717Y-64841D01*
X44793Y-64879D01*
X44831Y-64917D01*
X44869Y-64993D01*
X44908Y-65146D01*
X44908Y-65336D01*
X44869Y-65488D01*
X44831Y-65565D01*
X44793Y-65603D01*
X44717Y-65641D01*
X44641Y-65641D01*
X44565Y-65603D01*
X44527Y-65565D01*
X44488Y-65488D01*
X44450Y-65336D01*
X44450Y-65146D01*
X44488Y-64993D01*
X44527Y-64917D01*
X44565Y-64879D01*
X44641Y-64841D01*
X45403Y-64841D02*
X45479Y-64841D01*
X45555Y-64879D01*
X45593Y-64917D01*
X45631Y-64993D01*
X45670Y-65146D01*
X45670Y-65336D01*
X45631Y-65488D01*
X45593Y-65565D01*
X45555Y-65603D01*
X45479Y-65641D01*
X45403Y-65641D01*
X45327Y-65603D01*
X45289Y-65565D01*
X45250Y-65488D01*
X45212Y-65336D01*
X45212Y-65146D01*
X45250Y-64993D01*
X45289Y-64917D01*
X45327Y-64879D01*
X45403Y-64841D01*
X46012Y-65641D02*
X46012Y-65107D01*
X46012Y-65184D02*
X46051Y-65146D01*
X46127Y-65107D01*
X46241Y-65107D01*
X46317Y-65146D01*
X46355Y-65222D01*
X46355Y-65641D01*
X46355Y-65222D02*
X46393Y-65146D01*
X46470Y-65107D01*
X46584Y-65107D01*
X46660Y-65146D01*
X46698Y-65222D01*
X46698Y-65641D01*
X47079Y-65641D02*
X47079Y-65107D01*
X47079Y-65184D02*
X47118Y-65146D01*
X47194Y-65107D01*
X47308Y-65107D01*
X47384Y-65146D01*
X47422Y-65222D01*
X47422Y-65641D01*
X47422Y-65222D02*
X47460Y-65146D01*
X47537Y-65107D01*
X47651Y-65107D01*
X47727Y-65146D01*
X47765Y-65222D01*
X47765Y-65641D01*
X48985Y-65946D02*
X48947Y-65907D01*
X48871Y-65793D01*
X48833Y-65717D01*
X48795Y-65603D01*
X48756Y-65412D01*
X48756Y-65260D01*
X48795Y-65069D01*
X48833Y-64955D01*
X48871Y-64879D01*
X48947Y-64765D01*
X48985Y-64727D01*
X49213Y-64841D02*
X49709Y-64841D01*
X49442Y-65146D01*
X49556Y-65146D01*
X49632Y-65184D01*
X49670Y-65222D01*
X49709Y-65298D01*
X49709Y-65488D01*
X49670Y-65565D01*
X49632Y-65603D01*
X49556Y-65641D01*
X49328Y-65641D01*
X49251Y-65603D01*
X49213Y-65565D01*
X50661Y-65641D02*
X50661Y-64841D01*
X51004Y-65641D02*
X51004Y-65222D01*
X50966Y-65146D01*
X50890Y-65107D01*
X50776Y-65107D01*
X50700Y-65146D01*
X50661Y-65184D01*
X51500Y-65641D02*
X51424Y-65603D01*
X51385Y-65565D01*
X51347Y-65488D01*
X51347Y-65260D01*
X51385Y-65184D01*
X51424Y-65146D01*
X51500Y-65107D01*
X51614Y-65107D01*
X51690Y-65146D01*
X51728Y-65184D01*
X51766Y-65260D01*
X51766Y-65488D01*
X51728Y-65565D01*
X51690Y-65603D01*
X51614Y-65641D01*
X51500Y-65641D01*
X52224Y-65641D02*
X52148Y-65603D01*
X52109Y-65527D01*
X52109Y-64841D01*
X52833Y-65603D02*
X52757Y-65641D01*
X52605Y-65641D01*
X52528Y-65603D01*
X52490Y-65527D01*
X52490Y-65222D01*
X52528Y-65146D01*
X52605Y-65107D01*
X52757Y-65107D01*
X52833Y-65146D01*
X52871Y-65222D01*
X52871Y-65298D01*
X52490Y-65374D01*
X53176Y-65603D02*
X53253Y-65641D01*
X53405Y-65641D01*
X53481Y-65603D01*
X53519Y-65527D01*
X53519Y-65488D01*
X53481Y-65412D01*
X53405Y-65374D01*
X53291Y-65374D01*
X53214Y-65336D01*
X53176Y-65260D01*
X53176Y-65222D01*
X53214Y-65146D01*
X53291Y-65107D01*
X53405Y-65107D01*
X53481Y-65146D01*
X53786Y-65946D02*
X53824Y-65907D01*
X53901Y-65793D01*
X53939Y-65717D01*
X53977Y-65603D01*
X54015Y-65412D01*
X54015Y-65260D01*
X53977Y-65069D01*
X53939Y-64955D01*
X53901Y-64879D01*
X53824Y-64765D01*
X53786Y-64727D01*
G54D10*
X36613Y-67764D02*
X36613Y-66580D01*
X35429Y-66580D01*
X35429Y-67764D01*
X36613Y-67764D01*
X35185Y-66336D02*
X36857Y-68008D01*
G54D11*
X37401Y-66696D02*
X37477Y-66696D01*
X37553Y-66734D01*
X37591Y-66772D01*
X37629Y-66848D01*
X37668Y-67001D01*
X37668Y-67191D01*
X37629Y-67343D01*
X37591Y-67420D01*
X37553Y-67458D01*
X37477Y-67496D01*
X37401Y-67496D01*
X37325Y-67458D01*
X37287Y-67420D01*
X37248Y-67343D01*
X37210Y-67191D01*
X37210Y-67001D01*
X37248Y-66848D01*
X37287Y-66772D01*
X37325Y-66734D01*
X37401Y-66696D01*
X38010Y-67420D02*
X38049Y-67458D01*
X38010Y-67496D01*
X37972Y-67458D01*
X38010Y-67420D01*
X38010Y-67496D01*
X38811Y-67496D02*
X38353Y-67496D01*
X38582Y-67496D02*
X38582Y-66696D01*
X38506Y-66810D01*
X38430Y-66886D01*
X38353Y-66924D01*
X39496Y-66696D02*
X39344Y-66696D01*
X39268Y-66734D01*
X39230Y-66772D01*
X39153Y-66886D01*
X39115Y-67039D01*
X39115Y-67343D01*
X39153Y-67420D01*
X39192Y-67458D01*
X39268Y-67496D01*
X39420Y-67496D01*
X39496Y-67458D01*
X39534Y-67420D01*
X39573Y-67343D01*
X39573Y-67153D01*
X39534Y-67077D01*
X39496Y-67039D01*
X39420Y-67001D01*
X39268Y-67001D01*
X39192Y-67039D01*
X39153Y-67077D01*
X39115Y-67153D01*
X39839Y-66696D02*
X40373Y-66696D01*
X40030Y-67496D01*
X40639Y-66696D02*
X40639Y-66848D01*
X40944Y-66696D02*
X40944Y-66848D01*
X42469Y-66658D02*
X41783Y-67686D01*
X43688Y-66962D02*
X43688Y-67496D01*
X43498Y-66658D02*
X43307Y-67229D01*
X43803Y-67229D01*
X44107Y-67420D02*
X44146Y-67458D01*
X44107Y-67496D01*
X44069Y-67458D01*
X44107Y-67420D01*
X44107Y-67496D01*
X44450Y-66772D02*
X44488Y-66734D01*
X44565Y-66696D01*
X44755Y-66696D01*
X44831Y-66734D01*
X44869Y-66772D01*
X44908Y-66848D01*
X44908Y-66924D01*
X44869Y-67039D01*
X44412Y-67496D01*
X44908Y-67496D01*
X45631Y-66696D02*
X45250Y-66696D01*
X45212Y-67077D01*
X45250Y-67039D01*
X45327Y-67001D01*
X45517Y-67001D01*
X45593Y-67039D01*
X45631Y-67077D01*
X45670Y-67153D01*
X45670Y-67343D01*
X45631Y-67420D01*
X45593Y-67458D01*
X45517Y-67496D01*
X45327Y-67496D01*
X45250Y-67458D01*
X45212Y-67420D01*
X46012Y-67496D02*
X46012Y-66962D01*
X46012Y-67039D02*
X46051Y-67001D01*
X46127Y-66962D01*
X46241Y-66962D01*
X46317Y-67001D01*
X46355Y-67077D01*
X46355Y-67496D01*
X46355Y-67077D02*
X46393Y-67001D01*
X46470Y-66962D01*
X46584Y-66962D01*
X46660Y-67001D01*
X46698Y-67077D01*
X46698Y-67496D01*
X47079Y-67496D02*
X47079Y-66962D01*
X47079Y-67039D02*
X47118Y-67001D01*
X47194Y-66962D01*
X47308Y-66962D01*
X47384Y-67001D01*
X47422Y-67077D01*
X47422Y-67496D01*
X47422Y-67077D02*
X47460Y-67001D01*
X47537Y-66962D01*
X47651Y-66962D01*
X47727Y-67001D01*
X47765Y-67077D01*
X47765Y-67496D01*
X48985Y-67801D02*
X48947Y-67762D01*
X48871Y-67648D01*
X48833Y-67572D01*
X48795Y-67458D01*
X48756Y-67267D01*
X48756Y-67115D01*
X48795Y-66924D01*
X48833Y-66810D01*
X48871Y-66734D01*
X48947Y-66620D01*
X48985Y-66582D01*
X49632Y-66962D02*
X49632Y-67496D01*
X49442Y-66658D02*
X49251Y-67229D01*
X49747Y-67229D01*
X50661Y-67496D02*
X50661Y-66696D01*
X51004Y-67496D02*
X51004Y-67077D01*
X50966Y-67001D01*
X50890Y-66962D01*
X50776Y-66962D01*
X50700Y-67001D01*
X50661Y-67039D01*
X51500Y-67496D02*
X51424Y-67458D01*
X51385Y-67420D01*
X51347Y-67343D01*
X51347Y-67115D01*
X51385Y-67039D01*
X51424Y-67001D01*
X51500Y-66962D01*
X51614Y-66962D01*
X51690Y-67001D01*
X51728Y-67039D01*
X51766Y-67115D01*
X51766Y-67343D01*
X51728Y-67420D01*
X51690Y-67458D01*
X51614Y-67496D01*
X51500Y-67496D01*
X52224Y-67496D02*
X52148Y-67458D01*
X52109Y-67382D01*
X52109Y-66696D01*
X52833Y-67458D02*
X52757Y-67496D01*
X52605Y-67496D01*
X52528Y-67458D01*
X52490Y-67382D01*
X52490Y-67077D01*
X52528Y-67001D01*
X52605Y-66962D01*
X52757Y-66962D01*
X52833Y-67001D01*
X52871Y-67077D01*
X52871Y-67153D01*
X52490Y-67229D01*
X53176Y-67458D02*
X53253Y-67496D01*
X53405Y-67496D01*
X53481Y-67458D01*
X53519Y-67382D01*
X53519Y-67343D01*
X53481Y-67267D01*
X53405Y-67229D01*
X53291Y-67229D01*
X53214Y-67191D01*
X53176Y-67115D01*
X53176Y-67077D01*
X53214Y-67001D01*
X53291Y-66962D01*
X53405Y-66962D01*
X53481Y-67001D01*
X53786Y-67801D02*
X53824Y-67762D01*
X53901Y-67648D01*
X53939Y-67572D01*
X53977Y-67458D01*
X54015Y-67267D01*
X54015Y-67115D01*
X53977Y-66924D01*
X53939Y-66810D01*
X53901Y-66734D01*
X53824Y-66620D01*
X53786Y-66582D01*
G54D10*
X35873Y-70109D02*
X36857Y-69125D01*
X35873Y-68141D01*
X34889Y-69125D01*
X35873Y-70109D01*
X35873Y-68141D02*
X35873Y-70109D01*
G54D11*
X37401Y-68649D02*
X37477Y-68649D01*
X37553Y-68687D01*
X37591Y-68725D01*
X37629Y-68801D01*
X37668Y-68954D01*
X37668Y-69144D01*
X37629Y-69296D01*
X37591Y-69373D01*
X37553Y-69411D01*
X37477Y-69449D01*
X37401Y-69449D01*
X37325Y-69411D01*
X37287Y-69373D01*
X37248Y-69296D01*
X37210Y-69144D01*
X37210Y-68954D01*
X37248Y-68801D01*
X37287Y-68725D01*
X37325Y-68687D01*
X37401Y-68649D01*
X38010Y-69373D02*
X38049Y-69411D01*
X38010Y-69449D01*
X37972Y-69411D01*
X38010Y-69373D01*
X38010Y-69449D01*
X38811Y-69449D02*
X38353Y-69449D01*
X38582Y-69449D02*
X38582Y-68649D01*
X38506Y-68763D01*
X38430Y-68839D01*
X38353Y-68877D01*
X39192Y-69449D02*
X39344Y-69449D01*
X39420Y-69411D01*
X39458Y-69373D01*
X39534Y-69258D01*
X39573Y-69106D01*
X39573Y-68801D01*
X39534Y-68725D01*
X39496Y-68687D01*
X39420Y-68649D01*
X39268Y-68649D01*
X39192Y-68687D01*
X39153Y-68725D01*
X39115Y-68801D01*
X39115Y-68992D01*
X39153Y-69068D01*
X39192Y-69106D01*
X39268Y-69144D01*
X39420Y-69144D01*
X39496Y-69106D01*
X39534Y-69068D01*
X39573Y-68992D01*
X39839Y-68649D02*
X40373Y-68649D01*
X40030Y-69449D01*
X40639Y-68649D02*
X40639Y-68801D01*
X40944Y-68649D02*
X40944Y-68801D01*
X42469Y-68611D02*
X41783Y-69639D01*
X43726Y-68649D02*
X43345Y-68649D01*
X43307Y-69030D01*
X43345Y-68992D01*
X43422Y-68954D01*
X43612Y-68954D01*
X43688Y-68992D01*
X43726Y-69030D01*
X43765Y-69106D01*
X43765Y-69296D01*
X43726Y-69373D01*
X43688Y-69411D01*
X43612Y-69449D01*
X43422Y-69449D01*
X43345Y-69411D01*
X43307Y-69373D01*
X44107Y-69373D02*
X44146Y-69411D01*
X44107Y-69449D01*
X44069Y-69411D01*
X44107Y-69373D01*
X44107Y-69449D01*
X44641Y-68649D02*
X44717Y-68649D01*
X44793Y-68687D01*
X44831Y-68725D01*
X44869Y-68801D01*
X44908Y-68954D01*
X44908Y-69144D01*
X44869Y-69296D01*
X44831Y-69373D01*
X44793Y-69411D01*
X44717Y-69449D01*
X44641Y-69449D01*
X44565Y-69411D01*
X44527Y-69373D01*
X44488Y-69296D01*
X44450Y-69144D01*
X44450Y-68954D01*
X44488Y-68801D01*
X44527Y-68725D01*
X44565Y-68687D01*
X44641Y-68649D01*
X45403Y-68649D02*
X45479Y-68649D01*
X45555Y-68687D01*
X45593Y-68725D01*
X45631Y-68801D01*
X45670Y-68954D01*
X45670Y-69144D01*
X45631Y-69296D01*
X45593Y-69373D01*
X45555Y-69411D01*
X45479Y-69449D01*
X45403Y-69449D01*
X45327Y-69411D01*
X45289Y-69373D01*
X45250Y-69296D01*
X45212Y-69144D01*
X45212Y-68954D01*
X45250Y-68801D01*
X45289Y-68725D01*
X45327Y-68687D01*
X45403Y-68649D01*
X46012Y-69449D02*
X46012Y-68915D01*
X46012Y-68992D02*
X46051Y-68954D01*
X46127Y-68915D01*
X46241Y-68915D01*
X46317Y-68954D01*
X46355Y-69030D01*
X46355Y-69449D01*
X46355Y-69030D02*
X46393Y-68954D01*
X46470Y-68915D01*
X46584Y-68915D01*
X46660Y-68954D01*
X46698Y-69030D01*
X46698Y-69449D01*
X47079Y-69449D02*
X47079Y-68915D01*
X47079Y-68992D02*
X47118Y-68954D01*
X47194Y-68915D01*
X47308Y-68915D01*
X47384Y-68954D01*
X47422Y-69030D01*
X47422Y-69449D01*
X47422Y-69030D02*
X47460Y-68954D01*
X47537Y-68915D01*
X47651Y-68915D01*
X47727Y-68954D01*
X47765Y-69030D01*
X47765Y-69449D01*
X48985Y-69754D02*
X48947Y-69715D01*
X48871Y-69601D01*
X48833Y-69525D01*
X48795Y-69411D01*
X48756Y-69220D01*
X48756Y-69068D01*
X48795Y-68877D01*
X48833Y-68763D01*
X48871Y-68687D01*
X48947Y-68573D01*
X48985Y-68535D01*
X49251Y-68725D02*
X49289Y-68687D01*
X49366Y-68649D01*
X49556Y-68649D01*
X49632Y-68687D01*
X49670Y-68725D01*
X49709Y-68801D01*
X49709Y-68877D01*
X49670Y-68992D01*
X49213Y-69449D01*
X49709Y-69449D01*
X50661Y-69449D02*
X50661Y-68649D01*
X51004Y-69449D02*
X51004Y-69030D01*
X50966Y-68954D01*
X50890Y-68915D01*
X50776Y-68915D01*
X50700Y-68954D01*
X50661Y-68992D01*
X51500Y-69449D02*
X51424Y-69411D01*
X51385Y-69373D01*
X51347Y-69296D01*
X51347Y-69068D01*
X51385Y-68992D01*
X51424Y-68954D01*
X51500Y-68915D01*
X51614Y-68915D01*
X51690Y-68954D01*
X51728Y-68992D01*
X51766Y-69068D01*
X51766Y-69296D01*
X51728Y-69373D01*
X51690Y-69411D01*
X51614Y-69449D01*
X51500Y-69449D01*
X52224Y-69449D02*
X52148Y-69411D01*
X52109Y-69335D01*
X52109Y-68649D01*
X52833Y-69411D02*
X52757Y-69449D01*
X52605Y-69449D01*
X52528Y-69411D01*
X52490Y-69335D01*
X52490Y-69030D01*
X52528Y-68954D01*
X52605Y-68915D01*
X52757Y-68915D01*
X52833Y-68954D01*
X52871Y-69030D01*
X52871Y-69106D01*
X52490Y-69182D01*
X53176Y-69411D02*
X53253Y-69449D01*
X53405Y-69449D01*
X53481Y-69411D01*
X53519Y-69335D01*
X53519Y-69296D01*
X53481Y-69220D01*
X53405Y-69182D01*
X53291Y-69182D01*
X53214Y-69144D01*
X53176Y-69068D01*
X53176Y-69030D01*
X53214Y-68954D01*
X53291Y-68915D01*
X53405Y-68915D01*
X53481Y-68954D01*
X53786Y-69754D02*
X53824Y-69715D01*
X53901Y-69601D01*
X53939Y-69525D01*
X53977Y-69411D01*
X54015Y-69220D01*
X54015Y-69068D01*
X53977Y-68877D01*
X53939Y-68763D01*
X53901Y-68687D01*
X53824Y-68573D01*
X53786Y-68535D01*
G54D10*
X35677Y-72555D02*
X36858Y-71374D01*
X35677Y-70193D01*
X34496Y-71374D01*
X35677Y-72555D01*
X34496Y-71374D02*
X36858Y-71374D01*
G54D11*
X37401Y-70898D02*
X37477Y-70898D01*
X37553Y-70936D01*
X37591Y-70974D01*
X37629Y-71050D01*
X37668Y-71203D01*
X37668Y-71393D01*
X37629Y-71545D01*
X37591Y-71622D01*
X37553Y-71660D01*
X37477Y-71698D01*
X37401Y-71698D01*
X37325Y-71660D01*
X37287Y-71622D01*
X37248Y-71545D01*
X37210Y-71393D01*
X37210Y-71203D01*
X37248Y-71050D01*
X37287Y-70974D01*
X37325Y-70936D01*
X37401Y-70898D01*
X38010Y-71622D02*
X38049Y-71660D01*
X38010Y-71698D01*
X37972Y-71660D01*
X38010Y-71622D01*
X38010Y-71698D01*
X38353Y-70974D02*
X38391Y-70936D01*
X38468Y-70898D01*
X38658Y-70898D01*
X38734Y-70936D01*
X38772Y-70974D01*
X38811Y-71050D01*
X38811Y-71126D01*
X38772Y-71241D01*
X38315Y-71698D01*
X38811Y-71698D01*
X39077Y-70898D02*
X39573Y-70898D01*
X39306Y-71203D01*
X39420Y-71203D01*
X39496Y-71241D01*
X39534Y-71279D01*
X39573Y-71355D01*
X39573Y-71545D01*
X39534Y-71622D01*
X39496Y-71660D01*
X39420Y-71698D01*
X39192Y-71698D01*
X39115Y-71660D01*
X39077Y-71622D01*
X40258Y-70898D02*
X40106Y-70898D01*
X40030Y-70936D01*
X39992Y-70974D01*
X39915Y-71088D01*
X39877Y-71241D01*
X39877Y-71545D01*
X39915Y-71622D01*
X39954Y-71660D01*
X40030Y-71698D01*
X40182Y-71698D01*
X40258Y-71660D01*
X40296Y-71622D01*
X40335Y-71545D01*
X40335Y-71355D01*
X40296Y-71279D01*
X40258Y-71241D01*
X40182Y-71203D01*
X40030Y-71203D01*
X39954Y-71241D01*
X39915Y-71279D01*
X39877Y-71355D01*
X40639Y-70898D02*
X40639Y-71050D01*
X40944Y-70898D02*
X40944Y-71050D01*
X42469Y-70860D02*
X41783Y-71888D01*
X43688Y-70898D02*
X43536Y-70898D01*
X43460Y-70936D01*
X43422Y-70974D01*
X43345Y-71088D01*
X43307Y-71241D01*
X43307Y-71545D01*
X43345Y-71622D01*
X43384Y-71660D01*
X43460Y-71698D01*
X43612Y-71698D01*
X43688Y-71660D01*
X43726Y-71622D01*
X43765Y-71545D01*
X43765Y-71355D01*
X43726Y-71279D01*
X43688Y-71241D01*
X43612Y-71203D01*
X43460Y-71203D01*
X43384Y-71241D01*
X43345Y-71279D01*
X43307Y-71355D01*
X44107Y-71622D02*
X44146Y-71660D01*
X44107Y-71698D01*
X44069Y-71660D01*
X44107Y-71622D01*
X44107Y-71698D01*
X44641Y-70898D02*
X44717Y-70898D01*
X44793Y-70936D01*
X44831Y-70974D01*
X44869Y-71050D01*
X44908Y-71203D01*
X44908Y-71393D01*
X44869Y-71545D01*
X44831Y-71622D01*
X44793Y-71660D01*
X44717Y-71698D01*
X44641Y-71698D01*
X44565Y-71660D01*
X44527Y-71622D01*
X44488Y-71545D01*
X44450Y-71393D01*
X44450Y-71203D01*
X44488Y-71050D01*
X44527Y-70974D01*
X44565Y-70936D01*
X44641Y-70898D01*
X45403Y-70898D02*
X45479Y-70898D01*
X45555Y-70936D01*
X45593Y-70974D01*
X45631Y-71050D01*
X45670Y-71203D01*
X45670Y-71393D01*
X45631Y-71545D01*
X45593Y-71622D01*
X45555Y-71660D01*
X45479Y-71698D01*
X45403Y-71698D01*
X45327Y-71660D01*
X45289Y-71622D01*
X45250Y-71545D01*
X45212Y-71393D01*
X45212Y-71203D01*
X45250Y-71050D01*
X45289Y-70974D01*
X45327Y-70936D01*
X45403Y-70898D01*
X46012Y-71698D02*
X46012Y-71164D01*
X46012Y-71241D02*
X46051Y-71203D01*
X46127Y-71164D01*
X46241Y-71164D01*
X46317Y-71203D01*
X46355Y-71279D01*
X46355Y-71698D01*
X46355Y-71279D02*
X46393Y-71203D01*
X46470Y-71164D01*
X46584Y-71164D01*
X46660Y-71203D01*
X46698Y-71279D01*
X46698Y-71698D01*
X47079Y-71698D02*
X47079Y-71164D01*
X47079Y-71241D02*
X47118Y-71203D01*
X47194Y-71164D01*
X47308Y-71164D01*
X47384Y-71203D01*
X47422Y-71279D01*
X47422Y-71698D01*
X47422Y-71279D02*
X47460Y-71203D01*
X47537Y-71164D01*
X47651Y-71164D01*
X47727Y-71203D01*
X47765Y-71279D01*
X47765Y-71698D01*
X48985Y-72003D02*
X48947Y-71964D01*
X48871Y-71850D01*
X48833Y-71774D01*
X48795Y-71660D01*
X48756Y-71469D01*
X48756Y-71317D01*
X48795Y-71126D01*
X48833Y-71012D01*
X48871Y-70936D01*
X48947Y-70822D01*
X48985Y-70784D01*
X49709Y-71698D02*
X49251Y-71698D01*
X49480Y-71698D02*
X49480Y-70898D01*
X49404Y-71012D01*
X49328Y-71088D01*
X49251Y-71126D01*
X50661Y-71698D02*
X50661Y-70898D01*
X51004Y-71698D02*
X51004Y-71279D01*
X50966Y-71203D01*
X50890Y-71164D01*
X50776Y-71164D01*
X50700Y-71203D01*
X50661Y-71241D01*
X51500Y-71698D02*
X51424Y-71660D01*
X51385Y-71622D01*
X51347Y-71545D01*
X51347Y-71317D01*
X51385Y-71241D01*
X51424Y-71203D01*
X51500Y-71164D01*
X51614Y-71164D01*
X51690Y-71203D01*
X51728Y-71241D01*
X51766Y-71317D01*
X51766Y-71545D01*
X51728Y-71622D01*
X51690Y-71660D01*
X51614Y-71698D01*
X51500Y-71698D01*
X52224Y-71698D02*
X52148Y-71660D01*
X52109Y-71584D01*
X52109Y-70898D01*
X52833Y-71660D02*
X52757Y-71698D01*
X52605Y-71698D01*
X52528Y-71660D01*
X52490Y-71584D01*
X52490Y-71279D01*
X52528Y-71203D01*
X52605Y-71164D01*
X52757Y-71164D01*
X52833Y-71203D01*
X52871Y-71279D01*
X52871Y-71355D01*
X52490Y-71431D01*
X53138Y-72003D02*
X53176Y-71964D01*
X53253Y-71850D01*
X53291Y-71774D01*
X53329Y-71660D01*
X53367Y-71469D01*
X53367Y-71317D01*
X53329Y-71126D01*
X53291Y-71012D01*
X53253Y-70936D01*
X53176Y-70822D01*
X53138Y-70784D01*
M02*
