G04 (created by PCBNEW-RS274X (2012-jan-04)-stable) date Wed 06 Jun 2012 12:26:46 PM CEST*
G01*
G70*
G90*
%MOIN*%
G04 Gerber Fmt 3.4, Leading zero omitted, Abs format*
%FSLAX34Y34*%
G04 APERTURE LIST*
%ADD10C,0.006000*%
%ADD11C,0.008000*%
%ADD12C,0.070000*%
%ADD13R,0.070000X0.070000*%
%ADD14C,0.160000*%
%ADD15R,0.027600X0.039400*%
%ADD16C,0.060000*%
%ADD17C,0.295300*%
%ADD18R,0.051100X0.059000*%
%ADD19R,0.059000X0.051100*%
%ADD20C,0.393700*%
%ADD21C,0.196900*%
%ADD22O,0.137800X0.098400*%
%ADD23C,0.059100*%
%ADD24C,0.044000*%
%ADD25C,0.472400*%
%ADD26C,0.098400*%
G04 APERTURE END LIST*
G54D10*
G54D11*
X37402Y-52756D02*
X37402Y-13386D01*
X76772Y-52756D02*
X37402Y-52756D01*
X76772Y-13386D02*
X76772Y-52756D01*
X37402Y-13386D02*
X76772Y-13386D01*
G54D12*
X48213Y-27559D03*
X49213Y-27559D03*
G54D13*
X50213Y-27559D03*
G54D12*
X63961Y-27559D03*
X64961Y-27559D03*
G54D13*
X65961Y-27559D03*
G54D14*
X39370Y-15354D03*
X74803Y-15354D03*
X39370Y-50787D03*
X74803Y-50787D03*
G54D15*
X71200Y-33300D03*
X71575Y-32300D03*
X70825Y-32300D03*
X73300Y-33300D03*
X73675Y-32300D03*
X72925Y-32300D03*
G54D16*
X67700Y-32100D03*
X67700Y-37100D03*
X66200Y-32100D03*
X66200Y-37100D03*
X64400Y-32100D03*
X64400Y-37100D03*
X62900Y-32100D03*
X62900Y-37100D03*
G54D17*
X72835Y-25118D03*
X41339Y-25118D03*
X57087Y-25118D03*
G54D18*
X72726Y-40900D03*
X73474Y-40900D03*
G54D15*
X70500Y-39900D03*
X70125Y-40900D03*
X70875Y-40900D03*
G54D19*
X73500Y-47926D03*
X73500Y-48674D03*
G54D20*
X73500Y-37500D03*
X73500Y-44500D03*
X68800Y-47900D03*
X63400Y-47900D03*
G54D21*
X50565Y-40950D03*
X39935Y-40950D03*
G54D22*
X47258Y-50714D03*
X43242Y-50714D03*
G54D23*
X45880Y-50714D03*
X44620Y-50714D03*
X40354Y-46496D03*
X40354Y-45496D03*
X40354Y-47496D03*
G54D24*
X56000Y-35100D03*
X55000Y-36100D03*
X56000Y-37100D03*
G54D25*
X56000Y-45200D03*
G54D26*
X56000Y-39294D03*
X54425Y-39294D03*
X57575Y-39294D03*
M02*
