G04 (created by PCBNEW-RS274X (2012-jan-04)-stable) date Mon 04 Jun 2012 05:41:14 PM CEST*
G01*
G70*
G90*
%MOIN*%
G04 Gerber Fmt 3.4, Leading zero omitted, Abs format*
%FSLAX34Y34*%
G04 APERTURE LIST*
%ADD10C,0.006000*%
%ADD11R,0.047200X0.047200*%
%ADD12C,0.070000*%
%ADD13R,0.070000X0.070000*%
%ADD14C,0.160000*%
%ADD15R,0.144000X0.080000*%
%ADD16R,0.040000X0.080000*%
%ADD17C,0.374000*%
%ADD18C,0.060000*%
%ADD19C,0.295300*%
%ADD20R,0.051100X0.059000*%
%ADD21R,0.062900X0.070800*%
%ADD22R,0.086600X0.023600*%
%ADD23R,0.039300X0.043300*%
%ADD24R,0.055000X0.055000*%
%ADD25C,0.055000*%
%ADD26C,0.044000*%
%ADD27C,0.196900*%
%ADD28C,0.137800*%
%ADD29C,0.059100*%
%ADD30C,0.472400*%
%ADD31C,0.013000*%
%ADD32R,0.118100X0.167300*%
%ADD33R,0.167300X0.118100*%
%ADD34C,0.098400*%
G04 APERTURE END LIST*
G54D10*
G54D11*
X50687Y-51200D03*
X51513Y-51200D03*
G54D12*
X63961Y-27559D03*
X64961Y-27559D03*
G54D13*
X65961Y-27559D03*
G54D12*
X48213Y-27559D03*
X49213Y-27559D03*
G54D13*
X50213Y-27559D03*
G54D14*
X39370Y-15354D03*
X74803Y-15354D03*
X39370Y-50787D03*
X74803Y-50787D03*
G54D15*
X45150Y-43750D03*
G54D16*
X45150Y-46350D03*
X46050Y-46350D03*
X44250Y-46350D03*
G54D17*
X64600Y-48300D03*
X69400Y-48300D03*
G54D18*
X67700Y-32100D03*
X67700Y-37100D03*
X66200Y-32100D03*
X66200Y-37100D03*
X64400Y-32100D03*
X64400Y-37100D03*
X62900Y-32100D03*
X62900Y-37100D03*
G54D19*
X72835Y-25118D03*
X41339Y-25118D03*
X57087Y-25118D03*
G54D20*
X45674Y-32100D03*
X44926Y-32100D03*
X45674Y-38100D03*
X44926Y-38100D03*
G54D21*
X46801Y-47750D03*
X45699Y-47750D03*
X43499Y-47750D03*
X44601Y-47750D03*
G54D22*
X44277Y-35150D03*
X44277Y-35650D03*
X44277Y-36150D03*
X44277Y-36650D03*
X46323Y-36650D03*
X46323Y-36150D03*
X46323Y-35650D03*
X46323Y-35150D03*
G54D23*
X50766Y-50100D03*
X51434Y-50100D03*
G54D24*
X39646Y-47496D03*
G54D25*
X39646Y-46496D03*
X39646Y-45496D03*
G54D26*
X57500Y-36700D03*
X56500Y-37700D03*
X55500Y-36700D03*
G54D27*
X50565Y-40950D03*
X39935Y-40950D03*
G54D28*
X47258Y-50950D03*
X43242Y-50950D03*
G54D29*
X45880Y-50950D03*
X44620Y-50950D03*
G54D30*
X73500Y-37500D03*
G54D31*
X73500Y-39232D03*
X73618Y-39114D03*
X73736Y-38996D03*
X73382Y-39114D03*
X73264Y-38996D03*
X73500Y-38957D03*
G54D32*
X73500Y-34606D03*
G54D30*
X73500Y-44500D03*
G54D31*
X75232Y-44500D03*
X75114Y-44382D03*
X74996Y-44264D03*
X75114Y-44618D03*
X74996Y-44736D03*
X74957Y-44500D03*
G54D33*
X70606Y-44500D03*
G54D30*
X56500Y-45000D03*
G54D34*
X56500Y-39094D03*
X54925Y-39094D03*
X58075Y-39094D03*
M02*
