G04 (created by PCBNEW (2013-01-23 BZR 3920)-testing) date Thu 24 Jan 2013 12:53:23 AM CET*
%MOIN*%
G04 Gerber Fmt 3.4, Leading zero omitted, Abs format*
%FSLAX34Y34*%
G01*
G70*
G90*
G04 APERTURE LIST*
%ADD10C,2.3622e-06*%
%ADD11C,0.1969*%
%ADD12O,0.1378X0.0984*%
%ADD13C,0.0591*%
%ADD14C,0.06*%
%ADD15C,0.3937*%
%ADD16C,0.1772*%
%ADD17C,0.315*%
%ADD18C,0.4724*%
%ADD19C,0.0984*%
%ADD20R,0.0472X0.0472*%
%ADD21C,0.16*%
%ADD22R,0.144X0.08*%
%ADD23R,0.04X0.08*%
%ADD24R,0.0511X0.059*%
%ADD25R,0.0629X0.0708*%
%ADD26R,0.0866X0.0236*%
%ADD27R,0.0393X0.0433*%
%ADD28C,0.1575*%
%ADD29O,0.0689X0.1181*%
%ADD30R,0.0551X0.0393*%
%ADD31C,0.065*%
%ADD32R,0.06X0.06*%
%ADD33C,0.035*%
%ADD34C,0.025*%
%ADD35C,0.01*%
%ADD36C,0.008*%
G04 APERTURE END LIST*
G54D10*
G54D11*
X51215Y-41000D03*
X40585Y-41000D03*
G54D12*
X47908Y-50764D03*
X43892Y-50764D03*
G54D13*
X46530Y-50764D03*
X45270Y-50764D03*
G54D14*
X40200Y-36200D03*
X39200Y-37200D03*
X40200Y-38200D03*
G54D15*
X69200Y-47900D03*
G54D16*
X70635Y-48904D02*
X71763Y-49695D01*
G54D15*
X63400Y-47900D03*
G54D16*
X61964Y-48904D02*
X60836Y-49695D01*
G54D17*
X73242Y-25290D03*
X40958Y-25290D03*
G54D18*
X56000Y-45200D03*
G54D19*
X56000Y-39294D03*
X54425Y-39294D03*
X57575Y-39294D03*
G54D20*
X55587Y-35800D03*
X56413Y-35800D03*
G54D21*
X39370Y-15354D03*
X74803Y-15354D03*
X39370Y-50787D03*
X74803Y-50787D03*
G54D22*
X45150Y-43750D03*
G54D23*
X45150Y-46350D03*
X46050Y-46350D03*
X44250Y-46350D03*
G54D24*
X44926Y-37800D03*
X45674Y-37800D03*
G54D25*
X46801Y-47750D03*
X45699Y-47750D03*
X43499Y-47750D03*
X44601Y-47750D03*
G54D26*
X44277Y-35150D03*
X44277Y-35650D03*
X44277Y-36150D03*
X44277Y-36650D03*
X46323Y-36650D03*
X46323Y-36150D03*
X46323Y-35650D03*
X46323Y-35150D03*
G54D27*
X55666Y-34900D03*
X56334Y-34900D03*
G54D15*
X73500Y-36000D03*
X73500Y-43000D03*
G54D28*
X67700Y-30504D03*
X67700Y-43496D03*
X64900Y-30504D03*
X64900Y-43496D03*
G54D24*
X45674Y-31000D03*
X44926Y-31000D03*
X44926Y-32200D03*
X45674Y-32200D03*
G54D25*
X45851Y-39100D03*
X44749Y-39100D03*
G54D24*
X44926Y-34200D03*
X45674Y-34200D03*
G54D29*
X51200Y-27750D03*
X52200Y-27750D03*
X50200Y-27750D03*
X63000Y-27750D03*
X64000Y-27750D03*
X62000Y-27750D03*
G54D24*
X54274Y-30200D03*
X53526Y-30200D03*
X57726Y-30200D03*
X58474Y-30200D03*
G54D29*
X57100Y-27750D03*
X58100Y-27750D03*
X56100Y-27750D03*
G54D30*
X62633Y-42874D03*
X62633Y-42126D03*
X61767Y-42500D03*
X62633Y-44674D03*
X62633Y-43926D03*
X61767Y-44300D03*
G54D24*
X51374Y-38400D03*
X50626Y-38400D03*
G54D14*
X60200Y-40800D03*
X60200Y-35800D03*
X61600Y-40800D03*
X61600Y-35800D03*
G54D31*
X40354Y-46496D03*
X40354Y-45496D03*
X40354Y-47496D03*
G54D32*
X51800Y-36100D03*
G54D14*
X51800Y-35100D03*
X51800Y-34100D03*
G54D32*
X39100Y-30200D03*
G54D14*
X39100Y-31200D03*
X39100Y-32200D03*
X39100Y-33200D03*
G54D33*
X51400Y-37600D03*
X54900Y-37400D03*
X49000Y-35000D03*
X43250Y-46350D03*
X63000Y-40300D03*
X66300Y-47900D03*
X46200Y-31600D03*
X48000Y-35900D03*
X49300Y-38300D03*
X47700Y-38300D03*
X44200Y-33500D03*
X44200Y-32200D03*
X47500Y-37500D03*
X49000Y-35700D03*
X59000Y-37000D03*
X43900Y-37400D03*
G54D34*
X51374Y-38400D02*
X51800Y-38400D01*
X51400Y-37600D02*
X51374Y-37626D01*
X52800Y-37400D02*
X53200Y-37400D01*
X51400Y-37600D02*
X51400Y-38374D01*
X61767Y-44300D02*
X61767Y-46267D01*
X61767Y-46267D02*
X63400Y-47900D01*
X51800Y-38400D02*
X52800Y-37400D01*
X51400Y-38374D02*
X51374Y-38400D01*
X53200Y-37400D02*
X54900Y-37400D01*
X49000Y-35000D02*
X50500Y-35000D01*
X51400Y-34100D02*
X51800Y-34100D01*
X50500Y-35000D02*
X51400Y-34100D01*
X45851Y-39100D02*
X48500Y-39100D01*
X48500Y-39100D02*
X48500Y-39500D01*
X44700Y-45150D02*
X44250Y-45600D01*
X46323Y-35150D02*
X47950Y-35150D01*
X43250Y-46350D02*
X44250Y-46350D01*
X44250Y-45600D02*
X44250Y-46350D01*
X46450Y-45150D02*
X44700Y-45150D01*
X48500Y-35700D02*
X48500Y-39100D01*
X40358Y-47500D02*
X40354Y-47496D01*
X46801Y-45501D02*
X46450Y-45150D01*
X48500Y-46051D02*
X46801Y-47750D01*
X48500Y-39500D02*
X48500Y-40200D01*
X48500Y-40200D02*
X48500Y-46051D01*
X46801Y-47750D02*
X46801Y-45501D01*
X47950Y-35150D02*
X48500Y-35700D01*
X60200Y-35800D02*
X60200Y-36700D01*
X60400Y-36900D02*
X62400Y-36900D01*
X62400Y-36900D02*
X63300Y-36000D01*
X73500Y-36000D02*
X63300Y-36000D01*
X60200Y-36700D02*
X60400Y-36900D01*
X57200Y-34900D02*
X56334Y-34900D01*
X57575Y-39294D02*
X57575Y-35275D01*
X44700Y-46900D02*
X44550Y-47050D01*
X46050Y-46900D02*
X46250Y-47100D01*
X45850Y-45550D02*
X44950Y-45550D01*
X46400Y-51800D02*
X48700Y-51800D01*
X43850Y-47050D02*
X43499Y-47401D01*
X44950Y-45550D02*
X44700Y-45800D01*
X56800Y-40300D02*
X57575Y-39525D01*
X46250Y-49350D02*
X46250Y-49950D01*
X44550Y-47050D02*
X43850Y-47050D01*
X43499Y-47401D02*
X43499Y-47750D01*
X57575Y-35275D02*
X57200Y-34900D01*
X45900Y-50300D02*
X45900Y-51300D01*
X49800Y-39100D02*
X52100Y-39100D01*
X48700Y-51800D02*
X49400Y-51100D01*
X52100Y-39100D02*
X53300Y-40300D01*
X46250Y-47100D02*
X46250Y-49350D01*
X45900Y-51300D02*
X46400Y-51800D01*
X53300Y-40300D02*
X56800Y-40300D01*
X57575Y-39525D02*
X57575Y-39294D01*
X46050Y-45750D02*
X45850Y-45550D01*
X46250Y-49950D02*
X45900Y-50300D01*
X46050Y-46350D02*
X46050Y-45750D01*
X49400Y-51100D02*
X49400Y-39500D01*
X46050Y-46350D02*
X46050Y-46900D01*
X49400Y-39500D02*
X49800Y-39100D01*
X44700Y-45800D02*
X44700Y-46900D01*
X53400Y-34200D02*
X64700Y-34200D01*
X66300Y-30504D02*
X67700Y-30504D01*
X42400Y-34000D02*
X42800Y-33600D01*
X42650Y-36150D02*
X42400Y-35900D01*
X51300Y-33100D02*
X52300Y-33100D01*
X43500Y-32900D02*
X46400Y-32900D01*
X43500Y-32900D02*
X42800Y-33600D01*
X65500Y-32000D02*
X66300Y-31200D01*
X65500Y-33400D02*
X65500Y-32000D01*
X42800Y-33600D02*
X42800Y-33600D01*
X66300Y-30504D02*
X66300Y-31200D01*
X64700Y-34200D02*
X65500Y-33400D01*
X50200Y-34200D02*
X51300Y-33100D01*
X52300Y-33100D02*
X53400Y-34200D01*
X46400Y-32900D02*
X47700Y-34200D01*
X44277Y-36150D02*
X42650Y-36150D01*
X47700Y-34200D02*
X50200Y-34200D01*
X42400Y-35900D02*
X42400Y-34000D01*
X64900Y-30504D02*
X66300Y-30504D01*
X64600Y-45200D02*
X65200Y-45200D01*
X42700Y-31800D02*
X43500Y-31000D01*
X63300Y-43300D02*
X63600Y-43600D01*
X42350Y-47500D02*
X42350Y-40200D01*
X63000Y-40300D02*
X63300Y-40600D01*
X54425Y-39294D02*
X54425Y-38575D01*
X62633Y-42874D02*
X62874Y-42874D01*
X63600Y-44200D02*
X64600Y-45200D01*
X41700Y-37000D02*
X42350Y-37650D01*
X66300Y-46300D02*
X66300Y-47900D01*
X42350Y-39100D02*
X42350Y-39500D01*
X42350Y-37650D02*
X42350Y-39100D01*
X43892Y-50764D02*
X43892Y-50342D01*
X42350Y-47500D02*
X42350Y-48800D01*
X44277Y-36650D02*
X43350Y-36650D01*
X45150Y-47750D02*
X45150Y-46350D01*
X43350Y-36650D02*
X42350Y-37650D01*
X42350Y-39100D02*
X42400Y-39100D01*
X42400Y-39100D02*
X42350Y-39100D01*
X44749Y-39100D02*
X42350Y-39100D01*
X62633Y-44674D02*
X63126Y-44674D01*
X44601Y-50055D02*
X43892Y-50764D01*
X40200Y-36200D02*
X41700Y-36200D01*
X41700Y-33300D02*
X41700Y-36200D01*
X62874Y-42874D02*
X63300Y-43300D01*
X54425Y-38575D02*
X56413Y-36587D01*
X44926Y-31000D02*
X43500Y-31000D01*
X56413Y-36587D02*
X56413Y-35800D01*
X41700Y-37000D02*
X41700Y-36200D01*
X65200Y-45200D02*
X66300Y-46300D01*
X41700Y-33300D02*
X42700Y-32300D01*
X63126Y-44674D02*
X63600Y-44200D01*
X63300Y-40600D02*
X63300Y-43300D01*
X45150Y-47750D02*
X44601Y-47750D01*
X43892Y-50342D02*
X42350Y-48800D01*
X42350Y-39500D02*
X42350Y-40200D01*
X45699Y-47750D02*
X45150Y-47750D01*
X44601Y-47750D02*
X44601Y-50055D01*
X63600Y-43600D02*
X63600Y-44200D01*
X54425Y-39294D02*
X54425Y-39275D01*
X44277Y-36650D02*
X43350Y-36650D01*
X42700Y-32300D02*
X42700Y-31800D01*
X55587Y-35800D02*
X55587Y-34979D01*
X55587Y-34979D02*
X55666Y-34900D01*
X45674Y-31074D02*
X46200Y-31600D01*
X47750Y-35650D02*
X48000Y-35900D01*
X45674Y-31000D02*
X45674Y-31074D01*
X56050Y-30200D02*
X56050Y-30750D01*
X55800Y-31000D02*
X54750Y-31000D01*
X45674Y-32200D02*
X45674Y-31000D01*
X56050Y-30750D02*
X55800Y-31000D01*
X45674Y-31000D02*
X54750Y-31000D01*
X54274Y-30200D02*
X56050Y-30200D01*
X47750Y-35650D02*
X46323Y-35650D01*
X56050Y-30200D02*
X57726Y-30200D01*
X50200Y-30200D02*
X50200Y-27750D01*
X53526Y-30200D02*
X50200Y-30200D01*
X44277Y-35150D02*
X44750Y-35150D01*
X45700Y-37400D02*
X45700Y-37774D01*
X45700Y-37774D02*
X45674Y-37800D01*
X45400Y-35800D02*
X45400Y-37100D01*
X44926Y-34501D02*
X44277Y-35150D01*
X44926Y-34200D02*
X44926Y-34501D01*
X50000Y-38300D02*
X50100Y-38400D01*
X50100Y-38400D02*
X50626Y-38400D01*
X45400Y-37100D02*
X45700Y-37400D01*
X44750Y-35150D02*
X45400Y-35800D01*
X49300Y-38300D02*
X49300Y-38300D01*
X47200Y-37800D02*
X47700Y-38300D01*
X45674Y-37800D02*
X47200Y-37800D01*
X49300Y-38300D02*
X50000Y-38300D01*
X44200Y-32200D02*
X44926Y-32200D01*
X45674Y-34200D02*
X45674Y-33674D01*
G54D35*
X45700Y-36000D02*
X45850Y-36150D01*
X45500Y-35400D02*
X45700Y-35600D01*
X45500Y-35000D02*
X45500Y-35400D01*
G54D34*
X45500Y-33500D02*
X44200Y-33500D01*
G54D35*
X45850Y-36150D02*
X46323Y-36150D01*
G54D34*
X45500Y-33500D02*
X45674Y-33674D01*
G54D35*
X45700Y-35600D02*
X45700Y-36000D01*
X45674Y-34826D02*
X45500Y-35000D01*
X45674Y-34200D02*
X45674Y-34826D01*
G54D34*
X46323Y-36650D02*
X46650Y-36650D01*
X46650Y-36650D02*
X47500Y-37500D01*
X51400Y-35100D02*
X51800Y-35100D01*
X50900Y-35600D02*
X51400Y-35100D01*
X49100Y-35600D02*
X50900Y-35600D01*
X49000Y-35700D02*
X49100Y-35600D01*
X58474Y-30200D02*
X62000Y-30200D01*
X62000Y-30200D02*
X62000Y-27750D01*
X60900Y-40900D02*
X60900Y-40800D01*
X60900Y-40800D02*
X60900Y-40900D01*
X60900Y-42400D02*
X61000Y-42500D01*
X61000Y-42500D02*
X61767Y-42500D01*
X60900Y-40900D02*
X60900Y-42400D01*
X60200Y-40800D02*
X60900Y-40800D01*
X60900Y-40800D02*
X61600Y-40800D01*
X60900Y-38900D02*
X60900Y-40800D01*
X60900Y-38900D02*
X59000Y-37000D01*
X43900Y-37400D02*
X44300Y-37800D01*
X44300Y-37800D02*
X44926Y-37800D01*
X45000Y-35900D02*
X45000Y-37726D01*
X44750Y-35650D02*
X45000Y-35900D01*
X44277Y-35650D02*
X44750Y-35650D01*
X45000Y-37726D02*
X44926Y-37800D01*
G54D10*
G36*
X76560Y-51748D02*
X76546Y-51888D01*
X76505Y-52021D01*
X76440Y-52144D01*
X76351Y-52251D01*
X76244Y-52340D01*
X76240Y-52342D01*
X76240Y-26519D01*
X76240Y-22280D01*
X76226Y-22141D01*
X76185Y-22006D01*
X76118Y-21881D01*
X76028Y-21771D01*
X75918Y-21681D01*
X75793Y-21614D01*
X75658Y-21573D01*
X75519Y-21560D01*
X38680Y-21560D01*
X38541Y-21573D01*
X38406Y-21614D01*
X38281Y-21681D01*
X38171Y-21771D01*
X38081Y-21881D01*
X38014Y-22006D01*
X37973Y-22141D01*
X37960Y-22280D01*
X37960Y-26519D01*
X37973Y-26658D01*
X38014Y-26793D01*
X38081Y-26918D01*
X38171Y-27028D01*
X38281Y-27118D01*
X38406Y-27185D01*
X38541Y-27226D01*
X38680Y-27240D01*
X39554Y-27240D01*
X39780Y-27396D01*
X40212Y-27585D01*
X40672Y-27686D01*
X41143Y-27696D01*
X41607Y-27614D01*
X42046Y-27444D01*
X42368Y-27240D01*
X48748Y-27240D01*
X48888Y-27253D01*
X49021Y-27294D01*
X49144Y-27359D01*
X49251Y-27448D01*
X49340Y-27555D01*
X49405Y-27678D01*
X49446Y-27811D01*
X49460Y-27951D01*
X49460Y-28051D01*
X49474Y-28204D01*
X49519Y-28352D01*
X49592Y-28489D01*
X49691Y-28608D01*
X49810Y-28707D01*
X49935Y-28773D01*
X49935Y-30200D01*
X49937Y-30224D01*
X49939Y-30249D01*
X49939Y-30250D01*
X49940Y-30251D01*
X49947Y-30275D01*
X49954Y-30299D01*
X49954Y-30300D01*
X49954Y-30300D01*
X49966Y-30322D01*
X49978Y-30345D01*
X49978Y-30345D01*
X49979Y-30346D01*
X49995Y-30365D01*
X50010Y-30385D01*
X50011Y-30386D01*
X50011Y-30386D01*
X50031Y-30402D01*
X50050Y-30418D01*
X50051Y-30419D01*
X50051Y-30419D01*
X50073Y-30431D01*
X50095Y-30443D01*
X50096Y-30443D01*
X50097Y-30444D01*
X50121Y-30451D01*
X50144Y-30459D01*
X50145Y-30459D01*
X50146Y-30459D01*
X50171Y-30462D01*
X50196Y-30464D01*
X50198Y-30464D01*
X50198Y-30464D01*
X50198Y-30464D01*
X50200Y-30465D01*
X53130Y-30465D01*
X53130Y-30508D01*
X53135Y-30535D01*
X53146Y-30561D01*
X53161Y-30583D01*
X53180Y-30603D01*
X53203Y-30618D01*
X53228Y-30629D01*
X53255Y-30634D01*
X53283Y-30635D01*
X53795Y-30635D01*
X53822Y-30629D01*
X53847Y-30619D01*
X53870Y-30604D01*
X53889Y-30584D01*
X53900Y-30569D01*
X53909Y-30583D01*
X53928Y-30603D01*
X53951Y-30618D01*
X53976Y-30629D01*
X54003Y-30634D01*
X54031Y-30635D01*
X54543Y-30635D01*
X54570Y-30629D01*
X54595Y-30619D01*
X54618Y-30604D01*
X54637Y-30584D01*
X54653Y-30561D01*
X54663Y-30536D01*
X54669Y-30509D01*
X54669Y-30482D01*
X54669Y-30465D01*
X55785Y-30465D01*
X55785Y-30640D01*
X55690Y-30735D01*
X54750Y-30735D01*
X46069Y-30735D01*
X46069Y-30691D01*
X46064Y-30664D01*
X46053Y-30638D01*
X46038Y-30616D01*
X46019Y-30596D01*
X45996Y-30581D01*
X45971Y-30570D01*
X45944Y-30565D01*
X45916Y-30564D01*
X45404Y-30564D01*
X45377Y-30570D01*
X45352Y-30580D01*
X45329Y-30595D01*
X45310Y-30615D01*
X45294Y-30638D01*
X45284Y-30663D01*
X45278Y-30690D01*
X45278Y-30717D01*
X45278Y-31308D01*
X45283Y-31335D01*
X45294Y-31361D01*
X45309Y-31383D01*
X45328Y-31403D01*
X45351Y-31418D01*
X45376Y-31429D01*
X45403Y-31434D01*
X45409Y-31434D01*
X45409Y-31764D01*
X45404Y-31764D01*
X45377Y-31770D01*
X45352Y-31780D01*
X45329Y-31795D01*
X45310Y-31815D01*
X45299Y-31830D01*
X45290Y-31816D01*
X45271Y-31796D01*
X45248Y-31781D01*
X45223Y-31770D01*
X45196Y-31765D01*
X45168Y-31764D01*
X44656Y-31764D01*
X44629Y-31770D01*
X44604Y-31780D01*
X44581Y-31795D01*
X44562Y-31815D01*
X44546Y-31838D01*
X44536Y-31863D01*
X44530Y-31890D01*
X44530Y-31917D01*
X44530Y-31935D01*
X44370Y-31935D01*
X44350Y-31921D01*
X44293Y-31897D01*
X44233Y-31885D01*
X44171Y-31884D01*
X44110Y-31896D01*
X44053Y-31919D01*
X44001Y-31953D01*
X43957Y-31996D01*
X43922Y-32047D01*
X43898Y-32104D01*
X43885Y-32164D01*
X43884Y-32226D01*
X43895Y-32287D01*
X43918Y-32344D01*
X43951Y-32396D01*
X43994Y-32441D01*
X44045Y-32476D01*
X44102Y-32501D01*
X44162Y-32514D01*
X44224Y-32515D01*
X44285Y-32504D01*
X44342Y-32482D01*
X44370Y-32465D01*
X44530Y-32465D01*
X44530Y-32508D01*
X44535Y-32535D01*
X44546Y-32561D01*
X44561Y-32583D01*
X44580Y-32603D01*
X44603Y-32618D01*
X44628Y-32629D01*
X44655Y-32634D01*
X44669Y-32635D01*
X43500Y-32635D01*
X43475Y-32637D01*
X43451Y-32639D01*
X43449Y-32639D01*
X43448Y-32640D01*
X43425Y-32647D01*
X43401Y-32653D01*
X43400Y-32654D01*
X43399Y-32654D01*
X43377Y-32666D01*
X43355Y-32677D01*
X43354Y-32678D01*
X43353Y-32679D01*
X43334Y-32694D01*
X43315Y-32710D01*
X43313Y-32711D01*
X43313Y-32711D01*
X43313Y-32712D01*
X43312Y-32712D01*
X42612Y-33412D01*
X42612Y-33412D01*
X42212Y-33812D01*
X42197Y-33831D01*
X42181Y-33850D01*
X42180Y-33851D01*
X42179Y-33852D01*
X42168Y-33874D01*
X42156Y-33895D01*
X42156Y-33896D01*
X42155Y-33898D01*
X42148Y-33921D01*
X42140Y-33944D01*
X42140Y-33946D01*
X42140Y-33947D01*
X42137Y-33971D01*
X42135Y-33996D01*
X42135Y-33999D01*
X42135Y-33999D01*
X42135Y-33999D01*
X42135Y-34000D01*
X42135Y-35900D01*
X42137Y-35924D01*
X42139Y-35948D01*
X42139Y-35950D01*
X42140Y-35951D01*
X42147Y-35974D01*
X42153Y-35998D01*
X42154Y-35999D01*
X42154Y-36000D01*
X42166Y-36022D01*
X42177Y-36044D01*
X42178Y-36045D01*
X42179Y-36046D01*
X42194Y-36065D01*
X42210Y-36084D01*
X42211Y-36086D01*
X42211Y-36086D01*
X42211Y-36086D01*
X42212Y-36087D01*
X42462Y-36337D01*
X42481Y-36352D01*
X42500Y-36368D01*
X42501Y-36369D01*
X42502Y-36370D01*
X42524Y-36381D01*
X42545Y-36393D01*
X42546Y-36393D01*
X42548Y-36394D01*
X42571Y-36401D01*
X42594Y-36409D01*
X42596Y-36409D01*
X42597Y-36409D01*
X42621Y-36412D01*
X42646Y-36414D01*
X42649Y-36414D01*
X42649Y-36414D01*
X42649Y-36414D01*
X42650Y-36415D01*
X44277Y-36415D01*
X44328Y-36409D01*
X44334Y-36408D01*
X44723Y-36408D01*
X44735Y-36405D01*
X44735Y-37364D01*
X44656Y-37364D01*
X44629Y-37370D01*
X44604Y-37380D01*
X44581Y-37395D01*
X44562Y-37415D01*
X44546Y-37438D01*
X44536Y-37463D01*
X44530Y-37490D01*
X44530Y-37517D01*
X44530Y-37535D01*
X44409Y-37535D01*
X44207Y-37333D01*
X44203Y-37308D01*
X44179Y-37251D01*
X44145Y-37199D01*
X44101Y-37156D01*
X44050Y-37121D01*
X43993Y-37097D01*
X43933Y-37085D01*
X43871Y-37084D01*
X43810Y-37096D01*
X43753Y-37119D01*
X43701Y-37153D01*
X43657Y-37196D01*
X43622Y-37247D01*
X43598Y-37304D01*
X43585Y-37364D01*
X43584Y-37426D01*
X43595Y-37487D01*
X43618Y-37544D01*
X43651Y-37596D01*
X43694Y-37641D01*
X43745Y-37676D01*
X43802Y-37701D01*
X43833Y-37707D01*
X44112Y-37987D01*
X44131Y-38002D01*
X44150Y-38018D01*
X44151Y-38019D01*
X44152Y-38020D01*
X44174Y-38031D01*
X44195Y-38043D01*
X44196Y-38043D01*
X44198Y-38044D01*
X44221Y-38051D01*
X44244Y-38059D01*
X44246Y-38059D01*
X44247Y-38059D01*
X44271Y-38062D01*
X44296Y-38064D01*
X44299Y-38064D01*
X44299Y-38064D01*
X44299Y-38064D01*
X44300Y-38065D01*
X44530Y-38065D01*
X44530Y-38108D01*
X44535Y-38135D01*
X44546Y-38161D01*
X44561Y-38183D01*
X44580Y-38203D01*
X44603Y-38218D01*
X44628Y-38229D01*
X44655Y-38234D01*
X44683Y-38235D01*
X45195Y-38235D01*
X45222Y-38229D01*
X45247Y-38219D01*
X45270Y-38204D01*
X45289Y-38184D01*
X45300Y-38169D01*
X45309Y-38183D01*
X45328Y-38203D01*
X45351Y-38218D01*
X45376Y-38229D01*
X45403Y-38234D01*
X45431Y-38235D01*
X45943Y-38235D01*
X45970Y-38229D01*
X45995Y-38219D01*
X46018Y-38204D01*
X46037Y-38184D01*
X46053Y-38161D01*
X46063Y-38136D01*
X46069Y-38109D01*
X46069Y-38082D01*
X46069Y-38065D01*
X47090Y-38065D01*
X47391Y-38366D01*
X47395Y-38387D01*
X47418Y-38444D01*
X47451Y-38496D01*
X47494Y-38541D01*
X47545Y-38576D01*
X47602Y-38601D01*
X47662Y-38614D01*
X47724Y-38615D01*
X47785Y-38604D01*
X47842Y-38582D01*
X47894Y-38549D01*
X47939Y-38506D01*
X47975Y-38456D01*
X48000Y-38399D01*
X48014Y-38339D01*
X48015Y-38269D01*
X48003Y-38208D01*
X47979Y-38151D01*
X47945Y-38099D01*
X47901Y-38056D01*
X47850Y-38021D01*
X47793Y-37997D01*
X47766Y-37992D01*
X47580Y-37805D01*
X47585Y-37804D01*
X47642Y-37782D01*
X47694Y-37749D01*
X47739Y-37706D01*
X47775Y-37656D01*
X47800Y-37599D01*
X47814Y-37539D01*
X47815Y-37469D01*
X47803Y-37408D01*
X47779Y-37351D01*
X47745Y-37299D01*
X47701Y-37256D01*
X47650Y-37221D01*
X47593Y-37197D01*
X47566Y-37192D01*
X46896Y-36521D01*
X46896Y-36518D01*
X46890Y-36491D01*
X46880Y-36465D01*
X46865Y-36443D01*
X46845Y-36423D01*
X46822Y-36408D01*
X46803Y-36399D01*
X46822Y-36392D01*
X46844Y-36377D01*
X46864Y-36357D01*
X46879Y-36334D01*
X46890Y-36309D01*
X46895Y-36282D01*
X46896Y-36255D01*
X46896Y-36018D01*
X46890Y-35991D01*
X46880Y-35965D01*
X46865Y-35943D01*
X46845Y-35923D01*
X46832Y-35915D01*
X47640Y-35915D01*
X47691Y-35966D01*
X47695Y-35987D01*
X47718Y-36044D01*
X47751Y-36096D01*
X47794Y-36141D01*
X47845Y-36176D01*
X47902Y-36201D01*
X47962Y-36214D01*
X48024Y-36215D01*
X48085Y-36204D01*
X48142Y-36182D01*
X48194Y-36149D01*
X48235Y-36111D01*
X48235Y-38835D01*
X46305Y-38835D01*
X46305Y-38732D01*
X46300Y-38705D01*
X46289Y-38679D01*
X46274Y-38657D01*
X46255Y-38637D01*
X46232Y-38622D01*
X46207Y-38611D01*
X46180Y-38606D01*
X46152Y-38605D01*
X45522Y-38605D01*
X45495Y-38611D01*
X45470Y-38621D01*
X45447Y-38636D01*
X45428Y-38656D01*
X45412Y-38679D01*
X45402Y-38704D01*
X45396Y-38731D01*
X45396Y-38758D01*
X45396Y-39467D01*
X45401Y-39494D01*
X45412Y-39520D01*
X45427Y-39542D01*
X45446Y-39562D01*
X45469Y-39577D01*
X45494Y-39588D01*
X45521Y-39593D01*
X45549Y-39594D01*
X46179Y-39594D01*
X46206Y-39588D01*
X46231Y-39578D01*
X46254Y-39563D01*
X46273Y-39543D01*
X46289Y-39520D01*
X46299Y-39495D01*
X46305Y-39468D01*
X46305Y-39441D01*
X46305Y-39365D01*
X48235Y-39365D01*
X48235Y-39500D01*
X48235Y-40200D01*
X48235Y-45941D01*
X47066Y-47110D01*
X47066Y-45501D01*
X47063Y-45476D01*
X47061Y-45452D01*
X47061Y-45450D01*
X47060Y-45449D01*
X47053Y-45426D01*
X47047Y-45402D01*
X47046Y-45401D01*
X47046Y-45400D01*
X47034Y-45378D01*
X47023Y-45356D01*
X47022Y-45355D01*
X47021Y-45354D01*
X47006Y-45335D01*
X46990Y-45316D01*
X46989Y-45314D01*
X46989Y-45314D01*
X46988Y-45314D01*
X46988Y-45313D01*
X46637Y-44962D01*
X46618Y-44947D01*
X46599Y-44931D01*
X46598Y-44930D01*
X46597Y-44929D01*
X46575Y-44918D01*
X46554Y-44906D01*
X46553Y-44906D01*
X46551Y-44905D01*
X46528Y-44898D01*
X46505Y-44890D01*
X46503Y-44890D01*
X46502Y-44890D01*
X46478Y-44887D01*
X46453Y-44885D01*
X46450Y-44885D01*
X46450Y-44885D01*
X46450Y-44885D01*
X46450Y-44885D01*
X46010Y-44885D01*
X46010Y-44137D01*
X46010Y-43336D01*
X46004Y-43309D01*
X45994Y-43283D01*
X45979Y-43261D01*
X45959Y-43241D01*
X45936Y-43226D01*
X45911Y-43215D01*
X45884Y-43210D01*
X45857Y-43209D01*
X44416Y-43209D01*
X44389Y-43215D01*
X44363Y-43225D01*
X44341Y-43240D01*
X44321Y-43260D01*
X44306Y-43283D01*
X44295Y-43308D01*
X44290Y-43335D01*
X44289Y-43362D01*
X44289Y-44163D01*
X44295Y-44190D01*
X44305Y-44216D01*
X44320Y-44238D01*
X44340Y-44258D01*
X44363Y-44273D01*
X44388Y-44284D01*
X44415Y-44289D01*
X44442Y-44290D01*
X45883Y-44290D01*
X45910Y-44284D01*
X45936Y-44274D01*
X45958Y-44259D01*
X45978Y-44239D01*
X45993Y-44216D01*
X46004Y-44191D01*
X46009Y-44164D01*
X46010Y-44137D01*
X46010Y-44885D01*
X44700Y-44885D01*
X44675Y-44887D01*
X44651Y-44889D01*
X44649Y-44889D01*
X44648Y-44890D01*
X44625Y-44897D01*
X44601Y-44903D01*
X44600Y-44904D01*
X44599Y-44904D01*
X44577Y-44916D01*
X44555Y-44927D01*
X44554Y-44928D01*
X44553Y-44929D01*
X44534Y-44944D01*
X44515Y-44960D01*
X44513Y-44961D01*
X44513Y-44961D01*
X44513Y-44961D01*
X44512Y-44962D01*
X44062Y-45412D01*
X44047Y-45431D01*
X44031Y-45450D01*
X44030Y-45451D01*
X44029Y-45452D01*
X44018Y-45474D01*
X44006Y-45495D01*
X44006Y-45496D01*
X44005Y-45498D01*
X43998Y-45521D01*
X43990Y-45544D01*
X43990Y-45546D01*
X43990Y-45547D01*
X43987Y-45571D01*
X43985Y-45596D01*
X43985Y-45599D01*
X43985Y-45599D01*
X43985Y-45599D01*
X43985Y-45600D01*
X43985Y-45825D01*
X43983Y-45825D01*
X43961Y-45840D01*
X43941Y-45860D01*
X43926Y-45883D01*
X43915Y-45908D01*
X43910Y-45935D01*
X43909Y-45962D01*
X43909Y-46085D01*
X43420Y-46085D01*
X43400Y-46071D01*
X43343Y-46047D01*
X43283Y-46035D01*
X43221Y-46034D01*
X43160Y-46046D01*
X43103Y-46069D01*
X43051Y-46103D01*
X43007Y-46146D01*
X42972Y-46197D01*
X42948Y-46254D01*
X42935Y-46314D01*
X42934Y-46376D01*
X42945Y-46437D01*
X42968Y-46494D01*
X43001Y-46546D01*
X43044Y-46591D01*
X43095Y-46626D01*
X43152Y-46651D01*
X43212Y-46664D01*
X43274Y-46665D01*
X43335Y-46654D01*
X43392Y-46632D01*
X43420Y-46615D01*
X43909Y-46615D01*
X43909Y-46763D01*
X43914Y-46785D01*
X43850Y-46785D01*
X43825Y-46787D01*
X43801Y-46789D01*
X43799Y-46789D01*
X43798Y-46790D01*
X43775Y-46797D01*
X43751Y-46803D01*
X43750Y-46804D01*
X43749Y-46804D01*
X43727Y-46816D01*
X43705Y-46827D01*
X43704Y-46828D01*
X43703Y-46829D01*
X43684Y-46844D01*
X43665Y-46860D01*
X43663Y-46861D01*
X43663Y-46861D01*
X43663Y-46862D01*
X43662Y-46862D01*
X43311Y-47213D01*
X43296Y-47232D01*
X43280Y-47251D01*
X43279Y-47252D01*
X43278Y-47253D01*
X43277Y-47255D01*
X43170Y-47255D01*
X43143Y-47261D01*
X43118Y-47271D01*
X43095Y-47286D01*
X43076Y-47306D01*
X43060Y-47329D01*
X43050Y-47354D01*
X43044Y-47381D01*
X43044Y-47408D01*
X43044Y-48117D01*
X43049Y-48144D01*
X43060Y-48170D01*
X43075Y-48192D01*
X43094Y-48212D01*
X43117Y-48227D01*
X43142Y-48238D01*
X43169Y-48243D01*
X43197Y-48244D01*
X43827Y-48244D01*
X43854Y-48238D01*
X43879Y-48228D01*
X43902Y-48213D01*
X43921Y-48193D01*
X43937Y-48170D01*
X43947Y-48145D01*
X43953Y-48118D01*
X43953Y-48091D01*
X43953Y-47382D01*
X43948Y-47355D01*
X43939Y-47334D01*
X43959Y-47315D01*
X44550Y-47315D01*
X44574Y-47312D01*
X44598Y-47310D01*
X44600Y-47310D01*
X44601Y-47309D01*
X44624Y-47302D01*
X44648Y-47296D01*
X44649Y-47295D01*
X44650Y-47295D01*
X44672Y-47283D01*
X44694Y-47272D01*
X44695Y-47271D01*
X44696Y-47270D01*
X44715Y-47255D01*
X44734Y-47239D01*
X44736Y-47238D01*
X44736Y-47238D01*
X44736Y-47238D01*
X44737Y-47237D01*
X44887Y-47087D01*
X44902Y-47068D01*
X44918Y-47049D01*
X44919Y-47048D01*
X44920Y-47047D01*
X44931Y-47025D01*
X44943Y-47004D01*
X44943Y-47003D01*
X44944Y-47001D01*
X44951Y-46978D01*
X44959Y-46955D01*
X44959Y-46953D01*
X44959Y-46952D01*
X44962Y-46928D01*
X44964Y-46903D01*
X44964Y-46900D01*
X44964Y-46900D01*
X44964Y-46900D01*
X44965Y-46900D01*
X44965Y-45909D01*
X45059Y-45815D01*
X45740Y-45815D01*
X45764Y-45838D01*
X45761Y-45840D01*
X45741Y-45860D01*
X45726Y-45883D01*
X45715Y-45908D01*
X45710Y-45935D01*
X45709Y-45962D01*
X45709Y-46763D01*
X45715Y-46790D01*
X45725Y-46816D01*
X45740Y-46838D01*
X45760Y-46858D01*
X45783Y-46873D01*
X45785Y-46874D01*
X45785Y-46900D01*
X45787Y-46924D01*
X45789Y-46948D01*
X45789Y-46950D01*
X45790Y-46951D01*
X45797Y-46974D01*
X45803Y-46998D01*
X45804Y-46999D01*
X45804Y-47000D01*
X45816Y-47022D01*
X45827Y-47044D01*
X45828Y-47045D01*
X45829Y-47046D01*
X45844Y-47065D01*
X45860Y-47084D01*
X45861Y-47086D01*
X45861Y-47086D01*
X45861Y-47086D01*
X45862Y-47087D01*
X45985Y-47209D01*
X45985Y-49350D01*
X45985Y-49840D01*
X45712Y-50112D01*
X45697Y-50131D01*
X45681Y-50150D01*
X45680Y-50151D01*
X45679Y-50152D01*
X45668Y-50174D01*
X45656Y-50195D01*
X45656Y-50196D01*
X45655Y-50198D01*
X45648Y-50221D01*
X45640Y-50244D01*
X45640Y-50246D01*
X45640Y-50247D01*
X45637Y-50271D01*
X45635Y-50296D01*
X45635Y-50299D01*
X45635Y-50299D01*
X45635Y-50299D01*
X45635Y-50300D01*
X45635Y-50526D01*
X45609Y-50487D01*
X45548Y-50426D01*
X45478Y-50379D01*
X45399Y-50345D01*
X45315Y-50328D01*
X45230Y-50328D01*
X45146Y-50344D01*
X45067Y-50376D01*
X44995Y-50422D01*
X44934Y-50482D01*
X44886Y-50553D01*
X44852Y-50631D01*
X44835Y-50715D01*
X44833Y-50800D01*
X44849Y-50884D01*
X44880Y-50964D01*
X44927Y-51035D01*
X44986Y-51097D01*
X45056Y-51145D01*
X45134Y-51180D01*
X45218Y-51198D01*
X45303Y-51200D01*
X45387Y-51185D01*
X45467Y-51154D01*
X45539Y-51108D01*
X45601Y-51049D01*
X45635Y-51002D01*
X45635Y-51300D01*
X45637Y-51324D01*
X45639Y-51348D01*
X45639Y-51350D01*
X45640Y-51351D01*
X45647Y-51374D01*
X45653Y-51398D01*
X45654Y-51399D01*
X45654Y-51400D01*
X45666Y-51422D01*
X45677Y-51444D01*
X45678Y-51445D01*
X45679Y-51446D01*
X45694Y-51465D01*
X45710Y-51484D01*
X45711Y-51486D01*
X45711Y-51486D01*
X45711Y-51486D01*
X45712Y-51487D01*
X46212Y-51987D01*
X46231Y-52002D01*
X46250Y-52018D01*
X46251Y-52019D01*
X46252Y-52020D01*
X46274Y-52031D01*
X46295Y-52043D01*
X46296Y-52043D01*
X46298Y-52044D01*
X46321Y-52051D01*
X46344Y-52059D01*
X46346Y-52059D01*
X46347Y-52059D01*
X46371Y-52062D01*
X46396Y-52064D01*
X46399Y-52064D01*
X46399Y-52064D01*
X46399Y-52064D01*
X46400Y-52065D01*
X48700Y-52065D01*
X48724Y-52062D01*
X48748Y-52060D01*
X48750Y-52060D01*
X48751Y-52059D01*
X48774Y-52052D01*
X48798Y-52046D01*
X48799Y-52045D01*
X48800Y-52045D01*
X48822Y-52033D01*
X48844Y-52022D01*
X48845Y-52021D01*
X48846Y-52020D01*
X48865Y-52005D01*
X48884Y-51989D01*
X48886Y-51988D01*
X48886Y-51988D01*
X48886Y-51988D01*
X48887Y-51987D01*
X49587Y-51287D01*
X49602Y-51268D01*
X49618Y-51249D01*
X49619Y-51248D01*
X49620Y-51247D01*
X49631Y-51225D01*
X49643Y-51204D01*
X49643Y-51203D01*
X49644Y-51201D01*
X49651Y-51178D01*
X49659Y-51155D01*
X49659Y-51153D01*
X49659Y-51152D01*
X49662Y-51128D01*
X49664Y-51103D01*
X49664Y-51100D01*
X49664Y-51100D01*
X49664Y-51100D01*
X49665Y-51100D01*
X49665Y-39609D01*
X49909Y-39365D01*
X51990Y-39365D01*
X53112Y-40487D01*
X53131Y-40502D01*
X53150Y-40518D01*
X53151Y-40519D01*
X53152Y-40520D01*
X53174Y-40531D01*
X53195Y-40543D01*
X53196Y-40543D01*
X53198Y-40544D01*
X53221Y-40551D01*
X53244Y-40559D01*
X53246Y-40559D01*
X53247Y-40559D01*
X53271Y-40562D01*
X53296Y-40564D01*
X53299Y-40564D01*
X53299Y-40564D01*
X53299Y-40564D01*
X53300Y-40565D01*
X56800Y-40565D01*
X56824Y-40562D01*
X56848Y-40560D01*
X56850Y-40560D01*
X56851Y-40559D01*
X56874Y-40552D01*
X56898Y-40546D01*
X56899Y-40545D01*
X56900Y-40545D01*
X56922Y-40533D01*
X56944Y-40522D01*
X56945Y-40521D01*
X56946Y-40520D01*
X56965Y-40505D01*
X56984Y-40489D01*
X56986Y-40488D01*
X56986Y-40488D01*
X56986Y-40488D01*
X56987Y-40487D01*
X57549Y-39925D01*
X57623Y-39927D01*
X57745Y-39905D01*
X57861Y-39860D01*
X57965Y-39794D01*
X58055Y-39708D01*
X58127Y-39607D01*
X58177Y-39494D01*
X58205Y-39373D01*
X58207Y-39232D01*
X58182Y-39110D01*
X58135Y-38995D01*
X58067Y-38892D01*
X57979Y-38804D01*
X57877Y-38735D01*
X57840Y-38719D01*
X57840Y-35275D01*
X57837Y-35250D01*
X57835Y-35226D01*
X57835Y-35224D01*
X57834Y-35223D01*
X57827Y-35200D01*
X57821Y-35176D01*
X57820Y-35175D01*
X57820Y-35174D01*
X57808Y-35152D01*
X57797Y-35130D01*
X57796Y-35129D01*
X57795Y-35128D01*
X57780Y-35109D01*
X57764Y-35090D01*
X57763Y-35088D01*
X57763Y-35088D01*
X57762Y-35088D01*
X57762Y-35087D01*
X57387Y-34712D01*
X57368Y-34697D01*
X57349Y-34681D01*
X57348Y-34680D01*
X57347Y-34679D01*
X57325Y-34668D01*
X57304Y-34656D01*
X57303Y-34656D01*
X57301Y-34655D01*
X57278Y-34648D01*
X57255Y-34640D01*
X57253Y-34640D01*
X57252Y-34640D01*
X57228Y-34637D01*
X57203Y-34635D01*
X57200Y-34635D01*
X57200Y-34635D01*
X57200Y-34635D01*
X57200Y-34635D01*
X56661Y-34635D01*
X56654Y-34617D01*
X56639Y-34594D01*
X56620Y-34575D01*
X56597Y-34559D01*
X56572Y-34549D01*
X56545Y-34543D01*
X56517Y-34543D01*
X56123Y-34543D01*
X56096Y-34548D01*
X56071Y-34559D01*
X56048Y-34574D01*
X56029Y-34593D01*
X56013Y-34616D01*
X56003Y-34641D01*
X55999Y-34657D01*
X55997Y-34642D01*
X55986Y-34617D01*
X55971Y-34594D01*
X55952Y-34575D01*
X55929Y-34559D01*
X55904Y-34549D01*
X55877Y-34543D01*
X55849Y-34543D01*
X55455Y-34543D01*
X55428Y-34548D01*
X55403Y-34559D01*
X55380Y-34574D01*
X55361Y-34593D01*
X55345Y-34616D01*
X55335Y-34641D01*
X55329Y-34668D01*
X55329Y-34696D01*
X55329Y-34918D01*
X55327Y-34923D01*
X55327Y-34925D01*
X55327Y-34926D01*
X55324Y-34950D01*
X55322Y-34975D01*
X55322Y-34978D01*
X55322Y-34978D01*
X55322Y-34978D01*
X55322Y-34979D01*
X55322Y-35427D01*
X55310Y-35429D01*
X55284Y-35439D01*
X55262Y-35454D01*
X55242Y-35474D01*
X55227Y-35497D01*
X55216Y-35522D01*
X55211Y-35549D01*
X55210Y-35576D01*
X55210Y-36049D01*
X55216Y-36076D01*
X55226Y-36102D01*
X55241Y-36124D01*
X55261Y-36144D01*
X55284Y-36159D01*
X55309Y-36170D01*
X55336Y-36175D01*
X55363Y-36176D01*
X55836Y-36176D01*
X55863Y-36170D01*
X55889Y-36160D01*
X55911Y-36145D01*
X55931Y-36125D01*
X55946Y-36102D01*
X55957Y-36077D01*
X55962Y-36050D01*
X55963Y-36023D01*
X55963Y-35550D01*
X55957Y-35523D01*
X55947Y-35497D01*
X55932Y-35475D01*
X55912Y-35455D01*
X55889Y-35440D01*
X55864Y-35429D01*
X55852Y-35427D01*
X55852Y-35256D01*
X55876Y-35256D01*
X55903Y-35251D01*
X55928Y-35240D01*
X55951Y-35225D01*
X55970Y-35206D01*
X55986Y-35183D01*
X55996Y-35158D01*
X56000Y-35142D01*
X56002Y-35157D01*
X56013Y-35182D01*
X56028Y-35205D01*
X56047Y-35224D01*
X56070Y-35240D01*
X56095Y-35250D01*
X56122Y-35256D01*
X56150Y-35256D01*
X56544Y-35256D01*
X56571Y-35251D01*
X56596Y-35240D01*
X56619Y-35225D01*
X56638Y-35206D01*
X56654Y-35183D01*
X56661Y-35165D01*
X57090Y-35165D01*
X57310Y-35384D01*
X57310Y-38719D01*
X57280Y-38731D01*
X57177Y-38799D01*
X57088Y-38885D01*
X57018Y-38988D01*
X56969Y-39101D01*
X56943Y-39223D01*
X56942Y-39347D01*
X56964Y-39469D01*
X57010Y-39584D01*
X57061Y-39663D01*
X56690Y-40035D01*
X56632Y-40035D01*
X56632Y-39232D01*
X56607Y-39110D01*
X56560Y-38995D01*
X56492Y-38892D01*
X56404Y-38804D01*
X56302Y-38735D01*
X56187Y-38687D01*
X56066Y-38662D01*
X55942Y-38661D01*
X55820Y-38684D01*
X55705Y-38731D01*
X55602Y-38799D01*
X55513Y-38885D01*
X55443Y-38988D01*
X55394Y-39101D01*
X55368Y-39223D01*
X55367Y-39347D01*
X55389Y-39469D01*
X55435Y-39584D01*
X55502Y-39688D01*
X55588Y-39777D01*
X55690Y-39848D01*
X55803Y-39897D01*
X55924Y-39924D01*
X56048Y-39927D01*
X56170Y-39905D01*
X56286Y-39860D01*
X56390Y-39794D01*
X56480Y-39708D01*
X56552Y-39607D01*
X56602Y-39494D01*
X56630Y-39373D01*
X56632Y-39232D01*
X56632Y-40035D01*
X53409Y-40035D01*
X52287Y-38912D01*
X52268Y-38897D01*
X52249Y-38881D01*
X52248Y-38880D01*
X52247Y-38879D01*
X52225Y-38868D01*
X52204Y-38856D01*
X52203Y-38856D01*
X52201Y-38855D01*
X52178Y-38848D01*
X52155Y-38840D01*
X52153Y-38840D01*
X52152Y-38840D01*
X52128Y-38837D01*
X52103Y-38835D01*
X52100Y-38835D01*
X52100Y-38835D01*
X52100Y-38835D01*
X52100Y-38835D01*
X51643Y-38835D01*
X51670Y-38829D01*
X51695Y-38819D01*
X51718Y-38804D01*
X51737Y-38784D01*
X51753Y-38761D01*
X51763Y-38736D01*
X51769Y-38709D01*
X51769Y-38682D01*
X51769Y-38665D01*
X51800Y-38665D01*
X51824Y-38662D01*
X51848Y-38660D01*
X51850Y-38660D01*
X51851Y-38659D01*
X51874Y-38652D01*
X51898Y-38646D01*
X51899Y-38645D01*
X51900Y-38645D01*
X51922Y-38633D01*
X51944Y-38622D01*
X51945Y-38621D01*
X51946Y-38620D01*
X51965Y-38605D01*
X51984Y-38589D01*
X51986Y-38588D01*
X51986Y-38588D01*
X51986Y-38588D01*
X51987Y-38587D01*
X52909Y-37665D01*
X53200Y-37665D01*
X54729Y-37665D01*
X54745Y-37676D01*
X54802Y-37701D01*
X54862Y-37714D01*
X54924Y-37715D01*
X54985Y-37704D01*
X55042Y-37682D01*
X55094Y-37649D01*
X55139Y-37606D01*
X55175Y-37556D01*
X55200Y-37499D01*
X55214Y-37439D01*
X55215Y-37369D01*
X55203Y-37308D01*
X55179Y-37251D01*
X55145Y-37199D01*
X55101Y-37156D01*
X55050Y-37121D01*
X54993Y-37097D01*
X54933Y-37085D01*
X54871Y-37084D01*
X54810Y-37096D01*
X54753Y-37119D01*
X54729Y-37135D01*
X53200Y-37135D01*
X52800Y-37135D01*
X52775Y-37137D01*
X52751Y-37139D01*
X52749Y-37139D01*
X52748Y-37140D01*
X52725Y-37147D01*
X52701Y-37153D01*
X52700Y-37154D01*
X52699Y-37154D01*
X52677Y-37166D01*
X52655Y-37177D01*
X52654Y-37178D01*
X52653Y-37179D01*
X52634Y-37194D01*
X52615Y-37210D01*
X52613Y-37211D01*
X52613Y-37211D01*
X52613Y-37212D01*
X52612Y-37212D01*
X52240Y-37585D01*
X52240Y-36387D01*
X52240Y-35786D01*
X52234Y-35759D01*
X52224Y-35733D01*
X52209Y-35711D01*
X52189Y-35691D01*
X52166Y-35676D01*
X52141Y-35665D01*
X52114Y-35660D01*
X52087Y-35659D01*
X51486Y-35659D01*
X51459Y-35665D01*
X51433Y-35675D01*
X51411Y-35690D01*
X51391Y-35710D01*
X51376Y-35733D01*
X51365Y-35758D01*
X51360Y-35785D01*
X51359Y-35812D01*
X51359Y-36413D01*
X51365Y-36440D01*
X51375Y-36466D01*
X51390Y-36488D01*
X51410Y-36508D01*
X51433Y-36523D01*
X51458Y-36534D01*
X51485Y-36539D01*
X51512Y-36540D01*
X52113Y-36540D01*
X52140Y-36534D01*
X52166Y-36524D01*
X52188Y-36509D01*
X52208Y-36489D01*
X52223Y-36466D01*
X52234Y-36441D01*
X52239Y-36414D01*
X52240Y-36387D01*
X52240Y-37585D01*
X51763Y-38062D01*
X51753Y-38038D01*
X51738Y-38016D01*
X51719Y-37996D01*
X51696Y-37981D01*
X51671Y-37970D01*
X51665Y-37969D01*
X51665Y-37770D01*
X51675Y-37756D01*
X51700Y-37699D01*
X51714Y-37639D01*
X51715Y-37569D01*
X51703Y-37508D01*
X51679Y-37451D01*
X51645Y-37399D01*
X51601Y-37356D01*
X51550Y-37321D01*
X51493Y-37297D01*
X51433Y-37285D01*
X51371Y-37284D01*
X51310Y-37296D01*
X51253Y-37319D01*
X51201Y-37353D01*
X51157Y-37396D01*
X51122Y-37447D01*
X51098Y-37504D01*
X51085Y-37564D01*
X51084Y-37626D01*
X51095Y-37687D01*
X51118Y-37744D01*
X51135Y-37770D01*
X51135Y-37964D01*
X51104Y-37964D01*
X51077Y-37970D01*
X51052Y-37980D01*
X51029Y-37995D01*
X51010Y-38015D01*
X50999Y-38030D01*
X50990Y-38016D01*
X50971Y-37996D01*
X50948Y-37981D01*
X50923Y-37970D01*
X50896Y-37965D01*
X50868Y-37964D01*
X50356Y-37964D01*
X50329Y-37970D01*
X50304Y-37980D01*
X50281Y-37995D01*
X50262Y-38015D01*
X50246Y-38038D01*
X50236Y-38063D01*
X50230Y-38090D01*
X50230Y-38117D01*
X50230Y-38135D01*
X50209Y-38135D01*
X50187Y-38112D01*
X50168Y-38097D01*
X50149Y-38081D01*
X50148Y-38080D01*
X50147Y-38079D01*
X50125Y-38068D01*
X50104Y-38056D01*
X50103Y-38056D01*
X50101Y-38055D01*
X50078Y-38048D01*
X50055Y-38040D01*
X50053Y-38040D01*
X50052Y-38040D01*
X50028Y-38037D01*
X50003Y-38035D01*
X50000Y-38035D01*
X50000Y-38035D01*
X50000Y-38035D01*
X50000Y-38035D01*
X49470Y-38035D01*
X49450Y-38021D01*
X49393Y-37997D01*
X49333Y-37985D01*
X49271Y-37984D01*
X49210Y-37996D01*
X49153Y-38019D01*
X49101Y-38053D01*
X49057Y-38096D01*
X49022Y-38147D01*
X48998Y-38204D01*
X48985Y-38264D01*
X48984Y-38326D01*
X48995Y-38387D01*
X49018Y-38444D01*
X49051Y-38496D01*
X49094Y-38541D01*
X49145Y-38576D01*
X49202Y-38601D01*
X49262Y-38614D01*
X49324Y-38615D01*
X49385Y-38604D01*
X49442Y-38582D01*
X49470Y-38565D01*
X49890Y-38565D01*
X49912Y-38587D01*
X49931Y-38602D01*
X49950Y-38618D01*
X49951Y-38619D01*
X49952Y-38620D01*
X49974Y-38631D01*
X49995Y-38643D01*
X49996Y-38643D01*
X49998Y-38644D01*
X50021Y-38651D01*
X50044Y-38659D01*
X50046Y-38659D01*
X50047Y-38659D01*
X50071Y-38662D01*
X50096Y-38664D01*
X50099Y-38664D01*
X50099Y-38664D01*
X50099Y-38664D01*
X50100Y-38665D01*
X50230Y-38665D01*
X50230Y-38708D01*
X50235Y-38735D01*
X50246Y-38761D01*
X50261Y-38783D01*
X50280Y-38803D01*
X50303Y-38818D01*
X50328Y-38829D01*
X50355Y-38834D01*
X50369Y-38835D01*
X49800Y-38835D01*
X49775Y-38837D01*
X49751Y-38839D01*
X49749Y-38839D01*
X49748Y-38840D01*
X49725Y-38847D01*
X49701Y-38853D01*
X49700Y-38854D01*
X49699Y-38854D01*
X49677Y-38866D01*
X49655Y-38877D01*
X49654Y-38878D01*
X49653Y-38879D01*
X49634Y-38894D01*
X49615Y-38910D01*
X49613Y-38911D01*
X49613Y-38911D01*
X49613Y-38912D01*
X49612Y-38912D01*
X49212Y-39312D01*
X49197Y-39331D01*
X49181Y-39350D01*
X49180Y-39351D01*
X49179Y-39352D01*
X49168Y-39374D01*
X49156Y-39395D01*
X49156Y-39396D01*
X49155Y-39398D01*
X49148Y-39421D01*
X49140Y-39444D01*
X49140Y-39446D01*
X49140Y-39447D01*
X49137Y-39471D01*
X49135Y-39496D01*
X49135Y-39499D01*
X49135Y-39499D01*
X49135Y-39499D01*
X49135Y-39500D01*
X49135Y-50990D01*
X48740Y-51384D01*
X48740Y-50768D01*
X48729Y-50645D01*
X48694Y-50527D01*
X48637Y-50417D01*
X48560Y-50321D01*
X48466Y-50242D01*
X48357Y-50183D01*
X48240Y-50145D01*
X48117Y-50132D01*
X48109Y-50132D01*
X47706Y-50132D01*
X47584Y-50144D01*
X47466Y-50179D01*
X47357Y-50237D01*
X47261Y-50315D01*
X47183Y-50410D01*
X47124Y-50519D01*
X47087Y-50636D01*
X47075Y-50759D01*
X47086Y-50882D01*
X47121Y-51000D01*
X47178Y-51110D01*
X47255Y-51206D01*
X47349Y-51285D01*
X47458Y-51344D01*
X47575Y-51382D01*
X47698Y-51395D01*
X47706Y-51396D01*
X48109Y-51396D01*
X48231Y-51383D01*
X48349Y-51348D01*
X48458Y-51290D01*
X48554Y-51212D01*
X48632Y-51117D01*
X48691Y-51008D01*
X48728Y-50891D01*
X48740Y-50768D01*
X48740Y-51384D01*
X48590Y-51535D01*
X46509Y-51535D01*
X46165Y-51190D01*
X46165Y-51001D01*
X46187Y-51035D01*
X46246Y-51097D01*
X46316Y-51145D01*
X46394Y-51180D01*
X46478Y-51198D01*
X46563Y-51200D01*
X46647Y-51185D01*
X46727Y-51154D01*
X46799Y-51108D01*
X46861Y-51049D01*
X46910Y-50980D01*
X46945Y-50902D01*
X46964Y-50818D01*
X46965Y-50721D01*
X46948Y-50637D01*
X46916Y-50558D01*
X46869Y-50487D01*
X46808Y-50426D01*
X46738Y-50379D01*
X46659Y-50345D01*
X46575Y-50328D01*
X46490Y-50328D01*
X46406Y-50344D01*
X46327Y-50376D01*
X46255Y-50422D01*
X46194Y-50482D01*
X46165Y-50526D01*
X46165Y-50409D01*
X46437Y-50137D01*
X46452Y-50118D01*
X46468Y-50099D01*
X46469Y-50098D01*
X46470Y-50097D01*
X46481Y-50075D01*
X46493Y-50054D01*
X46493Y-50053D01*
X46494Y-50051D01*
X46501Y-50028D01*
X46509Y-50005D01*
X46509Y-50003D01*
X46509Y-50002D01*
X46512Y-49978D01*
X46514Y-49953D01*
X46514Y-49950D01*
X46514Y-49950D01*
X46514Y-49950D01*
X46515Y-49950D01*
X46515Y-49350D01*
X46515Y-48244D01*
X47129Y-48244D01*
X47156Y-48238D01*
X47181Y-48228D01*
X47204Y-48213D01*
X47223Y-48193D01*
X47239Y-48170D01*
X47249Y-48145D01*
X47255Y-48118D01*
X47255Y-48091D01*
X47255Y-47670D01*
X48687Y-46238D01*
X48702Y-46219D01*
X48718Y-46200D01*
X48719Y-46199D01*
X48720Y-46198D01*
X48731Y-46176D01*
X48743Y-46155D01*
X48743Y-46154D01*
X48744Y-46152D01*
X48751Y-46129D01*
X48759Y-46106D01*
X48759Y-46104D01*
X48759Y-46103D01*
X48762Y-46079D01*
X48764Y-46054D01*
X48764Y-46051D01*
X48764Y-46051D01*
X48764Y-46051D01*
X48765Y-46051D01*
X48765Y-40200D01*
X48765Y-39500D01*
X48765Y-39100D01*
X48765Y-35910D01*
X48794Y-35941D01*
X48845Y-35976D01*
X48902Y-36001D01*
X48962Y-36014D01*
X49024Y-36015D01*
X49085Y-36004D01*
X49142Y-35982D01*
X49194Y-35949D01*
X49239Y-35906D01*
X49269Y-35865D01*
X50900Y-35865D01*
X50924Y-35862D01*
X50948Y-35860D01*
X50950Y-35860D01*
X50951Y-35859D01*
X50974Y-35852D01*
X50998Y-35846D01*
X50999Y-35845D01*
X51000Y-35845D01*
X51022Y-35833D01*
X51044Y-35822D01*
X51045Y-35821D01*
X51046Y-35820D01*
X51065Y-35805D01*
X51084Y-35789D01*
X51086Y-35788D01*
X51086Y-35788D01*
X51086Y-35788D01*
X51087Y-35787D01*
X51476Y-35398D01*
X51513Y-35436D01*
X51584Y-35485D01*
X51663Y-35520D01*
X51747Y-35539D01*
X51833Y-35540D01*
X51918Y-35525D01*
X51999Y-35494D01*
X52072Y-35448D01*
X52134Y-35388D01*
X52184Y-35318D01*
X52219Y-35239D01*
X52238Y-35155D01*
X52240Y-35056D01*
X52240Y-34056D01*
X52223Y-33972D01*
X52190Y-33892D01*
X52142Y-33820D01*
X52081Y-33759D01*
X52010Y-33711D01*
X51930Y-33677D01*
X51846Y-33660D01*
X51759Y-33659D01*
X51675Y-33675D01*
X51595Y-33708D01*
X51522Y-33755D01*
X51461Y-33815D01*
X51448Y-33835D01*
X51400Y-33835D01*
X51375Y-33837D01*
X51351Y-33839D01*
X51349Y-33839D01*
X51348Y-33840D01*
X51325Y-33847D01*
X51301Y-33853D01*
X51300Y-33854D01*
X51299Y-33854D01*
X51277Y-33866D01*
X51255Y-33877D01*
X51254Y-33878D01*
X51253Y-33879D01*
X51234Y-33894D01*
X51215Y-33910D01*
X51213Y-33911D01*
X51213Y-33911D01*
X51213Y-33912D01*
X51212Y-33912D01*
X50390Y-34735D01*
X49170Y-34735D01*
X49150Y-34721D01*
X49093Y-34697D01*
X49033Y-34685D01*
X48971Y-34684D01*
X48910Y-34696D01*
X48853Y-34719D01*
X48801Y-34753D01*
X48757Y-34796D01*
X48722Y-34847D01*
X48698Y-34904D01*
X48685Y-34964D01*
X48684Y-35026D01*
X48695Y-35087D01*
X48718Y-35144D01*
X48751Y-35196D01*
X48794Y-35241D01*
X48845Y-35276D01*
X48902Y-35301D01*
X48962Y-35314D01*
X49024Y-35315D01*
X49085Y-35304D01*
X49142Y-35282D01*
X49170Y-35265D01*
X50500Y-35265D01*
X50524Y-35262D01*
X50548Y-35260D01*
X50550Y-35260D01*
X50551Y-35259D01*
X50574Y-35252D01*
X50598Y-35246D01*
X50599Y-35245D01*
X50600Y-35245D01*
X50622Y-35233D01*
X50644Y-35222D01*
X50645Y-35221D01*
X50646Y-35220D01*
X50665Y-35205D01*
X50684Y-35189D01*
X50686Y-35188D01*
X50686Y-35188D01*
X50686Y-35188D01*
X50687Y-35187D01*
X51476Y-34398D01*
X51513Y-34436D01*
X51584Y-34485D01*
X51663Y-34520D01*
X51747Y-34539D01*
X51833Y-34540D01*
X51918Y-34525D01*
X51999Y-34494D01*
X52072Y-34448D01*
X52134Y-34388D01*
X52184Y-34318D01*
X52219Y-34239D01*
X52238Y-34155D01*
X52240Y-34056D01*
X52240Y-35056D01*
X52223Y-34972D01*
X52190Y-34892D01*
X52142Y-34820D01*
X52081Y-34759D01*
X52010Y-34711D01*
X51930Y-34677D01*
X51846Y-34660D01*
X51759Y-34659D01*
X51675Y-34675D01*
X51595Y-34708D01*
X51522Y-34755D01*
X51461Y-34815D01*
X51448Y-34835D01*
X51400Y-34835D01*
X51375Y-34837D01*
X51351Y-34839D01*
X51349Y-34839D01*
X51348Y-34840D01*
X51325Y-34847D01*
X51301Y-34853D01*
X51300Y-34854D01*
X51299Y-34854D01*
X51277Y-34866D01*
X51255Y-34877D01*
X51254Y-34878D01*
X51253Y-34879D01*
X51234Y-34894D01*
X51215Y-34910D01*
X51213Y-34911D01*
X51213Y-34911D01*
X51213Y-34912D01*
X51212Y-34912D01*
X50790Y-35335D01*
X49100Y-35335D01*
X49075Y-35337D01*
X49051Y-35339D01*
X49049Y-35339D01*
X49048Y-35340D01*
X49025Y-35347D01*
X49001Y-35353D01*
X49000Y-35354D01*
X48999Y-35354D01*
X48977Y-35366D01*
X48955Y-35377D01*
X48954Y-35378D01*
X48953Y-35379D01*
X48939Y-35390D01*
X48910Y-35396D01*
X48853Y-35419D01*
X48801Y-35453D01*
X48757Y-35496D01*
X48722Y-35547D01*
X48720Y-35552D01*
X48705Y-35534D01*
X48689Y-35515D01*
X48688Y-35513D01*
X48688Y-35513D01*
X48687Y-35513D01*
X48687Y-35512D01*
X48137Y-34962D01*
X48118Y-34947D01*
X48099Y-34931D01*
X48098Y-34930D01*
X48097Y-34929D01*
X48075Y-34918D01*
X48054Y-34906D01*
X48053Y-34906D01*
X48051Y-34905D01*
X48028Y-34898D01*
X48005Y-34890D01*
X48003Y-34890D01*
X48002Y-34890D01*
X47978Y-34887D01*
X47953Y-34885D01*
X47950Y-34885D01*
X47950Y-34885D01*
X47950Y-34885D01*
X47950Y-34885D01*
X46323Y-34885D01*
X46271Y-34890D01*
X46265Y-34891D01*
X45876Y-34891D01*
X45849Y-34897D01*
X45854Y-34882D01*
X45859Y-34865D01*
X45859Y-34864D01*
X45860Y-34863D01*
X45862Y-34846D01*
X45863Y-34828D01*
X45863Y-34826D01*
X45863Y-34826D01*
X45863Y-34826D01*
X45864Y-34826D01*
X45864Y-34635D01*
X45943Y-34635D01*
X45970Y-34629D01*
X45995Y-34619D01*
X46018Y-34604D01*
X46037Y-34584D01*
X46053Y-34561D01*
X46063Y-34536D01*
X46069Y-34509D01*
X46069Y-34482D01*
X46069Y-33891D01*
X46064Y-33864D01*
X46053Y-33838D01*
X46038Y-33816D01*
X46019Y-33796D01*
X45996Y-33781D01*
X45971Y-33770D01*
X45944Y-33765D01*
X45939Y-33765D01*
X45939Y-33674D01*
X45936Y-33649D01*
X45934Y-33625D01*
X45934Y-33623D01*
X45933Y-33622D01*
X45926Y-33599D01*
X45920Y-33575D01*
X45919Y-33574D01*
X45919Y-33573D01*
X45907Y-33551D01*
X45896Y-33529D01*
X45895Y-33528D01*
X45894Y-33527D01*
X45879Y-33508D01*
X45863Y-33489D01*
X45862Y-33487D01*
X45862Y-33487D01*
X45861Y-33487D01*
X45861Y-33486D01*
X45687Y-33312D01*
X45668Y-33297D01*
X45649Y-33281D01*
X45648Y-33280D01*
X45647Y-33279D01*
X45625Y-33268D01*
X45604Y-33256D01*
X45603Y-33256D01*
X45601Y-33255D01*
X45578Y-33248D01*
X45555Y-33240D01*
X45553Y-33240D01*
X45552Y-33240D01*
X45528Y-33237D01*
X45503Y-33235D01*
X45500Y-33235D01*
X45500Y-33235D01*
X45500Y-33235D01*
X45500Y-33235D01*
X44370Y-33235D01*
X44350Y-33221D01*
X44293Y-33197D01*
X44233Y-33185D01*
X44171Y-33184D01*
X44110Y-33196D01*
X44053Y-33219D01*
X44001Y-33253D01*
X43957Y-33296D01*
X43922Y-33347D01*
X43898Y-33404D01*
X43885Y-33464D01*
X43884Y-33526D01*
X43895Y-33587D01*
X43918Y-33644D01*
X43951Y-33696D01*
X43994Y-33741D01*
X44045Y-33776D01*
X44102Y-33801D01*
X44162Y-33814D01*
X44224Y-33815D01*
X44285Y-33804D01*
X44342Y-33782D01*
X44370Y-33765D01*
X44656Y-33765D01*
X44629Y-33770D01*
X44604Y-33780D01*
X44581Y-33795D01*
X44562Y-33815D01*
X44546Y-33838D01*
X44536Y-33863D01*
X44530Y-33890D01*
X44530Y-33917D01*
X44530Y-34508D01*
X44532Y-34519D01*
X44160Y-34891D01*
X43830Y-34891D01*
X43803Y-34897D01*
X43777Y-34907D01*
X43755Y-34922D01*
X43735Y-34942D01*
X43720Y-34965D01*
X43709Y-34990D01*
X43704Y-35017D01*
X43703Y-35044D01*
X43703Y-35281D01*
X43709Y-35308D01*
X43719Y-35334D01*
X43734Y-35356D01*
X43754Y-35376D01*
X43777Y-35391D01*
X43796Y-35400D01*
X43777Y-35407D01*
X43755Y-35422D01*
X43735Y-35442D01*
X43720Y-35465D01*
X43709Y-35490D01*
X43704Y-35517D01*
X43703Y-35544D01*
X43703Y-35781D01*
X43709Y-35808D01*
X43719Y-35834D01*
X43734Y-35856D01*
X43754Y-35876D01*
X43767Y-35885D01*
X42759Y-35885D01*
X42665Y-35790D01*
X42665Y-34109D01*
X42987Y-33787D01*
X42987Y-33787D01*
X42987Y-33787D01*
X43609Y-33165D01*
X46290Y-33165D01*
X47512Y-34387D01*
X47531Y-34402D01*
X47550Y-34418D01*
X47551Y-34419D01*
X47552Y-34420D01*
X47574Y-34431D01*
X47595Y-34443D01*
X47596Y-34443D01*
X47598Y-34444D01*
X47621Y-34451D01*
X47644Y-34459D01*
X47646Y-34459D01*
X47647Y-34459D01*
X47671Y-34462D01*
X47696Y-34464D01*
X47699Y-34464D01*
X47699Y-34464D01*
X47699Y-34464D01*
X47700Y-34465D01*
X50200Y-34465D01*
X50224Y-34462D01*
X50248Y-34460D01*
X50250Y-34460D01*
X50251Y-34459D01*
X50274Y-34452D01*
X50298Y-34446D01*
X50299Y-34445D01*
X50300Y-34445D01*
X50322Y-34433D01*
X50344Y-34422D01*
X50345Y-34421D01*
X50346Y-34420D01*
X50365Y-34405D01*
X50384Y-34389D01*
X50386Y-34388D01*
X50386Y-34388D01*
X50386Y-34388D01*
X50387Y-34387D01*
X51409Y-33365D01*
X52190Y-33365D01*
X53212Y-34387D01*
X53231Y-34402D01*
X53250Y-34418D01*
X53251Y-34419D01*
X53252Y-34420D01*
X53274Y-34431D01*
X53295Y-34443D01*
X53296Y-34443D01*
X53298Y-34444D01*
X53321Y-34451D01*
X53344Y-34459D01*
X53346Y-34459D01*
X53347Y-34459D01*
X53371Y-34462D01*
X53396Y-34464D01*
X53399Y-34464D01*
X53399Y-34464D01*
X53399Y-34464D01*
X53400Y-34465D01*
X64700Y-34465D01*
X64724Y-34462D01*
X64748Y-34460D01*
X64750Y-34460D01*
X64751Y-34459D01*
X64774Y-34452D01*
X64798Y-34446D01*
X64799Y-34445D01*
X64800Y-34445D01*
X64822Y-34433D01*
X64844Y-34422D01*
X64845Y-34421D01*
X64846Y-34420D01*
X64865Y-34405D01*
X64884Y-34389D01*
X64886Y-34388D01*
X64886Y-34388D01*
X64886Y-34388D01*
X64887Y-34387D01*
X65687Y-33587D01*
X65702Y-33568D01*
X65718Y-33549D01*
X65719Y-33548D01*
X65720Y-33547D01*
X65731Y-33525D01*
X65743Y-33504D01*
X65743Y-33503D01*
X65744Y-33501D01*
X65751Y-33478D01*
X65759Y-33455D01*
X65759Y-33453D01*
X65759Y-33452D01*
X65762Y-33428D01*
X65764Y-33403D01*
X65764Y-33400D01*
X65764Y-33400D01*
X65764Y-33400D01*
X65765Y-33400D01*
X65765Y-32109D01*
X66487Y-31387D01*
X66502Y-31368D01*
X66518Y-31349D01*
X66519Y-31348D01*
X66520Y-31347D01*
X66531Y-31325D01*
X66543Y-31304D01*
X66543Y-31303D01*
X66544Y-31301D01*
X66551Y-31278D01*
X66559Y-31255D01*
X66559Y-31253D01*
X66559Y-31252D01*
X66562Y-31228D01*
X66564Y-31203D01*
X66564Y-31200D01*
X66564Y-31200D01*
X66564Y-31200D01*
X66565Y-31200D01*
X66565Y-30769D01*
X66807Y-30769D01*
X66871Y-30930D01*
X66969Y-31082D01*
X67095Y-31213D01*
X67245Y-31317D01*
X67412Y-31390D01*
X67589Y-31429D01*
X67771Y-31433D01*
X67950Y-31401D01*
X68120Y-31335D01*
X68273Y-31238D01*
X68405Y-31112D01*
X68510Y-30964D01*
X68584Y-30798D01*
X68624Y-30620D01*
X68627Y-30413D01*
X68592Y-30234D01*
X68522Y-30066D01*
X68422Y-29914D01*
X68294Y-29785D01*
X68143Y-29684D01*
X67975Y-29613D01*
X67797Y-29577D01*
X67615Y-29575D01*
X67436Y-29609D01*
X67268Y-29678D01*
X67116Y-29777D01*
X66986Y-29904D01*
X66883Y-30055D01*
X66811Y-30222D01*
X66808Y-30239D01*
X66300Y-30239D01*
X65793Y-30239D01*
X65792Y-30234D01*
X65722Y-30066D01*
X65622Y-29914D01*
X65494Y-29785D01*
X65343Y-29684D01*
X65175Y-29613D01*
X64997Y-29577D01*
X64815Y-29575D01*
X64636Y-29609D01*
X64468Y-29678D01*
X64316Y-29777D01*
X64186Y-29904D01*
X64083Y-30055D01*
X64011Y-30222D01*
X63973Y-30400D01*
X63971Y-30581D01*
X64004Y-30760D01*
X64071Y-30930D01*
X64169Y-31082D01*
X64295Y-31213D01*
X64445Y-31317D01*
X64612Y-31390D01*
X64789Y-31429D01*
X64971Y-31433D01*
X65150Y-31401D01*
X65320Y-31335D01*
X65473Y-31238D01*
X65605Y-31112D01*
X65710Y-30964D01*
X65784Y-30798D01*
X65790Y-30769D01*
X66035Y-30769D01*
X66035Y-31090D01*
X65312Y-31812D01*
X65297Y-31831D01*
X65281Y-31850D01*
X65280Y-31851D01*
X65279Y-31852D01*
X65268Y-31874D01*
X65256Y-31895D01*
X65256Y-31896D01*
X65255Y-31898D01*
X65248Y-31921D01*
X65240Y-31944D01*
X65240Y-31946D01*
X65240Y-31947D01*
X65237Y-31971D01*
X65235Y-31996D01*
X65235Y-31999D01*
X65235Y-31999D01*
X65235Y-31999D01*
X65235Y-32000D01*
X65235Y-33290D01*
X64590Y-33935D01*
X53509Y-33935D01*
X52487Y-32912D01*
X52468Y-32897D01*
X52449Y-32881D01*
X52448Y-32880D01*
X52447Y-32879D01*
X52425Y-32868D01*
X52404Y-32856D01*
X52403Y-32856D01*
X52401Y-32855D01*
X52378Y-32848D01*
X52355Y-32840D01*
X52353Y-32840D01*
X52352Y-32840D01*
X52328Y-32837D01*
X52303Y-32835D01*
X52300Y-32835D01*
X52300Y-32835D01*
X52300Y-32835D01*
X52300Y-32835D01*
X51300Y-32835D01*
X51275Y-32837D01*
X51251Y-32839D01*
X51249Y-32839D01*
X51248Y-32840D01*
X51225Y-32847D01*
X51201Y-32853D01*
X51200Y-32854D01*
X51199Y-32854D01*
X51177Y-32866D01*
X51155Y-32877D01*
X51154Y-32878D01*
X51153Y-32879D01*
X51134Y-32894D01*
X51115Y-32910D01*
X51113Y-32911D01*
X51113Y-32911D01*
X51113Y-32912D01*
X51112Y-32912D01*
X50090Y-33935D01*
X47809Y-33935D01*
X46587Y-32712D01*
X46568Y-32697D01*
X46549Y-32681D01*
X46548Y-32680D01*
X46547Y-32679D01*
X46525Y-32668D01*
X46504Y-32656D01*
X46503Y-32656D01*
X46501Y-32655D01*
X46478Y-32648D01*
X46455Y-32640D01*
X46453Y-32640D01*
X46452Y-32640D01*
X46428Y-32637D01*
X46403Y-32635D01*
X46400Y-32635D01*
X46400Y-32635D01*
X46400Y-32635D01*
X46400Y-32635D01*
X45943Y-32635D01*
X45970Y-32629D01*
X45995Y-32619D01*
X46018Y-32604D01*
X46037Y-32584D01*
X46053Y-32561D01*
X46063Y-32536D01*
X46069Y-32509D01*
X46069Y-32482D01*
X46069Y-31891D01*
X46068Y-31886D01*
X46102Y-31901D01*
X46162Y-31914D01*
X46224Y-31915D01*
X46285Y-31904D01*
X46342Y-31882D01*
X46394Y-31849D01*
X46439Y-31806D01*
X46475Y-31756D01*
X46500Y-31699D01*
X46514Y-31639D01*
X46515Y-31569D01*
X46503Y-31508D01*
X46479Y-31451D01*
X46445Y-31399D01*
X46401Y-31356D01*
X46350Y-31321D01*
X46293Y-31297D01*
X46266Y-31292D01*
X46239Y-31265D01*
X54750Y-31265D01*
X55800Y-31265D01*
X55824Y-31262D01*
X55848Y-31260D01*
X55850Y-31260D01*
X55851Y-31259D01*
X55874Y-31252D01*
X55898Y-31246D01*
X55899Y-31245D01*
X55900Y-31245D01*
X55922Y-31233D01*
X55944Y-31222D01*
X55945Y-31221D01*
X55946Y-31220D01*
X55965Y-31205D01*
X55984Y-31189D01*
X55986Y-31188D01*
X55986Y-31188D01*
X55986Y-31188D01*
X55987Y-31187D01*
X56237Y-30937D01*
X56252Y-30918D01*
X56268Y-30899D01*
X56269Y-30898D01*
X56270Y-30897D01*
X56281Y-30875D01*
X56293Y-30854D01*
X56293Y-30853D01*
X56294Y-30851D01*
X56301Y-30828D01*
X56309Y-30805D01*
X56309Y-30803D01*
X56309Y-30802D01*
X56312Y-30778D01*
X56314Y-30753D01*
X56314Y-30750D01*
X56314Y-30750D01*
X56314Y-30750D01*
X56315Y-30750D01*
X56315Y-30465D01*
X57330Y-30465D01*
X57330Y-30508D01*
X57335Y-30535D01*
X57346Y-30561D01*
X57361Y-30583D01*
X57380Y-30603D01*
X57403Y-30618D01*
X57428Y-30629D01*
X57455Y-30634D01*
X57483Y-30635D01*
X57995Y-30635D01*
X58022Y-30629D01*
X58047Y-30619D01*
X58070Y-30604D01*
X58089Y-30584D01*
X58100Y-30569D01*
X58109Y-30583D01*
X58128Y-30603D01*
X58151Y-30618D01*
X58176Y-30629D01*
X58203Y-30634D01*
X58231Y-30635D01*
X58743Y-30635D01*
X58770Y-30629D01*
X58795Y-30619D01*
X58818Y-30604D01*
X58837Y-30584D01*
X58853Y-30561D01*
X58863Y-30536D01*
X58869Y-30509D01*
X58869Y-30482D01*
X58869Y-30465D01*
X62000Y-30465D01*
X62024Y-30462D01*
X62049Y-30460D01*
X62050Y-30460D01*
X62051Y-30459D01*
X62075Y-30452D01*
X62099Y-30445D01*
X62100Y-30445D01*
X62100Y-30445D01*
X62122Y-30433D01*
X62145Y-30421D01*
X62145Y-30421D01*
X62146Y-30420D01*
X62165Y-30404D01*
X62185Y-30389D01*
X62186Y-30388D01*
X62186Y-30388D01*
X62202Y-30368D01*
X62218Y-30349D01*
X62219Y-30348D01*
X62219Y-30348D01*
X62231Y-30326D01*
X62243Y-30304D01*
X62243Y-30303D01*
X62244Y-30302D01*
X62251Y-30278D01*
X62259Y-30255D01*
X62259Y-30254D01*
X62259Y-30253D01*
X62262Y-30228D01*
X62264Y-30203D01*
X62264Y-30201D01*
X62264Y-30201D01*
X62264Y-30201D01*
X62265Y-30200D01*
X62265Y-28840D01*
X63951Y-28840D01*
X64104Y-28825D01*
X64252Y-28780D01*
X64389Y-28707D01*
X64508Y-28608D01*
X64607Y-28489D01*
X64680Y-28352D01*
X64725Y-28204D01*
X64740Y-28051D01*
X64740Y-27951D01*
X64753Y-27811D01*
X64794Y-27678D01*
X64859Y-27555D01*
X64948Y-27448D01*
X65055Y-27359D01*
X65178Y-27294D01*
X65311Y-27253D01*
X65451Y-27240D01*
X71838Y-27240D01*
X72064Y-27396D01*
X72496Y-27585D01*
X72956Y-27686D01*
X73427Y-27696D01*
X73891Y-27614D01*
X74330Y-27444D01*
X74652Y-27240D01*
X75519Y-27240D01*
X75658Y-27226D01*
X75793Y-27185D01*
X75918Y-27118D01*
X76028Y-27028D01*
X76118Y-26918D01*
X76185Y-26793D01*
X76226Y-26658D01*
X76240Y-26519D01*
X76240Y-52342D01*
X76181Y-52373D01*
X76121Y-52405D01*
X75988Y-52446D01*
X75848Y-52460D01*
X75608Y-52460D01*
X75608Y-42793D01*
X75608Y-35793D01*
X75528Y-35387D01*
X75370Y-35005D01*
X75141Y-34660D01*
X74850Y-34367D01*
X74507Y-34136D01*
X74126Y-33976D01*
X73721Y-33892D01*
X73307Y-33890D01*
X72901Y-33967D01*
X72518Y-34122D01*
X72172Y-34348D01*
X71876Y-34638D01*
X71643Y-34979D01*
X71480Y-35359D01*
X71400Y-35735D01*
X63300Y-35735D01*
X63275Y-35737D01*
X63251Y-35739D01*
X63249Y-35739D01*
X63248Y-35740D01*
X63225Y-35747D01*
X63201Y-35753D01*
X63200Y-35754D01*
X63199Y-35754D01*
X63177Y-35766D01*
X63155Y-35777D01*
X63154Y-35778D01*
X63153Y-35779D01*
X63134Y-35794D01*
X63115Y-35810D01*
X63113Y-35811D01*
X63113Y-35811D01*
X63113Y-35812D01*
X63112Y-35812D01*
X62290Y-36635D01*
X60509Y-36635D01*
X60465Y-36590D01*
X60465Y-36152D01*
X60472Y-36148D01*
X60534Y-36088D01*
X60584Y-36018D01*
X60619Y-35939D01*
X60638Y-35855D01*
X60640Y-35756D01*
X60623Y-35672D01*
X60590Y-35592D01*
X60542Y-35520D01*
X60481Y-35459D01*
X60410Y-35411D01*
X60330Y-35377D01*
X60246Y-35360D01*
X60159Y-35359D01*
X60075Y-35375D01*
X59995Y-35408D01*
X59922Y-35455D01*
X59861Y-35515D01*
X59812Y-35587D01*
X59778Y-35666D01*
X59760Y-35750D01*
X59759Y-35836D01*
X59774Y-35921D01*
X59806Y-36002D01*
X59853Y-36074D01*
X59913Y-36136D01*
X59935Y-36151D01*
X59935Y-36700D01*
X59937Y-36724D01*
X59939Y-36748D01*
X59939Y-36750D01*
X59940Y-36751D01*
X59947Y-36774D01*
X59953Y-36798D01*
X59954Y-36799D01*
X59954Y-36800D01*
X59966Y-36822D01*
X59977Y-36844D01*
X59978Y-36845D01*
X59979Y-36846D01*
X59994Y-36865D01*
X60010Y-36884D01*
X60011Y-36886D01*
X60011Y-36886D01*
X60011Y-36886D01*
X60012Y-36887D01*
X60212Y-37087D01*
X60231Y-37102D01*
X60250Y-37118D01*
X60251Y-37119D01*
X60252Y-37120D01*
X60274Y-37131D01*
X60295Y-37143D01*
X60296Y-37143D01*
X60298Y-37144D01*
X60321Y-37151D01*
X60344Y-37159D01*
X60346Y-37159D01*
X60347Y-37159D01*
X60371Y-37162D01*
X60396Y-37164D01*
X60399Y-37164D01*
X60399Y-37164D01*
X60399Y-37164D01*
X60400Y-37165D01*
X62400Y-37165D01*
X62424Y-37162D01*
X62448Y-37160D01*
X62450Y-37160D01*
X62451Y-37159D01*
X62474Y-37152D01*
X62498Y-37146D01*
X62499Y-37145D01*
X62500Y-37145D01*
X62522Y-37133D01*
X62544Y-37122D01*
X62545Y-37121D01*
X62546Y-37120D01*
X62565Y-37105D01*
X62584Y-37089D01*
X62586Y-37088D01*
X62586Y-37088D01*
X62586Y-37088D01*
X62587Y-37087D01*
X63409Y-36265D01*
X71404Y-36265D01*
X71463Y-36583D01*
X71615Y-36968D01*
X71839Y-37316D01*
X72126Y-37613D01*
X72466Y-37849D01*
X72845Y-38015D01*
X73249Y-38103D01*
X73662Y-38112D01*
X74069Y-38040D01*
X74455Y-37891D01*
X74804Y-37669D01*
X75103Y-37384D01*
X75342Y-37046D01*
X75510Y-36668D01*
X75601Y-36265D01*
X75608Y-35793D01*
X75608Y-42793D01*
X75528Y-42387D01*
X75370Y-42005D01*
X75141Y-41660D01*
X74850Y-41367D01*
X74507Y-41136D01*
X74126Y-40976D01*
X73721Y-40892D01*
X73307Y-40890D01*
X72901Y-40967D01*
X72518Y-41122D01*
X72172Y-41348D01*
X71876Y-41638D01*
X71643Y-41979D01*
X71480Y-42359D01*
X71394Y-42763D01*
X71388Y-43177D01*
X71463Y-43583D01*
X71615Y-43968D01*
X71839Y-44316D01*
X72126Y-44613D01*
X72466Y-44849D01*
X72845Y-45015D01*
X73249Y-45103D01*
X73662Y-45112D01*
X74069Y-45040D01*
X74455Y-44891D01*
X74804Y-44669D01*
X75103Y-44384D01*
X75342Y-44046D01*
X75510Y-43668D01*
X75601Y-43265D01*
X75608Y-42793D01*
X75608Y-52460D01*
X68627Y-52460D01*
X68627Y-43405D01*
X68592Y-43226D01*
X68522Y-43058D01*
X68422Y-42906D01*
X68294Y-42777D01*
X68143Y-42676D01*
X67975Y-42605D01*
X67797Y-42569D01*
X67615Y-42567D01*
X67436Y-42601D01*
X67268Y-42670D01*
X67116Y-42769D01*
X66986Y-42896D01*
X66883Y-43047D01*
X66811Y-43214D01*
X66773Y-43392D01*
X66771Y-43573D01*
X66804Y-43752D01*
X66871Y-43922D01*
X66969Y-44074D01*
X67095Y-44205D01*
X67245Y-44309D01*
X67412Y-44382D01*
X67589Y-44421D01*
X67771Y-44425D01*
X67950Y-44393D01*
X68120Y-44327D01*
X68273Y-44230D01*
X68405Y-44104D01*
X68510Y-43956D01*
X68584Y-43790D01*
X68624Y-43612D01*
X68627Y-43405D01*
X68627Y-52460D01*
X65827Y-52460D01*
X65827Y-43405D01*
X65792Y-43226D01*
X65722Y-43058D01*
X65622Y-42906D01*
X65494Y-42777D01*
X65343Y-42676D01*
X65175Y-42605D01*
X64997Y-42569D01*
X64815Y-42567D01*
X64636Y-42601D01*
X64468Y-42670D01*
X64316Y-42769D01*
X64186Y-42896D01*
X64083Y-43047D01*
X64011Y-43214D01*
X63973Y-43392D01*
X63971Y-43573D01*
X64004Y-43752D01*
X64071Y-43922D01*
X64169Y-44074D01*
X64295Y-44205D01*
X64445Y-44309D01*
X64612Y-44382D01*
X64789Y-44421D01*
X64971Y-44425D01*
X65150Y-44393D01*
X65320Y-44327D01*
X65473Y-44230D01*
X65605Y-44104D01*
X65710Y-43956D01*
X65784Y-43790D01*
X65824Y-43612D01*
X65827Y-43405D01*
X65827Y-52460D01*
X65508Y-52460D01*
X65508Y-47693D01*
X65428Y-47287D01*
X65270Y-46905D01*
X65041Y-46560D01*
X64750Y-46267D01*
X64407Y-46036D01*
X64026Y-45876D01*
X63621Y-45792D01*
X63207Y-45790D01*
X63048Y-45820D01*
X63048Y-44109D01*
X63048Y-42309D01*
X63048Y-41915D01*
X63043Y-41888D01*
X63032Y-41863D01*
X63017Y-41840D01*
X62998Y-41821D01*
X62975Y-41805D01*
X62950Y-41795D01*
X62923Y-41789D01*
X62895Y-41789D01*
X62343Y-41789D01*
X62316Y-41794D01*
X62291Y-41805D01*
X62268Y-41820D01*
X62249Y-41839D01*
X62233Y-41862D01*
X62223Y-41887D01*
X62217Y-41914D01*
X62217Y-41942D01*
X62217Y-42336D01*
X62222Y-42363D01*
X62233Y-42388D01*
X62248Y-42411D01*
X62267Y-42430D01*
X62290Y-42446D01*
X62315Y-42456D01*
X62342Y-42462D01*
X62370Y-42462D01*
X62922Y-42462D01*
X62949Y-42457D01*
X62974Y-42446D01*
X62997Y-42431D01*
X63016Y-42412D01*
X63032Y-42389D01*
X63042Y-42364D01*
X63048Y-42337D01*
X63048Y-42309D01*
X63048Y-44109D01*
X63048Y-43715D01*
X63043Y-43688D01*
X63032Y-43663D01*
X63017Y-43640D01*
X62998Y-43621D01*
X62975Y-43605D01*
X62950Y-43595D01*
X62923Y-43589D01*
X62895Y-43589D01*
X62343Y-43589D01*
X62316Y-43594D01*
X62291Y-43605D01*
X62268Y-43620D01*
X62249Y-43639D01*
X62233Y-43662D01*
X62223Y-43687D01*
X62217Y-43714D01*
X62217Y-43742D01*
X62217Y-44136D01*
X62222Y-44163D01*
X62233Y-44188D01*
X62248Y-44211D01*
X62267Y-44230D01*
X62290Y-44246D01*
X62315Y-44256D01*
X62342Y-44262D01*
X62370Y-44262D01*
X62922Y-44262D01*
X62949Y-44257D01*
X62974Y-44246D01*
X62997Y-44231D01*
X63016Y-44212D01*
X63032Y-44189D01*
X63042Y-44164D01*
X63048Y-44137D01*
X63048Y-44109D01*
X63048Y-45820D01*
X62801Y-45867D01*
X62418Y-46022D01*
X62103Y-46228D01*
X62032Y-46157D01*
X62032Y-44636D01*
X62056Y-44636D01*
X62083Y-44631D01*
X62108Y-44620D01*
X62131Y-44605D01*
X62150Y-44586D01*
X62166Y-44563D01*
X62176Y-44538D01*
X62182Y-44511D01*
X62182Y-44483D01*
X62182Y-42683D01*
X62182Y-42289D01*
X62177Y-42262D01*
X62166Y-42237D01*
X62151Y-42214D01*
X62132Y-42195D01*
X62109Y-42179D01*
X62084Y-42169D01*
X62057Y-42163D01*
X62029Y-42163D01*
X61477Y-42163D01*
X61450Y-42168D01*
X61425Y-42179D01*
X61402Y-42194D01*
X61383Y-42213D01*
X61368Y-42235D01*
X61165Y-42235D01*
X61165Y-41065D01*
X61247Y-41065D01*
X61253Y-41074D01*
X61313Y-41136D01*
X61384Y-41185D01*
X61463Y-41220D01*
X61547Y-41239D01*
X61633Y-41240D01*
X61718Y-41225D01*
X61799Y-41194D01*
X61872Y-41148D01*
X61934Y-41088D01*
X61984Y-41018D01*
X62019Y-40939D01*
X62038Y-40855D01*
X62040Y-40756D01*
X62023Y-40672D01*
X61990Y-40592D01*
X61942Y-40520D01*
X61881Y-40459D01*
X61810Y-40411D01*
X61730Y-40377D01*
X61646Y-40360D01*
X61559Y-40359D01*
X61475Y-40375D01*
X61395Y-40408D01*
X61322Y-40455D01*
X61261Y-40515D01*
X61248Y-40535D01*
X61165Y-40535D01*
X61165Y-38900D01*
X61162Y-38875D01*
X61160Y-38851D01*
X61160Y-38849D01*
X61159Y-38848D01*
X61152Y-38825D01*
X61146Y-38801D01*
X61145Y-38800D01*
X61145Y-38799D01*
X61133Y-38777D01*
X61122Y-38755D01*
X61121Y-38754D01*
X61120Y-38753D01*
X61105Y-38734D01*
X61089Y-38715D01*
X61088Y-38713D01*
X61088Y-38713D01*
X61087Y-38713D01*
X61087Y-38712D01*
X59307Y-36933D01*
X59303Y-36908D01*
X59279Y-36851D01*
X59245Y-36799D01*
X59201Y-36756D01*
X59150Y-36721D01*
X59093Y-36697D01*
X59033Y-36685D01*
X58971Y-36684D01*
X58910Y-36696D01*
X58853Y-36719D01*
X58801Y-36753D01*
X58757Y-36796D01*
X58722Y-36847D01*
X58698Y-36904D01*
X58685Y-36964D01*
X58684Y-37026D01*
X58695Y-37087D01*
X58718Y-37144D01*
X58751Y-37196D01*
X58794Y-37241D01*
X58845Y-37276D01*
X58902Y-37301D01*
X58933Y-37307D01*
X60635Y-39009D01*
X60635Y-40535D01*
X60552Y-40535D01*
X60542Y-40520D01*
X60481Y-40459D01*
X60410Y-40411D01*
X60330Y-40377D01*
X60246Y-40360D01*
X60159Y-40359D01*
X60075Y-40375D01*
X59995Y-40408D01*
X59922Y-40455D01*
X59861Y-40515D01*
X59812Y-40587D01*
X59778Y-40666D01*
X59760Y-40750D01*
X59759Y-40836D01*
X59774Y-40921D01*
X59806Y-41002D01*
X59853Y-41074D01*
X59913Y-41136D01*
X59984Y-41185D01*
X60063Y-41220D01*
X60147Y-41239D01*
X60233Y-41240D01*
X60318Y-41225D01*
X60399Y-41194D01*
X60472Y-41148D01*
X60534Y-41088D01*
X60551Y-41065D01*
X60635Y-41065D01*
X60635Y-42400D01*
X60637Y-42424D01*
X60639Y-42448D01*
X60639Y-42450D01*
X60640Y-42451D01*
X60647Y-42474D01*
X60653Y-42498D01*
X60654Y-42499D01*
X60654Y-42500D01*
X60666Y-42522D01*
X60677Y-42544D01*
X60678Y-42545D01*
X60679Y-42546D01*
X60694Y-42565D01*
X60710Y-42584D01*
X60711Y-42586D01*
X60711Y-42586D01*
X60711Y-42586D01*
X60712Y-42587D01*
X60812Y-42687D01*
X60831Y-42702D01*
X60850Y-42718D01*
X60851Y-42719D01*
X60852Y-42720D01*
X60874Y-42731D01*
X60895Y-42743D01*
X60896Y-42743D01*
X60898Y-42744D01*
X60921Y-42751D01*
X60944Y-42759D01*
X60946Y-42759D01*
X60947Y-42759D01*
X60971Y-42762D01*
X60996Y-42764D01*
X60999Y-42764D01*
X60999Y-42764D01*
X60999Y-42764D01*
X61000Y-42765D01*
X61368Y-42765D01*
X61382Y-42785D01*
X61401Y-42804D01*
X61424Y-42820D01*
X61449Y-42830D01*
X61476Y-42836D01*
X61504Y-42836D01*
X62056Y-42836D01*
X62083Y-42831D01*
X62108Y-42820D01*
X62131Y-42805D01*
X62150Y-42786D01*
X62166Y-42763D01*
X62176Y-42738D01*
X62182Y-42711D01*
X62182Y-42683D01*
X62182Y-44483D01*
X62182Y-44089D01*
X62177Y-44062D01*
X62166Y-44037D01*
X62151Y-44014D01*
X62132Y-43995D01*
X62109Y-43979D01*
X62084Y-43969D01*
X62057Y-43963D01*
X62029Y-43963D01*
X61477Y-43963D01*
X61450Y-43968D01*
X61425Y-43979D01*
X61402Y-43994D01*
X61383Y-44013D01*
X61367Y-44036D01*
X61357Y-44061D01*
X61351Y-44088D01*
X61351Y-44116D01*
X61351Y-44510D01*
X61356Y-44537D01*
X61367Y-44562D01*
X61382Y-44585D01*
X61401Y-44604D01*
X61424Y-44620D01*
X61449Y-44630D01*
X61476Y-44636D01*
X61502Y-44636D01*
X61502Y-46267D01*
X61504Y-46291D01*
X61506Y-46315D01*
X61506Y-46317D01*
X61507Y-46318D01*
X61514Y-46341D01*
X61520Y-46365D01*
X61521Y-46366D01*
X61521Y-46367D01*
X61533Y-46389D01*
X61544Y-46411D01*
X61545Y-46412D01*
X61546Y-46413D01*
X61561Y-46432D01*
X61577Y-46451D01*
X61578Y-46453D01*
X61578Y-46453D01*
X61578Y-46453D01*
X61579Y-46454D01*
X61730Y-46605D01*
X61543Y-46879D01*
X61380Y-47259D01*
X61294Y-47663D01*
X61288Y-48077D01*
X61296Y-48120D01*
X60240Y-48859D01*
X60088Y-48989D01*
X59964Y-49147D01*
X59873Y-49325D01*
X59819Y-49518D01*
X59803Y-49717D01*
X59826Y-49916D01*
X59887Y-50107D01*
X59984Y-50282D01*
X60113Y-50435D01*
X60270Y-50560D01*
X60448Y-50652D01*
X60640Y-50708D01*
X60840Y-50725D01*
X61039Y-50704D01*
X61230Y-50644D01*
X61405Y-50548D01*
X61417Y-50540D01*
X62477Y-49798D01*
X62745Y-49915D01*
X63149Y-50003D01*
X63562Y-50012D01*
X63969Y-49940D01*
X64355Y-49791D01*
X64704Y-49569D01*
X65003Y-49284D01*
X65242Y-48946D01*
X65410Y-48568D01*
X65501Y-48165D01*
X65508Y-47693D01*
X65508Y-52460D01*
X58502Y-52460D01*
X58502Y-44954D01*
X58406Y-44473D01*
X58219Y-44019D01*
X57948Y-43611D01*
X57602Y-43262D01*
X57195Y-42988D01*
X56743Y-42798D01*
X56262Y-42699D01*
X55772Y-42696D01*
X55290Y-42788D01*
X54835Y-42971D01*
X54424Y-43240D01*
X54074Y-43583D01*
X53796Y-43988D01*
X53603Y-44439D01*
X53501Y-44919D01*
X53494Y-45410D01*
X53583Y-45892D01*
X53763Y-46349D01*
X54029Y-46761D01*
X54370Y-47114D01*
X54773Y-47394D01*
X55223Y-47591D01*
X55702Y-47696D01*
X56192Y-47706D01*
X56676Y-47621D01*
X57133Y-47444D01*
X57547Y-47181D01*
X57903Y-46842D01*
X58186Y-46441D01*
X58385Y-45993D01*
X58494Y-45515D01*
X58502Y-44954D01*
X58502Y-52460D01*
X52339Y-52460D01*
X52339Y-40889D01*
X52296Y-40673D01*
X52212Y-40469D01*
X52090Y-40285D01*
X51935Y-40129D01*
X51752Y-40006D01*
X51549Y-39920D01*
X51333Y-39876D01*
X51112Y-39874D01*
X50895Y-39916D01*
X50691Y-39998D01*
X50506Y-40119D01*
X50349Y-40273D01*
X50224Y-40455D01*
X50137Y-40658D01*
X50092Y-40874D01*
X50089Y-41094D01*
X50128Y-41311D01*
X50210Y-41516D01*
X50329Y-41701D01*
X50482Y-41860D01*
X50663Y-41986D01*
X50865Y-42074D01*
X51081Y-42121D01*
X51301Y-42126D01*
X51518Y-42088D01*
X51724Y-42008D01*
X51910Y-41890D01*
X52070Y-41738D01*
X52197Y-41558D01*
X52287Y-41356D01*
X52336Y-41141D01*
X52339Y-40889D01*
X52339Y-52460D01*
X41709Y-52460D01*
X41709Y-40889D01*
X41666Y-40673D01*
X41582Y-40469D01*
X41460Y-40285D01*
X41305Y-40129D01*
X41122Y-40006D01*
X40919Y-39920D01*
X40703Y-39876D01*
X40640Y-39875D01*
X40640Y-38156D01*
X40623Y-38072D01*
X40590Y-37992D01*
X40542Y-37920D01*
X40481Y-37859D01*
X40410Y-37811D01*
X40330Y-37777D01*
X40246Y-37760D01*
X40159Y-37759D01*
X40075Y-37775D01*
X39995Y-37808D01*
X39922Y-37855D01*
X39861Y-37915D01*
X39812Y-37987D01*
X39778Y-38066D01*
X39760Y-38150D01*
X39759Y-38236D01*
X39774Y-38321D01*
X39806Y-38402D01*
X39853Y-38474D01*
X39913Y-38536D01*
X39984Y-38585D01*
X40063Y-38620D01*
X40147Y-38639D01*
X40233Y-38640D01*
X40318Y-38625D01*
X40399Y-38594D01*
X40472Y-38548D01*
X40534Y-38488D01*
X40584Y-38418D01*
X40619Y-38339D01*
X40638Y-38255D01*
X40640Y-38156D01*
X40640Y-39875D01*
X40482Y-39874D01*
X40265Y-39916D01*
X40061Y-39998D01*
X39876Y-40119D01*
X39719Y-40273D01*
X39640Y-40389D01*
X39640Y-37156D01*
X39623Y-37072D01*
X39590Y-36992D01*
X39542Y-36920D01*
X39540Y-36917D01*
X39540Y-33156D01*
X39540Y-32156D01*
X39540Y-31156D01*
X39523Y-31072D01*
X39490Y-30992D01*
X39442Y-30920D01*
X39381Y-30859D01*
X39310Y-30811D01*
X39230Y-30777D01*
X39146Y-30760D01*
X39059Y-30759D01*
X38975Y-30775D01*
X38895Y-30808D01*
X38822Y-30855D01*
X38761Y-30915D01*
X38712Y-30987D01*
X38678Y-31066D01*
X38660Y-31150D01*
X38659Y-31236D01*
X38674Y-31321D01*
X38706Y-31402D01*
X38753Y-31474D01*
X38813Y-31536D01*
X38884Y-31585D01*
X38963Y-31620D01*
X39047Y-31639D01*
X39133Y-31640D01*
X39218Y-31625D01*
X39299Y-31594D01*
X39372Y-31548D01*
X39434Y-31488D01*
X39484Y-31418D01*
X39519Y-31339D01*
X39538Y-31255D01*
X39540Y-31156D01*
X39540Y-32156D01*
X39523Y-32072D01*
X39490Y-31992D01*
X39442Y-31920D01*
X39381Y-31859D01*
X39310Y-31811D01*
X39230Y-31777D01*
X39146Y-31760D01*
X39059Y-31759D01*
X38975Y-31775D01*
X38895Y-31808D01*
X38822Y-31855D01*
X38761Y-31915D01*
X38712Y-31987D01*
X38678Y-32066D01*
X38660Y-32150D01*
X38659Y-32236D01*
X38674Y-32321D01*
X38706Y-32402D01*
X38753Y-32474D01*
X38813Y-32536D01*
X38884Y-32585D01*
X38963Y-32620D01*
X39047Y-32639D01*
X39133Y-32640D01*
X39218Y-32625D01*
X39299Y-32594D01*
X39372Y-32548D01*
X39434Y-32488D01*
X39484Y-32418D01*
X39519Y-32339D01*
X39538Y-32255D01*
X39540Y-32156D01*
X39540Y-33156D01*
X39523Y-33072D01*
X39490Y-32992D01*
X39442Y-32920D01*
X39381Y-32859D01*
X39310Y-32811D01*
X39230Y-32777D01*
X39146Y-32760D01*
X39059Y-32759D01*
X38975Y-32775D01*
X38895Y-32808D01*
X38822Y-32855D01*
X38761Y-32915D01*
X38712Y-32987D01*
X38678Y-33066D01*
X38660Y-33150D01*
X38659Y-33236D01*
X38674Y-33321D01*
X38706Y-33402D01*
X38753Y-33474D01*
X38813Y-33536D01*
X38884Y-33585D01*
X38963Y-33620D01*
X39047Y-33639D01*
X39133Y-33640D01*
X39218Y-33625D01*
X39299Y-33594D01*
X39372Y-33548D01*
X39434Y-33488D01*
X39484Y-33418D01*
X39519Y-33339D01*
X39538Y-33255D01*
X39540Y-33156D01*
X39540Y-36917D01*
X39481Y-36859D01*
X39410Y-36811D01*
X39330Y-36777D01*
X39246Y-36760D01*
X39159Y-36759D01*
X39075Y-36775D01*
X38995Y-36808D01*
X38922Y-36855D01*
X38861Y-36915D01*
X38812Y-36987D01*
X38778Y-37066D01*
X38760Y-37150D01*
X38759Y-37236D01*
X38774Y-37321D01*
X38806Y-37402D01*
X38853Y-37474D01*
X38913Y-37536D01*
X38984Y-37585D01*
X39063Y-37620D01*
X39147Y-37639D01*
X39233Y-37640D01*
X39318Y-37625D01*
X39399Y-37594D01*
X39472Y-37548D01*
X39534Y-37488D01*
X39584Y-37418D01*
X39619Y-37339D01*
X39638Y-37255D01*
X39640Y-37156D01*
X39640Y-40389D01*
X39594Y-40455D01*
X39507Y-40658D01*
X39462Y-40874D01*
X39459Y-41094D01*
X39498Y-41311D01*
X39580Y-41516D01*
X39699Y-41701D01*
X39852Y-41860D01*
X40033Y-41986D01*
X40235Y-42074D01*
X40451Y-42121D01*
X40671Y-42126D01*
X40888Y-42088D01*
X41094Y-42008D01*
X41280Y-41890D01*
X41440Y-41738D01*
X41567Y-41558D01*
X41657Y-41356D01*
X41706Y-41141D01*
X41709Y-40889D01*
X41709Y-52460D01*
X40819Y-52460D01*
X40819Y-47450D01*
X40819Y-46450D01*
X40819Y-45450D01*
X40801Y-45360D01*
X40766Y-45276D01*
X40716Y-45200D01*
X40651Y-45135D01*
X40576Y-45084D01*
X40492Y-45049D01*
X40402Y-45031D01*
X40311Y-45030D01*
X40222Y-45047D01*
X40137Y-45081D01*
X40061Y-45131D01*
X39996Y-45195D01*
X39944Y-45270D01*
X39908Y-45354D01*
X39889Y-45443D01*
X39888Y-45535D01*
X39904Y-45624D01*
X39938Y-45709D01*
X39987Y-45786D01*
X40051Y-45851D01*
X40126Y-45903D01*
X40209Y-45940D01*
X40298Y-45959D01*
X40389Y-45961D01*
X40479Y-45946D01*
X40564Y-45913D01*
X40641Y-45864D01*
X40707Y-45801D01*
X40760Y-45726D01*
X40797Y-45643D01*
X40817Y-45554D01*
X40819Y-45450D01*
X40819Y-46450D01*
X40801Y-46360D01*
X40766Y-46276D01*
X40716Y-46200D01*
X40651Y-46135D01*
X40576Y-46084D01*
X40492Y-46049D01*
X40402Y-46031D01*
X40311Y-46030D01*
X40222Y-46047D01*
X40137Y-46081D01*
X40061Y-46131D01*
X39996Y-46195D01*
X39944Y-46270D01*
X39908Y-46354D01*
X39889Y-46443D01*
X39888Y-46535D01*
X39904Y-46624D01*
X39938Y-46709D01*
X39987Y-46786D01*
X40051Y-46851D01*
X40126Y-46903D01*
X40209Y-46940D01*
X40298Y-46959D01*
X40389Y-46961D01*
X40479Y-46946D01*
X40564Y-46913D01*
X40641Y-46864D01*
X40707Y-46801D01*
X40760Y-46726D01*
X40797Y-46643D01*
X40817Y-46554D01*
X40819Y-46450D01*
X40819Y-47450D01*
X40801Y-47360D01*
X40766Y-47276D01*
X40716Y-47200D01*
X40651Y-47135D01*
X40576Y-47084D01*
X40492Y-47049D01*
X40402Y-47031D01*
X40311Y-47030D01*
X40222Y-47047D01*
X40137Y-47081D01*
X40061Y-47131D01*
X39996Y-47195D01*
X39944Y-47270D01*
X39908Y-47354D01*
X39889Y-47443D01*
X39888Y-47535D01*
X39904Y-47624D01*
X39938Y-47709D01*
X39987Y-47786D01*
X40051Y-47851D01*
X40126Y-47903D01*
X40209Y-47940D01*
X40298Y-47959D01*
X40389Y-47961D01*
X40479Y-47946D01*
X40564Y-47913D01*
X40641Y-47864D01*
X40707Y-47801D01*
X40760Y-47726D01*
X40797Y-47643D01*
X40817Y-47554D01*
X40819Y-47450D01*
X40819Y-52460D01*
X38351Y-52460D01*
X38211Y-52446D01*
X38078Y-52405D01*
X37955Y-52340D01*
X37848Y-52251D01*
X37759Y-52144D01*
X37694Y-52021D01*
X37653Y-51888D01*
X37640Y-51748D01*
X37640Y-14351D01*
X37653Y-14211D01*
X37694Y-14078D01*
X37759Y-13955D01*
X37848Y-13848D01*
X37955Y-13759D01*
X38078Y-13694D01*
X38211Y-13653D01*
X38351Y-13640D01*
X75848Y-13640D01*
X75988Y-13653D01*
X76121Y-13694D01*
X76244Y-13759D01*
X76351Y-13848D01*
X76440Y-13955D01*
X76505Y-14078D01*
X76546Y-14211D01*
X76560Y-14351D01*
X76560Y-51748D01*
X76560Y-51748D01*
G37*
G54D36*
X76560Y-51748D02*
X76546Y-51888D01*
X76505Y-52021D01*
X76440Y-52144D01*
X76351Y-52251D01*
X76244Y-52340D01*
X76240Y-52342D01*
X76240Y-26519D01*
X76240Y-22280D01*
X76226Y-22141D01*
X76185Y-22006D01*
X76118Y-21881D01*
X76028Y-21771D01*
X75918Y-21681D01*
X75793Y-21614D01*
X75658Y-21573D01*
X75519Y-21560D01*
X38680Y-21560D01*
X38541Y-21573D01*
X38406Y-21614D01*
X38281Y-21681D01*
X38171Y-21771D01*
X38081Y-21881D01*
X38014Y-22006D01*
X37973Y-22141D01*
X37960Y-22280D01*
X37960Y-26519D01*
X37973Y-26658D01*
X38014Y-26793D01*
X38081Y-26918D01*
X38171Y-27028D01*
X38281Y-27118D01*
X38406Y-27185D01*
X38541Y-27226D01*
X38680Y-27240D01*
X39554Y-27240D01*
X39780Y-27396D01*
X40212Y-27585D01*
X40672Y-27686D01*
X41143Y-27696D01*
X41607Y-27614D01*
X42046Y-27444D01*
X42368Y-27240D01*
X48748Y-27240D01*
X48888Y-27253D01*
X49021Y-27294D01*
X49144Y-27359D01*
X49251Y-27448D01*
X49340Y-27555D01*
X49405Y-27678D01*
X49446Y-27811D01*
X49460Y-27951D01*
X49460Y-28051D01*
X49474Y-28204D01*
X49519Y-28352D01*
X49592Y-28489D01*
X49691Y-28608D01*
X49810Y-28707D01*
X49935Y-28773D01*
X49935Y-30200D01*
X49937Y-30224D01*
X49939Y-30249D01*
X49939Y-30250D01*
X49940Y-30251D01*
X49947Y-30275D01*
X49954Y-30299D01*
X49954Y-30300D01*
X49954Y-30300D01*
X49966Y-30322D01*
X49978Y-30345D01*
X49978Y-30345D01*
X49979Y-30346D01*
X49995Y-30365D01*
X50010Y-30385D01*
X50011Y-30386D01*
X50011Y-30386D01*
X50031Y-30402D01*
X50050Y-30418D01*
X50051Y-30419D01*
X50051Y-30419D01*
X50073Y-30431D01*
X50095Y-30443D01*
X50096Y-30443D01*
X50097Y-30444D01*
X50121Y-30451D01*
X50144Y-30459D01*
X50145Y-30459D01*
X50146Y-30459D01*
X50171Y-30462D01*
X50196Y-30464D01*
X50198Y-30464D01*
X50198Y-30464D01*
X50198Y-30464D01*
X50200Y-30465D01*
X53130Y-30465D01*
X53130Y-30508D01*
X53135Y-30535D01*
X53146Y-30561D01*
X53161Y-30583D01*
X53180Y-30603D01*
X53203Y-30618D01*
X53228Y-30629D01*
X53255Y-30634D01*
X53283Y-30635D01*
X53795Y-30635D01*
X53822Y-30629D01*
X53847Y-30619D01*
X53870Y-30604D01*
X53889Y-30584D01*
X53900Y-30569D01*
X53909Y-30583D01*
X53928Y-30603D01*
X53951Y-30618D01*
X53976Y-30629D01*
X54003Y-30634D01*
X54031Y-30635D01*
X54543Y-30635D01*
X54570Y-30629D01*
X54595Y-30619D01*
X54618Y-30604D01*
X54637Y-30584D01*
X54653Y-30561D01*
X54663Y-30536D01*
X54669Y-30509D01*
X54669Y-30482D01*
X54669Y-30465D01*
X55785Y-30465D01*
X55785Y-30640D01*
X55690Y-30735D01*
X54750Y-30735D01*
X46069Y-30735D01*
X46069Y-30691D01*
X46064Y-30664D01*
X46053Y-30638D01*
X46038Y-30616D01*
X46019Y-30596D01*
X45996Y-30581D01*
X45971Y-30570D01*
X45944Y-30565D01*
X45916Y-30564D01*
X45404Y-30564D01*
X45377Y-30570D01*
X45352Y-30580D01*
X45329Y-30595D01*
X45310Y-30615D01*
X45294Y-30638D01*
X45284Y-30663D01*
X45278Y-30690D01*
X45278Y-30717D01*
X45278Y-31308D01*
X45283Y-31335D01*
X45294Y-31361D01*
X45309Y-31383D01*
X45328Y-31403D01*
X45351Y-31418D01*
X45376Y-31429D01*
X45403Y-31434D01*
X45409Y-31434D01*
X45409Y-31764D01*
X45404Y-31764D01*
X45377Y-31770D01*
X45352Y-31780D01*
X45329Y-31795D01*
X45310Y-31815D01*
X45299Y-31830D01*
X45290Y-31816D01*
X45271Y-31796D01*
X45248Y-31781D01*
X45223Y-31770D01*
X45196Y-31765D01*
X45168Y-31764D01*
X44656Y-31764D01*
X44629Y-31770D01*
X44604Y-31780D01*
X44581Y-31795D01*
X44562Y-31815D01*
X44546Y-31838D01*
X44536Y-31863D01*
X44530Y-31890D01*
X44530Y-31917D01*
X44530Y-31935D01*
X44370Y-31935D01*
X44350Y-31921D01*
X44293Y-31897D01*
X44233Y-31885D01*
X44171Y-31884D01*
X44110Y-31896D01*
X44053Y-31919D01*
X44001Y-31953D01*
X43957Y-31996D01*
X43922Y-32047D01*
X43898Y-32104D01*
X43885Y-32164D01*
X43884Y-32226D01*
X43895Y-32287D01*
X43918Y-32344D01*
X43951Y-32396D01*
X43994Y-32441D01*
X44045Y-32476D01*
X44102Y-32501D01*
X44162Y-32514D01*
X44224Y-32515D01*
X44285Y-32504D01*
X44342Y-32482D01*
X44370Y-32465D01*
X44530Y-32465D01*
X44530Y-32508D01*
X44535Y-32535D01*
X44546Y-32561D01*
X44561Y-32583D01*
X44580Y-32603D01*
X44603Y-32618D01*
X44628Y-32629D01*
X44655Y-32634D01*
X44669Y-32635D01*
X43500Y-32635D01*
X43475Y-32637D01*
X43451Y-32639D01*
X43449Y-32639D01*
X43448Y-32640D01*
X43425Y-32647D01*
X43401Y-32653D01*
X43400Y-32654D01*
X43399Y-32654D01*
X43377Y-32666D01*
X43355Y-32677D01*
X43354Y-32678D01*
X43353Y-32679D01*
X43334Y-32694D01*
X43315Y-32710D01*
X43313Y-32711D01*
X43313Y-32711D01*
X43313Y-32712D01*
X43312Y-32712D01*
X42612Y-33412D01*
X42612Y-33412D01*
X42212Y-33812D01*
X42197Y-33831D01*
X42181Y-33850D01*
X42180Y-33851D01*
X42179Y-33852D01*
X42168Y-33874D01*
X42156Y-33895D01*
X42156Y-33896D01*
X42155Y-33898D01*
X42148Y-33921D01*
X42140Y-33944D01*
X42140Y-33946D01*
X42140Y-33947D01*
X42137Y-33971D01*
X42135Y-33996D01*
X42135Y-33999D01*
X42135Y-33999D01*
X42135Y-33999D01*
X42135Y-34000D01*
X42135Y-35900D01*
X42137Y-35924D01*
X42139Y-35948D01*
X42139Y-35950D01*
X42140Y-35951D01*
X42147Y-35974D01*
X42153Y-35998D01*
X42154Y-35999D01*
X42154Y-36000D01*
X42166Y-36022D01*
X42177Y-36044D01*
X42178Y-36045D01*
X42179Y-36046D01*
X42194Y-36065D01*
X42210Y-36084D01*
X42211Y-36086D01*
X42211Y-36086D01*
X42211Y-36086D01*
X42212Y-36087D01*
X42462Y-36337D01*
X42481Y-36352D01*
X42500Y-36368D01*
X42501Y-36369D01*
X42502Y-36370D01*
X42524Y-36381D01*
X42545Y-36393D01*
X42546Y-36393D01*
X42548Y-36394D01*
X42571Y-36401D01*
X42594Y-36409D01*
X42596Y-36409D01*
X42597Y-36409D01*
X42621Y-36412D01*
X42646Y-36414D01*
X42649Y-36414D01*
X42649Y-36414D01*
X42649Y-36414D01*
X42650Y-36415D01*
X44277Y-36415D01*
X44328Y-36409D01*
X44334Y-36408D01*
X44723Y-36408D01*
X44735Y-36405D01*
X44735Y-37364D01*
X44656Y-37364D01*
X44629Y-37370D01*
X44604Y-37380D01*
X44581Y-37395D01*
X44562Y-37415D01*
X44546Y-37438D01*
X44536Y-37463D01*
X44530Y-37490D01*
X44530Y-37517D01*
X44530Y-37535D01*
X44409Y-37535D01*
X44207Y-37333D01*
X44203Y-37308D01*
X44179Y-37251D01*
X44145Y-37199D01*
X44101Y-37156D01*
X44050Y-37121D01*
X43993Y-37097D01*
X43933Y-37085D01*
X43871Y-37084D01*
X43810Y-37096D01*
X43753Y-37119D01*
X43701Y-37153D01*
X43657Y-37196D01*
X43622Y-37247D01*
X43598Y-37304D01*
X43585Y-37364D01*
X43584Y-37426D01*
X43595Y-37487D01*
X43618Y-37544D01*
X43651Y-37596D01*
X43694Y-37641D01*
X43745Y-37676D01*
X43802Y-37701D01*
X43833Y-37707D01*
X44112Y-37987D01*
X44131Y-38002D01*
X44150Y-38018D01*
X44151Y-38019D01*
X44152Y-38020D01*
X44174Y-38031D01*
X44195Y-38043D01*
X44196Y-38043D01*
X44198Y-38044D01*
X44221Y-38051D01*
X44244Y-38059D01*
X44246Y-38059D01*
X44247Y-38059D01*
X44271Y-38062D01*
X44296Y-38064D01*
X44299Y-38064D01*
X44299Y-38064D01*
X44299Y-38064D01*
X44300Y-38065D01*
X44530Y-38065D01*
X44530Y-38108D01*
X44535Y-38135D01*
X44546Y-38161D01*
X44561Y-38183D01*
X44580Y-38203D01*
X44603Y-38218D01*
X44628Y-38229D01*
X44655Y-38234D01*
X44683Y-38235D01*
X45195Y-38235D01*
X45222Y-38229D01*
X45247Y-38219D01*
X45270Y-38204D01*
X45289Y-38184D01*
X45300Y-38169D01*
X45309Y-38183D01*
X45328Y-38203D01*
X45351Y-38218D01*
X45376Y-38229D01*
X45403Y-38234D01*
X45431Y-38235D01*
X45943Y-38235D01*
X45970Y-38229D01*
X45995Y-38219D01*
X46018Y-38204D01*
X46037Y-38184D01*
X46053Y-38161D01*
X46063Y-38136D01*
X46069Y-38109D01*
X46069Y-38082D01*
X46069Y-38065D01*
X47090Y-38065D01*
X47391Y-38366D01*
X47395Y-38387D01*
X47418Y-38444D01*
X47451Y-38496D01*
X47494Y-38541D01*
X47545Y-38576D01*
X47602Y-38601D01*
X47662Y-38614D01*
X47724Y-38615D01*
X47785Y-38604D01*
X47842Y-38582D01*
X47894Y-38549D01*
X47939Y-38506D01*
X47975Y-38456D01*
X48000Y-38399D01*
X48014Y-38339D01*
X48015Y-38269D01*
X48003Y-38208D01*
X47979Y-38151D01*
X47945Y-38099D01*
X47901Y-38056D01*
X47850Y-38021D01*
X47793Y-37997D01*
X47766Y-37992D01*
X47580Y-37805D01*
X47585Y-37804D01*
X47642Y-37782D01*
X47694Y-37749D01*
X47739Y-37706D01*
X47775Y-37656D01*
X47800Y-37599D01*
X47814Y-37539D01*
X47815Y-37469D01*
X47803Y-37408D01*
X47779Y-37351D01*
X47745Y-37299D01*
X47701Y-37256D01*
X47650Y-37221D01*
X47593Y-37197D01*
X47566Y-37192D01*
X46896Y-36521D01*
X46896Y-36518D01*
X46890Y-36491D01*
X46880Y-36465D01*
X46865Y-36443D01*
X46845Y-36423D01*
X46822Y-36408D01*
X46803Y-36399D01*
X46822Y-36392D01*
X46844Y-36377D01*
X46864Y-36357D01*
X46879Y-36334D01*
X46890Y-36309D01*
X46895Y-36282D01*
X46896Y-36255D01*
X46896Y-36018D01*
X46890Y-35991D01*
X46880Y-35965D01*
X46865Y-35943D01*
X46845Y-35923D01*
X46832Y-35915D01*
X47640Y-35915D01*
X47691Y-35966D01*
X47695Y-35987D01*
X47718Y-36044D01*
X47751Y-36096D01*
X47794Y-36141D01*
X47845Y-36176D01*
X47902Y-36201D01*
X47962Y-36214D01*
X48024Y-36215D01*
X48085Y-36204D01*
X48142Y-36182D01*
X48194Y-36149D01*
X48235Y-36111D01*
X48235Y-38835D01*
X46305Y-38835D01*
X46305Y-38732D01*
X46300Y-38705D01*
X46289Y-38679D01*
X46274Y-38657D01*
X46255Y-38637D01*
X46232Y-38622D01*
X46207Y-38611D01*
X46180Y-38606D01*
X46152Y-38605D01*
X45522Y-38605D01*
X45495Y-38611D01*
X45470Y-38621D01*
X45447Y-38636D01*
X45428Y-38656D01*
X45412Y-38679D01*
X45402Y-38704D01*
X45396Y-38731D01*
X45396Y-38758D01*
X45396Y-39467D01*
X45401Y-39494D01*
X45412Y-39520D01*
X45427Y-39542D01*
X45446Y-39562D01*
X45469Y-39577D01*
X45494Y-39588D01*
X45521Y-39593D01*
X45549Y-39594D01*
X46179Y-39594D01*
X46206Y-39588D01*
X46231Y-39578D01*
X46254Y-39563D01*
X46273Y-39543D01*
X46289Y-39520D01*
X46299Y-39495D01*
X46305Y-39468D01*
X46305Y-39441D01*
X46305Y-39365D01*
X48235Y-39365D01*
X48235Y-39500D01*
X48235Y-40200D01*
X48235Y-45941D01*
X47066Y-47110D01*
X47066Y-45501D01*
X47063Y-45476D01*
X47061Y-45452D01*
X47061Y-45450D01*
X47060Y-45449D01*
X47053Y-45426D01*
X47047Y-45402D01*
X47046Y-45401D01*
X47046Y-45400D01*
X47034Y-45378D01*
X47023Y-45356D01*
X47022Y-45355D01*
X47021Y-45354D01*
X47006Y-45335D01*
X46990Y-45316D01*
X46989Y-45314D01*
X46989Y-45314D01*
X46988Y-45314D01*
X46988Y-45313D01*
X46637Y-44962D01*
X46618Y-44947D01*
X46599Y-44931D01*
X46598Y-44930D01*
X46597Y-44929D01*
X46575Y-44918D01*
X46554Y-44906D01*
X46553Y-44906D01*
X46551Y-44905D01*
X46528Y-44898D01*
X46505Y-44890D01*
X46503Y-44890D01*
X46502Y-44890D01*
X46478Y-44887D01*
X46453Y-44885D01*
X46450Y-44885D01*
X46450Y-44885D01*
X46450Y-44885D01*
X46450Y-44885D01*
X46010Y-44885D01*
X46010Y-44137D01*
X46010Y-43336D01*
X46004Y-43309D01*
X45994Y-43283D01*
X45979Y-43261D01*
X45959Y-43241D01*
X45936Y-43226D01*
X45911Y-43215D01*
X45884Y-43210D01*
X45857Y-43209D01*
X44416Y-43209D01*
X44389Y-43215D01*
X44363Y-43225D01*
X44341Y-43240D01*
X44321Y-43260D01*
X44306Y-43283D01*
X44295Y-43308D01*
X44290Y-43335D01*
X44289Y-43362D01*
X44289Y-44163D01*
X44295Y-44190D01*
X44305Y-44216D01*
X44320Y-44238D01*
X44340Y-44258D01*
X44363Y-44273D01*
X44388Y-44284D01*
X44415Y-44289D01*
X44442Y-44290D01*
X45883Y-44290D01*
X45910Y-44284D01*
X45936Y-44274D01*
X45958Y-44259D01*
X45978Y-44239D01*
X45993Y-44216D01*
X46004Y-44191D01*
X46009Y-44164D01*
X46010Y-44137D01*
X46010Y-44885D01*
X44700Y-44885D01*
X44675Y-44887D01*
X44651Y-44889D01*
X44649Y-44889D01*
X44648Y-44890D01*
X44625Y-44897D01*
X44601Y-44903D01*
X44600Y-44904D01*
X44599Y-44904D01*
X44577Y-44916D01*
X44555Y-44927D01*
X44554Y-44928D01*
X44553Y-44929D01*
X44534Y-44944D01*
X44515Y-44960D01*
X44513Y-44961D01*
X44513Y-44961D01*
X44513Y-44961D01*
X44512Y-44962D01*
X44062Y-45412D01*
X44047Y-45431D01*
X44031Y-45450D01*
X44030Y-45451D01*
X44029Y-45452D01*
X44018Y-45474D01*
X44006Y-45495D01*
X44006Y-45496D01*
X44005Y-45498D01*
X43998Y-45521D01*
X43990Y-45544D01*
X43990Y-45546D01*
X43990Y-45547D01*
X43987Y-45571D01*
X43985Y-45596D01*
X43985Y-45599D01*
X43985Y-45599D01*
X43985Y-45599D01*
X43985Y-45600D01*
X43985Y-45825D01*
X43983Y-45825D01*
X43961Y-45840D01*
X43941Y-45860D01*
X43926Y-45883D01*
X43915Y-45908D01*
X43910Y-45935D01*
X43909Y-45962D01*
X43909Y-46085D01*
X43420Y-46085D01*
X43400Y-46071D01*
X43343Y-46047D01*
X43283Y-46035D01*
X43221Y-46034D01*
X43160Y-46046D01*
X43103Y-46069D01*
X43051Y-46103D01*
X43007Y-46146D01*
X42972Y-46197D01*
X42948Y-46254D01*
X42935Y-46314D01*
X42934Y-46376D01*
X42945Y-46437D01*
X42968Y-46494D01*
X43001Y-46546D01*
X43044Y-46591D01*
X43095Y-46626D01*
X43152Y-46651D01*
X43212Y-46664D01*
X43274Y-46665D01*
X43335Y-46654D01*
X43392Y-46632D01*
X43420Y-46615D01*
X43909Y-46615D01*
X43909Y-46763D01*
X43914Y-46785D01*
X43850Y-46785D01*
X43825Y-46787D01*
X43801Y-46789D01*
X43799Y-46789D01*
X43798Y-46790D01*
X43775Y-46797D01*
X43751Y-46803D01*
X43750Y-46804D01*
X43749Y-46804D01*
X43727Y-46816D01*
X43705Y-46827D01*
X43704Y-46828D01*
X43703Y-46829D01*
X43684Y-46844D01*
X43665Y-46860D01*
X43663Y-46861D01*
X43663Y-46861D01*
X43663Y-46862D01*
X43662Y-46862D01*
X43311Y-47213D01*
X43296Y-47232D01*
X43280Y-47251D01*
X43279Y-47252D01*
X43278Y-47253D01*
X43277Y-47255D01*
X43170Y-47255D01*
X43143Y-47261D01*
X43118Y-47271D01*
X43095Y-47286D01*
X43076Y-47306D01*
X43060Y-47329D01*
X43050Y-47354D01*
X43044Y-47381D01*
X43044Y-47408D01*
X43044Y-48117D01*
X43049Y-48144D01*
X43060Y-48170D01*
X43075Y-48192D01*
X43094Y-48212D01*
X43117Y-48227D01*
X43142Y-48238D01*
X43169Y-48243D01*
X43197Y-48244D01*
X43827Y-48244D01*
X43854Y-48238D01*
X43879Y-48228D01*
X43902Y-48213D01*
X43921Y-48193D01*
X43937Y-48170D01*
X43947Y-48145D01*
X43953Y-48118D01*
X43953Y-48091D01*
X43953Y-47382D01*
X43948Y-47355D01*
X43939Y-47334D01*
X43959Y-47315D01*
X44550Y-47315D01*
X44574Y-47312D01*
X44598Y-47310D01*
X44600Y-47310D01*
X44601Y-47309D01*
X44624Y-47302D01*
X44648Y-47296D01*
X44649Y-47295D01*
X44650Y-47295D01*
X44672Y-47283D01*
X44694Y-47272D01*
X44695Y-47271D01*
X44696Y-47270D01*
X44715Y-47255D01*
X44734Y-47239D01*
X44736Y-47238D01*
X44736Y-47238D01*
X44736Y-47238D01*
X44737Y-47237D01*
X44887Y-47087D01*
X44902Y-47068D01*
X44918Y-47049D01*
X44919Y-47048D01*
X44920Y-47047D01*
X44931Y-47025D01*
X44943Y-47004D01*
X44943Y-47003D01*
X44944Y-47001D01*
X44951Y-46978D01*
X44959Y-46955D01*
X44959Y-46953D01*
X44959Y-46952D01*
X44962Y-46928D01*
X44964Y-46903D01*
X44964Y-46900D01*
X44964Y-46900D01*
X44964Y-46900D01*
X44965Y-46900D01*
X44965Y-45909D01*
X45059Y-45815D01*
X45740Y-45815D01*
X45764Y-45838D01*
X45761Y-45840D01*
X45741Y-45860D01*
X45726Y-45883D01*
X45715Y-45908D01*
X45710Y-45935D01*
X45709Y-45962D01*
X45709Y-46763D01*
X45715Y-46790D01*
X45725Y-46816D01*
X45740Y-46838D01*
X45760Y-46858D01*
X45783Y-46873D01*
X45785Y-46874D01*
X45785Y-46900D01*
X45787Y-46924D01*
X45789Y-46948D01*
X45789Y-46950D01*
X45790Y-46951D01*
X45797Y-46974D01*
X45803Y-46998D01*
X45804Y-46999D01*
X45804Y-47000D01*
X45816Y-47022D01*
X45827Y-47044D01*
X45828Y-47045D01*
X45829Y-47046D01*
X45844Y-47065D01*
X45860Y-47084D01*
X45861Y-47086D01*
X45861Y-47086D01*
X45861Y-47086D01*
X45862Y-47087D01*
X45985Y-47209D01*
X45985Y-49350D01*
X45985Y-49840D01*
X45712Y-50112D01*
X45697Y-50131D01*
X45681Y-50150D01*
X45680Y-50151D01*
X45679Y-50152D01*
X45668Y-50174D01*
X45656Y-50195D01*
X45656Y-50196D01*
X45655Y-50198D01*
X45648Y-50221D01*
X45640Y-50244D01*
X45640Y-50246D01*
X45640Y-50247D01*
X45637Y-50271D01*
X45635Y-50296D01*
X45635Y-50299D01*
X45635Y-50299D01*
X45635Y-50299D01*
X45635Y-50300D01*
X45635Y-50526D01*
X45609Y-50487D01*
X45548Y-50426D01*
X45478Y-50379D01*
X45399Y-50345D01*
X45315Y-50328D01*
X45230Y-50328D01*
X45146Y-50344D01*
X45067Y-50376D01*
X44995Y-50422D01*
X44934Y-50482D01*
X44886Y-50553D01*
X44852Y-50631D01*
X44835Y-50715D01*
X44833Y-50800D01*
X44849Y-50884D01*
X44880Y-50964D01*
X44927Y-51035D01*
X44986Y-51097D01*
X45056Y-51145D01*
X45134Y-51180D01*
X45218Y-51198D01*
X45303Y-51200D01*
X45387Y-51185D01*
X45467Y-51154D01*
X45539Y-51108D01*
X45601Y-51049D01*
X45635Y-51002D01*
X45635Y-51300D01*
X45637Y-51324D01*
X45639Y-51348D01*
X45639Y-51350D01*
X45640Y-51351D01*
X45647Y-51374D01*
X45653Y-51398D01*
X45654Y-51399D01*
X45654Y-51400D01*
X45666Y-51422D01*
X45677Y-51444D01*
X45678Y-51445D01*
X45679Y-51446D01*
X45694Y-51465D01*
X45710Y-51484D01*
X45711Y-51486D01*
X45711Y-51486D01*
X45711Y-51486D01*
X45712Y-51487D01*
X46212Y-51987D01*
X46231Y-52002D01*
X46250Y-52018D01*
X46251Y-52019D01*
X46252Y-52020D01*
X46274Y-52031D01*
X46295Y-52043D01*
X46296Y-52043D01*
X46298Y-52044D01*
X46321Y-52051D01*
X46344Y-52059D01*
X46346Y-52059D01*
X46347Y-52059D01*
X46371Y-52062D01*
X46396Y-52064D01*
X46399Y-52064D01*
X46399Y-52064D01*
X46399Y-52064D01*
X46400Y-52065D01*
X48700Y-52065D01*
X48724Y-52062D01*
X48748Y-52060D01*
X48750Y-52060D01*
X48751Y-52059D01*
X48774Y-52052D01*
X48798Y-52046D01*
X48799Y-52045D01*
X48800Y-52045D01*
X48822Y-52033D01*
X48844Y-52022D01*
X48845Y-52021D01*
X48846Y-52020D01*
X48865Y-52005D01*
X48884Y-51989D01*
X48886Y-51988D01*
X48886Y-51988D01*
X48886Y-51988D01*
X48887Y-51987D01*
X49587Y-51287D01*
X49602Y-51268D01*
X49618Y-51249D01*
X49619Y-51248D01*
X49620Y-51247D01*
X49631Y-51225D01*
X49643Y-51204D01*
X49643Y-51203D01*
X49644Y-51201D01*
X49651Y-51178D01*
X49659Y-51155D01*
X49659Y-51153D01*
X49659Y-51152D01*
X49662Y-51128D01*
X49664Y-51103D01*
X49664Y-51100D01*
X49664Y-51100D01*
X49664Y-51100D01*
X49665Y-51100D01*
X49665Y-39609D01*
X49909Y-39365D01*
X51990Y-39365D01*
X53112Y-40487D01*
X53131Y-40502D01*
X53150Y-40518D01*
X53151Y-40519D01*
X53152Y-40520D01*
X53174Y-40531D01*
X53195Y-40543D01*
X53196Y-40543D01*
X53198Y-40544D01*
X53221Y-40551D01*
X53244Y-40559D01*
X53246Y-40559D01*
X53247Y-40559D01*
X53271Y-40562D01*
X53296Y-40564D01*
X53299Y-40564D01*
X53299Y-40564D01*
X53299Y-40564D01*
X53300Y-40565D01*
X56800Y-40565D01*
X56824Y-40562D01*
X56848Y-40560D01*
X56850Y-40560D01*
X56851Y-40559D01*
X56874Y-40552D01*
X56898Y-40546D01*
X56899Y-40545D01*
X56900Y-40545D01*
X56922Y-40533D01*
X56944Y-40522D01*
X56945Y-40521D01*
X56946Y-40520D01*
X56965Y-40505D01*
X56984Y-40489D01*
X56986Y-40488D01*
X56986Y-40488D01*
X56986Y-40488D01*
X56987Y-40487D01*
X57549Y-39925D01*
X57623Y-39927D01*
X57745Y-39905D01*
X57861Y-39860D01*
X57965Y-39794D01*
X58055Y-39708D01*
X58127Y-39607D01*
X58177Y-39494D01*
X58205Y-39373D01*
X58207Y-39232D01*
X58182Y-39110D01*
X58135Y-38995D01*
X58067Y-38892D01*
X57979Y-38804D01*
X57877Y-38735D01*
X57840Y-38719D01*
X57840Y-35275D01*
X57837Y-35250D01*
X57835Y-35226D01*
X57835Y-35224D01*
X57834Y-35223D01*
X57827Y-35200D01*
X57821Y-35176D01*
X57820Y-35175D01*
X57820Y-35174D01*
X57808Y-35152D01*
X57797Y-35130D01*
X57796Y-35129D01*
X57795Y-35128D01*
X57780Y-35109D01*
X57764Y-35090D01*
X57763Y-35088D01*
X57763Y-35088D01*
X57762Y-35088D01*
X57762Y-35087D01*
X57387Y-34712D01*
X57368Y-34697D01*
X57349Y-34681D01*
X57348Y-34680D01*
X57347Y-34679D01*
X57325Y-34668D01*
X57304Y-34656D01*
X57303Y-34656D01*
X57301Y-34655D01*
X57278Y-34648D01*
X57255Y-34640D01*
X57253Y-34640D01*
X57252Y-34640D01*
X57228Y-34637D01*
X57203Y-34635D01*
X57200Y-34635D01*
X57200Y-34635D01*
X57200Y-34635D01*
X57200Y-34635D01*
X56661Y-34635D01*
X56654Y-34617D01*
X56639Y-34594D01*
X56620Y-34575D01*
X56597Y-34559D01*
X56572Y-34549D01*
X56545Y-34543D01*
X56517Y-34543D01*
X56123Y-34543D01*
X56096Y-34548D01*
X56071Y-34559D01*
X56048Y-34574D01*
X56029Y-34593D01*
X56013Y-34616D01*
X56003Y-34641D01*
X55999Y-34657D01*
X55997Y-34642D01*
X55986Y-34617D01*
X55971Y-34594D01*
X55952Y-34575D01*
X55929Y-34559D01*
X55904Y-34549D01*
X55877Y-34543D01*
X55849Y-34543D01*
X55455Y-34543D01*
X55428Y-34548D01*
X55403Y-34559D01*
X55380Y-34574D01*
X55361Y-34593D01*
X55345Y-34616D01*
X55335Y-34641D01*
X55329Y-34668D01*
X55329Y-34696D01*
X55329Y-34918D01*
X55327Y-34923D01*
X55327Y-34925D01*
X55327Y-34926D01*
X55324Y-34950D01*
X55322Y-34975D01*
X55322Y-34978D01*
X55322Y-34978D01*
X55322Y-34978D01*
X55322Y-34979D01*
X55322Y-35427D01*
X55310Y-35429D01*
X55284Y-35439D01*
X55262Y-35454D01*
X55242Y-35474D01*
X55227Y-35497D01*
X55216Y-35522D01*
X55211Y-35549D01*
X55210Y-35576D01*
X55210Y-36049D01*
X55216Y-36076D01*
X55226Y-36102D01*
X55241Y-36124D01*
X55261Y-36144D01*
X55284Y-36159D01*
X55309Y-36170D01*
X55336Y-36175D01*
X55363Y-36176D01*
X55836Y-36176D01*
X55863Y-36170D01*
X55889Y-36160D01*
X55911Y-36145D01*
X55931Y-36125D01*
X55946Y-36102D01*
X55957Y-36077D01*
X55962Y-36050D01*
X55963Y-36023D01*
X55963Y-35550D01*
X55957Y-35523D01*
X55947Y-35497D01*
X55932Y-35475D01*
X55912Y-35455D01*
X55889Y-35440D01*
X55864Y-35429D01*
X55852Y-35427D01*
X55852Y-35256D01*
X55876Y-35256D01*
X55903Y-35251D01*
X55928Y-35240D01*
X55951Y-35225D01*
X55970Y-35206D01*
X55986Y-35183D01*
X55996Y-35158D01*
X56000Y-35142D01*
X56002Y-35157D01*
X56013Y-35182D01*
X56028Y-35205D01*
X56047Y-35224D01*
X56070Y-35240D01*
X56095Y-35250D01*
X56122Y-35256D01*
X56150Y-35256D01*
X56544Y-35256D01*
X56571Y-35251D01*
X56596Y-35240D01*
X56619Y-35225D01*
X56638Y-35206D01*
X56654Y-35183D01*
X56661Y-35165D01*
X57090Y-35165D01*
X57310Y-35384D01*
X57310Y-38719D01*
X57280Y-38731D01*
X57177Y-38799D01*
X57088Y-38885D01*
X57018Y-38988D01*
X56969Y-39101D01*
X56943Y-39223D01*
X56942Y-39347D01*
X56964Y-39469D01*
X57010Y-39584D01*
X57061Y-39663D01*
X56690Y-40035D01*
X56632Y-40035D01*
X56632Y-39232D01*
X56607Y-39110D01*
X56560Y-38995D01*
X56492Y-38892D01*
X56404Y-38804D01*
X56302Y-38735D01*
X56187Y-38687D01*
X56066Y-38662D01*
X55942Y-38661D01*
X55820Y-38684D01*
X55705Y-38731D01*
X55602Y-38799D01*
X55513Y-38885D01*
X55443Y-38988D01*
X55394Y-39101D01*
X55368Y-39223D01*
X55367Y-39347D01*
X55389Y-39469D01*
X55435Y-39584D01*
X55502Y-39688D01*
X55588Y-39777D01*
X55690Y-39848D01*
X55803Y-39897D01*
X55924Y-39924D01*
X56048Y-39927D01*
X56170Y-39905D01*
X56286Y-39860D01*
X56390Y-39794D01*
X56480Y-39708D01*
X56552Y-39607D01*
X56602Y-39494D01*
X56630Y-39373D01*
X56632Y-39232D01*
X56632Y-40035D01*
X53409Y-40035D01*
X52287Y-38912D01*
X52268Y-38897D01*
X52249Y-38881D01*
X52248Y-38880D01*
X52247Y-38879D01*
X52225Y-38868D01*
X52204Y-38856D01*
X52203Y-38856D01*
X52201Y-38855D01*
X52178Y-38848D01*
X52155Y-38840D01*
X52153Y-38840D01*
X52152Y-38840D01*
X52128Y-38837D01*
X52103Y-38835D01*
X52100Y-38835D01*
X52100Y-38835D01*
X52100Y-38835D01*
X52100Y-38835D01*
X51643Y-38835D01*
X51670Y-38829D01*
X51695Y-38819D01*
X51718Y-38804D01*
X51737Y-38784D01*
X51753Y-38761D01*
X51763Y-38736D01*
X51769Y-38709D01*
X51769Y-38682D01*
X51769Y-38665D01*
X51800Y-38665D01*
X51824Y-38662D01*
X51848Y-38660D01*
X51850Y-38660D01*
X51851Y-38659D01*
X51874Y-38652D01*
X51898Y-38646D01*
X51899Y-38645D01*
X51900Y-38645D01*
X51922Y-38633D01*
X51944Y-38622D01*
X51945Y-38621D01*
X51946Y-38620D01*
X51965Y-38605D01*
X51984Y-38589D01*
X51986Y-38588D01*
X51986Y-38588D01*
X51986Y-38588D01*
X51987Y-38587D01*
X52909Y-37665D01*
X53200Y-37665D01*
X54729Y-37665D01*
X54745Y-37676D01*
X54802Y-37701D01*
X54862Y-37714D01*
X54924Y-37715D01*
X54985Y-37704D01*
X55042Y-37682D01*
X55094Y-37649D01*
X55139Y-37606D01*
X55175Y-37556D01*
X55200Y-37499D01*
X55214Y-37439D01*
X55215Y-37369D01*
X55203Y-37308D01*
X55179Y-37251D01*
X55145Y-37199D01*
X55101Y-37156D01*
X55050Y-37121D01*
X54993Y-37097D01*
X54933Y-37085D01*
X54871Y-37084D01*
X54810Y-37096D01*
X54753Y-37119D01*
X54729Y-37135D01*
X53200Y-37135D01*
X52800Y-37135D01*
X52775Y-37137D01*
X52751Y-37139D01*
X52749Y-37139D01*
X52748Y-37140D01*
X52725Y-37147D01*
X52701Y-37153D01*
X52700Y-37154D01*
X52699Y-37154D01*
X52677Y-37166D01*
X52655Y-37177D01*
X52654Y-37178D01*
X52653Y-37179D01*
X52634Y-37194D01*
X52615Y-37210D01*
X52613Y-37211D01*
X52613Y-37211D01*
X52613Y-37212D01*
X52612Y-37212D01*
X52240Y-37585D01*
X52240Y-36387D01*
X52240Y-35786D01*
X52234Y-35759D01*
X52224Y-35733D01*
X52209Y-35711D01*
X52189Y-35691D01*
X52166Y-35676D01*
X52141Y-35665D01*
X52114Y-35660D01*
X52087Y-35659D01*
X51486Y-35659D01*
X51459Y-35665D01*
X51433Y-35675D01*
X51411Y-35690D01*
X51391Y-35710D01*
X51376Y-35733D01*
X51365Y-35758D01*
X51360Y-35785D01*
X51359Y-35812D01*
X51359Y-36413D01*
X51365Y-36440D01*
X51375Y-36466D01*
X51390Y-36488D01*
X51410Y-36508D01*
X51433Y-36523D01*
X51458Y-36534D01*
X51485Y-36539D01*
X51512Y-36540D01*
X52113Y-36540D01*
X52140Y-36534D01*
X52166Y-36524D01*
X52188Y-36509D01*
X52208Y-36489D01*
X52223Y-36466D01*
X52234Y-36441D01*
X52239Y-36414D01*
X52240Y-36387D01*
X52240Y-37585D01*
X51763Y-38062D01*
X51753Y-38038D01*
X51738Y-38016D01*
X51719Y-37996D01*
X51696Y-37981D01*
X51671Y-37970D01*
X51665Y-37969D01*
X51665Y-37770D01*
X51675Y-37756D01*
X51700Y-37699D01*
X51714Y-37639D01*
X51715Y-37569D01*
X51703Y-37508D01*
X51679Y-37451D01*
X51645Y-37399D01*
X51601Y-37356D01*
X51550Y-37321D01*
X51493Y-37297D01*
X51433Y-37285D01*
X51371Y-37284D01*
X51310Y-37296D01*
X51253Y-37319D01*
X51201Y-37353D01*
X51157Y-37396D01*
X51122Y-37447D01*
X51098Y-37504D01*
X51085Y-37564D01*
X51084Y-37626D01*
X51095Y-37687D01*
X51118Y-37744D01*
X51135Y-37770D01*
X51135Y-37964D01*
X51104Y-37964D01*
X51077Y-37970D01*
X51052Y-37980D01*
X51029Y-37995D01*
X51010Y-38015D01*
X50999Y-38030D01*
X50990Y-38016D01*
X50971Y-37996D01*
X50948Y-37981D01*
X50923Y-37970D01*
X50896Y-37965D01*
X50868Y-37964D01*
X50356Y-37964D01*
X50329Y-37970D01*
X50304Y-37980D01*
X50281Y-37995D01*
X50262Y-38015D01*
X50246Y-38038D01*
X50236Y-38063D01*
X50230Y-38090D01*
X50230Y-38117D01*
X50230Y-38135D01*
X50209Y-38135D01*
X50187Y-38112D01*
X50168Y-38097D01*
X50149Y-38081D01*
X50148Y-38080D01*
X50147Y-38079D01*
X50125Y-38068D01*
X50104Y-38056D01*
X50103Y-38056D01*
X50101Y-38055D01*
X50078Y-38048D01*
X50055Y-38040D01*
X50053Y-38040D01*
X50052Y-38040D01*
X50028Y-38037D01*
X50003Y-38035D01*
X50000Y-38035D01*
X50000Y-38035D01*
X50000Y-38035D01*
X50000Y-38035D01*
X49470Y-38035D01*
X49450Y-38021D01*
X49393Y-37997D01*
X49333Y-37985D01*
X49271Y-37984D01*
X49210Y-37996D01*
X49153Y-38019D01*
X49101Y-38053D01*
X49057Y-38096D01*
X49022Y-38147D01*
X48998Y-38204D01*
X48985Y-38264D01*
X48984Y-38326D01*
X48995Y-38387D01*
X49018Y-38444D01*
X49051Y-38496D01*
X49094Y-38541D01*
X49145Y-38576D01*
X49202Y-38601D01*
X49262Y-38614D01*
X49324Y-38615D01*
X49385Y-38604D01*
X49442Y-38582D01*
X49470Y-38565D01*
X49890Y-38565D01*
X49912Y-38587D01*
X49931Y-38602D01*
X49950Y-38618D01*
X49951Y-38619D01*
X49952Y-38620D01*
X49974Y-38631D01*
X49995Y-38643D01*
X49996Y-38643D01*
X49998Y-38644D01*
X50021Y-38651D01*
X50044Y-38659D01*
X50046Y-38659D01*
X50047Y-38659D01*
X50071Y-38662D01*
X50096Y-38664D01*
X50099Y-38664D01*
X50099Y-38664D01*
X50099Y-38664D01*
X50100Y-38665D01*
X50230Y-38665D01*
X50230Y-38708D01*
X50235Y-38735D01*
X50246Y-38761D01*
X50261Y-38783D01*
X50280Y-38803D01*
X50303Y-38818D01*
X50328Y-38829D01*
X50355Y-38834D01*
X50369Y-38835D01*
X49800Y-38835D01*
X49775Y-38837D01*
X49751Y-38839D01*
X49749Y-38839D01*
X49748Y-38840D01*
X49725Y-38847D01*
X49701Y-38853D01*
X49700Y-38854D01*
X49699Y-38854D01*
X49677Y-38866D01*
X49655Y-38877D01*
X49654Y-38878D01*
X49653Y-38879D01*
X49634Y-38894D01*
X49615Y-38910D01*
X49613Y-38911D01*
X49613Y-38911D01*
X49613Y-38912D01*
X49612Y-38912D01*
X49212Y-39312D01*
X49197Y-39331D01*
X49181Y-39350D01*
X49180Y-39351D01*
X49179Y-39352D01*
X49168Y-39374D01*
X49156Y-39395D01*
X49156Y-39396D01*
X49155Y-39398D01*
X49148Y-39421D01*
X49140Y-39444D01*
X49140Y-39446D01*
X49140Y-39447D01*
X49137Y-39471D01*
X49135Y-39496D01*
X49135Y-39499D01*
X49135Y-39499D01*
X49135Y-39499D01*
X49135Y-39500D01*
X49135Y-50990D01*
X48740Y-51384D01*
X48740Y-50768D01*
X48729Y-50645D01*
X48694Y-50527D01*
X48637Y-50417D01*
X48560Y-50321D01*
X48466Y-50242D01*
X48357Y-50183D01*
X48240Y-50145D01*
X48117Y-50132D01*
X48109Y-50132D01*
X47706Y-50132D01*
X47584Y-50144D01*
X47466Y-50179D01*
X47357Y-50237D01*
X47261Y-50315D01*
X47183Y-50410D01*
X47124Y-50519D01*
X47087Y-50636D01*
X47075Y-50759D01*
X47086Y-50882D01*
X47121Y-51000D01*
X47178Y-51110D01*
X47255Y-51206D01*
X47349Y-51285D01*
X47458Y-51344D01*
X47575Y-51382D01*
X47698Y-51395D01*
X47706Y-51396D01*
X48109Y-51396D01*
X48231Y-51383D01*
X48349Y-51348D01*
X48458Y-51290D01*
X48554Y-51212D01*
X48632Y-51117D01*
X48691Y-51008D01*
X48728Y-50891D01*
X48740Y-50768D01*
X48740Y-51384D01*
X48590Y-51535D01*
X46509Y-51535D01*
X46165Y-51190D01*
X46165Y-51001D01*
X46187Y-51035D01*
X46246Y-51097D01*
X46316Y-51145D01*
X46394Y-51180D01*
X46478Y-51198D01*
X46563Y-51200D01*
X46647Y-51185D01*
X46727Y-51154D01*
X46799Y-51108D01*
X46861Y-51049D01*
X46910Y-50980D01*
X46945Y-50902D01*
X46964Y-50818D01*
X46965Y-50721D01*
X46948Y-50637D01*
X46916Y-50558D01*
X46869Y-50487D01*
X46808Y-50426D01*
X46738Y-50379D01*
X46659Y-50345D01*
X46575Y-50328D01*
X46490Y-50328D01*
X46406Y-50344D01*
X46327Y-50376D01*
X46255Y-50422D01*
X46194Y-50482D01*
X46165Y-50526D01*
X46165Y-50409D01*
X46437Y-50137D01*
X46452Y-50118D01*
X46468Y-50099D01*
X46469Y-50098D01*
X46470Y-50097D01*
X46481Y-50075D01*
X46493Y-50054D01*
X46493Y-50053D01*
X46494Y-50051D01*
X46501Y-50028D01*
X46509Y-50005D01*
X46509Y-50003D01*
X46509Y-50002D01*
X46512Y-49978D01*
X46514Y-49953D01*
X46514Y-49950D01*
X46514Y-49950D01*
X46514Y-49950D01*
X46515Y-49950D01*
X46515Y-49350D01*
X46515Y-48244D01*
X47129Y-48244D01*
X47156Y-48238D01*
X47181Y-48228D01*
X47204Y-48213D01*
X47223Y-48193D01*
X47239Y-48170D01*
X47249Y-48145D01*
X47255Y-48118D01*
X47255Y-48091D01*
X47255Y-47670D01*
X48687Y-46238D01*
X48702Y-46219D01*
X48718Y-46200D01*
X48719Y-46199D01*
X48720Y-46198D01*
X48731Y-46176D01*
X48743Y-46155D01*
X48743Y-46154D01*
X48744Y-46152D01*
X48751Y-46129D01*
X48759Y-46106D01*
X48759Y-46104D01*
X48759Y-46103D01*
X48762Y-46079D01*
X48764Y-46054D01*
X48764Y-46051D01*
X48764Y-46051D01*
X48764Y-46051D01*
X48765Y-46051D01*
X48765Y-40200D01*
X48765Y-39500D01*
X48765Y-39100D01*
X48765Y-35910D01*
X48794Y-35941D01*
X48845Y-35976D01*
X48902Y-36001D01*
X48962Y-36014D01*
X49024Y-36015D01*
X49085Y-36004D01*
X49142Y-35982D01*
X49194Y-35949D01*
X49239Y-35906D01*
X49269Y-35865D01*
X50900Y-35865D01*
X50924Y-35862D01*
X50948Y-35860D01*
X50950Y-35860D01*
X50951Y-35859D01*
X50974Y-35852D01*
X50998Y-35846D01*
X50999Y-35845D01*
X51000Y-35845D01*
X51022Y-35833D01*
X51044Y-35822D01*
X51045Y-35821D01*
X51046Y-35820D01*
X51065Y-35805D01*
X51084Y-35789D01*
X51086Y-35788D01*
X51086Y-35788D01*
X51086Y-35788D01*
X51087Y-35787D01*
X51476Y-35398D01*
X51513Y-35436D01*
X51584Y-35485D01*
X51663Y-35520D01*
X51747Y-35539D01*
X51833Y-35540D01*
X51918Y-35525D01*
X51999Y-35494D01*
X52072Y-35448D01*
X52134Y-35388D01*
X52184Y-35318D01*
X52219Y-35239D01*
X52238Y-35155D01*
X52240Y-35056D01*
X52240Y-34056D01*
X52223Y-33972D01*
X52190Y-33892D01*
X52142Y-33820D01*
X52081Y-33759D01*
X52010Y-33711D01*
X51930Y-33677D01*
X51846Y-33660D01*
X51759Y-33659D01*
X51675Y-33675D01*
X51595Y-33708D01*
X51522Y-33755D01*
X51461Y-33815D01*
X51448Y-33835D01*
X51400Y-33835D01*
X51375Y-33837D01*
X51351Y-33839D01*
X51349Y-33839D01*
X51348Y-33840D01*
X51325Y-33847D01*
X51301Y-33853D01*
X51300Y-33854D01*
X51299Y-33854D01*
X51277Y-33866D01*
X51255Y-33877D01*
X51254Y-33878D01*
X51253Y-33879D01*
X51234Y-33894D01*
X51215Y-33910D01*
X51213Y-33911D01*
X51213Y-33911D01*
X51213Y-33912D01*
X51212Y-33912D01*
X50390Y-34735D01*
X49170Y-34735D01*
X49150Y-34721D01*
X49093Y-34697D01*
X49033Y-34685D01*
X48971Y-34684D01*
X48910Y-34696D01*
X48853Y-34719D01*
X48801Y-34753D01*
X48757Y-34796D01*
X48722Y-34847D01*
X48698Y-34904D01*
X48685Y-34964D01*
X48684Y-35026D01*
X48695Y-35087D01*
X48718Y-35144D01*
X48751Y-35196D01*
X48794Y-35241D01*
X48845Y-35276D01*
X48902Y-35301D01*
X48962Y-35314D01*
X49024Y-35315D01*
X49085Y-35304D01*
X49142Y-35282D01*
X49170Y-35265D01*
X50500Y-35265D01*
X50524Y-35262D01*
X50548Y-35260D01*
X50550Y-35260D01*
X50551Y-35259D01*
X50574Y-35252D01*
X50598Y-35246D01*
X50599Y-35245D01*
X50600Y-35245D01*
X50622Y-35233D01*
X50644Y-35222D01*
X50645Y-35221D01*
X50646Y-35220D01*
X50665Y-35205D01*
X50684Y-35189D01*
X50686Y-35188D01*
X50686Y-35188D01*
X50686Y-35188D01*
X50687Y-35187D01*
X51476Y-34398D01*
X51513Y-34436D01*
X51584Y-34485D01*
X51663Y-34520D01*
X51747Y-34539D01*
X51833Y-34540D01*
X51918Y-34525D01*
X51999Y-34494D01*
X52072Y-34448D01*
X52134Y-34388D01*
X52184Y-34318D01*
X52219Y-34239D01*
X52238Y-34155D01*
X52240Y-34056D01*
X52240Y-35056D01*
X52223Y-34972D01*
X52190Y-34892D01*
X52142Y-34820D01*
X52081Y-34759D01*
X52010Y-34711D01*
X51930Y-34677D01*
X51846Y-34660D01*
X51759Y-34659D01*
X51675Y-34675D01*
X51595Y-34708D01*
X51522Y-34755D01*
X51461Y-34815D01*
X51448Y-34835D01*
X51400Y-34835D01*
X51375Y-34837D01*
X51351Y-34839D01*
X51349Y-34839D01*
X51348Y-34840D01*
X51325Y-34847D01*
X51301Y-34853D01*
X51300Y-34854D01*
X51299Y-34854D01*
X51277Y-34866D01*
X51255Y-34877D01*
X51254Y-34878D01*
X51253Y-34879D01*
X51234Y-34894D01*
X51215Y-34910D01*
X51213Y-34911D01*
X51213Y-34911D01*
X51213Y-34912D01*
X51212Y-34912D01*
X50790Y-35335D01*
X49100Y-35335D01*
X49075Y-35337D01*
X49051Y-35339D01*
X49049Y-35339D01*
X49048Y-35340D01*
X49025Y-35347D01*
X49001Y-35353D01*
X49000Y-35354D01*
X48999Y-35354D01*
X48977Y-35366D01*
X48955Y-35377D01*
X48954Y-35378D01*
X48953Y-35379D01*
X48939Y-35390D01*
X48910Y-35396D01*
X48853Y-35419D01*
X48801Y-35453D01*
X48757Y-35496D01*
X48722Y-35547D01*
X48720Y-35552D01*
X48705Y-35534D01*
X48689Y-35515D01*
X48688Y-35513D01*
X48688Y-35513D01*
X48687Y-35513D01*
X48687Y-35512D01*
X48137Y-34962D01*
X48118Y-34947D01*
X48099Y-34931D01*
X48098Y-34930D01*
X48097Y-34929D01*
X48075Y-34918D01*
X48054Y-34906D01*
X48053Y-34906D01*
X48051Y-34905D01*
X48028Y-34898D01*
X48005Y-34890D01*
X48003Y-34890D01*
X48002Y-34890D01*
X47978Y-34887D01*
X47953Y-34885D01*
X47950Y-34885D01*
X47950Y-34885D01*
X47950Y-34885D01*
X47950Y-34885D01*
X46323Y-34885D01*
X46271Y-34890D01*
X46265Y-34891D01*
X45876Y-34891D01*
X45849Y-34897D01*
X45854Y-34882D01*
X45859Y-34865D01*
X45859Y-34864D01*
X45860Y-34863D01*
X45862Y-34846D01*
X45863Y-34828D01*
X45863Y-34826D01*
X45863Y-34826D01*
X45863Y-34826D01*
X45864Y-34826D01*
X45864Y-34635D01*
X45943Y-34635D01*
X45970Y-34629D01*
X45995Y-34619D01*
X46018Y-34604D01*
X46037Y-34584D01*
X46053Y-34561D01*
X46063Y-34536D01*
X46069Y-34509D01*
X46069Y-34482D01*
X46069Y-33891D01*
X46064Y-33864D01*
X46053Y-33838D01*
X46038Y-33816D01*
X46019Y-33796D01*
X45996Y-33781D01*
X45971Y-33770D01*
X45944Y-33765D01*
X45939Y-33765D01*
X45939Y-33674D01*
X45936Y-33649D01*
X45934Y-33625D01*
X45934Y-33623D01*
X45933Y-33622D01*
X45926Y-33599D01*
X45920Y-33575D01*
X45919Y-33574D01*
X45919Y-33573D01*
X45907Y-33551D01*
X45896Y-33529D01*
X45895Y-33528D01*
X45894Y-33527D01*
X45879Y-33508D01*
X45863Y-33489D01*
X45862Y-33487D01*
X45862Y-33487D01*
X45861Y-33487D01*
X45861Y-33486D01*
X45687Y-33312D01*
X45668Y-33297D01*
X45649Y-33281D01*
X45648Y-33280D01*
X45647Y-33279D01*
X45625Y-33268D01*
X45604Y-33256D01*
X45603Y-33256D01*
X45601Y-33255D01*
X45578Y-33248D01*
X45555Y-33240D01*
X45553Y-33240D01*
X45552Y-33240D01*
X45528Y-33237D01*
X45503Y-33235D01*
X45500Y-33235D01*
X45500Y-33235D01*
X45500Y-33235D01*
X45500Y-33235D01*
X44370Y-33235D01*
X44350Y-33221D01*
X44293Y-33197D01*
X44233Y-33185D01*
X44171Y-33184D01*
X44110Y-33196D01*
X44053Y-33219D01*
X44001Y-33253D01*
X43957Y-33296D01*
X43922Y-33347D01*
X43898Y-33404D01*
X43885Y-33464D01*
X43884Y-33526D01*
X43895Y-33587D01*
X43918Y-33644D01*
X43951Y-33696D01*
X43994Y-33741D01*
X44045Y-33776D01*
X44102Y-33801D01*
X44162Y-33814D01*
X44224Y-33815D01*
X44285Y-33804D01*
X44342Y-33782D01*
X44370Y-33765D01*
X44656Y-33765D01*
X44629Y-33770D01*
X44604Y-33780D01*
X44581Y-33795D01*
X44562Y-33815D01*
X44546Y-33838D01*
X44536Y-33863D01*
X44530Y-33890D01*
X44530Y-33917D01*
X44530Y-34508D01*
X44532Y-34519D01*
X44160Y-34891D01*
X43830Y-34891D01*
X43803Y-34897D01*
X43777Y-34907D01*
X43755Y-34922D01*
X43735Y-34942D01*
X43720Y-34965D01*
X43709Y-34990D01*
X43704Y-35017D01*
X43703Y-35044D01*
X43703Y-35281D01*
X43709Y-35308D01*
X43719Y-35334D01*
X43734Y-35356D01*
X43754Y-35376D01*
X43777Y-35391D01*
X43796Y-35400D01*
X43777Y-35407D01*
X43755Y-35422D01*
X43735Y-35442D01*
X43720Y-35465D01*
X43709Y-35490D01*
X43704Y-35517D01*
X43703Y-35544D01*
X43703Y-35781D01*
X43709Y-35808D01*
X43719Y-35834D01*
X43734Y-35856D01*
X43754Y-35876D01*
X43767Y-35885D01*
X42759Y-35885D01*
X42665Y-35790D01*
X42665Y-34109D01*
X42987Y-33787D01*
X42987Y-33787D01*
X42987Y-33787D01*
X43609Y-33165D01*
X46290Y-33165D01*
X47512Y-34387D01*
X47531Y-34402D01*
X47550Y-34418D01*
X47551Y-34419D01*
X47552Y-34420D01*
X47574Y-34431D01*
X47595Y-34443D01*
X47596Y-34443D01*
X47598Y-34444D01*
X47621Y-34451D01*
X47644Y-34459D01*
X47646Y-34459D01*
X47647Y-34459D01*
X47671Y-34462D01*
X47696Y-34464D01*
X47699Y-34464D01*
X47699Y-34464D01*
X47699Y-34464D01*
X47700Y-34465D01*
X50200Y-34465D01*
X50224Y-34462D01*
X50248Y-34460D01*
X50250Y-34460D01*
X50251Y-34459D01*
X50274Y-34452D01*
X50298Y-34446D01*
X50299Y-34445D01*
X50300Y-34445D01*
X50322Y-34433D01*
X50344Y-34422D01*
X50345Y-34421D01*
X50346Y-34420D01*
X50365Y-34405D01*
X50384Y-34389D01*
X50386Y-34388D01*
X50386Y-34388D01*
X50386Y-34388D01*
X50387Y-34387D01*
X51409Y-33365D01*
X52190Y-33365D01*
X53212Y-34387D01*
X53231Y-34402D01*
X53250Y-34418D01*
X53251Y-34419D01*
X53252Y-34420D01*
X53274Y-34431D01*
X53295Y-34443D01*
X53296Y-34443D01*
X53298Y-34444D01*
X53321Y-34451D01*
X53344Y-34459D01*
X53346Y-34459D01*
X53347Y-34459D01*
X53371Y-34462D01*
X53396Y-34464D01*
X53399Y-34464D01*
X53399Y-34464D01*
X53399Y-34464D01*
X53400Y-34465D01*
X64700Y-34465D01*
X64724Y-34462D01*
X64748Y-34460D01*
X64750Y-34460D01*
X64751Y-34459D01*
X64774Y-34452D01*
X64798Y-34446D01*
X64799Y-34445D01*
X64800Y-34445D01*
X64822Y-34433D01*
X64844Y-34422D01*
X64845Y-34421D01*
X64846Y-34420D01*
X64865Y-34405D01*
X64884Y-34389D01*
X64886Y-34388D01*
X64886Y-34388D01*
X64886Y-34388D01*
X64887Y-34387D01*
X65687Y-33587D01*
X65702Y-33568D01*
X65718Y-33549D01*
X65719Y-33548D01*
X65720Y-33547D01*
X65731Y-33525D01*
X65743Y-33504D01*
X65743Y-33503D01*
X65744Y-33501D01*
X65751Y-33478D01*
X65759Y-33455D01*
X65759Y-33453D01*
X65759Y-33452D01*
X65762Y-33428D01*
X65764Y-33403D01*
X65764Y-33400D01*
X65764Y-33400D01*
X65764Y-33400D01*
X65765Y-33400D01*
X65765Y-32109D01*
X66487Y-31387D01*
X66502Y-31368D01*
X66518Y-31349D01*
X66519Y-31348D01*
X66520Y-31347D01*
X66531Y-31325D01*
X66543Y-31304D01*
X66543Y-31303D01*
X66544Y-31301D01*
X66551Y-31278D01*
X66559Y-31255D01*
X66559Y-31253D01*
X66559Y-31252D01*
X66562Y-31228D01*
X66564Y-31203D01*
X66564Y-31200D01*
X66564Y-31200D01*
X66564Y-31200D01*
X66565Y-31200D01*
X66565Y-30769D01*
X66807Y-30769D01*
X66871Y-30930D01*
X66969Y-31082D01*
X67095Y-31213D01*
X67245Y-31317D01*
X67412Y-31390D01*
X67589Y-31429D01*
X67771Y-31433D01*
X67950Y-31401D01*
X68120Y-31335D01*
X68273Y-31238D01*
X68405Y-31112D01*
X68510Y-30964D01*
X68584Y-30798D01*
X68624Y-30620D01*
X68627Y-30413D01*
X68592Y-30234D01*
X68522Y-30066D01*
X68422Y-29914D01*
X68294Y-29785D01*
X68143Y-29684D01*
X67975Y-29613D01*
X67797Y-29577D01*
X67615Y-29575D01*
X67436Y-29609D01*
X67268Y-29678D01*
X67116Y-29777D01*
X66986Y-29904D01*
X66883Y-30055D01*
X66811Y-30222D01*
X66808Y-30239D01*
X66300Y-30239D01*
X65793Y-30239D01*
X65792Y-30234D01*
X65722Y-30066D01*
X65622Y-29914D01*
X65494Y-29785D01*
X65343Y-29684D01*
X65175Y-29613D01*
X64997Y-29577D01*
X64815Y-29575D01*
X64636Y-29609D01*
X64468Y-29678D01*
X64316Y-29777D01*
X64186Y-29904D01*
X64083Y-30055D01*
X64011Y-30222D01*
X63973Y-30400D01*
X63971Y-30581D01*
X64004Y-30760D01*
X64071Y-30930D01*
X64169Y-31082D01*
X64295Y-31213D01*
X64445Y-31317D01*
X64612Y-31390D01*
X64789Y-31429D01*
X64971Y-31433D01*
X65150Y-31401D01*
X65320Y-31335D01*
X65473Y-31238D01*
X65605Y-31112D01*
X65710Y-30964D01*
X65784Y-30798D01*
X65790Y-30769D01*
X66035Y-30769D01*
X66035Y-31090D01*
X65312Y-31812D01*
X65297Y-31831D01*
X65281Y-31850D01*
X65280Y-31851D01*
X65279Y-31852D01*
X65268Y-31874D01*
X65256Y-31895D01*
X65256Y-31896D01*
X65255Y-31898D01*
X65248Y-31921D01*
X65240Y-31944D01*
X65240Y-31946D01*
X65240Y-31947D01*
X65237Y-31971D01*
X65235Y-31996D01*
X65235Y-31999D01*
X65235Y-31999D01*
X65235Y-31999D01*
X65235Y-32000D01*
X65235Y-33290D01*
X64590Y-33935D01*
X53509Y-33935D01*
X52487Y-32912D01*
X52468Y-32897D01*
X52449Y-32881D01*
X52448Y-32880D01*
X52447Y-32879D01*
X52425Y-32868D01*
X52404Y-32856D01*
X52403Y-32856D01*
X52401Y-32855D01*
X52378Y-32848D01*
X52355Y-32840D01*
X52353Y-32840D01*
X52352Y-32840D01*
X52328Y-32837D01*
X52303Y-32835D01*
X52300Y-32835D01*
X52300Y-32835D01*
X52300Y-32835D01*
X52300Y-32835D01*
X51300Y-32835D01*
X51275Y-32837D01*
X51251Y-32839D01*
X51249Y-32839D01*
X51248Y-32840D01*
X51225Y-32847D01*
X51201Y-32853D01*
X51200Y-32854D01*
X51199Y-32854D01*
X51177Y-32866D01*
X51155Y-32877D01*
X51154Y-32878D01*
X51153Y-32879D01*
X51134Y-32894D01*
X51115Y-32910D01*
X51113Y-32911D01*
X51113Y-32911D01*
X51113Y-32912D01*
X51112Y-32912D01*
X50090Y-33935D01*
X47809Y-33935D01*
X46587Y-32712D01*
X46568Y-32697D01*
X46549Y-32681D01*
X46548Y-32680D01*
X46547Y-32679D01*
X46525Y-32668D01*
X46504Y-32656D01*
X46503Y-32656D01*
X46501Y-32655D01*
X46478Y-32648D01*
X46455Y-32640D01*
X46453Y-32640D01*
X46452Y-32640D01*
X46428Y-32637D01*
X46403Y-32635D01*
X46400Y-32635D01*
X46400Y-32635D01*
X46400Y-32635D01*
X46400Y-32635D01*
X45943Y-32635D01*
X45970Y-32629D01*
X45995Y-32619D01*
X46018Y-32604D01*
X46037Y-32584D01*
X46053Y-32561D01*
X46063Y-32536D01*
X46069Y-32509D01*
X46069Y-32482D01*
X46069Y-31891D01*
X46068Y-31886D01*
X46102Y-31901D01*
X46162Y-31914D01*
X46224Y-31915D01*
X46285Y-31904D01*
X46342Y-31882D01*
X46394Y-31849D01*
X46439Y-31806D01*
X46475Y-31756D01*
X46500Y-31699D01*
X46514Y-31639D01*
X46515Y-31569D01*
X46503Y-31508D01*
X46479Y-31451D01*
X46445Y-31399D01*
X46401Y-31356D01*
X46350Y-31321D01*
X46293Y-31297D01*
X46266Y-31292D01*
X46239Y-31265D01*
X54750Y-31265D01*
X55800Y-31265D01*
X55824Y-31262D01*
X55848Y-31260D01*
X55850Y-31260D01*
X55851Y-31259D01*
X55874Y-31252D01*
X55898Y-31246D01*
X55899Y-31245D01*
X55900Y-31245D01*
X55922Y-31233D01*
X55944Y-31222D01*
X55945Y-31221D01*
X55946Y-31220D01*
X55965Y-31205D01*
X55984Y-31189D01*
X55986Y-31188D01*
X55986Y-31188D01*
X55986Y-31188D01*
X55987Y-31187D01*
X56237Y-30937D01*
X56252Y-30918D01*
X56268Y-30899D01*
X56269Y-30898D01*
X56270Y-30897D01*
X56281Y-30875D01*
X56293Y-30854D01*
X56293Y-30853D01*
X56294Y-30851D01*
X56301Y-30828D01*
X56309Y-30805D01*
X56309Y-30803D01*
X56309Y-30802D01*
X56312Y-30778D01*
X56314Y-30753D01*
X56314Y-30750D01*
X56314Y-30750D01*
X56314Y-30750D01*
X56315Y-30750D01*
X56315Y-30465D01*
X57330Y-30465D01*
X57330Y-30508D01*
X57335Y-30535D01*
X57346Y-30561D01*
X57361Y-30583D01*
X57380Y-30603D01*
X57403Y-30618D01*
X57428Y-30629D01*
X57455Y-30634D01*
X57483Y-30635D01*
X57995Y-30635D01*
X58022Y-30629D01*
X58047Y-30619D01*
X58070Y-30604D01*
X58089Y-30584D01*
X58100Y-30569D01*
X58109Y-30583D01*
X58128Y-30603D01*
X58151Y-30618D01*
X58176Y-30629D01*
X58203Y-30634D01*
X58231Y-30635D01*
X58743Y-30635D01*
X58770Y-30629D01*
X58795Y-30619D01*
X58818Y-30604D01*
X58837Y-30584D01*
X58853Y-30561D01*
X58863Y-30536D01*
X58869Y-30509D01*
X58869Y-30482D01*
X58869Y-30465D01*
X62000Y-30465D01*
X62024Y-30462D01*
X62049Y-30460D01*
X62050Y-30460D01*
X62051Y-30459D01*
X62075Y-30452D01*
X62099Y-30445D01*
X62100Y-30445D01*
X62100Y-30445D01*
X62122Y-30433D01*
X62145Y-30421D01*
X62145Y-30421D01*
X62146Y-30420D01*
X62165Y-30404D01*
X62185Y-30389D01*
X62186Y-30388D01*
X62186Y-30388D01*
X62202Y-30368D01*
X62218Y-30349D01*
X62219Y-30348D01*
X62219Y-30348D01*
X62231Y-30326D01*
X62243Y-30304D01*
X62243Y-30303D01*
X62244Y-30302D01*
X62251Y-30278D01*
X62259Y-30255D01*
X62259Y-30254D01*
X62259Y-30253D01*
X62262Y-30228D01*
X62264Y-30203D01*
X62264Y-30201D01*
X62264Y-30201D01*
X62264Y-30201D01*
X62265Y-30200D01*
X62265Y-28840D01*
X63951Y-28840D01*
X64104Y-28825D01*
X64252Y-28780D01*
X64389Y-28707D01*
X64508Y-28608D01*
X64607Y-28489D01*
X64680Y-28352D01*
X64725Y-28204D01*
X64740Y-28051D01*
X64740Y-27951D01*
X64753Y-27811D01*
X64794Y-27678D01*
X64859Y-27555D01*
X64948Y-27448D01*
X65055Y-27359D01*
X65178Y-27294D01*
X65311Y-27253D01*
X65451Y-27240D01*
X71838Y-27240D01*
X72064Y-27396D01*
X72496Y-27585D01*
X72956Y-27686D01*
X73427Y-27696D01*
X73891Y-27614D01*
X74330Y-27444D01*
X74652Y-27240D01*
X75519Y-27240D01*
X75658Y-27226D01*
X75793Y-27185D01*
X75918Y-27118D01*
X76028Y-27028D01*
X76118Y-26918D01*
X76185Y-26793D01*
X76226Y-26658D01*
X76240Y-26519D01*
X76240Y-52342D01*
X76181Y-52373D01*
X76121Y-52405D01*
X75988Y-52446D01*
X75848Y-52460D01*
X75608Y-52460D01*
X75608Y-42793D01*
X75608Y-35793D01*
X75528Y-35387D01*
X75370Y-35005D01*
X75141Y-34660D01*
X74850Y-34367D01*
X74507Y-34136D01*
X74126Y-33976D01*
X73721Y-33892D01*
X73307Y-33890D01*
X72901Y-33967D01*
X72518Y-34122D01*
X72172Y-34348D01*
X71876Y-34638D01*
X71643Y-34979D01*
X71480Y-35359D01*
X71400Y-35735D01*
X63300Y-35735D01*
X63275Y-35737D01*
X63251Y-35739D01*
X63249Y-35739D01*
X63248Y-35740D01*
X63225Y-35747D01*
X63201Y-35753D01*
X63200Y-35754D01*
X63199Y-35754D01*
X63177Y-35766D01*
X63155Y-35777D01*
X63154Y-35778D01*
X63153Y-35779D01*
X63134Y-35794D01*
X63115Y-35810D01*
X63113Y-35811D01*
X63113Y-35811D01*
X63113Y-35812D01*
X63112Y-35812D01*
X62290Y-36635D01*
X60509Y-36635D01*
X60465Y-36590D01*
X60465Y-36152D01*
X60472Y-36148D01*
X60534Y-36088D01*
X60584Y-36018D01*
X60619Y-35939D01*
X60638Y-35855D01*
X60640Y-35756D01*
X60623Y-35672D01*
X60590Y-35592D01*
X60542Y-35520D01*
X60481Y-35459D01*
X60410Y-35411D01*
X60330Y-35377D01*
X60246Y-35360D01*
X60159Y-35359D01*
X60075Y-35375D01*
X59995Y-35408D01*
X59922Y-35455D01*
X59861Y-35515D01*
X59812Y-35587D01*
X59778Y-35666D01*
X59760Y-35750D01*
X59759Y-35836D01*
X59774Y-35921D01*
X59806Y-36002D01*
X59853Y-36074D01*
X59913Y-36136D01*
X59935Y-36151D01*
X59935Y-36700D01*
X59937Y-36724D01*
X59939Y-36748D01*
X59939Y-36750D01*
X59940Y-36751D01*
X59947Y-36774D01*
X59953Y-36798D01*
X59954Y-36799D01*
X59954Y-36800D01*
X59966Y-36822D01*
X59977Y-36844D01*
X59978Y-36845D01*
X59979Y-36846D01*
X59994Y-36865D01*
X60010Y-36884D01*
X60011Y-36886D01*
X60011Y-36886D01*
X60011Y-36886D01*
X60012Y-36887D01*
X60212Y-37087D01*
X60231Y-37102D01*
X60250Y-37118D01*
X60251Y-37119D01*
X60252Y-37120D01*
X60274Y-37131D01*
X60295Y-37143D01*
X60296Y-37143D01*
X60298Y-37144D01*
X60321Y-37151D01*
X60344Y-37159D01*
X60346Y-37159D01*
X60347Y-37159D01*
X60371Y-37162D01*
X60396Y-37164D01*
X60399Y-37164D01*
X60399Y-37164D01*
X60399Y-37164D01*
X60400Y-37165D01*
X62400Y-37165D01*
X62424Y-37162D01*
X62448Y-37160D01*
X62450Y-37160D01*
X62451Y-37159D01*
X62474Y-37152D01*
X62498Y-37146D01*
X62499Y-37145D01*
X62500Y-37145D01*
X62522Y-37133D01*
X62544Y-37122D01*
X62545Y-37121D01*
X62546Y-37120D01*
X62565Y-37105D01*
X62584Y-37089D01*
X62586Y-37088D01*
X62586Y-37088D01*
X62586Y-37088D01*
X62587Y-37087D01*
X63409Y-36265D01*
X71404Y-36265D01*
X71463Y-36583D01*
X71615Y-36968D01*
X71839Y-37316D01*
X72126Y-37613D01*
X72466Y-37849D01*
X72845Y-38015D01*
X73249Y-38103D01*
X73662Y-38112D01*
X74069Y-38040D01*
X74455Y-37891D01*
X74804Y-37669D01*
X75103Y-37384D01*
X75342Y-37046D01*
X75510Y-36668D01*
X75601Y-36265D01*
X75608Y-35793D01*
X75608Y-42793D01*
X75528Y-42387D01*
X75370Y-42005D01*
X75141Y-41660D01*
X74850Y-41367D01*
X74507Y-41136D01*
X74126Y-40976D01*
X73721Y-40892D01*
X73307Y-40890D01*
X72901Y-40967D01*
X72518Y-41122D01*
X72172Y-41348D01*
X71876Y-41638D01*
X71643Y-41979D01*
X71480Y-42359D01*
X71394Y-42763D01*
X71388Y-43177D01*
X71463Y-43583D01*
X71615Y-43968D01*
X71839Y-44316D01*
X72126Y-44613D01*
X72466Y-44849D01*
X72845Y-45015D01*
X73249Y-45103D01*
X73662Y-45112D01*
X74069Y-45040D01*
X74455Y-44891D01*
X74804Y-44669D01*
X75103Y-44384D01*
X75342Y-44046D01*
X75510Y-43668D01*
X75601Y-43265D01*
X75608Y-42793D01*
X75608Y-52460D01*
X68627Y-52460D01*
X68627Y-43405D01*
X68592Y-43226D01*
X68522Y-43058D01*
X68422Y-42906D01*
X68294Y-42777D01*
X68143Y-42676D01*
X67975Y-42605D01*
X67797Y-42569D01*
X67615Y-42567D01*
X67436Y-42601D01*
X67268Y-42670D01*
X67116Y-42769D01*
X66986Y-42896D01*
X66883Y-43047D01*
X66811Y-43214D01*
X66773Y-43392D01*
X66771Y-43573D01*
X66804Y-43752D01*
X66871Y-43922D01*
X66969Y-44074D01*
X67095Y-44205D01*
X67245Y-44309D01*
X67412Y-44382D01*
X67589Y-44421D01*
X67771Y-44425D01*
X67950Y-44393D01*
X68120Y-44327D01*
X68273Y-44230D01*
X68405Y-44104D01*
X68510Y-43956D01*
X68584Y-43790D01*
X68624Y-43612D01*
X68627Y-43405D01*
X68627Y-52460D01*
X65827Y-52460D01*
X65827Y-43405D01*
X65792Y-43226D01*
X65722Y-43058D01*
X65622Y-42906D01*
X65494Y-42777D01*
X65343Y-42676D01*
X65175Y-42605D01*
X64997Y-42569D01*
X64815Y-42567D01*
X64636Y-42601D01*
X64468Y-42670D01*
X64316Y-42769D01*
X64186Y-42896D01*
X64083Y-43047D01*
X64011Y-43214D01*
X63973Y-43392D01*
X63971Y-43573D01*
X64004Y-43752D01*
X64071Y-43922D01*
X64169Y-44074D01*
X64295Y-44205D01*
X64445Y-44309D01*
X64612Y-44382D01*
X64789Y-44421D01*
X64971Y-44425D01*
X65150Y-44393D01*
X65320Y-44327D01*
X65473Y-44230D01*
X65605Y-44104D01*
X65710Y-43956D01*
X65784Y-43790D01*
X65824Y-43612D01*
X65827Y-43405D01*
X65827Y-52460D01*
X65508Y-52460D01*
X65508Y-47693D01*
X65428Y-47287D01*
X65270Y-46905D01*
X65041Y-46560D01*
X64750Y-46267D01*
X64407Y-46036D01*
X64026Y-45876D01*
X63621Y-45792D01*
X63207Y-45790D01*
X63048Y-45820D01*
X63048Y-44109D01*
X63048Y-42309D01*
X63048Y-41915D01*
X63043Y-41888D01*
X63032Y-41863D01*
X63017Y-41840D01*
X62998Y-41821D01*
X62975Y-41805D01*
X62950Y-41795D01*
X62923Y-41789D01*
X62895Y-41789D01*
X62343Y-41789D01*
X62316Y-41794D01*
X62291Y-41805D01*
X62268Y-41820D01*
X62249Y-41839D01*
X62233Y-41862D01*
X62223Y-41887D01*
X62217Y-41914D01*
X62217Y-41942D01*
X62217Y-42336D01*
X62222Y-42363D01*
X62233Y-42388D01*
X62248Y-42411D01*
X62267Y-42430D01*
X62290Y-42446D01*
X62315Y-42456D01*
X62342Y-42462D01*
X62370Y-42462D01*
X62922Y-42462D01*
X62949Y-42457D01*
X62974Y-42446D01*
X62997Y-42431D01*
X63016Y-42412D01*
X63032Y-42389D01*
X63042Y-42364D01*
X63048Y-42337D01*
X63048Y-42309D01*
X63048Y-44109D01*
X63048Y-43715D01*
X63043Y-43688D01*
X63032Y-43663D01*
X63017Y-43640D01*
X62998Y-43621D01*
X62975Y-43605D01*
X62950Y-43595D01*
X62923Y-43589D01*
X62895Y-43589D01*
X62343Y-43589D01*
X62316Y-43594D01*
X62291Y-43605D01*
X62268Y-43620D01*
X62249Y-43639D01*
X62233Y-43662D01*
X62223Y-43687D01*
X62217Y-43714D01*
X62217Y-43742D01*
X62217Y-44136D01*
X62222Y-44163D01*
X62233Y-44188D01*
X62248Y-44211D01*
X62267Y-44230D01*
X62290Y-44246D01*
X62315Y-44256D01*
X62342Y-44262D01*
X62370Y-44262D01*
X62922Y-44262D01*
X62949Y-44257D01*
X62974Y-44246D01*
X62997Y-44231D01*
X63016Y-44212D01*
X63032Y-44189D01*
X63042Y-44164D01*
X63048Y-44137D01*
X63048Y-44109D01*
X63048Y-45820D01*
X62801Y-45867D01*
X62418Y-46022D01*
X62103Y-46228D01*
X62032Y-46157D01*
X62032Y-44636D01*
X62056Y-44636D01*
X62083Y-44631D01*
X62108Y-44620D01*
X62131Y-44605D01*
X62150Y-44586D01*
X62166Y-44563D01*
X62176Y-44538D01*
X62182Y-44511D01*
X62182Y-44483D01*
X62182Y-42683D01*
X62182Y-42289D01*
X62177Y-42262D01*
X62166Y-42237D01*
X62151Y-42214D01*
X62132Y-42195D01*
X62109Y-42179D01*
X62084Y-42169D01*
X62057Y-42163D01*
X62029Y-42163D01*
X61477Y-42163D01*
X61450Y-42168D01*
X61425Y-42179D01*
X61402Y-42194D01*
X61383Y-42213D01*
X61368Y-42235D01*
X61165Y-42235D01*
X61165Y-41065D01*
X61247Y-41065D01*
X61253Y-41074D01*
X61313Y-41136D01*
X61384Y-41185D01*
X61463Y-41220D01*
X61547Y-41239D01*
X61633Y-41240D01*
X61718Y-41225D01*
X61799Y-41194D01*
X61872Y-41148D01*
X61934Y-41088D01*
X61984Y-41018D01*
X62019Y-40939D01*
X62038Y-40855D01*
X62040Y-40756D01*
X62023Y-40672D01*
X61990Y-40592D01*
X61942Y-40520D01*
X61881Y-40459D01*
X61810Y-40411D01*
X61730Y-40377D01*
X61646Y-40360D01*
X61559Y-40359D01*
X61475Y-40375D01*
X61395Y-40408D01*
X61322Y-40455D01*
X61261Y-40515D01*
X61248Y-40535D01*
X61165Y-40535D01*
X61165Y-38900D01*
X61162Y-38875D01*
X61160Y-38851D01*
X61160Y-38849D01*
X61159Y-38848D01*
X61152Y-38825D01*
X61146Y-38801D01*
X61145Y-38800D01*
X61145Y-38799D01*
X61133Y-38777D01*
X61122Y-38755D01*
X61121Y-38754D01*
X61120Y-38753D01*
X61105Y-38734D01*
X61089Y-38715D01*
X61088Y-38713D01*
X61088Y-38713D01*
X61087Y-38713D01*
X61087Y-38712D01*
X59307Y-36933D01*
X59303Y-36908D01*
X59279Y-36851D01*
X59245Y-36799D01*
X59201Y-36756D01*
X59150Y-36721D01*
X59093Y-36697D01*
X59033Y-36685D01*
X58971Y-36684D01*
X58910Y-36696D01*
X58853Y-36719D01*
X58801Y-36753D01*
X58757Y-36796D01*
X58722Y-36847D01*
X58698Y-36904D01*
X58685Y-36964D01*
X58684Y-37026D01*
X58695Y-37087D01*
X58718Y-37144D01*
X58751Y-37196D01*
X58794Y-37241D01*
X58845Y-37276D01*
X58902Y-37301D01*
X58933Y-37307D01*
X60635Y-39009D01*
X60635Y-40535D01*
X60552Y-40535D01*
X60542Y-40520D01*
X60481Y-40459D01*
X60410Y-40411D01*
X60330Y-40377D01*
X60246Y-40360D01*
X60159Y-40359D01*
X60075Y-40375D01*
X59995Y-40408D01*
X59922Y-40455D01*
X59861Y-40515D01*
X59812Y-40587D01*
X59778Y-40666D01*
X59760Y-40750D01*
X59759Y-40836D01*
X59774Y-40921D01*
X59806Y-41002D01*
X59853Y-41074D01*
X59913Y-41136D01*
X59984Y-41185D01*
X60063Y-41220D01*
X60147Y-41239D01*
X60233Y-41240D01*
X60318Y-41225D01*
X60399Y-41194D01*
X60472Y-41148D01*
X60534Y-41088D01*
X60551Y-41065D01*
X60635Y-41065D01*
X60635Y-42400D01*
X60637Y-42424D01*
X60639Y-42448D01*
X60639Y-42450D01*
X60640Y-42451D01*
X60647Y-42474D01*
X60653Y-42498D01*
X60654Y-42499D01*
X60654Y-42500D01*
X60666Y-42522D01*
X60677Y-42544D01*
X60678Y-42545D01*
X60679Y-42546D01*
X60694Y-42565D01*
X60710Y-42584D01*
X60711Y-42586D01*
X60711Y-42586D01*
X60711Y-42586D01*
X60712Y-42587D01*
X60812Y-42687D01*
X60831Y-42702D01*
X60850Y-42718D01*
X60851Y-42719D01*
X60852Y-42720D01*
X60874Y-42731D01*
X60895Y-42743D01*
X60896Y-42743D01*
X60898Y-42744D01*
X60921Y-42751D01*
X60944Y-42759D01*
X60946Y-42759D01*
X60947Y-42759D01*
X60971Y-42762D01*
X60996Y-42764D01*
X60999Y-42764D01*
X60999Y-42764D01*
X60999Y-42764D01*
X61000Y-42765D01*
X61368Y-42765D01*
X61382Y-42785D01*
X61401Y-42804D01*
X61424Y-42820D01*
X61449Y-42830D01*
X61476Y-42836D01*
X61504Y-42836D01*
X62056Y-42836D01*
X62083Y-42831D01*
X62108Y-42820D01*
X62131Y-42805D01*
X62150Y-42786D01*
X62166Y-42763D01*
X62176Y-42738D01*
X62182Y-42711D01*
X62182Y-42683D01*
X62182Y-44483D01*
X62182Y-44089D01*
X62177Y-44062D01*
X62166Y-44037D01*
X62151Y-44014D01*
X62132Y-43995D01*
X62109Y-43979D01*
X62084Y-43969D01*
X62057Y-43963D01*
X62029Y-43963D01*
X61477Y-43963D01*
X61450Y-43968D01*
X61425Y-43979D01*
X61402Y-43994D01*
X61383Y-44013D01*
X61367Y-44036D01*
X61357Y-44061D01*
X61351Y-44088D01*
X61351Y-44116D01*
X61351Y-44510D01*
X61356Y-44537D01*
X61367Y-44562D01*
X61382Y-44585D01*
X61401Y-44604D01*
X61424Y-44620D01*
X61449Y-44630D01*
X61476Y-44636D01*
X61502Y-44636D01*
X61502Y-46267D01*
X61504Y-46291D01*
X61506Y-46315D01*
X61506Y-46317D01*
X61507Y-46318D01*
X61514Y-46341D01*
X61520Y-46365D01*
X61521Y-46366D01*
X61521Y-46367D01*
X61533Y-46389D01*
X61544Y-46411D01*
X61545Y-46412D01*
X61546Y-46413D01*
X61561Y-46432D01*
X61577Y-46451D01*
X61578Y-46453D01*
X61578Y-46453D01*
X61578Y-46453D01*
X61579Y-46454D01*
X61730Y-46605D01*
X61543Y-46879D01*
X61380Y-47259D01*
X61294Y-47663D01*
X61288Y-48077D01*
X61296Y-48120D01*
X60240Y-48859D01*
X60088Y-48989D01*
X59964Y-49147D01*
X59873Y-49325D01*
X59819Y-49518D01*
X59803Y-49717D01*
X59826Y-49916D01*
X59887Y-50107D01*
X59984Y-50282D01*
X60113Y-50435D01*
X60270Y-50560D01*
X60448Y-50652D01*
X60640Y-50708D01*
X60840Y-50725D01*
X61039Y-50704D01*
X61230Y-50644D01*
X61405Y-50548D01*
X61417Y-50540D01*
X62477Y-49798D01*
X62745Y-49915D01*
X63149Y-50003D01*
X63562Y-50012D01*
X63969Y-49940D01*
X64355Y-49791D01*
X64704Y-49569D01*
X65003Y-49284D01*
X65242Y-48946D01*
X65410Y-48568D01*
X65501Y-48165D01*
X65508Y-47693D01*
X65508Y-52460D01*
X58502Y-52460D01*
X58502Y-44954D01*
X58406Y-44473D01*
X58219Y-44019D01*
X57948Y-43611D01*
X57602Y-43262D01*
X57195Y-42988D01*
X56743Y-42798D01*
X56262Y-42699D01*
X55772Y-42696D01*
X55290Y-42788D01*
X54835Y-42971D01*
X54424Y-43240D01*
X54074Y-43583D01*
X53796Y-43988D01*
X53603Y-44439D01*
X53501Y-44919D01*
X53494Y-45410D01*
X53583Y-45892D01*
X53763Y-46349D01*
X54029Y-46761D01*
X54370Y-47114D01*
X54773Y-47394D01*
X55223Y-47591D01*
X55702Y-47696D01*
X56192Y-47706D01*
X56676Y-47621D01*
X57133Y-47444D01*
X57547Y-47181D01*
X57903Y-46842D01*
X58186Y-46441D01*
X58385Y-45993D01*
X58494Y-45515D01*
X58502Y-44954D01*
X58502Y-52460D01*
X52339Y-52460D01*
X52339Y-40889D01*
X52296Y-40673D01*
X52212Y-40469D01*
X52090Y-40285D01*
X51935Y-40129D01*
X51752Y-40006D01*
X51549Y-39920D01*
X51333Y-39876D01*
X51112Y-39874D01*
X50895Y-39916D01*
X50691Y-39998D01*
X50506Y-40119D01*
X50349Y-40273D01*
X50224Y-40455D01*
X50137Y-40658D01*
X50092Y-40874D01*
X50089Y-41094D01*
X50128Y-41311D01*
X50210Y-41516D01*
X50329Y-41701D01*
X50482Y-41860D01*
X50663Y-41986D01*
X50865Y-42074D01*
X51081Y-42121D01*
X51301Y-42126D01*
X51518Y-42088D01*
X51724Y-42008D01*
X51910Y-41890D01*
X52070Y-41738D01*
X52197Y-41558D01*
X52287Y-41356D01*
X52336Y-41141D01*
X52339Y-40889D01*
X52339Y-52460D01*
X41709Y-52460D01*
X41709Y-40889D01*
X41666Y-40673D01*
X41582Y-40469D01*
X41460Y-40285D01*
X41305Y-40129D01*
X41122Y-40006D01*
X40919Y-39920D01*
X40703Y-39876D01*
X40640Y-39875D01*
X40640Y-38156D01*
X40623Y-38072D01*
X40590Y-37992D01*
X40542Y-37920D01*
X40481Y-37859D01*
X40410Y-37811D01*
X40330Y-37777D01*
X40246Y-37760D01*
X40159Y-37759D01*
X40075Y-37775D01*
X39995Y-37808D01*
X39922Y-37855D01*
X39861Y-37915D01*
X39812Y-37987D01*
X39778Y-38066D01*
X39760Y-38150D01*
X39759Y-38236D01*
X39774Y-38321D01*
X39806Y-38402D01*
X39853Y-38474D01*
X39913Y-38536D01*
X39984Y-38585D01*
X40063Y-38620D01*
X40147Y-38639D01*
X40233Y-38640D01*
X40318Y-38625D01*
X40399Y-38594D01*
X40472Y-38548D01*
X40534Y-38488D01*
X40584Y-38418D01*
X40619Y-38339D01*
X40638Y-38255D01*
X40640Y-38156D01*
X40640Y-39875D01*
X40482Y-39874D01*
X40265Y-39916D01*
X40061Y-39998D01*
X39876Y-40119D01*
X39719Y-40273D01*
X39640Y-40389D01*
X39640Y-37156D01*
X39623Y-37072D01*
X39590Y-36992D01*
X39542Y-36920D01*
X39540Y-36917D01*
X39540Y-33156D01*
X39540Y-32156D01*
X39540Y-31156D01*
X39523Y-31072D01*
X39490Y-30992D01*
X39442Y-30920D01*
X39381Y-30859D01*
X39310Y-30811D01*
X39230Y-30777D01*
X39146Y-30760D01*
X39059Y-30759D01*
X38975Y-30775D01*
X38895Y-30808D01*
X38822Y-30855D01*
X38761Y-30915D01*
X38712Y-30987D01*
X38678Y-31066D01*
X38660Y-31150D01*
X38659Y-31236D01*
X38674Y-31321D01*
X38706Y-31402D01*
X38753Y-31474D01*
X38813Y-31536D01*
X38884Y-31585D01*
X38963Y-31620D01*
X39047Y-31639D01*
X39133Y-31640D01*
X39218Y-31625D01*
X39299Y-31594D01*
X39372Y-31548D01*
X39434Y-31488D01*
X39484Y-31418D01*
X39519Y-31339D01*
X39538Y-31255D01*
X39540Y-31156D01*
X39540Y-32156D01*
X39523Y-32072D01*
X39490Y-31992D01*
X39442Y-31920D01*
X39381Y-31859D01*
X39310Y-31811D01*
X39230Y-31777D01*
X39146Y-31760D01*
X39059Y-31759D01*
X38975Y-31775D01*
X38895Y-31808D01*
X38822Y-31855D01*
X38761Y-31915D01*
X38712Y-31987D01*
X38678Y-32066D01*
X38660Y-32150D01*
X38659Y-32236D01*
X38674Y-32321D01*
X38706Y-32402D01*
X38753Y-32474D01*
X38813Y-32536D01*
X38884Y-32585D01*
X38963Y-32620D01*
X39047Y-32639D01*
X39133Y-32640D01*
X39218Y-32625D01*
X39299Y-32594D01*
X39372Y-32548D01*
X39434Y-32488D01*
X39484Y-32418D01*
X39519Y-32339D01*
X39538Y-32255D01*
X39540Y-32156D01*
X39540Y-33156D01*
X39523Y-33072D01*
X39490Y-32992D01*
X39442Y-32920D01*
X39381Y-32859D01*
X39310Y-32811D01*
X39230Y-32777D01*
X39146Y-32760D01*
X39059Y-32759D01*
X38975Y-32775D01*
X38895Y-32808D01*
X38822Y-32855D01*
X38761Y-32915D01*
X38712Y-32987D01*
X38678Y-33066D01*
X38660Y-33150D01*
X38659Y-33236D01*
X38674Y-33321D01*
X38706Y-33402D01*
X38753Y-33474D01*
X38813Y-33536D01*
X38884Y-33585D01*
X38963Y-33620D01*
X39047Y-33639D01*
X39133Y-33640D01*
X39218Y-33625D01*
X39299Y-33594D01*
X39372Y-33548D01*
X39434Y-33488D01*
X39484Y-33418D01*
X39519Y-33339D01*
X39538Y-33255D01*
X39540Y-33156D01*
X39540Y-36917D01*
X39481Y-36859D01*
X39410Y-36811D01*
X39330Y-36777D01*
X39246Y-36760D01*
X39159Y-36759D01*
X39075Y-36775D01*
X38995Y-36808D01*
X38922Y-36855D01*
X38861Y-36915D01*
X38812Y-36987D01*
X38778Y-37066D01*
X38760Y-37150D01*
X38759Y-37236D01*
X38774Y-37321D01*
X38806Y-37402D01*
X38853Y-37474D01*
X38913Y-37536D01*
X38984Y-37585D01*
X39063Y-37620D01*
X39147Y-37639D01*
X39233Y-37640D01*
X39318Y-37625D01*
X39399Y-37594D01*
X39472Y-37548D01*
X39534Y-37488D01*
X39584Y-37418D01*
X39619Y-37339D01*
X39638Y-37255D01*
X39640Y-37156D01*
X39640Y-40389D01*
X39594Y-40455D01*
X39507Y-40658D01*
X39462Y-40874D01*
X39459Y-41094D01*
X39498Y-41311D01*
X39580Y-41516D01*
X39699Y-41701D01*
X39852Y-41860D01*
X40033Y-41986D01*
X40235Y-42074D01*
X40451Y-42121D01*
X40671Y-42126D01*
X40888Y-42088D01*
X41094Y-42008D01*
X41280Y-41890D01*
X41440Y-41738D01*
X41567Y-41558D01*
X41657Y-41356D01*
X41706Y-41141D01*
X41709Y-40889D01*
X41709Y-52460D01*
X40819Y-52460D01*
X40819Y-47450D01*
X40819Y-46450D01*
X40819Y-45450D01*
X40801Y-45360D01*
X40766Y-45276D01*
X40716Y-45200D01*
X40651Y-45135D01*
X40576Y-45084D01*
X40492Y-45049D01*
X40402Y-45031D01*
X40311Y-45030D01*
X40222Y-45047D01*
X40137Y-45081D01*
X40061Y-45131D01*
X39996Y-45195D01*
X39944Y-45270D01*
X39908Y-45354D01*
X39889Y-45443D01*
X39888Y-45535D01*
X39904Y-45624D01*
X39938Y-45709D01*
X39987Y-45786D01*
X40051Y-45851D01*
X40126Y-45903D01*
X40209Y-45940D01*
X40298Y-45959D01*
X40389Y-45961D01*
X40479Y-45946D01*
X40564Y-45913D01*
X40641Y-45864D01*
X40707Y-45801D01*
X40760Y-45726D01*
X40797Y-45643D01*
X40817Y-45554D01*
X40819Y-45450D01*
X40819Y-46450D01*
X40801Y-46360D01*
X40766Y-46276D01*
X40716Y-46200D01*
X40651Y-46135D01*
X40576Y-46084D01*
X40492Y-46049D01*
X40402Y-46031D01*
X40311Y-46030D01*
X40222Y-46047D01*
X40137Y-46081D01*
X40061Y-46131D01*
X39996Y-46195D01*
X39944Y-46270D01*
X39908Y-46354D01*
X39889Y-46443D01*
X39888Y-46535D01*
X39904Y-46624D01*
X39938Y-46709D01*
X39987Y-46786D01*
X40051Y-46851D01*
X40126Y-46903D01*
X40209Y-46940D01*
X40298Y-46959D01*
X40389Y-46961D01*
X40479Y-46946D01*
X40564Y-46913D01*
X40641Y-46864D01*
X40707Y-46801D01*
X40760Y-46726D01*
X40797Y-46643D01*
X40817Y-46554D01*
X40819Y-46450D01*
X40819Y-47450D01*
X40801Y-47360D01*
X40766Y-47276D01*
X40716Y-47200D01*
X40651Y-47135D01*
X40576Y-47084D01*
X40492Y-47049D01*
X40402Y-47031D01*
X40311Y-47030D01*
X40222Y-47047D01*
X40137Y-47081D01*
X40061Y-47131D01*
X39996Y-47195D01*
X39944Y-47270D01*
X39908Y-47354D01*
X39889Y-47443D01*
X39888Y-47535D01*
X39904Y-47624D01*
X39938Y-47709D01*
X39987Y-47786D01*
X40051Y-47851D01*
X40126Y-47903D01*
X40209Y-47940D01*
X40298Y-47959D01*
X40389Y-47961D01*
X40479Y-47946D01*
X40564Y-47913D01*
X40641Y-47864D01*
X40707Y-47801D01*
X40760Y-47726D01*
X40797Y-47643D01*
X40817Y-47554D01*
X40819Y-47450D01*
X40819Y-52460D01*
X38351Y-52460D01*
X38211Y-52446D01*
X38078Y-52405D01*
X37955Y-52340D01*
X37848Y-52251D01*
X37759Y-52144D01*
X37694Y-52021D01*
X37653Y-51888D01*
X37640Y-51748D01*
X37640Y-14351D01*
X37653Y-14211D01*
X37694Y-14078D01*
X37759Y-13955D01*
X37848Y-13848D01*
X37955Y-13759D01*
X38078Y-13694D01*
X38211Y-13653D01*
X38351Y-13640D01*
X75848Y-13640D01*
X75988Y-13653D01*
X76121Y-13694D01*
X76244Y-13759D01*
X76351Y-13848D01*
X76440Y-13955D01*
X76505Y-14078D01*
X76546Y-14211D01*
X76560Y-14351D01*
X76560Y-51748D01*
M02*
