G04 (created by PCBNEW-RS274X (2012-jan-04)-stable) date Thu 07 Jun 2012 12:25:39 PM CEST*
G01*
G70*
G90*
%MOIN*%
G04 Gerber Fmt 3.4, Leading zero omitted, Abs format*
%FSLAX34Y34*%
G04 APERTURE LIST*
%ADD10C,0.006000*%
%ADD11C,0.008000*%
%ADD12C,0.012000*%
%ADD13C,0.005000*%
%ADD14C,0.002600*%
%ADD15C,0.002000*%
%ADD16C,0.010000*%
%ADD17C,0.196900*%
%ADD18O,0.137800X0.098400*%
%ADD19C,0.059100*%
%ADD20C,0.315000*%
%ADD21C,0.472400*%
%ADD22C,0.098400*%
%ADD23C,0.070000*%
%ADD24R,0.070000X0.070000*%
%ADD25C,0.160000*%
%ADD26R,0.027600X0.039400*%
%ADD27R,0.051100X0.059000*%
%ADD28R,0.059000X0.051100*%
%ADD29C,0.393700*%
%ADD30C,0.044000*%
%ADD31C,0.157500*%
G04 APERTURE END LIST*
G54D10*
G54D11*
X57733Y-40062D02*
X57485Y-40062D01*
X57619Y-40214D01*
X57561Y-40214D01*
X57523Y-40233D01*
X57504Y-40252D01*
X57485Y-40290D01*
X57485Y-40386D01*
X57504Y-40424D01*
X57523Y-40443D01*
X57561Y-40462D01*
X57676Y-40462D01*
X57714Y-40443D01*
X57733Y-40424D01*
X56114Y-40100D02*
X56095Y-40081D01*
X56057Y-40062D01*
X55961Y-40062D01*
X55923Y-40081D01*
X55904Y-40100D01*
X55885Y-40138D01*
X55885Y-40176D01*
X55904Y-40233D01*
X56133Y-40462D01*
X55885Y-40462D01*
X54285Y-40462D02*
X54514Y-40462D01*
X54400Y-40462D02*
X54400Y-40062D01*
X54438Y-40119D01*
X54476Y-40157D01*
X54514Y-40176D01*
X76772Y-52756D02*
X76772Y-13386D01*
X69876Y-21362D02*
X70010Y-21171D01*
X70105Y-21362D02*
X70105Y-20962D01*
X69952Y-20962D01*
X69914Y-20981D01*
X69895Y-21000D01*
X69876Y-21038D01*
X69876Y-21095D01*
X69895Y-21133D01*
X69914Y-21152D01*
X69952Y-21171D01*
X70105Y-21171D01*
X69705Y-21362D02*
X69705Y-20962D01*
X69552Y-20962D01*
X69514Y-20981D01*
X69495Y-21000D01*
X69476Y-21038D01*
X69476Y-21095D01*
X69495Y-21133D01*
X69514Y-21152D01*
X69552Y-21171D01*
X69705Y-21171D01*
X69305Y-21362D02*
X69305Y-20962D01*
X69152Y-20962D01*
X69114Y-20981D01*
X69095Y-21000D01*
X69076Y-21038D01*
X69076Y-21095D01*
X69095Y-21133D01*
X69114Y-21152D01*
X69152Y-21171D01*
X69305Y-21171D01*
X68905Y-21324D02*
X68886Y-21343D01*
X68905Y-21362D01*
X68924Y-21343D01*
X68905Y-21324D01*
X68905Y-21362D01*
X68905Y-21114D02*
X68886Y-21133D01*
X68905Y-21152D01*
X68924Y-21133D01*
X68905Y-21114D01*
X68905Y-21152D01*
X68181Y-21362D02*
X68315Y-21171D01*
X68410Y-21362D02*
X68410Y-20962D01*
X68257Y-20962D01*
X68219Y-20981D01*
X68200Y-21000D01*
X68181Y-21038D01*
X68181Y-21095D01*
X68200Y-21133D01*
X68219Y-21152D01*
X68257Y-21171D01*
X68410Y-21171D01*
X67857Y-21343D02*
X67895Y-21362D01*
X67972Y-21362D01*
X68010Y-21343D01*
X68029Y-21305D01*
X68029Y-21152D01*
X68010Y-21114D01*
X67972Y-21095D01*
X67895Y-21095D01*
X67857Y-21114D01*
X67838Y-21152D01*
X67838Y-21190D01*
X68029Y-21229D01*
X67705Y-21095D02*
X67610Y-21362D01*
X67514Y-21095D01*
X67209Y-21343D02*
X67247Y-21362D01*
X67324Y-21362D01*
X67362Y-21343D01*
X67381Y-21305D01*
X67381Y-21152D01*
X67362Y-21114D01*
X67324Y-21095D01*
X67247Y-21095D01*
X67209Y-21114D01*
X67190Y-21152D01*
X67190Y-21190D01*
X67381Y-21229D01*
X67019Y-21362D02*
X67019Y-21095D01*
X67019Y-21171D02*
X67000Y-21133D01*
X66981Y-21114D01*
X66943Y-21095D01*
X66904Y-21095D01*
X66790Y-21343D02*
X66752Y-21362D01*
X66676Y-21362D01*
X66637Y-21343D01*
X66618Y-21305D01*
X66618Y-21286D01*
X66637Y-21248D01*
X66676Y-21229D01*
X66733Y-21229D01*
X66771Y-21210D01*
X66790Y-21171D01*
X66790Y-21152D01*
X66771Y-21114D01*
X66733Y-21095D01*
X66676Y-21095D01*
X66637Y-21114D01*
X66294Y-21343D02*
X66332Y-21362D01*
X66409Y-21362D01*
X66447Y-21343D01*
X66466Y-21305D01*
X66466Y-21152D01*
X66447Y-21114D01*
X66409Y-21095D01*
X66332Y-21095D01*
X66294Y-21114D01*
X66275Y-21152D01*
X66275Y-21190D01*
X66466Y-21229D01*
X65799Y-21362D02*
X65799Y-20962D01*
X65646Y-20962D01*
X65608Y-20981D01*
X65589Y-21000D01*
X65570Y-21038D01*
X65570Y-21095D01*
X65589Y-21133D01*
X65608Y-21152D01*
X65646Y-21171D01*
X65799Y-21171D01*
X65342Y-21362D02*
X65380Y-21343D01*
X65399Y-21324D01*
X65418Y-21286D01*
X65418Y-21171D01*
X65399Y-21133D01*
X65380Y-21114D01*
X65342Y-21095D01*
X65284Y-21095D01*
X65246Y-21114D01*
X65227Y-21133D01*
X65208Y-21171D01*
X65208Y-21286D01*
X65227Y-21324D01*
X65246Y-21343D01*
X65284Y-21362D01*
X65342Y-21362D01*
X64980Y-21362D02*
X65018Y-21343D01*
X65037Y-21305D01*
X65037Y-20962D01*
X64655Y-21362D02*
X64655Y-21152D01*
X64674Y-21114D01*
X64712Y-21095D01*
X64789Y-21095D01*
X64827Y-21114D01*
X64655Y-21343D02*
X64693Y-21362D01*
X64789Y-21362D01*
X64827Y-21343D01*
X64846Y-21305D01*
X64846Y-21267D01*
X64827Y-21229D01*
X64789Y-21210D01*
X64693Y-21210D01*
X64655Y-21190D01*
X64465Y-21362D02*
X64465Y-21095D01*
X64465Y-21171D02*
X64446Y-21133D01*
X64427Y-21114D01*
X64389Y-21095D01*
X64350Y-21095D01*
X64217Y-21362D02*
X64217Y-21095D01*
X64217Y-20962D02*
X64236Y-20981D01*
X64217Y-21000D01*
X64198Y-20981D01*
X64217Y-20962D01*
X64217Y-21000D01*
X64084Y-21095D02*
X63932Y-21095D01*
X64027Y-20962D02*
X64027Y-21305D01*
X64008Y-21343D01*
X63970Y-21362D01*
X63932Y-21362D01*
X63836Y-21095D02*
X63741Y-21362D01*
X63645Y-21095D02*
X63741Y-21362D01*
X63779Y-21457D01*
X63798Y-21476D01*
X63836Y-21495D01*
X63188Y-21362D02*
X63188Y-20962D01*
X63035Y-20962D01*
X62997Y-20981D01*
X62978Y-21000D01*
X62959Y-21038D01*
X62959Y-21095D01*
X62978Y-21133D01*
X62997Y-21152D01*
X63035Y-21171D01*
X63188Y-21171D01*
X62788Y-21362D02*
X62788Y-21095D01*
X62788Y-21171D02*
X62769Y-21133D01*
X62750Y-21114D01*
X62712Y-21095D01*
X62673Y-21095D01*
X62483Y-21362D02*
X62521Y-21343D01*
X62540Y-21324D01*
X62559Y-21286D01*
X62559Y-21171D01*
X62540Y-21133D01*
X62521Y-21114D01*
X62483Y-21095D01*
X62425Y-21095D01*
X62387Y-21114D01*
X62368Y-21133D01*
X62349Y-21171D01*
X62349Y-21286D01*
X62368Y-21324D01*
X62387Y-21343D01*
X62425Y-21362D01*
X62483Y-21362D01*
X62235Y-21095D02*
X62083Y-21095D01*
X62178Y-20962D02*
X62178Y-21305D01*
X62159Y-21343D01*
X62121Y-21362D01*
X62083Y-21362D01*
X61796Y-21343D02*
X61834Y-21362D01*
X61911Y-21362D01*
X61949Y-21343D01*
X61968Y-21305D01*
X61968Y-21152D01*
X61949Y-21114D01*
X61911Y-21095D01*
X61834Y-21095D01*
X61796Y-21114D01*
X61777Y-21152D01*
X61777Y-21190D01*
X61968Y-21229D01*
X61434Y-21343D02*
X61472Y-21362D01*
X61549Y-21362D01*
X61587Y-21343D01*
X61606Y-21324D01*
X61625Y-21286D01*
X61625Y-21171D01*
X61606Y-21133D01*
X61587Y-21114D01*
X61549Y-21095D01*
X61472Y-21095D01*
X61434Y-21114D01*
X61320Y-21095D02*
X61168Y-21095D01*
X61263Y-20962D02*
X61263Y-21305D01*
X61244Y-21343D01*
X61206Y-21362D01*
X61168Y-21362D01*
X61034Y-21362D02*
X61034Y-21095D01*
X61034Y-20962D02*
X61053Y-20981D01*
X61034Y-21000D01*
X61015Y-20981D01*
X61034Y-20962D01*
X61034Y-21000D01*
X60787Y-21362D02*
X60825Y-21343D01*
X60844Y-21324D01*
X60863Y-21286D01*
X60863Y-21171D01*
X60844Y-21133D01*
X60825Y-21114D01*
X60787Y-21095D01*
X60729Y-21095D01*
X60691Y-21114D01*
X60672Y-21133D01*
X60653Y-21171D01*
X60653Y-21286D01*
X60672Y-21324D01*
X60691Y-21343D01*
X60729Y-21362D01*
X60787Y-21362D01*
X60482Y-21095D02*
X60482Y-21362D01*
X60482Y-21133D02*
X60463Y-21114D01*
X60425Y-21095D01*
X60367Y-21095D01*
X60329Y-21114D01*
X60310Y-21152D01*
X60310Y-21362D01*
X70162Y-22242D02*
X69933Y-22242D01*
X70048Y-22642D02*
X70048Y-22242D01*
X69743Y-22642D02*
X69781Y-22623D01*
X69800Y-22604D01*
X69819Y-22566D01*
X69819Y-22451D01*
X69800Y-22413D01*
X69781Y-22394D01*
X69743Y-22375D01*
X69685Y-22375D01*
X69647Y-22394D01*
X69628Y-22413D01*
X69609Y-22451D01*
X69609Y-22566D01*
X69628Y-22604D01*
X69647Y-22623D01*
X69685Y-22642D01*
X69743Y-22642D01*
X69076Y-22642D02*
X69114Y-22623D01*
X69133Y-22604D01*
X69152Y-22566D01*
X69152Y-22451D01*
X69133Y-22413D01*
X69114Y-22394D01*
X69076Y-22375D01*
X69018Y-22375D01*
X68980Y-22394D01*
X68961Y-22413D01*
X68942Y-22451D01*
X68942Y-22566D01*
X68961Y-22604D01*
X68980Y-22623D01*
X69018Y-22642D01*
X69076Y-22642D01*
X68809Y-22375D02*
X68714Y-22642D01*
X68618Y-22375D01*
X68313Y-22623D02*
X68351Y-22642D01*
X68428Y-22642D01*
X68466Y-22623D01*
X68485Y-22585D01*
X68485Y-22432D01*
X68466Y-22394D01*
X68428Y-22375D01*
X68351Y-22375D01*
X68313Y-22394D01*
X68294Y-22432D01*
X68294Y-22470D01*
X68485Y-22509D01*
X68123Y-22642D02*
X68123Y-22375D01*
X68123Y-22451D02*
X68104Y-22413D01*
X68085Y-22394D01*
X68047Y-22375D01*
X68008Y-22375D01*
X67875Y-22642D02*
X67875Y-22375D01*
X67875Y-22451D02*
X67856Y-22413D01*
X67837Y-22394D01*
X67799Y-22375D01*
X67760Y-22375D01*
X67627Y-22642D02*
X67627Y-22375D01*
X67627Y-22242D02*
X67646Y-22261D01*
X67627Y-22280D01*
X67608Y-22261D01*
X67627Y-22242D01*
X67627Y-22280D01*
X67265Y-22642D02*
X67265Y-22242D01*
X67265Y-22623D02*
X67303Y-22642D01*
X67380Y-22642D01*
X67418Y-22623D01*
X67437Y-22604D01*
X67456Y-22566D01*
X67456Y-22451D01*
X67437Y-22413D01*
X67418Y-22394D01*
X67380Y-22375D01*
X67303Y-22375D01*
X67265Y-22394D01*
X66922Y-22623D02*
X66960Y-22642D01*
X67037Y-22642D01*
X67075Y-22623D01*
X67094Y-22585D01*
X67094Y-22432D01*
X67075Y-22394D01*
X67037Y-22375D01*
X66960Y-22375D01*
X66922Y-22394D01*
X66903Y-22432D01*
X66903Y-22470D01*
X67094Y-22509D01*
X66427Y-22375D02*
X66427Y-22775D01*
X66427Y-22394D02*
X66389Y-22375D01*
X66312Y-22375D01*
X66274Y-22394D01*
X66255Y-22413D01*
X66236Y-22451D01*
X66236Y-22566D01*
X66255Y-22604D01*
X66274Y-22623D01*
X66312Y-22642D01*
X66389Y-22642D01*
X66427Y-22623D01*
X66008Y-22642D02*
X66046Y-22623D01*
X66065Y-22585D01*
X66065Y-22242D01*
X65683Y-22642D02*
X65683Y-22432D01*
X65702Y-22394D01*
X65740Y-22375D01*
X65817Y-22375D01*
X65855Y-22394D01*
X65683Y-22623D02*
X65721Y-22642D01*
X65817Y-22642D01*
X65855Y-22623D01*
X65874Y-22585D01*
X65874Y-22547D01*
X65855Y-22509D01*
X65817Y-22490D01*
X65721Y-22490D01*
X65683Y-22470D01*
X65321Y-22623D02*
X65359Y-22642D01*
X65436Y-22642D01*
X65474Y-22623D01*
X65493Y-22604D01*
X65512Y-22566D01*
X65512Y-22451D01*
X65493Y-22413D01*
X65474Y-22394D01*
X65436Y-22375D01*
X65359Y-22375D01*
X65321Y-22394D01*
X64997Y-22623D02*
X65035Y-22642D01*
X65112Y-22642D01*
X65150Y-22623D01*
X65169Y-22585D01*
X65169Y-22432D01*
X65150Y-22394D01*
X65112Y-22375D01*
X65035Y-22375D01*
X64997Y-22394D01*
X64978Y-22432D01*
X64978Y-22470D01*
X65169Y-22509D01*
X64330Y-22642D02*
X64330Y-22432D01*
X64349Y-22394D01*
X64387Y-22375D01*
X64464Y-22375D01*
X64502Y-22394D01*
X64330Y-22623D02*
X64368Y-22642D01*
X64464Y-22642D01*
X64502Y-22623D01*
X64521Y-22585D01*
X64521Y-22547D01*
X64502Y-22509D01*
X64464Y-22490D01*
X64368Y-22490D01*
X64330Y-22470D01*
X63854Y-22623D02*
X63816Y-22642D01*
X63740Y-22642D01*
X63701Y-22623D01*
X63682Y-22585D01*
X63682Y-22566D01*
X63701Y-22528D01*
X63740Y-22509D01*
X63797Y-22509D01*
X63835Y-22490D01*
X63854Y-22451D01*
X63854Y-22432D01*
X63835Y-22394D01*
X63797Y-22375D01*
X63740Y-22375D01*
X63701Y-22394D01*
X63454Y-22642D02*
X63492Y-22623D01*
X63511Y-22604D01*
X63530Y-22566D01*
X63530Y-22451D01*
X63511Y-22413D01*
X63492Y-22394D01*
X63454Y-22375D01*
X63396Y-22375D01*
X63358Y-22394D01*
X63339Y-22413D01*
X63320Y-22451D01*
X63320Y-22566D01*
X63339Y-22604D01*
X63358Y-22623D01*
X63396Y-22642D01*
X63454Y-22642D01*
X63092Y-22642D02*
X63130Y-22623D01*
X63149Y-22585D01*
X63149Y-22242D01*
X62939Y-22642D02*
X62939Y-22375D01*
X62939Y-22242D02*
X62958Y-22261D01*
X62939Y-22280D01*
X62920Y-22261D01*
X62939Y-22242D01*
X62939Y-22280D01*
X62577Y-22642D02*
X62577Y-22242D01*
X62577Y-22623D02*
X62615Y-22642D01*
X62692Y-22642D01*
X62730Y-22623D01*
X62749Y-22604D01*
X62768Y-22566D01*
X62768Y-22451D01*
X62749Y-22413D01*
X62730Y-22394D01*
X62692Y-22375D01*
X62615Y-22375D01*
X62577Y-22394D01*
X62101Y-22280D02*
X62082Y-22261D01*
X62044Y-22242D01*
X61948Y-22242D01*
X61910Y-22261D01*
X61891Y-22280D01*
X61872Y-22318D01*
X61872Y-22356D01*
X61891Y-22413D01*
X62120Y-22642D01*
X61872Y-22642D01*
X61701Y-22642D02*
X61701Y-22375D01*
X61701Y-22413D02*
X61682Y-22394D01*
X61644Y-22375D01*
X61586Y-22375D01*
X61548Y-22394D01*
X61529Y-22432D01*
X61529Y-22642D01*
X61529Y-22432D02*
X61510Y-22394D01*
X61472Y-22375D01*
X61415Y-22375D01*
X61377Y-22394D01*
X61358Y-22432D01*
X61358Y-22642D01*
X61168Y-22642D02*
X61168Y-22375D01*
X61168Y-22413D02*
X61149Y-22394D01*
X61111Y-22375D01*
X61053Y-22375D01*
X61015Y-22394D01*
X60996Y-22432D01*
X60996Y-22642D01*
X60996Y-22432D02*
X60977Y-22394D01*
X60939Y-22375D01*
X60882Y-22375D01*
X60844Y-22394D01*
X60825Y-22432D01*
X60825Y-22642D01*
X60368Y-22375D02*
X60292Y-22642D01*
X60215Y-22451D01*
X60139Y-22642D01*
X60063Y-22375D01*
X59911Y-22642D02*
X59911Y-22375D01*
X59911Y-22242D02*
X59930Y-22261D01*
X59911Y-22280D01*
X59892Y-22261D01*
X59911Y-22242D01*
X59911Y-22280D01*
X59721Y-22642D02*
X59721Y-22375D01*
X59721Y-22451D02*
X59702Y-22413D01*
X59683Y-22394D01*
X59645Y-22375D01*
X59606Y-22375D01*
X59320Y-22623D02*
X59358Y-22642D01*
X59435Y-22642D01*
X59473Y-22623D01*
X59492Y-22585D01*
X59492Y-22432D01*
X59473Y-22394D01*
X59435Y-22375D01*
X59358Y-22375D01*
X59320Y-22394D01*
X59301Y-22432D01*
X59301Y-22470D01*
X59492Y-22509D01*
X70105Y-23282D02*
X70105Y-22882D01*
X70105Y-23034D02*
X70067Y-23015D01*
X69990Y-23015D01*
X69952Y-23034D01*
X69933Y-23053D01*
X69914Y-23091D01*
X69914Y-23206D01*
X69933Y-23244D01*
X69952Y-23263D01*
X69990Y-23282D01*
X70067Y-23282D01*
X70105Y-23263D01*
X69590Y-23263D02*
X69628Y-23282D01*
X69705Y-23282D01*
X69743Y-23263D01*
X69762Y-23225D01*
X69762Y-23072D01*
X69743Y-23034D01*
X69705Y-23015D01*
X69628Y-23015D01*
X69590Y-23034D01*
X69571Y-23072D01*
X69571Y-23110D01*
X69762Y-23149D01*
X69457Y-23015D02*
X69305Y-23015D01*
X69400Y-22882D02*
X69400Y-23225D01*
X69381Y-23263D01*
X69343Y-23282D01*
X69305Y-23282D01*
X69209Y-23015D02*
X69133Y-23282D01*
X69056Y-23091D01*
X68980Y-23282D01*
X68904Y-23015D01*
X68599Y-23263D02*
X68637Y-23282D01*
X68714Y-23282D01*
X68752Y-23263D01*
X68771Y-23225D01*
X68771Y-23072D01*
X68752Y-23034D01*
X68714Y-23015D01*
X68637Y-23015D01*
X68599Y-23034D01*
X68580Y-23072D01*
X68580Y-23110D01*
X68771Y-23149D01*
X68256Y-23263D02*
X68294Y-23282D01*
X68371Y-23282D01*
X68409Y-23263D01*
X68428Y-23225D01*
X68428Y-23072D01*
X68409Y-23034D01*
X68371Y-23015D01*
X68294Y-23015D01*
X68256Y-23034D01*
X68237Y-23072D01*
X68237Y-23110D01*
X68428Y-23149D01*
X68066Y-23015D02*
X68066Y-23282D01*
X68066Y-23053D02*
X68047Y-23034D01*
X68009Y-23015D01*
X67951Y-23015D01*
X67913Y-23034D01*
X67894Y-23072D01*
X67894Y-23282D01*
X67284Y-22882D02*
X67284Y-23168D01*
X67304Y-23225D01*
X67342Y-23263D01*
X67399Y-23282D01*
X67437Y-23282D01*
X67094Y-23282D02*
X67094Y-22882D01*
X66941Y-22882D01*
X66903Y-22901D01*
X66884Y-22920D01*
X66865Y-22958D01*
X66865Y-23015D01*
X66884Y-23053D01*
X66903Y-23072D01*
X66941Y-23091D01*
X67094Y-23091D01*
X66484Y-23282D02*
X66713Y-23282D01*
X66599Y-23282D02*
X66599Y-22882D01*
X66637Y-22939D01*
X66675Y-22977D01*
X66713Y-22996D01*
X65836Y-23282D02*
X65836Y-23072D01*
X65855Y-23034D01*
X65893Y-23015D01*
X65970Y-23015D01*
X66008Y-23034D01*
X65836Y-23263D02*
X65874Y-23282D01*
X65970Y-23282D01*
X66008Y-23263D01*
X66027Y-23225D01*
X66027Y-23187D01*
X66008Y-23149D01*
X65970Y-23130D01*
X65874Y-23130D01*
X65836Y-23110D01*
X65646Y-23015D02*
X65646Y-23282D01*
X65646Y-23053D02*
X65627Y-23034D01*
X65589Y-23015D01*
X65531Y-23015D01*
X65493Y-23034D01*
X65474Y-23072D01*
X65474Y-23282D01*
X65112Y-23282D02*
X65112Y-22882D01*
X65112Y-23263D02*
X65150Y-23282D01*
X65227Y-23282D01*
X65265Y-23263D01*
X65284Y-23244D01*
X65303Y-23206D01*
X65303Y-23091D01*
X65284Y-23053D01*
X65265Y-23034D01*
X65227Y-23015D01*
X65150Y-23015D01*
X65112Y-23034D01*
X64502Y-22882D02*
X64502Y-23168D01*
X64522Y-23225D01*
X64560Y-23263D01*
X64617Y-23282D01*
X64655Y-23282D01*
X64312Y-23282D02*
X64312Y-22882D01*
X64159Y-22882D01*
X64121Y-22901D01*
X64102Y-22920D01*
X64083Y-22958D01*
X64083Y-23015D01*
X64102Y-23053D01*
X64121Y-23072D01*
X64159Y-23091D01*
X64312Y-23091D01*
X63931Y-22920D02*
X63912Y-22901D01*
X63874Y-22882D01*
X63778Y-22882D01*
X63740Y-22901D01*
X63721Y-22920D01*
X63702Y-22958D01*
X63702Y-22996D01*
X63721Y-23053D01*
X63950Y-23282D01*
X63702Y-23282D01*
G54D12*
X73543Y-30686D02*
X73257Y-30486D01*
X73543Y-30343D02*
X72943Y-30343D01*
X72943Y-30571D01*
X72971Y-30629D01*
X73000Y-30657D01*
X73057Y-30686D01*
X73143Y-30686D01*
X73200Y-30657D01*
X73229Y-30629D01*
X73257Y-30571D01*
X73257Y-30343D01*
X73543Y-30943D02*
X72943Y-30943D01*
X72943Y-31171D01*
X72971Y-31229D01*
X73000Y-31257D01*
X73057Y-31286D01*
X73143Y-31286D01*
X73200Y-31257D01*
X73229Y-31229D01*
X73257Y-31171D01*
X73257Y-30943D01*
X73543Y-31543D02*
X72943Y-31543D01*
X72943Y-31771D01*
X72971Y-31829D01*
X73000Y-31857D01*
X73057Y-31886D01*
X73143Y-31886D01*
X73200Y-31857D01*
X73229Y-31829D01*
X73257Y-31771D01*
X73257Y-31543D01*
G54D11*
X37402Y-52756D02*
X37402Y-13386D01*
X76772Y-52756D02*
X37402Y-52756D01*
X37402Y-13386D02*
X76772Y-13386D01*
X41766Y-41000D02*
X41743Y-41229D01*
X41676Y-41450D01*
X41568Y-41653D01*
X41423Y-41832D01*
X41245Y-41979D01*
X41042Y-42088D01*
X40822Y-42156D01*
X40593Y-42180D01*
X40364Y-42160D01*
X40143Y-42095D01*
X39939Y-41988D01*
X39759Y-41843D01*
X39611Y-41667D01*
X39500Y-41465D01*
X39430Y-41245D01*
X39405Y-41016D01*
X39424Y-40787D01*
X39487Y-40566D01*
X39593Y-40361D01*
X39736Y-40180D01*
X39911Y-40031D01*
X40113Y-39918D01*
X40332Y-39847D01*
X40561Y-39820D01*
X40790Y-39837D01*
X41012Y-39899D01*
X41217Y-40003D01*
X41399Y-40145D01*
X41550Y-40320D01*
X41663Y-40520D01*
X41736Y-40739D01*
X41765Y-40968D01*
X41766Y-41000D01*
X52396Y-41000D02*
X52373Y-41229D01*
X52306Y-41450D01*
X52198Y-41653D01*
X52053Y-41832D01*
X51875Y-41979D01*
X51672Y-42088D01*
X51452Y-42156D01*
X51223Y-42180D01*
X50994Y-42160D01*
X50773Y-42095D01*
X50569Y-41988D01*
X50389Y-41843D01*
X50241Y-41667D01*
X50130Y-41465D01*
X50060Y-41245D01*
X50035Y-41016D01*
X50054Y-40787D01*
X50117Y-40566D01*
X50223Y-40361D01*
X50366Y-40180D01*
X50541Y-40031D01*
X50743Y-39918D01*
X50962Y-39847D01*
X51191Y-39820D01*
X51420Y-39837D01*
X51642Y-39899D01*
X51847Y-40003D01*
X52029Y-40145D01*
X52180Y-40320D01*
X52293Y-40520D01*
X52366Y-40739D01*
X52395Y-40968D01*
X52396Y-41000D01*
X41943Y-30823D02*
X50034Y-30823D01*
X41943Y-32024D02*
X40979Y-32024D01*
X41943Y-30823D02*
X41943Y-32024D01*
X50034Y-32024D02*
X50034Y-30823D01*
X50821Y-39819D02*
X40979Y-39819D01*
X50821Y-42181D02*
X40979Y-42181D01*
X50821Y-32024D02*
X50034Y-32024D01*
X50821Y-32024D02*
X50821Y-28874D01*
X50821Y-28874D02*
X40979Y-28874D01*
X40979Y-28874D02*
X40979Y-32024D01*
X44325Y-32142D02*
X44325Y-30961D01*
X44325Y-30961D02*
X42081Y-30961D01*
X42081Y-30961D02*
X42081Y-32142D01*
X48243Y-31079D02*
X48243Y-30685D01*
X48243Y-31236D02*
X48243Y-31197D01*
X48243Y-31748D02*
X48243Y-31355D01*
X48243Y-31906D02*
X48243Y-31866D01*
X48243Y-32418D02*
X48243Y-32024D01*
X49896Y-30961D02*
X46589Y-30961D01*
X46589Y-30961D02*
X46589Y-32142D01*
X49896Y-32142D02*
X49896Y-30961D01*
X50821Y-32142D02*
X40979Y-32142D01*
X40979Y-32142D02*
X40979Y-49858D01*
X40979Y-49858D02*
X50821Y-49858D01*
X50821Y-49858D02*
X50821Y-32142D01*
X74681Y-33300D02*
X74658Y-33529D01*
X74591Y-33750D01*
X74483Y-33953D01*
X74338Y-34132D01*
X74160Y-34279D01*
X73957Y-34388D01*
X73737Y-34456D01*
X73508Y-34480D01*
X73279Y-34460D01*
X73058Y-34395D01*
X72854Y-34288D01*
X72674Y-34143D01*
X72526Y-33967D01*
X72415Y-33765D01*
X72345Y-33545D01*
X72320Y-33316D01*
X72339Y-33087D01*
X72402Y-32866D01*
X72508Y-32661D01*
X72651Y-32480D01*
X72826Y-32331D01*
X73028Y-32218D01*
X73247Y-32147D01*
X73476Y-32120D01*
X73705Y-32137D01*
X73927Y-32199D01*
X74132Y-32303D01*
X74314Y-32445D01*
X74465Y-32620D01*
X74578Y-32820D01*
X74651Y-33039D01*
X74680Y-33268D01*
X74681Y-33300D01*
X74681Y-28900D02*
X74658Y-29129D01*
X74591Y-29350D01*
X74483Y-29553D01*
X74338Y-29732D01*
X74160Y-29879D01*
X73957Y-29988D01*
X73737Y-30056D01*
X73508Y-30080D01*
X73279Y-30060D01*
X73058Y-29995D01*
X72854Y-29888D01*
X72674Y-29743D01*
X72526Y-29567D01*
X72415Y-29365D01*
X72345Y-29145D01*
X72320Y-28916D01*
X72339Y-28687D01*
X72402Y-28466D01*
X72508Y-28261D01*
X72651Y-28080D01*
X72826Y-27931D01*
X73028Y-27818D01*
X73247Y-27747D01*
X73476Y-27720D01*
X73705Y-27737D01*
X73927Y-27799D01*
X74132Y-27903D01*
X74314Y-28045D01*
X74465Y-28220D01*
X74578Y-28420D01*
X74651Y-28639D01*
X74680Y-28868D01*
X74681Y-28900D01*
G54D13*
X71900Y-30900D02*
X71600Y-31100D01*
X72600Y-30900D02*
X71575Y-30900D01*
X71575Y-30900D02*
X71575Y-31500D01*
X71575Y-31500D02*
X72600Y-31500D01*
X72600Y-31500D02*
X72600Y-30900D01*
X74100Y-30900D02*
X73800Y-31100D01*
X74800Y-30900D02*
X73775Y-30900D01*
X73775Y-30900D02*
X73775Y-31500D01*
X73775Y-31500D02*
X74800Y-31500D01*
X74800Y-31500D02*
X74800Y-30900D01*
G54D14*
X73260Y-40625D02*
X73515Y-40625D01*
X73515Y-40625D02*
X73515Y-41176D01*
X73260Y-41176D02*
X73515Y-41176D01*
X73260Y-40625D02*
X73260Y-41176D01*
X72680Y-40625D02*
X72936Y-40625D01*
X72936Y-40625D02*
X72936Y-41176D01*
X72680Y-41176D02*
X72936Y-41176D01*
X72680Y-40625D02*
X72680Y-41176D01*
X73022Y-40704D02*
X73178Y-40704D01*
X73178Y-40704D02*
X73178Y-41096D01*
X73022Y-41096D02*
X73178Y-41096D01*
X73022Y-40704D02*
X73022Y-41096D01*
G54D10*
X72939Y-41150D02*
X73261Y-41150D01*
X72939Y-40650D02*
X73261Y-40650D01*
G54D15*
X72324Y-41287D02*
X73876Y-41287D01*
X73876Y-41287D02*
X73876Y-40513D01*
X73876Y-40513D02*
X72324Y-40513D01*
X72324Y-40513D02*
X72324Y-41287D01*
G54D13*
X70700Y-40700D02*
X71000Y-40500D01*
X70000Y-40700D02*
X71025Y-40700D01*
X71025Y-40700D02*
X71025Y-40100D01*
X71025Y-40100D02*
X70000Y-40100D01*
X70000Y-40100D02*
X70000Y-40700D01*
G54D14*
X73775Y-48460D02*
X73775Y-48715D01*
X73775Y-48715D02*
X73224Y-48715D01*
X73224Y-48460D02*
X73224Y-48715D01*
X73775Y-48460D02*
X73224Y-48460D01*
X73775Y-47880D02*
X73775Y-48136D01*
X73775Y-48136D02*
X73224Y-48136D01*
X73224Y-47880D02*
X73224Y-48136D01*
X73775Y-47880D02*
X73224Y-47880D01*
X73696Y-48222D02*
X73696Y-48378D01*
X73696Y-48378D02*
X73304Y-48378D01*
X73304Y-48222D02*
X73304Y-48378D01*
X73696Y-48222D02*
X73304Y-48222D01*
G54D10*
X73250Y-48139D02*
X73250Y-48461D01*
X73750Y-48139D02*
X73750Y-48461D01*
G54D15*
X73113Y-47524D02*
X73113Y-49076D01*
X73113Y-49076D02*
X73887Y-49076D01*
X73887Y-49076D02*
X73887Y-47524D01*
X73887Y-47524D02*
X73113Y-47524D01*
G54D11*
X47289Y-40812D02*
X47213Y-40812D01*
X47174Y-40793D01*
X47155Y-40774D01*
X47117Y-40717D01*
X47098Y-40640D01*
X47098Y-40488D01*
X47117Y-40450D01*
X47136Y-40431D01*
X47174Y-40412D01*
X47251Y-40412D01*
X47289Y-40431D01*
X47308Y-40450D01*
X47327Y-40488D01*
X47327Y-40583D01*
X47308Y-40621D01*
X47289Y-40640D01*
X47251Y-40660D01*
X47174Y-40660D01*
X47136Y-40640D01*
X47117Y-40621D01*
X47098Y-40583D01*
X46984Y-40412D02*
X46851Y-40812D01*
X46717Y-40412D01*
X46679Y-40850D02*
X46374Y-40850D01*
X46279Y-40812D02*
X46279Y-40412D01*
X46279Y-40564D02*
X46241Y-40545D01*
X46164Y-40545D01*
X46126Y-40564D01*
X46107Y-40583D01*
X46088Y-40621D01*
X46088Y-40736D01*
X46107Y-40774D01*
X46126Y-40793D01*
X46164Y-40812D01*
X46241Y-40812D01*
X46279Y-40793D01*
X45745Y-40812D02*
X45745Y-40602D01*
X45764Y-40564D01*
X45802Y-40545D01*
X45879Y-40545D01*
X45917Y-40564D01*
X45745Y-40793D02*
X45783Y-40812D01*
X45879Y-40812D01*
X45917Y-40793D01*
X45936Y-40755D01*
X45936Y-40717D01*
X45917Y-40679D01*
X45879Y-40660D01*
X45783Y-40660D01*
X45745Y-40640D01*
X45612Y-40545D02*
X45460Y-40545D01*
X45555Y-40412D02*
X45555Y-40755D01*
X45536Y-40793D01*
X45498Y-40812D01*
X45460Y-40812D01*
X45383Y-40545D02*
X45231Y-40545D01*
X45326Y-40412D02*
X45326Y-40755D01*
X45307Y-40793D01*
X45269Y-40812D01*
X45231Y-40812D01*
X44944Y-40793D02*
X44982Y-40812D01*
X45059Y-40812D01*
X45097Y-40793D01*
X45116Y-40755D01*
X45116Y-40602D01*
X45097Y-40564D01*
X45059Y-40545D01*
X44982Y-40545D01*
X44944Y-40564D01*
X44925Y-40602D01*
X44925Y-40640D01*
X45116Y-40679D01*
X44754Y-40812D02*
X44754Y-40545D01*
X44754Y-40621D02*
X44735Y-40583D01*
X44716Y-40564D01*
X44678Y-40545D01*
X44639Y-40545D01*
X44544Y-40545D02*
X44449Y-40812D01*
X44353Y-40545D02*
X44449Y-40812D01*
X44487Y-40907D01*
X44506Y-40926D01*
X44544Y-40945D01*
X48956Y-41598D02*
X48765Y-41598D01*
X48994Y-41712D02*
X48861Y-41312D01*
X48727Y-41712D01*
X48651Y-41445D02*
X48499Y-41445D01*
X48594Y-41312D02*
X48594Y-41655D01*
X48575Y-41693D01*
X48537Y-41712D01*
X48499Y-41712D01*
X48422Y-41445D02*
X48270Y-41445D01*
X48365Y-41312D02*
X48365Y-41655D01*
X48346Y-41693D01*
X48308Y-41712D01*
X48270Y-41712D01*
X47964Y-41712D02*
X47964Y-41502D01*
X47983Y-41464D01*
X48021Y-41445D01*
X48098Y-41445D01*
X48136Y-41464D01*
X47964Y-41693D02*
X48002Y-41712D01*
X48098Y-41712D01*
X48136Y-41693D01*
X48155Y-41655D01*
X48155Y-41617D01*
X48136Y-41579D01*
X48098Y-41560D01*
X48002Y-41560D01*
X47964Y-41540D01*
X47602Y-41693D02*
X47640Y-41712D01*
X47717Y-41712D01*
X47755Y-41693D01*
X47774Y-41674D01*
X47793Y-41636D01*
X47793Y-41521D01*
X47774Y-41483D01*
X47755Y-41464D01*
X47717Y-41445D01*
X47640Y-41445D01*
X47602Y-41464D01*
X47431Y-41712D02*
X47431Y-41312D01*
X47259Y-41712D02*
X47259Y-41502D01*
X47278Y-41464D01*
X47316Y-41445D01*
X47374Y-41445D01*
X47412Y-41464D01*
X47431Y-41483D01*
X46802Y-41445D02*
X46726Y-41712D01*
X46649Y-41521D01*
X46573Y-41712D01*
X46497Y-41445D01*
X46345Y-41712D02*
X46345Y-41445D01*
X46345Y-41312D02*
X46364Y-41331D01*
X46345Y-41350D01*
X46326Y-41331D01*
X46345Y-41312D01*
X46345Y-41350D01*
X46212Y-41445D02*
X46060Y-41445D01*
X46155Y-41312D02*
X46155Y-41655D01*
X46136Y-41693D01*
X46098Y-41712D01*
X46060Y-41712D01*
X45926Y-41712D02*
X45926Y-41312D01*
X45754Y-41712D02*
X45754Y-41502D01*
X45773Y-41464D01*
X45811Y-41445D01*
X45869Y-41445D01*
X45907Y-41464D01*
X45926Y-41483D01*
X45087Y-41693D02*
X45125Y-41712D01*
X45202Y-41712D01*
X45240Y-41693D01*
X45259Y-41674D01*
X45278Y-41636D01*
X45278Y-41521D01*
X45259Y-41483D01*
X45240Y-41464D01*
X45202Y-41445D01*
X45125Y-41445D01*
X45087Y-41464D01*
X44744Y-41712D02*
X44744Y-41502D01*
X44763Y-41464D01*
X44801Y-41445D01*
X44878Y-41445D01*
X44916Y-41464D01*
X44744Y-41693D02*
X44782Y-41712D01*
X44878Y-41712D01*
X44916Y-41693D01*
X44935Y-41655D01*
X44935Y-41617D01*
X44916Y-41579D01*
X44878Y-41560D01*
X44782Y-41560D01*
X44744Y-41540D01*
X44554Y-41712D02*
X44554Y-41312D01*
X44554Y-41464D02*
X44516Y-41445D01*
X44439Y-41445D01*
X44401Y-41464D01*
X44382Y-41483D01*
X44363Y-41521D01*
X44363Y-41636D01*
X44382Y-41674D01*
X44401Y-41693D01*
X44439Y-41712D01*
X44516Y-41712D01*
X44554Y-41693D01*
X44135Y-41712D02*
X44173Y-41693D01*
X44192Y-41655D01*
X44192Y-41312D01*
X43829Y-41693D02*
X43867Y-41712D01*
X43944Y-41712D01*
X43982Y-41693D01*
X44001Y-41655D01*
X44001Y-41502D01*
X43982Y-41464D01*
X43944Y-41445D01*
X43867Y-41445D01*
X43829Y-41464D01*
X43810Y-41502D01*
X43810Y-41540D01*
X44001Y-41579D01*
X43391Y-41445D02*
X43239Y-41445D01*
X43334Y-41312D02*
X43334Y-41655D01*
X43315Y-41693D01*
X43277Y-41712D01*
X43239Y-41712D01*
X43105Y-41712D02*
X43105Y-41445D01*
X43105Y-41312D02*
X43124Y-41331D01*
X43105Y-41350D01*
X43086Y-41331D01*
X43105Y-41312D01*
X43105Y-41350D01*
X42762Y-41693D02*
X42800Y-41712D01*
X42877Y-41712D01*
X42915Y-41693D01*
X42934Y-41655D01*
X42934Y-41502D01*
X42915Y-41464D01*
X42877Y-41445D01*
X42800Y-41445D01*
X42762Y-41464D01*
X42743Y-41502D01*
X42743Y-41540D01*
X42934Y-41579D01*
G54D16*
X75933Y-33062D02*
X75933Y-33348D01*
X75953Y-33405D01*
X75991Y-33443D01*
X76048Y-33462D01*
X76086Y-33462D01*
X75743Y-33462D02*
X75743Y-33062D01*
X75590Y-33062D01*
X75552Y-33081D01*
X75533Y-33100D01*
X75514Y-33138D01*
X75514Y-33195D01*
X75533Y-33233D01*
X75552Y-33252D01*
X75590Y-33271D01*
X75743Y-33271D01*
X75133Y-33462D02*
X75362Y-33462D01*
X75248Y-33462D02*
X75248Y-33062D01*
X75286Y-33119D01*
X75324Y-33157D01*
X75362Y-33176D01*
X75933Y-28662D02*
X75933Y-28948D01*
X75953Y-29005D01*
X75991Y-29043D01*
X76048Y-29062D01*
X76086Y-29062D01*
X75743Y-29062D02*
X75743Y-28662D01*
X75590Y-28662D01*
X75552Y-28681D01*
X75533Y-28700D01*
X75514Y-28738D01*
X75514Y-28795D01*
X75533Y-28833D01*
X75552Y-28852D01*
X75590Y-28871D01*
X75743Y-28871D01*
X75362Y-28700D02*
X75343Y-28681D01*
X75305Y-28662D01*
X75209Y-28662D01*
X75171Y-28681D01*
X75152Y-28700D01*
X75133Y-28738D01*
X75133Y-28776D01*
X75152Y-28833D01*
X75381Y-29062D01*
X75133Y-29062D01*
G54D11*
X70938Y-31400D02*
X70976Y-31381D01*
X71014Y-31343D01*
X71071Y-31286D01*
X71110Y-31267D01*
X71148Y-31267D01*
X71129Y-31362D02*
X71167Y-31343D01*
X71205Y-31305D01*
X71224Y-31229D01*
X71224Y-31095D01*
X71205Y-31019D01*
X71167Y-30981D01*
X71129Y-30962D01*
X71052Y-30962D01*
X71014Y-30981D01*
X70976Y-31019D01*
X70957Y-31095D01*
X70957Y-31229D01*
X70976Y-31305D01*
X71014Y-31343D01*
X71052Y-31362D01*
X71129Y-31362D01*
X70824Y-30962D02*
X70576Y-30962D01*
X70710Y-31114D01*
X70652Y-31114D01*
X70614Y-31133D01*
X70595Y-31152D01*
X70576Y-31190D01*
X70576Y-31286D01*
X70595Y-31324D01*
X70614Y-31343D01*
X70652Y-31362D01*
X70767Y-31362D01*
X70805Y-31343D01*
X70824Y-31324D01*
X75538Y-31400D02*
X75576Y-31381D01*
X75614Y-31343D01*
X75671Y-31286D01*
X75710Y-31267D01*
X75748Y-31267D01*
X75729Y-31362D02*
X75767Y-31343D01*
X75805Y-31305D01*
X75824Y-31229D01*
X75824Y-31095D01*
X75805Y-31019D01*
X75767Y-30981D01*
X75729Y-30962D01*
X75652Y-30962D01*
X75614Y-30981D01*
X75576Y-31019D01*
X75557Y-31095D01*
X75557Y-31229D01*
X75576Y-31305D01*
X75614Y-31343D01*
X75652Y-31362D01*
X75729Y-31362D01*
X75214Y-31095D02*
X75214Y-31362D01*
X75310Y-30943D02*
X75405Y-31229D01*
X75157Y-31229D01*
X74466Y-41062D02*
X74600Y-40871D01*
X74695Y-41062D02*
X74695Y-40662D01*
X74542Y-40662D01*
X74504Y-40681D01*
X74485Y-40700D01*
X74466Y-40738D01*
X74466Y-40795D01*
X74485Y-40833D01*
X74504Y-40852D01*
X74542Y-40871D01*
X74695Y-40871D01*
X74333Y-40662D02*
X74066Y-40662D01*
X74238Y-41062D01*
X69686Y-40562D02*
X69686Y-40162D01*
X69591Y-40162D01*
X69533Y-40181D01*
X69495Y-40219D01*
X69476Y-40257D01*
X69457Y-40333D01*
X69457Y-40390D01*
X69476Y-40467D01*
X69495Y-40505D01*
X69533Y-40543D01*
X69591Y-40562D01*
X69686Y-40562D01*
X69324Y-40162D02*
X69057Y-40162D01*
X69324Y-40562D01*
X69057Y-40562D01*
X68695Y-40562D02*
X68924Y-40562D01*
X68810Y-40562D02*
X68810Y-40162D01*
X68848Y-40219D01*
X68886Y-40257D01*
X68924Y-40276D01*
X73662Y-49534D02*
X73471Y-49400D01*
X73662Y-49305D02*
X73262Y-49305D01*
X73262Y-49458D01*
X73281Y-49496D01*
X73300Y-49515D01*
X73338Y-49534D01*
X73395Y-49534D01*
X73433Y-49515D01*
X73452Y-49496D01*
X73471Y-49458D01*
X73471Y-49305D01*
X73662Y-49915D02*
X73662Y-49686D01*
X73662Y-49800D02*
X73262Y-49800D01*
X73319Y-49762D01*
X73357Y-49724D01*
X73376Y-49686D01*
%LPC*%
G54D17*
X51215Y-41000D03*
X40585Y-41000D03*
G54D18*
X47908Y-50764D03*
X43892Y-50764D03*
G54D19*
X46530Y-50764D03*
X45270Y-50764D03*
G54D20*
X72835Y-25118D03*
X41339Y-25118D03*
X57087Y-25118D03*
G54D17*
X73500Y-33300D03*
X73500Y-28900D03*
G54D21*
X56000Y-45200D03*
G54D22*
X56000Y-39294D03*
X54425Y-39294D03*
X57575Y-39294D03*
G54D23*
X48213Y-27559D03*
X49213Y-27559D03*
G54D24*
X50213Y-27559D03*
G54D23*
X63961Y-27559D03*
X64961Y-27559D03*
G54D24*
X65961Y-27559D03*
G54D25*
X39370Y-15354D03*
X74803Y-15354D03*
X39370Y-50787D03*
X74803Y-50787D03*
G54D26*
X72100Y-31700D03*
X72475Y-30700D03*
X71725Y-30700D03*
X74300Y-31700D03*
X74675Y-30700D03*
X73925Y-30700D03*
G54D27*
X72726Y-40900D03*
X73474Y-40900D03*
G54D26*
X70500Y-39900D03*
X70125Y-40900D03*
X70875Y-40900D03*
G54D28*
X73500Y-47926D03*
X73500Y-48674D03*
G54D29*
X73500Y-37500D03*
X73500Y-44500D03*
X68800Y-47900D03*
X63400Y-47900D03*
G54D19*
X40354Y-46496D03*
X40354Y-45496D03*
X40354Y-47496D03*
G54D30*
X40200Y-36200D03*
X39200Y-37200D03*
X40200Y-38200D03*
G54D31*
X66900Y-30504D03*
X66900Y-43496D03*
X64100Y-30504D03*
X64100Y-43496D03*
M02*
