G04 (created by PCBNEW-RS274X (2012-jan-04)-stable) date Thu 07 Jun 2012 12:25:39 PM CEST*
G01*
G70*
G90*
%MOIN*%
G04 Gerber Fmt 3.4, Leading zero omitted, Abs format*
%FSLAX34Y34*%
G04 APERTURE LIST*
%ADD10C,0.006000*%
%ADD11C,0.008000*%
%ADD12C,0.196900*%
%ADD13O,0.137800X0.098400*%
%ADD14C,0.059100*%
%ADD15C,0.315000*%
%ADD16C,0.472400*%
%ADD17C,0.098400*%
%ADD18C,0.070000*%
%ADD19R,0.070000X0.070000*%
%ADD20R,0.047200X0.047200*%
%ADD21C,0.160000*%
%ADD22R,0.144000X0.080000*%
%ADD23R,0.040000X0.080000*%
%ADD24R,0.051100X0.059000*%
%ADD25R,0.062900X0.070800*%
%ADD26R,0.086600X0.023600*%
%ADD27R,0.039300X0.043300*%
%ADD28C,0.393700*%
%ADD29C,0.044000*%
%ADD30C,0.157500*%
G04 APERTURE END LIST*
G54D10*
G54D11*
X76772Y-52756D02*
X76772Y-13386D01*
X37402Y-52756D02*
X37402Y-13386D01*
X76772Y-52756D02*
X37402Y-52756D01*
X37402Y-13386D02*
X76772Y-13386D01*
G54D12*
X51215Y-41000D03*
X40585Y-41000D03*
G54D13*
X47908Y-50764D03*
X43892Y-50764D03*
G54D14*
X46530Y-50764D03*
X45270Y-50764D03*
G54D15*
X72835Y-25118D03*
X41339Y-25118D03*
X57087Y-25118D03*
G54D12*
X73500Y-33300D03*
X73500Y-28900D03*
G54D16*
X56000Y-45200D03*
G54D17*
X56000Y-39294D03*
X54425Y-39294D03*
X57575Y-39294D03*
G54D18*
X48213Y-27559D03*
X49213Y-27559D03*
G54D19*
X50213Y-27559D03*
G54D18*
X63961Y-27559D03*
X64961Y-27559D03*
G54D19*
X65961Y-27559D03*
G54D20*
X55587Y-35800D03*
X56413Y-35800D03*
G54D21*
X39370Y-15354D03*
X74803Y-15354D03*
X39370Y-50787D03*
X74803Y-50787D03*
G54D22*
X45150Y-43750D03*
G54D23*
X45150Y-46350D03*
X46050Y-46350D03*
X44250Y-46350D03*
G54D24*
X45674Y-32100D03*
X44926Y-32100D03*
X45674Y-38100D03*
X44926Y-38100D03*
G54D25*
X46801Y-47750D03*
X45699Y-47750D03*
X43499Y-47750D03*
X44601Y-47750D03*
G54D26*
X44277Y-35150D03*
X44277Y-35650D03*
X44277Y-36150D03*
X44277Y-36650D03*
X46323Y-36650D03*
X46323Y-36150D03*
X46323Y-35650D03*
X46323Y-35150D03*
G54D27*
X55666Y-34900D03*
X56334Y-34900D03*
G54D28*
X73500Y-37500D03*
X73500Y-44500D03*
X68800Y-47900D03*
X63400Y-47900D03*
G54D14*
X40354Y-46496D03*
X40354Y-45496D03*
X40354Y-47496D03*
G54D29*
X40200Y-36200D03*
X39200Y-37200D03*
X40200Y-38200D03*
G54D30*
X66900Y-30504D03*
X66900Y-43496D03*
X64100Y-30504D03*
X64100Y-43496D03*
M02*
