G04 (created by PCBNEW (2012-jan-04)-stable) date Sun 03 Jun 2012 03:22:56 AM CEST*
G01*
G70*
G90*
%MOIN*%
G04 Gerber Fmt 3.4, Leading zero omitted, Abs format*
%FSLAX34Y34*%
G04 APERTURE LIST*
%ADD10C,0.001000*%
%ADD11C,0.008000*%
G04 APERTURE END LIST*
G54D10*
G54D11*
X37402Y-52756D02*
X37402Y-13386D01*
X76772Y-52756D02*
X37402Y-52756D01*
X76772Y-13386D02*
X76772Y-52756D01*
X37402Y-13386D02*
X76772Y-13386D01*
G54D10*
X54757Y-37946D02*
X55077Y-38266D01*
X55077Y-37946D02*
X54757Y-38266D01*
X54757Y-40946D02*
X55077Y-41266D01*
X55077Y-40946D02*
X54757Y-41266D01*
X55757Y-37946D02*
X56077Y-38266D01*
X56077Y-37946D02*
X55757Y-38266D01*
X55757Y-40946D02*
X56077Y-41266D01*
X56077Y-40946D02*
X55757Y-41266D01*
X56757Y-37946D02*
X57077Y-38266D01*
X57077Y-37946D02*
X56757Y-38266D01*
X56757Y-40946D02*
X57077Y-41266D01*
X57077Y-40946D02*
X56757Y-41266D01*
X57757Y-37946D02*
X58077Y-38266D01*
X58077Y-37946D02*
X57757Y-38266D01*
X57757Y-40946D02*
X58077Y-41266D01*
X58077Y-40946D02*
X57757Y-41266D01*
X48413Y-27559D02*
X48409Y-27597D01*
X48397Y-27635D01*
X48379Y-27669D01*
X48354Y-27699D01*
X48324Y-27724D01*
X48290Y-27743D01*
X48253Y-27754D01*
X48214Y-27758D01*
X48176Y-27755D01*
X48139Y-27744D01*
X48104Y-27726D01*
X48074Y-27701D01*
X48048Y-27671D01*
X48030Y-27637D01*
X48018Y-27600D01*
X48014Y-27561D01*
X48017Y-27523D01*
X48028Y-27486D01*
X48045Y-27451D01*
X48070Y-27421D01*
X48099Y-27395D01*
X48133Y-27376D01*
X48171Y-27364D01*
X48209Y-27360D01*
X48247Y-27363D01*
X48285Y-27373D01*
X48320Y-27391D01*
X48350Y-27415D01*
X48376Y-27444D01*
X48395Y-27478D01*
X48408Y-27515D01*
X48412Y-27554D01*
X48413Y-27559D01*
X49413Y-27559D02*
X49409Y-27597D01*
X49397Y-27635D01*
X49379Y-27669D01*
X49354Y-27699D01*
X49324Y-27724D01*
X49290Y-27743D01*
X49253Y-27754D01*
X49214Y-27758D01*
X49176Y-27755D01*
X49139Y-27744D01*
X49104Y-27726D01*
X49074Y-27701D01*
X49048Y-27671D01*
X49030Y-27637D01*
X49018Y-27600D01*
X49014Y-27561D01*
X49017Y-27523D01*
X49028Y-27486D01*
X49045Y-27451D01*
X49070Y-27421D01*
X49099Y-27395D01*
X49133Y-27376D01*
X49171Y-27364D01*
X49209Y-27360D01*
X49247Y-27363D01*
X49285Y-27373D01*
X49320Y-27391D01*
X49350Y-27415D01*
X49376Y-27444D01*
X49395Y-27478D01*
X49408Y-27515D01*
X49412Y-27554D01*
X49413Y-27559D01*
X50413Y-27559D02*
X50409Y-27597D01*
X50397Y-27635D01*
X50379Y-27669D01*
X50354Y-27699D01*
X50324Y-27724D01*
X50290Y-27743D01*
X50253Y-27754D01*
X50214Y-27758D01*
X50176Y-27755D01*
X50139Y-27744D01*
X50104Y-27726D01*
X50074Y-27701D01*
X50048Y-27671D01*
X50030Y-27637D01*
X50018Y-27600D01*
X50014Y-27561D01*
X50017Y-27523D01*
X50028Y-27486D01*
X50045Y-27451D01*
X50070Y-27421D01*
X50099Y-27395D01*
X50133Y-27376D01*
X50171Y-27364D01*
X50209Y-27360D01*
X50247Y-27363D01*
X50285Y-27373D01*
X50320Y-27391D01*
X50350Y-27415D01*
X50376Y-27444D01*
X50395Y-27478D01*
X50408Y-27515D01*
X50412Y-27554D01*
X50413Y-27559D01*
X64161Y-27559D02*
X64157Y-27597D01*
X64145Y-27635D01*
X64127Y-27669D01*
X64102Y-27699D01*
X64072Y-27724D01*
X64038Y-27743D01*
X64001Y-27754D01*
X63962Y-27758D01*
X63924Y-27755D01*
X63887Y-27744D01*
X63852Y-27726D01*
X63822Y-27701D01*
X63796Y-27671D01*
X63778Y-27637D01*
X63766Y-27600D01*
X63762Y-27561D01*
X63765Y-27523D01*
X63776Y-27486D01*
X63793Y-27451D01*
X63818Y-27421D01*
X63847Y-27395D01*
X63881Y-27376D01*
X63919Y-27364D01*
X63957Y-27360D01*
X63995Y-27363D01*
X64033Y-27373D01*
X64068Y-27391D01*
X64098Y-27415D01*
X64124Y-27444D01*
X64143Y-27478D01*
X64156Y-27515D01*
X64160Y-27554D01*
X64161Y-27559D01*
X65161Y-27559D02*
X65157Y-27597D01*
X65145Y-27635D01*
X65127Y-27669D01*
X65102Y-27699D01*
X65072Y-27724D01*
X65038Y-27743D01*
X65001Y-27754D01*
X64962Y-27758D01*
X64924Y-27755D01*
X64887Y-27744D01*
X64852Y-27726D01*
X64822Y-27701D01*
X64796Y-27671D01*
X64778Y-27637D01*
X64766Y-27600D01*
X64762Y-27561D01*
X64765Y-27523D01*
X64776Y-27486D01*
X64793Y-27451D01*
X64818Y-27421D01*
X64847Y-27395D01*
X64881Y-27376D01*
X64919Y-27364D01*
X64957Y-27360D01*
X64995Y-27363D01*
X65033Y-27373D01*
X65068Y-27391D01*
X65098Y-27415D01*
X65124Y-27444D01*
X65143Y-27478D01*
X65156Y-27515D01*
X65160Y-27554D01*
X65161Y-27559D01*
X66161Y-27559D02*
X66157Y-27597D01*
X66145Y-27635D01*
X66127Y-27669D01*
X66102Y-27699D01*
X66072Y-27724D01*
X66038Y-27743D01*
X66001Y-27754D01*
X65962Y-27758D01*
X65924Y-27755D01*
X65887Y-27744D01*
X65852Y-27726D01*
X65822Y-27701D01*
X65796Y-27671D01*
X65778Y-27637D01*
X65766Y-27600D01*
X65762Y-27561D01*
X65765Y-27523D01*
X65776Y-27486D01*
X65793Y-27451D01*
X65818Y-27421D01*
X65847Y-27395D01*
X65881Y-27376D01*
X65919Y-27364D01*
X65957Y-27360D01*
X65995Y-27363D01*
X66033Y-27373D01*
X66068Y-27391D01*
X66098Y-27415D01*
X66124Y-27444D01*
X66143Y-27478D01*
X66156Y-27515D01*
X66160Y-27554D01*
X66161Y-27559D01*
X62169Y-34396D02*
X62169Y-34896D01*
X62419Y-34646D02*
X61919Y-34646D01*
X62169Y-36876D02*
X62169Y-37376D01*
X62419Y-37126D02*
X61919Y-37126D01*
X62720Y-45341D02*
X62720Y-45841D01*
X62970Y-45591D02*
X62470Y-45591D01*
X63075Y-41285D02*
X63075Y-41785D01*
X63325Y-41535D02*
X62825Y-41535D01*
X69169Y-34396D02*
X69169Y-34896D01*
X69419Y-34646D02*
X68919Y-34646D01*
X69169Y-36876D02*
X69169Y-37376D01*
X69419Y-37126D02*
X68919Y-37126D01*
X69720Y-45341D02*
X69720Y-45841D01*
X69970Y-45591D02*
X69470Y-45591D01*
X70075Y-41285D02*
X70075Y-41785D01*
X70325Y-41535D02*
X69825Y-41535D01*
X39970Y-15354D02*
X39958Y-15470D01*
X39924Y-15582D01*
X39869Y-15686D01*
X39795Y-15776D01*
X39705Y-15851D01*
X39602Y-15907D01*
X39490Y-15941D01*
X39374Y-15953D01*
X39258Y-15943D01*
X39146Y-15910D01*
X39042Y-15856D01*
X38951Y-15782D01*
X38875Y-15692D01*
X38819Y-15590D01*
X38784Y-15478D01*
X38771Y-15362D01*
X38780Y-15246D01*
X38813Y-15134D01*
X38866Y-15029D01*
X38939Y-14938D01*
X39028Y-14862D01*
X39130Y-14805D01*
X39242Y-14768D01*
X39358Y-14755D01*
X39474Y-14764D01*
X39586Y-14795D01*
X39691Y-14848D01*
X39783Y-14920D01*
X39860Y-15009D01*
X39918Y-15110D01*
X39955Y-15222D01*
X39969Y-15338D01*
X39970Y-15354D01*
X38770Y-14754D02*
X39970Y-15954D01*
X39970Y-14754D02*
X38770Y-15954D01*
X39970Y-50787D02*
X39958Y-50903D01*
X39924Y-51015D01*
X39869Y-51119D01*
X39795Y-51209D01*
X39705Y-51284D01*
X39602Y-51340D01*
X39490Y-51374D01*
X39374Y-51386D01*
X39258Y-51376D01*
X39146Y-51343D01*
X39042Y-51289D01*
X38951Y-51215D01*
X38875Y-51125D01*
X38819Y-51023D01*
X38784Y-50911D01*
X38771Y-50795D01*
X38780Y-50679D01*
X38813Y-50567D01*
X38866Y-50462D01*
X38939Y-50371D01*
X39028Y-50295D01*
X39130Y-50238D01*
X39242Y-50201D01*
X39358Y-50188D01*
X39474Y-50197D01*
X39586Y-50228D01*
X39691Y-50281D01*
X39783Y-50353D01*
X39860Y-50442D01*
X39918Y-50543D01*
X39955Y-50655D01*
X39969Y-50771D01*
X39970Y-50787D01*
X38770Y-50187D02*
X39970Y-51387D01*
X39970Y-50187D02*
X38770Y-51387D01*
X75403Y-15354D02*
X75391Y-15470D01*
X75357Y-15582D01*
X75302Y-15686D01*
X75228Y-15776D01*
X75138Y-15851D01*
X75035Y-15907D01*
X74923Y-15941D01*
X74807Y-15953D01*
X74691Y-15943D01*
X74579Y-15910D01*
X74475Y-15856D01*
X74384Y-15782D01*
X74308Y-15692D01*
X74252Y-15590D01*
X74217Y-15478D01*
X74204Y-15362D01*
X74213Y-15246D01*
X74246Y-15134D01*
X74299Y-15029D01*
X74372Y-14938D01*
X74461Y-14862D01*
X74563Y-14805D01*
X74675Y-14768D01*
X74791Y-14755D01*
X74907Y-14764D01*
X75019Y-14795D01*
X75124Y-14848D01*
X75216Y-14920D01*
X75293Y-15009D01*
X75351Y-15110D01*
X75388Y-15222D01*
X75402Y-15338D01*
X75403Y-15354D01*
X74203Y-14754D02*
X75403Y-15954D01*
X75403Y-14754D02*
X74203Y-15954D01*
X75403Y-50787D02*
X75391Y-50903D01*
X75357Y-51015D01*
X75302Y-51119D01*
X75228Y-51209D01*
X75138Y-51284D01*
X75035Y-51340D01*
X74923Y-51374D01*
X74807Y-51386D01*
X74691Y-51376D01*
X74579Y-51343D01*
X74475Y-51289D01*
X74384Y-51215D01*
X74308Y-51125D01*
X74252Y-51023D01*
X74217Y-50911D01*
X74204Y-50795D01*
X74213Y-50679D01*
X74246Y-50567D01*
X74299Y-50462D01*
X74372Y-50371D01*
X74461Y-50295D01*
X74563Y-50238D01*
X74675Y-50201D01*
X74791Y-50188D01*
X74907Y-50197D01*
X75019Y-50228D01*
X75124Y-50281D01*
X75216Y-50353D01*
X75293Y-50442D01*
X75351Y-50543D01*
X75388Y-50655D01*
X75402Y-50771D01*
X75403Y-50787D01*
X74203Y-50187D02*
X75403Y-51387D01*
X75403Y-50187D02*
X74203Y-51387D01*
X42126Y-25118D02*
X42111Y-25270D01*
X42066Y-25417D01*
X41994Y-25553D01*
X41897Y-25672D01*
X41779Y-25770D01*
X41643Y-25843D01*
X41497Y-25888D01*
X41344Y-25904D01*
X41192Y-25891D01*
X41045Y-25847D01*
X40909Y-25776D01*
X40789Y-25680D01*
X40690Y-25562D01*
X40616Y-25428D01*
X40570Y-25281D01*
X40553Y-25128D01*
X40565Y-24976D01*
X40608Y-24829D01*
X40678Y-24692D01*
X40773Y-24572D01*
X40890Y-24472D01*
X41024Y-24397D01*
X41171Y-24350D01*
X41323Y-24332D01*
X41475Y-24343D01*
X41623Y-24385D01*
X41760Y-24454D01*
X41881Y-24549D01*
X41982Y-24665D01*
X42057Y-24798D01*
X42106Y-24944D01*
X42125Y-25097D01*
X42126Y-25118D01*
X40552Y-25118D02*
X42126Y-25118D01*
X57874Y-25118D02*
X57859Y-25270D01*
X57814Y-25417D01*
X57742Y-25553D01*
X57645Y-25672D01*
X57527Y-25770D01*
X57391Y-25843D01*
X57245Y-25888D01*
X57092Y-25904D01*
X56940Y-25891D01*
X56793Y-25847D01*
X56657Y-25776D01*
X56537Y-25680D01*
X56438Y-25562D01*
X56364Y-25428D01*
X56318Y-25281D01*
X56301Y-25128D01*
X56313Y-24976D01*
X56356Y-24829D01*
X56426Y-24692D01*
X56521Y-24572D01*
X56638Y-24472D01*
X56772Y-24397D01*
X56919Y-24350D01*
X57071Y-24332D01*
X57223Y-24343D01*
X57371Y-24385D01*
X57508Y-24454D01*
X57629Y-24549D01*
X57730Y-24665D01*
X57805Y-24798D01*
X57854Y-24944D01*
X57873Y-25097D01*
X57874Y-25118D01*
X56300Y-25118D02*
X57874Y-25118D01*
X73622Y-25118D02*
X73607Y-25270D01*
X73562Y-25417D01*
X73490Y-25553D01*
X73393Y-25672D01*
X73275Y-25770D01*
X73139Y-25843D01*
X72993Y-25888D01*
X72840Y-25904D01*
X72688Y-25891D01*
X72541Y-25847D01*
X72405Y-25776D01*
X72285Y-25680D01*
X72186Y-25562D01*
X72112Y-25428D01*
X72066Y-25281D01*
X72049Y-25128D01*
X72061Y-24976D01*
X72104Y-24829D01*
X72174Y-24692D01*
X72269Y-24572D01*
X72386Y-24472D01*
X72520Y-24397D01*
X72667Y-24350D01*
X72819Y-24332D01*
X72971Y-24343D01*
X73119Y-24385D01*
X73256Y-24454D01*
X73377Y-24549D01*
X73478Y-24665D01*
X73553Y-24798D01*
X73602Y-24944D01*
X73621Y-25097D01*
X73622Y-25118D01*
X72048Y-25118D02*
X73622Y-25118D01*
G54D11*
X37711Y-54041D02*
X37711Y-53241D01*
X37902Y-53241D01*
X38016Y-53279D01*
X38092Y-53355D01*
X38131Y-53431D01*
X38169Y-53584D01*
X38169Y-53698D01*
X38131Y-53850D01*
X38092Y-53927D01*
X38016Y-54003D01*
X37902Y-54041D01*
X37711Y-54041D01*
X38511Y-54041D02*
X38511Y-53507D01*
X38511Y-53660D02*
X38550Y-53584D01*
X38588Y-53546D01*
X38664Y-53507D01*
X38740Y-53507D01*
X39006Y-54041D02*
X39006Y-53507D01*
X39006Y-53241D02*
X38968Y-53279D01*
X39006Y-53317D01*
X39045Y-53279D01*
X39006Y-53241D01*
X39006Y-53317D01*
X39502Y-54041D02*
X39426Y-54003D01*
X39387Y-53927D01*
X39387Y-53241D01*
X39921Y-54041D02*
X39845Y-54003D01*
X39806Y-53927D01*
X39806Y-53241D01*
X40835Y-54041D02*
X40835Y-53241D01*
X41102Y-53812D01*
X41369Y-53241D01*
X41369Y-54041D01*
X42092Y-54041D02*
X42092Y-53622D01*
X42054Y-53546D01*
X41978Y-53507D01*
X41826Y-53507D01*
X41749Y-53546D01*
X42092Y-54003D02*
X42016Y-54041D01*
X41826Y-54041D01*
X41749Y-54003D01*
X41711Y-53927D01*
X41711Y-53850D01*
X41749Y-53774D01*
X41826Y-53736D01*
X42016Y-53736D01*
X42092Y-53698D01*
X42473Y-53507D02*
X42473Y-54307D01*
X42473Y-53546D02*
X42550Y-53507D01*
X42702Y-53507D01*
X42778Y-53546D01*
X42816Y-53584D01*
X42854Y-53660D01*
X42854Y-53888D01*
X42816Y-53965D01*
X42778Y-54003D01*
X42702Y-54041D01*
X42550Y-54041D01*
X42473Y-54003D01*
X43197Y-53965D02*
X43236Y-54003D01*
X43197Y-54041D01*
X43159Y-54003D01*
X43197Y-53965D01*
X43197Y-54041D01*
X43197Y-53546D02*
X43236Y-53584D01*
X43197Y-53622D01*
X43159Y-53584D01*
X43197Y-53546D01*
X43197Y-53622D01*
X37001Y-55237D02*
X37321Y-55557D01*
X37321Y-55237D02*
X37001Y-55557D01*
X37864Y-54921D02*
X37940Y-54921D01*
X38016Y-54959D01*
X38054Y-54997D01*
X38092Y-55073D01*
X38131Y-55226D01*
X38131Y-55416D01*
X38092Y-55568D01*
X38054Y-55645D01*
X38016Y-55683D01*
X37940Y-55721D01*
X37864Y-55721D01*
X37788Y-55683D01*
X37750Y-55645D01*
X37711Y-55568D01*
X37673Y-55416D01*
X37673Y-55226D01*
X37711Y-55073D01*
X37750Y-54997D01*
X37788Y-54959D01*
X37864Y-54921D01*
X38473Y-55645D02*
X38512Y-55683D01*
X38473Y-55721D01*
X38435Y-55683D01*
X38473Y-55645D01*
X38473Y-55721D01*
X39007Y-54921D02*
X39083Y-54921D01*
X39159Y-54959D01*
X39197Y-54997D01*
X39235Y-55073D01*
X39274Y-55226D01*
X39274Y-55416D01*
X39235Y-55568D01*
X39197Y-55645D01*
X39159Y-55683D01*
X39083Y-55721D01*
X39007Y-55721D01*
X38931Y-55683D01*
X38893Y-55645D01*
X38854Y-55568D01*
X38816Y-55416D01*
X38816Y-55226D01*
X38854Y-55073D01*
X38893Y-54997D01*
X38931Y-54959D01*
X39007Y-54921D01*
X39540Y-54921D02*
X40036Y-54921D01*
X39769Y-55226D01*
X39883Y-55226D01*
X39959Y-55264D01*
X39997Y-55302D01*
X40036Y-55378D01*
X40036Y-55568D01*
X39997Y-55645D01*
X39959Y-55683D01*
X39883Y-55721D01*
X39655Y-55721D01*
X39578Y-55683D01*
X39540Y-55645D01*
X40340Y-54997D02*
X40378Y-54959D01*
X40455Y-54921D01*
X40645Y-54921D01*
X40721Y-54959D01*
X40759Y-54997D01*
X40798Y-55073D01*
X40798Y-55149D01*
X40759Y-55264D01*
X40302Y-55721D01*
X40798Y-55721D01*
X41102Y-54921D02*
X41102Y-55073D01*
X41407Y-54921D02*
X41407Y-55073D01*
X42932Y-54883D02*
X42246Y-55911D01*
X43961Y-54921D02*
X44037Y-54921D01*
X44113Y-54959D01*
X44151Y-54997D01*
X44189Y-55073D01*
X44228Y-55226D01*
X44228Y-55416D01*
X44189Y-55568D01*
X44151Y-55645D01*
X44113Y-55683D01*
X44037Y-55721D01*
X43961Y-55721D01*
X43885Y-55683D01*
X43847Y-55645D01*
X43808Y-55568D01*
X43770Y-55416D01*
X43770Y-55226D01*
X43808Y-55073D01*
X43847Y-54997D01*
X43885Y-54959D01*
X43961Y-54921D01*
X44570Y-55645D02*
X44609Y-55683D01*
X44570Y-55721D01*
X44532Y-55683D01*
X44570Y-55645D01*
X44570Y-55721D01*
X45066Y-55264D02*
X44990Y-55226D01*
X44951Y-55187D01*
X44913Y-55111D01*
X44913Y-55073D01*
X44951Y-54997D01*
X44990Y-54959D01*
X45066Y-54921D01*
X45218Y-54921D01*
X45294Y-54959D01*
X45332Y-54997D01*
X45371Y-55073D01*
X45371Y-55111D01*
X45332Y-55187D01*
X45294Y-55226D01*
X45218Y-55264D01*
X45066Y-55264D01*
X44990Y-55302D01*
X44951Y-55340D01*
X44913Y-55416D01*
X44913Y-55568D01*
X44951Y-55645D01*
X44990Y-55683D01*
X45066Y-55721D01*
X45218Y-55721D01*
X45294Y-55683D01*
X45332Y-55645D01*
X45371Y-55568D01*
X45371Y-55416D01*
X45332Y-55340D01*
X45294Y-55302D01*
X45218Y-55264D01*
X46133Y-55721D02*
X45675Y-55721D01*
X45904Y-55721D02*
X45904Y-54921D01*
X45828Y-55035D01*
X45752Y-55111D01*
X45675Y-55149D01*
X46475Y-55721D02*
X46475Y-55187D01*
X46475Y-55264D02*
X46514Y-55226D01*
X46590Y-55187D01*
X46704Y-55187D01*
X46780Y-55226D01*
X46818Y-55302D01*
X46818Y-55721D01*
X46818Y-55302D02*
X46856Y-55226D01*
X46933Y-55187D01*
X47047Y-55187D01*
X47123Y-55226D01*
X47161Y-55302D01*
X47161Y-55721D01*
X47542Y-55721D02*
X47542Y-55187D01*
X47542Y-55264D02*
X47581Y-55226D01*
X47657Y-55187D01*
X47771Y-55187D01*
X47847Y-55226D01*
X47885Y-55302D01*
X47885Y-55721D01*
X47885Y-55302D02*
X47923Y-55226D01*
X48000Y-55187D01*
X48114Y-55187D01*
X48190Y-55226D01*
X48228Y-55302D01*
X48228Y-55721D01*
X49448Y-56026D02*
X49410Y-55987D01*
X49334Y-55873D01*
X49296Y-55797D01*
X49258Y-55683D01*
X49219Y-55492D01*
X49219Y-55340D01*
X49258Y-55149D01*
X49296Y-55035D01*
X49334Y-54959D01*
X49410Y-54845D01*
X49448Y-54807D01*
X49867Y-55264D02*
X49791Y-55226D01*
X49752Y-55187D01*
X49714Y-55111D01*
X49714Y-55073D01*
X49752Y-54997D01*
X49791Y-54959D01*
X49867Y-54921D01*
X50019Y-54921D01*
X50095Y-54959D01*
X50133Y-54997D01*
X50172Y-55073D01*
X50172Y-55111D01*
X50133Y-55187D01*
X50095Y-55226D01*
X50019Y-55264D01*
X49867Y-55264D01*
X49791Y-55302D01*
X49752Y-55340D01*
X49714Y-55416D01*
X49714Y-55568D01*
X49752Y-55645D01*
X49791Y-55683D01*
X49867Y-55721D01*
X50019Y-55721D01*
X50095Y-55683D01*
X50133Y-55645D01*
X50172Y-55568D01*
X50172Y-55416D01*
X50133Y-55340D01*
X50095Y-55302D01*
X50019Y-55264D01*
X51124Y-55721D02*
X51124Y-54921D01*
X51467Y-55721D02*
X51467Y-55302D01*
X51429Y-55226D01*
X51353Y-55187D01*
X51239Y-55187D01*
X51163Y-55226D01*
X51124Y-55264D01*
X51963Y-55721D02*
X51887Y-55683D01*
X51848Y-55645D01*
X51810Y-55568D01*
X51810Y-55340D01*
X51848Y-55264D01*
X51887Y-55226D01*
X51963Y-55187D01*
X52077Y-55187D01*
X52153Y-55226D01*
X52191Y-55264D01*
X52229Y-55340D01*
X52229Y-55568D01*
X52191Y-55645D01*
X52153Y-55683D01*
X52077Y-55721D01*
X51963Y-55721D01*
X52687Y-55721D02*
X52611Y-55683D01*
X52572Y-55607D01*
X52572Y-54921D01*
X53296Y-55683D02*
X53220Y-55721D01*
X53068Y-55721D01*
X52991Y-55683D01*
X52953Y-55607D01*
X52953Y-55302D01*
X52991Y-55226D01*
X53068Y-55187D01*
X53220Y-55187D01*
X53296Y-55226D01*
X53334Y-55302D01*
X53334Y-55378D01*
X52953Y-55454D01*
X53639Y-55683D02*
X53716Y-55721D01*
X53868Y-55721D01*
X53944Y-55683D01*
X53982Y-55607D01*
X53982Y-55568D01*
X53944Y-55492D01*
X53868Y-55454D01*
X53754Y-55454D01*
X53677Y-55416D01*
X53639Y-55340D01*
X53639Y-55302D01*
X53677Y-55226D01*
X53754Y-55187D01*
X53868Y-55187D01*
X53944Y-55226D01*
X54249Y-56026D02*
X54287Y-55987D01*
X54364Y-55873D01*
X54402Y-55797D01*
X54440Y-55683D01*
X54478Y-55492D01*
X54478Y-55340D01*
X54440Y-55149D01*
X54402Y-55035D01*
X54364Y-54959D01*
X54287Y-54845D01*
X54249Y-54807D01*
G54D10*
X37321Y-56452D02*
X37317Y-56490D01*
X37305Y-56528D01*
X37287Y-56562D01*
X37262Y-56592D01*
X37232Y-56617D01*
X37198Y-56636D01*
X37161Y-56647D01*
X37122Y-56651D01*
X37084Y-56648D01*
X37047Y-56637D01*
X37012Y-56619D01*
X36982Y-56594D01*
X36956Y-56564D01*
X36938Y-56530D01*
X36926Y-56493D01*
X36922Y-56454D01*
X36925Y-56416D01*
X36936Y-56379D01*
X36953Y-56344D01*
X36978Y-56314D01*
X37007Y-56288D01*
X37041Y-56269D01*
X37079Y-56257D01*
X37117Y-56253D01*
X37155Y-56256D01*
X37193Y-56266D01*
X37228Y-56284D01*
X37258Y-56308D01*
X37284Y-56337D01*
X37303Y-56371D01*
X37316Y-56408D01*
X37320Y-56447D01*
X37321Y-56452D01*
G54D11*
X37864Y-55976D02*
X37940Y-55976D01*
X38016Y-56014D01*
X38054Y-56052D01*
X38092Y-56128D01*
X38131Y-56281D01*
X38131Y-56471D01*
X38092Y-56623D01*
X38054Y-56700D01*
X38016Y-56738D01*
X37940Y-56776D01*
X37864Y-56776D01*
X37788Y-56738D01*
X37750Y-56700D01*
X37711Y-56623D01*
X37673Y-56471D01*
X37673Y-56281D01*
X37711Y-56128D01*
X37750Y-56052D01*
X37788Y-56014D01*
X37864Y-55976D01*
X38473Y-56700D02*
X38512Y-56738D01*
X38473Y-56776D01*
X38435Y-56738D01*
X38473Y-56700D01*
X38473Y-56776D01*
X39007Y-55976D02*
X39083Y-55976D01*
X39159Y-56014D01*
X39197Y-56052D01*
X39235Y-56128D01*
X39274Y-56281D01*
X39274Y-56471D01*
X39235Y-56623D01*
X39197Y-56700D01*
X39159Y-56738D01*
X39083Y-56776D01*
X39007Y-56776D01*
X38931Y-56738D01*
X38893Y-56700D01*
X38854Y-56623D01*
X38816Y-56471D01*
X38816Y-56281D01*
X38854Y-56128D01*
X38893Y-56052D01*
X38931Y-56014D01*
X39007Y-55976D01*
X39959Y-56242D02*
X39959Y-56776D01*
X39769Y-55938D02*
X39578Y-56509D01*
X40074Y-56509D01*
X40531Y-55976D02*
X40607Y-55976D01*
X40683Y-56014D01*
X40721Y-56052D01*
X40759Y-56128D01*
X40798Y-56281D01*
X40798Y-56471D01*
X40759Y-56623D01*
X40721Y-56700D01*
X40683Y-56738D01*
X40607Y-56776D01*
X40531Y-56776D01*
X40455Y-56738D01*
X40417Y-56700D01*
X40378Y-56623D01*
X40340Y-56471D01*
X40340Y-56281D01*
X40378Y-56128D01*
X40417Y-56052D01*
X40455Y-56014D01*
X40531Y-55976D01*
X41102Y-55976D02*
X41102Y-56128D01*
X41407Y-55976D02*
X41407Y-56128D01*
X42932Y-55938D02*
X42246Y-56966D01*
X44228Y-56776D02*
X43770Y-56776D01*
X43999Y-56776D02*
X43999Y-55976D01*
X43923Y-56090D01*
X43847Y-56166D01*
X43770Y-56204D01*
X44570Y-56700D02*
X44609Y-56738D01*
X44570Y-56776D01*
X44532Y-56738D01*
X44570Y-56700D01*
X44570Y-56776D01*
X45104Y-55976D02*
X45180Y-55976D01*
X45256Y-56014D01*
X45294Y-56052D01*
X45332Y-56128D01*
X45371Y-56281D01*
X45371Y-56471D01*
X45332Y-56623D01*
X45294Y-56700D01*
X45256Y-56738D01*
X45180Y-56776D01*
X45104Y-56776D01*
X45028Y-56738D01*
X44990Y-56700D01*
X44951Y-56623D01*
X44913Y-56471D01*
X44913Y-56281D01*
X44951Y-56128D01*
X44990Y-56052D01*
X45028Y-56014D01*
X45104Y-55976D01*
X45675Y-56052D02*
X45713Y-56014D01*
X45790Y-55976D01*
X45980Y-55976D01*
X46056Y-56014D01*
X46094Y-56052D01*
X46133Y-56128D01*
X46133Y-56204D01*
X46094Y-56319D01*
X45637Y-56776D01*
X46133Y-56776D01*
X46475Y-56776D02*
X46475Y-56242D01*
X46475Y-56319D02*
X46514Y-56281D01*
X46590Y-56242D01*
X46704Y-56242D01*
X46780Y-56281D01*
X46818Y-56357D01*
X46818Y-56776D01*
X46818Y-56357D02*
X46856Y-56281D01*
X46933Y-56242D01*
X47047Y-56242D01*
X47123Y-56281D01*
X47161Y-56357D01*
X47161Y-56776D01*
X47542Y-56776D02*
X47542Y-56242D01*
X47542Y-56319D02*
X47581Y-56281D01*
X47657Y-56242D01*
X47771Y-56242D01*
X47847Y-56281D01*
X47885Y-56357D01*
X47885Y-56776D01*
X47885Y-56357D02*
X47923Y-56281D01*
X48000Y-56242D01*
X48114Y-56242D01*
X48190Y-56281D01*
X48228Y-56357D01*
X48228Y-56776D01*
X49448Y-57081D02*
X49410Y-57042D01*
X49334Y-56928D01*
X49296Y-56852D01*
X49258Y-56738D01*
X49219Y-56547D01*
X49219Y-56395D01*
X49258Y-56204D01*
X49296Y-56090D01*
X49334Y-56014D01*
X49410Y-55900D01*
X49448Y-55862D01*
X50095Y-55976D02*
X49943Y-55976D01*
X49867Y-56014D01*
X49829Y-56052D01*
X49752Y-56166D01*
X49714Y-56319D01*
X49714Y-56623D01*
X49752Y-56700D01*
X49791Y-56738D01*
X49867Y-56776D01*
X50019Y-56776D01*
X50095Y-56738D01*
X50133Y-56700D01*
X50172Y-56623D01*
X50172Y-56433D01*
X50133Y-56357D01*
X50095Y-56319D01*
X50019Y-56281D01*
X49867Y-56281D01*
X49791Y-56319D01*
X49752Y-56357D01*
X49714Y-56433D01*
X51124Y-56776D02*
X51124Y-55976D01*
X51467Y-56776D02*
X51467Y-56357D01*
X51429Y-56281D01*
X51353Y-56242D01*
X51239Y-56242D01*
X51163Y-56281D01*
X51124Y-56319D01*
X51963Y-56776D02*
X51887Y-56738D01*
X51848Y-56700D01*
X51810Y-56623D01*
X51810Y-56395D01*
X51848Y-56319D01*
X51887Y-56281D01*
X51963Y-56242D01*
X52077Y-56242D01*
X52153Y-56281D01*
X52191Y-56319D01*
X52229Y-56395D01*
X52229Y-56623D01*
X52191Y-56700D01*
X52153Y-56738D01*
X52077Y-56776D01*
X51963Y-56776D01*
X52687Y-56776D02*
X52611Y-56738D01*
X52572Y-56662D01*
X52572Y-55976D01*
X53296Y-56738D02*
X53220Y-56776D01*
X53068Y-56776D01*
X52991Y-56738D01*
X52953Y-56662D01*
X52953Y-56357D01*
X52991Y-56281D01*
X53068Y-56242D01*
X53220Y-56242D01*
X53296Y-56281D01*
X53334Y-56357D01*
X53334Y-56433D01*
X52953Y-56509D01*
X53639Y-56738D02*
X53716Y-56776D01*
X53868Y-56776D01*
X53944Y-56738D01*
X53982Y-56662D01*
X53982Y-56623D01*
X53944Y-56547D01*
X53868Y-56509D01*
X53754Y-56509D01*
X53677Y-56471D01*
X53639Y-56395D01*
X53639Y-56357D01*
X53677Y-56281D01*
X53754Y-56242D01*
X53868Y-56242D01*
X53944Y-56281D01*
X54249Y-57081D02*
X54287Y-57042D01*
X54364Y-56928D01*
X54402Y-56852D01*
X54440Y-56738D01*
X54478Y-56547D01*
X54478Y-56395D01*
X54440Y-56204D01*
X54402Y-56090D01*
X54364Y-56014D01*
X54287Y-55900D01*
X54249Y-55862D01*
X37071Y-57257D02*
X37071Y-57757D01*
X37321Y-57507D02*
X36821Y-57507D01*
X37864Y-57031D02*
X37940Y-57031D01*
X38016Y-57069D01*
X38054Y-57107D01*
X38092Y-57183D01*
X38131Y-57336D01*
X38131Y-57526D01*
X38092Y-57678D01*
X38054Y-57755D01*
X38016Y-57793D01*
X37940Y-57831D01*
X37864Y-57831D01*
X37788Y-57793D01*
X37750Y-57755D01*
X37711Y-57678D01*
X37673Y-57526D01*
X37673Y-57336D01*
X37711Y-57183D01*
X37750Y-57107D01*
X37788Y-57069D01*
X37864Y-57031D01*
X38473Y-57755D02*
X38512Y-57793D01*
X38473Y-57831D01*
X38435Y-57793D01*
X38473Y-57755D01*
X38473Y-57831D01*
X39007Y-57031D02*
X39083Y-57031D01*
X39159Y-57069D01*
X39197Y-57107D01*
X39235Y-57183D01*
X39274Y-57336D01*
X39274Y-57526D01*
X39235Y-57678D01*
X39197Y-57755D01*
X39159Y-57793D01*
X39083Y-57831D01*
X39007Y-57831D01*
X38931Y-57793D01*
X38893Y-57755D01*
X38854Y-57678D01*
X38816Y-57526D01*
X38816Y-57336D01*
X38854Y-57183D01*
X38893Y-57107D01*
X38931Y-57069D01*
X39007Y-57031D01*
X39997Y-57031D02*
X39616Y-57031D01*
X39578Y-57412D01*
X39616Y-57374D01*
X39693Y-57336D01*
X39883Y-57336D01*
X39959Y-57374D01*
X39997Y-57412D01*
X40036Y-57488D01*
X40036Y-57678D01*
X39997Y-57755D01*
X39959Y-57793D01*
X39883Y-57831D01*
X39693Y-57831D01*
X39616Y-57793D01*
X39578Y-57755D01*
X40531Y-57031D02*
X40607Y-57031D01*
X40683Y-57069D01*
X40721Y-57107D01*
X40759Y-57183D01*
X40798Y-57336D01*
X40798Y-57526D01*
X40759Y-57678D01*
X40721Y-57755D01*
X40683Y-57793D01*
X40607Y-57831D01*
X40531Y-57831D01*
X40455Y-57793D01*
X40417Y-57755D01*
X40378Y-57678D01*
X40340Y-57526D01*
X40340Y-57336D01*
X40378Y-57183D01*
X40417Y-57107D01*
X40455Y-57069D01*
X40531Y-57031D01*
X41102Y-57031D02*
X41102Y-57183D01*
X41407Y-57031D02*
X41407Y-57183D01*
X42932Y-56993D02*
X42246Y-58021D01*
X44228Y-57831D02*
X43770Y-57831D01*
X43999Y-57831D02*
X43999Y-57031D01*
X43923Y-57145D01*
X43847Y-57221D01*
X43770Y-57259D01*
X44570Y-57755D02*
X44609Y-57793D01*
X44570Y-57831D01*
X44532Y-57793D01*
X44570Y-57755D01*
X44570Y-57831D01*
X44913Y-57107D02*
X44951Y-57069D01*
X45028Y-57031D01*
X45218Y-57031D01*
X45294Y-57069D01*
X45332Y-57107D01*
X45371Y-57183D01*
X45371Y-57259D01*
X45332Y-57374D01*
X44875Y-57831D01*
X45371Y-57831D01*
X45637Y-57031D02*
X46171Y-57031D01*
X45828Y-57831D01*
X46475Y-57831D02*
X46475Y-57297D01*
X46475Y-57374D02*
X46514Y-57336D01*
X46590Y-57297D01*
X46704Y-57297D01*
X46780Y-57336D01*
X46818Y-57412D01*
X46818Y-57831D01*
X46818Y-57412D02*
X46856Y-57336D01*
X46933Y-57297D01*
X47047Y-57297D01*
X47123Y-57336D01*
X47161Y-57412D01*
X47161Y-57831D01*
X47542Y-57831D02*
X47542Y-57297D01*
X47542Y-57374D02*
X47581Y-57336D01*
X47657Y-57297D01*
X47771Y-57297D01*
X47847Y-57336D01*
X47885Y-57412D01*
X47885Y-57831D01*
X47885Y-57412D02*
X47923Y-57336D01*
X48000Y-57297D01*
X48114Y-57297D01*
X48190Y-57336D01*
X48228Y-57412D01*
X48228Y-57831D01*
X49448Y-58136D02*
X49410Y-58097D01*
X49334Y-57983D01*
X49296Y-57907D01*
X49258Y-57793D01*
X49219Y-57602D01*
X49219Y-57450D01*
X49258Y-57259D01*
X49296Y-57145D01*
X49334Y-57069D01*
X49410Y-56955D01*
X49448Y-56917D01*
X49867Y-57374D02*
X49791Y-57336D01*
X49752Y-57297D01*
X49714Y-57221D01*
X49714Y-57183D01*
X49752Y-57107D01*
X49791Y-57069D01*
X49867Y-57031D01*
X50019Y-57031D01*
X50095Y-57069D01*
X50133Y-57107D01*
X50172Y-57183D01*
X50172Y-57221D01*
X50133Y-57297D01*
X50095Y-57336D01*
X50019Y-57374D01*
X49867Y-57374D01*
X49791Y-57412D01*
X49752Y-57450D01*
X49714Y-57526D01*
X49714Y-57678D01*
X49752Y-57755D01*
X49791Y-57793D01*
X49867Y-57831D01*
X50019Y-57831D01*
X50095Y-57793D01*
X50133Y-57755D01*
X50172Y-57678D01*
X50172Y-57526D01*
X50133Y-57450D01*
X50095Y-57412D01*
X50019Y-57374D01*
X51124Y-57831D02*
X51124Y-57031D01*
X51467Y-57831D02*
X51467Y-57412D01*
X51429Y-57336D01*
X51353Y-57297D01*
X51239Y-57297D01*
X51163Y-57336D01*
X51124Y-57374D01*
X51963Y-57831D02*
X51887Y-57793D01*
X51848Y-57755D01*
X51810Y-57678D01*
X51810Y-57450D01*
X51848Y-57374D01*
X51887Y-57336D01*
X51963Y-57297D01*
X52077Y-57297D01*
X52153Y-57336D01*
X52191Y-57374D01*
X52229Y-57450D01*
X52229Y-57678D01*
X52191Y-57755D01*
X52153Y-57793D01*
X52077Y-57831D01*
X51963Y-57831D01*
X52687Y-57831D02*
X52611Y-57793D01*
X52572Y-57717D01*
X52572Y-57031D01*
X53296Y-57793D02*
X53220Y-57831D01*
X53068Y-57831D01*
X52991Y-57793D01*
X52953Y-57717D01*
X52953Y-57412D01*
X52991Y-57336D01*
X53068Y-57297D01*
X53220Y-57297D01*
X53296Y-57336D01*
X53334Y-57412D01*
X53334Y-57488D01*
X52953Y-57564D01*
X53639Y-57793D02*
X53716Y-57831D01*
X53868Y-57831D01*
X53944Y-57793D01*
X53982Y-57717D01*
X53982Y-57678D01*
X53944Y-57602D01*
X53868Y-57564D01*
X53754Y-57564D01*
X53677Y-57526D01*
X53639Y-57450D01*
X53639Y-57412D01*
X53677Y-57336D01*
X53754Y-57297D01*
X53868Y-57297D01*
X53944Y-57336D01*
X54249Y-58136D02*
X54287Y-58097D01*
X54364Y-57983D01*
X54402Y-57907D01*
X54440Y-57793D01*
X54478Y-57602D01*
X54478Y-57450D01*
X54440Y-57259D01*
X54402Y-57145D01*
X54364Y-57069D01*
X54287Y-56955D01*
X54249Y-56917D01*
G54D10*
X37321Y-58562D02*
X37309Y-58678D01*
X37275Y-58790D01*
X37220Y-58894D01*
X37146Y-58984D01*
X37056Y-59059D01*
X36953Y-59115D01*
X36841Y-59149D01*
X36725Y-59161D01*
X36609Y-59151D01*
X36497Y-59118D01*
X36393Y-59064D01*
X36302Y-58990D01*
X36226Y-58900D01*
X36170Y-58798D01*
X36135Y-58686D01*
X36122Y-58570D01*
X36131Y-58454D01*
X36164Y-58342D01*
X36217Y-58237D01*
X36290Y-58146D01*
X36379Y-58070D01*
X36481Y-58013D01*
X36593Y-57976D01*
X36709Y-57963D01*
X36825Y-57972D01*
X36937Y-58003D01*
X37042Y-58056D01*
X37134Y-58128D01*
X37211Y-58217D01*
X37269Y-58318D01*
X37306Y-58430D01*
X37320Y-58546D01*
X37321Y-58562D01*
X36121Y-57962D02*
X37321Y-59162D01*
X37321Y-57962D02*
X36121Y-59162D01*
G54D11*
X37864Y-58086D02*
X37940Y-58086D01*
X38016Y-58124D01*
X38054Y-58162D01*
X38092Y-58238D01*
X38131Y-58391D01*
X38131Y-58581D01*
X38092Y-58733D01*
X38054Y-58810D01*
X38016Y-58848D01*
X37940Y-58886D01*
X37864Y-58886D01*
X37788Y-58848D01*
X37750Y-58810D01*
X37711Y-58733D01*
X37673Y-58581D01*
X37673Y-58391D01*
X37711Y-58238D01*
X37750Y-58162D01*
X37788Y-58124D01*
X37864Y-58086D01*
X38473Y-58810D02*
X38512Y-58848D01*
X38473Y-58886D01*
X38435Y-58848D01*
X38473Y-58810D01*
X38473Y-58886D01*
X39274Y-58886D02*
X38816Y-58886D01*
X39045Y-58886D02*
X39045Y-58086D01*
X38969Y-58200D01*
X38893Y-58276D01*
X38816Y-58314D01*
X39578Y-58162D02*
X39616Y-58124D01*
X39693Y-58086D01*
X39883Y-58086D01*
X39959Y-58124D01*
X39997Y-58162D01*
X40036Y-58238D01*
X40036Y-58314D01*
X39997Y-58429D01*
X39540Y-58886D01*
X40036Y-58886D01*
X40531Y-58086D02*
X40607Y-58086D01*
X40683Y-58124D01*
X40721Y-58162D01*
X40759Y-58238D01*
X40798Y-58391D01*
X40798Y-58581D01*
X40759Y-58733D01*
X40721Y-58810D01*
X40683Y-58848D01*
X40607Y-58886D01*
X40531Y-58886D01*
X40455Y-58848D01*
X40417Y-58810D01*
X40378Y-58733D01*
X40340Y-58581D01*
X40340Y-58391D01*
X40378Y-58238D01*
X40417Y-58162D01*
X40455Y-58124D01*
X40531Y-58086D01*
X41102Y-58086D02*
X41102Y-58238D01*
X41407Y-58086D02*
X41407Y-58238D01*
X42932Y-58048D02*
X42246Y-59076D01*
X43732Y-58086D02*
X44228Y-58086D01*
X43961Y-58391D01*
X44075Y-58391D01*
X44151Y-58429D01*
X44189Y-58467D01*
X44228Y-58543D01*
X44228Y-58733D01*
X44189Y-58810D01*
X44151Y-58848D01*
X44075Y-58886D01*
X43847Y-58886D01*
X43770Y-58848D01*
X43732Y-58810D01*
X44570Y-58810D02*
X44609Y-58848D01*
X44570Y-58886D01*
X44532Y-58848D01*
X44570Y-58810D01*
X44570Y-58886D01*
X45104Y-58086D02*
X45180Y-58086D01*
X45256Y-58124D01*
X45294Y-58162D01*
X45332Y-58238D01*
X45371Y-58391D01*
X45371Y-58581D01*
X45332Y-58733D01*
X45294Y-58810D01*
X45256Y-58848D01*
X45180Y-58886D01*
X45104Y-58886D01*
X45028Y-58848D01*
X44990Y-58810D01*
X44951Y-58733D01*
X44913Y-58581D01*
X44913Y-58391D01*
X44951Y-58238D01*
X44990Y-58162D01*
X45028Y-58124D01*
X45104Y-58086D01*
X46094Y-58086D02*
X45713Y-58086D01*
X45675Y-58467D01*
X45713Y-58429D01*
X45790Y-58391D01*
X45980Y-58391D01*
X46056Y-58429D01*
X46094Y-58467D01*
X46133Y-58543D01*
X46133Y-58733D01*
X46094Y-58810D01*
X46056Y-58848D01*
X45980Y-58886D01*
X45790Y-58886D01*
X45713Y-58848D01*
X45675Y-58810D01*
X46475Y-58886D02*
X46475Y-58352D01*
X46475Y-58429D02*
X46514Y-58391D01*
X46590Y-58352D01*
X46704Y-58352D01*
X46780Y-58391D01*
X46818Y-58467D01*
X46818Y-58886D01*
X46818Y-58467D02*
X46856Y-58391D01*
X46933Y-58352D01*
X47047Y-58352D01*
X47123Y-58391D01*
X47161Y-58467D01*
X47161Y-58886D01*
X47542Y-58886D02*
X47542Y-58352D01*
X47542Y-58429D02*
X47581Y-58391D01*
X47657Y-58352D01*
X47771Y-58352D01*
X47847Y-58391D01*
X47885Y-58467D01*
X47885Y-58886D01*
X47885Y-58467D02*
X47923Y-58391D01*
X48000Y-58352D01*
X48114Y-58352D01*
X48190Y-58391D01*
X48228Y-58467D01*
X48228Y-58886D01*
X49448Y-59191D02*
X49410Y-59152D01*
X49334Y-59038D01*
X49296Y-58962D01*
X49258Y-58848D01*
X49219Y-58657D01*
X49219Y-58505D01*
X49258Y-58314D01*
X49296Y-58200D01*
X49334Y-58124D01*
X49410Y-58010D01*
X49448Y-57972D01*
X50095Y-58352D02*
X50095Y-58886D01*
X49905Y-58048D02*
X49714Y-58619D01*
X50210Y-58619D01*
X51124Y-58886D02*
X51124Y-58086D01*
X51467Y-58886D02*
X51467Y-58467D01*
X51429Y-58391D01*
X51353Y-58352D01*
X51239Y-58352D01*
X51163Y-58391D01*
X51124Y-58429D01*
X51963Y-58886D02*
X51887Y-58848D01*
X51848Y-58810D01*
X51810Y-58733D01*
X51810Y-58505D01*
X51848Y-58429D01*
X51887Y-58391D01*
X51963Y-58352D01*
X52077Y-58352D01*
X52153Y-58391D01*
X52191Y-58429D01*
X52229Y-58505D01*
X52229Y-58733D01*
X52191Y-58810D01*
X52153Y-58848D01*
X52077Y-58886D01*
X51963Y-58886D01*
X52687Y-58886D02*
X52611Y-58848D01*
X52572Y-58772D01*
X52572Y-58086D01*
X53296Y-58848D02*
X53220Y-58886D01*
X53068Y-58886D01*
X52991Y-58848D01*
X52953Y-58772D01*
X52953Y-58467D01*
X52991Y-58391D01*
X53068Y-58352D01*
X53220Y-58352D01*
X53296Y-58391D01*
X53334Y-58467D01*
X53334Y-58543D01*
X52953Y-58619D01*
X53639Y-58848D02*
X53716Y-58886D01*
X53868Y-58886D01*
X53944Y-58848D01*
X53982Y-58772D01*
X53982Y-58733D01*
X53944Y-58657D01*
X53868Y-58619D01*
X53754Y-58619D01*
X53677Y-58581D01*
X53639Y-58505D01*
X53639Y-58467D01*
X53677Y-58391D01*
X53754Y-58352D01*
X53868Y-58352D01*
X53944Y-58391D01*
X54249Y-59191D02*
X54287Y-59152D01*
X54364Y-59038D01*
X54402Y-58962D01*
X54440Y-58848D01*
X54478Y-58657D01*
X54478Y-58505D01*
X54440Y-58314D01*
X54402Y-58200D01*
X54364Y-58124D01*
X54287Y-58010D01*
X54249Y-57972D01*
G54D10*
X37320Y-60042D02*
X37305Y-60194D01*
X37260Y-60341D01*
X37188Y-60477D01*
X37091Y-60596D01*
X36973Y-60694D01*
X36837Y-60767D01*
X36691Y-60812D01*
X36538Y-60828D01*
X36386Y-60815D01*
X36239Y-60771D01*
X36103Y-60700D01*
X35983Y-60604D01*
X35884Y-60486D01*
X35810Y-60352D01*
X35764Y-60205D01*
X35747Y-60052D01*
X35759Y-59900D01*
X35802Y-59753D01*
X35872Y-59616D01*
X35967Y-59496D01*
X36084Y-59396D01*
X36218Y-59321D01*
X36365Y-59274D01*
X36517Y-59256D01*
X36669Y-59267D01*
X36817Y-59309D01*
X36954Y-59378D01*
X37075Y-59473D01*
X37176Y-59589D01*
X37251Y-59722D01*
X37300Y-59868D01*
X37319Y-60021D01*
X37320Y-60042D01*
X35746Y-60042D02*
X37320Y-60042D01*
G54D11*
X37864Y-59566D02*
X37940Y-59566D01*
X38016Y-59604D01*
X38054Y-59642D01*
X38092Y-59718D01*
X38131Y-59871D01*
X38131Y-60061D01*
X38092Y-60213D01*
X38054Y-60290D01*
X38016Y-60328D01*
X37940Y-60366D01*
X37864Y-60366D01*
X37788Y-60328D01*
X37750Y-60290D01*
X37711Y-60213D01*
X37673Y-60061D01*
X37673Y-59871D01*
X37711Y-59718D01*
X37750Y-59642D01*
X37788Y-59604D01*
X37864Y-59566D01*
X38473Y-60290D02*
X38512Y-60328D01*
X38473Y-60366D01*
X38435Y-60328D01*
X38473Y-60290D01*
X38473Y-60366D01*
X39274Y-60366D02*
X38816Y-60366D01*
X39045Y-60366D02*
X39045Y-59566D01*
X38969Y-59680D01*
X38893Y-59756D01*
X38816Y-59794D01*
X39997Y-59566D02*
X39616Y-59566D01*
X39578Y-59947D01*
X39616Y-59909D01*
X39693Y-59871D01*
X39883Y-59871D01*
X39959Y-59909D01*
X39997Y-59947D01*
X40036Y-60023D01*
X40036Y-60213D01*
X39997Y-60290D01*
X39959Y-60328D01*
X39883Y-60366D01*
X39693Y-60366D01*
X39616Y-60328D01*
X39578Y-60290D01*
X40493Y-59909D02*
X40417Y-59871D01*
X40378Y-59832D01*
X40340Y-59756D01*
X40340Y-59718D01*
X40378Y-59642D01*
X40417Y-59604D01*
X40493Y-59566D01*
X40645Y-59566D01*
X40721Y-59604D01*
X40759Y-59642D01*
X40798Y-59718D01*
X40798Y-59756D01*
X40759Y-59832D01*
X40721Y-59871D01*
X40645Y-59909D01*
X40493Y-59909D01*
X40417Y-59947D01*
X40378Y-59985D01*
X40340Y-60061D01*
X40340Y-60213D01*
X40378Y-60290D01*
X40417Y-60328D01*
X40493Y-60366D01*
X40645Y-60366D01*
X40721Y-60328D01*
X40759Y-60290D01*
X40798Y-60213D01*
X40798Y-60061D01*
X40759Y-59985D01*
X40721Y-59947D01*
X40645Y-59909D01*
X41102Y-59566D02*
X41102Y-59718D01*
X41407Y-59566D02*
X41407Y-59718D01*
X42932Y-59528D02*
X42246Y-60556D01*
X44151Y-59832D02*
X44151Y-60366D01*
X43961Y-59528D02*
X43770Y-60099D01*
X44266Y-60099D01*
X44570Y-60290D02*
X44609Y-60328D01*
X44570Y-60366D01*
X44532Y-60328D01*
X44570Y-60290D01*
X44570Y-60366D01*
X45104Y-59566D02*
X45180Y-59566D01*
X45256Y-59604D01*
X45294Y-59642D01*
X45332Y-59718D01*
X45371Y-59871D01*
X45371Y-60061D01*
X45332Y-60213D01*
X45294Y-60290D01*
X45256Y-60328D01*
X45180Y-60366D01*
X45104Y-60366D01*
X45028Y-60328D01*
X44990Y-60290D01*
X44951Y-60213D01*
X44913Y-60061D01*
X44913Y-59871D01*
X44951Y-59718D01*
X44990Y-59642D01*
X45028Y-59604D01*
X45104Y-59566D01*
X45866Y-59566D02*
X45942Y-59566D01*
X46018Y-59604D01*
X46056Y-59642D01*
X46094Y-59718D01*
X46133Y-59871D01*
X46133Y-60061D01*
X46094Y-60213D01*
X46056Y-60290D01*
X46018Y-60328D01*
X45942Y-60366D01*
X45866Y-60366D01*
X45790Y-60328D01*
X45752Y-60290D01*
X45713Y-60213D01*
X45675Y-60061D01*
X45675Y-59871D01*
X45713Y-59718D01*
X45752Y-59642D01*
X45790Y-59604D01*
X45866Y-59566D01*
X46475Y-60366D02*
X46475Y-59832D01*
X46475Y-59909D02*
X46514Y-59871D01*
X46590Y-59832D01*
X46704Y-59832D01*
X46780Y-59871D01*
X46818Y-59947D01*
X46818Y-60366D01*
X46818Y-59947D02*
X46856Y-59871D01*
X46933Y-59832D01*
X47047Y-59832D01*
X47123Y-59871D01*
X47161Y-59947D01*
X47161Y-60366D01*
X47542Y-60366D02*
X47542Y-59832D01*
X47542Y-59909D02*
X47581Y-59871D01*
X47657Y-59832D01*
X47771Y-59832D01*
X47847Y-59871D01*
X47885Y-59947D01*
X47885Y-60366D01*
X47885Y-59947D02*
X47923Y-59871D01*
X48000Y-59832D01*
X48114Y-59832D01*
X48190Y-59871D01*
X48228Y-59947D01*
X48228Y-60366D01*
X49448Y-60671D02*
X49410Y-60632D01*
X49334Y-60518D01*
X49296Y-60442D01*
X49258Y-60328D01*
X49219Y-60137D01*
X49219Y-59985D01*
X49258Y-59794D01*
X49296Y-59680D01*
X49334Y-59604D01*
X49410Y-59490D01*
X49448Y-59452D01*
X49676Y-59566D02*
X50172Y-59566D01*
X49905Y-59871D01*
X50019Y-59871D01*
X50095Y-59909D01*
X50133Y-59947D01*
X50172Y-60023D01*
X50172Y-60213D01*
X50133Y-60290D01*
X50095Y-60328D01*
X50019Y-60366D01*
X49791Y-60366D01*
X49714Y-60328D01*
X49676Y-60290D01*
X51124Y-60366D02*
X51124Y-59566D01*
X51467Y-60366D02*
X51467Y-59947D01*
X51429Y-59871D01*
X51353Y-59832D01*
X51239Y-59832D01*
X51163Y-59871D01*
X51124Y-59909D01*
X51963Y-60366D02*
X51887Y-60328D01*
X51848Y-60290D01*
X51810Y-60213D01*
X51810Y-59985D01*
X51848Y-59909D01*
X51887Y-59871D01*
X51963Y-59832D01*
X52077Y-59832D01*
X52153Y-59871D01*
X52191Y-59909D01*
X52229Y-59985D01*
X52229Y-60213D01*
X52191Y-60290D01*
X52153Y-60328D01*
X52077Y-60366D01*
X51963Y-60366D01*
X52687Y-60366D02*
X52611Y-60328D01*
X52572Y-60252D01*
X52572Y-59566D01*
X53296Y-60328D02*
X53220Y-60366D01*
X53068Y-60366D01*
X52991Y-60328D01*
X52953Y-60252D01*
X52953Y-59947D01*
X52991Y-59871D01*
X53068Y-59832D01*
X53220Y-59832D01*
X53296Y-59871D01*
X53334Y-59947D01*
X53334Y-60023D01*
X52953Y-60099D01*
X53639Y-60328D02*
X53716Y-60366D01*
X53868Y-60366D01*
X53944Y-60328D01*
X53982Y-60252D01*
X53982Y-60213D01*
X53944Y-60137D01*
X53868Y-60099D01*
X53754Y-60099D01*
X53677Y-60061D01*
X53639Y-59985D01*
X53639Y-59947D01*
X53677Y-59871D01*
X53754Y-59832D01*
X53868Y-59832D01*
X53944Y-59871D01*
X54249Y-60671D02*
X54287Y-60632D01*
X54364Y-60518D01*
X54402Y-60442D01*
X54440Y-60328D01*
X54478Y-60137D01*
X54478Y-59985D01*
X54440Y-59794D01*
X54402Y-59680D01*
X54364Y-59604D01*
X54287Y-59490D01*
X54249Y-59452D01*
M02*
