G04 (created by PCBNEW (2012-jan-04)-stable) date Mon 04 Jun 2012 05:41:23 PM CEST*
G01*
G70*
G90*
%MOIN*%
G04 Gerber Fmt 3.4, Leading zero omitted, Abs format*
%FSLAX34Y34*%
G04 APERTURE LIST*
%ADD10C,0.001000*%
%ADD11C,0.008000*%
G04 APERTURE END LIST*
G54D10*
G54D11*
X37402Y-52756D02*
X37402Y-13386D01*
X76772Y-52756D02*
X37402Y-52756D01*
X76772Y-13386D02*
X76772Y-52756D01*
X37402Y-13386D02*
X76772Y-13386D01*
G54D10*
X47450Y-33250D02*
X47650Y-33450D01*
X47650Y-33250D02*
X47450Y-33450D01*
X47450Y-35550D02*
X47650Y-35750D01*
X47650Y-35550D02*
X47450Y-35750D01*
X48200Y-36500D02*
X48400Y-36700D01*
X48400Y-36500D02*
X48200Y-36700D01*
X48200Y-37400D02*
X48400Y-37600D01*
X48400Y-37400D02*
X48200Y-37600D01*
X48200Y-38700D02*
X48400Y-38900D01*
X48400Y-38700D02*
X48200Y-38900D01*
X48200Y-39300D02*
X48400Y-39500D01*
X48400Y-39300D02*
X48200Y-39500D01*
X49700Y-37400D02*
X49900Y-37600D01*
X49900Y-37400D02*
X49700Y-37600D01*
X55620Y-36700D02*
X55617Y-36723D01*
X55610Y-36745D01*
X55599Y-36766D01*
X55585Y-36784D01*
X55567Y-36799D01*
X55546Y-36810D01*
X55524Y-36817D01*
X55500Y-36819D01*
X55478Y-36817D01*
X55456Y-36811D01*
X55435Y-36800D01*
X55417Y-36785D01*
X55401Y-36767D01*
X55390Y-36747D01*
X55383Y-36724D01*
X55381Y-36701D01*
X55382Y-36679D01*
X55389Y-36656D01*
X55400Y-36635D01*
X55414Y-36617D01*
X55432Y-36602D01*
X55452Y-36591D01*
X55475Y-36583D01*
X55498Y-36581D01*
X55520Y-36582D01*
X55543Y-36589D01*
X55564Y-36599D01*
X55582Y-36614D01*
X55598Y-36631D01*
X55609Y-36652D01*
X55617Y-36674D01*
X55619Y-36697D01*
X55620Y-36700D01*
X56620Y-37700D02*
X56617Y-37723D01*
X56610Y-37745D01*
X56599Y-37766D01*
X56585Y-37784D01*
X56567Y-37799D01*
X56546Y-37810D01*
X56524Y-37817D01*
X56500Y-37819D01*
X56478Y-37817D01*
X56456Y-37811D01*
X56435Y-37800D01*
X56417Y-37785D01*
X56401Y-37767D01*
X56390Y-37747D01*
X56383Y-37724D01*
X56381Y-37701D01*
X56382Y-37679D01*
X56389Y-37656D01*
X56400Y-37635D01*
X56414Y-37617D01*
X56432Y-37602D01*
X56452Y-37591D01*
X56475Y-37583D01*
X56498Y-37581D01*
X56520Y-37582D01*
X56543Y-37589D01*
X56564Y-37599D01*
X56582Y-37614D01*
X56598Y-37631D01*
X56609Y-37652D01*
X56617Y-37674D01*
X56619Y-37697D01*
X56620Y-37700D01*
X57620Y-36700D02*
X57617Y-36723D01*
X57610Y-36745D01*
X57599Y-36766D01*
X57585Y-36784D01*
X57567Y-36799D01*
X57546Y-36810D01*
X57524Y-36817D01*
X57500Y-36819D01*
X57478Y-36817D01*
X57456Y-36811D01*
X57435Y-36800D01*
X57417Y-36785D01*
X57401Y-36767D01*
X57390Y-36747D01*
X57383Y-36724D01*
X57381Y-36701D01*
X57382Y-36679D01*
X57389Y-36656D01*
X57400Y-36635D01*
X57414Y-36617D01*
X57432Y-36602D01*
X57452Y-36591D01*
X57475Y-36583D01*
X57498Y-36581D01*
X57520Y-36582D01*
X57543Y-36589D01*
X57564Y-36599D01*
X57582Y-36614D01*
X57598Y-36631D01*
X57609Y-36652D01*
X57617Y-36674D01*
X57619Y-36697D01*
X57620Y-36700D01*
X54925Y-38937D02*
X54925Y-39251D01*
X55082Y-39094D02*
X54768Y-39094D01*
X56500Y-38937D02*
X56500Y-39251D01*
X56657Y-39094D02*
X56343Y-39094D01*
X58075Y-38937D02*
X58075Y-39251D01*
X58232Y-39094D02*
X57918Y-39094D01*
X39806Y-45496D02*
X39802Y-45527D01*
X39793Y-45556D01*
X39779Y-45584D01*
X39759Y-45608D01*
X39735Y-45628D01*
X39708Y-45643D01*
X39678Y-45652D01*
X39647Y-45655D01*
X39617Y-45653D01*
X39587Y-45644D01*
X39559Y-45629D01*
X39535Y-45610D01*
X39514Y-45586D01*
X39499Y-45559D01*
X39490Y-45529D01*
X39487Y-45498D01*
X39489Y-45468D01*
X39498Y-45438D01*
X39512Y-45410D01*
X39531Y-45385D01*
X39555Y-45365D01*
X39582Y-45350D01*
X39612Y-45340D01*
X39643Y-45337D01*
X39673Y-45339D01*
X39703Y-45347D01*
X39731Y-45361D01*
X39756Y-45381D01*
X39776Y-45404D01*
X39792Y-45431D01*
X39802Y-45461D01*
X39805Y-45492D01*
X39806Y-45496D01*
X39486Y-45336D02*
X39806Y-45656D01*
X39806Y-45336D02*
X39486Y-45656D01*
X39806Y-46496D02*
X39802Y-46527D01*
X39793Y-46556D01*
X39779Y-46584D01*
X39759Y-46608D01*
X39735Y-46628D01*
X39708Y-46643D01*
X39678Y-46652D01*
X39647Y-46655D01*
X39617Y-46653D01*
X39587Y-46644D01*
X39559Y-46629D01*
X39535Y-46610D01*
X39514Y-46586D01*
X39499Y-46559D01*
X39490Y-46529D01*
X39487Y-46498D01*
X39489Y-46468D01*
X39498Y-46438D01*
X39512Y-46410D01*
X39531Y-46385D01*
X39555Y-46365D01*
X39582Y-46350D01*
X39612Y-46340D01*
X39643Y-46337D01*
X39673Y-46339D01*
X39703Y-46347D01*
X39731Y-46361D01*
X39756Y-46381D01*
X39776Y-46404D01*
X39792Y-46431D01*
X39802Y-46461D01*
X39805Y-46492D01*
X39806Y-46496D01*
X39486Y-46336D02*
X39806Y-46656D01*
X39806Y-46336D02*
X39486Y-46656D01*
X39806Y-47496D02*
X39802Y-47527D01*
X39793Y-47556D01*
X39779Y-47584D01*
X39759Y-47608D01*
X39735Y-47628D01*
X39708Y-47643D01*
X39678Y-47652D01*
X39647Y-47655D01*
X39617Y-47653D01*
X39587Y-47644D01*
X39559Y-47629D01*
X39535Y-47610D01*
X39514Y-47586D01*
X39499Y-47559D01*
X39490Y-47529D01*
X39487Y-47498D01*
X39489Y-47468D01*
X39498Y-47438D01*
X39512Y-47410D01*
X39531Y-47385D01*
X39555Y-47365D01*
X39582Y-47350D01*
X39612Y-47340D01*
X39643Y-47337D01*
X39673Y-47339D01*
X39703Y-47347D01*
X39731Y-47361D01*
X39756Y-47381D01*
X39776Y-47404D01*
X39792Y-47431D01*
X39802Y-47461D01*
X39805Y-47492D01*
X39806Y-47496D01*
X39486Y-47336D02*
X39806Y-47656D01*
X39806Y-47336D02*
X39486Y-47656D01*
X63060Y-32100D02*
X63056Y-32131D01*
X63047Y-32160D01*
X63033Y-32188D01*
X63013Y-32212D01*
X62989Y-32232D01*
X62962Y-32247D01*
X62932Y-32256D01*
X62901Y-32259D01*
X62871Y-32257D01*
X62841Y-32248D01*
X62813Y-32233D01*
X62789Y-32214D01*
X62768Y-32190D01*
X62753Y-32163D01*
X62744Y-32133D01*
X62741Y-32102D01*
X62743Y-32072D01*
X62752Y-32042D01*
X62766Y-32014D01*
X62785Y-31989D01*
X62809Y-31969D01*
X62836Y-31954D01*
X62866Y-31944D01*
X62897Y-31941D01*
X62927Y-31943D01*
X62957Y-31951D01*
X62985Y-31965D01*
X63010Y-31985D01*
X63030Y-32008D01*
X63046Y-32035D01*
X63056Y-32065D01*
X63059Y-32096D01*
X63060Y-32100D01*
X62740Y-31940D02*
X63060Y-32260D01*
X63060Y-31940D02*
X62740Y-32260D01*
X63060Y-37100D02*
X63056Y-37131D01*
X63047Y-37160D01*
X63033Y-37188D01*
X63013Y-37212D01*
X62989Y-37232D01*
X62962Y-37247D01*
X62932Y-37256D01*
X62901Y-37259D01*
X62871Y-37257D01*
X62841Y-37248D01*
X62813Y-37233D01*
X62789Y-37214D01*
X62768Y-37190D01*
X62753Y-37163D01*
X62744Y-37133D01*
X62741Y-37102D01*
X62743Y-37072D01*
X62752Y-37042D01*
X62766Y-37014D01*
X62785Y-36989D01*
X62809Y-36969D01*
X62836Y-36954D01*
X62866Y-36944D01*
X62897Y-36941D01*
X62927Y-36943D01*
X62957Y-36951D01*
X62985Y-36965D01*
X63010Y-36985D01*
X63030Y-37008D01*
X63046Y-37035D01*
X63056Y-37065D01*
X63059Y-37096D01*
X63060Y-37100D01*
X62740Y-36940D02*
X63060Y-37260D01*
X63060Y-36940D02*
X62740Y-37260D01*
X64560Y-32100D02*
X64556Y-32131D01*
X64547Y-32160D01*
X64533Y-32188D01*
X64513Y-32212D01*
X64489Y-32232D01*
X64462Y-32247D01*
X64432Y-32256D01*
X64401Y-32259D01*
X64371Y-32257D01*
X64341Y-32248D01*
X64313Y-32233D01*
X64289Y-32214D01*
X64268Y-32190D01*
X64253Y-32163D01*
X64244Y-32133D01*
X64241Y-32102D01*
X64243Y-32072D01*
X64252Y-32042D01*
X64266Y-32014D01*
X64285Y-31989D01*
X64309Y-31969D01*
X64336Y-31954D01*
X64366Y-31944D01*
X64397Y-31941D01*
X64427Y-31943D01*
X64457Y-31951D01*
X64485Y-31965D01*
X64510Y-31985D01*
X64530Y-32008D01*
X64546Y-32035D01*
X64556Y-32065D01*
X64559Y-32096D01*
X64560Y-32100D01*
X64240Y-31940D02*
X64560Y-32260D01*
X64560Y-31940D02*
X64240Y-32260D01*
X64560Y-37100D02*
X64556Y-37131D01*
X64547Y-37160D01*
X64533Y-37188D01*
X64513Y-37212D01*
X64489Y-37232D01*
X64462Y-37247D01*
X64432Y-37256D01*
X64401Y-37259D01*
X64371Y-37257D01*
X64341Y-37248D01*
X64313Y-37233D01*
X64289Y-37214D01*
X64268Y-37190D01*
X64253Y-37163D01*
X64244Y-37133D01*
X64241Y-37102D01*
X64243Y-37072D01*
X64252Y-37042D01*
X64266Y-37014D01*
X64285Y-36989D01*
X64309Y-36969D01*
X64336Y-36954D01*
X64366Y-36944D01*
X64397Y-36941D01*
X64427Y-36943D01*
X64457Y-36951D01*
X64485Y-36965D01*
X64510Y-36985D01*
X64530Y-37008D01*
X64546Y-37035D01*
X64556Y-37065D01*
X64559Y-37096D01*
X64560Y-37100D01*
X64240Y-36940D02*
X64560Y-37260D01*
X64560Y-36940D02*
X64240Y-37260D01*
X66360Y-32100D02*
X66356Y-32131D01*
X66347Y-32160D01*
X66333Y-32188D01*
X66313Y-32212D01*
X66289Y-32232D01*
X66262Y-32247D01*
X66232Y-32256D01*
X66201Y-32259D01*
X66171Y-32257D01*
X66141Y-32248D01*
X66113Y-32233D01*
X66089Y-32214D01*
X66068Y-32190D01*
X66053Y-32163D01*
X66044Y-32133D01*
X66041Y-32102D01*
X66043Y-32072D01*
X66052Y-32042D01*
X66066Y-32014D01*
X66085Y-31989D01*
X66109Y-31969D01*
X66136Y-31954D01*
X66166Y-31944D01*
X66197Y-31941D01*
X66227Y-31943D01*
X66257Y-31951D01*
X66285Y-31965D01*
X66310Y-31985D01*
X66330Y-32008D01*
X66346Y-32035D01*
X66356Y-32065D01*
X66359Y-32096D01*
X66360Y-32100D01*
X66040Y-31940D02*
X66360Y-32260D01*
X66360Y-31940D02*
X66040Y-32260D01*
X66360Y-37100D02*
X66356Y-37131D01*
X66347Y-37160D01*
X66333Y-37188D01*
X66313Y-37212D01*
X66289Y-37232D01*
X66262Y-37247D01*
X66232Y-37256D01*
X66201Y-37259D01*
X66171Y-37257D01*
X66141Y-37248D01*
X66113Y-37233D01*
X66089Y-37214D01*
X66068Y-37190D01*
X66053Y-37163D01*
X66044Y-37133D01*
X66041Y-37102D01*
X66043Y-37072D01*
X66052Y-37042D01*
X66066Y-37014D01*
X66085Y-36989D01*
X66109Y-36969D01*
X66136Y-36954D01*
X66166Y-36944D01*
X66197Y-36941D01*
X66227Y-36943D01*
X66257Y-36951D01*
X66285Y-36965D01*
X66310Y-36985D01*
X66330Y-37008D01*
X66346Y-37035D01*
X66356Y-37065D01*
X66359Y-37096D01*
X66360Y-37100D01*
X66040Y-36940D02*
X66360Y-37260D01*
X66360Y-36940D02*
X66040Y-37260D01*
X67860Y-32100D02*
X67856Y-32131D01*
X67847Y-32160D01*
X67833Y-32188D01*
X67813Y-32212D01*
X67789Y-32232D01*
X67762Y-32247D01*
X67732Y-32256D01*
X67701Y-32259D01*
X67671Y-32257D01*
X67641Y-32248D01*
X67613Y-32233D01*
X67589Y-32214D01*
X67568Y-32190D01*
X67553Y-32163D01*
X67544Y-32133D01*
X67541Y-32102D01*
X67543Y-32072D01*
X67552Y-32042D01*
X67566Y-32014D01*
X67585Y-31989D01*
X67609Y-31969D01*
X67636Y-31954D01*
X67666Y-31944D01*
X67697Y-31941D01*
X67727Y-31943D01*
X67757Y-31951D01*
X67785Y-31965D01*
X67810Y-31985D01*
X67830Y-32008D01*
X67846Y-32035D01*
X67856Y-32065D01*
X67859Y-32096D01*
X67860Y-32100D01*
X67540Y-31940D02*
X67860Y-32260D01*
X67860Y-31940D02*
X67540Y-32260D01*
X67860Y-37100D02*
X67856Y-37131D01*
X67847Y-37160D01*
X67833Y-37188D01*
X67813Y-37212D01*
X67789Y-37232D01*
X67762Y-37247D01*
X67732Y-37256D01*
X67701Y-37259D01*
X67671Y-37257D01*
X67641Y-37248D01*
X67613Y-37233D01*
X67589Y-37214D01*
X67568Y-37190D01*
X67553Y-37163D01*
X67544Y-37133D01*
X67541Y-37102D01*
X67543Y-37072D01*
X67552Y-37042D01*
X67566Y-37014D01*
X67585Y-36989D01*
X67609Y-36969D01*
X67636Y-36954D01*
X67666Y-36944D01*
X67697Y-36941D01*
X67727Y-36943D01*
X67757Y-36951D01*
X67785Y-36965D01*
X67810Y-36985D01*
X67830Y-37008D01*
X67846Y-37035D01*
X67856Y-37065D01*
X67859Y-37096D01*
X67860Y-37100D01*
X67540Y-36940D02*
X67860Y-37260D01*
X67860Y-36940D02*
X67540Y-37260D01*
X43439Y-50950D02*
X43435Y-50988D01*
X43424Y-51025D01*
X43406Y-51059D01*
X43381Y-51088D01*
X43352Y-51113D01*
X43318Y-51131D01*
X43281Y-51142D01*
X43243Y-51146D01*
X43206Y-51143D01*
X43169Y-51132D01*
X43135Y-51114D01*
X43105Y-51090D01*
X43080Y-51061D01*
X43061Y-51027D01*
X43050Y-50990D01*
X43046Y-50952D01*
X43049Y-50915D01*
X43059Y-50878D01*
X43077Y-50844D01*
X43101Y-50814D01*
X43130Y-50789D01*
X43164Y-50770D01*
X43200Y-50758D01*
X43238Y-50754D01*
X43276Y-50756D01*
X43313Y-50767D01*
X43347Y-50784D01*
X43377Y-50808D01*
X43402Y-50837D01*
X43421Y-50870D01*
X43434Y-50907D01*
X43438Y-50945D01*
X43439Y-50950D01*
X43045Y-50950D02*
X43439Y-50950D01*
X47455Y-50950D02*
X47451Y-50988D01*
X47440Y-51025D01*
X47422Y-51059D01*
X47397Y-51088D01*
X47368Y-51113D01*
X47334Y-51131D01*
X47297Y-51142D01*
X47259Y-51146D01*
X47222Y-51143D01*
X47185Y-51132D01*
X47151Y-51114D01*
X47121Y-51090D01*
X47096Y-51061D01*
X47077Y-51027D01*
X47066Y-50990D01*
X47062Y-50952D01*
X47065Y-50915D01*
X47075Y-50878D01*
X47093Y-50844D01*
X47117Y-50814D01*
X47146Y-50789D01*
X47180Y-50770D01*
X47216Y-50758D01*
X47254Y-50754D01*
X47292Y-50756D01*
X47329Y-50767D01*
X47363Y-50784D01*
X47393Y-50808D01*
X47418Y-50837D01*
X47437Y-50870D01*
X47450Y-50907D01*
X47454Y-50945D01*
X47455Y-50950D01*
X47061Y-50950D02*
X47455Y-50950D01*
X48413Y-27559D02*
X48409Y-27597D01*
X48397Y-27635D01*
X48379Y-27669D01*
X48354Y-27699D01*
X48324Y-27724D01*
X48290Y-27743D01*
X48253Y-27754D01*
X48214Y-27758D01*
X48176Y-27755D01*
X48139Y-27744D01*
X48104Y-27726D01*
X48074Y-27701D01*
X48048Y-27671D01*
X48030Y-27637D01*
X48018Y-27600D01*
X48014Y-27561D01*
X48017Y-27523D01*
X48028Y-27486D01*
X48045Y-27451D01*
X48070Y-27421D01*
X48099Y-27395D01*
X48133Y-27376D01*
X48171Y-27364D01*
X48209Y-27360D01*
X48247Y-27363D01*
X48285Y-27373D01*
X48320Y-27391D01*
X48350Y-27415D01*
X48376Y-27444D01*
X48395Y-27478D01*
X48408Y-27515D01*
X48412Y-27554D01*
X48413Y-27559D01*
X48213Y-27359D02*
X48213Y-27759D01*
X49413Y-27559D02*
X49409Y-27597D01*
X49397Y-27635D01*
X49379Y-27669D01*
X49354Y-27699D01*
X49324Y-27724D01*
X49290Y-27743D01*
X49253Y-27754D01*
X49214Y-27758D01*
X49176Y-27755D01*
X49139Y-27744D01*
X49104Y-27726D01*
X49074Y-27701D01*
X49048Y-27671D01*
X49030Y-27637D01*
X49018Y-27600D01*
X49014Y-27561D01*
X49017Y-27523D01*
X49028Y-27486D01*
X49045Y-27451D01*
X49070Y-27421D01*
X49099Y-27395D01*
X49133Y-27376D01*
X49171Y-27364D01*
X49209Y-27360D01*
X49247Y-27363D01*
X49285Y-27373D01*
X49320Y-27391D01*
X49350Y-27415D01*
X49376Y-27444D01*
X49395Y-27478D01*
X49408Y-27515D01*
X49412Y-27554D01*
X49413Y-27559D01*
X49213Y-27359D02*
X49213Y-27759D01*
X50413Y-27559D02*
X50409Y-27597D01*
X50397Y-27635D01*
X50379Y-27669D01*
X50354Y-27699D01*
X50324Y-27724D01*
X50290Y-27743D01*
X50253Y-27754D01*
X50214Y-27758D01*
X50176Y-27755D01*
X50139Y-27744D01*
X50104Y-27726D01*
X50074Y-27701D01*
X50048Y-27671D01*
X50030Y-27637D01*
X50018Y-27600D01*
X50014Y-27561D01*
X50017Y-27523D01*
X50028Y-27486D01*
X50045Y-27451D01*
X50070Y-27421D01*
X50099Y-27395D01*
X50133Y-27376D01*
X50171Y-27364D01*
X50209Y-27360D01*
X50247Y-27363D01*
X50285Y-27373D01*
X50320Y-27391D01*
X50350Y-27415D01*
X50376Y-27444D01*
X50395Y-27478D01*
X50408Y-27515D01*
X50412Y-27554D01*
X50413Y-27559D01*
X50213Y-27359D02*
X50213Y-27759D01*
X64161Y-27559D02*
X64157Y-27597D01*
X64145Y-27635D01*
X64127Y-27669D01*
X64102Y-27699D01*
X64072Y-27724D01*
X64038Y-27743D01*
X64001Y-27754D01*
X63962Y-27758D01*
X63924Y-27755D01*
X63887Y-27744D01*
X63852Y-27726D01*
X63822Y-27701D01*
X63796Y-27671D01*
X63778Y-27637D01*
X63766Y-27600D01*
X63762Y-27561D01*
X63765Y-27523D01*
X63776Y-27486D01*
X63793Y-27451D01*
X63818Y-27421D01*
X63847Y-27395D01*
X63881Y-27376D01*
X63919Y-27364D01*
X63957Y-27360D01*
X63995Y-27363D01*
X64033Y-27373D01*
X64068Y-27391D01*
X64098Y-27415D01*
X64124Y-27444D01*
X64143Y-27478D01*
X64156Y-27515D01*
X64160Y-27554D01*
X64161Y-27559D01*
X63961Y-27359D02*
X63961Y-27759D01*
X65161Y-27559D02*
X65157Y-27597D01*
X65145Y-27635D01*
X65127Y-27669D01*
X65102Y-27699D01*
X65072Y-27724D01*
X65038Y-27743D01*
X65001Y-27754D01*
X64962Y-27758D01*
X64924Y-27755D01*
X64887Y-27744D01*
X64852Y-27726D01*
X64822Y-27701D01*
X64796Y-27671D01*
X64778Y-27637D01*
X64766Y-27600D01*
X64762Y-27561D01*
X64765Y-27523D01*
X64776Y-27486D01*
X64793Y-27451D01*
X64818Y-27421D01*
X64847Y-27395D01*
X64881Y-27376D01*
X64919Y-27364D01*
X64957Y-27360D01*
X64995Y-27363D01*
X65033Y-27373D01*
X65068Y-27391D01*
X65098Y-27415D01*
X65124Y-27444D01*
X65143Y-27478D01*
X65156Y-27515D01*
X65160Y-27554D01*
X65161Y-27559D01*
X64961Y-27359D02*
X64961Y-27759D01*
X66161Y-27559D02*
X66157Y-27597D01*
X66145Y-27635D01*
X66127Y-27669D01*
X66102Y-27699D01*
X66072Y-27724D01*
X66038Y-27743D01*
X66001Y-27754D01*
X65962Y-27758D01*
X65924Y-27755D01*
X65887Y-27744D01*
X65852Y-27726D01*
X65822Y-27701D01*
X65796Y-27671D01*
X65778Y-27637D01*
X65766Y-27600D01*
X65762Y-27561D01*
X65765Y-27523D01*
X65776Y-27486D01*
X65793Y-27451D01*
X65818Y-27421D01*
X65847Y-27395D01*
X65881Y-27376D01*
X65919Y-27364D01*
X65957Y-27360D01*
X65995Y-27363D01*
X66033Y-27373D01*
X66068Y-27391D01*
X66098Y-27415D01*
X66124Y-27444D01*
X66143Y-27478D01*
X66156Y-27515D01*
X66160Y-27554D01*
X66161Y-27559D01*
X65961Y-27359D02*
X65961Y-27759D01*
X70478Y-44667D02*
X70478Y-44333D01*
X70144Y-44333D01*
X70144Y-44667D01*
X70478Y-44667D01*
X73667Y-34478D02*
X73667Y-34144D01*
X73333Y-34144D01*
X73333Y-34478D01*
X73667Y-34478D01*
X44620Y-51245D02*
X44915Y-50950D01*
X44620Y-50655D01*
X44325Y-50950D01*
X44620Y-51245D01*
X45880Y-51245D02*
X46175Y-50950D01*
X45880Y-50655D01*
X45585Y-50950D01*
X45880Y-51245D01*
X39794Y-15778D02*
X39794Y-14930D01*
X38946Y-14930D01*
X38946Y-15778D01*
X39794Y-15778D01*
X38770Y-14754D02*
X39970Y-15954D01*
X39970Y-14754D02*
X38770Y-15954D01*
X39794Y-51211D02*
X39794Y-50363D01*
X38946Y-50363D01*
X38946Y-51211D01*
X39794Y-51211D01*
X38770Y-50187D02*
X39970Y-51387D01*
X39970Y-50187D02*
X38770Y-51387D01*
X75227Y-15778D02*
X75227Y-14930D01*
X74379Y-14930D01*
X74379Y-15778D01*
X75227Y-15778D01*
X74203Y-14754D02*
X75403Y-15954D01*
X75403Y-14754D02*
X74203Y-15954D01*
X75227Y-51211D02*
X75227Y-50363D01*
X74379Y-50363D01*
X74379Y-51211D01*
X75227Y-51211D01*
X74203Y-50187D02*
X75403Y-51387D01*
X75403Y-50187D02*
X74203Y-51387D01*
X41339Y-25905D02*
X42126Y-25118D01*
X41339Y-24331D01*
X40552Y-25118D01*
X41339Y-25905D01*
X41339Y-24331D02*
X41339Y-25905D01*
X42126Y-25118D02*
X40552Y-25118D01*
X57087Y-25905D02*
X57874Y-25118D01*
X57087Y-24331D01*
X56300Y-25118D01*
X57087Y-25905D01*
X57087Y-24331D02*
X57087Y-25905D01*
X57874Y-25118D02*
X56300Y-25118D01*
X72835Y-25905D02*
X73622Y-25118D01*
X72835Y-24331D01*
X72048Y-25118D01*
X72835Y-25905D01*
X72835Y-24331D02*
X72835Y-25905D01*
X73622Y-25118D02*
X72048Y-25118D01*
X40631Y-41646D02*
X40631Y-40254D01*
X39239Y-40254D01*
X39239Y-41646D01*
X40631Y-41646D01*
X38951Y-39966D02*
X40919Y-41934D01*
X51261Y-41646D02*
X51261Y-40254D01*
X49869Y-40254D01*
X49869Y-41646D01*
X51261Y-41646D01*
X49581Y-39966D02*
X51549Y-41934D01*
X64600Y-49530D02*
X65830Y-48300D01*
X64600Y-47070D01*
X63370Y-48300D01*
X64600Y-49530D01*
X64600Y-47070D02*
X64600Y-49530D01*
X69400Y-49530D02*
X70630Y-48300D01*
X69400Y-47070D01*
X68170Y-48300D01*
X69400Y-49530D01*
X69400Y-47070D02*
X69400Y-49530D01*
X73500Y-38878D02*
X74878Y-37500D01*
X73500Y-36122D01*
X72122Y-37500D01*
X73500Y-38878D01*
X72122Y-37500D02*
X74878Y-37500D01*
X73500Y-45878D02*
X74878Y-44500D01*
X73500Y-43122D01*
X72122Y-44500D01*
X73500Y-45878D01*
X72122Y-44500D02*
X74878Y-44500D01*
X58567Y-45000D02*
X58527Y-45401D01*
X58411Y-45787D01*
X58221Y-46143D01*
X57966Y-46456D01*
X57655Y-46713D01*
X57300Y-46905D01*
X56915Y-47024D01*
X56514Y-47066D01*
X56113Y-47030D01*
X55726Y-46916D01*
X55369Y-46729D01*
X55054Y-46476D01*
X54795Y-46167D01*
X54601Y-45814D01*
X54479Y-45429D01*
X54434Y-45028D01*
X54467Y-44627D01*
X54579Y-44240D01*
X54763Y-43881D01*
X55014Y-43565D01*
X55321Y-43303D01*
X55673Y-43106D01*
X56057Y-42982D01*
X56457Y-42934D01*
X56858Y-42965D01*
X57247Y-43073D01*
X57607Y-43255D01*
X57925Y-43504D01*
X58189Y-43809D01*
X58388Y-44160D01*
X58515Y-44543D01*
X58566Y-44943D01*
X58567Y-45000D01*
G54D11*
X37711Y-54355D02*
X37711Y-53555D01*
X37902Y-53555D01*
X38016Y-53593D01*
X38092Y-53669D01*
X38131Y-53745D01*
X38169Y-53898D01*
X38169Y-54012D01*
X38131Y-54164D01*
X38092Y-54241D01*
X38016Y-54317D01*
X37902Y-54355D01*
X37711Y-54355D01*
X38511Y-54355D02*
X38511Y-53821D01*
X38511Y-53974D02*
X38550Y-53898D01*
X38588Y-53860D01*
X38664Y-53821D01*
X38740Y-53821D01*
X39006Y-54355D02*
X39006Y-53821D01*
X39006Y-53555D02*
X38968Y-53593D01*
X39006Y-53631D01*
X39045Y-53593D01*
X39006Y-53555D01*
X39006Y-53631D01*
X39502Y-54355D02*
X39426Y-54317D01*
X39387Y-54241D01*
X39387Y-53555D01*
X39921Y-54355D02*
X39845Y-54317D01*
X39806Y-54241D01*
X39806Y-53555D01*
X40835Y-54355D02*
X40835Y-53555D01*
X41102Y-54126D01*
X41369Y-53555D01*
X41369Y-54355D01*
X42092Y-54355D02*
X42092Y-53936D01*
X42054Y-53860D01*
X41978Y-53821D01*
X41826Y-53821D01*
X41749Y-53860D01*
X42092Y-54317D02*
X42016Y-54355D01*
X41826Y-54355D01*
X41749Y-54317D01*
X41711Y-54241D01*
X41711Y-54164D01*
X41749Y-54088D01*
X41826Y-54050D01*
X42016Y-54050D01*
X42092Y-54012D01*
X42473Y-53821D02*
X42473Y-54621D01*
X42473Y-53860D02*
X42550Y-53821D01*
X42702Y-53821D01*
X42778Y-53860D01*
X42816Y-53898D01*
X42854Y-53974D01*
X42854Y-54202D01*
X42816Y-54279D01*
X42778Y-54317D01*
X42702Y-54355D01*
X42550Y-54355D01*
X42473Y-54317D01*
X43197Y-54279D02*
X43236Y-54317D01*
X43197Y-54355D01*
X43159Y-54317D01*
X43197Y-54279D01*
X43197Y-54355D01*
X43197Y-53860D02*
X43236Y-53898D01*
X43197Y-53936D01*
X43159Y-53898D01*
X43197Y-53860D01*
X43197Y-53936D01*
X37121Y-55611D02*
X37321Y-55811D01*
X37321Y-55611D02*
X37121Y-55811D01*
X37864Y-55235D02*
X37940Y-55235D01*
X38016Y-55273D01*
X38054Y-55311D01*
X38092Y-55387D01*
X38131Y-55540D01*
X38131Y-55730D01*
X38092Y-55882D01*
X38054Y-55959D01*
X38016Y-55997D01*
X37940Y-56035D01*
X37864Y-56035D01*
X37788Y-55997D01*
X37750Y-55959D01*
X37711Y-55882D01*
X37673Y-55730D01*
X37673Y-55540D01*
X37711Y-55387D01*
X37750Y-55311D01*
X37788Y-55273D01*
X37864Y-55235D01*
X38473Y-55959D02*
X38512Y-55997D01*
X38473Y-56035D01*
X38435Y-55997D01*
X38473Y-55959D01*
X38473Y-56035D01*
X39007Y-55235D02*
X39083Y-55235D01*
X39159Y-55273D01*
X39197Y-55311D01*
X39235Y-55387D01*
X39274Y-55540D01*
X39274Y-55730D01*
X39235Y-55882D01*
X39197Y-55959D01*
X39159Y-55997D01*
X39083Y-56035D01*
X39007Y-56035D01*
X38931Y-55997D01*
X38893Y-55959D01*
X38854Y-55882D01*
X38816Y-55730D01*
X38816Y-55540D01*
X38854Y-55387D01*
X38893Y-55311D01*
X38931Y-55273D01*
X39007Y-55235D01*
X39578Y-55311D02*
X39616Y-55273D01*
X39693Y-55235D01*
X39883Y-55235D01*
X39959Y-55273D01*
X39997Y-55311D01*
X40036Y-55387D01*
X40036Y-55463D01*
X39997Y-55578D01*
X39540Y-56035D01*
X40036Y-56035D01*
X40531Y-55235D02*
X40607Y-55235D01*
X40683Y-55273D01*
X40721Y-55311D01*
X40759Y-55387D01*
X40798Y-55540D01*
X40798Y-55730D01*
X40759Y-55882D01*
X40721Y-55959D01*
X40683Y-55997D01*
X40607Y-56035D01*
X40531Y-56035D01*
X40455Y-55997D01*
X40417Y-55959D01*
X40378Y-55882D01*
X40340Y-55730D01*
X40340Y-55540D01*
X40378Y-55387D01*
X40417Y-55311D01*
X40455Y-55273D01*
X40531Y-55235D01*
X41102Y-55235D02*
X41102Y-55387D01*
X41407Y-55235D02*
X41407Y-55387D01*
X42932Y-55197D02*
X42246Y-56225D01*
X43961Y-55235D02*
X44037Y-55235D01*
X44113Y-55273D01*
X44151Y-55311D01*
X44189Y-55387D01*
X44228Y-55540D01*
X44228Y-55730D01*
X44189Y-55882D01*
X44151Y-55959D01*
X44113Y-55997D01*
X44037Y-56035D01*
X43961Y-56035D01*
X43885Y-55997D01*
X43847Y-55959D01*
X43808Y-55882D01*
X43770Y-55730D01*
X43770Y-55540D01*
X43808Y-55387D01*
X43847Y-55311D01*
X43885Y-55273D01*
X43961Y-55235D01*
X44570Y-55959D02*
X44609Y-55997D01*
X44570Y-56035D01*
X44532Y-55997D01*
X44570Y-55959D01*
X44570Y-56035D01*
X45332Y-55235D02*
X44951Y-55235D01*
X44913Y-55616D01*
X44951Y-55578D01*
X45028Y-55540D01*
X45218Y-55540D01*
X45294Y-55578D01*
X45332Y-55616D01*
X45371Y-55692D01*
X45371Y-55882D01*
X45332Y-55959D01*
X45294Y-55997D01*
X45218Y-56035D01*
X45028Y-56035D01*
X44951Y-55997D01*
X44913Y-55959D01*
X46133Y-56035D02*
X45675Y-56035D01*
X45904Y-56035D02*
X45904Y-55235D01*
X45828Y-55349D01*
X45752Y-55425D01*
X45675Y-55463D01*
X46475Y-56035D02*
X46475Y-55501D01*
X46475Y-55578D02*
X46514Y-55540D01*
X46590Y-55501D01*
X46704Y-55501D01*
X46780Y-55540D01*
X46818Y-55616D01*
X46818Y-56035D01*
X46818Y-55616D02*
X46856Y-55540D01*
X46933Y-55501D01*
X47047Y-55501D01*
X47123Y-55540D01*
X47161Y-55616D01*
X47161Y-56035D01*
X47542Y-56035D02*
X47542Y-55501D01*
X47542Y-55578D02*
X47581Y-55540D01*
X47657Y-55501D01*
X47771Y-55501D01*
X47847Y-55540D01*
X47885Y-55616D01*
X47885Y-56035D01*
X47885Y-55616D02*
X47923Y-55540D01*
X48000Y-55501D01*
X48114Y-55501D01*
X48190Y-55540D01*
X48228Y-55616D01*
X48228Y-56035D01*
X49448Y-56340D02*
X49410Y-56301D01*
X49334Y-56187D01*
X49296Y-56111D01*
X49258Y-55997D01*
X49219Y-55806D01*
X49219Y-55654D01*
X49258Y-55463D01*
X49296Y-55349D01*
X49334Y-55273D01*
X49410Y-55159D01*
X49448Y-55121D01*
X49676Y-55235D02*
X50210Y-55235D01*
X49867Y-56035D01*
X51124Y-56035D02*
X51124Y-55235D01*
X51467Y-56035D02*
X51467Y-55616D01*
X51429Y-55540D01*
X51353Y-55501D01*
X51239Y-55501D01*
X51163Y-55540D01*
X51124Y-55578D01*
X51963Y-56035D02*
X51887Y-55997D01*
X51848Y-55959D01*
X51810Y-55882D01*
X51810Y-55654D01*
X51848Y-55578D01*
X51887Y-55540D01*
X51963Y-55501D01*
X52077Y-55501D01*
X52153Y-55540D01*
X52191Y-55578D01*
X52229Y-55654D01*
X52229Y-55882D01*
X52191Y-55959D01*
X52153Y-55997D01*
X52077Y-56035D01*
X51963Y-56035D01*
X52687Y-56035D02*
X52611Y-55997D01*
X52572Y-55921D01*
X52572Y-55235D01*
X53296Y-55997D02*
X53220Y-56035D01*
X53068Y-56035D01*
X52991Y-55997D01*
X52953Y-55921D01*
X52953Y-55616D01*
X52991Y-55540D01*
X53068Y-55501D01*
X53220Y-55501D01*
X53296Y-55540D01*
X53334Y-55616D01*
X53334Y-55692D01*
X52953Y-55768D01*
X53639Y-55997D02*
X53716Y-56035D01*
X53868Y-56035D01*
X53944Y-55997D01*
X53982Y-55921D01*
X53982Y-55882D01*
X53944Y-55806D01*
X53868Y-55768D01*
X53754Y-55768D01*
X53677Y-55730D01*
X53639Y-55654D01*
X53639Y-55616D01*
X53677Y-55540D01*
X53754Y-55501D01*
X53868Y-55501D01*
X53944Y-55540D01*
X54249Y-56340D02*
X54287Y-56301D01*
X54364Y-56187D01*
X54402Y-56111D01*
X54440Y-55997D01*
X54478Y-55806D01*
X54478Y-55654D01*
X54440Y-55463D01*
X54402Y-55349D01*
X54364Y-55273D01*
X54287Y-55159D01*
X54249Y-55121D01*
G54D10*
X37321Y-56766D02*
X37318Y-56789D01*
X37311Y-56811D01*
X37300Y-56832D01*
X37286Y-56850D01*
X37268Y-56865D01*
X37247Y-56876D01*
X37225Y-56883D01*
X37201Y-56885D01*
X37179Y-56883D01*
X37157Y-56877D01*
X37136Y-56866D01*
X37118Y-56851D01*
X37102Y-56833D01*
X37091Y-56813D01*
X37084Y-56790D01*
X37082Y-56767D01*
X37083Y-56745D01*
X37090Y-56722D01*
X37101Y-56701D01*
X37115Y-56683D01*
X37133Y-56668D01*
X37153Y-56657D01*
X37176Y-56649D01*
X37199Y-56647D01*
X37221Y-56648D01*
X37244Y-56655D01*
X37265Y-56665D01*
X37283Y-56680D01*
X37299Y-56697D01*
X37310Y-56718D01*
X37318Y-56740D01*
X37320Y-56763D01*
X37321Y-56766D01*
G54D11*
X37864Y-56290D02*
X37940Y-56290D01*
X38016Y-56328D01*
X38054Y-56366D01*
X38092Y-56442D01*
X38131Y-56595D01*
X38131Y-56785D01*
X38092Y-56937D01*
X38054Y-57014D01*
X38016Y-57052D01*
X37940Y-57090D01*
X37864Y-57090D01*
X37788Y-57052D01*
X37750Y-57014D01*
X37711Y-56937D01*
X37673Y-56785D01*
X37673Y-56595D01*
X37711Y-56442D01*
X37750Y-56366D01*
X37788Y-56328D01*
X37864Y-56290D01*
X38473Y-57014D02*
X38512Y-57052D01*
X38473Y-57090D01*
X38435Y-57052D01*
X38473Y-57014D01*
X38473Y-57090D01*
X39007Y-56290D02*
X39083Y-56290D01*
X39159Y-56328D01*
X39197Y-56366D01*
X39235Y-56442D01*
X39274Y-56595D01*
X39274Y-56785D01*
X39235Y-56937D01*
X39197Y-57014D01*
X39159Y-57052D01*
X39083Y-57090D01*
X39007Y-57090D01*
X38931Y-57052D01*
X38893Y-57014D01*
X38854Y-56937D01*
X38816Y-56785D01*
X38816Y-56595D01*
X38854Y-56442D01*
X38893Y-56366D01*
X38931Y-56328D01*
X39007Y-56290D01*
X39578Y-56366D02*
X39616Y-56328D01*
X39693Y-56290D01*
X39883Y-56290D01*
X39959Y-56328D01*
X39997Y-56366D01*
X40036Y-56442D01*
X40036Y-56518D01*
X39997Y-56633D01*
X39540Y-57090D01*
X40036Y-57090D01*
X40721Y-56556D02*
X40721Y-57090D01*
X40531Y-56252D02*
X40340Y-56823D01*
X40836Y-56823D01*
X41102Y-56290D02*
X41102Y-56442D01*
X41407Y-56290D02*
X41407Y-56442D01*
X42932Y-56252D02*
X42246Y-57280D01*
X43961Y-56290D02*
X44037Y-56290D01*
X44113Y-56328D01*
X44151Y-56366D01*
X44189Y-56442D01*
X44228Y-56595D01*
X44228Y-56785D01*
X44189Y-56937D01*
X44151Y-57014D01*
X44113Y-57052D01*
X44037Y-57090D01*
X43961Y-57090D01*
X43885Y-57052D01*
X43847Y-57014D01*
X43808Y-56937D01*
X43770Y-56785D01*
X43770Y-56595D01*
X43808Y-56442D01*
X43847Y-56366D01*
X43885Y-56328D01*
X43961Y-56290D01*
X44570Y-57014D02*
X44609Y-57052D01*
X44570Y-57090D01*
X44532Y-57052D01*
X44570Y-57014D01*
X44570Y-57090D01*
X45294Y-56290D02*
X45142Y-56290D01*
X45066Y-56328D01*
X45028Y-56366D01*
X44951Y-56480D01*
X44913Y-56633D01*
X44913Y-56937D01*
X44951Y-57014D01*
X44990Y-57052D01*
X45066Y-57090D01*
X45218Y-57090D01*
X45294Y-57052D01*
X45332Y-57014D01*
X45371Y-56937D01*
X45371Y-56747D01*
X45332Y-56671D01*
X45294Y-56633D01*
X45218Y-56595D01*
X45066Y-56595D01*
X44990Y-56633D01*
X44951Y-56671D01*
X44913Y-56747D01*
X46133Y-57090D02*
X45675Y-57090D01*
X45904Y-57090D02*
X45904Y-56290D01*
X45828Y-56404D01*
X45752Y-56480D01*
X45675Y-56518D01*
X46475Y-57090D02*
X46475Y-56556D01*
X46475Y-56633D02*
X46514Y-56595D01*
X46590Y-56556D01*
X46704Y-56556D01*
X46780Y-56595D01*
X46818Y-56671D01*
X46818Y-57090D01*
X46818Y-56671D02*
X46856Y-56595D01*
X46933Y-56556D01*
X47047Y-56556D01*
X47123Y-56595D01*
X47161Y-56671D01*
X47161Y-57090D01*
X47542Y-57090D02*
X47542Y-56556D01*
X47542Y-56633D02*
X47581Y-56595D01*
X47657Y-56556D01*
X47771Y-56556D01*
X47847Y-56595D01*
X47885Y-56671D01*
X47885Y-57090D01*
X47885Y-56671D02*
X47923Y-56595D01*
X48000Y-56556D01*
X48114Y-56556D01*
X48190Y-56595D01*
X48228Y-56671D01*
X48228Y-57090D01*
X49448Y-57395D02*
X49410Y-57356D01*
X49334Y-57242D01*
X49296Y-57166D01*
X49258Y-57052D01*
X49219Y-56861D01*
X49219Y-56709D01*
X49258Y-56518D01*
X49296Y-56404D01*
X49334Y-56328D01*
X49410Y-56214D01*
X49448Y-56176D01*
X49676Y-56290D02*
X50172Y-56290D01*
X49905Y-56595D01*
X50019Y-56595D01*
X50095Y-56633D01*
X50133Y-56671D01*
X50172Y-56747D01*
X50172Y-56937D01*
X50133Y-57014D01*
X50095Y-57052D01*
X50019Y-57090D01*
X49791Y-57090D01*
X49714Y-57052D01*
X49676Y-57014D01*
X51124Y-57090D02*
X51124Y-56290D01*
X51467Y-57090D02*
X51467Y-56671D01*
X51429Y-56595D01*
X51353Y-56556D01*
X51239Y-56556D01*
X51163Y-56595D01*
X51124Y-56633D01*
X51963Y-57090D02*
X51887Y-57052D01*
X51848Y-57014D01*
X51810Y-56937D01*
X51810Y-56709D01*
X51848Y-56633D01*
X51887Y-56595D01*
X51963Y-56556D01*
X52077Y-56556D01*
X52153Y-56595D01*
X52191Y-56633D01*
X52229Y-56709D01*
X52229Y-56937D01*
X52191Y-57014D01*
X52153Y-57052D01*
X52077Y-57090D01*
X51963Y-57090D01*
X52687Y-57090D02*
X52611Y-57052D01*
X52572Y-56976D01*
X52572Y-56290D01*
X53296Y-57052D02*
X53220Y-57090D01*
X53068Y-57090D01*
X52991Y-57052D01*
X52953Y-56976D01*
X52953Y-56671D01*
X52991Y-56595D01*
X53068Y-56556D01*
X53220Y-56556D01*
X53296Y-56595D01*
X53334Y-56671D01*
X53334Y-56747D01*
X52953Y-56823D01*
X53639Y-57052D02*
X53716Y-57090D01*
X53868Y-57090D01*
X53944Y-57052D01*
X53982Y-56976D01*
X53982Y-56937D01*
X53944Y-56861D01*
X53868Y-56823D01*
X53754Y-56823D01*
X53677Y-56785D01*
X53639Y-56709D01*
X53639Y-56671D01*
X53677Y-56595D01*
X53754Y-56556D01*
X53868Y-56556D01*
X53944Y-56595D01*
X54249Y-57395D02*
X54287Y-57356D01*
X54364Y-57242D01*
X54402Y-57166D01*
X54440Y-57052D01*
X54478Y-56861D01*
X54478Y-56709D01*
X54440Y-56518D01*
X54402Y-56404D01*
X54364Y-56328D01*
X54287Y-56214D01*
X54249Y-56176D01*
X37163Y-57664D02*
X37163Y-57978D01*
X37320Y-57821D02*
X37006Y-57821D01*
X37864Y-57345D02*
X37940Y-57345D01*
X38016Y-57383D01*
X38054Y-57421D01*
X38092Y-57497D01*
X38131Y-57650D01*
X38131Y-57840D01*
X38092Y-57992D01*
X38054Y-58069D01*
X38016Y-58107D01*
X37940Y-58145D01*
X37864Y-58145D01*
X37788Y-58107D01*
X37750Y-58069D01*
X37711Y-57992D01*
X37673Y-57840D01*
X37673Y-57650D01*
X37711Y-57497D01*
X37750Y-57421D01*
X37788Y-57383D01*
X37864Y-57345D01*
X38473Y-58069D02*
X38512Y-58107D01*
X38473Y-58145D01*
X38435Y-58107D01*
X38473Y-58069D01*
X38473Y-58145D01*
X39007Y-57345D02*
X39083Y-57345D01*
X39159Y-57383D01*
X39197Y-57421D01*
X39235Y-57497D01*
X39274Y-57650D01*
X39274Y-57840D01*
X39235Y-57992D01*
X39197Y-58069D01*
X39159Y-58107D01*
X39083Y-58145D01*
X39007Y-58145D01*
X38931Y-58107D01*
X38893Y-58069D01*
X38854Y-57992D01*
X38816Y-57840D01*
X38816Y-57650D01*
X38854Y-57497D01*
X38893Y-57421D01*
X38931Y-57383D01*
X39007Y-57345D01*
X39540Y-57345D02*
X40036Y-57345D01*
X39769Y-57650D01*
X39883Y-57650D01*
X39959Y-57688D01*
X39997Y-57726D01*
X40036Y-57802D01*
X40036Y-57992D01*
X39997Y-58069D01*
X39959Y-58107D01*
X39883Y-58145D01*
X39655Y-58145D01*
X39578Y-58107D01*
X39540Y-58069D01*
X40340Y-57421D02*
X40378Y-57383D01*
X40455Y-57345D01*
X40645Y-57345D01*
X40721Y-57383D01*
X40759Y-57421D01*
X40798Y-57497D01*
X40798Y-57573D01*
X40759Y-57688D01*
X40302Y-58145D01*
X40798Y-58145D01*
X41102Y-57345D02*
X41102Y-57497D01*
X41407Y-57345D02*
X41407Y-57497D01*
X42932Y-57307D02*
X42246Y-58335D01*
X43961Y-57345D02*
X44037Y-57345D01*
X44113Y-57383D01*
X44151Y-57421D01*
X44189Y-57497D01*
X44228Y-57650D01*
X44228Y-57840D01*
X44189Y-57992D01*
X44151Y-58069D01*
X44113Y-58107D01*
X44037Y-58145D01*
X43961Y-58145D01*
X43885Y-58107D01*
X43847Y-58069D01*
X43808Y-57992D01*
X43770Y-57840D01*
X43770Y-57650D01*
X43808Y-57497D01*
X43847Y-57421D01*
X43885Y-57383D01*
X43961Y-57345D01*
X44570Y-58069D02*
X44609Y-58107D01*
X44570Y-58145D01*
X44532Y-58107D01*
X44570Y-58069D01*
X44570Y-58145D01*
X45066Y-57688D02*
X44990Y-57650D01*
X44951Y-57611D01*
X44913Y-57535D01*
X44913Y-57497D01*
X44951Y-57421D01*
X44990Y-57383D01*
X45066Y-57345D01*
X45218Y-57345D01*
X45294Y-57383D01*
X45332Y-57421D01*
X45371Y-57497D01*
X45371Y-57535D01*
X45332Y-57611D01*
X45294Y-57650D01*
X45218Y-57688D01*
X45066Y-57688D01*
X44990Y-57726D01*
X44951Y-57764D01*
X44913Y-57840D01*
X44913Y-57992D01*
X44951Y-58069D01*
X44990Y-58107D01*
X45066Y-58145D01*
X45218Y-58145D01*
X45294Y-58107D01*
X45332Y-58069D01*
X45371Y-57992D01*
X45371Y-57840D01*
X45332Y-57764D01*
X45294Y-57726D01*
X45218Y-57688D01*
X45866Y-57345D02*
X45942Y-57345D01*
X46018Y-57383D01*
X46056Y-57421D01*
X46094Y-57497D01*
X46133Y-57650D01*
X46133Y-57840D01*
X46094Y-57992D01*
X46056Y-58069D01*
X46018Y-58107D01*
X45942Y-58145D01*
X45866Y-58145D01*
X45790Y-58107D01*
X45752Y-58069D01*
X45713Y-57992D01*
X45675Y-57840D01*
X45675Y-57650D01*
X45713Y-57497D01*
X45752Y-57421D01*
X45790Y-57383D01*
X45866Y-57345D01*
X46475Y-58145D02*
X46475Y-57611D01*
X46475Y-57688D02*
X46514Y-57650D01*
X46590Y-57611D01*
X46704Y-57611D01*
X46780Y-57650D01*
X46818Y-57726D01*
X46818Y-58145D01*
X46818Y-57726D02*
X46856Y-57650D01*
X46933Y-57611D01*
X47047Y-57611D01*
X47123Y-57650D01*
X47161Y-57726D01*
X47161Y-58145D01*
X47542Y-58145D02*
X47542Y-57611D01*
X47542Y-57688D02*
X47581Y-57650D01*
X47657Y-57611D01*
X47771Y-57611D01*
X47847Y-57650D01*
X47885Y-57726D01*
X47885Y-58145D01*
X47885Y-57726D02*
X47923Y-57650D01*
X48000Y-57611D01*
X48114Y-57611D01*
X48190Y-57650D01*
X48228Y-57726D01*
X48228Y-58145D01*
X49448Y-58450D02*
X49410Y-58411D01*
X49334Y-58297D01*
X49296Y-58221D01*
X49258Y-58107D01*
X49219Y-57916D01*
X49219Y-57764D01*
X49258Y-57573D01*
X49296Y-57459D01*
X49334Y-57383D01*
X49410Y-57269D01*
X49448Y-57231D01*
X49676Y-57345D02*
X50172Y-57345D01*
X49905Y-57650D01*
X50019Y-57650D01*
X50095Y-57688D01*
X50133Y-57726D01*
X50172Y-57802D01*
X50172Y-57992D01*
X50133Y-58069D01*
X50095Y-58107D01*
X50019Y-58145D01*
X49791Y-58145D01*
X49714Y-58107D01*
X49676Y-58069D01*
X51124Y-58145D02*
X51124Y-57345D01*
X51467Y-58145D02*
X51467Y-57726D01*
X51429Y-57650D01*
X51353Y-57611D01*
X51239Y-57611D01*
X51163Y-57650D01*
X51124Y-57688D01*
X51963Y-58145D02*
X51887Y-58107D01*
X51848Y-58069D01*
X51810Y-57992D01*
X51810Y-57764D01*
X51848Y-57688D01*
X51887Y-57650D01*
X51963Y-57611D01*
X52077Y-57611D01*
X52153Y-57650D01*
X52191Y-57688D01*
X52229Y-57764D01*
X52229Y-57992D01*
X52191Y-58069D01*
X52153Y-58107D01*
X52077Y-58145D01*
X51963Y-58145D01*
X52687Y-58145D02*
X52611Y-58107D01*
X52572Y-58031D01*
X52572Y-57345D01*
X53296Y-58107D02*
X53220Y-58145D01*
X53068Y-58145D01*
X52991Y-58107D01*
X52953Y-58031D01*
X52953Y-57726D01*
X52991Y-57650D01*
X53068Y-57611D01*
X53220Y-57611D01*
X53296Y-57650D01*
X53334Y-57726D01*
X53334Y-57802D01*
X52953Y-57878D01*
X53639Y-58107D02*
X53716Y-58145D01*
X53868Y-58145D01*
X53944Y-58107D01*
X53982Y-58031D01*
X53982Y-57992D01*
X53944Y-57916D01*
X53868Y-57878D01*
X53754Y-57878D01*
X53677Y-57840D01*
X53639Y-57764D01*
X53639Y-57726D01*
X53677Y-57650D01*
X53754Y-57611D01*
X53868Y-57611D01*
X53944Y-57650D01*
X54249Y-58450D02*
X54287Y-58411D01*
X54364Y-58297D01*
X54402Y-58221D01*
X54440Y-58107D01*
X54478Y-57916D01*
X54478Y-57764D01*
X54440Y-57573D01*
X54402Y-57459D01*
X54364Y-57383D01*
X54287Y-57269D01*
X54249Y-57231D01*
G54D10*
X37321Y-58876D02*
X37317Y-58907D01*
X37308Y-58936D01*
X37294Y-58964D01*
X37274Y-58988D01*
X37250Y-59008D01*
X37223Y-59023D01*
X37193Y-59032D01*
X37162Y-59035D01*
X37132Y-59033D01*
X37102Y-59024D01*
X37074Y-59009D01*
X37050Y-58990D01*
X37029Y-58966D01*
X37014Y-58939D01*
X37005Y-58909D01*
X37002Y-58878D01*
X37004Y-58848D01*
X37013Y-58818D01*
X37027Y-58790D01*
X37046Y-58765D01*
X37070Y-58745D01*
X37097Y-58730D01*
X37127Y-58720D01*
X37158Y-58717D01*
X37188Y-58719D01*
X37218Y-58727D01*
X37246Y-58741D01*
X37271Y-58761D01*
X37291Y-58784D01*
X37307Y-58811D01*
X37317Y-58841D01*
X37320Y-58872D01*
X37321Y-58876D01*
X37001Y-58716D02*
X37321Y-59036D01*
X37321Y-58716D02*
X37001Y-59036D01*
G54D11*
X37864Y-58400D02*
X37940Y-58400D01*
X38016Y-58438D01*
X38054Y-58476D01*
X38092Y-58552D01*
X38131Y-58705D01*
X38131Y-58895D01*
X38092Y-59047D01*
X38054Y-59124D01*
X38016Y-59162D01*
X37940Y-59200D01*
X37864Y-59200D01*
X37788Y-59162D01*
X37750Y-59124D01*
X37711Y-59047D01*
X37673Y-58895D01*
X37673Y-58705D01*
X37711Y-58552D01*
X37750Y-58476D01*
X37788Y-58438D01*
X37864Y-58400D01*
X38473Y-59124D02*
X38512Y-59162D01*
X38473Y-59200D01*
X38435Y-59162D01*
X38473Y-59124D01*
X38473Y-59200D01*
X39007Y-58400D02*
X39083Y-58400D01*
X39159Y-58438D01*
X39197Y-58476D01*
X39235Y-58552D01*
X39274Y-58705D01*
X39274Y-58895D01*
X39235Y-59047D01*
X39197Y-59124D01*
X39159Y-59162D01*
X39083Y-59200D01*
X39007Y-59200D01*
X38931Y-59162D01*
X38893Y-59124D01*
X38854Y-59047D01*
X38816Y-58895D01*
X38816Y-58705D01*
X38854Y-58552D01*
X38893Y-58476D01*
X38931Y-58438D01*
X39007Y-58400D01*
X39540Y-58400D02*
X40036Y-58400D01*
X39769Y-58705D01*
X39883Y-58705D01*
X39959Y-58743D01*
X39997Y-58781D01*
X40036Y-58857D01*
X40036Y-59047D01*
X39997Y-59124D01*
X39959Y-59162D01*
X39883Y-59200D01*
X39655Y-59200D01*
X39578Y-59162D01*
X39540Y-59124D01*
X40340Y-58476D02*
X40378Y-58438D01*
X40455Y-58400D01*
X40645Y-58400D01*
X40721Y-58438D01*
X40759Y-58476D01*
X40798Y-58552D01*
X40798Y-58628D01*
X40759Y-58743D01*
X40302Y-59200D01*
X40798Y-59200D01*
X41102Y-58400D02*
X41102Y-58552D01*
X41407Y-58400D02*
X41407Y-58552D01*
X42932Y-58362D02*
X42246Y-59390D01*
X43961Y-58400D02*
X44037Y-58400D01*
X44113Y-58438D01*
X44151Y-58476D01*
X44189Y-58552D01*
X44228Y-58705D01*
X44228Y-58895D01*
X44189Y-59047D01*
X44151Y-59124D01*
X44113Y-59162D01*
X44037Y-59200D01*
X43961Y-59200D01*
X43885Y-59162D01*
X43847Y-59124D01*
X43808Y-59047D01*
X43770Y-58895D01*
X43770Y-58705D01*
X43808Y-58552D01*
X43847Y-58476D01*
X43885Y-58438D01*
X43961Y-58400D01*
X44570Y-59124D02*
X44609Y-59162D01*
X44570Y-59200D01*
X44532Y-59162D01*
X44570Y-59124D01*
X44570Y-59200D01*
X45066Y-58743D02*
X44990Y-58705D01*
X44951Y-58666D01*
X44913Y-58590D01*
X44913Y-58552D01*
X44951Y-58476D01*
X44990Y-58438D01*
X45066Y-58400D01*
X45218Y-58400D01*
X45294Y-58438D01*
X45332Y-58476D01*
X45371Y-58552D01*
X45371Y-58590D01*
X45332Y-58666D01*
X45294Y-58705D01*
X45218Y-58743D01*
X45066Y-58743D01*
X44990Y-58781D01*
X44951Y-58819D01*
X44913Y-58895D01*
X44913Y-59047D01*
X44951Y-59124D01*
X44990Y-59162D01*
X45066Y-59200D01*
X45218Y-59200D01*
X45294Y-59162D01*
X45332Y-59124D01*
X45371Y-59047D01*
X45371Y-58895D01*
X45332Y-58819D01*
X45294Y-58781D01*
X45218Y-58743D01*
X46133Y-59200D02*
X45675Y-59200D01*
X45904Y-59200D02*
X45904Y-58400D01*
X45828Y-58514D01*
X45752Y-58590D01*
X45675Y-58628D01*
X46475Y-59200D02*
X46475Y-58666D01*
X46475Y-58743D02*
X46514Y-58705D01*
X46590Y-58666D01*
X46704Y-58666D01*
X46780Y-58705D01*
X46818Y-58781D01*
X46818Y-59200D01*
X46818Y-58781D02*
X46856Y-58705D01*
X46933Y-58666D01*
X47047Y-58666D01*
X47123Y-58705D01*
X47161Y-58781D01*
X47161Y-59200D01*
X47542Y-59200D02*
X47542Y-58666D01*
X47542Y-58743D02*
X47581Y-58705D01*
X47657Y-58666D01*
X47771Y-58666D01*
X47847Y-58705D01*
X47885Y-58781D01*
X47885Y-59200D01*
X47885Y-58781D02*
X47923Y-58705D01*
X48000Y-58666D01*
X48114Y-58666D01*
X48190Y-58705D01*
X48228Y-58781D01*
X48228Y-59200D01*
X49448Y-59505D02*
X49410Y-59466D01*
X49334Y-59352D01*
X49296Y-59276D01*
X49258Y-59162D01*
X49219Y-58971D01*
X49219Y-58819D01*
X49258Y-58628D01*
X49296Y-58514D01*
X49334Y-58438D01*
X49410Y-58324D01*
X49448Y-58286D01*
X50172Y-59200D02*
X49714Y-59200D01*
X49943Y-59200D02*
X49943Y-58400D01*
X49867Y-58514D01*
X49791Y-58590D01*
X49714Y-58628D01*
X50934Y-59200D02*
X50476Y-59200D01*
X50705Y-59200D02*
X50705Y-58400D01*
X50629Y-58514D01*
X50553Y-58590D01*
X50476Y-58628D01*
X51886Y-59200D02*
X51886Y-58400D01*
X52229Y-59200D02*
X52229Y-58781D01*
X52191Y-58705D01*
X52115Y-58666D01*
X52001Y-58666D01*
X51925Y-58705D01*
X51886Y-58743D01*
X52725Y-59200D02*
X52649Y-59162D01*
X52610Y-59124D01*
X52572Y-59047D01*
X52572Y-58819D01*
X52610Y-58743D01*
X52649Y-58705D01*
X52725Y-58666D01*
X52839Y-58666D01*
X52915Y-58705D01*
X52953Y-58743D01*
X52991Y-58819D01*
X52991Y-59047D01*
X52953Y-59124D01*
X52915Y-59162D01*
X52839Y-59200D01*
X52725Y-59200D01*
X53449Y-59200D02*
X53373Y-59162D01*
X53334Y-59086D01*
X53334Y-58400D01*
X54058Y-59162D02*
X53982Y-59200D01*
X53830Y-59200D01*
X53753Y-59162D01*
X53715Y-59086D01*
X53715Y-58781D01*
X53753Y-58705D01*
X53830Y-58666D01*
X53982Y-58666D01*
X54058Y-58705D01*
X54096Y-58781D01*
X54096Y-58857D01*
X53715Y-58933D01*
X54401Y-59162D02*
X54478Y-59200D01*
X54630Y-59200D01*
X54706Y-59162D01*
X54744Y-59086D01*
X54744Y-59047D01*
X54706Y-58971D01*
X54630Y-58933D01*
X54516Y-58933D01*
X54439Y-58895D01*
X54401Y-58819D01*
X54401Y-58781D01*
X54439Y-58705D01*
X54516Y-58666D01*
X54630Y-58666D01*
X54706Y-58705D01*
X55011Y-59505D02*
X55049Y-59466D01*
X55126Y-59352D01*
X55164Y-59276D01*
X55202Y-59162D01*
X55240Y-58971D01*
X55240Y-58819D01*
X55202Y-58628D01*
X55164Y-58514D01*
X55126Y-58438D01*
X55049Y-58324D01*
X55011Y-58286D01*
G54D10*
X37321Y-59931D02*
X37317Y-59969D01*
X37306Y-60006D01*
X37288Y-60040D01*
X37263Y-60069D01*
X37234Y-60094D01*
X37200Y-60112D01*
X37163Y-60123D01*
X37125Y-60127D01*
X37088Y-60124D01*
X37051Y-60113D01*
X37017Y-60095D01*
X36987Y-60071D01*
X36962Y-60042D01*
X36943Y-60008D01*
X36932Y-59971D01*
X36928Y-59933D01*
X36931Y-59896D01*
X36941Y-59859D01*
X36959Y-59825D01*
X36983Y-59795D01*
X37012Y-59770D01*
X37046Y-59751D01*
X37082Y-59739D01*
X37120Y-59735D01*
X37158Y-59737D01*
X37195Y-59748D01*
X37229Y-59765D01*
X37259Y-59789D01*
X37284Y-59818D01*
X37303Y-59851D01*
X37316Y-59888D01*
X37320Y-59926D01*
X37321Y-59931D01*
X36927Y-59931D02*
X37321Y-59931D01*
G54D11*
X37864Y-59455D02*
X37940Y-59455D01*
X38016Y-59493D01*
X38054Y-59531D01*
X38092Y-59607D01*
X38131Y-59760D01*
X38131Y-59950D01*
X38092Y-60102D01*
X38054Y-60179D01*
X38016Y-60217D01*
X37940Y-60255D01*
X37864Y-60255D01*
X37788Y-60217D01*
X37750Y-60179D01*
X37711Y-60102D01*
X37673Y-59950D01*
X37673Y-59760D01*
X37711Y-59607D01*
X37750Y-59531D01*
X37788Y-59493D01*
X37864Y-59455D01*
X38473Y-60179D02*
X38512Y-60217D01*
X38473Y-60255D01*
X38435Y-60217D01*
X38473Y-60179D01*
X38473Y-60255D01*
X39007Y-59455D02*
X39083Y-59455D01*
X39159Y-59493D01*
X39197Y-59531D01*
X39235Y-59607D01*
X39274Y-59760D01*
X39274Y-59950D01*
X39235Y-60102D01*
X39197Y-60179D01*
X39159Y-60217D01*
X39083Y-60255D01*
X39007Y-60255D01*
X38931Y-60217D01*
X38893Y-60179D01*
X38854Y-60102D01*
X38816Y-59950D01*
X38816Y-59760D01*
X38854Y-59607D01*
X38893Y-59531D01*
X38931Y-59493D01*
X39007Y-59455D01*
X39540Y-59455D02*
X40036Y-59455D01*
X39769Y-59760D01*
X39883Y-59760D01*
X39959Y-59798D01*
X39997Y-59836D01*
X40036Y-59912D01*
X40036Y-60102D01*
X39997Y-60179D01*
X39959Y-60217D01*
X39883Y-60255D01*
X39655Y-60255D01*
X39578Y-60217D01*
X39540Y-60179D01*
X40417Y-60255D02*
X40569Y-60255D01*
X40645Y-60217D01*
X40683Y-60179D01*
X40759Y-60064D01*
X40798Y-59912D01*
X40798Y-59607D01*
X40759Y-59531D01*
X40721Y-59493D01*
X40645Y-59455D01*
X40493Y-59455D01*
X40417Y-59493D01*
X40378Y-59531D01*
X40340Y-59607D01*
X40340Y-59798D01*
X40378Y-59874D01*
X40417Y-59912D01*
X40493Y-59950D01*
X40645Y-59950D01*
X40721Y-59912D01*
X40759Y-59874D01*
X40798Y-59798D01*
X41102Y-59455D02*
X41102Y-59607D01*
X41407Y-59455D02*
X41407Y-59607D01*
X42932Y-59417D02*
X42246Y-60445D01*
X44228Y-60255D02*
X43770Y-60255D01*
X43999Y-60255D02*
X43999Y-59455D01*
X43923Y-59569D01*
X43847Y-59645D01*
X43770Y-59683D01*
X44570Y-60179D02*
X44609Y-60217D01*
X44570Y-60255D01*
X44532Y-60217D01*
X44570Y-60179D01*
X44570Y-60255D01*
X45104Y-59455D02*
X45180Y-59455D01*
X45256Y-59493D01*
X45294Y-59531D01*
X45332Y-59607D01*
X45371Y-59760D01*
X45371Y-59950D01*
X45332Y-60102D01*
X45294Y-60179D01*
X45256Y-60217D01*
X45180Y-60255D01*
X45104Y-60255D01*
X45028Y-60217D01*
X44990Y-60179D01*
X44951Y-60102D01*
X44913Y-59950D01*
X44913Y-59760D01*
X44951Y-59607D01*
X44990Y-59531D01*
X45028Y-59493D01*
X45104Y-59455D01*
X45866Y-59455D02*
X45942Y-59455D01*
X46018Y-59493D01*
X46056Y-59531D01*
X46094Y-59607D01*
X46133Y-59760D01*
X46133Y-59950D01*
X46094Y-60102D01*
X46056Y-60179D01*
X46018Y-60217D01*
X45942Y-60255D01*
X45866Y-60255D01*
X45790Y-60217D01*
X45752Y-60179D01*
X45713Y-60102D01*
X45675Y-59950D01*
X45675Y-59760D01*
X45713Y-59607D01*
X45752Y-59531D01*
X45790Y-59493D01*
X45866Y-59455D01*
X46475Y-60255D02*
X46475Y-59721D01*
X46475Y-59798D02*
X46514Y-59760D01*
X46590Y-59721D01*
X46704Y-59721D01*
X46780Y-59760D01*
X46818Y-59836D01*
X46818Y-60255D01*
X46818Y-59836D02*
X46856Y-59760D01*
X46933Y-59721D01*
X47047Y-59721D01*
X47123Y-59760D01*
X47161Y-59836D01*
X47161Y-60255D01*
X47542Y-60255D02*
X47542Y-59721D01*
X47542Y-59798D02*
X47581Y-59760D01*
X47657Y-59721D01*
X47771Y-59721D01*
X47847Y-59760D01*
X47885Y-59836D01*
X47885Y-60255D01*
X47885Y-59836D02*
X47923Y-59760D01*
X48000Y-59721D01*
X48114Y-59721D01*
X48190Y-59760D01*
X48228Y-59836D01*
X48228Y-60255D01*
X49448Y-60560D02*
X49410Y-60521D01*
X49334Y-60407D01*
X49296Y-60331D01*
X49258Y-60217D01*
X49219Y-60026D01*
X49219Y-59874D01*
X49258Y-59683D01*
X49296Y-59569D01*
X49334Y-59493D01*
X49410Y-59379D01*
X49448Y-59341D01*
X49714Y-59531D02*
X49752Y-59493D01*
X49829Y-59455D01*
X50019Y-59455D01*
X50095Y-59493D01*
X50133Y-59531D01*
X50172Y-59607D01*
X50172Y-59683D01*
X50133Y-59798D01*
X49676Y-60255D01*
X50172Y-60255D01*
X51124Y-60255D02*
X51124Y-59455D01*
X51467Y-60255D02*
X51467Y-59836D01*
X51429Y-59760D01*
X51353Y-59721D01*
X51239Y-59721D01*
X51163Y-59760D01*
X51124Y-59798D01*
X51963Y-60255D02*
X51887Y-60217D01*
X51848Y-60179D01*
X51810Y-60102D01*
X51810Y-59874D01*
X51848Y-59798D01*
X51887Y-59760D01*
X51963Y-59721D01*
X52077Y-59721D01*
X52153Y-59760D01*
X52191Y-59798D01*
X52229Y-59874D01*
X52229Y-60102D01*
X52191Y-60179D01*
X52153Y-60217D01*
X52077Y-60255D01*
X51963Y-60255D01*
X52687Y-60255D02*
X52611Y-60217D01*
X52572Y-60141D01*
X52572Y-59455D01*
X53296Y-60217D02*
X53220Y-60255D01*
X53068Y-60255D01*
X52991Y-60217D01*
X52953Y-60141D01*
X52953Y-59836D01*
X52991Y-59760D01*
X53068Y-59721D01*
X53220Y-59721D01*
X53296Y-59760D01*
X53334Y-59836D01*
X53334Y-59912D01*
X52953Y-59988D01*
X53639Y-60217D02*
X53716Y-60255D01*
X53868Y-60255D01*
X53944Y-60217D01*
X53982Y-60141D01*
X53982Y-60102D01*
X53944Y-60026D01*
X53868Y-59988D01*
X53754Y-59988D01*
X53677Y-59950D01*
X53639Y-59874D01*
X53639Y-59836D01*
X53677Y-59760D01*
X53754Y-59721D01*
X53868Y-59721D01*
X53944Y-59760D01*
X54249Y-60560D02*
X54287Y-60521D01*
X54364Y-60407D01*
X54402Y-60331D01*
X54440Y-60217D01*
X54478Y-60026D01*
X54478Y-59874D01*
X54440Y-59683D01*
X54402Y-59569D01*
X54364Y-59493D01*
X54287Y-59379D01*
X54249Y-59341D01*
G54D10*
X37321Y-60986D02*
X37317Y-61024D01*
X37305Y-61062D01*
X37287Y-61096D01*
X37262Y-61126D01*
X37232Y-61151D01*
X37198Y-61170D01*
X37161Y-61181D01*
X37122Y-61185D01*
X37084Y-61182D01*
X37047Y-61171D01*
X37012Y-61153D01*
X36982Y-61128D01*
X36956Y-61098D01*
X36938Y-61064D01*
X36926Y-61027D01*
X36922Y-60988D01*
X36925Y-60950D01*
X36936Y-60913D01*
X36953Y-60878D01*
X36978Y-60848D01*
X37007Y-60822D01*
X37041Y-60803D01*
X37079Y-60791D01*
X37117Y-60787D01*
X37155Y-60790D01*
X37193Y-60800D01*
X37228Y-60818D01*
X37258Y-60842D01*
X37284Y-60871D01*
X37303Y-60905D01*
X37316Y-60942D01*
X37320Y-60981D01*
X37321Y-60986D01*
X37121Y-60786D02*
X37121Y-61186D01*
G54D11*
X37864Y-60510D02*
X37940Y-60510D01*
X38016Y-60548D01*
X38054Y-60586D01*
X38092Y-60662D01*
X38131Y-60815D01*
X38131Y-61005D01*
X38092Y-61157D01*
X38054Y-61234D01*
X38016Y-61272D01*
X37940Y-61310D01*
X37864Y-61310D01*
X37788Y-61272D01*
X37750Y-61234D01*
X37711Y-61157D01*
X37673Y-61005D01*
X37673Y-60815D01*
X37711Y-60662D01*
X37750Y-60586D01*
X37788Y-60548D01*
X37864Y-60510D01*
X38473Y-61234D02*
X38512Y-61272D01*
X38473Y-61310D01*
X38435Y-61272D01*
X38473Y-61234D01*
X38473Y-61310D01*
X39007Y-60510D02*
X39083Y-60510D01*
X39159Y-60548D01*
X39197Y-60586D01*
X39235Y-60662D01*
X39274Y-60815D01*
X39274Y-61005D01*
X39235Y-61157D01*
X39197Y-61234D01*
X39159Y-61272D01*
X39083Y-61310D01*
X39007Y-61310D01*
X38931Y-61272D01*
X38893Y-61234D01*
X38854Y-61157D01*
X38816Y-61005D01*
X38816Y-60815D01*
X38854Y-60662D01*
X38893Y-60586D01*
X38931Y-60548D01*
X39007Y-60510D01*
X39959Y-60776D02*
X39959Y-61310D01*
X39769Y-60472D02*
X39578Y-61043D01*
X40074Y-61043D01*
X40531Y-60510D02*
X40607Y-60510D01*
X40683Y-60548D01*
X40721Y-60586D01*
X40759Y-60662D01*
X40798Y-60815D01*
X40798Y-61005D01*
X40759Y-61157D01*
X40721Y-61234D01*
X40683Y-61272D01*
X40607Y-61310D01*
X40531Y-61310D01*
X40455Y-61272D01*
X40417Y-61234D01*
X40378Y-61157D01*
X40340Y-61005D01*
X40340Y-60815D01*
X40378Y-60662D01*
X40417Y-60586D01*
X40455Y-60548D01*
X40531Y-60510D01*
X41102Y-60510D02*
X41102Y-60662D01*
X41407Y-60510D02*
X41407Y-60662D01*
X42932Y-60472D02*
X42246Y-61500D01*
X44228Y-61310D02*
X43770Y-61310D01*
X43999Y-61310D02*
X43999Y-60510D01*
X43923Y-60624D01*
X43847Y-60700D01*
X43770Y-60738D01*
X44570Y-61234D02*
X44609Y-61272D01*
X44570Y-61310D01*
X44532Y-61272D01*
X44570Y-61234D01*
X44570Y-61310D01*
X45104Y-60510D02*
X45180Y-60510D01*
X45256Y-60548D01*
X45294Y-60586D01*
X45332Y-60662D01*
X45371Y-60815D01*
X45371Y-61005D01*
X45332Y-61157D01*
X45294Y-61234D01*
X45256Y-61272D01*
X45180Y-61310D01*
X45104Y-61310D01*
X45028Y-61272D01*
X44990Y-61234D01*
X44951Y-61157D01*
X44913Y-61005D01*
X44913Y-60815D01*
X44951Y-60662D01*
X44990Y-60586D01*
X45028Y-60548D01*
X45104Y-60510D01*
X45675Y-60586D02*
X45713Y-60548D01*
X45790Y-60510D01*
X45980Y-60510D01*
X46056Y-60548D01*
X46094Y-60586D01*
X46133Y-60662D01*
X46133Y-60738D01*
X46094Y-60853D01*
X45637Y-61310D01*
X46133Y-61310D01*
X46475Y-61310D02*
X46475Y-60776D01*
X46475Y-60853D02*
X46514Y-60815D01*
X46590Y-60776D01*
X46704Y-60776D01*
X46780Y-60815D01*
X46818Y-60891D01*
X46818Y-61310D01*
X46818Y-60891D02*
X46856Y-60815D01*
X46933Y-60776D01*
X47047Y-60776D01*
X47123Y-60815D01*
X47161Y-60891D01*
X47161Y-61310D01*
X47542Y-61310D02*
X47542Y-60776D01*
X47542Y-60853D02*
X47581Y-60815D01*
X47657Y-60776D01*
X47771Y-60776D01*
X47847Y-60815D01*
X47885Y-60891D01*
X47885Y-61310D01*
X47885Y-60891D02*
X47923Y-60815D01*
X48000Y-60776D01*
X48114Y-60776D01*
X48190Y-60815D01*
X48228Y-60891D01*
X48228Y-61310D01*
X49448Y-61615D02*
X49410Y-61576D01*
X49334Y-61462D01*
X49296Y-61386D01*
X49258Y-61272D01*
X49219Y-61081D01*
X49219Y-60929D01*
X49258Y-60738D01*
X49296Y-60624D01*
X49334Y-60548D01*
X49410Y-60434D01*
X49448Y-60396D01*
X50095Y-60510D02*
X49943Y-60510D01*
X49867Y-60548D01*
X49829Y-60586D01*
X49752Y-60700D01*
X49714Y-60853D01*
X49714Y-61157D01*
X49752Y-61234D01*
X49791Y-61272D01*
X49867Y-61310D01*
X50019Y-61310D01*
X50095Y-61272D01*
X50133Y-61234D01*
X50172Y-61157D01*
X50172Y-60967D01*
X50133Y-60891D01*
X50095Y-60853D01*
X50019Y-60815D01*
X49867Y-60815D01*
X49791Y-60853D01*
X49752Y-60891D01*
X49714Y-60967D01*
X51124Y-61310D02*
X51124Y-60510D01*
X51467Y-61310D02*
X51467Y-60891D01*
X51429Y-60815D01*
X51353Y-60776D01*
X51239Y-60776D01*
X51163Y-60815D01*
X51124Y-60853D01*
X51963Y-61310D02*
X51887Y-61272D01*
X51848Y-61234D01*
X51810Y-61157D01*
X51810Y-60929D01*
X51848Y-60853D01*
X51887Y-60815D01*
X51963Y-60776D01*
X52077Y-60776D01*
X52153Y-60815D01*
X52191Y-60853D01*
X52229Y-60929D01*
X52229Y-61157D01*
X52191Y-61234D01*
X52153Y-61272D01*
X52077Y-61310D01*
X51963Y-61310D01*
X52687Y-61310D02*
X52611Y-61272D01*
X52572Y-61196D01*
X52572Y-60510D01*
X53296Y-61272D02*
X53220Y-61310D01*
X53068Y-61310D01*
X52991Y-61272D01*
X52953Y-61196D01*
X52953Y-60891D01*
X52991Y-60815D01*
X53068Y-60776D01*
X53220Y-60776D01*
X53296Y-60815D01*
X53334Y-60891D01*
X53334Y-60967D01*
X52953Y-61043D01*
X53639Y-61272D02*
X53716Y-61310D01*
X53868Y-61310D01*
X53944Y-61272D01*
X53982Y-61196D01*
X53982Y-61157D01*
X53944Y-61081D01*
X53868Y-61043D01*
X53754Y-61043D01*
X53677Y-61005D01*
X53639Y-60929D01*
X53639Y-60891D01*
X53677Y-60815D01*
X53754Y-60776D01*
X53868Y-60776D01*
X53944Y-60815D01*
X54249Y-61615D02*
X54287Y-61576D01*
X54364Y-61462D01*
X54402Y-61386D01*
X54440Y-61272D01*
X54478Y-61081D01*
X54478Y-60929D01*
X54440Y-60738D01*
X54402Y-60624D01*
X54364Y-60548D01*
X54287Y-60434D01*
X54249Y-60396D01*
G54D10*
X37252Y-62208D02*
X37252Y-61874D01*
X36918Y-61874D01*
X36918Y-62208D01*
X37252Y-62208D01*
G54D11*
X37864Y-61565D02*
X37940Y-61565D01*
X38016Y-61603D01*
X38054Y-61641D01*
X38092Y-61717D01*
X38131Y-61870D01*
X38131Y-62060D01*
X38092Y-62212D01*
X38054Y-62289D01*
X38016Y-62327D01*
X37940Y-62365D01*
X37864Y-62365D01*
X37788Y-62327D01*
X37750Y-62289D01*
X37711Y-62212D01*
X37673Y-62060D01*
X37673Y-61870D01*
X37711Y-61717D01*
X37750Y-61641D01*
X37788Y-61603D01*
X37864Y-61565D01*
X38473Y-62289D02*
X38512Y-62327D01*
X38473Y-62365D01*
X38435Y-62327D01*
X38473Y-62289D01*
X38473Y-62365D01*
X39007Y-61565D02*
X39083Y-61565D01*
X39159Y-61603D01*
X39197Y-61641D01*
X39235Y-61717D01*
X39274Y-61870D01*
X39274Y-62060D01*
X39235Y-62212D01*
X39197Y-62289D01*
X39159Y-62327D01*
X39083Y-62365D01*
X39007Y-62365D01*
X38931Y-62327D01*
X38893Y-62289D01*
X38854Y-62212D01*
X38816Y-62060D01*
X38816Y-61870D01*
X38854Y-61717D01*
X38893Y-61641D01*
X38931Y-61603D01*
X39007Y-61565D01*
X39959Y-61831D02*
X39959Y-62365D01*
X39769Y-61527D02*
X39578Y-62098D01*
X40074Y-62098D01*
X40302Y-61565D02*
X40836Y-61565D01*
X40493Y-62365D01*
X41102Y-61565D02*
X41102Y-61717D01*
X41407Y-61565D02*
X41407Y-61717D01*
X42932Y-61527D02*
X42246Y-62555D01*
X44228Y-62365D02*
X43770Y-62365D01*
X43999Y-62365D02*
X43999Y-61565D01*
X43923Y-61679D01*
X43847Y-61755D01*
X43770Y-61793D01*
X44570Y-62289D02*
X44609Y-62327D01*
X44570Y-62365D01*
X44532Y-62327D01*
X44570Y-62289D01*
X44570Y-62365D01*
X44913Y-61641D02*
X44951Y-61603D01*
X45028Y-61565D01*
X45218Y-61565D01*
X45294Y-61603D01*
X45332Y-61641D01*
X45371Y-61717D01*
X45371Y-61793D01*
X45332Y-61908D01*
X44875Y-62365D01*
X45371Y-62365D01*
X45866Y-61565D02*
X45942Y-61565D01*
X46018Y-61603D01*
X46056Y-61641D01*
X46094Y-61717D01*
X46133Y-61870D01*
X46133Y-62060D01*
X46094Y-62212D01*
X46056Y-62289D01*
X46018Y-62327D01*
X45942Y-62365D01*
X45866Y-62365D01*
X45790Y-62327D01*
X45752Y-62289D01*
X45713Y-62212D01*
X45675Y-62060D01*
X45675Y-61870D01*
X45713Y-61717D01*
X45752Y-61641D01*
X45790Y-61603D01*
X45866Y-61565D01*
X46475Y-62365D02*
X46475Y-61831D01*
X46475Y-61908D02*
X46514Y-61870D01*
X46590Y-61831D01*
X46704Y-61831D01*
X46780Y-61870D01*
X46818Y-61946D01*
X46818Y-62365D01*
X46818Y-61946D02*
X46856Y-61870D01*
X46933Y-61831D01*
X47047Y-61831D01*
X47123Y-61870D01*
X47161Y-61946D01*
X47161Y-62365D01*
X47542Y-62365D02*
X47542Y-61831D01*
X47542Y-61908D02*
X47581Y-61870D01*
X47657Y-61831D01*
X47771Y-61831D01*
X47847Y-61870D01*
X47885Y-61946D01*
X47885Y-62365D01*
X47885Y-61946D02*
X47923Y-61870D01*
X48000Y-61831D01*
X48114Y-61831D01*
X48190Y-61870D01*
X48228Y-61946D01*
X48228Y-62365D01*
X49448Y-62670D02*
X49410Y-62631D01*
X49334Y-62517D01*
X49296Y-62441D01*
X49258Y-62327D01*
X49219Y-62136D01*
X49219Y-61984D01*
X49258Y-61793D01*
X49296Y-61679D01*
X49334Y-61603D01*
X49410Y-61489D01*
X49448Y-61451D01*
X49714Y-61641D02*
X49752Y-61603D01*
X49829Y-61565D01*
X50019Y-61565D01*
X50095Y-61603D01*
X50133Y-61641D01*
X50172Y-61717D01*
X50172Y-61793D01*
X50133Y-61908D01*
X49676Y-62365D01*
X50172Y-62365D01*
X51124Y-62365D02*
X51124Y-61565D01*
X51467Y-62365D02*
X51467Y-61946D01*
X51429Y-61870D01*
X51353Y-61831D01*
X51239Y-61831D01*
X51163Y-61870D01*
X51124Y-61908D01*
X51963Y-62365D02*
X51887Y-62327D01*
X51848Y-62289D01*
X51810Y-62212D01*
X51810Y-61984D01*
X51848Y-61908D01*
X51887Y-61870D01*
X51963Y-61831D01*
X52077Y-61831D01*
X52153Y-61870D01*
X52191Y-61908D01*
X52229Y-61984D01*
X52229Y-62212D01*
X52191Y-62289D01*
X52153Y-62327D01*
X52077Y-62365D01*
X51963Y-62365D01*
X52687Y-62365D02*
X52611Y-62327D01*
X52572Y-62251D01*
X52572Y-61565D01*
X53296Y-62327D02*
X53220Y-62365D01*
X53068Y-62365D01*
X52991Y-62327D01*
X52953Y-62251D01*
X52953Y-61946D01*
X52991Y-61870D01*
X53068Y-61831D01*
X53220Y-61831D01*
X53296Y-61870D01*
X53334Y-61946D01*
X53334Y-62022D01*
X52953Y-62098D01*
X53639Y-62327D02*
X53716Y-62365D01*
X53868Y-62365D01*
X53944Y-62327D01*
X53982Y-62251D01*
X53982Y-62212D01*
X53944Y-62136D01*
X53868Y-62098D01*
X53754Y-62098D01*
X53677Y-62060D01*
X53639Y-61984D01*
X53639Y-61946D01*
X53677Y-61870D01*
X53754Y-61831D01*
X53868Y-61831D01*
X53944Y-61870D01*
X54249Y-62670D02*
X54287Y-62631D01*
X54364Y-62517D01*
X54402Y-62441D01*
X54440Y-62327D01*
X54478Y-62136D01*
X54478Y-61984D01*
X54440Y-61793D01*
X54402Y-61679D01*
X54364Y-61603D01*
X54287Y-61489D01*
X54249Y-61451D01*
G54D10*
X37025Y-63391D02*
X37320Y-63096D01*
X37025Y-62801D01*
X36730Y-63096D01*
X37025Y-63391D01*
G54D11*
X37864Y-62620D02*
X37940Y-62620D01*
X38016Y-62658D01*
X38054Y-62696D01*
X38092Y-62772D01*
X38131Y-62925D01*
X38131Y-63115D01*
X38092Y-63267D01*
X38054Y-63344D01*
X38016Y-63382D01*
X37940Y-63420D01*
X37864Y-63420D01*
X37788Y-63382D01*
X37750Y-63344D01*
X37711Y-63267D01*
X37673Y-63115D01*
X37673Y-62925D01*
X37711Y-62772D01*
X37750Y-62696D01*
X37788Y-62658D01*
X37864Y-62620D01*
X38473Y-63344D02*
X38512Y-63382D01*
X38473Y-63420D01*
X38435Y-63382D01*
X38473Y-63344D01*
X38473Y-63420D01*
X39007Y-62620D02*
X39083Y-62620D01*
X39159Y-62658D01*
X39197Y-62696D01*
X39235Y-62772D01*
X39274Y-62925D01*
X39274Y-63115D01*
X39235Y-63267D01*
X39197Y-63344D01*
X39159Y-63382D01*
X39083Y-63420D01*
X39007Y-63420D01*
X38931Y-63382D01*
X38893Y-63344D01*
X38854Y-63267D01*
X38816Y-63115D01*
X38816Y-62925D01*
X38854Y-62772D01*
X38893Y-62696D01*
X38931Y-62658D01*
X39007Y-62620D01*
X39997Y-62620D02*
X39616Y-62620D01*
X39578Y-63001D01*
X39616Y-62963D01*
X39693Y-62925D01*
X39883Y-62925D01*
X39959Y-62963D01*
X39997Y-63001D01*
X40036Y-63077D01*
X40036Y-63267D01*
X39997Y-63344D01*
X39959Y-63382D01*
X39883Y-63420D01*
X39693Y-63420D01*
X39616Y-63382D01*
X39578Y-63344D01*
X40417Y-63420D02*
X40569Y-63420D01*
X40645Y-63382D01*
X40683Y-63344D01*
X40759Y-63229D01*
X40798Y-63077D01*
X40798Y-62772D01*
X40759Y-62696D01*
X40721Y-62658D01*
X40645Y-62620D01*
X40493Y-62620D01*
X40417Y-62658D01*
X40378Y-62696D01*
X40340Y-62772D01*
X40340Y-62963D01*
X40378Y-63039D01*
X40417Y-63077D01*
X40493Y-63115D01*
X40645Y-63115D01*
X40721Y-63077D01*
X40759Y-63039D01*
X40798Y-62963D01*
X41102Y-62620D02*
X41102Y-62772D01*
X41407Y-62620D02*
X41407Y-62772D01*
X42932Y-62582D02*
X42246Y-63610D01*
X44228Y-63420D02*
X43770Y-63420D01*
X43999Y-63420D02*
X43999Y-62620D01*
X43923Y-62734D01*
X43847Y-62810D01*
X43770Y-62848D01*
X44570Y-63344D02*
X44609Y-63382D01*
X44570Y-63420D01*
X44532Y-63382D01*
X44570Y-63344D01*
X44570Y-63420D01*
X45332Y-62620D02*
X44951Y-62620D01*
X44913Y-63001D01*
X44951Y-62963D01*
X45028Y-62925D01*
X45218Y-62925D01*
X45294Y-62963D01*
X45332Y-63001D01*
X45371Y-63077D01*
X45371Y-63267D01*
X45332Y-63344D01*
X45294Y-63382D01*
X45218Y-63420D01*
X45028Y-63420D01*
X44951Y-63382D01*
X44913Y-63344D01*
X45866Y-62620D02*
X45942Y-62620D01*
X46018Y-62658D01*
X46056Y-62696D01*
X46094Y-62772D01*
X46133Y-62925D01*
X46133Y-63115D01*
X46094Y-63267D01*
X46056Y-63344D01*
X46018Y-63382D01*
X45942Y-63420D01*
X45866Y-63420D01*
X45790Y-63382D01*
X45752Y-63344D01*
X45713Y-63267D01*
X45675Y-63115D01*
X45675Y-62925D01*
X45713Y-62772D01*
X45752Y-62696D01*
X45790Y-62658D01*
X45866Y-62620D01*
X46475Y-63420D02*
X46475Y-62886D01*
X46475Y-62963D02*
X46514Y-62925D01*
X46590Y-62886D01*
X46704Y-62886D01*
X46780Y-62925D01*
X46818Y-63001D01*
X46818Y-63420D01*
X46818Y-63001D02*
X46856Y-62925D01*
X46933Y-62886D01*
X47047Y-62886D01*
X47123Y-62925D01*
X47161Y-63001D01*
X47161Y-63420D01*
X47542Y-63420D02*
X47542Y-62886D01*
X47542Y-62963D02*
X47581Y-62925D01*
X47657Y-62886D01*
X47771Y-62886D01*
X47847Y-62925D01*
X47885Y-63001D01*
X47885Y-63420D01*
X47885Y-63001D02*
X47923Y-62925D01*
X48000Y-62886D01*
X48114Y-62886D01*
X48190Y-62925D01*
X48228Y-63001D01*
X48228Y-63420D01*
X49448Y-63725D02*
X49410Y-63686D01*
X49334Y-63572D01*
X49296Y-63496D01*
X49258Y-63382D01*
X49219Y-63191D01*
X49219Y-63039D01*
X49258Y-62848D01*
X49296Y-62734D01*
X49334Y-62658D01*
X49410Y-62544D01*
X49448Y-62506D01*
X49714Y-62696D02*
X49752Y-62658D01*
X49829Y-62620D01*
X50019Y-62620D01*
X50095Y-62658D01*
X50133Y-62696D01*
X50172Y-62772D01*
X50172Y-62848D01*
X50133Y-62963D01*
X49676Y-63420D01*
X50172Y-63420D01*
X51124Y-63420D02*
X51124Y-62620D01*
X51467Y-63420D02*
X51467Y-63001D01*
X51429Y-62925D01*
X51353Y-62886D01*
X51239Y-62886D01*
X51163Y-62925D01*
X51124Y-62963D01*
X51963Y-63420D02*
X51887Y-63382D01*
X51848Y-63344D01*
X51810Y-63267D01*
X51810Y-63039D01*
X51848Y-62963D01*
X51887Y-62925D01*
X51963Y-62886D01*
X52077Y-62886D01*
X52153Y-62925D01*
X52191Y-62963D01*
X52229Y-63039D01*
X52229Y-63267D01*
X52191Y-63344D01*
X52153Y-63382D01*
X52077Y-63420D01*
X51963Y-63420D01*
X52687Y-63420D02*
X52611Y-63382D01*
X52572Y-63306D01*
X52572Y-62620D01*
X53296Y-63382D02*
X53220Y-63420D01*
X53068Y-63420D01*
X52991Y-63382D01*
X52953Y-63306D01*
X52953Y-63001D01*
X52991Y-62925D01*
X53068Y-62886D01*
X53220Y-62886D01*
X53296Y-62925D01*
X53334Y-63001D01*
X53334Y-63077D01*
X52953Y-63153D01*
X53639Y-63382D02*
X53716Y-63420D01*
X53868Y-63420D01*
X53944Y-63382D01*
X53982Y-63306D01*
X53982Y-63267D01*
X53944Y-63191D01*
X53868Y-63153D01*
X53754Y-63153D01*
X53677Y-63115D01*
X53639Y-63039D01*
X53639Y-63001D01*
X53677Y-62925D01*
X53754Y-62886D01*
X53868Y-62886D01*
X53944Y-62925D01*
X54249Y-63725D02*
X54287Y-63686D01*
X54364Y-63572D01*
X54402Y-63496D01*
X54440Y-63382D01*
X54478Y-63191D01*
X54478Y-63039D01*
X54440Y-62848D01*
X54402Y-62734D01*
X54364Y-62658D01*
X54287Y-62544D01*
X54249Y-62506D01*
G54D10*
X37145Y-64575D02*
X37145Y-63727D01*
X36297Y-63727D01*
X36297Y-64575D01*
X37145Y-64575D01*
X36121Y-63551D02*
X37321Y-64751D01*
X37321Y-63551D02*
X36121Y-64751D01*
G54D11*
X37864Y-63675D02*
X37940Y-63675D01*
X38016Y-63713D01*
X38054Y-63751D01*
X38092Y-63827D01*
X38131Y-63980D01*
X38131Y-64170D01*
X38092Y-64322D01*
X38054Y-64399D01*
X38016Y-64437D01*
X37940Y-64475D01*
X37864Y-64475D01*
X37788Y-64437D01*
X37750Y-64399D01*
X37711Y-64322D01*
X37673Y-64170D01*
X37673Y-63980D01*
X37711Y-63827D01*
X37750Y-63751D01*
X37788Y-63713D01*
X37864Y-63675D01*
X38473Y-64399D02*
X38512Y-64437D01*
X38473Y-64475D01*
X38435Y-64437D01*
X38473Y-64399D01*
X38473Y-64475D01*
X39274Y-64475D02*
X38816Y-64475D01*
X39045Y-64475D02*
X39045Y-63675D01*
X38969Y-63789D01*
X38893Y-63865D01*
X38816Y-63903D01*
X39578Y-63751D02*
X39616Y-63713D01*
X39693Y-63675D01*
X39883Y-63675D01*
X39959Y-63713D01*
X39997Y-63751D01*
X40036Y-63827D01*
X40036Y-63903D01*
X39997Y-64018D01*
X39540Y-64475D01*
X40036Y-64475D01*
X40531Y-63675D02*
X40607Y-63675D01*
X40683Y-63713D01*
X40721Y-63751D01*
X40759Y-63827D01*
X40798Y-63980D01*
X40798Y-64170D01*
X40759Y-64322D01*
X40721Y-64399D01*
X40683Y-64437D01*
X40607Y-64475D01*
X40531Y-64475D01*
X40455Y-64437D01*
X40417Y-64399D01*
X40378Y-64322D01*
X40340Y-64170D01*
X40340Y-63980D01*
X40378Y-63827D01*
X40417Y-63751D01*
X40455Y-63713D01*
X40531Y-63675D01*
X41102Y-63675D02*
X41102Y-63827D01*
X41407Y-63675D02*
X41407Y-63827D01*
X42932Y-63637D02*
X42246Y-64665D01*
X43732Y-63675D02*
X44228Y-63675D01*
X43961Y-63980D01*
X44075Y-63980D01*
X44151Y-64018D01*
X44189Y-64056D01*
X44228Y-64132D01*
X44228Y-64322D01*
X44189Y-64399D01*
X44151Y-64437D01*
X44075Y-64475D01*
X43847Y-64475D01*
X43770Y-64437D01*
X43732Y-64399D01*
X44570Y-64399D02*
X44609Y-64437D01*
X44570Y-64475D01*
X44532Y-64437D01*
X44570Y-64399D01*
X44570Y-64475D01*
X45104Y-63675D02*
X45180Y-63675D01*
X45256Y-63713D01*
X45294Y-63751D01*
X45332Y-63827D01*
X45371Y-63980D01*
X45371Y-64170D01*
X45332Y-64322D01*
X45294Y-64399D01*
X45256Y-64437D01*
X45180Y-64475D01*
X45104Y-64475D01*
X45028Y-64437D01*
X44990Y-64399D01*
X44951Y-64322D01*
X44913Y-64170D01*
X44913Y-63980D01*
X44951Y-63827D01*
X44990Y-63751D01*
X45028Y-63713D01*
X45104Y-63675D01*
X46094Y-63675D02*
X45713Y-63675D01*
X45675Y-64056D01*
X45713Y-64018D01*
X45790Y-63980D01*
X45980Y-63980D01*
X46056Y-64018D01*
X46094Y-64056D01*
X46133Y-64132D01*
X46133Y-64322D01*
X46094Y-64399D01*
X46056Y-64437D01*
X45980Y-64475D01*
X45790Y-64475D01*
X45713Y-64437D01*
X45675Y-64399D01*
X46475Y-64475D02*
X46475Y-63941D01*
X46475Y-64018D02*
X46514Y-63980D01*
X46590Y-63941D01*
X46704Y-63941D01*
X46780Y-63980D01*
X46818Y-64056D01*
X46818Y-64475D01*
X46818Y-64056D02*
X46856Y-63980D01*
X46933Y-63941D01*
X47047Y-63941D01*
X47123Y-63980D01*
X47161Y-64056D01*
X47161Y-64475D01*
X47542Y-64475D02*
X47542Y-63941D01*
X47542Y-64018D02*
X47581Y-63980D01*
X47657Y-63941D01*
X47771Y-63941D01*
X47847Y-63980D01*
X47885Y-64056D01*
X47885Y-64475D01*
X47885Y-64056D02*
X47923Y-63980D01*
X48000Y-63941D01*
X48114Y-63941D01*
X48190Y-63980D01*
X48228Y-64056D01*
X48228Y-64475D01*
X49448Y-64780D02*
X49410Y-64741D01*
X49334Y-64627D01*
X49296Y-64551D01*
X49258Y-64437D01*
X49219Y-64246D01*
X49219Y-64094D01*
X49258Y-63903D01*
X49296Y-63789D01*
X49334Y-63713D01*
X49410Y-63599D01*
X49448Y-63561D01*
X50095Y-63941D02*
X50095Y-64475D01*
X49905Y-63637D02*
X49714Y-64208D01*
X50210Y-64208D01*
X51124Y-64475D02*
X51124Y-63675D01*
X51467Y-64475D02*
X51467Y-64056D01*
X51429Y-63980D01*
X51353Y-63941D01*
X51239Y-63941D01*
X51163Y-63980D01*
X51124Y-64018D01*
X51963Y-64475D02*
X51887Y-64437D01*
X51848Y-64399D01*
X51810Y-64322D01*
X51810Y-64094D01*
X51848Y-64018D01*
X51887Y-63980D01*
X51963Y-63941D01*
X52077Y-63941D01*
X52153Y-63980D01*
X52191Y-64018D01*
X52229Y-64094D01*
X52229Y-64322D01*
X52191Y-64399D01*
X52153Y-64437D01*
X52077Y-64475D01*
X51963Y-64475D01*
X52687Y-64475D02*
X52611Y-64437D01*
X52572Y-64361D01*
X52572Y-63675D01*
X53296Y-64437D02*
X53220Y-64475D01*
X53068Y-64475D01*
X52991Y-64437D01*
X52953Y-64361D01*
X52953Y-64056D01*
X52991Y-63980D01*
X53068Y-63941D01*
X53220Y-63941D01*
X53296Y-63980D01*
X53334Y-64056D01*
X53334Y-64132D01*
X52953Y-64208D01*
X53639Y-64437D02*
X53716Y-64475D01*
X53868Y-64475D01*
X53944Y-64437D01*
X53982Y-64361D01*
X53982Y-64322D01*
X53944Y-64246D01*
X53868Y-64208D01*
X53754Y-64208D01*
X53677Y-64170D01*
X53639Y-64094D01*
X53639Y-64056D01*
X53677Y-63980D01*
X53754Y-63941D01*
X53868Y-63941D01*
X53944Y-63980D01*
X54249Y-64780D02*
X54287Y-64741D01*
X54364Y-64627D01*
X54402Y-64551D01*
X54440Y-64437D01*
X54478Y-64246D01*
X54478Y-64094D01*
X54440Y-63903D01*
X54402Y-63789D01*
X54364Y-63713D01*
X54287Y-63599D01*
X54249Y-63561D01*
G54D10*
X36533Y-66418D02*
X37320Y-65631D01*
X36533Y-64844D01*
X35746Y-65631D01*
X36533Y-66418D01*
X36533Y-64844D02*
X36533Y-66418D01*
X37320Y-65631D02*
X35746Y-65631D01*
G54D11*
X37864Y-65155D02*
X37940Y-65155D01*
X38016Y-65193D01*
X38054Y-65231D01*
X38092Y-65307D01*
X38131Y-65460D01*
X38131Y-65650D01*
X38092Y-65802D01*
X38054Y-65879D01*
X38016Y-65917D01*
X37940Y-65955D01*
X37864Y-65955D01*
X37788Y-65917D01*
X37750Y-65879D01*
X37711Y-65802D01*
X37673Y-65650D01*
X37673Y-65460D01*
X37711Y-65307D01*
X37750Y-65231D01*
X37788Y-65193D01*
X37864Y-65155D01*
X38473Y-65879D02*
X38512Y-65917D01*
X38473Y-65955D01*
X38435Y-65917D01*
X38473Y-65879D01*
X38473Y-65955D01*
X39274Y-65955D02*
X38816Y-65955D01*
X39045Y-65955D02*
X39045Y-65155D01*
X38969Y-65269D01*
X38893Y-65345D01*
X38816Y-65383D01*
X39997Y-65155D02*
X39616Y-65155D01*
X39578Y-65536D01*
X39616Y-65498D01*
X39693Y-65460D01*
X39883Y-65460D01*
X39959Y-65498D01*
X39997Y-65536D01*
X40036Y-65612D01*
X40036Y-65802D01*
X39997Y-65879D01*
X39959Y-65917D01*
X39883Y-65955D01*
X39693Y-65955D01*
X39616Y-65917D01*
X39578Y-65879D01*
X40493Y-65498D02*
X40417Y-65460D01*
X40378Y-65421D01*
X40340Y-65345D01*
X40340Y-65307D01*
X40378Y-65231D01*
X40417Y-65193D01*
X40493Y-65155D01*
X40645Y-65155D01*
X40721Y-65193D01*
X40759Y-65231D01*
X40798Y-65307D01*
X40798Y-65345D01*
X40759Y-65421D01*
X40721Y-65460D01*
X40645Y-65498D01*
X40493Y-65498D01*
X40417Y-65536D01*
X40378Y-65574D01*
X40340Y-65650D01*
X40340Y-65802D01*
X40378Y-65879D01*
X40417Y-65917D01*
X40493Y-65955D01*
X40645Y-65955D01*
X40721Y-65917D01*
X40759Y-65879D01*
X40798Y-65802D01*
X40798Y-65650D01*
X40759Y-65574D01*
X40721Y-65536D01*
X40645Y-65498D01*
X41102Y-65155D02*
X41102Y-65307D01*
X41407Y-65155D02*
X41407Y-65307D01*
X42932Y-65117D02*
X42246Y-66145D01*
X44151Y-65421D02*
X44151Y-65955D01*
X43961Y-65117D02*
X43770Y-65688D01*
X44266Y-65688D01*
X44570Y-65879D02*
X44609Y-65917D01*
X44570Y-65955D01*
X44532Y-65917D01*
X44570Y-65879D01*
X44570Y-65955D01*
X45104Y-65155D02*
X45180Y-65155D01*
X45256Y-65193D01*
X45294Y-65231D01*
X45332Y-65307D01*
X45371Y-65460D01*
X45371Y-65650D01*
X45332Y-65802D01*
X45294Y-65879D01*
X45256Y-65917D01*
X45180Y-65955D01*
X45104Y-65955D01*
X45028Y-65917D01*
X44990Y-65879D01*
X44951Y-65802D01*
X44913Y-65650D01*
X44913Y-65460D01*
X44951Y-65307D01*
X44990Y-65231D01*
X45028Y-65193D01*
X45104Y-65155D01*
X45866Y-65155D02*
X45942Y-65155D01*
X46018Y-65193D01*
X46056Y-65231D01*
X46094Y-65307D01*
X46133Y-65460D01*
X46133Y-65650D01*
X46094Y-65802D01*
X46056Y-65879D01*
X46018Y-65917D01*
X45942Y-65955D01*
X45866Y-65955D01*
X45790Y-65917D01*
X45752Y-65879D01*
X45713Y-65802D01*
X45675Y-65650D01*
X45675Y-65460D01*
X45713Y-65307D01*
X45752Y-65231D01*
X45790Y-65193D01*
X45866Y-65155D01*
X46475Y-65955D02*
X46475Y-65421D01*
X46475Y-65498D02*
X46514Y-65460D01*
X46590Y-65421D01*
X46704Y-65421D01*
X46780Y-65460D01*
X46818Y-65536D01*
X46818Y-65955D01*
X46818Y-65536D02*
X46856Y-65460D01*
X46933Y-65421D01*
X47047Y-65421D01*
X47123Y-65460D01*
X47161Y-65536D01*
X47161Y-65955D01*
X47542Y-65955D02*
X47542Y-65421D01*
X47542Y-65498D02*
X47581Y-65460D01*
X47657Y-65421D01*
X47771Y-65421D01*
X47847Y-65460D01*
X47885Y-65536D01*
X47885Y-65955D01*
X47885Y-65536D02*
X47923Y-65460D01*
X48000Y-65421D01*
X48114Y-65421D01*
X48190Y-65460D01*
X48228Y-65536D01*
X48228Y-65955D01*
X49448Y-66260D02*
X49410Y-66221D01*
X49334Y-66107D01*
X49296Y-66031D01*
X49258Y-65917D01*
X49219Y-65726D01*
X49219Y-65574D01*
X49258Y-65383D01*
X49296Y-65269D01*
X49334Y-65193D01*
X49410Y-65079D01*
X49448Y-65041D01*
X49676Y-65155D02*
X50172Y-65155D01*
X49905Y-65460D01*
X50019Y-65460D01*
X50095Y-65498D01*
X50133Y-65536D01*
X50172Y-65612D01*
X50172Y-65802D01*
X50133Y-65879D01*
X50095Y-65917D01*
X50019Y-65955D01*
X49791Y-65955D01*
X49714Y-65917D01*
X49676Y-65879D01*
X51124Y-65955D02*
X51124Y-65155D01*
X51467Y-65955D02*
X51467Y-65536D01*
X51429Y-65460D01*
X51353Y-65421D01*
X51239Y-65421D01*
X51163Y-65460D01*
X51124Y-65498D01*
X51963Y-65955D02*
X51887Y-65917D01*
X51848Y-65879D01*
X51810Y-65802D01*
X51810Y-65574D01*
X51848Y-65498D01*
X51887Y-65460D01*
X51963Y-65421D01*
X52077Y-65421D01*
X52153Y-65460D01*
X52191Y-65498D01*
X52229Y-65574D01*
X52229Y-65802D01*
X52191Y-65879D01*
X52153Y-65917D01*
X52077Y-65955D01*
X51963Y-65955D01*
X52687Y-65955D02*
X52611Y-65917D01*
X52572Y-65841D01*
X52572Y-65155D01*
X53296Y-65917D02*
X53220Y-65955D01*
X53068Y-65955D01*
X52991Y-65917D01*
X52953Y-65841D01*
X52953Y-65536D01*
X52991Y-65460D01*
X53068Y-65421D01*
X53220Y-65421D01*
X53296Y-65460D01*
X53334Y-65536D01*
X53334Y-65612D01*
X52953Y-65688D01*
X53639Y-65917D02*
X53716Y-65955D01*
X53868Y-65955D01*
X53944Y-65917D01*
X53982Y-65841D01*
X53982Y-65802D01*
X53944Y-65726D01*
X53868Y-65688D01*
X53754Y-65688D01*
X53677Y-65650D01*
X53639Y-65574D01*
X53639Y-65536D01*
X53677Y-65460D01*
X53754Y-65421D01*
X53868Y-65421D01*
X53944Y-65460D01*
X54249Y-66260D02*
X54287Y-66221D01*
X54364Y-66107D01*
X54402Y-66031D01*
X54440Y-65917D01*
X54478Y-65726D01*
X54478Y-65574D01*
X54440Y-65383D01*
X54402Y-65269D01*
X54364Y-65193D01*
X54287Y-65079D01*
X54249Y-65041D01*
G54D10*
X37032Y-68182D02*
X37032Y-66790D01*
X35640Y-66790D01*
X35640Y-68182D01*
X37032Y-68182D01*
X35352Y-66502D02*
X37320Y-68470D01*
G54D11*
X37864Y-67010D02*
X37940Y-67010D01*
X38016Y-67048D01*
X38054Y-67086D01*
X38092Y-67162D01*
X38131Y-67315D01*
X38131Y-67505D01*
X38092Y-67657D01*
X38054Y-67734D01*
X38016Y-67772D01*
X37940Y-67810D01*
X37864Y-67810D01*
X37788Y-67772D01*
X37750Y-67734D01*
X37711Y-67657D01*
X37673Y-67505D01*
X37673Y-67315D01*
X37711Y-67162D01*
X37750Y-67086D01*
X37788Y-67048D01*
X37864Y-67010D01*
X38473Y-67734D02*
X38512Y-67772D01*
X38473Y-67810D01*
X38435Y-67772D01*
X38473Y-67734D01*
X38473Y-67810D01*
X39274Y-67810D02*
X38816Y-67810D01*
X39045Y-67810D02*
X39045Y-67010D01*
X38969Y-67124D01*
X38893Y-67200D01*
X38816Y-67238D01*
X39655Y-67810D02*
X39807Y-67810D01*
X39883Y-67772D01*
X39921Y-67734D01*
X39997Y-67619D01*
X40036Y-67467D01*
X40036Y-67162D01*
X39997Y-67086D01*
X39959Y-67048D01*
X39883Y-67010D01*
X39731Y-67010D01*
X39655Y-67048D01*
X39616Y-67086D01*
X39578Y-67162D01*
X39578Y-67353D01*
X39616Y-67429D01*
X39655Y-67467D01*
X39731Y-67505D01*
X39883Y-67505D01*
X39959Y-67467D01*
X39997Y-67429D01*
X40036Y-67353D01*
X40302Y-67010D02*
X40836Y-67010D01*
X40493Y-67810D01*
X41102Y-67010D02*
X41102Y-67162D01*
X41407Y-67010D02*
X41407Y-67162D01*
X42932Y-66972D02*
X42246Y-68000D01*
X44189Y-67010D02*
X43808Y-67010D01*
X43770Y-67391D01*
X43808Y-67353D01*
X43885Y-67315D01*
X44075Y-67315D01*
X44151Y-67353D01*
X44189Y-67391D01*
X44228Y-67467D01*
X44228Y-67657D01*
X44189Y-67734D01*
X44151Y-67772D01*
X44075Y-67810D01*
X43885Y-67810D01*
X43808Y-67772D01*
X43770Y-67734D01*
X44570Y-67734D02*
X44609Y-67772D01*
X44570Y-67810D01*
X44532Y-67772D01*
X44570Y-67734D01*
X44570Y-67810D01*
X45104Y-67010D02*
X45180Y-67010D01*
X45256Y-67048D01*
X45294Y-67086D01*
X45332Y-67162D01*
X45371Y-67315D01*
X45371Y-67505D01*
X45332Y-67657D01*
X45294Y-67734D01*
X45256Y-67772D01*
X45180Y-67810D01*
X45104Y-67810D01*
X45028Y-67772D01*
X44990Y-67734D01*
X44951Y-67657D01*
X44913Y-67505D01*
X44913Y-67315D01*
X44951Y-67162D01*
X44990Y-67086D01*
X45028Y-67048D01*
X45104Y-67010D01*
X45866Y-67010D02*
X45942Y-67010D01*
X46018Y-67048D01*
X46056Y-67086D01*
X46094Y-67162D01*
X46133Y-67315D01*
X46133Y-67505D01*
X46094Y-67657D01*
X46056Y-67734D01*
X46018Y-67772D01*
X45942Y-67810D01*
X45866Y-67810D01*
X45790Y-67772D01*
X45752Y-67734D01*
X45713Y-67657D01*
X45675Y-67505D01*
X45675Y-67315D01*
X45713Y-67162D01*
X45752Y-67086D01*
X45790Y-67048D01*
X45866Y-67010D01*
X46475Y-67810D02*
X46475Y-67276D01*
X46475Y-67353D02*
X46514Y-67315D01*
X46590Y-67276D01*
X46704Y-67276D01*
X46780Y-67315D01*
X46818Y-67391D01*
X46818Y-67810D01*
X46818Y-67391D02*
X46856Y-67315D01*
X46933Y-67276D01*
X47047Y-67276D01*
X47123Y-67315D01*
X47161Y-67391D01*
X47161Y-67810D01*
X47542Y-67810D02*
X47542Y-67276D01*
X47542Y-67353D02*
X47581Y-67315D01*
X47657Y-67276D01*
X47771Y-67276D01*
X47847Y-67315D01*
X47885Y-67391D01*
X47885Y-67810D01*
X47885Y-67391D02*
X47923Y-67315D01*
X48000Y-67276D01*
X48114Y-67276D01*
X48190Y-67315D01*
X48228Y-67391D01*
X48228Y-67810D01*
X49448Y-68115D02*
X49410Y-68076D01*
X49334Y-67962D01*
X49296Y-67886D01*
X49258Y-67772D01*
X49219Y-67581D01*
X49219Y-67429D01*
X49258Y-67238D01*
X49296Y-67124D01*
X49334Y-67048D01*
X49410Y-66934D01*
X49448Y-66896D01*
X49714Y-67086D02*
X49752Y-67048D01*
X49829Y-67010D01*
X50019Y-67010D01*
X50095Y-67048D01*
X50133Y-67086D01*
X50172Y-67162D01*
X50172Y-67238D01*
X50133Y-67353D01*
X49676Y-67810D01*
X50172Y-67810D01*
X51124Y-67810D02*
X51124Y-67010D01*
X51467Y-67810D02*
X51467Y-67391D01*
X51429Y-67315D01*
X51353Y-67276D01*
X51239Y-67276D01*
X51163Y-67315D01*
X51124Y-67353D01*
X51963Y-67810D02*
X51887Y-67772D01*
X51848Y-67734D01*
X51810Y-67657D01*
X51810Y-67429D01*
X51848Y-67353D01*
X51887Y-67315D01*
X51963Y-67276D01*
X52077Y-67276D01*
X52153Y-67315D01*
X52191Y-67353D01*
X52229Y-67429D01*
X52229Y-67657D01*
X52191Y-67734D01*
X52153Y-67772D01*
X52077Y-67810D01*
X51963Y-67810D01*
X52687Y-67810D02*
X52611Y-67772D01*
X52572Y-67696D01*
X52572Y-67010D01*
X53296Y-67772D02*
X53220Y-67810D01*
X53068Y-67810D01*
X52991Y-67772D01*
X52953Y-67696D01*
X52953Y-67391D01*
X52991Y-67315D01*
X53068Y-67276D01*
X53220Y-67276D01*
X53296Y-67315D01*
X53334Y-67391D01*
X53334Y-67467D01*
X52953Y-67543D01*
X53639Y-67772D02*
X53716Y-67810D01*
X53868Y-67810D01*
X53944Y-67772D01*
X53982Y-67696D01*
X53982Y-67657D01*
X53944Y-67581D01*
X53868Y-67543D01*
X53754Y-67543D01*
X53677Y-67505D01*
X53639Y-67429D01*
X53639Y-67391D01*
X53677Y-67315D01*
X53754Y-67276D01*
X53868Y-67276D01*
X53944Y-67315D01*
X54249Y-68115D02*
X54287Y-68076D01*
X54364Y-67962D01*
X54402Y-67886D01*
X54440Y-67772D01*
X54478Y-67581D01*
X54478Y-67429D01*
X54440Y-67238D01*
X54402Y-67124D01*
X54364Y-67048D01*
X54287Y-66934D01*
X54249Y-66896D01*
G54D10*
X36090Y-70965D02*
X37320Y-69735D01*
X36090Y-68505D01*
X34860Y-69735D01*
X36090Y-70965D01*
X36090Y-68505D02*
X36090Y-70965D01*
G54D11*
X37864Y-69259D02*
X37940Y-69259D01*
X38016Y-69297D01*
X38054Y-69335D01*
X38092Y-69411D01*
X38131Y-69564D01*
X38131Y-69754D01*
X38092Y-69906D01*
X38054Y-69983D01*
X38016Y-70021D01*
X37940Y-70059D01*
X37864Y-70059D01*
X37788Y-70021D01*
X37750Y-69983D01*
X37711Y-69906D01*
X37673Y-69754D01*
X37673Y-69564D01*
X37711Y-69411D01*
X37750Y-69335D01*
X37788Y-69297D01*
X37864Y-69259D01*
X38473Y-69983D02*
X38512Y-70021D01*
X38473Y-70059D01*
X38435Y-70021D01*
X38473Y-69983D01*
X38473Y-70059D01*
X38816Y-69335D02*
X38854Y-69297D01*
X38931Y-69259D01*
X39121Y-69259D01*
X39197Y-69297D01*
X39235Y-69335D01*
X39274Y-69411D01*
X39274Y-69487D01*
X39235Y-69602D01*
X38778Y-70059D01*
X39274Y-70059D01*
X39959Y-69525D02*
X39959Y-70059D01*
X39769Y-69221D02*
X39578Y-69792D01*
X40074Y-69792D01*
X40721Y-69259D02*
X40569Y-69259D01*
X40493Y-69297D01*
X40455Y-69335D01*
X40378Y-69449D01*
X40340Y-69602D01*
X40340Y-69906D01*
X40378Y-69983D01*
X40417Y-70021D01*
X40493Y-70059D01*
X40645Y-70059D01*
X40721Y-70021D01*
X40759Y-69983D01*
X40798Y-69906D01*
X40798Y-69716D01*
X40759Y-69640D01*
X40721Y-69602D01*
X40645Y-69564D01*
X40493Y-69564D01*
X40417Y-69602D01*
X40378Y-69640D01*
X40340Y-69716D01*
X41102Y-69259D02*
X41102Y-69411D01*
X41407Y-69259D02*
X41407Y-69411D01*
X42932Y-69221D02*
X42246Y-70249D01*
X44151Y-69259D02*
X43999Y-69259D01*
X43923Y-69297D01*
X43885Y-69335D01*
X43808Y-69449D01*
X43770Y-69602D01*
X43770Y-69906D01*
X43808Y-69983D01*
X43847Y-70021D01*
X43923Y-70059D01*
X44075Y-70059D01*
X44151Y-70021D01*
X44189Y-69983D01*
X44228Y-69906D01*
X44228Y-69716D01*
X44189Y-69640D01*
X44151Y-69602D01*
X44075Y-69564D01*
X43923Y-69564D01*
X43847Y-69602D01*
X43808Y-69640D01*
X43770Y-69716D01*
X44570Y-69983D02*
X44609Y-70021D01*
X44570Y-70059D01*
X44532Y-70021D01*
X44570Y-69983D01*
X44570Y-70059D01*
X44913Y-69335D02*
X44951Y-69297D01*
X45028Y-69259D01*
X45218Y-69259D01*
X45294Y-69297D01*
X45332Y-69335D01*
X45371Y-69411D01*
X45371Y-69487D01*
X45332Y-69602D01*
X44875Y-70059D01*
X45371Y-70059D01*
X46094Y-69259D02*
X45713Y-69259D01*
X45675Y-69640D01*
X45713Y-69602D01*
X45790Y-69564D01*
X45980Y-69564D01*
X46056Y-69602D01*
X46094Y-69640D01*
X46133Y-69716D01*
X46133Y-69906D01*
X46094Y-69983D01*
X46056Y-70021D01*
X45980Y-70059D01*
X45790Y-70059D01*
X45713Y-70021D01*
X45675Y-69983D01*
X46475Y-70059D02*
X46475Y-69525D01*
X46475Y-69602D02*
X46514Y-69564D01*
X46590Y-69525D01*
X46704Y-69525D01*
X46780Y-69564D01*
X46818Y-69640D01*
X46818Y-70059D01*
X46818Y-69640D02*
X46856Y-69564D01*
X46933Y-69525D01*
X47047Y-69525D01*
X47123Y-69564D01*
X47161Y-69640D01*
X47161Y-70059D01*
X47542Y-70059D02*
X47542Y-69525D01*
X47542Y-69602D02*
X47581Y-69564D01*
X47657Y-69525D01*
X47771Y-69525D01*
X47847Y-69564D01*
X47885Y-69640D01*
X47885Y-70059D01*
X47885Y-69640D02*
X47923Y-69564D01*
X48000Y-69525D01*
X48114Y-69525D01*
X48190Y-69564D01*
X48228Y-69640D01*
X48228Y-70059D01*
X49448Y-70364D02*
X49410Y-70325D01*
X49334Y-70211D01*
X49296Y-70135D01*
X49258Y-70021D01*
X49219Y-69830D01*
X49219Y-69678D01*
X49258Y-69487D01*
X49296Y-69373D01*
X49334Y-69297D01*
X49410Y-69183D01*
X49448Y-69145D01*
X49714Y-69335D02*
X49752Y-69297D01*
X49829Y-69259D01*
X50019Y-69259D01*
X50095Y-69297D01*
X50133Y-69335D01*
X50172Y-69411D01*
X50172Y-69487D01*
X50133Y-69602D01*
X49676Y-70059D01*
X50172Y-70059D01*
X51124Y-70059D02*
X51124Y-69259D01*
X51467Y-70059D02*
X51467Y-69640D01*
X51429Y-69564D01*
X51353Y-69525D01*
X51239Y-69525D01*
X51163Y-69564D01*
X51124Y-69602D01*
X51963Y-70059D02*
X51887Y-70021D01*
X51848Y-69983D01*
X51810Y-69906D01*
X51810Y-69678D01*
X51848Y-69602D01*
X51887Y-69564D01*
X51963Y-69525D01*
X52077Y-69525D01*
X52153Y-69564D01*
X52191Y-69602D01*
X52229Y-69678D01*
X52229Y-69906D01*
X52191Y-69983D01*
X52153Y-70021D01*
X52077Y-70059D01*
X51963Y-70059D01*
X52687Y-70059D02*
X52611Y-70021D01*
X52572Y-69945D01*
X52572Y-69259D01*
X53296Y-70021D02*
X53220Y-70059D01*
X53068Y-70059D01*
X52991Y-70021D01*
X52953Y-69945D01*
X52953Y-69640D01*
X52991Y-69564D01*
X53068Y-69525D01*
X53220Y-69525D01*
X53296Y-69564D01*
X53334Y-69640D01*
X53334Y-69716D01*
X52953Y-69792D01*
X53639Y-70021D02*
X53716Y-70059D01*
X53868Y-70059D01*
X53944Y-70021D01*
X53982Y-69945D01*
X53982Y-69906D01*
X53944Y-69830D01*
X53868Y-69792D01*
X53754Y-69792D01*
X53677Y-69754D01*
X53639Y-69678D01*
X53639Y-69640D01*
X53677Y-69564D01*
X53754Y-69525D01*
X53868Y-69525D01*
X53944Y-69564D01*
X54249Y-70364D02*
X54287Y-70325D01*
X54364Y-70211D01*
X54402Y-70135D01*
X54440Y-70021D01*
X54478Y-69830D01*
X54478Y-69678D01*
X54440Y-69487D01*
X54402Y-69373D01*
X54364Y-69297D01*
X54287Y-69183D01*
X54249Y-69145D01*
G54D10*
X35943Y-73854D02*
X37321Y-72476D01*
X35943Y-71098D01*
X34565Y-72476D01*
X35943Y-73854D01*
X34565Y-72476D02*
X37321Y-72476D01*
G54D11*
X37864Y-72000D02*
X37940Y-72000D01*
X38016Y-72038D01*
X38054Y-72076D01*
X38092Y-72152D01*
X38131Y-72305D01*
X38131Y-72495D01*
X38092Y-72647D01*
X38054Y-72724D01*
X38016Y-72762D01*
X37940Y-72800D01*
X37864Y-72800D01*
X37788Y-72762D01*
X37750Y-72724D01*
X37711Y-72647D01*
X37673Y-72495D01*
X37673Y-72305D01*
X37711Y-72152D01*
X37750Y-72076D01*
X37788Y-72038D01*
X37864Y-72000D01*
X38473Y-72724D02*
X38512Y-72762D01*
X38473Y-72800D01*
X38435Y-72762D01*
X38473Y-72724D01*
X38473Y-72800D01*
X38816Y-72076D02*
X38854Y-72038D01*
X38931Y-72000D01*
X39121Y-72000D01*
X39197Y-72038D01*
X39235Y-72076D01*
X39274Y-72152D01*
X39274Y-72228D01*
X39235Y-72343D01*
X38778Y-72800D01*
X39274Y-72800D01*
X39540Y-72000D02*
X40074Y-72000D01*
X39731Y-72800D01*
X40721Y-72000D02*
X40569Y-72000D01*
X40493Y-72038D01*
X40455Y-72076D01*
X40378Y-72190D01*
X40340Y-72343D01*
X40340Y-72647D01*
X40378Y-72724D01*
X40417Y-72762D01*
X40493Y-72800D01*
X40645Y-72800D01*
X40721Y-72762D01*
X40759Y-72724D01*
X40798Y-72647D01*
X40798Y-72457D01*
X40759Y-72381D01*
X40721Y-72343D01*
X40645Y-72305D01*
X40493Y-72305D01*
X40417Y-72343D01*
X40378Y-72381D01*
X40340Y-72457D01*
X41102Y-72000D02*
X41102Y-72152D01*
X41407Y-72000D02*
X41407Y-72152D01*
X42932Y-71962D02*
X42246Y-72990D01*
X43732Y-72000D02*
X44266Y-72000D01*
X43923Y-72800D01*
X44570Y-72724D02*
X44609Y-72762D01*
X44570Y-72800D01*
X44532Y-72762D01*
X44570Y-72724D01*
X44570Y-72800D01*
X45104Y-72000D02*
X45180Y-72000D01*
X45256Y-72038D01*
X45294Y-72076D01*
X45332Y-72152D01*
X45371Y-72305D01*
X45371Y-72495D01*
X45332Y-72647D01*
X45294Y-72724D01*
X45256Y-72762D01*
X45180Y-72800D01*
X45104Y-72800D01*
X45028Y-72762D01*
X44990Y-72724D01*
X44951Y-72647D01*
X44913Y-72495D01*
X44913Y-72305D01*
X44951Y-72152D01*
X44990Y-72076D01*
X45028Y-72038D01*
X45104Y-72000D01*
X45866Y-72000D02*
X45942Y-72000D01*
X46018Y-72038D01*
X46056Y-72076D01*
X46094Y-72152D01*
X46133Y-72305D01*
X46133Y-72495D01*
X46094Y-72647D01*
X46056Y-72724D01*
X46018Y-72762D01*
X45942Y-72800D01*
X45866Y-72800D01*
X45790Y-72762D01*
X45752Y-72724D01*
X45713Y-72647D01*
X45675Y-72495D01*
X45675Y-72305D01*
X45713Y-72152D01*
X45752Y-72076D01*
X45790Y-72038D01*
X45866Y-72000D01*
X46475Y-72800D02*
X46475Y-72266D01*
X46475Y-72343D02*
X46514Y-72305D01*
X46590Y-72266D01*
X46704Y-72266D01*
X46780Y-72305D01*
X46818Y-72381D01*
X46818Y-72800D01*
X46818Y-72381D02*
X46856Y-72305D01*
X46933Y-72266D01*
X47047Y-72266D01*
X47123Y-72305D01*
X47161Y-72381D01*
X47161Y-72800D01*
X47542Y-72800D02*
X47542Y-72266D01*
X47542Y-72343D02*
X47581Y-72305D01*
X47657Y-72266D01*
X47771Y-72266D01*
X47847Y-72305D01*
X47885Y-72381D01*
X47885Y-72800D01*
X47885Y-72381D02*
X47923Y-72305D01*
X48000Y-72266D01*
X48114Y-72266D01*
X48190Y-72305D01*
X48228Y-72381D01*
X48228Y-72800D01*
X49448Y-73105D02*
X49410Y-73066D01*
X49334Y-72952D01*
X49296Y-72876D01*
X49258Y-72762D01*
X49219Y-72571D01*
X49219Y-72419D01*
X49258Y-72228D01*
X49296Y-72114D01*
X49334Y-72038D01*
X49410Y-71924D01*
X49448Y-71886D01*
X49714Y-72076D02*
X49752Y-72038D01*
X49829Y-72000D01*
X50019Y-72000D01*
X50095Y-72038D01*
X50133Y-72076D01*
X50172Y-72152D01*
X50172Y-72228D01*
X50133Y-72343D01*
X49676Y-72800D01*
X50172Y-72800D01*
X51124Y-72800D02*
X51124Y-72000D01*
X51467Y-72800D02*
X51467Y-72381D01*
X51429Y-72305D01*
X51353Y-72266D01*
X51239Y-72266D01*
X51163Y-72305D01*
X51124Y-72343D01*
X51963Y-72800D02*
X51887Y-72762D01*
X51848Y-72724D01*
X51810Y-72647D01*
X51810Y-72419D01*
X51848Y-72343D01*
X51887Y-72305D01*
X51963Y-72266D01*
X52077Y-72266D01*
X52153Y-72305D01*
X52191Y-72343D01*
X52229Y-72419D01*
X52229Y-72647D01*
X52191Y-72724D01*
X52153Y-72762D01*
X52077Y-72800D01*
X51963Y-72800D01*
X52687Y-72800D02*
X52611Y-72762D01*
X52572Y-72686D01*
X52572Y-72000D01*
X53296Y-72762D02*
X53220Y-72800D01*
X53068Y-72800D01*
X52991Y-72762D01*
X52953Y-72686D01*
X52953Y-72381D01*
X52991Y-72305D01*
X53068Y-72266D01*
X53220Y-72266D01*
X53296Y-72305D01*
X53334Y-72381D01*
X53334Y-72457D01*
X52953Y-72533D01*
X53639Y-72762D02*
X53716Y-72800D01*
X53868Y-72800D01*
X53944Y-72762D01*
X53982Y-72686D01*
X53982Y-72647D01*
X53944Y-72571D01*
X53868Y-72533D01*
X53754Y-72533D01*
X53677Y-72495D01*
X53639Y-72419D01*
X53639Y-72381D01*
X53677Y-72305D01*
X53754Y-72266D01*
X53868Y-72266D01*
X53944Y-72305D01*
X54249Y-73105D02*
X54287Y-73066D01*
X54364Y-72952D01*
X54402Y-72876D01*
X54440Y-72762D01*
X54478Y-72571D01*
X54478Y-72419D01*
X54440Y-72228D01*
X54402Y-72114D01*
X54364Y-72038D01*
X54287Y-71924D01*
X54249Y-71886D01*
G54D10*
X37321Y-75512D02*
X37281Y-75913D01*
X37165Y-76299D01*
X36975Y-76655D01*
X36720Y-76968D01*
X36409Y-77225D01*
X36054Y-77417D01*
X35669Y-77536D01*
X35268Y-77578D01*
X34867Y-77542D01*
X34480Y-77428D01*
X34123Y-77241D01*
X33808Y-76988D01*
X33549Y-76679D01*
X33355Y-76326D01*
X33233Y-75941D01*
X33188Y-75540D01*
X33221Y-75139D01*
X33333Y-74752D01*
X33517Y-74393D01*
X33768Y-74077D01*
X34075Y-73815D01*
X34427Y-73618D01*
X34811Y-73494D01*
X35211Y-73446D01*
X35612Y-73477D01*
X36001Y-73585D01*
X36361Y-73767D01*
X36679Y-74016D01*
X36943Y-74321D01*
X37142Y-74672D01*
X37269Y-75055D01*
X37320Y-75455D01*
X37321Y-75512D01*
G54D11*
X37864Y-75036D02*
X37940Y-75036D01*
X38016Y-75074D01*
X38054Y-75112D01*
X38092Y-75188D01*
X38131Y-75341D01*
X38131Y-75531D01*
X38092Y-75683D01*
X38054Y-75760D01*
X38016Y-75798D01*
X37940Y-75836D01*
X37864Y-75836D01*
X37788Y-75798D01*
X37750Y-75760D01*
X37711Y-75683D01*
X37673Y-75531D01*
X37673Y-75341D01*
X37711Y-75188D01*
X37750Y-75112D01*
X37788Y-75074D01*
X37864Y-75036D01*
X38473Y-75760D02*
X38512Y-75798D01*
X38473Y-75836D01*
X38435Y-75798D01*
X38473Y-75760D01*
X38473Y-75836D01*
X39197Y-75302D02*
X39197Y-75836D01*
X39007Y-74998D02*
X38816Y-75569D01*
X39312Y-75569D01*
X40036Y-75836D02*
X39578Y-75836D01*
X39807Y-75836D02*
X39807Y-75036D01*
X39731Y-75150D01*
X39655Y-75226D01*
X39578Y-75264D01*
X40302Y-75036D02*
X40798Y-75036D01*
X40531Y-75341D01*
X40645Y-75341D01*
X40721Y-75379D01*
X40759Y-75417D01*
X40798Y-75493D01*
X40798Y-75683D01*
X40759Y-75760D01*
X40721Y-75798D01*
X40645Y-75836D01*
X40417Y-75836D01*
X40340Y-75798D01*
X40302Y-75760D01*
X41102Y-75036D02*
X41102Y-75188D01*
X41407Y-75036D02*
X41407Y-75188D01*
X42932Y-74998D02*
X42246Y-76026D01*
X44228Y-75836D02*
X43770Y-75836D01*
X43999Y-75836D02*
X43999Y-75036D01*
X43923Y-75150D01*
X43847Y-75226D01*
X43770Y-75264D01*
X44723Y-75036D02*
X44799Y-75036D01*
X44875Y-75074D01*
X44913Y-75112D01*
X44951Y-75188D01*
X44990Y-75341D01*
X44990Y-75531D01*
X44951Y-75683D01*
X44913Y-75760D01*
X44875Y-75798D01*
X44799Y-75836D01*
X44723Y-75836D01*
X44647Y-75798D01*
X44609Y-75760D01*
X44570Y-75683D01*
X44532Y-75531D01*
X44532Y-75341D01*
X44570Y-75188D01*
X44609Y-75112D01*
X44647Y-75074D01*
X44723Y-75036D01*
X45332Y-75760D02*
X45371Y-75798D01*
X45332Y-75836D01*
X45294Y-75798D01*
X45332Y-75760D01*
X45332Y-75836D01*
X46094Y-75036D02*
X45713Y-75036D01*
X45675Y-75417D01*
X45713Y-75379D01*
X45790Y-75341D01*
X45980Y-75341D01*
X46056Y-75379D01*
X46094Y-75417D01*
X46133Y-75493D01*
X46133Y-75683D01*
X46094Y-75760D01*
X46056Y-75798D01*
X45980Y-75836D01*
X45790Y-75836D01*
X45713Y-75798D01*
X45675Y-75760D01*
X46628Y-75036D02*
X46704Y-75036D01*
X46780Y-75074D01*
X46818Y-75112D01*
X46856Y-75188D01*
X46895Y-75341D01*
X46895Y-75531D01*
X46856Y-75683D01*
X46818Y-75760D01*
X46780Y-75798D01*
X46704Y-75836D01*
X46628Y-75836D01*
X46552Y-75798D01*
X46514Y-75760D01*
X46475Y-75683D01*
X46437Y-75531D01*
X46437Y-75341D01*
X46475Y-75188D01*
X46514Y-75112D01*
X46552Y-75074D01*
X46628Y-75036D01*
X47237Y-75836D02*
X47237Y-75302D01*
X47237Y-75379D02*
X47276Y-75341D01*
X47352Y-75302D01*
X47466Y-75302D01*
X47542Y-75341D01*
X47580Y-75417D01*
X47580Y-75836D01*
X47580Y-75417D02*
X47618Y-75341D01*
X47695Y-75302D01*
X47809Y-75302D01*
X47885Y-75341D01*
X47923Y-75417D01*
X47923Y-75836D01*
X48304Y-75836D02*
X48304Y-75302D01*
X48304Y-75379D02*
X48343Y-75341D01*
X48419Y-75302D01*
X48533Y-75302D01*
X48609Y-75341D01*
X48647Y-75417D01*
X48647Y-75836D01*
X48647Y-75417D02*
X48685Y-75341D01*
X48762Y-75302D01*
X48876Y-75302D01*
X48952Y-75341D01*
X48990Y-75417D01*
X48990Y-75836D01*
X50210Y-76141D02*
X50172Y-76102D01*
X50096Y-75988D01*
X50058Y-75912D01*
X50020Y-75798D01*
X49981Y-75607D01*
X49981Y-75455D01*
X50020Y-75264D01*
X50058Y-75150D01*
X50096Y-75074D01*
X50172Y-74960D01*
X50210Y-74922D01*
X50934Y-75836D02*
X50476Y-75836D01*
X50705Y-75836D02*
X50705Y-75036D01*
X50629Y-75150D01*
X50553Y-75226D01*
X50476Y-75264D01*
X51886Y-75836D02*
X51886Y-75036D01*
X52229Y-75836D02*
X52229Y-75417D01*
X52191Y-75341D01*
X52115Y-75302D01*
X52001Y-75302D01*
X51925Y-75341D01*
X51886Y-75379D01*
X52725Y-75836D02*
X52649Y-75798D01*
X52610Y-75760D01*
X52572Y-75683D01*
X52572Y-75455D01*
X52610Y-75379D01*
X52649Y-75341D01*
X52725Y-75302D01*
X52839Y-75302D01*
X52915Y-75341D01*
X52953Y-75379D01*
X52991Y-75455D01*
X52991Y-75683D01*
X52953Y-75760D01*
X52915Y-75798D01*
X52839Y-75836D01*
X52725Y-75836D01*
X53449Y-75836D02*
X53373Y-75798D01*
X53334Y-75722D01*
X53334Y-75036D01*
X54058Y-75798D02*
X53982Y-75836D01*
X53830Y-75836D01*
X53753Y-75798D01*
X53715Y-75722D01*
X53715Y-75417D01*
X53753Y-75341D01*
X53830Y-75302D01*
X53982Y-75302D01*
X54058Y-75341D01*
X54096Y-75417D01*
X54096Y-75493D01*
X53715Y-75569D01*
X54363Y-76141D02*
X54401Y-76102D01*
X54478Y-75988D01*
X54516Y-75912D01*
X54554Y-75798D01*
X54592Y-75607D01*
X54592Y-75455D01*
X54554Y-75264D01*
X54516Y-75150D01*
X54478Y-75074D01*
X54401Y-74960D01*
X54363Y-74922D01*
M02*
