G04 (created by PCBNEW (2013-01-23 BZR 3920)-testing) date Thu 24 Jan 2013 12:53:23 AM CET*
%MOIN*%
G04 Gerber Fmt 3.4, Leading zero omitted, Abs format*
%FSLAX34Y34*%
G01*
G70*
G90*
G04 APERTURE LIST*
%ADD10C,2.3622e-06*%
%ADD11C,0.1969*%
%ADD12O,0.1378X0.0984*%
%ADD13C,0.0591*%
%ADD14C,0.06*%
%ADD15C,0.3937*%
%ADD16C,0.1772*%
%ADD17C,0.315*%
%ADD18C,0.4724*%
%ADD19C,0.0984*%
%ADD20C,0.16*%
%ADD21C,0.1575*%
%ADD22R,0.0433X0.0393*%
%ADD23O,0.0689X0.1181*%
%ADD24R,0.0708X0.0629*%
%ADD25C,0.065*%
%ADD26R,0.06X0.06*%
%ADD27C,0.035*%
%ADD28C,0.025*%
%ADD29C,0.07*%
%ADD30C,0.008*%
G04 APERTURE END LIST*
G54D10*
G54D11*
X51215Y-41000D03*
X40585Y-41000D03*
G54D12*
X47908Y-50764D03*
X43892Y-50764D03*
G54D13*
X46530Y-50764D03*
X45270Y-50764D03*
G54D14*
X40200Y-36200D03*
X39200Y-37200D03*
X40200Y-38200D03*
G54D15*
X69200Y-47900D03*
G54D16*
X70635Y-48904D02*
X71763Y-49695D01*
G54D15*
X63400Y-47900D03*
G54D16*
X61964Y-48904D02*
X60836Y-49695D01*
G54D17*
X73242Y-25290D03*
X40958Y-25290D03*
G54D18*
X56000Y-45200D03*
G54D19*
X56000Y-39294D03*
X54425Y-39294D03*
X57575Y-39294D03*
G54D20*
X39370Y-15354D03*
X74803Y-15354D03*
X39370Y-50787D03*
X74803Y-50787D03*
G54D15*
X73500Y-36000D03*
X73500Y-43000D03*
G54D21*
X67700Y-30504D03*
X67700Y-43496D03*
X64900Y-30504D03*
X64900Y-43496D03*
G54D22*
X73500Y-47966D03*
X73500Y-48634D03*
G54D23*
X51200Y-27750D03*
X52200Y-27750D03*
X50200Y-27750D03*
X63000Y-27750D03*
X64000Y-27750D03*
X62000Y-27750D03*
G54D24*
X72700Y-38849D03*
X72700Y-39951D03*
X74300Y-38849D03*
X74300Y-39951D03*
G54D23*
X57100Y-27750D03*
X58100Y-27750D03*
X56100Y-27750D03*
G54D14*
X60200Y-40800D03*
X60200Y-35800D03*
X61600Y-40800D03*
X61600Y-35800D03*
G54D25*
X40354Y-46496D03*
X40354Y-45496D03*
X40354Y-47496D03*
G54D26*
X51800Y-36100D03*
G54D14*
X51800Y-35100D03*
X51800Y-34100D03*
G54D26*
X39100Y-30200D03*
G54D14*
X39100Y-31200D03*
X39100Y-32200D03*
X39100Y-33200D03*
G54D27*
X51400Y-37600D03*
X54900Y-37400D03*
X49000Y-35000D03*
X43250Y-46350D03*
X63000Y-40300D03*
X66300Y-47900D03*
X46200Y-31600D03*
X48000Y-35900D03*
X49300Y-38300D03*
X47700Y-38300D03*
X44200Y-33500D03*
X44200Y-32200D03*
X47500Y-37500D03*
X49000Y-35700D03*
X59000Y-37000D03*
X43900Y-37400D03*
G54D28*
X54900Y-37400D02*
X57700Y-37400D01*
X59200Y-38900D02*
X59200Y-40800D01*
X57700Y-37400D02*
X59200Y-38900D01*
X41000Y-32200D02*
X43400Y-29800D01*
X43400Y-29800D02*
X46100Y-29800D01*
X60820Y-49707D02*
X61593Y-49707D01*
X49700Y-35900D02*
X51400Y-37600D01*
X46100Y-29800D02*
X49700Y-33400D01*
X39100Y-32200D02*
X41000Y-32200D01*
X49700Y-33400D02*
X49700Y-35900D01*
X61300Y-42900D02*
X61300Y-45800D01*
X59200Y-40800D02*
X61300Y-42900D01*
X61300Y-45800D02*
X63400Y-47900D01*
X61593Y-49707D02*
X63400Y-47900D01*
X39100Y-33200D02*
X40700Y-33200D01*
X43700Y-30200D02*
X45800Y-30200D01*
X49000Y-33400D02*
X49000Y-35000D01*
X40700Y-33200D02*
X43700Y-30200D01*
X45800Y-30200D02*
X49000Y-33400D01*
X40354Y-47496D02*
X42104Y-47496D01*
X42104Y-47496D02*
X43250Y-46350D01*
X72700Y-38849D02*
X73500Y-38849D01*
G54D29*
X65900Y-23600D02*
X60200Y-23600D01*
X73500Y-31200D02*
X65900Y-23600D01*
G54D28*
X73500Y-38849D02*
X73500Y-38800D01*
X73500Y-38800D02*
X73500Y-38849D01*
X73500Y-38849D02*
X74300Y-38849D01*
G54D29*
X73500Y-36000D02*
X73500Y-31200D01*
G54D28*
X73500Y-36000D02*
X73500Y-36100D01*
G54D29*
X60200Y-23600D02*
X58100Y-25700D01*
G54D28*
X73500Y-36000D02*
X73500Y-38849D01*
G54D29*
X58100Y-25700D02*
X58100Y-27750D01*
X51200Y-26700D02*
X51500Y-26400D01*
X55500Y-26400D02*
X55700Y-26400D01*
X51200Y-27750D02*
X51200Y-26700D01*
X55700Y-26400D02*
X56100Y-26800D01*
X56100Y-28700D02*
X56600Y-29200D01*
X63000Y-28600D02*
X63000Y-27750D01*
X62400Y-29200D02*
X63000Y-28600D01*
X51500Y-26400D02*
X55500Y-26400D01*
X56100Y-27750D02*
X56100Y-28700D01*
X56600Y-29200D02*
X62400Y-29200D01*
X56100Y-26800D02*
X56100Y-27750D01*
X66300Y-30500D02*
X66300Y-33400D01*
X52200Y-31000D02*
X52200Y-27750D01*
X64000Y-27750D02*
X65050Y-27750D01*
X65450Y-28150D02*
X66300Y-29000D01*
X54800Y-33600D02*
X66100Y-33600D01*
X65050Y-27750D02*
X65450Y-28150D01*
X52200Y-31000D02*
X54800Y-33600D01*
X64900Y-30504D02*
X66300Y-30504D01*
X66300Y-29000D02*
X66300Y-30500D01*
X66300Y-30500D02*
X66300Y-30504D01*
X66300Y-33400D02*
X66100Y-33600D01*
X66300Y-30504D02*
X67700Y-30504D01*
G54D28*
X39370Y-15354D02*
X74803Y-15354D01*
X49800Y-39294D02*
X49794Y-39294D01*
X72860Y-50787D02*
X71780Y-49707D01*
X43850Y-51950D02*
X43850Y-52000D01*
X38400Y-16324D02*
X39370Y-15354D01*
X54425Y-39294D02*
X49800Y-39294D01*
X39370Y-50787D02*
X39587Y-50787D01*
X39587Y-50787D02*
X40800Y-52000D01*
X43850Y-51958D02*
X43850Y-51950D01*
X63000Y-36200D02*
X63000Y-40300D01*
X73590Y-52000D02*
X74803Y-50787D01*
X54319Y-39400D02*
X54425Y-39294D01*
X62600Y-35800D02*
X63000Y-36200D01*
X66300Y-52100D02*
X66300Y-52000D01*
X38500Y-30200D02*
X38400Y-30200D01*
X38400Y-30200D02*
X38500Y-30200D01*
X43850Y-52000D02*
X66300Y-52000D01*
X71780Y-49707D02*
X71007Y-49707D01*
X73500Y-49484D02*
X73508Y-49492D01*
X73508Y-49492D02*
X74803Y-50787D01*
X73508Y-49492D02*
X73508Y-48642D01*
X66300Y-47900D02*
X66300Y-52000D01*
X39370Y-49770D02*
X38400Y-48800D01*
X39100Y-30200D02*
X38400Y-30200D01*
X39370Y-50787D02*
X39370Y-49770D01*
X40800Y-52000D02*
X43850Y-52000D01*
X49800Y-40100D02*
X47200Y-42700D01*
X38400Y-30200D02*
X38400Y-16324D01*
X47200Y-42700D02*
X38400Y-42700D01*
X49800Y-39294D02*
X49800Y-40100D01*
X43892Y-52000D02*
X43850Y-51958D01*
X38400Y-48800D02*
X38400Y-47860D01*
X73508Y-48642D02*
X73500Y-48634D01*
X38400Y-47860D02*
X38400Y-47600D01*
X71007Y-49707D02*
X69200Y-47900D01*
X43892Y-50764D02*
X43892Y-52000D01*
X38400Y-42700D02*
X38400Y-30200D01*
X38400Y-47496D02*
X38400Y-47600D01*
X38400Y-47450D02*
X38400Y-42700D01*
X38400Y-47600D02*
X38400Y-47450D01*
X66300Y-52000D02*
X66300Y-52100D01*
X74803Y-50787D02*
X72860Y-50787D01*
X66300Y-52000D02*
X73590Y-52000D01*
X61600Y-35800D02*
X62600Y-35800D01*
X73500Y-39951D02*
X73500Y-43000D01*
G54D29*
X64900Y-43496D02*
X67700Y-43496D01*
G54D28*
X73500Y-39951D02*
X74300Y-39951D01*
X73500Y-43000D02*
X73500Y-47966D01*
G54D29*
X67700Y-43496D02*
X73004Y-43496D01*
X73004Y-43496D02*
X73500Y-43000D01*
G54D28*
X72700Y-39951D02*
X73500Y-39951D01*
X48000Y-35900D02*
X48000Y-35300D01*
X46400Y-33700D02*
X47300Y-34600D01*
X47900Y-34600D02*
X48000Y-34700D01*
X48000Y-34700D02*
X48000Y-35300D01*
X46400Y-33700D02*
X46400Y-31800D01*
X47300Y-34600D02*
X47900Y-34600D01*
X46400Y-31800D02*
X46200Y-31600D01*
X40200Y-38200D02*
X43700Y-38200D01*
X44000Y-38200D02*
X44300Y-38500D01*
X44300Y-38500D02*
X47500Y-38500D01*
X47500Y-38500D02*
X47700Y-38300D01*
X47700Y-38300D02*
X49300Y-38300D01*
X43700Y-38200D02*
X44000Y-38200D01*
X44200Y-33500D02*
X44200Y-32200D01*
X47500Y-37500D02*
X48700Y-37500D01*
X49000Y-37200D02*
X49000Y-35700D01*
X48700Y-37500D02*
X49000Y-37200D01*
X39304Y-46496D02*
X39100Y-46700D01*
X40850Y-49500D02*
X46644Y-49500D01*
X39100Y-47750D02*
X40850Y-49500D01*
X39100Y-46700D02*
X39100Y-47750D01*
X40354Y-46496D02*
X39304Y-46496D01*
X46644Y-49500D02*
X47908Y-50764D01*
X56000Y-39294D02*
X55794Y-39294D01*
X52600Y-36100D02*
X51800Y-36100D01*
X55794Y-39294D02*
X52600Y-36100D01*
X52900Y-34200D02*
X52900Y-35500D01*
X50200Y-33200D02*
X51900Y-33200D01*
X43100Y-29400D02*
X46400Y-29400D01*
X51900Y-33200D02*
X52900Y-34200D01*
X41300Y-31200D02*
X43100Y-29400D01*
X52900Y-35500D02*
X54400Y-37000D01*
X46400Y-29400D02*
X50200Y-33200D01*
X54400Y-37000D02*
X59000Y-37000D01*
X39100Y-31200D02*
X41300Y-31200D01*
X43700Y-37200D02*
X43900Y-37400D01*
X39200Y-37200D02*
X43700Y-37200D01*
G54D10*
G36*
X73460Y-44248D02*
X73446Y-44388D01*
X73405Y-44521D01*
X73340Y-44644D01*
X73251Y-44751D01*
X73144Y-44840D01*
X73021Y-44905D01*
X72888Y-44946D01*
X72748Y-44960D01*
X64451Y-44960D01*
X64311Y-44946D01*
X64178Y-44905D01*
X64055Y-44840D01*
X63948Y-44751D01*
X63859Y-44644D01*
X63794Y-44521D01*
X63753Y-44388D01*
X63740Y-44248D01*
X63740Y-41751D01*
X63753Y-41611D01*
X63794Y-41478D01*
X63859Y-41355D01*
X63948Y-41248D01*
X64055Y-41159D01*
X64178Y-41094D01*
X64311Y-41053D01*
X64451Y-41040D01*
X72748Y-41040D01*
X72888Y-41053D01*
X73021Y-41094D01*
X73144Y-41159D01*
X73251Y-41248D01*
X73340Y-41355D01*
X73405Y-41478D01*
X73446Y-41611D01*
X73460Y-41751D01*
X73460Y-44248D01*
X73460Y-44248D01*
G37*
G54D30*
X73460Y-44248D02*
X73446Y-44388D01*
X73405Y-44521D01*
X73340Y-44644D01*
X73251Y-44751D01*
X73144Y-44840D01*
X73021Y-44905D01*
X72888Y-44946D01*
X72748Y-44960D01*
X64451Y-44960D01*
X64311Y-44946D01*
X64178Y-44905D01*
X64055Y-44840D01*
X63948Y-44751D01*
X63859Y-44644D01*
X63794Y-44521D01*
X63753Y-44388D01*
X63740Y-44248D01*
X63740Y-41751D01*
X63753Y-41611D01*
X63794Y-41478D01*
X63859Y-41355D01*
X63948Y-41248D01*
X64055Y-41159D01*
X64178Y-41094D01*
X64311Y-41053D01*
X64451Y-41040D01*
X72748Y-41040D01*
X72888Y-41053D01*
X73021Y-41094D01*
X73144Y-41159D01*
X73251Y-41248D01*
X73340Y-41355D01*
X73405Y-41478D01*
X73446Y-41611D01*
X73460Y-41751D01*
X73460Y-44248D01*
G54D10*
G36*
X76560Y-51748D02*
X76546Y-51888D01*
X76505Y-52021D01*
X76440Y-52144D01*
X76351Y-52251D01*
X76244Y-52340D01*
X76121Y-52405D01*
X75988Y-52446D01*
X75848Y-52460D01*
X75644Y-52460D01*
X75644Y-25054D01*
X75552Y-24592D01*
X75373Y-24156D01*
X75112Y-23764D01*
X74780Y-23430D01*
X74389Y-23166D01*
X73955Y-22984D01*
X73494Y-22889D01*
X73023Y-22886D01*
X72560Y-22974D01*
X72123Y-23151D01*
X71729Y-23408D01*
X71393Y-23738D01*
X71126Y-24127D01*
X70941Y-24560D01*
X70843Y-25020D01*
X70836Y-25491D01*
X70921Y-25955D01*
X71095Y-26393D01*
X71268Y-26661D01*
X67247Y-22593D01*
X67154Y-22512D01*
X67047Y-22447D01*
X66932Y-22399D01*
X66811Y-22369D01*
X66688Y-22360D01*
X58148Y-22360D01*
X57995Y-22374D01*
X57847Y-22419D01*
X57710Y-22492D01*
X57591Y-22591D01*
X57492Y-22710D01*
X57419Y-22847D01*
X57374Y-22995D01*
X57360Y-23148D01*
X57360Y-23648D01*
X57346Y-23788D01*
X57305Y-23921D01*
X57240Y-24044D01*
X57151Y-24151D01*
X57044Y-24240D01*
X56921Y-24305D01*
X56788Y-24346D01*
X56648Y-24360D01*
X50848Y-24360D01*
X50695Y-24374D01*
X50547Y-24419D01*
X50410Y-24492D01*
X50291Y-24591D01*
X50192Y-24710D01*
X50119Y-24847D01*
X50074Y-24995D01*
X50060Y-25148D01*
X50060Y-26698D01*
X50054Y-26750D01*
X50040Y-26799D01*
X50016Y-26844D01*
X49983Y-26883D01*
X49944Y-26916D01*
X49899Y-26940D01*
X49850Y-26954D01*
X49796Y-26960D01*
X49733Y-26966D01*
X49669Y-26985D01*
X49610Y-27017D01*
X49559Y-27059D01*
X49517Y-27110D01*
X49485Y-27169D01*
X49466Y-27233D01*
X49460Y-27298D01*
X49460Y-27851D01*
X49474Y-28004D01*
X49519Y-28152D01*
X49592Y-28289D01*
X49691Y-28408D01*
X49810Y-28507D01*
X49947Y-28580D01*
X50095Y-28625D01*
X50248Y-28640D01*
X50448Y-28640D01*
X50588Y-28653D01*
X50721Y-28694D01*
X50844Y-28759D01*
X50951Y-28848D01*
X51040Y-28955D01*
X51105Y-29078D01*
X51146Y-29211D01*
X51160Y-29351D01*
X51160Y-31222D01*
X51172Y-31360D01*
X51209Y-31496D01*
X51270Y-31623D01*
X51351Y-31736D01*
X54146Y-34968D01*
X54242Y-35061D01*
X54354Y-35137D01*
X54477Y-35194D01*
X54608Y-35228D01*
X54741Y-35240D01*
X68148Y-35240D01*
X68288Y-35253D01*
X68421Y-35294D01*
X68544Y-35359D01*
X68651Y-35448D01*
X68740Y-35555D01*
X68805Y-35678D01*
X68846Y-35811D01*
X68860Y-35951D01*
X68860Y-36751D01*
X68874Y-36904D01*
X68919Y-37052D01*
X68992Y-37189D01*
X69091Y-37308D01*
X69210Y-37407D01*
X69347Y-37480D01*
X69495Y-37525D01*
X69648Y-37540D01*
X72055Y-37540D01*
X72126Y-37613D01*
X72466Y-37849D01*
X72845Y-38015D01*
X73235Y-38100D01*
X73235Y-38584D01*
X73194Y-38584D01*
X73194Y-38520D01*
X73188Y-38493D01*
X73178Y-38468D01*
X73163Y-38445D01*
X73143Y-38426D01*
X73120Y-38410D01*
X73095Y-38400D01*
X73068Y-38394D01*
X73041Y-38394D01*
X72332Y-38394D01*
X72305Y-38399D01*
X72279Y-38410D01*
X72257Y-38425D01*
X72237Y-38444D01*
X72222Y-38467D01*
X72211Y-38492D01*
X72206Y-38519D01*
X72205Y-38547D01*
X72205Y-39177D01*
X72211Y-39204D01*
X72221Y-39229D01*
X72236Y-39252D01*
X72256Y-39271D01*
X72279Y-39287D01*
X72304Y-39297D01*
X72331Y-39303D01*
X72358Y-39303D01*
X73067Y-39303D01*
X73094Y-39298D01*
X73120Y-39287D01*
X73142Y-39272D01*
X73162Y-39253D01*
X73177Y-39230D01*
X73188Y-39205D01*
X73193Y-39178D01*
X73194Y-39150D01*
X73194Y-39114D01*
X73500Y-39114D01*
X73805Y-39114D01*
X73805Y-39177D01*
X73811Y-39204D01*
X73821Y-39229D01*
X73836Y-39252D01*
X73856Y-39271D01*
X73879Y-39287D01*
X73904Y-39297D01*
X73931Y-39303D01*
X73958Y-39303D01*
X74667Y-39303D01*
X74694Y-39298D01*
X74720Y-39287D01*
X74742Y-39272D01*
X74762Y-39253D01*
X74777Y-39230D01*
X74788Y-39205D01*
X74793Y-39178D01*
X74794Y-39150D01*
X74794Y-38520D01*
X74788Y-38493D01*
X74778Y-38468D01*
X74763Y-38445D01*
X74743Y-38426D01*
X74720Y-38410D01*
X74695Y-38400D01*
X74668Y-38394D01*
X74641Y-38394D01*
X73932Y-38394D01*
X73905Y-38399D01*
X73879Y-38410D01*
X73857Y-38425D01*
X73837Y-38444D01*
X73822Y-38467D01*
X73811Y-38492D01*
X73806Y-38519D01*
X73805Y-38547D01*
X73805Y-38584D01*
X73765Y-38584D01*
X73765Y-38094D01*
X74069Y-38040D01*
X74455Y-37891D01*
X74804Y-37669D01*
X74980Y-37501D01*
X75052Y-37480D01*
X75189Y-37407D01*
X75308Y-37308D01*
X75407Y-37189D01*
X75480Y-37052D01*
X75525Y-36904D01*
X75540Y-36751D01*
X75540Y-36538D01*
X75601Y-36265D01*
X75608Y-35793D01*
X75540Y-35446D01*
X75540Y-31306D01*
X75525Y-31155D01*
X75480Y-31007D01*
X75408Y-30871D01*
X75313Y-30754D01*
X71842Y-27242D01*
X72064Y-27396D01*
X72496Y-27585D01*
X72956Y-27686D01*
X73427Y-27696D01*
X73891Y-27614D01*
X74330Y-27444D01*
X74727Y-27191D01*
X75069Y-26867D01*
X75340Y-26482D01*
X75532Y-26051D01*
X75636Y-25592D01*
X75644Y-25054D01*
X75644Y-52460D01*
X75608Y-52460D01*
X75608Y-42793D01*
X75540Y-42446D01*
X75528Y-42387D01*
X75370Y-42005D01*
X75141Y-41660D01*
X74850Y-41367D01*
X74507Y-41136D01*
X74126Y-40976D01*
X73765Y-40901D01*
X73765Y-40216D01*
X73805Y-40216D01*
X73805Y-40279D01*
X73811Y-40306D01*
X73821Y-40331D01*
X73836Y-40354D01*
X73856Y-40373D01*
X73879Y-40389D01*
X73904Y-40399D01*
X73931Y-40405D01*
X73958Y-40405D01*
X74667Y-40405D01*
X74694Y-40400D01*
X74720Y-40389D01*
X74742Y-40374D01*
X74762Y-40355D01*
X74777Y-40332D01*
X74788Y-40307D01*
X74793Y-40280D01*
X74794Y-40252D01*
X74794Y-39622D01*
X74788Y-39595D01*
X74778Y-39570D01*
X74763Y-39547D01*
X74743Y-39528D01*
X74720Y-39512D01*
X74695Y-39502D01*
X74668Y-39496D01*
X74641Y-39496D01*
X73932Y-39496D01*
X73905Y-39501D01*
X73879Y-39512D01*
X73857Y-39527D01*
X73837Y-39546D01*
X73822Y-39569D01*
X73811Y-39594D01*
X73806Y-39621D01*
X73805Y-39649D01*
X73805Y-39686D01*
X73500Y-39686D01*
X73194Y-39686D01*
X73194Y-39622D01*
X73188Y-39595D01*
X73178Y-39570D01*
X73163Y-39547D01*
X73143Y-39528D01*
X73120Y-39512D01*
X73095Y-39502D01*
X73068Y-39496D01*
X73041Y-39496D01*
X72332Y-39496D01*
X72305Y-39501D01*
X72279Y-39512D01*
X72257Y-39527D01*
X72237Y-39546D01*
X72222Y-39569D01*
X72211Y-39594D01*
X72206Y-39621D01*
X72205Y-39649D01*
X72205Y-40279D01*
X72211Y-40306D01*
X72221Y-40331D01*
X72236Y-40354D01*
X72256Y-40373D01*
X72279Y-40389D01*
X72304Y-40399D01*
X72331Y-40405D01*
X72358Y-40405D01*
X73067Y-40405D01*
X73094Y-40400D01*
X73120Y-40389D01*
X73142Y-40374D01*
X73162Y-40355D01*
X73177Y-40332D01*
X73188Y-40307D01*
X73193Y-40280D01*
X73194Y-40252D01*
X73194Y-40216D01*
X73235Y-40216D01*
X73235Y-40814D01*
X73104Y-40774D01*
X72951Y-40760D01*
X64248Y-40760D01*
X64113Y-40771D01*
X63980Y-40807D01*
X63855Y-40865D01*
X63742Y-40944D01*
X63645Y-41042D01*
X63566Y-41155D01*
X63507Y-41280D01*
X63472Y-41413D01*
X63460Y-41548D01*
X63463Y-44449D01*
X63478Y-44602D01*
X63523Y-44750D01*
X63596Y-44886D01*
X63694Y-45006D01*
X63814Y-45104D01*
X63950Y-45177D01*
X64098Y-45222D01*
X64251Y-45237D01*
X71299Y-45240D01*
X71300Y-45240D01*
X72951Y-45240D01*
X73104Y-45225D01*
X73235Y-45185D01*
X73235Y-47638D01*
X73217Y-47645D01*
X73194Y-47660D01*
X73175Y-47679D01*
X73159Y-47702D01*
X73149Y-47727D01*
X73143Y-47754D01*
X73143Y-47782D01*
X73143Y-48176D01*
X73148Y-48203D01*
X73159Y-48228D01*
X73174Y-48251D01*
X73193Y-48270D01*
X73216Y-48286D01*
X73241Y-48296D01*
X73268Y-48302D01*
X73296Y-48302D01*
X73730Y-48302D01*
X73740Y-48300D01*
X73757Y-48297D01*
X73782Y-48286D01*
X73805Y-48271D01*
X73824Y-48252D01*
X73840Y-48229D01*
X73850Y-48204D01*
X73856Y-48177D01*
X73856Y-48149D01*
X73856Y-47755D01*
X73851Y-47728D01*
X73840Y-47703D01*
X73825Y-47680D01*
X73806Y-47661D01*
X73783Y-47645D01*
X73765Y-47638D01*
X73765Y-45094D01*
X74069Y-45040D01*
X74455Y-44891D01*
X74804Y-44669D01*
X75103Y-44384D01*
X75342Y-44046D01*
X75510Y-43668D01*
X75540Y-43538D01*
X75601Y-43265D01*
X75608Y-42793D01*
X75608Y-52460D01*
X75540Y-52460D01*
X75500Y-52460D01*
X73740Y-52460D01*
X73700Y-52460D01*
X65508Y-52460D01*
X65508Y-47693D01*
X65428Y-47287D01*
X65270Y-46905D01*
X65041Y-46560D01*
X64750Y-46267D01*
X64407Y-46036D01*
X64026Y-45876D01*
X63621Y-45792D01*
X63207Y-45790D01*
X62801Y-45867D01*
X62418Y-46022D01*
X62103Y-46228D01*
X62040Y-46165D01*
X62040Y-40756D01*
X62023Y-40672D01*
X61990Y-40592D01*
X61942Y-40520D01*
X61881Y-40459D01*
X61810Y-40411D01*
X61730Y-40377D01*
X61646Y-40360D01*
X61559Y-40359D01*
X61475Y-40375D01*
X61395Y-40408D01*
X61322Y-40455D01*
X61261Y-40515D01*
X61212Y-40587D01*
X61178Y-40666D01*
X61160Y-40750D01*
X61159Y-40836D01*
X61174Y-40921D01*
X61206Y-41002D01*
X61253Y-41074D01*
X61313Y-41136D01*
X61384Y-41185D01*
X61463Y-41220D01*
X61547Y-41239D01*
X61633Y-41240D01*
X61718Y-41225D01*
X61799Y-41194D01*
X61872Y-41148D01*
X61934Y-41088D01*
X61984Y-41018D01*
X62019Y-40939D01*
X62038Y-40855D01*
X62040Y-40756D01*
X62040Y-46165D01*
X61565Y-45690D01*
X61565Y-42900D01*
X61562Y-42875D01*
X61560Y-42851D01*
X61560Y-42849D01*
X61559Y-42848D01*
X61552Y-42825D01*
X61546Y-42801D01*
X61545Y-42800D01*
X61545Y-42799D01*
X61533Y-42777D01*
X61522Y-42755D01*
X61521Y-42754D01*
X61520Y-42753D01*
X61505Y-42734D01*
X61489Y-42715D01*
X61488Y-42713D01*
X61488Y-42713D01*
X61487Y-42713D01*
X61487Y-42712D01*
X60640Y-41865D01*
X60640Y-40756D01*
X60640Y-35756D01*
X60623Y-35672D01*
X60590Y-35592D01*
X60542Y-35520D01*
X60481Y-35459D01*
X60410Y-35411D01*
X60330Y-35377D01*
X60246Y-35360D01*
X60159Y-35359D01*
X60075Y-35375D01*
X59995Y-35408D01*
X59922Y-35455D01*
X59861Y-35515D01*
X59812Y-35587D01*
X59778Y-35666D01*
X59760Y-35750D01*
X59759Y-35836D01*
X59774Y-35921D01*
X59806Y-36002D01*
X59853Y-36074D01*
X59913Y-36136D01*
X59984Y-36185D01*
X60063Y-36220D01*
X60147Y-36239D01*
X60233Y-36240D01*
X60318Y-36225D01*
X60399Y-36194D01*
X60472Y-36148D01*
X60534Y-36088D01*
X60584Y-36018D01*
X60619Y-35939D01*
X60638Y-35855D01*
X60640Y-35756D01*
X60640Y-40756D01*
X60623Y-40672D01*
X60590Y-40592D01*
X60542Y-40520D01*
X60481Y-40459D01*
X60410Y-40411D01*
X60330Y-40377D01*
X60246Y-40360D01*
X60159Y-40359D01*
X60075Y-40375D01*
X59995Y-40408D01*
X59922Y-40455D01*
X59861Y-40515D01*
X59812Y-40587D01*
X59778Y-40666D01*
X59760Y-40750D01*
X59759Y-40836D01*
X59774Y-40921D01*
X59806Y-41002D01*
X59853Y-41074D01*
X59913Y-41136D01*
X59984Y-41185D01*
X60063Y-41220D01*
X60147Y-41239D01*
X60233Y-41240D01*
X60318Y-41225D01*
X60399Y-41194D01*
X60472Y-41148D01*
X60534Y-41088D01*
X60584Y-41018D01*
X60619Y-40939D01*
X60638Y-40855D01*
X60640Y-40756D01*
X60640Y-41865D01*
X59465Y-40690D01*
X59465Y-38900D01*
X59462Y-38875D01*
X59460Y-38851D01*
X59460Y-38849D01*
X59459Y-38848D01*
X59452Y-38825D01*
X59446Y-38801D01*
X59445Y-38800D01*
X59445Y-38799D01*
X59433Y-38777D01*
X59422Y-38755D01*
X59421Y-38754D01*
X59420Y-38753D01*
X59405Y-38734D01*
X59389Y-38715D01*
X59388Y-38713D01*
X59388Y-38713D01*
X59387Y-38713D01*
X59387Y-38712D01*
X57939Y-37265D01*
X58829Y-37265D01*
X58845Y-37276D01*
X58902Y-37301D01*
X58962Y-37314D01*
X59024Y-37315D01*
X59085Y-37304D01*
X59142Y-37282D01*
X59194Y-37249D01*
X59239Y-37206D01*
X59275Y-37156D01*
X59300Y-37099D01*
X59314Y-37039D01*
X59315Y-36969D01*
X59303Y-36908D01*
X59279Y-36851D01*
X59245Y-36799D01*
X59201Y-36756D01*
X59150Y-36721D01*
X59093Y-36697D01*
X59033Y-36685D01*
X58971Y-36684D01*
X58910Y-36696D01*
X58853Y-36719D01*
X58829Y-36735D01*
X54509Y-36735D01*
X53165Y-35390D01*
X53165Y-34200D01*
X53162Y-34175D01*
X53160Y-34151D01*
X53160Y-34149D01*
X53159Y-34148D01*
X53152Y-34125D01*
X53146Y-34101D01*
X53145Y-34100D01*
X53145Y-34099D01*
X53133Y-34077D01*
X53122Y-34055D01*
X53121Y-34054D01*
X53120Y-34053D01*
X53105Y-34034D01*
X53089Y-34015D01*
X53088Y-34013D01*
X53088Y-34013D01*
X53087Y-34013D01*
X53087Y-34012D01*
X52087Y-33012D01*
X52068Y-32997D01*
X52049Y-32981D01*
X52048Y-32980D01*
X52047Y-32979D01*
X52025Y-32968D01*
X52004Y-32956D01*
X52003Y-32956D01*
X52001Y-32955D01*
X51978Y-32948D01*
X51955Y-32940D01*
X51953Y-32940D01*
X51952Y-32940D01*
X51928Y-32937D01*
X51903Y-32935D01*
X51900Y-32935D01*
X51900Y-32935D01*
X51900Y-32935D01*
X51900Y-32935D01*
X50309Y-32935D01*
X46587Y-29212D01*
X46568Y-29197D01*
X46549Y-29181D01*
X46548Y-29180D01*
X46547Y-29179D01*
X46525Y-29168D01*
X46504Y-29156D01*
X46503Y-29156D01*
X46501Y-29155D01*
X46478Y-29148D01*
X46455Y-29140D01*
X46453Y-29140D01*
X46452Y-29140D01*
X46428Y-29137D01*
X46403Y-29135D01*
X46400Y-29135D01*
X46400Y-29135D01*
X46400Y-29135D01*
X46400Y-29135D01*
X43360Y-29135D01*
X43360Y-25054D01*
X43268Y-24592D01*
X43089Y-24156D01*
X42828Y-23764D01*
X42496Y-23430D01*
X42105Y-23166D01*
X41671Y-22984D01*
X41210Y-22889D01*
X40739Y-22886D01*
X40276Y-22974D01*
X39839Y-23151D01*
X39445Y-23408D01*
X39109Y-23738D01*
X38842Y-24127D01*
X38657Y-24560D01*
X38559Y-25020D01*
X38552Y-25491D01*
X38637Y-25955D01*
X38811Y-26393D01*
X39066Y-26789D01*
X39393Y-27128D01*
X39780Y-27396D01*
X40212Y-27585D01*
X40672Y-27686D01*
X41143Y-27696D01*
X41607Y-27614D01*
X42046Y-27444D01*
X42443Y-27191D01*
X42785Y-26867D01*
X43056Y-26482D01*
X43248Y-26051D01*
X43352Y-25592D01*
X43360Y-25054D01*
X43360Y-29135D01*
X43100Y-29135D01*
X43075Y-29137D01*
X43051Y-29139D01*
X43049Y-29139D01*
X43048Y-29140D01*
X43025Y-29147D01*
X43001Y-29153D01*
X43000Y-29154D01*
X42999Y-29154D01*
X42977Y-29166D01*
X42955Y-29177D01*
X42954Y-29178D01*
X42953Y-29179D01*
X42934Y-29194D01*
X42915Y-29210D01*
X42913Y-29211D01*
X42913Y-29211D01*
X42913Y-29212D01*
X42912Y-29212D01*
X41190Y-30935D01*
X39452Y-30935D01*
X39442Y-30920D01*
X39381Y-30859D01*
X39310Y-30811D01*
X39230Y-30777D01*
X39146Y-30760D01*
X39059Y-30759D01*
X38975Y-30775D01*
X38895Y-30808D01*
X38822Y-30855D01*
X38761Y-30915D01*
X38712Y-30987D01*
X38678Y-31066D01*
X38660Y-31150D01*
X38659Y-31236D01*
X38674Y-31321D01*
X38706Y-31402D01*
X38753Y-31474D01*
X38813Y-31536D01*
X38884Y-31585D01*
X38963Y-31620D01*
X39047Y-31639D01*
X39133Y-31640D01*
X39218Y-31625D01*
X39299Y-31594D01*
X39372Y-31548D01*
X39434Y-31488D01*
X39451Y-31465D01*
X41300Y-31465D01*
X41324Y-31462D01*
X41348Y-31460D01*
X41350Y-31460D01*
X41351Y-31459D01*
X41371Y-31453D01*
X40890Y-31935D01*
X39452Y-31935D01*
X39442Y-31920D01*
X39381Y-31859D01*
X39310Y-31811D01*
X39230Y-31777D01*
X39146Y-31760D01*
X39059Y-31759D01*
X38975Y-31775D01*
X38895Y-31808D01*
X38822Y-31855D01*
X38761Y-31915D01*
X38712Y-31987D01*
X38678Y-32066D01*
X38660Y-32150D01*
X38659Y-32236D01*
X38674Y-32321D01*
X38706Y-32402D01*
X38753Y-32474D01*
X38813Y-32536D01*
X38884Y-32585D01*
X38963Y-32620D01*
X39047Y-32639D01*
X39133Y-32640D01*
X39218Y-32625D01*
X39299Y-32594D01*
X39372Y-32548D01*
X39434Y-32488D01*
X39451Y-32465D01*
X41000Y-32465D01*
X41024Y-32462D01*
X41048Y-32460D01*
X41050Y-32460D01*
X41051Y-32459D01*
X41071Y-32453D01*
X40590Y-32935D01*
X39452Y-32935D01*
X39442Y-32920D01*
X39381Y-32859D01*
X39310Y-32811D01*
X39230Y-32777D01*
X39146Y-32760D01*
X39059Y-32759D01*
X38975Y-32775D01*
X38895Y-32808D01*
X38822Y-32855D01*
X38761Y-32915D01*
X38712Y-32987D01*
X38678Y-33066D01*
X38660Y-33150D01*
X38659Y-33236D01*
X38674Y-33321D01*
X38706Y-33402D01*
X38753Y-33474D01*
X38813Y-33536D01*
X38884Y-33585D01*
X38963Y-33620D01*
X39047Y-33639D01*
X39133Y-33640D01*
X39218Y-33625D01*
X39299Y-33594D01*
X39372Y-33548D01*
X39434Y-33488D01*
X39451Y-33465D01*
X40700Y-33465D01*
X40724Y-33462D01*
X40748Y-33460D01*
X40750Y-33460D01*
X40751Y-33459D01*
X40774Y-33452D01*
X40798Y-33446D01*
X40799Y-33445D01*
X40800Y-33445D01*
X40822Y-33433D01*
X40844Y-33422D01*
X40845Y-33421D01*
X40846Y-33420D01*
X40865Y-33405D01*
X40884Y-33389D01*
X40886Y-33388D01*
X40886Y-33388D01*
X40886Y-33388D01*
X40887Y-33387D01*
X43809Y-30465D01*
X45690Y-30465D01*
X48735Y-33509D01*
X48735Y-34829D01*
X48722Y-34847D01*
X48698Y-34904D01*
X48685Y-34964D01*
X48684Y-35026D01*
X48695Y-35087D01*
X48718Y-35144D01*
X48751Y-35196D01*
X48794Y-35241D01*
X48845Y-35276D01*
X48902Y-35301D01*
X48962Y-35314D01*
X49024Y-35315D01*
X49085Y-35304D01*
X49142Y-35282D01*
X49194Y-35249D01*
X49239Y-35206D01*
X49275Y-35156D01*
X49300Y-35099D01*
X49314Y-35039D01*
X49315Y-34969D01*
X49303Y-34908D01*
X49279Y-34851D01*
X49265Y-34829D01*
X49265Y-33400D01*
X49262Y-33375D01*
X49260Y-33351D01*
X49260Y-33349D01*
X49259Y-33348D01*
X49253Y-33328D01*
X49435Y-33509D01*
X49435Y-35900D01*
X49437Y-35924D01*
X49439Y-35948D01*
X49439Y-35950D01*
X49440Y-35951D01*
X49447Y-35974D01*
X49453Y-35998D01*
X49454Y-35999D01*
X49454Y-36000D01*
X49466Y-36022D01*
X49477Y-36044D01*
X49478Y-36045D01*
X49479Y-36046D01*
X49494Y-36065D01*
X49510Y-36084D01*
X49511Y-36086D01*
X49511Y-36086D01*
X49511Y-36086D01*
X49512Y-36087D01*
X51091Y-37666D01*
X51095Y-37687D01*
X51118Y-37744D01*
X51151Y-37796D01*
X51194Y-37841D01*
X51245Y-37876D01*
X51302Y-37901D01*
X51362Y-37914D01*
X51424Y-37915D01*
X51485Y-37904D01*
X51542Y-37882D01*
X51594Y-37849D01*
X51639Y-37806D01*
X51675Y-37756D01*
X51700Y-37699D01*
X51714Y-37639D01*
X51715Y-37569D01*
X51703Y-37508D01*
X51679Y-37451D01*
X51645Y-37399D01*
X51601Y-37356D01*
X51550Y-37321D01*
X51493Y-37297D01*
X51466Y-37292D01*
X49965Y-35790D01*
X49965Y-33400D01*
X49962Y-33375D01*
X49960Y-33351D01*
X49960Y-33349D01*
X49959Y-33348D01*
X49953Y-33328D01*
X50012Y-33387D01*
X50031Y-33402D01*
X50050Y-33418D01*
X50051Y-33419D01*
X50052Y-33420D01*
X50074Y-33431D01*
X50095Y-33443D01*
X50096Y-33443D01*
X50098Y-33444D01*
X50121Y-33451D01*
X50144Y-33459D01*
X50146Y-33459D01*
X50147Y-33459D01*
X50171Y-33462D01*
X50196Y-33464D01*
X50199Y-33464D01*
X50199Y-33464D01*
X50199Y-33464D01*
X50200Y-33465D01*
X51790Y-33465D01*
X52635Y-34309D01*
X52635Y-35500D01*
X52637Y-35524D01*
X52639Y-35548D01*
X52639Y-35550D01*
X52640Y-35551D01*
X52647Y-35574D01*
X52653Y-35598D01*
X52654Y-35599D01*
X52654Y-35600D01*
X52666Y-35622D01*
X52677Y-35644D01*
X52678Y-35645D01*
X52679Y-35646D01*
X52694Y-35665D01*
X52710Y-35684D01*
X52711Y-35686D01*
X52711Y-35686D01*
X52711Y-35686D01*
X52712Y-35687D01*
X54212Y-37187D01*
X54231Y-37202D01*
X54250Y-37218D01*
X54251Y-37219D01*
X54252Y-37220D01*
X54274Y-37231D01*
X54295Y-37243D01*
X54296Y-37243D01*
X54298Y-37244D01*
X54321Y-37251D01*
X54344Y-37259D01*
X54346Y-37259D01*
X54347Y-37259D01*
X54371Y-37262D01*
X54396Y-37264D01*
X54399Y-37264D01*
X54399Y-37264D01*
X54399Y-37264D01*
X54400Y-37265D01*
X54615Y-37265D01*
X54598Y-37304D01*
X54585Y-37364D01*
X54584Y-37426D01*
X54595Y-37487D01*
X54618Y-37544D01*
X54651Y-37596D01*
X54694Y-37641D01*
X54745Y-37676D01*
X54802Y-37701D01*
X54862Y-37714D01*
X54924Y-37715D01*
X54985Y-37704D01*
X55042Y-37682D01*
X55070Y-37665D01*
X57590Y-37665D01*
X58935Y-39009D01*
X58935Y-40800D01*
X58937Y-40824D01*
X58939Y-40848D01*
X58939Y-40850D01*
X58940Y-40851D01*
X58947Y-40874D01*
X58953Y-40898D01*
X58954Y-40899D01*
X58954Y-40900D01*
X58966Y-40922D01*
X58977Y-40944D01*
X58978Y-40945D01*
X58979Y-40946D01*
X58994Y-40965D01*
X59010Y-40984D01*
X59011Y-40986D01*
X59011Y-40986D01*
X59011Y-40986D01*
X59012Y-40987D01*
X61035Y-43009D01*
X61035Y-45800D01*
X61037Y-45824D01*
X61039Y-45848D01*
X61039Y-45850D01*
X61040Y-45851D01*
X61047Y-45874D01*
X61053Y-45898D01*
X61054Y-45899D01*
X61054Y-45900D01*
X61066Y-45922D01*
X61077Y-45944D01*
X61078Y-45945D01*
X61079Y-45946D01*
X61094Y-45965D01*
X61110Y-45984D01*
X61111Y-45986D01*
X61111Y-45986D01*
X61111Y-45986D01*
X61112Y-45987D01*
X61730Y-46605D01*
X61543Y-46879D01*
X61380Y-47259D01*
X61294Y-47663D01*
X61288Y-48077D01*
X61296Y-48120D01*
X60240Y-48859D01*
X60088Y-48989D01*
X59964Y-49147D01*
X59873Y-49325D01*
X59819Y-49518D01*
X59803Y-49717D01*
X59826Y-49916D01*
X59887Y-50107D01*
X59984Y-50282D01*
X60113Y-50435D01*
X60270Y-50560D01*
X60448Y-50652D01*
X60640Y-50708D01*
X60840Y-50725D01*
X61039Y-50704D01*
X61230Y-50644D01*
X61405Y-50548D01*
X61417Y-50540D01*
X62477Y-49798D01*
X62745Y-49915D01*
X63149Y-50003D01*
X63562Y-50012D01*
X63969Y-49940D01*
X64355Y-49791D01*
X64704Y-49569D01*
X65003Y-49284D01*
X65242Y-48946D01*
X65410Y-48568D01*
X65501Y-48165D01*
X65508Y-47693D01*
X65508Y-52460D01*
X58502Y-52460D01*
X58502Y-44954D01*
X58406Y-44473D01*
X58219Y-44019D01*
X58207Y-44000D01*
X58207Y-39232D01*
X58182Y-39110D01*
X58135Y-38995D01*
X58067Y-38892D01*
X57979Y-38804D01*
X57877Y-38735D01*
X57762Y-38687D01*
X57641Y-38662D01*
X57517Y-38661D01*
X57395Y-38684D01*
X57280Y-38731D01*
X57177Y-38799D01*
X57088Y-38885D01*
X57018Y-38988D01*
X56969Y-39101D01*
X56943Y-39223D01*
X56942Y-39347D01*
X56964Y-39469D01*
X57010Y-39584D01*
X57077Y-39688D01*
X57163Y-39777D01*
X57265Y-39848D01*
X57378Y-39897D01*
X57499Y-39924D01*
X57623Y-39927D01*
X57745Y-39905D01*
X57861Y-39860D01*
X57965Y-39794D01*
X58055Y-39708D01*
X58127Y-39607D01*
X58177Y-39494D01*
X58205Y-39373D01*
X58207Y-39232D01*
X58207Y-44000D01*
X57948Y-43611D01*
X57602Y-43262D01*
X57195Y-42988D01*
X56743Y-42798D01*
X56632Y-42775D01*
X56632Y-39232D01*
X56607Y-39110D01*
X56560Y-38995D01*
X56492Y-38892D01*
X56404Y-38804D01*
X56302Y-38735D01*
X56187Y-38687D01*
X56066Y-38662D01*
X55942Y-38661D01*
X55820Y-38684D01*
X55705Y-38731D01*
X55645Y-38770D01*
X52787Y-35912D01*
X52768Y-35897D01*
X52749Y-35881D01*
X52748Y-35880D01*
X52747Y-35879D01*
X52725Y-35868D01*
X52704Y-35856D01*
X52703Y-35856D01*
X52701Y-35855D01*
X52678Y-35848D01*
X52655Y-35840D01*
X52653Y-35840D01*
X52652Y-35840D01*
X52628Y-35837D01*
X52603Y-35835D01*
X52600Y-35835D01*
X52600Y-35835D01*
X52600Y-35835D01*
X52600Y-35835D01*
X52240Y-35835D01*
X52240Y-35056D01*
X52240Y-34056D01*
X52223Y-33972D01*
X52190Y-33892D01*
X52142Y-33820D01*
X52081Y-33759D01*
X52010Y-33711D01*
X51930Y-33677D01*
X51846Y-33660D01*
X51759Y-33659D01*
X51675Y-33675D01*
X51595Y-33708D01*
X51522Y-33755D01*
X51461Y-33815D01*
X51412Y-33887D01*
X51378Y-33966D01*
X51360Y-34050D01*
X51359Y-34136D01*
X51374Y-34221D01*
X51406Y-34302D01*
X51453Y-34374D01*
X51513Y-34436D01*
X51584Y-34485D01*
X51663Y-34520D01*
X51747Y-34539D01*
X51833Y-34540D01*
X51918Y-34525D01*
X51999Y-34494D01*
X52072Y-34448D01*
X52134Y-34388D01*
X52184Y-34318D01*
X52219Y-34239D01*
X52238Y-34155D01*
X52240Y-34056D01*
X52240Y-35056D01*
X52223Y-34972D01*
X52190Y-34892D01*
X52142Y-34820D01*
X52081Y-34759D01*
X52010Y-34711D01*
X51930Y-34677D01*
X51846Y-34660D01*
X51759Y-34659D01*
X51675Y-34675D01*
X51595Y-34708D01*
X51522Y-34755D01*
X51461Y-34815D01*
X51412Y-34887D01*
X51378Y-34966D01*
X51360Y-35050D01*
X51359Y-35136D01*
X51374Y-35221D01*
X51406Y-35302D01*
X51453Y-35374D01*
X51513Y-35436D01*
X51584Y-35485D01*
X51663Y-35520D01*
X51747Y-35539D01*
X51833Y-35540D01*
X51918Y-35525D01*
X51999Y-35494D01*
X52072Y-35448D01*
X52134Y-35388D01*
X52184Y-35318D01*
X52219Y-35239D01*
X52238Y-35155D01*
X52240Y-35056D01*
X52240Y-35835D01*
X52240Y-35835D01*
X52240Y-35786D01*
X52234Y-35759D01*
X52224Y-35733D01*
X52209Y-35711D01*
X52189Y-35691D01*
X52166Y-35676D01*
X52141Y-35665D01*
X52114Y-35660D01*
X52087Y-35659D01*
X51486Y-35659D01*
X51459Y-35665D01*
X51433Y-35675D01*
X51411Y-35690D01*
X51391Y-35710D01*
X51376Y-35733D01*
X51365Y-35758D01*
X51360Y-35785D01*
X51359Y-35812D01*
X51359Y-36413D01*
X51365Y-36440D01*
X51375Y-36466D01*
X51390Y-36488D01*
X51410Y-36508D01*
X51433Y-36523D01*
X51458Y-36534D01*
X51485Y-36539D01*
X51512Y-36540D01*
X52113Y-36540D01*
X52140Y-36534D01*
X52166Y-36524D01*
X52188Y-36509D01*
X52208Y-36489D01*
X52223Y-36466D01*
X52234Y-36441D01*
X52239Y-36414D01*
X52240Y-36387D01*
X52240Y-36365D01*
X52490Y-36365D01*
X55368Y-39243D01*
X55367Y-39347D01*
X55389Y-39469D01*
X55435Y-39584D01*
X55502Y-39688D01*
X55588Y-39777D01*
X55690Y-39848D01*
X55803Y-39897D01*
X55924Y-39924D01*
X56048Y-39927D01*
X56170Y-39905D01*
X56286Y-39860D01*
X56390Y-39794D01*
X56480Y-39708D01*
X56552Y-39607D01*
X56602Y-39494D01*
X56630Y-39373D01*
X56632Y-39232D01*
X56632Y-42775D01*
X56262Y-42699D01*
X55772Y-42696D01*
X55290Y-42788D01*
X54835Y-42971D01*
X54424Y-43240D01*
X54074Y-43583D01*
X53796Y-43988D01*
X53603Y-44439D01*
X53501Y-44919D01*
X53494Y-45410D01*
X53583Y-45892D01*
X53763Y-46349D01*
X54029Y-46761D01*
X54370Y-47114D01*
X54773Y-47394D01*
X55223Y-47591D01*
X55702Y-47696D01*
X56192Y-47706D01*
X56676Y-47621D01*
X57133Y-47444D01*
X57547Y-47181D01*
X57903Y-46842D01*
X58186Y-46441D01*
X58385Y-45993D01*
X58494Y-45515D01*
X58502Y-44954D01*
X58502Y-52460D01*
X52339Y-52460D01*
X52339Y-40889D01*
X52296Y-40673D01*
X52212Y-40469D01*
X52090Y-40285D01*
X51935Y-40129D01*
X51752Y-40006D01*
X51549Y-39920D01*
X51333Y-39876D01*
X51112Y-39874D01*
X50895Y-39916D01*
X50691Y-39998D01*
X50506Y-40119D01*
X50349Y-40273D01*
X50224Y-40455D01*
X50137Y-40658D01*
X50092Y-40874D01*
X50089Y-41094D01*
X50128Y-41311D01*
X50210Y-41516D01*
X50329Y-41701D01*
X50482Y-41860D01*
X50663Y-41986D01*
X50865Y-42074D01*
X51081Y-42121D01*
X51301Y-42126D01*
X51518Y-42088D01*
X51724Y-42008D01*
X51910Y-41890D01*
X52070Y-41738D01*
X52197Y-41558D01*
X52287Y-41356D01*
X52336Y-41141D01*
X52339Y-40889D01*
X52339Y-52460D01*
X49615Y-52460D01*
X49615Y-38269D01*
X49603Y-38208D01*
X49579Y-38151D01*
X49545Y-38099D01*
X49501Y-38056D01*
X49450Y-38021D01*
X49393Y-37997D01*
X49333Y-37985D01*
X49315Y-37985D01*
X49315Y-35669D01*
X49303Y-35608D01*
X49279Y-35551D01*
X49245Y-35499D01*
X49201Y-35456D01*
X49150Y-35421D01*
X49093Y-35397D01*
X49033Y-35385D01*
X48971Y-35384D01*
X48910Y-35396D01*
X48853Y-35419D01*
X48801Y-35453D01*
X48757Y-35496D01*
X48722Y-35547D01*
X48698Y-35604D01*
X48685Y-35664D01*
X48684Y-35726D01*
X48695Y-35787D01*
X48718Y-35844D01*
X48735Y-35870D01*
X48735Y-37090D01*
X48590Y-37235D01*
X48315Y-37235D01*
X48315Y-35869D01*
X48303Y-35808D01*
X48279Y-35751D01*
X48265Y-35729D01*
X48265Y-35300D01*
X48265Y-34700D01*
X48262Y-34675D01*
X48260Y-34651D01*
X48260Y-34649D01*
X48259Y-34648D01*
X48252Y-34625D01*
X48246Y-34601D01*
X48245Y-34600D01*
X48245Y-34599D01*
X48233Y-34577D01*
X48222Y-34555D01*
X48221Y-34554D01*
X48220Y-34553D01*
X48205Y-34534D01*
X48189Y-34515D01*
X48188Y-34513D01*
X48188Y-34513D01*
X48187Y-34513D01*
X48187Y-34512D01*
X48087Y-34412D01*
X48068Y-34397D01*
X48049Y-34381D01*
X48048Y-34380D01*
X48047Y-34379D01*
X48025Y-34368D01*
X48004Y-34356D01*
X48003Y-34356D01*
X48001Y-34355D01*
X47978Y-34348D01*
X47955Y-34340D01*
X47953Y-34340D01*
X47952Y-34340D01*
X47928Y-34337D01*
X47903Y-34335D01*
X47900Y-34335D01*
X47900Y-34335D01*
X47900Y-34335D01*
X47900Y-34335D01*
X47409Y-34335D01*
X46665Y-33590D01*
X46665Y-31800D01*
X46662Y-31775D01*
X46660Y-31751D01*
X46660Y-31749D01*
X46659Y-31748D01*
X46652Y-31725D01*
X46646Y-31701D01*
X46645Y-31700D01*
X46645Y-31699D01*
X46633Y-31677D01*
X46622Y-31655D01*
X46621Y-31654D01*
X46620Y-31653D01*
X46605Y-31634D01*
X46589Y-31615D01*
X46588Y-31613D01*
X46588Y-31613D01*
X46587Y-31613D01*
X46587Y-31612D01*
X46507Y-31533D01*
X46503Y-31508D01*
X46479Y-31451D01*
X46445Y-31399D01*
X46401Y-31356D01*
X46350Y-31321D01*
X46293Y-31297D01*
X46233Y-31285D01*
X46171Y-31284D01*
X46110Y-31296D01*
X46053Y-31319D01*
X46001Y-31353D01*
X45957Y-31396D01*
X45922Y-31447D01*
X45898Y-31504D01*
X45885Y-31564D01*
X45884Y-31626D01*
X45895Y-31687D01*
X45918Y-31744D01*
X45951Y-31796D01*
X45994Y-31841D01*
X46045Y-31876D01*
X46102Y-31901D01*
X46133Y-31907D01*
X46135Y-31909D01*
X46135Y-33700D01*
X46137Y-33724D01*
X46139Y-33748D01*
X46139Y-33750D01*
X46140Y-33751D01*
X46147Y-33774D01*
X46153Y-33798D01*
X46154Y-33799D01*
X46154Y-33800D01*
X46166Y-33822D01*
X46177Y-33844D01*
X46178Y-33845D01*
X46179Y-33846D01*
X46194Y-33865D01*
X46210Y-33884D01*
X46211Y-33886D01*
X46211Y-33886D01*
X46211Y-33886D01*
X46212Y-33887D01*
X47112Y-34787D01*
X47131Y-34802D01*
X47150Y-34818D01*
X47151Y-34819D01*
X47152Y-34820D01*
X47174Y-34831D01*
X47195Y-34843D01*
X47196Y-34843D01*
X47198Y-34844D01*
X47221Y-34851D01*
X47244Y-34859D01*
X47246Y-34859D01*
X47247Y-34859D01*
X47271Y-34862D01*
X47296Y-34864D01*
X47299Y-34864D01*
X47299Y-34864D01*
X47299Y-34864D01*
X47300Y-34865D01*
X47735Y-34865D01*
X47735Y-35300D01*
X47735Y-35729D01*
X47722Y-35747D01*
X47698Y-35804D01*
X47685Y-35864D01*
X47684Y-35926D01*
X47695Y-35987D01*
X47718Y-36044D01*
X47751Y-36096D01*
X47794Y-36141D01*
X47845Y-36176D01*
X47902Y-36201D01*
X47962Y-36214D01*
X48024Y-36215D01*
X48085Y-36204D01*
X48142Y-36182D01*
X48194Y-36149D01*
X48239Y-36106D01*
X48275Y-36056D01*
X48300Y-35999D01*
X48314Y-35939D01*
X48315Y-35869D01*
X48315Y-37235D01*
X47670Y-37235D01*
X47650Y-37221D01*
X47593Y-37197D01*
X47533Y-37185D01*
X47471Y-37184D01*
X47410Y-37196D01*
X47353Y-37219D01*
X47301Y-37253D01*
X47257Y-37296D01*
X47222Y-37347D01*
X47198Y-37404D01*
X47185Y-37464D01*
X47184Y-37526D01*
X47195Y-37587D01*
X47218Y-37644D01*
X47251Y-37696D01*
X47294Y-37741D01*
X47345Y-37776D01*
X47402Y-37801D01*
X47462Y-37814D01*
X47524Y-37815D01*
X47585Y-37804D01*
X47642Y-37782D01*
X47670Y-37765D01*
X48700Y-37765D01*
X48724Y-37762D01*
X48748Y-37760D01*
X48750Y-37760D01*
X48751Y-37759D01*
X48774Y-37752D01*
X48798Y-37746D01*
X48799Y-37745D01*
X48800Y-37745D01*
X48822Y-37733D01*
X48844Y-37722D01*
X48845Y-37721D01*
X48846Y-37720D01*
X48865Y-37705D01*
X48884Y-37689D01*
X48886Y-37688D01*
X48886Y-37688D01*
X48886Y-37688D01*
X48887Y-37687D01*
X49187Y-37387D01*
X49202Y-37368D01*
X49218Y-37349D01*
X49219Y-37348D01*
X49220Y-37347D01*
X49231Y-37325D01*
X49243Y-37304D01*
X49243Y-37303D01*
X49244Y-37301D01*
X49251Y-37278D01*
X49259Y-37255D01*
X49259Y-37253D01*
X49259Y-37252D01*
X49262Y-37228D01*
X49264Y-37203D01*
X49264Y-37200D01*
X49264Y-37200D01*
X49264Y-37200D01*
X49265Y-37200D01*
X49265Y-35870D01*
X49275Y-35856D01*
X49300Y-35799D01*
X49314Y-35739D01*
X49315Y-35669D01*
X49315Y-37985D01*
X49271Y-37984D01*
X49210Y-37996D01*
X49153Y-38019D01*
X49129Y-38035D01*
X47870Y-38035D01*
X47850Y-38021D01*
X47793Y-37997D01*
X47733Y-37985D01*
X47671Y-37984D01*
X47610Y-37996D01*
X47553Y-38019D01*
X47501Y-38053D01*
X47457Y-38096D01*
X47422Y-38147D01*
X47398Y-38204D01*
X47392Y-38233D01*
X47390Y-38235D01*
X44515Y-38235D01*
X44515Y-33469D01*
X44503Y-33408D01*
X44479Y-33351D01*
X44465Y-33329D01*
X44465Y-32370D01*
X44475Y-32356D01*
X44500Y-32299D01*
X44514Y-32239D01*
X44515Y-32169D01*
X44503Y-32108D01*
X44479Y-32051D01*
X44445Y-31999D01*
X44401Y-31956D01*
X44350Y-31921D01*
X44293Y-31897D01*
X44233Y-31885D01*
X44171Y-31884D01*
X44110Y-31896D01*
X44053Y-31919D01*
X44001Y-31953D01*
X43957Y-31996D01*
X43922Y-32047D01*
X43898Y-32104D01*
X43885Y-32164D01*
X43884Y-32226D01*
X43895Y-32287D01*
X43918Y-32344D01*
X43935Y-32370D01*
X43935Y-33329D01*
X43922Y-33347D01*
X43898Y-33404D01*
X43885Y-33464D01*
X43884Y-33526D01*
X43895Y-33587D01*
X43918Y-33644D01*
X43951Y-33696D01*
X43994Y-33741D01*
X44045Y-33776D01*
X44102Y-33801D01*
X44162Y-33814D01*
X44224Y-33815D01*
X44285Y-33804D01*
X44342Y-33782D01*
X44394Y-33749D01*
X44439Y-33706D01*
X44475Y-33656D01*
X44500Y-33599D01*
X44514Y-33539D01*
X44515Y-33469D01*
X44515Y-38235D01*
X44409Y-38235D01*
X44215Y-38040D01*
X44215Y-37369D01*
X44203Y-37308D01*
X44179Y-37251D01*
X44145Y-37199D01*
X44101Y-37156D01*
X44050Y-37121D01*
X43993Y-37097D01*
X43966Y-37092D01*
X43887Y-37012D01*
X43868Y-36997D01*
X43849Y-36981D01*
X43848Y-36980D01*
X43847Y-36979D01*
X43825Y-36968D01*
X43804Y-36956D01*
X43803Y-36956D01*
X43801Y-36955D01*
X43778Y-36948D01*
X43755Y-36940D01*
X43753Y-36940D01*
X43752Y-36940D01*
X43728Y-36937D01*
X43703Y-36935D01*
X43700Y-36935D01*
X43700Y-36935D01*
X43700Y-36935D01*
X43700Y-36935D01*
X39552Y-36935D01*
X39542Y-36920D01*
X39481Y-36859D01*
X39410Y-36811D01*
X39330Y-36777D01*
X39246Y-36760D01*
X39159Y-36759D01*
X39075Y-36775D01*
X38995Y-36808D01*
X38922Y-36855D01*
X38861Y-36915D01*
X38812Y-36987D01*
X38778Y-37066D01*
X38760Y-37150D01*
X38759Y-37236D01*
X38774Y-37321D01*
X38806Y-37402D01*
X38853Y-37474D01*
X38913Y-37536D01*
X38984Y-37585D01*
X39063Y-37620D01*
X39147Y-37639D01*
X39233Y-37640D01*
X39318Y-37625D01*
X39399Y-37594D01*
X39472Y-37548D01*
X39534Y-37488D01*
X39551Y-37465D01*
X43590Y-37465D01*
X43591Y-37466D01*
X43595Y-37487D01*
X43618Y-37544D01*
X43651Y-37596D01*
X43694Y-37641D01*
X43745Y-37676D01*
X43802Y-37701D01*
X43862Y-37714D01*
X43924Y-37715D01*
X43985Y-37704D01*
X44042Y-37682D01*
X44094Y-37649D01*
X44139Y-37606D01*
X44175Y-37556D01*
X44200Y-37499D01*
X44214Y-37439D01*
X44215Y-37369D01*
X44215Y-38040D01*
X44187Y-38012D01*
X44168Y-37997D01*
X44149Y-37981D01*
X44148Y-37980D01*
X44147Y-37979D01*
X44125Y-37968D01*
X44104Y-37956D01*
X44103Y-37956D01*
X44101Y-37955D01*
X44078Y-37948D01*
X44055Y-37940D01*
X44053Y-37940D01*
X44052Y-37940D01*
X44028Y-37937D01*
X44003Y-37935D01*
X44000Y-37935D01*
X44000Y-37935D01*
X44000Y-37935D01*
X44000Y-37935D01*
X43700Y-37935D01*
X40552Y-37935D01*
X40542Y-37920D01*
X40481Y-37859D01*
X40410Y-37811D01*
X40330Y-37777D01*
X40246Y-37760D01*
X40159Y-37759D01*
X40075Y-37775D01*
X39995Y-37808D01*
X39922Y-37855D01*
X39861Y-37915D01*
X39812Y-37987D01*
X39778Y-38066D01*
X39760Y-38150D01*
X39759Y-38236D01*
X39774Y-38321D01*
X39806Y-38402D01*
X39853Y-38474D01*
X39913Y-38536D01*
X39984Y-38585D01*
X40063Y-38620D01*
X40147Y-38639D01*
X40233Y-38640D01*
X40318Y-38625D01*
X40399Y-38594D01*
X40472Y-38548D01*
X40534Y-38488D01*
X40551Y-38465D01*
X43700Y-38465D01*
X43890Y-38465D01*
X44112Y-38687D01*
X44131Y-38702D01*
X44150Y-38718D01*
X44151Y-38719D01*
X44152Y-38720D01*
X44174Y-38731D01*
X44195Y-38743D01*
X44196Y-38743D01*
X44198Y-38744D01*
X44221Y-38751D01*
X44244Y-38759D01*
X44246Y-38759D01*
X44247Y-38759D01*
X44271Y-38762D01*
X44296Y-38764D01*
X44299Y-38764D01*
X44299Y-38764D01*
X44299Y-38764D01*
X44300Y-38765D01*
X47500Y-38765D01*
X47524Y-38762D01*
X47548Y-38760D01*
X47550Y-38760D01*
X47551Y-38759D01*
X47574Y-38752D01*
X47598Y-38746D01*
X47599Y-38745D01*
X47600Y-38745D01*
X47622Y-38733D01*
X47644Y-38722D01*
X47645Y-38721D01*
X47646Y-38720D01*
X47665Y-38705D01*
X47684Y-38689D01*
X47686Y-38688D01*
X47686Y-38688D01*
X47686Y-38688D01*
X47687Y-38687D01*
X47766Y-38608D01*
X47785Y-38604D01*
X47842Y-38582D01*
X47870Y-38565D01*
X49129Y-38565D01*
X49145Y-38576D01*
X49202Y-38601D01*
X49262Y-38614D01*
X49324Y-38615D01*
X49385Y-38604D01*
X49442Y-38582D01*
X49494Y-38549D01*
X49539Y-38506D01*
X49575Y-38456D01*
X49600Y-38399D01*
X49614Y-38339D01*
X49615Y-38269D01*
X49615Y-52460D01*
X48740Y-52460D01*
X48740Y-50768D01*
X48729Y-50645D01*
X48694Y-50527D01*
X48637Y-50417D01*
X48560Y-50321D01*
X48466Y-50242D01*
X48357Y-50183D01*
X48240Y-50145D01*
X48117Y-50132D01*
X48109Y-50132D01*
X47706Y-50132D01*
X47655Y-50137D01*
X46831Y-49312D01*
X46812Y-49297D01*
X46793Y-49281D01*
X46792Y-49280D01*
X46791Y-49279D01*
X46769Y-49268D01*
X46748Y-49256D01*
X46747Y-49256D01*
X46745Y-49255D01*
X46722Y-49248D01*
X46699Y-49240D01*
X46697Y-49240D01*
X46696Y-49240D01*
X46672Y-49237D01*
X46647Y-49235D01*
X46644Y-49235D01*
X46644Y-49235D01*
X46644Y-49235D01*
X46644Y-49235D01*
X43565Y-49235D01*
X43565Y-46319D01*
X43553Y-46258D01*
X43529Y-46201D01*
X43495Y-46149D01*
X43451Y-46106D01*
X43400Y-46071D01*
X43343Y-46047D01*
X43283Y-46035D01*
X43221Y-46034D01*
X43160Y-46046D01*
X43103Y-46069D01*
X43051Y-46103D01*
X43007Y-46146D01*
X42972Y-46197D01*
X42948Y-46254D01*
X42942Y-46283D01*
X41994Y-47231D01*
X41709Y-47231D01*
X41709Y-40889D01*
X41666Y-40673D01*
X41582Y-40469D01*
X41460Y-40285D01*
X41305Y-40129D01*
X41122Y-40006D01*
X40919Y-39920D01*
X40703Y-39876D01*
X40482Y-39874D01*
X40265Y-39916D01*
X40061Y-39998D01*
X39876Y-40119D01*
X39719Y-40273D01*
X39594Y-40455D01*
X39507Y-40658D01*
X39462Y-40874D01*
X39459Y-41094D01*
X39498Y-41311D01*
X39580Y-41516D01*
X39699Y-41701D01*
X39852Y-41860D01*
X40033Y-41986D01*
X40235Y-42074D01*
X40451Y-42121D01*
X40671Y-42126D01*
X40888Y-42088D01*
X41094Y-42008D01*
X41280Y-41890D01*
X41440Y-41738D01*
X41567Y-41558D01*
X41657Y-41356D01*
X41706Y-41141D01*
X41709Y-40889D01*
X41709Y-47231D01*
X40736Y-47231D01*
X40716Y-47200D01*
X40651Y-47135D01*
X40576Y-47084D01*
X40492Y-47049D01*
X40402Y-47031D01*
X40311Y-47030D01*
X40222Y-47047D01*
X40137Y-47081D01*
X40061Y-47131D01*
X39996Y-47195D01*
X39944Y-47270D01*
X39908Y-47354D01*
X39889Y-47443D01*
X39888Y-47535D01*
X39904Y-47624D01*
X39938Y-47709D01*
X39987Y-47786D01*
X40051Y-47851D01*
X40126Y-47903D01*
X40209Y-47940D01*
X40298Y-47959D01*
X40389Y-47961D01*
X40479Y-47946D01*
X40564Y-47913D01*
X40641Y-47864D01*
X40707Y-47801D01*
X40736Y-47761D01*
X42104Y-47761D01*
X42128Y-47758D01*
X42152Y-47756D01*
X42154Y-47756D01*
X42155Y-47755D01*
X42178Y-47748D01*
X42202Y-47742D01*
X42203Y-47741D01*
X42204Y-47741D01*
X42226Y-47729D01*
X42248Y-47718D01*
X42249Y-47717D01*
X42250Y-47716D01*
X42269Y-47701D01*
X42288Y-47685D01*
X42290Y-47684D01*
X42290Y-47684D01*
X42290Y-47684D01*
X42291Y-47683D01*
X43316Y-46658D01*
X43335Y-46654D01*
X43392Y-46632D01*
X43444Y-46599D01*
X43489Y-46556D01*
X43525Y-46506D01*
X43550Y-46449D01*
X43564Y-46389D01*
X43565Y-46319D01*
X43565Y-49235D01*
X40959Y-49235D01*
X39365Y-47640D01*
X39365Y-46809D01*
X39413Y-46761D01*
X39971Y-46761D01*
X39987Y-46786D01*
X40051Y-46851D01*
X40126Y-46903D01*
X40209Y-46940D01*
X40298Y-46959D01*
X40389Y-46961D01*
X40479Y-46946D01*
X40564Y-46913D01*
X40641Y-46864D01*
X40707Y-46801D01*
X40760Y-46726D01*
X40797Y-46643D01*
X40817Y-46554D01*
X40819Y-46450D01*
X40819Y-45450D01*
X40801Y-45360D01*
X40766Y-45276D01*
X40716Y-45200D01*
X40651Y-45135D01*
X40576Y-45084D01*
X40492Y-45049D01*
X40402Y-45031D01*
X40311Y-45030D01*
X40222Y-45047D01*
X40137Y-45081D01*
X40061Y-45131D01*
X39996Y-45195D01*
X39944Y-45270D01*
X39908Y-45354D01*
X39889Y-45443D01*
X39888Y-45535D01*
X39904Y-45624D01*
X39938Y-45709D01*
X39987Y-45786D01*
X40051Y-45851D01*
X40126Y-45903D01*
X40209Y-45940D01*
X40298Y-45959D01*
X40389Y-45961D01*
X40479Y-45946D01*
X40564Y-45913D01*
X40641Y-45864D01*
X40707Y-45801D01*
X40760Y-45726D01*
X40797Y-45643D01*
X40817Y-45554D01*
X40819Y-45450D01*
X40819Y-46450D01*
X40801Y-46360D01*
X40766Y-46276D01*
X40716Y-46200D01*
X40651Y-46135D01*
X40576Y-46084D01*
X40492Y-46049D01*
X40402Y-46031D01*
X40311Y-46030D01*
X40222Y-46047D01*
X40137Y-46081D01*
X40061Y-46131D01*
X39996Y-46195D01*
X39971Y-46231D01*
X39304Y-46231D01*
X39279Y-46233D01*
X39255Y-46235D01*
X39253Y-46235D01*
X39252Y-46236D01*
X39229Y-46243D01*
X39205Y-46249D01*
X39204Y-46250D01*
X39203Y-46250D01*
X39181Y-46262D01*
X39159Y-46273D01*
X39158Y-46274D01*
X39157Y-46275D01*
X39138Y-46290D01*
X39119Y-46306D01*
X39117Y-46307D01*
X39117Y-46307D01*
X39117Y-46308D01*
X39116Y-46308D01*
X38912Y-46512D01*
X38897Y-46531D01*
X38881Y-46550D01*
X38880Y-46551D01*
X38879Y-46552D01*
X38868Y-46574D01*
X38856Y-46595D01*
X38856Y-46596D01*
X38855Y-46598D01*
X38848Y-46621D01*
X38840Y-46644D01*
X38840Y-46646D01*
X38840Y-46647D01*
X38837Y-46671D01*
X38835Y-46696D01*
X38835Y-46699D01*
X38835Y-46699D01*
X38835Y-46699D01*
X38835Y-46700D01*
X38835Y-47750D01*
X38837Y-47774D01*
X38839Y-47798D01*
X38839Y-47800D01*
X38840Y-47801D01*
X38847Y-47824D01*
X38853Y-47848D01*
X38854Y-47849D01*
X38854Y-47850D01*
X38866Y-47872D01*
X38877Y-47894D01*
X38878Y-47895D01*
X38879Y-47896D01*
X38894Y-47915D01*
X38910Y-47934D01*
X38911Y-47936D01*
X38911Y-47936D01*
X38911Y-47936D01*
X38912Y-47937D01*
X40662Y-49687D01*
X40681Y-49702D01*
X40700Y-49718D01*
X40701Y-49719D01*
X40702Y-49720D01*
X40724Y-49731D01*
X40745Y-49743D01*
X40746Y-49743D01*
X40748Y-49744D01*
X40771Y-49751D01*
X40794Y-49759D01*
X40796Y-49759D01*
X40797Y-49759D01*
X40821Y-49762D01*
X40846Y-49764D01*
X40849Y-49764D01*
X40849Y-49764D01*
X40849Y-49764D01*
X40850Y-49765D01*
X46534Y-49765D01*
X47181Y-50412D01*
X47124Y-50519D01*
X47087Y-50636D01*
X47075Y-50759D01*
X47086Y-50882D01*
X47121Y-51000D01*
X47178Y-51110D01*
X47255Y-51206D01*
X47349Y-51285D01*
X47458Y-51344D01*
X47575Y-51382D01*
X47698Y-51395D01*
X47706Y-51396D01*
X48109Y-51396D01*
X48231Y-51383D01*
X48349Y-51348D01*
X48458Y-51290D01*
X48554Y-51212D01*
X48632Y-51117D01*
X48691Y-51008D01*
X48728Y-50891D01*
X48740Y-50768D01*
X48740Y-52460D01*
X46965Y-52460D01*
X46965Y-50721D01*
X46948Y-50637D01*
X46916Y-50558D01*
X46869Y-50487D01*
X46808Y-50426D01*
X46738Y-50379D01*
X46659Y-50345D01*
X46575Y-50328D01*
X46490Y-50328D01*
X46406Y-50344D01*
X46327Y-50376D01*
X46255Y-50422D01*
X46194Y-50482D01*
X46146Y-50553D01*
X46112Y-50631D01*
X46095Y-50715D01*
X46093Y-50800D01*
X46109Y-50884D01*
X46140Y-50964D01*
X46187Y-51035D01*
X46246Y-51097D01*
X46316Y-51145D01*
X46394Y-51180D01*
X46478Y-51198D01*
X46563Y-51200D01*
X46647Y-51185D01*
X46727Y-51154D01*
X46799Y-51108D01*
X46861Y-51049D01*
X46910Y-50980D01*
X46945Y-50902D01*
X46964Y-50818D01*
X46965Y-50721D01*
X46965Y-52460D01*
X45705Y-52460D01*
X45705Y-50721D01*
X45688Y-50637D01*
X45656Y-50558D01*
X45609Y-50487D01*
X45548Y-50426D01*
X45478Y-50379D01*
X45399Y-50345D01*
X45315Y-50328D01*
X45230Y-50328D01*
X45146Y-50344D01*
X45067Y-50376D01*
X44995Y-50422D01*
X44934Y-50482D01*
X44886Y-50553D01*
X44852Y-50631D01*
X44835Y-50715D01*
X44833Y-50800D01*
X44849Y-50884D01*
X44880Y-50964D01*
X44927Y-51035D01*
X44986Y-51097D01*
X45056Y-51145D01*
X45134Y-51180D01*
X45218Y-51198D01*
X45303Y-51200D01*
X45387Y-51185D01*
X45467Y-51154D01*
X45539Y-51108D01*
X45601Y-51049D01*
X45650Y-50980D01*
X45685Y-50902D01*
X45704Y-50818D01*
X45705Y-50721D01*
X45705Y-52460D01*
X38351Y-52460D01*
X38211Y-52446D01*
X38078Y-52405D01*
X37955Y-52340D01*
X37848Y-52251D01*
X37759Y-52144D01*
X37694Y-52021D01*
X37653Y-51888D01*
X37640Y-51748D01*
X37640Y-14351D01*
X37653Y-14211D01*
X37694Y-14078D01*
X37759Y-13955D01*
X37848Y-13848D01*
X37955Y-13759D01*
X38078Y-13694D01*
X38211Y-13653D01*
X38351Y-13640D01*
X75848Y-13640D01*
X75988Y-13653D01*
X76121Y-13694D01*
X76244Y-13759D01*
X76351Y-13848D01*
X76440Y-13955D01*
X76505Y-14078D01*
X76546Y-14211D01*
X76560Y-14351D01*
X76560Y-51748D01*
X76560Y-51748D01*
G37*
G54D30*
X76560Y-51748D02*
X76546Y-51888D01*
X76505Y-52021D01*
X76440Y-52144D01*
X76351Y-52251D01*
X76244Y-52340D01*
X76121Y-52405D01*
X75988Y-52446D01*
X75848Y-52460D01*
X75644Y-52460D01*
X75644Y-25054D01*
X75552Y-24592D01*
X75373Y-24156D01*
X75112Y-23764D01*
X74780Y-23430D01*
X74389Y-23166D01*
X73955Y-22984D01*
X73494Y-22889D01*
X73023Y-22886D01*
X72560Y-22974D01*
X72123Y-23151D01*
X71729Y-23408D01*
X71393Y-23738D01*
X71126Y-24127D01*
X70941Y-24560D01*
X70843Y-25020D01*
X70836Y-25491D01*
X70921Y-25955D01*
X71095Y-26393D01*
X71268Y-26661D01*
X67247Y-22593D01*
X67154Y-22512D01*
X67047Y-22447D01*
X66932Y-22399D01*
X66811Y-22369D01*
X66688Y-22360D01*
X58148Y-22360D01*
X57995Y-22374D01*
X57847Y-22419D01*
X57710Y-22492D01*
X57591Y-22591D01*
X57492Y-22710D01*
X57419Y-22847D01*
X57374Y-22995D01*
X57360Y-23148D01*
X57360Y-23648D01*
X57346Y-23788D01*
X57305Y-23921D01*
X57240Y-24044D01*
X57151Y-24151D01*
X57044Y-24240D01*
X56921Y-24305D01*
X56788Y-24346D01*
X56648Y-24360D01*
X50848Y-24360D01*
X50695Y-24374D01*
X50547Y-24419D01*
X50410Y-24492D01*
X50291Y-24591D01*
X50192Y-24710D01*
X50119Y-24847D01*
X50074Y-24995D01*
X50060Y-25148D01*
X50060Y-26698D01*
X50054Y-26750D01*
X50040Y-26799D01*
X50016Y-26844D01*
X49983Y-26883D01*
X49944Y-26916D01*
X49899Y-26940D01*
X49850Y-26954D01*
X49796Y-26960D01*
X49733Y-26966D01*
X49669Y-26985D01*
X49610Y-27017D01*
X49559Y-27059D01*
X49517Y-27110D01*
X49485Y-27169D01*
X49466Y-27233D01*
X49460Y-27298D01*
X49460Y-27851D01*
X49474Y-28004D01*
X49519Y-28152D01*
X49592Y-28289D01*
X49691Y-28408D01*
X49810Y-28507D01*
X49947Y-28580D01*
X50095Y-28625D01*
X50248Y-28640D01*
X50448Y-28640D01*
X50588Y-28653D01*
X50721Y-28694D01*
X50844Y-28759D01*
X50951Y-28848D01*
X51040Y-28955D01*
X51105Y-29078D01*
X51146Y-29211D01*
X51160Y-29351D01*
X51160Y-31222D01*
X51172Y-31360D01*
X51209Y-31496D01*
X51270Y-31623D01*
X51351Y-31736D01*
X54146Y-34968D01*
X54242Y-35061D01*
X54354Y-35137D01*
X54477Y-35194D01*
X54608Y-35228D01*
X54741Y-35240D01*
X68148Y-35240D01*
X68288Y-35253D01*
X68421Y-35294D01*
X68544Y-35359D01*
X68651Y-35448D01*
X68740Y-35555D01*
X68805Y-35678D01*
X68846Y-35811D01*
X68860Y-35951D01*
X68860Y-36751D01*
X68874Y-36904D01*
X68919Y-37052D01*
X68992Y-37189D01*
X69091Y-37308D01*
X69210Y-37407D01*
X69347Y-37480D01*
X69495Y-37525D01*
X69648Y-37540D01*
X72055Y-37540D01*
X72126Y-37613D01*
X72466Y-37849D01*
X72845Y-38015D01*
X73235Y-38100D01*
X73235Y-38584D01*
X73194Y-38584D01*
X73194Y-38520D01*
X73188Y-38493D01*
X73178Y-38468D01*
X73163Y-38445D01*
X73143Y-38426D01*
X73120Y-38410D01*
X73095Y-38400D01*
X73068Y-38394D01*
X73041Y-38394D01*
X72332Y-38394D01*
X72305Y-38399D01*
X72279Y-38410D01*
X72257Y-38425D01*
X72237Y-38444D01*
X72222Y-38467D01*
X72211Y-38492D01*
X72206Y-38519D01*
X72205Y-38547D01*
X72205Y-39177D01*
X72211Y-39204D01*
X72221Y-39229D01*
X72236Y-39252D01*
X72256Y-39271D01*
X72279Y-39287D01*
X72304Y-39297D01*
X72331Y-39303D01*
X72358Y-39303D01*
X73067Y-39303D01*
X73094Y-39298D01*
X73120Y-39287D01*
X73142Y-39272D01*
X73162Y-39253D01*
X73177Y-39230D01*
X73188Y-39205D01*
X73193Y-39178D01*
X73194Y-39150D01*
X73194Y-39114D01*
X73500Y-39114D01*
X73805Y-39114D01*
X73805Y-39177D01*
X73811Y-39204D01*
X73821Y-39229D01*
X73836Y-39252D01*
X73856Y-39271D01*
X73879Y-39287D01*
X73904Y-39297D01*
X73931Y-39303D01*
X73958Y-39303D01*
X74667Y-39303D01*
X74694Y-39298D01*
X74720Y-39287D01*
X74742Y-39272D01*
X74762Y-39253D01*
X74777Y-39230D01*
X74788Y-39205D01*
X74793Y-39178D01*
X74794Y-39150D01*
X74794Y-38520D01*
X74788Y-38493D01*
X74778Y-38468D01*
X74763Y-38445D01*
X74743Y-38426D01*
X74720Y-38410D01*
X74695Y-38400D01*
X74668Y-38394D01*
X74641Y-38394D01*
X73932Y-38394D01*
X73905Y-38399D01*
X73879Y-38410D01*
X73857Y-38425D01*
X73837Y-38444D01*
X73822Y-38467D01*
X73811Y-38492D01*
X73806Y-38519D01*
X73805Y-38547D01*
X73805Y-38584D01*
X73765Y-38584D01*
X73765Y-38094D01*
X74069Y-38040D01*
X74455Y-37891D01*
X74804Y-37669D01*
X74980Y-37501D01*
X75052Y-37480D01*
X75189Y-37407D01*
X75308Y-37308D01*
X75407Y-37189D01*
X75480Y-37052D01*
X75525Y-36904D01*
X75540Y-36751D01*
X75540Y-36538D01*
X75601Y-36265D01*
X75608Y-35793D01*
X75540Y-35446D01*
X75540Y-31306D01*
X75525Y-31155D01*
X75480Y-31007D01*
X75408Y-30871D01*
X75313Y-30754D01*
X71842Y-27242D01*
X72064Y-27396D01*
X72496Y-27585D01*
X72956Y-27686D01*
X73427Y-27696D01*
X73891Y-27614D01*
X74330Y-27444D01*
X74727Y-27191D01*
X75069Y-26867D01*
X75340Y-26482D01*
X75532Y-26051D01*
X75636Y-25592D01*
X75644Y-25054D01*
X75644Y-52460D01*
X75608Y-52460D01*
X75608Y-42793D01*
X75540Y-42446D01*
X75528Y-42387D01*
X75370Y-42005D01*
X75141Y-41660D01*
X74850Y-41367D01*
X74507Y-41136D01*
X74126Y-40976D01*
X73765Y-40901D01*
X73765Y-40216D01*
X73805Y-40216D01*
X73805Y-40279D01*
X73811Y-40306D01*
X73821Y-40331D01*
X73836Y-40354D01*
X73856Y-40373D01*
X73879Y-40389D01*
X73904Y-40399D01*
X73931Y-40405D01*
X73958Y-40405D01*
X74667Y-40405D01*
X74694Y-40400D01*
X74720Y-40389D01*
X74742Y-40374D01*
X74762Y-40355D01*
X74777Y-40332D01*
X74788Y-40307D01*
X74793Y-40280D01*
X74794Y-40252D01*
X74794Y-39622D01*
X74788Y-39595D01*
X74778Y-39570D01*
X74763Y-39547D01*
X74743Y-39528D01*
X74720Y-39512D01*
X74695Y-39502D01*
X74668Y-39496D01*
X74641Y-39496D01*
X73932Y-39496D01*
X73905Y-39501D01*
X73879Y-39512D01*
X73857Y-39527D01*
X73837Y-39546D01*
X73822Y-39569D01*
X73811Y-39594D01*
X73806Y-39621D01*
X73805Y-39649D01*
X73805Y-39686D01*
X73500Y-39686D01*
X73194Y-39686D01*
X73194Y-39622D01*
X73188Y-39595D01*
X73178Y-39570D01*
X73163Y-39547D01*
X73143Y-39528D01*
X73120Y-39512D01*
X73095Y-39502D01*
X73068Y-39496D01*
X73041Y-39496D01*
X72332Y-39496D01*
X72305Y-39501D01*
X72279Y-39512D01*
X72257Y-39527D01*
X72237Y-39546D01*
X72222Y-39569D01*
X72211Y-39594D01*
X72206Y-39621D01*
X72205Y-39649D01*
X72205Y-40279D01*
X72211Y-40306D01*
X72221Y-40331D01*
X72236Y-40354D01*
X72256Y-40373D01*
X72279Y-40389D01*
X72304Y-40399D01*
X72331Y-40405D01*
X72358Y-40405D01*
X73067Y-40405D01*
X73094Y-40400D01*
X73120Y-40389D01*
X73142Y-40374D01*
X73162Y-40355D01*
X73177Y-40332D01*
X73188Y-40307D01*
X73193Y-40280D01*
X73194Y-40252D01*
X73194Y-40216D01*
X73235Y-40216D01*
X73235Y-40814D01*
X73104Y-40774D01*
X72951Y-40760D01*
X64248Y-40760D01*
X64113Y-40771D01*
X63980Y-40807D01*
X63855Y-40865D01*
X63742Y-40944D01*
X63645Y-41042D01*
X63566Y-41155D01*
X63507Y-41280D01*
X63472Y-41413D01*
X63460Y-41548D01*
X63463Y-44449D01*
X63478Y-44602D01*
X63523Y-44750D01*
X63596Y-44886D01*
X63694Y-45006D01*
X63814Y-45104D01*
X63950Y-45177D01*
X64098Y-45222D01*
X64251Y-45237D01*
X71299Y-45240D01*
X71300Y-45240D01*
X72951Y-45240D01*
X73104Y-45225D01*
X73235Y-45185D01*
X73235Y-47638D01*
X73217Y-47645D01*
X73194Y-47660D01*
X73175Y-47679D01*
X73159Y-47702D01*
X73149Y-47727D01*
X73143Y-47754D01*
X73143Y-47782D01*
X73143Y-48176D01*
X73148Y-48203D01*
X73159Y-48228D01*
X73174Y-48251D01*
X73193Y-48270D01*
X73216Y-48286D01*
X73241Y-48296D01*
X73268Y-48302D01*
X73296Y-48302D01*
X73730Y-48302D01*
X73740Y-48300D01*
X73757Y-48297D01*
X73782Y-48286D01*
X73805Y-48271D01*
X73824Y-48252D01*
X73840Y-48229D01*
X73850Y-48204D01*
X73856Y-48177D01*
X73856Y-48149D01*
X73856Y-47755D01*
X73851Y-47728D01*
X73840Y-47703D01*
X73825Y-47680D01*
X73806Y-47661D01*
X73783Y-47645D01*
X73765Y-47638D01*
X73765Y-45094D01*
X74069Y-45040D01*
X74455Y-44891D01*
X74804Y-44669D01*
X75103Y-44384D01*
X75342Y-44046D01*
X75510Y-43668D01*
X75540Y-43538D01*
X75601Y-43265D01*
X75608Y-42793D01*
X75608Y-52460D01*
X75540Y-52460D01*
X75500Y-52460D01*
X73740Y-52460D01*
X73700Y-52460D01*
X65508Y-52460D01*
X65508Y-47693D01*
X65428Y-47287D01*
X65270Y-46905D01*
X65041Y-46560D01*
X64750Y-46267D01*
X64407Y-46036D01*
X64026Y-45876D01*
X63621Y-45792D01*
X63207Y-45790D01*
X62801Y-45867D01*
X62418Y-46022D01*
X62103Y-46228D01*
X62040Y-46165D01*
X62040Y-40756D01*
X62023Y-40672D01*
X61990Y-40592D01*
X61942Y-40520D01*
X61881Y-40459D01*
X61810Y-40411D01*
X61730Y-40377D01*
X61646Y-40360D01*
X61559Y-40359D01*
X61475Y-40375D01*
X61395Y-40408D01*
X61322Y-40455D01*
X61261Y-40515D01*
X61212Y-40587D01*
X61178Y-40666D01*
X61160Y-40750D01*
X61159Y-40836D01*
X61174Y-40921D01*
X61206Y-41002D01*
X61253Y-41074D01*
X61313Y-41136D01*
X61384Y-41185D01*
X61463Y-41220D01*
X61547Y-41239D01*
X61633Y-41240D01*
X61718Y-41225D01*
X61799Y-41194D01*
X61872Y-41148D01*
X61934Y-41088D01*
X61984Y-41018D01*
X62019Y-40939D01*
X62038Y-40855D01*
X62040Y-40756D01*
X62040Y-46165D01*
X61565Y-45690D01*
X61565Y-42900D01*
X61562Y-42875D01*
X61560Y-42851D01*
X61560Y-42849D01*
X61559Y-42848D01*
X61552Y-42825D01*
X61546Y-42801D01*
X61545Y-42800D01*
X61545Y-42799D01*
X61533Y-42777D01*
X61522Y-42755D01*
X61521Y-42754D01*
X61520Y-42753D01*
X61505Y-42734D01*
X61489Y-42715D01*
X61488Y-42713D01*
X61488Y-42713D01*
X61487Y-42713D01*
X61487Y-42712D01*
X60640Y-41865D01*
X60640Y-40756D01*
X60640Y-35756D01*
X60623Y-35672D01*
X60590Y-35592D01*
X60542Y-35520D01*
X60481Y-35459D01*
X60410Y-35411D01*
X60330Y-35377D01*
X60246Y-35360D01*
X60159Y-35359D01*
X60075Y-35375D01*
X59995Y-35408D01*
X59922Y-35455D01*
X59861Y-35515D01*
X59812Y-35587D01*
X59778Y-35666D01*
X59760Y-35750D01*
X59759Y-35836D01*
X59774Y-35921D01*
X59806Y-36002D01*
X59853Y-36074D01*
X59913Y-36136D01*
X59984Y-36185D01*
X60063Y-36220D01*
X60147Y-36239D01*
X60233Y-36240D01*
X60318Y-36225D01*
X60399Y-36194D01*
X60472Y-36148D01*
X60534Y-36088D01*
X60584Y-36018D01*
X60619Y-35939D01*
X60638Y-35855D01*
X60640Y-35756D01*
X60640Y-40756D01*
X60623Y-40672D01*
X60590Y-40592D01*
X60542Y-40520D01*
X60481Y-40459D01*
X60410Y-40411D01*
X60330Y-40377D01*
X60246Y-40360D01*
X60159Y-40359D01*
X60075Y-40375D01*
X59995Y-40408D01*
X59922Y-40455D01*
X59861Y-40515D01*
X59812Y-40587D01*
X59778Y-40666D01*
X59760Y-40750D01*
X59759Y-40836D01*
X59774Y-40921D01*
X59806Y-41002D01*
X59853Y-41074D01*
X59913Y-41136D01*
X59984Y-41185D01*
X60063Y-41220D01*
X60147Y-41239D01*
X60233Y-41240D01*
X60318Y-41225D01*
X60399Y-41194D01*
X60472Y-41148D01*
X60534Y-41088D01*
X60584Y-41018D01*
X60619Y-40939D01*
X60638Y-40855D01*
X60640Y-40756D01*
X60640Y-41865D01*
X59465Y-40690D01*
X59465Y-38900D01*
X59462Y-38875D01*
X59460Y-38851D01*
X59460Y-38849D01*
X59459Y-38848D01*
X59452Y-38825D01*
X59446Y-38801D01*
X59445Y-38800D01*
X59445Y-38799D01*
X59433Y-38777D01*
X59422Y-38755D01*
X59421Y-38754D01*
X59420Y-38753D01*
X59405Y-38734D01*
X59389Y-38715D01*
X59388Y-38713D01*
X59388Y-38713D01*
X59387Y-38713D01*
X59387Y-38712D01*
X57939Y-37265D01*
X58829Y-37265D01*
X58845Y-37276D01*
X58902Y-37301D01*
X58962Y-37314D01*
X59024Y-37315D01*
X59085Y-37304D01*
X59142Y-37282D01*
X59194Y-37249D01*
X59239Y-37206D01*
X59275Y-37156D01*
X59300Y-37099D01*
X59314Y-37039D01*
X59315Y-36969D01*
X59303Y-36908D01*
X59279Y-36851D01*
X59245Y-36799D01*
X59201Y-36756D01*
X59150Y-36721D01*
X59093Y-36697D01*
X59033Y-36685D01*
X58971Y-36684D01*
X58910Y-36696D01*
X58853Y-36719D01*
X58829Y-36735D01*
X54509Y-36735D01*
X53165Y-35390D01*
X53165Y-34200D01*
X53162Y-34175D01*
X53160Y-34151D01*
X53160Y-34149D01*
X53159Y-34148D01*
X53152Y-34125D01*
X53146Y-34101D01*
X53145Y-34100D01*
X53145Y-34099D01*
X53133Y-34077D01*
X53122Y-34055D01*
X53121Y-34054D01*
X53120Y-34053D01*
X53105Y-34034D01*
X53089Y-34015D01*
X53088Y-34013D01*
X53088Y-34013D01*
X53087Y-34013D01*
X53087Y-34012D01*
X52087Y-33012D01*
X52068Y-32997D01*
X52049Y-32981D01*
X52048Y-32980D01*
X52047Y-32979D01*
X52025Y-32968D01*
X52004Y-32956D01*
X52003Y-32956D01*
X52001Y-32955D01*
X51978Y-32948D01*
X51955Y-32940D01*
X51953Y-32940D01*
X51952Y-32940D01*
X51928Y-32937D01*
X51903Y-32935D01*
X51900Y-32935D01*
X51900Y-32935D01*
X51900Y-32935D01*
X51900Y-32935D01*
X50309Y-32935D01*
X46587Y-29212D01*
X46568Y-29197D01*
X46549Y-29181D01*
X46548Y-29180D01*
X46547Y-29179D01*
X46525Y-29168D01*
X46504Y-29156D01*
X46503Y-29156D01*
X46501Y-29155D01*
X46478Y-29148D01*
X46455Y-29140D01*
X46453Y-29140D01*
X46452Y-29140D01*
X46428Y-29137D01*
X46403Y-29135D01*
X46400Y-29135D01*
X46400Y-29135D01*
X46400Y-29135D01*
X46400Y-29135D01*
X43360Y-29135D01*
X43360Y-25054D01*
X43268Y-24592D01*
X43089Y-24156D01*
X42828Y-23764D01*
X42496Y-23430D01*
X42105Y-23166D01*
X41671Y-22984D01*
X41210Y-22889D01*
X40739Y-22886D01*
X40276Y-22974D01*
X39839Y-23151D01*
X39445Y-23408D01*
X39109Y-23738D01*
X38842Y-24127D01*
X38657Y-24560D01*
X38559Y-25020D01*
X38552Y-25491D01*
X38637Y-25955D01*
X38811Y-26393D01*
X39066Y-26789D01*
X39393Y-27128D01*
X39780Y-27396D01*
X40212Y-27585D01*
X40672Y-27686D01*
X41143Y-27696D01*
X41607Y-27614D01*
X42046Y-27444D01*
X42443Y-27191D01*
X42785Y-26867D01*
X43056Y-26482D01*
X43248Y-26051D01*
X43352Y-25592D01*
X43360Y-25054D01*
X43360Y-29135D01*
X43100Y-29135D01*
X43075Y-29137D01*
X43051Y-29139D01*
X43049Y-29139D01*
X43048Y-29140D01*
X43025Y-29147D01*
X43001Y-29153D01*
X43000Y-29154D01*
X42999Y-29154D01*
X42977Y-29166D01*
X42955Y-29177D01*
X42954Y-29178D01*
X42953Y-29179D01*
X42934Y-29194D01*
X42915Y-29210D01*
X42913Y-29211D01*
X42913Y-29211D01*
X42913Y-29212D01*
X42912Y-29212D01*
X41190Y-30935D01*
X39452Y-30935D01*
X39442Y-30920D01*
X39381Y-30859D01*
X39310Y-30811D01*
X39230Y-30777D01*
X39146Y-30760D01*
X39059Y-30759D01*
X38975Y-30775D01*
X38895Y-30808D01*
X38822Y-30855D01*
X38761Y-30915D01*
X38712Y-30987D01*
X38678Y-31066D01*
X38660Y-31150D01*
X38659Y-31236D01*
X38674Y-31321D01*
X38706Y-31402D01*
X38753Y-31474D01*
X38813Y-31536D01*
X38884Y-31585D01*
X38963Y-31620D01*
X39047Y-31639D01*
X39133Y-31640D01*
X39218Y-31625D01*
X39299Y-31594D01*
X39372Y-31548D01*
X39434Y-31488D01*
X39451Y-31465D01*
X41300Y-31465D01*
X41324Y-31462D01*
X41348Y-31460D01*
X41350Y-31460D01*
X41351Y-31459D01*
X41371Y-31453D01*
X40890Y-31935D01*
X39452Y-31935D01*
X39442Y-31920D01*
X39381Y-31859D01*
X39310Y-31811D01*
X39230Y-31777D01*
X39146Y-31760D01*
X39059Y-31759D01*
X38975Y-31775D01*
X38895Y-31808D01*
X38822Y-31855D01*
X38761Y-31915D01*
X38712Y-31987D01*
X38678Y-32066D01*
X38660Y-32150D01*
X38659Y-32236D01*
X38674Y-32321D01*
X38706Y-32402D01*
X38753Y-32474D01*
X38813Y-32536D01*
X38884Y-32585D01*
X38963Y-32620D01*
X39047Y-32639D01*
X39133Y-32640D01*
X39218Y-32625D01*
X39299Y-32594D01*
X39372Y-32548D01*
X39434Y-32488D01*
X39451Y-32465D01*
X41000Y-32465D01*
X41024Y-32462D01*
X41048Y-32460D01*
X41050Y-32460D01*
X41051Y-32459D01*
X41071Y-32453D01*
X40590Y-32935D01*
X39452Y-32935D01*
X39442Y-32920D01*
X39381Y-32859D01*
X39310Y-32811D01*
X39230Y-32777D01*
X39146Y-32760D01*
X39059Y-32759D01*
X38975Y-32775D01*
X38895Y-32808D01*
X38822Y-32855D01*
X38761Y-32915D01*
X38712Y-32987D01*
X38678Y-33066D01*
X38660Y-33150D01*
X38659Y-33236D01*
X38674Y-33321D01*
X38706Y-33402D01*
X38753Y-33474D01*
X38813Y-33536D01*
X38884Y-33585D01*
X38963Y-33620D01*
X39047Y-33639D01*
X39133Y-33640D01*
X39218Y-33625D01*
X39299Y-33594D01*
X39372Y-33548D01*
X39434Y-33488D01*
X39451Y-33465D01*
X40700Y-33465D01*
X40724Y-33462D01*
X40748Y-33460D01*
X40750Y-33460D01*
X40751Y-33459D01*
X40774Y-33452D01*
X40798Y-33446D01*
X40799Y-33445D01*
X40800Y-33445D01*
X40822Y-33433D01*
X40844Y-33422D01*
X40845Y-33421D01*
X40846Y-33420D01*
X40865Y-33405D01*
X40884Y-33389D01*
X40886Y-33388D01*
X40886Y-33388D01*
X40886Y-33388D01*
X40887Y-33387D01*
X43809Y-30465D01*
X45690Y-30465D01*
X48735Y-33509D01*
X48735Y-34829D01*
X48722Y-34847D01*
X48698Y-34904D01*
X48685Y-34964D01*
X48684Y-35026D01*
X48695Y-35087D01*
X48718Y-35144D01*
X48751Y-35196D01*
X48794Y-35241D01*
X48845Y-35276D01*
X48902Y-35301D01*
X48962Y-35314D01*
X49024Y-35315D01*
X49085Y-35304D01*
X49142Y-35282D01*
X49194Y-35249D01*
X49239Y-35206D01*
X49275Y-35156D01*
X49300Y-35099D01*
X49314Y-35039D01*
X49315Y-34969D01*
X49303Y-34908D01*
X49279Y-34851D01*
X49265Y-34829D01*
X49265Y-33400D01*
X49262Y-33375D01*
X49260Y-33351D01*
X49260Y-33349D01*
X49259Y-33348D01*
X49253Y-33328D01*
X49435Y-33509D01*
X49435Y-35900D01*
X49437Y-35924D01*
X49439Y-35948D01*
X49439Y-35950D01*
X49440Y-35951D01*
X49447Y-35974D01*
X49453Y-35998D01*
X49454Y-35999D01*
X49454Y-36000D01*
X49466Y-36022D01*
X49477Y-36044D01*
X49478Y-36045D01*
X49479Y-36046D01*
X49494Y-36065D01*
X49510Y-36084D01*
X49511Y-36086D01*
X49511Y-36086D01*
X49511Y-36086D01*
X49512Y-36087D01*
X51091Y-37666D01*
X51095Y-37687D01*
X51118Y-37744D01*
X51151Y-37796D01*
X51194Y-37841D01*
X51245Y-37876D01*
X51302Y-37901D01*
X51362Y-37914D01*
X51424Y-37915D01*
X51485Y-37904D01*
X51542Y-37882D01*
X51594Y-37849D01*
X51639Y-37806D01*
X51675Y-37756D01*
X51700Y-37699D01*
X51714Y-37639D01*
X51715Y-37569D01*
X51703Y-37508D01*
X51679Y-37451D01*
X51645Y-37399D01*
X51601Y-37356D01*
X51550Y-37321D01*
X51493Y-37297D01*
X51466Y-37292D01*
X49965Y-35790D01*
X49965Y-33400D01*
X49962Y-33375D01*
X49960Y-33351D01*
X49960Y-33349D01*
X49959Y-33348D01*
X49953Y-33328D01*
X50012Y-33387D01*
X50031Y-33402D01*
X50050Y-33418D01*
X50051Y-33419D01*
X50052Y-33420D01*
X50074Y-33431D01*
X50095Y-33443D01*
X50096Y-33443D01*
X50098Y-33444D01*
X50121Y-33451D01*
X50144Y-33459D01*
X50146Y-33459D01*
X50147Y-33459D01*
X50171Y-33462D01*
X50196Y-33464D01*
X50199Y-33464D01*
X50199Y-33464D01*
X50199Y-33464D01*
X50200Y-33465D01*
X51790Y-33465D01*
X52635Y-34309D01*
X52635Y-35500D01*
X52637Y-35524D01*
X52639Y-35548D01*
X52639Y-35550D01*
X52640Y-35551D01*
X52647Y-35574D01*
X52653Y-35598D01*
X52654Y-35599D01*
X52654Y-35600D01*
X52666Y-35622D01*
X52677Y-35644D01*
X52678Y-35645D01*
X52679Y-35646D01*
X52694Y-35665D01*
X52710Y-35684D01*
X52711Y-35686D01*
X52711Y-35686D01*
X52711Y-35686D01*
X52712Y-35687D01*
X54212Y-37187D01*
X54231Y-37202D01*
X54250Y-37218D01*
X54251Y-37219D01*
X54252Y-37220D01*
X54274Y-37231D01*
X54295Y-37243D01*
X54296Y-37243D01*
X54298Y-37244D01*
X54321Y-37251D01*
X54344Y-37259D01*
X54346Y-37259D01*
X54347Y-37259D01*
X54371Y-37262D01*
X54396Y-37264D01*
X54399Y-37264D01*
X54399Y-37264D01*
X54399Y-37264D01*
X54400Y-37265D01*
X54615Y-37265D01*
X54598Y-37304D01*
X54585Y-37364D01*
X54584Y-37426D01*
X54595Y-37487D01*
X54618Y-37544D01*
X54651Y-37596D01*
X54694Y-37641D01*
X54745Y-37676D01*
X54802Y-37701D01*
X54862Y-37714D01*
X54924Y-37715D01*
X54985Y-37704D01*
X55042Y-37682D01*
X55070Y-37665D01*
X57590Y-37665D01*
X58935Y-39009D01*
X58935Y-40800D01*
X58937Y-40824D01*
X58939Y-40848D01*
X58939Y-40850D01*
X58940Y-40851D01*
X58947Y-40874D01*
X58953Y-40898D01*
X58954Y-40899D01*
X58954Y-40900D01*
X58966Y-40922D01*
X58977Y-40944D01*
X58978Y-40945D01*
X58979Y-40946D01*
X58994Y-40965D01*
X59010Y-40984D01*
X59011Y-40986D01*
X59011Y-40986D01*
X59011Y-40986D01*
X59012Y-40987D01*
X61035Y-43009D01*
X61035Y-45800D01*
X61037Y-45824D01*
X61039Y-45848D01*
X61039Y-45850D01*
X61040Y-45851D01*
X61047Y-45874D01*
X61053Y-45898D01*
X61054Y-45899D01*
X61054Y-45900D01*
X61066Y-45922D01*
X61077Y-45944D01*
X61078Y-45945D01*
X61079Y-45946D01*
X61094Y-45965D01*
X61110Y-45984D01*
X61111Y-45986D01*
X61111Y-45986D01*
X61111Y-45986D01*
X61112Y-45987D01*
X61730Y-46605D01*
X61543Y-46879D01*
X61380Y-47259D01*
X61294Y-47663D01*
X61288Y-48077D01*
X61296Y-48120D01*
X60240Y-48859D01*
X60088Y-48989D01*
X59964Y-49147D01*
X59873Y-49325D01*
X59819Y-49518D01*
X59803Y-49717D01*
X59826Y-49916D01*
X59887Y-50107D01*
X59984Y-50282D01*
X60113Y-50435D01*
X60270Y-50560D01*
X60448Y-50652D01*
X60640Y-50708D01*
X60840Y-50725D01*
X61039Y-50704D01*
X61230Y-50644D01*
X61405Y-50548D01*
X61417Y-50540D01*
X62477Y-49798D01*
X62745Y-49915D01*
X63149Y-50003D01*
X63562Y-50012D01*
X63969Y-49940D01*
X64355Y-49791D01*
X64704Y-49569D01*
X65003Y-49284D01*
X65242Y-48946D01*
X65410Y-48568D01*
X65501Y-48165D01*
X65508Y-47693D01*
X65508Y-52460D01*
X58502Y-52460D01*
X58502Y-44954D01*
X58406Y-44473D01*
X58219Y-44019D01*
X58207Y-44000D01*
X58207Y-39232D01*
X58182Y-39110D01*
X58135Y-38995D01*
X58067Y-38892D01*
X57979Y-38804D01*
X57877Y-38735D01*
X57762Y-38687D01*
X57641Y-38662D01*
X57517Y-38661D01*
X57395Y-38684D01*
X57280Y-38731D01*
X57177Y-38799D01*
X57088Y-38885D01*
X57018Y-38988D01*
X56969Y-39101D01*
X56943Y-39223D01*
X56942Y-39347D01*
X56964Y-39469D01*
X57010Y-39584D01*
X57077Y-39688D01*
X57163Y-39777D01*
X57265Y-39848D01*
X57378Y-39897D01*
X57499Y-39924D01*
X57623Y-39927D01*
X57745Y-39905D01*
X57861Y-39860D01*
X57965Y-39794D01*
X58055Y-39708D01*
X58127Y-39607D01*
X58177Y-39494D01*
X58205Y-39373D01*
X58207Y-39232D01*
X58207Y-44000D01*
X57948Y-43611D01*
X57602Y-43262D01*
X57195Y-42988D01*
X56743Y-42798D01*
X56632Y-42775D01*
X56632Y-39232D01*
X56607Y-39110D01*
X56560Y-38995D01*
X56492Y-38892D01*
X56404Y-38804D01*
X56302Y-38735D01*
X56187Y-38687D01*
X56066Y-38662D01*
X55942Y-38661D01*
X55820Y-38684D01*
X55705Y-38731D01*
X55645Y-38770D01*
X52787Y-35912D01*
X52768Y-35897D01*
X52749Y-35881D01*
X52748Y-35880D01*
X52747Y-35879D01*
X52725Y-35868D01*
X52704Y-35856D01*
X52703Y-35856D01*
X52701Y-35855D01*
X52678Y-35848D01*
X52655Y-35840D01*
X52653Y-35840D01*
X52652Y-35840D01*
X52628Y-35837D01*
X52603Y-35835D01*
X52600Y-35835D01*
X52600Y-35835D01*
X52600Y-35835D01*
X52600Y-35835D01*
X52240Y-35835D01*
X52240Y-35056D01*
X52240Y-34056D01*
X52223Y-33972D01*
X52190Y-33892D01*
X52142Y-33820D01*
X52081Y-33759D01*
X52010Y-33711D01*
X51930Y-33677D01*
X51846Y-33660D01*
X51759Y-33659D01*
X51675Y-33675D01*
X51595Y-33708D01*
X51522Y-33755D01*
X51461Y-33815D01*
X51412Y-33887D01*
X51378Y-33966D01*
X51360Y-34050D01*
X51359Y-34136D01*
X51374Y-34221D01*
X51406Y-34302D01*
X51453Y-34374D01*
X51513Y-34436D01*
X51584Y-34485D01*
X51663Y-34520D01*
X51747Y-34539D01*
X51833Y-34540D01*
X51918Y-34525D01*
X51999Y-34494D01*
X52072Y-34448D01*
X52134Y-34388D01*
X52184Y-34318D01*
X52219Y-34239D01*
X52238Y-34155D01*
X52240Y-34056D01*
X52240Y-35056D01*
X52223Y-34972D01*
X52190Y-34892D01*
X52142Y-34820D01*
X52081Y-34759D01*
X52010Y-34711D01*
X51930Y-34677D01*
X51846Y-34660D01*
X51759Y-34659D01*
X51675Y-34675D01*
X51595Y-34708D01*
X51522Y-34755D01*
X51461Y-34815D01*
X51412Y-34887D01*
X51378Y-34966D01*
X51360Y-35050D01*
X51359Y-35136D01*
X51374Y-35221D01*
X51406Y-35302D01*
X51453Y-35374D01*
X51513Y-35436D01*
X51584Y-35485D01*
X51663Y-35520D01*
X51747Y-35539D01*
X51833Y-35540D01*
X51918Y-35525D01*
X51999Y-35494D01*
X52072Y-35448D01*
X52134Y-35388D01*
X52184Y-35318D01*
X52219Y-35239D01*
X52238Y-35155D01*
X52240Y-35056D01*
X52240Y-35835D01*
X52240Y-35835D01*
X52240Y-35786D01*
X52234Y-35759D01*
X52224Y-35733D01*
X52209Y-35711D01*
X52189Y-35691D01*
X52166Y-35676D01*
X52141Y-35665D01*
X52114Y-35660D01*
X52087Y-35659D01*
X51486Y-35659D01*
X51459Y-35665D01*
X51433Y-35675D01*
X51411Y-35690D01*
X51391Y-35710D01*
X51376Y-35733D01*
X51365Y-35758D01*
X51360Y-35785D01*
X51359Y-35812D01*
X51359Y-36413D01*
X51365Y-36440D01*
X51375Y-36466D01*
X51390Y-36488D01*
X51410Y-36508D01*
X51433Y-36523D01*
X51458Y-36534D01*
X51485Y-36539D01*
X51512Y-36540D01*
X52113Y-36540D01*
X52140Y-36534D01*
X52166Y-36524D01*
X52188Y-36509D01*
X52208Y-36489D01*
X52223Y-36466D01*
X52234Y-36441D01*
X52239Y-36414D01*
X52240Y-36387D01*
X52240Y-36365D01*
X52490Y-36365D01*
X55368Y-39243D01*
X55367Y-39347D01*
X55389Y-39469D01*
X55435Y-39584D01*
X55502Y-39688D01*
X55588Y-39777D01*
X55690Y-39848D01*
X55803Y-39897D01*
X55924Y-39924D01*
X56048Y-39927D01*
X56170Y-39905D01*
X56286Y-39860D01*
X56390Y-39794D01*
X56480Y-39708D01*
X56552Y-39607D01*
X56602Y-39494D01*
X56630Y-39373D01*
X56632Y-39232D01*
X56632Y-42775D01*
X56262Y-42699D01*
X55772Y-42696D01*
X55290Y-42788D01*
X54835Y-42971D01*
X54424Y-43240D01*
X54074Y-43583D01*
X53796Y-43988D01*
X53603Y-44439D01*
X53501Y-44919D01*
X53494Y-45410D01*
X53583Y-45892D01*
X53763Y-46349D01*
X54029Y-46761D01*
X54370Y-47114D01*
X54773Y-47394D01*
X55223Y-47591D01*
X55702Y-47696D01*
X56192Y-47706D01*
X56676Y-47621D01*
X57133Y-47444D01*
X57547Y-47181D01*
X57903Y-46842D01*
X58186Y-46441D01*
X58385Y-45993D01*
X58494Y-45515D01*
X58502Y-44954D01*
X58502Y-52460D01*
X52339Y-52460D01*
X52339Y-40889D01*
X52296Y-40673D01*
X52212Y-40469D01*
X52090Y-40285D01*
X51935Y-40129D01*
X51752Y-40006D01*
X51549Y-39920D01*
X51333Y-39876D01*
X51112Y-39874D01*
X50895Y-39916D01*
X50691Y-39998D01*
X50506Y-40119D01*
X50349Y-40273D01*
X50224Y-40455D01*
X50137Y-40658D01*
X50092Y-40874D01*
X50089Y-41094D01*
X50128Y-41311D01*
X50210Y-41516D01*
X50329Y-41701D01*
X50482Y-41860D01*
X50663Y-41986D01*
X50865Y-42074D01*
X51081Y-42121D01*
X51301Y-42126D01*
X51518Y-42088D01*
X51724Y-42008D01*
X51910Y-41890D01*
X52070Y-41738D01*
X52197Y-41558D01*
X52287Y-41356D01*
X52336Y-41141D01*
X52339Y-40889D01*
X52339Y-52460D01*
X49615Y-52460D01*
X49615Y-38269D01*
X49603Y-38208D01*
X49579Y-38151D01*
X49545Y-38099D01*
X49501Y-38056D01*
X49450Y-38021D01*
X49393Y-37997D01*
X49333Y-37985D01*
X49315Y-37985D01*
X49315Y-35669D01*
X49303Y-35608D01*
X49279Y-35551D01*
X49245Y-35499D01*
X49201Y-35456D01*
X49150Y-35421D01*
X49093Y-35397D01*
X49033Y-35385D01*
X48971Y-35384D01*
X48910Y-35396D01*
X48853Y-35419D01*
X48801Y-35453D01*
X48757Y-35496D01*
X48722Y-35547D01*
X48698Y-35604D01*
X48685Y-35664D01*
X48684Y-35726D01*
X48695Y-35787D01*
X48718Y-35844D01*
X48735Y-35870D01*
X48735Y-37090D01*
X48590Y-37235D01*
X48315Y-37235D01*
X48315Y-35869D01*
X48303Y-35808D01*
X48279Y-35751D01*
X48265Y-35729D01*
X48265Y-35300D01*
X48265Y-34700D01*
X48262Y-34675D01*
X48260Y-34651D01*
X48260Y-34649D01*
X48259Y-34648D01*
X48252Y-34625D01*
X48246Y-34601D01*
X48245Y-34600D01*
X48245Y-34599D01*
X48233Y-34577D01*
X48222Y-34555D01*
X48221Y-34554D01*
X48220Y-34553D01*
X48205Y-34534D01*
X48189Y-34515D01*
X48188Y-34513D01*
X48188Y-34513D01*
X48187Y-34513D01*
X48187Y-34512D01*
X48087Y-34412D01*
X48068Y-34397D01*
X48049Y-34381D01*
X48048Y-34380D01*
X48047Y-34379D01*
X48025Y-34368D01*
X48004Y-34356D01*
X48003Y-34356D01*
X48001Y-34355D01*
X47978Y-34348D01*
X47955Y-34340D01*
X47953Y-34340D01*
X47952Y-34340D01*
X47928Y-34337D01*
X47903Y-34335D01*
X47900Y-34335D01*
X47900Y-34335D01*
X47900Y-34335D01*
X47900Y-34335D01*
X47409Y-34335D01*
X46665Y-33590D01*
X46665Y-31800D01*
X46662Y-31775D01*
X46660Y-31751D01*
X46660Y-31749D01*
X46659Y-31748D01*
X46652Y-31725D01*
X46646Y-31701D01*
X46645Y-31700D01*
X46645Y-31699D01*
X46633Y-31677D01*
X46622Y-31655D01*
X46621Y-31654D01*
X46620Y-31653D01*
X46605Y-31634D01*
X46589Y-31615D01*
X46588Y-31613D01*
X46588Y-31613D01*
X46587Y-31613D01*
X46587Y-31612D01*
X46507Y-31533D01*
X46503Y-31508D01*
X46479Y-31451D01*
X46445Y-31399D01*
X46401Y-31356D01*
X46350Y-31321D01*
X46293Y-31297D01*
X46233Y-31285D01*
X46171Y-31284D01*
X46110Y-31296D01*
X46053Y-31319D01*
X46001Y-31353D01*
X45957Y-31396D01*
X45922Y-31447D01*
X45898Y-31504D01*
X45885Y-31564D01*
X45884Y-31626D01*
X45895Y-31687D01*
X45918Y-31744D01*
X45951Y-31796D01*
X45994Y-31841D01*
X46045Y-31876D01*
X46102Y-31901D01*
X46133Y-31907D01*
X46135Y-31909D01*
X46135Y-33700D01*
X46137Y-33724D01*
X46139Y-33748D01*
X46139Y-33750D01*
X46140Y-33751D01*
X46147Y-33774D01*
X46153Y-33798D01*
X46154Y-33799D01*
X46154Y-33800D01*
X46166Y-33822D01*
X46177Y-33844D01*
X46178Y-33845D01*
X46179Y-33846D01*
X46194Y-33865D01*
X46210Y-33884D01*
X46211Y-33886D01*
X46211Y-33886D01*
X46211Y-33886D01*
X46212Y-33887D01*
X47112Y-34787D01*
X47131Y-34802D01*
X47150Y-34818D01*
X47151Y-34819D01*
X47152Y-34820D01*
X47174Y-34831D01*
X47195Y-34843D01*
X47196Y-34843D01*
X47198Y-34844D01*
X47221Y-34851D01*
X47244Y-34859D01*
X47246Y-34859D01*
X47247Y-34859D01*
X47271Y-34862D01*
X47296Y-34864D01*
X47299Y-34864D01*
X47299Y-34864D01*
X47299Y-34864D01*
X47300Y-34865D01*
X47735Y-34865D01*
X47735Y-35300D01*
X47735Y-35729D01*
X47722Y-35747D01*
X47698Y-35804D01*
X47685Y-35864D01*
X47684Y-35926D01*
X47695Y-35987D01*
X47718Y-36044D01*
X47751Y-36096D01*
X47794Y-36141D01*
X47845Y-36176D01*
X47902Y-36201D01*
X47962Y-36214D01*
X48024Y-36215D01*
X48085Y-36204D01*
X48142Y-36182D01*
X48194Y-36149D01*
X48239Y-36106D01*
X48275Y-36056D01*
X48300Y-35999D01*
X48314Y-35939D01*
X48315Y-35869D01*
X48315Y-37235D01*
X47670Y-37235D01*
X47650Y-37221D01*
X47593Y-37197D01*
X47533Y-37185D01*
X47471Y-37184D01*
X47410Y-37196D01*
X47353Y-37219D01*
X47301Y-37253D01*
X47257Y-37296D01*
X47222Y-37347D01*
X47198Y-37404D01*
X47185Y-37464D01*
X47184Y-37526D01*
X47195Y-37587D01*
X47218Y-37644D01*
X47251Y-37696D01*
X47294Y-37741D01*
X47345Y-37776D01*
X47402Y-37801D01*
X47462Y-37814D01*
X47524Y-37815D01*
X47585Y-37804D01*
X47642Y-37782D01*
X47670Y-37765D01*
X48700Y-37765D01*
X48724Y-37762D01*
X48748Y-37760D01*
X48750Y-37760D01*
X48751Y-37759D01*
X48774Y-37752D01*
X48798Y-37746D01*
X48799Y-37745D01*
X48800Y-37745D01*
X48822Y-37733D01*
X48844Y-37722D01*
X48845Y-37721D01*
X48846Y-37720D01*
X48865Y-37705D01*
X48884Y-37689D01*
X48886Y-37688D01*
X48886Y-37688D01*
X48886Y-37688D01*
X48887Y-37687D01*
X49187Y-37387D01*
X49202Y-37368D01*
X49218Y-37349D01*
X49219Y-37348D01*
X49220Y-37347D01*
X49231Y-37325D01*
X49243Y-37304D01*
X49243Y-37303D01*
X49244Y-37301D01*
X49251Y-37278D01*
X49259Y-37255D01*
X49259Y-37253D01*
X49259Y-37252D01*
X49262Y-37228D01*
X49264Y-37203D01*
X49264Y-37200D01*
X49264Y-37200D01*
X49264Y-37200D01*
X49265Y-37200D01*
X49265Y-35870D01*
X49275Y-35856D01*
X49300Y-35799D01*
X49314Y-35739D01*
X49315Y-35669D01*
X49315Y-37985D01*
X49271Y-37984D01*
X49210Y-37996D01*
X49153Y-38019D01*
X49129Y-38035D01*
X47870Y-38035D01*
X47850Y-38021D01*
X47793Y-37997D01*
X47733Y-37985D01*
X47671Y-37984D01*
X47610Y-37996D01*
X47553Y-38019D01*
X47501Y-38053D01*
X47457Y-38096D01*
X47422Y-38147D01*
X47398Y-38204D01*
X47392Y-38233D01*
X47390Y-38235D01*
X44515Y-38235D01*
X44515Y-33469D01*
X44503Y-33408D01*
X44479Y-33351D01*
X44465Y-33329D01*
X44465Y-32370D01*
X44475Y-32356D01*
X44500Y-32299D01*
X44514Y-32239D01*
X44515Y-32169D01*
X44503Y-32108D01*
X44479Y-32051D01*
X44445Y-31999D01*
X44401Y-31956D01*
X44350Y-31921D01*
X44293Y-31897D01*
X44233Y-31885D01*
X44171Y-31884D01*
X44110Y-31896D01*
X44053Y-31919D01*
X44001Y-31953D01*
X43957Y-31996D01*
X43922Y-32047D01*
X43898Y-32104D01*
X43885Y-32164D01*
X43884Y-32226D01*
X43895Y-32287D01*
X43918Y-32344D01*
X43935Y-32370D01*
X43935Y-33329D01*
X43922Y-33347D01*
X43898Y-33404D01*
X43885Y-33464D01*
X43884Y-33526D01*
X43895Y-33587D01*
X43918Y-33644D01*
X43951Y-33696D01*
X43994Y-33741D01*
X44045Y-33776D01*
X44102Y-33801D01*
X44162Y-33814D01*
X44224Y-33815D01*
X44285Y-33804D01*
X44342Y-33782D01*
X44394Y-33749D01*
X44439Y-33706D01*
X44475Y-33656D01*
X44500Y-33599D01*
X44514Y-33539D01*
X44515Y-33469D01*
X44515Y-38235D01*
X44409Y-38235D01*
X44215Y-38040D01*
X44215Y-37369D01*
X44203Y-37308D01*
X44179Y-37251D01*
X44145Y-37199D01*
X44101Y-37156D01*
X44050Y-37121D01*
X43993Y-37097D01*
X43966Y-37092D01*
X43887Y-37012D01*
X43868Y-36997D01*
X43849Y-36981D01*
X43848Y-36980D01*
X43847Y-36979D01*
X43825Y-36968D01*
X43804Y-36956D01*
X43803Y-36956D01*
X43801Y-36955D01*
X43778Y-36948D01*
X43755Y-36940D01*
X43753Y-36940D01*
X43752Y-36940D01*
X43728Y-36937D01*
X43703Y-36935D01*
X43700Y-36935D01*
X43700Y-36935D01*
X43700Y-36935D01*
X43700Y-36935D01*
X39552Y-36935D01*
X39542Y-36920D01*
X39481Y-36859D01*
X39410Y-36811D01*
X39330Y-36777D01*
X39246Y-36760D01*
X39159Y-36759D01*
X39075Y-36775D01*
X38995Y-36808D01*
X38922Y-36855D01*
X38861Y-36915D01*
X38812Y-36987D01*
X38778Y-37066D01*
X38760Y-37150D01*
X38759Y-37236D01*
X38774Y-37321D01*
X38806Y-37402D01*
X38853Y-37474D01*
X38913Y-37536D01*
X38984Y-37585D01*
X39063Y-37620D01*
X39147Y-37639D01*
X39233Y-37640D01*
X39318Y-37625D01*
X39399Y-37594D01*
X39472Y-37548D01*
X39534Y-37488D01*
X39551Y-37465D01*
X43590Y-37465D01*
X43591Y-37466D01*
X43595Y-37487D01*
X43618Y-37544D01*
X43651Y-37596D01*
X43694Y-37641D01*
X43745Y-37676D01*
X43802Y-37701D01*
X43862Y-37714D01*
X43924Y-37715D01*
X43985Y-37704D01*
X44042Y-37682D01*
X44094Y-37649D01*
X44139Y-37606D01*
X44175Y-37556D01*
X44200Y-37499D01*
X44214Y-37439D01*
X44215Y-37369D01*
X44215Y-38040D01*
X44187Y-38012D01*
X44168Y-37997D01*
X44149Y-37981D01*
X44148Y-37980D01*
X44147Y-37979D01*
X44125Y-37968D01*
X44104Y-37956D01*
X44103Y-37956D01*
X44101Y-37955D01*
X44078Y-37948D01*
X44055Y-37940D01*
X44053Y-37940D01*
X44052Y-37940D01*
X44028Y-37937D01*
X44003Y-37935D01*
X44000Y-37935D01*
X44000Y-37935D01*
X44000Y-37935D01*
X44000Y-37935D01*
X43700Y-37935D01*
X40552Y-37935D01*
X40542Y-37920D01*
X40481Y-37859D01*
X40410Y-37811D01*
X40330Y-37777D01*
X40246Y-37760D01*
X40159Y-37759D01*
X40075Y-37775D01*
X39995Y-37808D01*
X39922Y-37855D01*
X39861Y-37915D01*
X39812Y-37987D01*
X39778Y-38066D01*
X39760Y-38150D01*
X39759Y-38236D01*
X39774Y-38321D01*
X39806Y-38402D01*
X39853Y-38474D01*
X39913Y-38536D01*
X39984Y-38585D01*
X40063Y-38620D01*
X40147Y-38639D01*
X40233Y-38640D01*
X40318Y-38625D01*
X40399Y-38594D01*
X40472Y-38548D01*
X40534Y-38488D01*
X40551Y-38465D01*
X43700Y-38465D01*
X43890Y-38465D01*
X44112Y-38687D01*
X44131Y-38702D01*
X44150Y-38718D01*
X44151Y-38719D01*
X44152Y-38720D01*
X44174Y-38731D01*
X44195Y-38743D01*
X44196Y-38743D01*
X44198Y-38744D01*
X44221Y-38751D01*
X44244Y-38759D01*
X44246Y-38759D01*
X44247Y-38759D01*
X44271Y-38762D01*
X44296Y-38764D01*
X44299Y-38764D01*
X44299Y-38764D01*
X44299Y-38764D01*
X44300Y-38765D01*
X47500Y-38765D01*
X47524Y-38762D01*
X47548Y-38760D01*
X47550Y-38760D01*
X47551Y-38759D01*
X47574Y-38752D01*
X47598Y-38746D01*
X47599Y-38745D01*
X47600Y-38745D01*
X47622Y-38733D01*
X47644Y-38722D01*
X47645Y-38721D01*
X47646Y-38720D01*
X47665Y-38705D01*
X47684Y-38689D01*
X47686Y-38688D01*
X47686Y-38688D01*
X47686Y-38688D01*
X47687Y-38687D01*
X47766Y-38608D01*
X47785Y-38604D01*
X47842Y-38582D01*
X47870Y-38565D01*
X49129Y-38565D01*
X49145Y-38576D01*
X49202Y-38601D01*
X49262Y-38614D01*
X49324Y-38615D01*
X49385Y-38604D01*
X49442Y-38582D01*
X49494Y-38549D01*
X49539Y-38506D01*
X49575Y-38456D01*
X49600Y-38399D01*
X49614Y-38339D01*
X49615Y-38269D01*
X49615Y-52460D01*
X48740Y-52460D01*
X48740Y-50768D01*
X48729Y-50645D01*
X48694Y-50527D01*
X48637Y-50417D01*
X48560Y-50321D01*
X48466Y-50242D01*
X48357Y-50183D01*
X48240Y-50145D01*
X48117Y-50132D01*
X48109Y-50132D01*
X47706Y-50132D01*
X47655Y-50137D01*
X46831Y-49312D01*
X46812Y-49297D01*
X46793Y-49281D01*
X46792Y-49280D01*
X46791Y-49279D01*
X46769Y-49268D01*
X46748Y-49256D01*
X46747Y-49256D01*
X46745Y-49255D01*
X46722Y-49248D01*
X46699Y-49240D01*
X46697Y-49240D01*
X46696Y-49240D01*
X46672Y-49237D01*
X46647Y-49235D01*
X46644Y-49235D01*
X46644Y-49235D01*
X46644Y-49235D01*
X46644Y-49235D01*
X43565Y-49235D01*
X43565Y-46319D01*
X43553Y-46258D01*
X43529Y-46201D01*
X43495Y-46149D01*
X43451Y-46106D01*
X43400Y-46071D01*
X43343Y-46047D01*
X43283Y-46035D01*
X43221Y-46034D01*
X43160Y-46046D01*
X43103Y-46069D01*
X43051Y-46103D01*
X43007Y-46146D01*
X42972Y-46197D01*
X42948Y-46254D01*
X42942Y-46283D01*
X41994Y-47231D01*
X41709Y-47231D01*
X41709Y-40889D01*
X41666Y-40673D01*
X41582Y-40469D01*
X41460Y-40285D01*
X41305Y-40129D01*
X41122Y-40006D01*
X40919Y-39920D01*
X40703Y-39876D01*
X40482Y-39874D01*
X40265Y-39916D01*
X40061Y-39998D01*
X39876Y-40119D01*
X39719Y-40273D01*
X39594Y-40455D01*
X39507Y-40658D01*
X39462Y-40874D01*
X39459Y-41094D01*
X39498Y-41311D01*
X39580Y-41516D01*
X39699Y-41701D01*
X39852Y-41860D01*
X40033Y-41986D01*
X40235Y-42074D01*
X40451Y-42121D01*
X40671Y-42126D01*
X40888Y-42088D01*
X41094Y-42008D01*
X41280Y-41890D01*
X41440Y-41738D01*
X41567Y-41558D01*
X41657Y-41356D01*
X41706Y-41141D01*
X41709Y-40889D01*
X41709Y-47231D01*
X40736Y-47231D01*
X40716Y-47200D01*
X40651Y-47135D01*
X40576Y-47084D01*
X40492Y-47049D01*
X40402Y-47031D01*
X40311Y-47030D01*
X40222Y-47047D01*
X40137Y-47081D01*
X40061Y-47131D01*
X39996Y-47195D01*
X39944Y-47270D01*
X39908Y-47354D01*
X39889Y-47443D01*
X39888Y-47535D01*
X39904Y-47624D01*
X39938Y-47709D01*
X39987Y-47786D01*
X40051Y-47851D01*
X40126Y-47903D01*
X40209Y-47940D01*
X40298Y-47959D01*
X40389Y-47961D01*
X40479Y-47946D01*
X40564Y-47913D01*
X40641Y-47864D01*
X40707Y-47801D01*
X40736Y-47761D01*
X42104Y-47761D01*
X42128Y-47758D01*
X42152Y-47756D01*
X42154Y-47756D01*
X42155Y-47755D01*
X42178Y-47748D01*
X42202Y-47742D01*
X42203Y-47741D01*
X42204Y-47741D01*
X42226Y-47729D01*
X42248Y-47718D01*
X42249Y-47717D01*
X42250Y-47716D01*
X42269Y-47701D01*
X42288Y-47685D01*
X42290Y-47684D01*
X42290Y-47684D01*
X42290Y-47684D01*
X42291Y-47683D01*
X43316Y-46658D01*
X43335Y-46654D01*
X43392Y-46632D01*
X43444Y-46599D01*
X43489Y-46556D01*
X43525Y-46506D01*
X43550Y-46449D01*
X43564Y-46389D01*
X43565Y-46319D01*
X43565Y-49235D01*
X40959Y-49235D01*
X39365Y-47640D01*
X39365Y-46809D01*
X39413Y-46761D01*
X39971Y-46761D01*
X39987Y-46786D01*
X40051Y-46851D01*
X40126Y-46903D01*
X40209Y-46940D01*
X40298Y-46959D01*
X40389Y-46961D01*
X40479Y-46946D01*
X40564Y-46913D01*
X40641Y-46864D01*
X40707Y-46801D01*
X40760Y-46726D01*
X40797Y-46643D01*
X40817Y-46554D01*
X40819Y-46450D01*
X40819Y-45450D01*
X40801Y-45360D01*
X40766Y-45276D01*
X40716Y-45200D01*
X40651Y-45135D01*
X40576Y-45084D01*
X40492Y-45049D01*
X40402Y-45031D01*
X40311Y-45030D01*
X40222Y-45047D01*
X40137Y-45081D01*
X40061Y-45131D01*
X39996Y-45195D01*
X39944Y-45270D01*
X39908Y-45354D01*
X39889Y-45443D01*
X39888Y-45535D01*
X39904Y-45624D01*
X39938Y-45709D01*
X39987Y-45786D01*
X40051Y-45851D01*
X40126Y-45903D01*
X40209Y-45940D01*
X40298Y-45959D01*
X40389Y-45961D01*
X40479Y-45946D01*
X40564Y-45913D01*
X40641Y-45864D01*
X40707Y-45801D01*
X40760Y-45726D01*
X40797Y-45643D01*
X40817Y-45554D01*
X40819Y-45450D01*
X40819Y-46450D01*
X40801Y-46360D01*
X40766Y-46276D01*
X40716Y-46200D01*
X40651Y-46135D01*
X40576Y-46084D01*
X40492Y-46049D01*
X40402Y-46031D01*
X40311Y-46030D01*
X40222Y-46047D01*
X40137Y-46081D01*
X40061Y-46131D01*
X39996Y-46195D01*
X39971Y-46231D01*
X39304Y-46231D01*
X39279Y-46233D01*
X39255Y-46235D01*
X39253Y-46235D01*
X39252Y-46236D01*
X39229Y-46243D01*
X39205Y-46249D01*
X39204Y-46250D01*
X39203Y-46250D01*
X39181Y-46262D01*
X39159Y-46273D01*
X39158Y-46274D01*
X39157Y-46275D01*
X39138Y-46290D01*
X39119Y-46306D01*
X39117Y-46307D01*
X39117Y-46307D01*
X39117Y-46308D01*
X39116Y-46308D01*
X38912Y-46512D01*
X38897Y-46531D01*
X38881Y-46550D01*
X38880Y-46551D01*
X38879Y-46552D01*
X38868Y-46574D01*
X38856Y-46595D01*
X38856Y-46596D01*
X38855Y-46598D01*
X38848Y-46621D01*
X38840Y-46644D01*
X38840Y-46646D01*
X38840Y-46647D01*
X38837Y-46671D01*
X38835Y-46696D01*
X38835Y-46699D01*
X38835Y-46699D01*
X38835Y-46699D01*
X38835Y-46700D01*
X38835Y-47750D01*
X38837Y-47774D01*
X38839Y-47798D01*
X38839Y-47800D01*
X38840Y-47801D01*
X38847Y-47824D01*
X38853Y-47848D01*
X38854Y-47849D01*
X38854Y-47850D01*
X38866Y-47872D01*
X38877Y-47894D01*
X38878Y-47895D01*
X38879Y-47896D01*
X38894Y-47915D01*
X38910Y-47934D01*
X38911Y-47936D01*
X38911Y-47936D01*
X38911Y-47936D01*
X38912Y-47937D01*
X40662Y-49687D01*
X40681Y-49702D01*
X40700Y-49718D01*
X40701Y-49719D01*
X40702Y-49720D01*
X40724Y-49731D01*
X40745Y-49743D01*
X40746Y-49743D01*
X40748Y-49744D01*
X40771Y-49751D01*
X40794Y-49759D01*
X40796Y-49759D01*
X40797Y-49759D01*
X40821Y-49762D01*
X40846Y-49764D01*
X40849Y-49764D01*
X40849Y-49764D01*
X40849Y-49764D01*
X40850Y-49765D01*
X46534Y-49765D01*
X47181Y-50412D01*
X47124Y-50519D01*
X47087Y-50636D01*
X47075Y-50759D01*
X47086Y-50882D01*
X47121Y-51000D01*
X47178Y-51110D01*
X47255Y-51206D01*
X47349Y-51285D01*
X47458Y-51344D01*
X47575Y-51382D01*
X47698Y-51395D01*
X47706Y-51396D01*
X48109Y-51396D01*
X48231Y-51383D01*
X48349Y-51348D01*
X48458Y-51290D01*
X48554Y-51212D01*
X48632Y-51117D01*
X48691Y-51008D01*
X48728Y-50891D01*
X48740Y-50768D01*
X48740Y-52460D01*
X46965Y-52460D01*
X46965Y-50721D01*
X46948Y-50637D01*
X46916Y-50558D01*
X46869Y-50487D01*
X46808Y-50426D01*
X46738Y-50379D01*
X46659Y-50345D01*
X46575Y-50328D01*
X46490Y-50328D01*
X46406Y-50344D01*
X46327Y-50376D01*
X46255Y-50422D01*
X46194Y-50482D01*
X46146Y-50553D01*
X46112Y-50631D01*
X46095Y-50715D01*
X46093Y-50800D01*
X46109Y-50884D01*
X46140Y-50964D01*
X46187Y-51035D01*
X46246Y-51097D01*
X46316Y-51145D01*
X46394Y-51180D01*
X46478Y-51198D01*
X46563Y-51200D01*
X46647Y-51185D01*
X46727Y-51154D01*
X46799Y-51108D01*
X46861Y-51049D01*
X46910Y-50980D01*
X46945Y-50902D01*
X46964Y-50818D01*
X46965Y-50721D01*
X46965Y-52460D01*
X45705Y-52460D01*
X45705Y-50721D01*
X45688Y-50637D01*
X45656Y-50558D01*
X45609Y-50487D01*
X45548Y-50426D01*
X45478Y-50379D01*
X45399Y-50345D01*
X45315Y-50328D01*
X45230Y-50328D01*
X45146Y-50344D01*
X45067Y-50376D01*
X44995Y-50422D01*
X44934Y-50482D01*
X44886Y-50553D01*
X44852Y-50631D01*
X44835Y-50715D01*
X44833Y-50800D01*
X44849Y-50884D01*
X44880Y-50964D01*
X44927Y-51035D01*
X44986Y-51097D01*
X45056Y-51145D01*
X45134Y-51180D01*
X45218Y-51198D01*
X45303Y-51200D01*
X45387Y-51185D01*
X45467Y-51154D01*
X45539Y-51108D01*
X45601Y-51049D01*
X45650Y-50980D01*
X45685Y-50902D01*
X45704Y-50818D01*
X45705Y-50721D01*
X45705Y-52460D01*
X38351Y-52460D01*
X38211Y-52446D01*
X38078Y-52405D01*
X37955Y-52340D01*
X37848Y-52251D01*
X37759Y-52144D01*
X37694Y-52021D01*
X37653Y-51888D01*
X37640Y-51748D01*
X37640Y-14351D01*
X37653Y-14211D01*
X37694Y-14078D01*
X37759Y-13955D01*
X37848Y-13848D01*
X37955Y-13759D01*
X38078Y-13694D01*
X38211Y-13653D01*
X38351Y-13640D01*
X75848Y-13640D01*
X75988Y-13653D01*
X76121Y-13694D01*
X76244Y-13759D01*
X76351Y-13848D01*
X76440Y-13955D01*
X76505Y-14078D01*
X76546Y-14211D01*
X76560Y-14351D01*
X76560Y-51748D01*
G54D10*
G36*
X63360Y-30048D02*
X63346Y-30188D01*
X63305Y-30321D01*
X63240Y-30444D01*
X63151Y-30551D01*
X63044Y-30640D01*
X62921Y-30705D01*
X62788Y-30746D01*
X62648Y-30760D01*
X56351Y-30760D01*
X56211Y-30746D01*
X56078Y-30705D01*
X55955Y-30640D01*
X55848Y-30551D01*
X55759Y-30444D01*
X55694Y-30321D01*
X55653Y-30188D01*
X55640Y-30048D01*
X55640Y-27548D01*
X55625Y-27395D01*
X55580Y-27247D01*
X55507Y-27110D01*
X55408Y-26991D01*
X55289Y-26892D01*
X55152Y-26819D01*
X55004Y-26774D01*
X54851Y-26760D01*
X51051Y-26760D01*
X50911Y-26746D01*
X50778Y-26705D01*
X50655Y-26640D01*
X50548Y-26551D01*
X50459Y-26444D01*
X50394Y-26321D01*
X50353Y-26188D01*
X50340Y-26048D01*
X50340Y-25351D01*
X50353Y-25211D01*
X50394Y-25078D01*
X50459Y-24955D01*
X50548Y-24848D01*
X50655Y-24759D01*
X50778Y-24694D01*
X50911Y-24653D01*
X51051Y-24640D01*
X56648Y-24640D01*
X56788Y-24653D01*
X56921Y-24694D01*
X57044Y-24759D01*
X57151Y-24848D01*
X57240Y-24955D01*
X57305Y-25078D01*
X57346Y-25211D01*
X57360Y-25351D01*
X57360Y-26448D01*
X57351Y-26529D01*
X57328Y-26606D01*
X57290Y-26677D01*
X57239Y-26739D01*
X57177Y-26790D01*
X57106Y-26828D01*
X57029Y-26851D01*
X56946Y-26860D01*
X56854Y-26869D01*
X56762Y-26897D01*
X56677Y-26942D01*
X56603Y-27003D01*
X56542Y-27077D01*
X56497Y-27162D01*
X56469Y-27254D01*
X56460Y-27348D01*
X56460Y-27851D01*
X56474Y-28004D01*
X56519Y-28152D01*
X56592Y-28289D01*
X56691Y-28408D01*
X56810Y-28507D01*
X56947Y-28580D01*
X57095Y-28625D01*
X57248Y-28640D01*
X61851Y-28640D01*
X62004Y-28625D01*
X62152Y-28580D01*
X62289Y-28507D01*
X62408Y-28408D01*
X62507Y-28289D01*
X62580Y-28152D01*
X62625Y-28004D01*
X62640Y-27851D01*
X62640Y-27501D01*
X62647Y-27429D01*
X62667Y-27362D01*
X62700Y-27300D01*
X62745Y-27245D01*
X62800Y-27200D01*
X62862Y-27167D01*
X62929Y-27147D01*
X63000Y-27140D01*
X63070Y-27147D01*
X63137Y-27167D01*
X63199Y-27200D01*
X63254Y-27245D01*
X63299Y-27300D01*
X63332Y-27362D01*
X63352Y-27429D01*
X63360Y-27501D01*
X63360Y-30048D01*
X63360Y-30048D01*
G37*
G54D30*
X63360Y-30048D02*
X63346Y-30188D01*
X63305Y-30321D01*
X63240Y-30444D01*
X63151Y-30551D01*
X63044Y-30640D01*
X62921Y-30705D01*
X62788Y-30746D01*
X62648Y-30760D01*
X56351Y-30760D01*
X56211Y-30746D01*
X56078Y-30705D01*
X55955Y-30640D01*
X55848Y-30551D01*
X55759Y-30444D01*
X55694Y-30321D01*
X55653Y-30188D01*
X55640Y-30048D01*
X55640Y-27548D01*
X55625Y-27395D01*
X55580Y-27247D01*
X55507Y-27110D01*
X55408Y-26991D01*
X55289Y-26892D01*
X55152Y-26819D01*
X55004Y-26774D01*
X54851Y-26760D01*
X51051Y-26760D01*
X50911Y-26746D01*
X50778Y-26705D01*
X50655Y-26640D01*
X50548Y-26551D01*
X50459Y-26444D01*
X50394Y-26321D01*
X50353Y-26188D01*
X50340Y-26048D01*
X50340Y-25351D01*
X50353Y-25211D01*
X50394Y-25078D01*
X50459Y-24955D01*
X50548Y-24848D01*
X50655Y-24759D01*
X50778Y-24694D01*
X50911Y-24653D01*
X51051Y-24640D01*
X56648Y-24640D01*
X56788Y-24653D01*
X56921Y-24694D01*
X57044Y-24759D01*
X57151Y-24848D01*
X57240Y-24955D01*
X57305Y-25078D01*
X57346Y-25211D01*
X57360Y-25351D01*
X57360Y-26448D01*
X57351Y-26529D01*
X57328Y-26606D01*
X57290Y-26677D01*
X57239Y-26739D01*
X57177Y-26790D01*
X57106Y-26828D01*
X57029Y-26851D01*
X56946Y-26860D01*
X56854Y-26869D01*
X56762Y-26897D01*
X56677Y-26942D01*
X56603Y-27003D01*
X56542Y-27077D01*
X56497Y-27162D01*
X56469Y-27254D01*
X56460Y-27348D01*
X56460Y-27851D01*
X56474Y-28004D01*
X56519Y-28152D01*
X56592Y-28289D01*
X56691Y-28408D01*
X56810Y-28507D01*
X56947Y-28580D01*
X57095Y-28625D01*
X57248Y-28640D01*
X61851Y-28640D01*
X62004Y-28625D01*
X62152Y-28580D01*
X62289Y-28507D01*
X62408Y-28408D01*
X62507Y-28289D01*
X62580Y-28152D01*
X62625Y-28004D01*
X62640Y-27851D01*
X62640Y-27501D01*
X62647Y-27429D01*
X62667Y-27362D01*
X62700Y-27300D01*
X62745Y-27245D01*
X62800Y-27200D01*
X62862Y-27167D01*
X62929Y-27147D01*
X63000Y-27140D01*
X63070Y-27147D01*
X63137Y-27167D01*
X63199Y-27200D01*
X63254Y-27245D01*
X63299Y-27300D01*
X63332Y-27362D01*
X63352Y-27429D01*
X63360Y-27501D01*
X63360Y-30048D01*
G54D10*
G36*
X68860Y-34248D02*
X68846Y-34388D01*
X68805Y-34521D01*
X68740Y-34644D01*
X68651Y-34751D01*
X68544Y-34840D01*
X68421Y-34905D01*
X68288Y-34946D01*
X68148Y-34960D01*
X54839Y-34960D01*
X54718Y-34949D01*
X54601Y-34919D01*
X54492Y-34870D01*
X54393Y-34803D01*
X54304Y-34719D01*
X51619Y-31687D01*
X51542Y-31582D01*
X51486Y-31467D01*
X51451Y-31343D01*
X51440Y-31213D01*
X51440Y-29351D01*
X51453Y-29211D01*
X51494Y-29078D01*
X51559Y-28955D01*
X51648Y-28848D01*
X51755Y-28759D01*
X51878Y-28694D01*
X52011Y-28653D01*
X52151Y-28640D01*
X54648Y-28640D01*
X54788Y-28653D01*
X54921Y-28694D01*
X55044Y-28759D01*
X55151Y-28848D01*
X55240Y-28955D01*
X55305Y-29078D01*
X55346Y-29211D01*
X55360Y-29351D01*
X55360Y-30251D01*
X55374Y-30404D01*
X55419Y-30552D01*
X55492Y-30689D01*
X55591Y-30808D01*
X55710Y-30907D01*
X55847Y-30980D01*
X55995Y-31025D01*
X56148Y-31040D01*
X62851Y-31040D01*
X63004Y-31025D01*
X63152Y-30980D01*
X63289Y-30907D01*
X63408Y-30808D01*
X63507Y-30689D01*
X63580Y-30552D01*
X63625Y-30404D01*
X63640Y-30251D01*
X63640Y-27251D01*
X63653Y-27111D01*
X63694Y-26978D01*
X63759Y-26855D01*
X63848Y-26748D01*
X63955Y-26659D01*
X64078Y-26594D01*
X64211Y-26553D01*
X64351Y-26540D01*
X65394Y-26540D01*
X65532Y-26553D01*
X65662Y-26592D01*
X65783Y-26655D01*
X65891Y-26741D01*
X68642Y-29406D01*
X68718Y-29493D01*
X68779Y-29589D01*
X68823Y-29694D01*
X68850Y-29804D01*
X68860Y-29919D01*
X68860Y-34248D01*
X68860Y-34248D01*
G37*
G54D30*
X68860Y-34248D02*
X68846Y-34388D01*
X68805Y-34521D01*
X68740Y-34644D01*
X68651Y-34751D01*
X68544Y-34840D01*
X68421Y-34905D01*
X68288Y-34946D01*
X68148Y-34960D01*
X54839Y-34960D01*
X54718Y-34949D01*
X54601Y-34919D01*
X54492Y-34870D01*
X54393Y-34803D01*
X54304Y-34719D01*
X51619Y-31687D01*
X51542Y-31582D01*
X51486Y-31467D01*
X51451Y-31343D01*
X51440Y-31213D01*
X51440Y-29351D01*
X51453Y-29211D01*
X51494Y-29078D01*
X51559Y-28955D01*
X51648Y-28848D01*
X51755Y-28759D01*
X51878Y-28694D01*
X52011Y-28653D01*
X52151Y-28640D01*
X54648Y-28640D01*
X54788Y-28653D01*
X54921Y-28694D01*
X55044Y-28759D01*
X55151Y-28848D01*
X55240Y-28955D01*
X55305Y-29078D01*
X55346Y-29211D01*
X55360Y-29351D01*
X55360Y-30251D01*
X55374Y-30404D01*
X55419Y-30552D01*
X55492Y-30689D01*
X55591Y-30808D01*
X55710Y-30907D01*
X55847Y-30980D01*
X55995Y-31025D01*
X56148Y-31040D01*
X62851Y-31040D01*
X63004Y-31025D01*
X63152Y-30980D01*
X63289Y-30907D01*
X63408Y-30808D01*
X63507Y-30689D01*
X63580Y-30552D01*
X63625Y-30404D01*
X63640Y-30251D01*
X63640Y-27251D01*
X63653Y-27111D01*
X63694Y-26978D01*
X63759Y-26855D01*
X63848Y-26748D01*
X63955Y-26659D01*
X64078Y-26594D01*
X64211Y-26553D01*
X64351Y-26540D01*
X65394Y-26540D01*
X65532Y-26553D01*
X65662Y-26592D01*
X65783Y-26655D01*
X65891Y-26741D01*
X68642Y-29406D01*
X68718Y-29493D01*
X68779Y-29589D01*
X68823Y-29694D01*
X68850Y-29804D01*
X68860Y-29919D01*
X68860Y-34248D01*
G54D10*
G36*
X75260Y-36548D02*
X75246Y-36688D01*
X75205Y-36821D01*
X75140Y-36944D01*
X75051Y-37051D01*
X74944Y-37140D01*
X74821Y-37205D01*
X74688Y-37246D01*
X74548Y-37260D01*
X69851Y-37260D01*
X69711Y-37246D01*
X69578Y-37205D01*
X69455Y-37140D01*
X69348Y-37051D01*
X69259Y-36944D01*
X69194Y-36821D01*
X69153Y-36688D01*
X69140Y-36548D01*
X69140Y-29822D01*
X69129Y-29695D01*
X69098Y-29570D01*
X69047Y-29452D01*
X68977Y-29344D01*
X68892Y-29249D01*
X65942Y-26473D01*
X65826Y-26383D01*
X65693Y-26315D01*
X65550Y-26273D01*
X65404Y-26260D01*
X63698Y-26260D01*
X63633Y-26266D01*
X63569Y-26285D01*
X63510Y-26317D01*
X63459Y-26359D01*
X63417Y-26410D01*
X63385Y-26469D01*
X63366Y-26533D01*
X63360Y-26596D01*
X63354Y-26650D01*
X63340Y-26699D01*
X63316Y-26744D01*
X63283Y-26783D01*
X63244Y-26816D01*
X63199Y-26840D01*
X63150Y-26854D01*
X63098Y-26860D01*
X58351Y-26860D01*
X58211Y-26846D01*
X58078Y-26805D01*
X57955Y-26740D01*
X57848Y-26651D01*
X57759Y-26544D01*
X57694Y-26421D01*
X57653Y-26288D01*
X57640Y-26148D01*
X57640Y-23351D01*
X57653Y-23211D01*
X57694Y-23078D01*
X57759Y-22955D01*
X57848Y-22848D01*
X57955Y-22759D01*
X58078Y-22694D01*
X58211Y-22653D01*
X58351Y-22640D01*
X66682Y-22640D01*
X66796Y-22649D01*
X66906Y-22675D01*
X67010Y-22719D01*
X67106Y-22779D01*
X67193Y-22855D01*
X75056Y-30908D01*
X75143Y-31016D01*
X75207Y-31137D01*
X75246Y-31269D01*
X75260Y-31407D01*
X75260Y-36548D01*
X75260Y-36548D01*
G37*
G54D30*
X75260Y-36548D02*
X75246Y-36688D01*
X75205Y-36821D01*
X75140Y-36944D01*
X75051Y-37051D01*
X74944Y-37140D01*
X74821Y-37205D01*
X74688Y-37246D01*
X74548Y-37260D01*
X69851Y-37260D01*
X69711Y-37246D01*
X69578Y-37205D01*
X69455Y-37140D01*
X69348Y-37051D01*
X69259Y-36944D01*
X69194Y-36821D01*
X69153Y-36688D01*
X69140Y-36548D01*
X69140Y-29822D01*
X69129Y-29695D01*
X69098Y-29570D01*
X69047Y-29452D01*
X68977Y-29344D01*
X68892Y-29249D01*
X65942Y-26473D01*
X65826Y-26383D01*
X65693Y-26315D01*
X65550Y-26273D01*
X65404Y-26260D01*
X63698Y-26260D01*
X63633Y-26266D01*
X63569Y-26285D01*
X63510Y-26317D01*
X63459Y-26359D01*
X63417Y-26410D01*
X63385Y-26469D01*
X63366Y-26533D01*
X63360Y-26596D01*
X63354Y-26650D01*
X63340Y-26699D01*
X63316Y-26744D01*
X63283Y-26783D01*
X63244Y-26816D01*
X63199Y-26840D01*
X63150Y-26854D01*
X63098Y-26860D01*
X58351Y-26860D01*
X58211Y-26846D01*
X58078Y-26805D01*
X57955Y-26740D01*
X57848Y-26651D01*
X57759Y-26544D01*
X57694Y-26421D01*
X57653Y-26288D01*
X57640Y-26148D01*
X57640Y-23351D01*
X57653Y-23211D01*
X57694Y-23078D01*
X57759Y-22955D01*
X57848Y-22848D01*
X57955Y-22759D01*
X58078Y-22694D01*
X58211Y-22653D01*
X58351Y-22640D01*
X66682Y-22640D01*
X66796Y-22649D01*
X66906Y-22675D01*
X67010Y-22719D01*
X67106Y-22779D01*
X67193Y-22855D01*
X75056Y-30908D01*
X75143Y-31016D01*
X75207Y-31137D01*
X75246Y-31269D01*
X75260Y-31407D01*
X75260Y-36548D01*
M02*
