M48
INCH,TZ
T1C0.020
T2C0.024
T3C0.032
T4C0.039
T5C0.047
T6C0.059
T7C0.098
T8C0.120
T9C0.158
T10C0.167
T11C0.197
T12C0.413
%
G90
G05
T1
X041850Y-046750
X042900Y-046300
X043800Y-032200
X043800Y-033600
X043900Y-037400
X045700Y-038900
X046200Y-031600
X047800Y-037500
X047800Y-039400
X048000Y-035900
X068800Y-041200
T2
X039200Y-037200
X040200Y-036200
X040200Y-038200
T3
X040354Y-045496
X040354Y-046496
X040354Y-047496
X054425Y-039294
X056000Y-039294
X057575Y-039294
T4
X043892Y-050764
X047908Y-050764
T5
X053350Y-027750
X054350Y-027750
X055350Y-027750
X058850Y-027750
X059850Y-027750
X060850Y-027750
X064100Y-030504
X064100Y-043496
X066900Y-030504
X066900Y-043496
T6
X045270Y-050764
X046530Y-050764
T7
X073500Y-028900
X073500Y-033300
T8
X039370Y-015354
X039370Y-050787
X074803Y-015354
X074803Y-050787
T9
X040945Y-025118
X073229Y-025118
T10
X063400Y-047900
X068800Y-047900
X073500Y-037500
X073500Y-044500
T11
X040585Y-041000
X051215Y-041000
T12
X056000Y-045200
T0
M30
