G04 (created by PCBNEW (2012-jan-04)-stable) date Sat 09 Jun 2012 03:25:13 PM CEST*
G01*
G70*
G90*
%MOIN*%
G04 Gerber Fmt 3.4, Leading zero omitted, Abs format*
%FSLAX34Y34*%
G04 APERTURE LIST*
%ADD10C,0.001000*%
%ADD11C,0.008000*%
G04 APERTURE END LIST*
G54D10*
G54D11*
X76772Y-52756D02*
X76772Y-13386D01*
X37402Y-52756D02*
X37402Y-13386D01*
X76772Y-52756D02*
X37402Y-52756D01*
X37402Y-13386D02*
X76772Y-13386D01*
G54D10*
X43700Y-32100D02*
X43900Y-32300D01*
X43900Y-32100D02*
X43700Y-32300D01*
X43700Y-33500D02*
X43900Y-33700D01*
X43900Y-33500D02*
X43700Y-33700D01*
X43800Y-37300D02*
X44000Y-37500D01*
X44000Y-37300D02*
X43800Y-37500D01*
X45600Y-38800D02*
X45800Y-39000D01*
X45800Y-38800D02*
X45600Y-39000D01*
X46100Y-31500D02*
X46300Y-31700D01*
X46300Y-31500D02*
X46100Y-31700D01*
X47700Y-37400D02*
X47900Y-37600D01*
X47900Y-37400D02*
X47700Y-37600D01*
X47700Y-39300D02*
X47900Y-39500D01*
X47900Y-39300D02*
X47700Y-39500D01*
X47900Y-35800D02*
X48100Y-36000D01*
X48100Y-35800D02*
X47900Y-36000D01*
X39320Y-37200D02*
X39317Y-37223D01*
X39310Y-37245D01*
X39299Y-37266D01*
X39285Y-37284D01*
X39267Y-37299D01*
X39246Y-37310D01*
X39224Y-37317D01*
X39200Y-37319D01*
X39178Y-37317D01*
X39156Y-37311D01*
X39135Y-37300D01*
X39117Y-37285D01*
X39101Y-37267D01*
X39090Y-37247D01*
X39083Y-37224D01*
X39081Y-37201D01*
X39082Y-37179D01*
X39089Y-37156D01*
X39100Y-37135D01*
X39114Y-37117D01*
X39132Y-37102D01*
X39152Y-37091D01*
X39175Y-37083D01*
X39198Y-37081D01*
X39220Y-37082D01*
X39243Y-37089D01*
X39264Y-37099D01*
X39282Y-37114D01*
X39298Y-37131D01*
X39309Y-37152D01*
X39317Y-37174D01*
X39319Y-37197D01*
X39320Y-37200D01*
X40320Y-36200D02*
X40317Y-36223D01*
X40310Y-36245D01*
X40299Y-36266D01*
X40285Y-36284D01*
X40267Y-36299D01*
X40246Y-36310D01*
X40224Y-36317D01*
X40200Y-36319D01*
X40178Y-36317D01*
X40156Y-36311D01*
X40135Y-36300D01*
X40117Y-36285D01*
X40101Y-36267D01*
X40090Y-36247D01*
X40083Y-36224D01*
X40081Y-36201D01*
X40082Y-36179D01*
X40089Y-36156D01*
X40100Y-36135D01*
X40114Y-36117D01*
X40132Y-36102D01*
X40152Y-36091D01*
X40175Y-36083D01*
X40198Y-36081D01*
X40220Y-36082D01*
X40243Y-36089D01*
X40264Y-36099D01*
X40282Y-36114D01*
X40298Y-36131D01*
X40309Y-36152D01*
X40317Y-36174D01*
X40319Y-36197D01*
X40320Y-36200D01*
X40320Y-38200D02*
X40317Y-38223D01*
X40310Y-38245D01*
X40299Y-38266D01*
X40285Y-38284D01*
X40267Y-38299D01*
X40246Y-38310D01*
X40224Y-38317D01*
X40200Y-38319D01*
X40178Y-38317D01*
X40156Y-38311D01*
X40135Y-38300D01*
X40117Y-38285D01*
X40101Y-38267D01*
X40090Y-38247D01*
X40083Y-38224D01*
X40081Y-38201D01*
X40082Y-38179D01*
X40089Y-38156D01*
X40100Y-38135D01*
X40114Y-38117D01*
X40132Y-38102D01*
X40152Y-38091D01*
X40175Y-38083D01*
X40198Y-38081D01*
X40220Y-38082D01*
X40243Y-38089D01*
X40264Y-38099D01*
X40282Y-38114D01*
X40298Y-38131D01*
X40309Y-38152D01*
X40317Y-38174D01*
X40319Y-38197D01*
X40320Y-38200D01*
X40354Y-45339D02*
X40354Y-45653D01*
X40511Y-45496D02*
X40197Y-45496D01*
X40354Y-46339D02*
X40354Y-46653D01*
X40511Y-46496D02*
X40197Y-46496D01*
X40354Y-47339D02*
X40354Y-47653D01*
X40511Y-47496D02*
X40197Y-47496D01*
X54425Y-39137D02*
X54425Y-39451D01*
X54582Y-39294D02*
X54268Y-39294D01*
X56000Y-39137D02*
X56000Y-39451D01*
X56157Y-39294D02*
X55843Y-39294D01*
X57575Y-39137D02*
X57575Y-39451D01*
X57732Y-39294D02*
X57418Y-39294D01*
X44089Y-50764D02*
X44085Y-50802D01*
X44074Y-50839D01*
X44056Y-50873D01*
X44031Y-50902D01*
X44002Y-50927D01*
X43968Y-50945D01*
X43931Y-50956D01*
X43893Y-50960D01*
X43856Y-50957D01*
X43819Y-50946D01*
X43785Y-50928D01*
X43755Y-50904D01*
X43730Y-50875D01*
X43711Y-50841D01*
X43700Y-50804D01*
X43696Y-50766D01*
X43699Y-50729D01*
X43709Y-50692D01*
X43727Y-50658D01*
X43751Y-50628D01*
X43780Y-50603D01*
X43814Y-50584D01*
X43850Y-50572D01*
X43888Y-50568D01*
X43926Y-50570D01*
X43963Y-50581D01*
X43997Y-50598D01*
X44027Y-50622D01*
X44052Y-50651D01*
X44071Y-50684D01*
X44084Y-50721D01*
X44088Y-50759D01*
X44089Y-50764D01*
X43695Y-50567D02*
X44089Y-50961D01*
X44089Y-50567D02*
X43695Y-50961D01*
X48105Y-50764D02*
X48101Y-50802D01*
X48090Y-50839D01*
X48072Y-50873D01*
X48047Y-50902D01*
X48018Y-50927D01*
X47984Y-50945D01*
X47947Y-50956D01*
X47909Y-50960D01*
X47872Y-50957D01*
X47835Y-50946D01*
X47801Y-50928D01*
X47771Y-50904D01*
X47746Y-50875D01*
X47727Y-50841D01*
X47716Y-50804D01*
X47712Y-50766D01*
X47715Y-50729D01*
X47725Y-50692D01*
X47743Y-50658D01*
X47767Y-50628D01*
X47796Y-50603D01*
X47830Y-50584D01*
X47866Y-50572D01*
X47904Y-50568D01*
X47942Y-50570D01*
X47979Y-50581D01*
X48013Y-50598D01*
X48043Y-50622D01*
X48068Y-50651D01*
X48087Y-50684D01*
X48100Y-50721D01*
X48104Y-50759D01*
X48105Y-50764D01*
X47711Y-50567D02*
X48105Y-50961D01*
X48105Y-50567D02*
X47711Y-50961D01*
X48436Y-27700D02*
X48431Y-27745D01*
X48418Y-27789D01*
X48396Y-27830D01*
X48367Y-27866D01*
X48331Y-27895D01*
X48291Y-27917D01*
X48247Y-27931D01*
X48201Y-27935D01*
X48156Y-27931D01*
X48112Y-27918D01*
X48071Y-27897D01*
X48035Y-27868D01*
X48006Y-27833D01*
X47984Y-27792D01*
X47970Y-27749D01*
X47965Y-27703D01*
X47968Y-27658D01*
X47981Y-27614D01*
X48002Y-27573D01*
X48031Y-27537D01*
X48066Y-27507D01*
X48106Y-27484D01*
X48150Y-27470D01*
X48196Y-27465D01*
X48240Y-27468D01*
X48285Y-27480D01*
X48326Y-27501D01*
X48362Y-27530D01*
X48392Y-27564D01*
X48415Y-27605D01*
X48430Y-27648D01*
X48435Y-27694D01*
X48436Y-27700D01*
X47964Y-27700D02*
X48436Y-27700D01*
X49436Y-27700D02*
X49431Y-27745D01*
X49418Y-27789D01*
X49396Y-27830D01*
X49367Y-27866D01*
X49331Y-27895D01*
X49291Y-27917D01*
X49247Y-27931D01*
X49201Y-27935D01*
X49156Y-27931D01*
X49112Y-27918D01*
X49071Y-27897D01*
X49035Y-27868D01*
X49006Y-27833D01*
X48984Y-27792D01*
X48970Y-27749D01*
X48965Y-27703D01*
X48968Y-27658D01*
X48981Y-27614D01*
X49002Y-27573D01*
X49031Y-27537D01*
X49066Y-27507D01*
X49106Y-27484D01*
X49150Y-27470D01*
X49196Y-27465D01*
X49240Y-27468D01*
X49285Y-27480D01*
X49326Y-27501D01*
X49362Y-27530D01*
X49392Y-27564D01*
X49415Y-27605D01*
X49430Y-27648D01*
X49435Y-27694D01*
X49436Y-27700D01*
X48964Y-27700D02*
X49436Y-27700D01*
X50436Y-27700D02*
X50431Y-27745D01*
X50418Y-27789D01*
X50396Y-27830D01*
X50367Y-27866D01*
X50331Y-27895D01*
X50291Y-27917D01*
X50247Y-27931D01*
X50201Y-27935D01*
X50156Y-27931D01*
X50112Y-27918D01*
X50071Y-27897D01*
X50035Y-27868D01*
X50006Y-27833D01*
X49984Y-27792D01*
X49970Y-27749D01*
X49965Y-27703D01*
X49968Y-27658D01*
X49981Y-27614D01*
X50002Y-27573D01*
X50031Y-27537D01*
X50066Y-27507D01*
X50106Y-27484D01*
X50150Y-27470D01*
X50196Y-27465D01*
X50240Y-27468D01*
X50285Y-27480D01*
X50326Y-27501D01*
X50362Y-27530D01*
X50392Y-27564D01*
X50415Y-27605D01*
X50430Y-27648D01*
X50435Y-27694D01*
X50436Y-27700D01*
X49964Y-27700D02*
X50436Y-27700D01*
X64136Y-27700D02*
X64131Y-27745D01*
X64118Y-27789D01*
X64096Y-27830D01*
X64067Y-27866D01*
X64031Y-27895D01*
X63991Y-27917D01*
X63947Y-27931D01*
X63901Y-27935D01*
X63856Y-27931D01*
X63812Y-27918D01*
X63771Y-27897D01*
X63735Y-27868D01*
X63706Y-27833D01*
X63684Y-27792D01*
X63670Y-27749D01*
X63665Y-27703D01*
X63668Y-27658D01*
X63681Y-27614D01*
X63702Y-27573D01*
X63731Y-27537D01*
X63766Y-27507D01*
X63806Y-27484D01*
X63850Y-27470D01*
X63896Y-27465D01*
X63940Y-27468D01*
X63985Y-27480D01*
X64026Y-27501D01*
X64062Y-27530D01*
X64092Y-27564D01*
X64115Y-27605D01*
X64130Y-27648D01*
X64135Y-27694D01*
X64136Y-27700D01*
X63664Y-27700D02*
X64136Y-27700D01*
X64336Y-30504D02*
X64331Y-30549D01*
X64318Y-30593D01*
X64296Y-30634D01*
X64267Y-30670D01*
X64231Y-30699D01*
X64191Y-30721D01*
X64147Y-30735D01*
X64101Y-30739D01*
X64056Y-30735D01*
X64012Y-30722D01*
X63971Y-30701D01*
X63935Y-30672D01*
X63906Y-30637D01*
X63884Y-30596D01*
X63870Y-30553D01*
X63865Y-30507D01*
X63868Y-30462D01*
X63881Y-30418D01*
X63902Y-30377D01*
X63931Y-30341D01*
X63966Y-30311D01*
X64006Y-30288D01*
X64050Y-30274D01*
X64096Y-30269D01*
X64140Y-30272D01*
X64185Y-30284D01*
X64226Y-30305D01*
X64262Y-30334D01*
X64292Y-30368D01*
X64315Y-30409D01*
X64330Y-30452D01*
X64335Y-30498D01*
X64336Y-30504D01*
X63864Y-30504D02*
X64336Y-30504D01*
X64336Y-43496D02*
X64331Y-43541D01*
X64318Y-43585D01*
X64296Y-43626D01*
X64267Y-43662D01*
X64231Y-43691D01*
X64191Y-43713D01*
X64147Y-43727D01*
X64101Y-43731D01*
X64056Y-43727D01*
X64012Y-43714D01*
X63971Y-43693D01*
X63935Y-43664D01*
X63906Y-43629D01*
X63884Y-43588D01*
X63870Y-43545D01*
X63865Y-43499D01*
X63868Y-43454D01*
X63881Y-43410D01*
X63902Y-43369D01*
X63931Y-43333D01*
X63966Y-43303D01*
X64006Y-43280D01*
X64050Y-43266D01*
X64096Y-43261D01*
X64140Y-43264D01*
X64185Y-43276D01*
X64226Y-43297D01*
X64262Y-43326D01*
X64292Y-43360D01*
X64315Y-43401D01*
X64330Y-43444D01*
X64335Y-43490D01*
X64336Y-43496D01*
X63864Y-43496D02*
X64336Y-43496D01*
X65136Y-27700D02*
X65131Y-27745D01*
X65118Y-27789D01*
X65096Y-27830D01*
X65067Y-27866D01*
X65031Y-27895D01*
X64991Y-27917D01*
X64947Y-27931D01*
X64901Y-27935D01*
X64856Y-27931D01*
X64812Y-27918D01*
X64771Y-27897D01*
X64735Y-27868D01*
X64706Y-27833D01*
X64684Y-27792D01*
X64670Y-27749D01*
X64665Y-27703D01*
X64668Y-27658D01*
X64681Y-27614D01*
X64702Y-27573D01*
X64731Y-27537D01*
X64766Y-27507D01*
X64806Y-27484D01*
X64850Y-27470D01*
X64896Y-27465D01*
X64940Y-27468D01*
X64985Y-27480D01*
X65026Y-27501D01*
X65062Y-27530D01*
X65092Y-27564D01*
X65115Y-27605D01*
X65130Y-27648D01*
X65135Y-27694D01*
X65136Y-27700D01*
X64664Y-27700D02*
X65136Y-27700D01*
X66136Y-27700D02*
X66131Y-27745D01*
X66118Y-27789D01*
X66096Y-27830D01*
X66067Y-27866D01*
X66031Y-27895D01*
X65991Y-27917D01*
X65947Y-27931D01*
X65901Y-27935D01*
X65856Y-27931D01*
X65812Y-27918D01*
X65771Y-27897D01*
X65735Y-27868D01*
X65706Y-27833D01*
X65684Y-27792D01*
X65670Y-27749D01*
X65665Y-27703D01*
X65668Y-27658D01*
X65681Y-27614D01*
X65702Y-27573D01*
X65731Y-27537D01*
X65766Y-27507D01*
X65806Y-27484D01*
X65850Y-27470D01*
X65896Y-27465D01*
X65940Y-27468D01*
X65985Y-27480D01*
X66026Y-27501D01*
X66062Y-27530D01*
X66092Y-27564D01*
X66115Y-27605D01*
X66130Y-27648D01*
X66135Y-27694D01*
X66136Y-27700D01*
X65664Y-27700D02*
X66136Y-27700D01*
X67136Y-30504D02*
X67131Y-30549D01*
X67118Y-30593D01*
X67096Y-30634D01*
X67067Y-30670D01*
X67031Y-30699D01*
X66991Y-30721D01*
X66947Y-30735D01*
X66901Y-30739D01*
X66856Y-30735D01*
X66812Y-30722D01*
X66771Y-30701D01*
X66735Y-30672D01*
X66706Y-30637D01*
X66684Y-30596D01*
X66670Y-30553D01*
X66665Y-30507D01*
X66668Y-30462D01*
X66681Y-30418D01*
X66702Y-30377D01*
X66731Y-30341D01*
X66766Y-30311D01*
X66806Y-30288D01*
X66850Y-30274D01*
X66896Y-30269D01*
X66940Y-30272D01*
X66985Y-30284D01*
X67026Y-30305D01*
X67062Y-30334D01*
X67092Y-30368D01*
X67115Y-30409D01*
X67130Y-30452D01*
X67135Y-30498D01*
X67136Y-30504D01*
X66664Y-30504D02*
X67136Y-30504D01*
X67136Y-43496D02*
X67131Y-43541D01*
X67118Y-43585D01*
X67096Y-43626D01*
X67067Y-43662D01*
X67031Y-43691D01*
X66991Y-43713D01*
X66947Y-43727D01*
X66901Y-43731D01*
X66856Y-43727D01*
X66812Y-43714D01*
X66771Y-43693D01*
X66735Y-43664D01*
X66706Y-43629D01*
X66684Y-43588D01*
X66670Y-43545D01*
X66665Y-43499D01*
X66668Y-43454D01*
X66681Y-43410D01*
X66702Y-43369D01*
X66731Y-43333D01*
X66766Y-43303D01*
X66806Y-43280D01*
X66850Y-43266D01*
X66896Y-43261D01*
X66940Y-43264D01*
X66985Y-43276D01*
X67026Y-43297D01*
X67062Y-43326D01*
X67092Y-43360D01*
X67115Y-43401D01*
X67130Y-43444D01*
X67135Y-43490D01*
X67136Y-43496D01*
X66664Y-43496D02*
X67136Y-43496D01*
X45565Y-50764D02*
X45559Y-50821D01*
X45542Y-50876D01*
X45515Y-50927D01*
X45479Y-50971D01*
X45434Y-51008D01*
X45384Y-51035D01*
X45329Y-51052D01*
X45272Y-51058D01*
X45215Y-51053D01*
X45160Y-51037D01*
X45109Y-51010D01*
X45064Y-50974D01*
X45027Y-50930D01*
X44999Y-50880D01*
X44982Y-50825D01*
X44976Y-50768D01*
X44980Y-50711D01*
X44996Y-50656D01*
X45023Y-50605D01*
X45058Y-50560D01*
X45102Y-50522D01*
X45152Y-50494D01*
X45207Y-50476D01*
X45264Y-50470D01*
X45321Y-50474D01*
X45376Y-50489D01*
X45428Y-50515D01*
X45473Y-50551D01*
X45511Y-50594D01*
X45539Y-50645D01*
X45557Y-50699D01*
X45564Y-50756D01*
X45565Y-50764D01*
X45270Y-50469D02*
X45270Y-51059D01*
X46825Y-50764D02*
X46819Y-50821D01*
X46802Y-50876D01*
X46775Y-50927D01*
X46739Y-50971D01*
X46694Y-51008D01*
X46644Y-51035D01*
X46589Y-51052D01*
X46532Y-51058D01*
X46475Y-51053D01*
X46420Y-51037D01*
X46369Y-51010D01*
X46324Y-50974D01*
X46287Y-50930D01*
X46259Y-50880D01*
X46242Y-50825D01*
X46236Y-50768D01*
X46240Y-50711D01*
X46256Y-50656D01*
X46283Y-50605D01*
X46318Y-50560D01*
X46362Y-50522D01*
X46412Y-50494D01*
X46467Y-50476D01*
X46524Y-50470D01*
X46581Y-50474D01*
X46636Y-50489D01*
X46688Y-50515D01*
X46733Y-50551D01*
X46771Y-50594D01*
X46799Y-50645D01*
X46817Y-50699D01*
X46824Y-50756D01*
X46825Y-50764D01*
X46530Y-50469D02*
X46530Y-51059D01*
X73848Y-29248D02*
X73848Y-28552D01*
X73152Y-28552D01*
X73152Y-29248D01*
X73848Y-29248D01*
X73848Y-33648D02*
X73848Y-32952D01*
X73152Y-32952D01*
X73152Y-33648D01*
X73848Y-33648D01*
X39370Y-15954D02*
X39970Y-15354D01*
X39370Y-14754D01*
X38770Y-15354D01*
X39370Y-15954D01*
X39370Y-51387D02*
X39970Y-50787D01*
X39370Y-50187D01*
X38770Y-50787D01*
X39370Y-51387D01*
X74803Y-15954D02*
X75403Y-15354D01*
X74803Y-14754D01*
X74203Y-15354D01*
X74803Y-15954D01*
X74803Y-51387D02*
X75403Y-50787D01*
X74803Y-50187D01*
X74203Y-50787D01*
X74803Y-51387D01*
X41896Y-25675D02*
X41896Y-24561D01*
X40782Y-24561D01*
X40782Y-25675D01*
X41896Y-25675D01*
X40552Y-24331D02*
X42126Y-25905D01*
X42126Y-24331D02*
X40552Y-25905D01*
X57644Y-25675D02*
X57644Y-24561D01*
X56530Y-24561D01*
X56530Y-25675D01*
X57644Y-25675D01*
X56300Y-24331D02*
X57874Y-25905D01*
X57874Y-24331D02*
X56300Y-25905D01*
X73392Y-25675D02*
X73392Y-24561D01*
X72278Y-24561D01*
X72278Y-25675D01*
X73392Y-25675D01*
X72048Y-24331D02*
X73622Y-25905D01*
X73622Y-24331D02*
X72048Y-25905D01*
X63400Y-48736D02*
X64236Y-47900D01*
X63400Y-47064D01*
X62564Y-47900D01*
X63400Y-48736D01*
X63400Y-47064D02*
X63400Y-48736D01*
X64236Y-47900D02*
X62564Y-47900D01*
X68800Y-48736D02*
X69636Y-47900D01*
X68800Y-47064D01*
X67964Y-47900D01*
X68800Y-48736D01*
X68800Y-47064D02*
X68800Y-48736D01*
X69636Y-47900D02*
X67964Y-47900D01*
X73500Y-38336D02*
X74336Y-37500D01*
X73500Y-36664D01*
X72664Y-37500D01*
X73500Y-38336D01*
X73500Y-36664D02*
X73500Y-38336D01*
X74336Y-37500D02*
X72664Y-37500D01*
X73500Y-45336D02*
X74336Y-44500D01*
X73500Y-43664D01*
X72664Y-44500D01*
X73500Y-45336D01*
X73500Y-43664D02*
X73500Y-45336D01*
X74336Y-44500D02*
X72664Y-44500D01*
X41281Y-41696D02*
X41281Y-40304D01*
X39889Y-40304D01*
X39889Y-41696D01*
X41281Y-41696D01*
X39601Y-40016D02*
X41569Y-41984D01*
X51911Y-41696D02*
X51911Y-40304D01*
X50519Y-40304D01*
X50519Y-41696D01*
X51911Y-41696D01*
X50231Y-40016D02*
X52199Y-41984D01*
X56000Y-47267D02*
X58067Y-45200D01*
X56000Y-43133D01*
X53933Y-45200D01*
X56000Y-47267D01*
X56000Y-43133D02*
X56000Y-47267D01*
G54D11*
X37248Y-54041D02*
X37248Y-53241D01*
X37439Y-53241D01*
X37553Y-53279D01*
X37629Y-53355D01*
X37668Y-53431D01*
X37706Y-53584D01*
X37706Y-53698D01*
X37668Y-53850D01*
X37629Y-53927D01*
X37553Y-54003D01*
X37439Y-54041D01*
X37248Y-54041D01*
X38048Y-54041D02*
X38048Y-53507D01*
X38048Y-53660D02*
X38087Y-53584D01*
X38125Y-53546D01*
X38201Y-53507D01*
X38277Y-53507D01*
X38543Y-54041D02*
X38543Y-53507D01*
X38543Y-53241D02*
X38505Y-53279D01*
X38543Y-53317D01*
X38582Y-53279D01*
X38543Y-53241D01*
X38543Y-53317D01*
X39039Y-54041D02*
X38963Y-54003D01*
X38924Y-53927D01*
X38924Y-53241D01*
X39458Y-54041D02*
X39382Y-54003D01*
X39343Y-53927D01*
X39343Y-53241D01*
X40372Y-54041D02*
X40372Y-53241D01*
X40639Y-53812D01*
X40906Y-53241D01*
X40906Y-54041D01*
X41629Y-54041D02*
X41629Y-53622D01*
X41591Y-53546D01*
X41515Y-53507D01*
X41363Y-53507D01*
X41286Y-53546D01*
X41629Y-54003D02*
X41553Y-54041D01*
X41363Y-54041D01*
X41286Y-54003D01*
X41248Y-53927D01*
X41248Y-53850D01*
X41286Y-53774D01*
X41363Y-53736D01*
X41553Y-53736D01*
X41629Y-53698D01*
X42010Y-53507D02*
X42010Y-54307D01*
X42010Y-53546D02*
X42087Y-53507D01*
X42239Y-53507D01*
X42315Y-53546D01*
X42353Y-53584D01*
X42391Y-53660D01*
X42391Y-53888D01*
X42353Y-53965D01*
X42315Y-54003D01*
X42239Y-54041D01*
X42087Y-54041D01*
X42010Y-54003D01*
X42734Y-53965D02*
X42773Y-54003D01*
X42734Y-54041D01*
X42696Y-54003D01*
X42734Y-53965D01*
X42734Y-54041D01*
X42734Y-53546D02*
X42773Y-53584D01*
X42734Y-53622D01*
X42696Y-53584D01*
X42734Y-53546D01*
X42734Y-53622D01*
X36658Y-55297D02*
X36858Y-55497D01*
X36858Y-55297D02*
X36658Y-55497D01*
X37401Y-54921D02*
X37477Y-54921D01*
X37553Y-54959D01*
X37591Y-54997D01*
X37629Y-55073D01*
X37668Y-55226D01*
X37668Y-55416D01*
X37629Y-55568D01*
X37591Y-55645D01*
X37553Y-55683D01*
X37477Y-55721D01*
X37401Y-55721D01*
X37325Y-55683D01*
X37287Y-55645D01*
X37248Y-55568D01*
X37210Y-55416D01*
X37210Y-55226D01*
X37248Y-55073D01*
X37287Y-54997D01*
X37325Y-54959D01*
X37401Y-54921D01*
X38010Y-55645D02*
X38049Y-55683D01*
X38010Y-55721D01*
X37972Y-55683D01*
X38010Y-55645D01*
X38010Y-55721D01*
X38544Y-54921D02*
X38620Y-54921D01*
X38696Y-54959D01*
X38734Y-54997D01*
X38772Y-55073D01*
X38811Y-55226D01*
X38811Y-55416D01*
X38772Y-55568D01*
X38734Y-55645D01*
X38696Y-55683D01*
X38620Y-55721D01*
X38544Y-55721D01*
X38468Y-55683D01*
X38430Y-55645D01*
X38391Y-55568D01*
X38353Y-55416D01*
X38353Y-55226D01*
X38391Y-55073D01*
X38430Y-54997D01*
X38468Y-54959D01*
X38544Y-54921D01*
X39115Y-54997D02*
X39153Y-54959D01*
X39230Y-54921D01*
X39420Y-54921D01*
X39496Y-54959D01*
X39534Y-54997D01*
X39573Y-55073D01*
X39573Y-55149D01*
X39534Y-55264D01*
X39077Y-55721D01*
X39573Y-55721D01*
X40068Y-54921D02*
X40144Y-54921D01*
X40220Y-54959D01*
X40258Y-54997D01*
X40296Y-55073D01*
X40335Y-55226D01*
X40335Y-55416D01*
X40296Y-55568D01*
X40258Y-55645D01*
X40220Y-55683D01*
X40144Y-55721D01*
X40068Y-55721D01*
X39992Y-55683D01*
X39954Y-55645D01*
X39915Y-55568D01*
X39877Y-55416D01*
X39877Y-55226D01*
X39915Y-55073D01*
X39954Y-54997D01*
X39992Y-54959D01*
X40068Y-54921D01*
X40639Y-54921D02*
X40639Y-55073D01*
X40944Y-54921D02*
X40944Y-55073D01*
X42469Y-54883D02*
X41783Y-55911D01*
X43498Y-54921D02*
X43574Y-54921D01*
X43650Y-54959D01*
X43688Y-54997D01*
X43726Y-55073D01*
X43765Y-55226D01*
X43765Y-55416D01*
X43726Y-55568D01*
X43688Y-55645D01*
X43650Y-55683D01*
X43574Y-55721D01*
X43498Y-55721D01*
X43422Y-55683D01*
X43384Y-55645D01*
X43345Y-55568D01*
X43307Y-55416D01*
X43307Y-55226D01*
X43345Y-55073D01*
X43384Y-54997D01*
X43422Y-54959D01*
X43498Y-54921D01*
X44107Y-55645D02*
X44146Y-55683D01*
X44107Y-55721D01*
X44069Y-55683D01*
X44107Y-55645D01*
X44107Y-55721D01*
X44869Y-54921D02*
X44488Y-54921D01*
X44450Y-55302D01*
X44488Y-55264D01*
X44565Y-55226D01*
X44755Y-55226D01*
X44831Y-55264D01*
X44869Y-55302D01*
X44908Y-55378D01*
X44908Y-55568D01*
X44869Y-55645D01*
X44831Y-55683D01*
X44755Y-55721D01*
X44565Y-55721D01*
X44488Y-55683D01*
X44450Y-55645D01*
X45670Y-55721D02*
X45212Y-55721D01*
X45441Y-55721D02*
X45441Y-54921D01*
X45365Y-55035D01*
X45289Y-55111D01*
X45212Y-55149D01*
X46012Y-55721D02*
X46012Y-55187D01*
X46012Y-55264D02*
X46051Y-55226D01*
X46127Y-55187D01*
X46241Y-55187D01*
X46317Y-55226D01*
X46355Y-55302D01*
X46355Y-55721D01*
X46355Y-55302D02*
X46393Y-55226D01*
X46470Y-55187D01*
X46584Y-55187D01*
X46660Y-55226D01*
X46698Y-55302D01*
X46698Y-55721D01*
X47079Y-55721D02*
X47079Y-55187D01*
X47079Y-55264D02*
X47118Y-55226D01*
X47194Y-55187D01*
X47308Y-55187D01*
X47384Y-55226D01*
X47422Y-55302D01*
X47422Y-55721D01*
X47422Y-55302D02*
X47460Y-55226D01*
X47537Y-55187D01*
X47651Y-55187D01*
X47727Y-55226D01*
X47765Y-55302D01*
X47765Y-55721D01*
X48985Y-56026D02*
X48947Y-55987D01*
X48871Y-55873D01*
X48833Y-55797D01*
X48795Y-55683D01*
X48756Y-55492D01*
X48756Y-55340D01*
X48795Y-55149D01*
X48833Y-55035D01*
X48871Y-54959D01*
X48947Y-54845D01*
X48985Y-54807D01*
X49404Y-55264D02*
X49328Y-55226D01*
X49289Y-55187D01*
X49251Y-55111D01*
X49251Y-55073D01*
X49289Y-54997D01*
X49328Y-54959D01*
X49404Y-54921D01*
X49556Y-54921D01*
X49632Y-54959D01*
X49670Y-54997D01*
X49709Y-55073D01*
X49709Y-55111D01*
X49670Y-55187D01*
X49632Y-55226D01*
X49556Y-55264D01*
X49404Y-55264D01*
X49328Y-55302D01*
X49289Y-55340D01*
X49251Y-55416D01*
X49251Y-55568D01*
X49289Y-55645D01*
X49328Y-55683D01*
X49404Y-55721D01*
X49556Y-55721D01*
X49632Y-55683D01*
X49670Y-55645D01*
X49709Y-55568D01*
X49709Y-55416D01*
X49670Y-55340D01*
X49632Y-55302D01*
X49556Y-55264D01*
X50661Y-55721D02*
X50661Y-54921D01*
X51004Y-55721D02*
X51004Y-55302D01*
X50966Y-55226D01*
X50890Y-55187D01*
X50776Y-55187D01*
X50700Y-55226D01*
X50661Y-55264D01*
X51500Y-55721D02*
X51424Y-55683D01*
X51385Y-55645D01*
X51347Y-55568D01*
X51347Y-55340D01*
X51385Y-55264D01*
X51424Y-55226D01*
X51500Y-55187D01*
X51614Y-55187D01*
X51690Y-55226D01*
X51728Y-55264D01*
X51766Y-55340D01*
X51766Y-55568D01*
X51728Y-55645D01*
X51690Y-55683D01*
X51614Y-55721D01*
X51500Y-55721D01*
X52224Y-55721D02*
X52148Y-55683D01*
X52109Y-55607D01*
X52109Y-54921D01*
X52833Y-55683D02*
X52757Y-55721D01*
X52605Y-55721D01*
X52528Y-55683D01*
X52490Y-55607D01*
X52490Y-55302D01*
X52528Y-55226D01*
X52605Y-55187D01*
X52757Y-55187D01*
X52833Y-55226D01*
X52871Y-55302D01*
X52871Y-55378D01*
X52490Y-55454D01*
X53176Y-55683D02*
X53253Y-55721D01*
X53405Y-55721D01*
X53481Y-55683D01*
X53519Y-55607D01*
X53519Y-55568D01*
X53481Y-55492D01*
X53405Y-55454D01*
X53291Y-55454D01*
X53214Y-55416D01*
X53176Y-55340D01*
X53176Y-55302D01*
X53214Y-55226D01*
X53291Y-55187D01*
X53405Y-55187D01*
X53481Y-55226D01*
X53786Y-56026D02*
X53824Y-55987D01*
X53901Y-55873D01*
X53939Y-55797D01*
X53977Y-55683D01*
X54015Y-55492D01*
X54015Y-55340D01*
X53977Y-55149D01*
X53939Y-55035D01*
X53901Y-54959D01*
X53824Y-54845D01*
X53786Y-54807D01*
G54D10*
X36858Y-56452D02*
X36855Y-56475D01*
X36848Y-56497D01*
X36837Y-56518D01*
X36823Y-56536D01*
X36805Y-56551D01*
X36784Y-56562D01*
X36762Y-56569D01*
X36738Y-56571D01*
X36716Y-56569D01*
X36694Y-56563D01*
X36673Y-56552D01*
X36655Y-56537D01*
X36639Y-56519D01*
X36628Y-56499D01*
X36621Y-56476D01*
X36619Y-56453D01*
X36620Y-56431D01*
X36627Y-56408D01*
X36638Y-56387D01*
X36652Y-56369D01*
X36670Y-56354D01*
X36690Y-56343D01*
X36713Y-56335D01*
X36736Y-56333D01*
X36758Y-56334D01*
X36781Y-56341D01*
X36802Y-56351D01*
X36820Y-56366D01*
X36836Y-56383D01*
X36847Y-56404D01*
X36855Y-56426D01*
X36857Y-56449D01*
X36858Y-56452D01*
G54D11*
X37401Y-55976D02*
X37477Y-55976D01*
X37553Y-56014D01*
X37591Y-56052D01*
X37629Y-56128D01*
X37668Y-56281D01*
X37668Y-56471D01*
X37629Y-56623D01*
X37591Y-56700D01*
X37553Y-56738D01*
X37477Y-56776D01*
X37401Y-56776D01*
X37325Y-56738D01*
X37287Y-56700D01*
X37248Y-56623D01*
X37210Y-56471D01*
X37210Y-56281D01*
X37248Y-56128D01*
X37287Y-56052D01*
X37325Y-56014D01*
X37401Y-55976D01*
X38010Y-56700D02*
X38049Y-56738D01*
X38010Y-56776D01*
X37972Y-56738D01*
X38010Y-56700D01*
X38010Y-56776D01*
X38544Y-55976D02*
X38620Y-55976D01*
X38696Y-56014D01*
X38734Y-56052D01*
X38772Y-56128D01*
X38811Y-56281D01*
X38811Y-56471D01*
X38772Y-56623D01*
X38734Y-56700D01*
X38696Y-56738D01*
X38620Y-56776D01*
X38544Y-56776D01*
X38468Y-56738D01*
X38430Y-56700D01*
X38391Y-56623D01*
X38353Y-56471D01*
X38353Y-56281D01*
X38391Y-56128D01*
X38430Y-56052D01*
X38468Y-56014D01*
X38544Y-55976D01*
X39115Y-56052D02*
X39153Y-56014D01*
X39230Y-55976D01*
X39420Y-55976D01*
X39496Y-56014D01*
X39534Y-56052D01*
X39573Y-56128D01*
X39573Y-56204D01*
X39534Y-56319D01*
X39077Y-56776D01*
X39573Y-56776D01*
X40258Y-56242D02*
X40258Y-56776D01*
X40068Y-55938D02*
X39877Y-56509D01*
X40373Y-56509D01*
X40639Y-55976D02*
X40639Y-56128D01*
X40944Y-55976D02*
X40944Y-56128D01*
X42469Y-55938D02*
X41783Y-56966D01*
X43498Y-55976D02*
X43574Y-55976D01*
X43650Y-56014D01*
X43688Y-56052D01*
X43726Y-56128D01*
X43765Y-56281D01*
X43765Y-56471D01*
X43726Y-56623D01*
X43688Y-56700D01*
X43650Y-56738D01*
X43574Y-56776D01*
X43498Y-56776D01*
X43422Y-56738D01*
X43384Y-56700D01*
X43345Y-56623D01*
X43307Y-56471D01*
X43307Y-56281D01*
X43345Y-56128D01*
X43384Y-56052D01*
X43422Y-56014D01*
X43498Y-55976D01*
X44107Y-56700D02*
X44146Y-56738D01*
X44107Y-56776D01*
X44069Y-56738D01*
X44107Y-56700D01*
X44107Y-56776D01*
X44831Y-55976D02*
X44679Y-55976D01*
X44603Y-56014D01*
X44565Y-56052D01*
X44488Y-56166D01*
X44450Y-56319D01*
X44450Y-56623D01*
X44488Y-56700D01*
X44527Y-56738D01*
X44603Y-56776D01*
X44755Y-56776D01*
X44831Y-56738D01*
X44869Y-56700D01*
X44908Y-56623D01*
X44908Y-56433D01*
X44869Y-56357D01*
X44831Y-56319D01*
X44755Y-56281D01*
X44603Y-56281D01*
X44527Y-56319D01*
X44488Y-56357D01*
X44450Y-56433D01*
X45670Y-56776D02*
X45212Y-56776D01*
X45441Y-56776D02*
X45441Y-55976D01*
X45365Y-56090D01*
X45289Y-56166D01*
X45212Y-56204D01*
X46012Y-56776D02*
X46012Y-56242D01*
X46012Y-56319D02*
X46051Y-56281D01*
X46127Y-56242D01*
X46241Y-56242D01*
X46317Y-56281D01*
X46355Y-56357D01*
X46355Y-56776D01*
X46355Y-56357D02*
X46393Y-56281D01*
X46470Y-56242D01*
X46584Y-56242D01*
X46660Y-56281D01*
X46698Y-56357D01*
X46698Y-56776D01*
X47079Y-56776D02*
X47079Y-56242D01*
X47079Y-56319D02*
X47118Y-56281D01*
X47194Y-56242D01*
X47308Y-56242D01*
X47384Y-56281D01*
X47422Y-56357D01*
X47422Y-56776D01*
X47422Y-56357D02*
X47460Y-56281D01*
X47537Y-56242D01*
X47651Y-56242D01*
X47727Y-56281D01*
X47765Y-56357D01*
X47765Y-56776D01*
X48985Y-57081D02*
X48947Y-57042D01*
X48871Y-56928D01*
X48833Y-56852D01*
X48795Y-56738D01*
X48756Y-56547D01*
X48756Y-56395D01*
X48795Y-56204D01*
X48833Y-56090D01*
X48871Y-56014D01*
X48947Y-55900D01*
X48985Y-55862D01*
X49213Y-55976D02*
X49709Y-55976D01*
X49442Y-56281D01*
X49556Y-56281D01*
X49632Y-56319D01*
X49670Y-56357D01*
X49709Y-56433D01*
X49709Y-56623D01*
X49670Y-56700D01*
X49632Y-56738D01*
X49556Y-56776D01*
X49328Y-56776D01*
X49251Y-56738D01*
X49213Y-56700D01*
X50661Y-56776D02*
X50661Y-55976D01*
X51004Y-56776D02*
X51004Y-56357D01*
X50966Y-56281D01*
X50890Y-56242D01*
X50776Y-56242D01*
X50700Y-56281D01*
X50661Y-56319D01*
X51500Y-56776D02*
X51424Y-56738D01*
X51385Y-56700D01*
X51347Y-56623D01*
X51347Y-56395D01*
X51385Y-56319D01*
X51424Y-56281D01*
X51500Y-56242D01*
X51614Y-56242D01*
X51690Y-56281D01*
X51728Y-56319D01*
X51766Y-56395D01*
X51766Y-56623D01*
X51728Y-56700D01*
X51690Y-56738D01*
X51614Y-56776D01*
X51500Y-56776D01*
X52224Y-56776D02*
X52148Y-56738D01*
X52109Y-56662D01*
X52109Y-55976D01*
X52833Y-56738D02*
X52757Y-56776D01*
X52605Y-56776D01*
X52528Y-56738D01*
X52490Y-56662D01*
X52490Y-56357D01*
X52528Y-56281D01*
X52605Y-56242D01*
X52757Y-56242D01*
X52833Y-56281D01*
X52871Y-56357D01*
X52871Y-56433D01*
X52490Y-56509D01*
X53176Y-56738D02*
X53253Y-56776D01*
X53405Y-56776D01*
X53481Y-56738D01*
X53519Y-56662D01*
X53519Y-56623D01*
X53481Y-56547D01*
X53405Y-56509D01*
X53291Y-56509D01*
X53214Y-56471D01*
X53176Y-56395D01*
X53176Y-56357D01*
X53214Y-56281D01*
X53291Y-56242D01*
X53405Y-56242D01*
X53481Y-56281D01*
X53786Y-57081D02*
X53824Y-57042D01*
X53901Y-56928D01*
X53939Y-56852D01*
X53977Y-56738D01*
X54015Y-56547D01*
X54015Y-56395D01*
X53977Y-56204D01*
X53939Y-56090D01*
X53901Y-56014D01*
X53824Y-55900D01*
X53786Y-55862D01*
X36700Y-57350D02*
X36700Y-57664D01*
X36857Y-57507D02*
X36543Y-57507D01*
X37401Y-57031D02*
X37477Y-57031D01*
X37553Y-57069D01*
X37591Y-57107D01*
X37629Y-57183D01*
X37668Y-57336D01*
X37668Y-57526D01*
X37629Y-57678D01*
X37591Y-57755D01*
X37553Y-57793D01*
X37477Y-57831D01*
X37401Y-57831D01*
X37325Y-57793D01*
X37287Y-57755D01*
X37248Y-57678D01*
X37210Y-57526D01*
X37210Y-57336D01*
X37248Y-57183D01*
X37287Y-57107D01*
X37325Y-57069D01*
X37401Y-57031D01*
X38010Y-57755D02*
X38049Y-57793D01*
X38010Y-57831D01*
X37972Y-57793D01*
X38010Y-57755D01*
X38010Y-57831D01*
X38544Y-57031D02*
X38620Y-57031D01*
X38696Y-57069D01*
X38734Y-57107D01*
X38772Y-57183D01*
X38811Y-57336D01*
X38811Y-57526D01*
X38772Y-57678D01*
X38734Y-57755D01*
X38696Y-57793D01*
X38620Y-57831D01*
X38544Y-57831D01*
X38468Y-57793D01*
X38430Y-57755D01*
X38391Y-57678D01*
X38353Y-57526D01*
X38353Y-57336D01*
X38391Y-57183D01*
X38430Y-57107D01*
X38468Y-57069D01*
X38544Y-57031D01*
X39077Y-57031D02*
X39573Y-57031D01*
X39306Y-57336D01*
X39420Y-57336D01*
X39496Y-57374D01*
X39534Y-57412D01*
X39573Y-57488D01*
X39573Y-57678D01*
X39534Y-57755D01*
X39496Y-57793D01*
X39420Y-57831D01*
X39192Y-57831D01*
X39115Y-57793D01*
X39077Y-57755D01*
X39877Y-57107D02*
X39915Y-57069D01*
X39992Y-57031D01*
X40182Y-57031D01*
X40258Y-57069D01*
X40296Y-57107D01*
X40335Y-57183D01*
X40335Y-57259D01*
X40296Y-57374D01*
X39839Y-57831D01*
X40335Y-57831D01*
X40639Y-57031D02*
X40639Y-57183D01*
X40944Y-57031D02*
X40944Y-57183D01*
X42469Y-56993D02*
X41783Y-58021D01*
X43498Y-57031D02*
X43574Y-57031D01*
X43650Y-57069D01*
X43688Y-57107D01*
X43726Y-57183D01*
X43765Y-57336D01*
X43765Y-57526D01*
X43726Y-57678D01*
X43688Y-57755D01*
X43650Y-57793D01*
X43574Y-57831D01*
X43498Y-57831D01*
X43422Y-57793D01*
X43384Y-57755D01*
X43345Y-57678D01*
X43307Y-57526D01*
X43307Y-57336D01*
X43345Y-57183D01*
X43384Y-57107D01*
X43422Y-57069D01*
X43498Y-57031D01*
X44107Y-57755D02*
X44146Y-57793D01*
X44107Y-57831D01*
X44069Y-57793D01*
X44107Y-57755D01*
X44107Y-57831D01*
X44603Y-57374D02*
X44527Y-57336D01*
X44488Y-57297D01*
X44450Y-57221D01*
X44450Y-57183D01*
X44488Y-57107D01*
X44527Y-57069D01*
X44603Y-57031D01*
X44755Y-57031D01*
X44831Y-57069D01*
X44869Y-57107D01*
X44908Y-57183D01*
X44908Y-57221D01*
X44869Y-57297D01*
X44831Y-57336D01*
X44755Y-57374D01*
X44603Y-57374D01*
X44527Y-57412D01*
X44488Y-57450D01*
X44450Y-57526D01*
X44450Y-57678D01*
X44488Y-57755D01*
X44527Y-57793D01*
X44603Y-57831D01*
X44755Y-57831D01*
X44831Y-57793D01*
X44869Y-57755D01*
X44908Y-57678D01*
X44908Y-57526D01*
X44869Y-57450D01*
X44831Y-57412D01*
X44755Y-57374D01*
X45403Y-57031D02*
X45479Y-57031D01*
X45555Y-57069D01*
X45593Y-57107D01*
X45631Y-57183D01*
X45670Y-57336D01*
X45670Y-57526D01*
X45631Y-57678D01*
X45593Y-57755D01*
X45555Y-57793D01*
X45479Y-57831D01*
X45403Y-57831D01*
X45327Y-57793D01*
X45289Y-57755D01*
X45250Y-57678D01*
X45212Y-57526D01*
X45212Y-57336D01*
X45250Y-57183D01*
X45289Y-57107D01*
X45327Y-57069D01*
X45403Y-57031D01*
X46012Y-57831D02*
X46012Y-57297D01*
X46012Y-57374D02*
X46051Y-57336D01*
X46127Y-57297D01*
X46241Y-57297D01*
X46317Y-57336D01*
X46355Y-57412D01*
X46355Y-57831D01*
X46355Y-57412D02*
X46393Y-57336D01*
X46470Y-57297D01*
X46584Y-57297D01*
X46660Y-57336D01*
X46698Y-57412D01*
X46698Y-57831D01*
X47079Y-57831D02*
X47079Y-57297D01*
X47079Y-57374D02*
X47118Y-57336D01*
X47194Y-57297D01*
X47308Y-57297D01*
X47384Y-57336D01*
X47422Y-57412D01*
X47422Y-57831D01*
X47422Y-57412D02*
X47460Y-57336D01*
X47537Y-57297D01*
X47651Y-57297D01*
X47727Y-57336D01*
X47765Y-57412D01*
X47765Y-57831D01*
X48985Y-58136D02*
X48947Y-58097D01*
X48871Y-57983D01*
X48833Y-57907D01*
X48795Y-57793D01*
X48756Y-57602D01*
X48756Y-57450D01*
X48795Y-57259D01*
X48833Y-57145D01*
X48871Y-57069D01*
X48947Y-56955D01*
X48985Y-56917D01*
X49632Y-57031D02*
X49480Y-57031D01*
X49404Y-57069D01*
X49366Y-57107D01*
X49289Y-57221D01*
X49251Y-57374D01*
X49251Y-57678D01*
X49289Y-57755D01*
X49328Y-57793D01*
X49404Y-57831D01*
X49556Y-57831D01*
X49632Y-57793D01*
X49670Y-57755D01*
X49709Y-57678D01*
X49709Y-57488D01*
X49670Y-57412D01*
X49632Y-57374D01*
X49556Y-57336D01*
X49404Y-57336D01*
X49328Y-57374D01*
X49289Y-57412D01*
X49251Y-57488D01*
X50661Y-57831D02*
X50661Y-57031D01*
X51004Y-57831D02*
X51004Y-57412D01*
X50966Y-57336D01*
X50890Y-57297D01*
X50776Y-57297D01*
X50700Y-57336D01*
X50661Y-57374D01*
X51500Y-57831D02*
X51424Y-57793D01*
X51385Y-57755D01*
X51347Y-57678D01*
X51347Y-57450D01*
X51385Y-57374D01*
X51424Y-57336D01*
X51500Y-57297D01*
X51614Y-57297D01*
X51690Y-57336D01*
X51728Y-57374D01*
X51766Y-57450D01*
X51766Y-57678D01*
X51728Y-57755D01*
X51690Y-57793D01*
X51614Y-57831D01*
X51500Y-57831D01*
X52224Y-57831D02*
X52148Y-57793D01*
X52109Y-57717D01*
X52109Y-57031D01*
X52833Y-57793D02*
X52757Y-57831D01*
X52605Y-57831D01*
X52528Y-57793D01*
X52490Y-57717D01*
X52490Y-57412D01*
X52528Y-57336D01*
X52605Y-57297D01*
X52757Y-57297D01*
X52833Y-57336D01*
X52871Y-57412D01*
X52871Y-57488D01*
X52490Y-57564D01*
X53176Y-57793D02*
X53253Y-57831D01*
X53405Y-57831D01*
X53481Y-57793D01*
X53519Y-57717D01*
X53519Y-57678D01*
X53481Y-57602D01*
X53405Y-57564D01*
X53291Y-57564D01*
X53214Y-57526D01*
X53176Y-57450D01*
X53176Y-57412D01*
X53214Y-57336D01*
X53291Y-57297D01*
X53405Y-57297D01*
X53481Y-57336D01*
X53786Y-58136D02*
X53824Y-58097D01*
X53901Y-57983D01*
X53939Y-57907D01*
X53977Y-57793D01*
X54015Y-57602D01*
X54015Y-57450D01*
X53977Y-57259D01*
X53939Y-57145D01*
X53901Y-57069D01*
X53824Y-56955D01*
X53786Y-56917D01*
G54D10*
X36858Y-58562D02*
X36854Y-58600D01*
X36843Y-58637D01*
X36825Y-58671D01*
X36800Y-58700D01*
X36771Y-58725D01*
X36737Y-58743D01*
X36700Y-58754D01*
X36662Y-58758D01*
X36625Y-58755D01*
X36588Y-58744D01*
X36554Y-58726D01*
X36524Y-58702D01*
X36499Y-58673D01*
X36480Y-58639D01*
X36469Y-58602D01*
X36465Y-58564D01*
X36468Y-58527D01*
X36478Y-58490D01*
X36496Y-58456D01*
X36520Y-58426D01*
X36549Y-58401D01*
X36583Y-58382D01*
X36619Y-58370D01*
X36657Y-58366D01*
X36695Y-58368D01*
X36732Y-58379D01*
X36766Y-58396D01*
X36796Y-58420D01*
X36821Y-58449D01*
X36840Y-58482D01*
X36853Y-58519D01*
X36857Y-58557D01*
X36858Y-58562D01*
X36464Y-58365D02*
X36858Y-58759D01*
X36858Y-58365D02*
X36464Y-58759D01*
G54D11*
X37401Y-58086D02*
X37477Y-58086D01*
X37553Y-58124D01*
X37591Y-58162D01*
X37629Y-58238D01*
X37668Y-58391D01*
X37668Y-58581D01*
X37629Y-58733D01*
X37591Y-58810D01*
X37553Y-58848D01*
X37477Y-58886D01*
X37401Y-58886D01*
X37325Y-58848D01*
X37287Y-58810D01*
X37248Y-58733D01*
X37210Y-58581D01*
X37210Y-58391D01*
X37248Y-58238D01*
X37287Y-58162D01*
X37325Y-58124D01*
X37401Y-58086D01*
X38010Y-58810D02*
X38049Y-58848D01*
X38010Y-58886D01*
X37972Y-58848D01*
X38010Y-58810D01*
X38010Y-58886D01*
X38544Y-58086D02*
X38620Y-58086D01*
X38696Y-58124D01*
X38734Y-58162D01*
X38772Y-58238D01*
X38811Y-58391D01*
X38811Y-58581D01*
X38772Y-58733D01*
X38734Y-58810D01*
X38696Y-58848D01*
X38620Y-58886D01*
X38544Y-58886D01*
X38468Y-58848D01*
X38430Y-58810D01*
X38391Y-58733D01*
X38353Y-58581D01*
X38353Y-58391D01*
X38391Y-58238D01*
X38430Y-58162D01*
X38468Y-58124D01*
X38544Y-58086D01*
X39077Y-58086D02*
X39573Y-58086D01*
X39306Y-58391D01*
X39420Y-58391D01*
X39496Y-58429D01*
X39534Y-58467D01*
X39573Y-58543D01*
X39573Y-58733D01*
X39534Y-58810D01*
X39496Y-58848D01*
X39420Y-58886D01*
X39192Y-58886D01*
X39115Y-58848D01*
X39077Y-58810D01*
X39954Y-58886D02*
X40106Y-58886D01*
X40182Y-58848D01*
X40220Y-58810D01*
X40296Y-58695D01*
X40335Y-58543D01*
X40335Y-58238D01*
X40296Y-58162D01*
X40258Y-58124D01*
X40182Y-58086D01*
X40030Y-58086D01*
X39954Y-58124D01*
X39915Y-58162D01*
X39877Y-58238D01*
X39877Y-58429D01*
X39915Y-58505D01*
X39954Y-58543D01*
X40030Y-58581D01*
X40182Y-58581D01*
X40258Y-58543D01*
X40296Y-58505D01*
X40335Y-58429D01*
X40639Y-58086D02*
X40639Y-58238D01*
X40944Y-58086D02*
X40944Y-58238D01*
X42469Y-58048D02*
X41783Y-59076D01*
X43765Y-58886D02*
X43307Y-58886D01*
X43536Y-58886D02*
X43536Y-58086D01*
X43460Y-58200D01*
X43384Y-58276D01*
X43307Y-58314D01*
X44107Y-58810D02*
X44146Y-58848D01*
X44107Y-58886D01*
X44069Y-58848D01*
X44107Y-58810D01*
X44107Y-58886D01*
X44641Y-58086D02*
X44717Y-58086D01*
X44793Y-58124D01*
X44831Y-58162D01*
X44869Y-58238D01*
X44908Y-58391D01*
X44908Y-58581D01*
X44869Y-58733D01*
X44831Y-58810D01*
X44793Y-58848D01*
X44717Y-58886D01*
X44641Y-58886D01*
X44565Y-58848D01*
X44527Y-58810D01*
X44488Y-58733D01*
X44450Y-58581D01*
X44450Y-58391D01*
X44488Y-58238D01*
X44527Y-58162D01*
X44565Y-58124D01*
X44641Y-58086D01*
X45403Y-58086D02*
X45479Y-58086D01*
X45555Y-58124D01*
X45593Y-58162D01*
X45631Y-58238D01*
X45670Y-58391D01*
X45670Y-58581D01*
X45631Y-58733D01*
X45593Y-58810D01*
X45555Y-58848D01*
X45479Y-58886D01*
X45403Y-58886D01*
X45327Y-58848D01*
X45289Y-58810D01*
X45250Y-58733D01*
X45212Y-58581D01*
X45212Y-58391D01*
X45250Y-58238D01*
X45289Y-58162D01*
X45327Y-58124D01*
X45403Y-58086D01*
X46012Y-58886D02*
X46012Y-58352D01*
X46012Y-58429D02*
X46051Y-58391D01*
X46127Y-58352D01*
X46241Y-58352D01*
X46317Y-58391D01*
X46355Y-58467D01*
X46355Y-58886D01*
X46355Y-58467D02*
X46393Y-58391D01*
X46470Y-58352D01*
X46584Y-58352D01*
X46660Y-58391D01*
X46698Y-58467D01*
X46698Y-58886D01*
X47079Y-58886D02*
X47079Y-58352D01*
X47079Y-58429D02*
X47118Y-58391D01*
X47194Y-58352D01*
X47308Y-58352D01*
X47384Y-58391D01*
X47422Y-58467D01*
X47422Y-58886D01*
X47422Y-58467D02*
X47460Y-58391D01*
X47537Y-58352D01*
X47651Y-58352D01*
X47727Y-58391D01*
X47765Y-58467D01*
X47765Y-58886D01*
X48985Y-59191D02*
X48947Y-59152D01*
X48871Y-59038D01*
X48833Y-58962D01*
X48795Y-58848D01*
X48756Y-58657D01*
X48756Y-58505D01*
X48795Y-58314D01*
X48833Y-58200D01*
X48871Y-58124D01*
X48947Y-58010D01*
X48985Y-57972D01*
X49251Y-58162D02*
X49289Y-58124D01*
X49366Y-58086D01*
X49556Y-58086D01*
X49632Y-58124D01*
X49670Y-58162D01*
X49709Y-58238D01*
X49709Y-58314D01*
X49670Y-58429D01*
X49213Y-58886D01*
X49709Y-58886D01*
X50661Y-58886D02*
X50661Y-58086D01*
X51004Y-58886D02*
X51004Y-58467D01*
X50966Y-58391D01*
X50890Y-58352D01*
X50776Y-58352D01*
X50700Y-58391D01*
X50661Y-58429D01*
X51500Y-58886D02*
X51424Y-58848D01*
X51385Y-58810D01*
X51347Y-58733D01*
X51347Y-58505D01*
X51385Y-58429D01*
X51424Y-58391D01*
X51500Y-58352D01*
X51614Y-58352D01*
X51690Y-58391D01*
X51728Y-58429D01*
X51766Y-58505D01*
X51766Y-58733D01*
X51728Y-58810D01*
X51690Y-58848D01*
X51614Y-58886D01*
X51500Y-58886D01*
X52224Y-58886D02*
X52148Y-58848D01*
X52109Y-58772D01*
X52109Y-58086D01*
X52833Y-58848D02*
X52757Y-58886D01*
X52605Y-58886D01*
X52528Y-58848D01*
X52490Y-58772D01*
X52490Y-58467D01*
X52528Y-58391D01*
X52605Y-58352D01*
X52757Y-58352D01*
X52833Y-58391D01*
X52871Y-58467D01*
X52871Y-58543D01*
X52490Y-58619D01*
X53176Y-58848D02*
X53253Y-58886D01*
X53405Y-58886D01*
X53481Y-58848D01*
X53519Y-58772D01*
X53519Y-58733D01*
X53481Y-58657D01*
X53405Y-58619D01*
X53291Y-58619D01*
X53214Y-58581D01*
X53176Y-58505D01*
X53176Y-58467D01*
X53214Y-58391D01*
X53291Y-58352D01*
X53405Y-58352D01*
X53481Y-58391D01*
X53786Y-59191D02*
X53824Y-59152D01*
X53901Y-59038D01*
X53939Y-58962D01*
X53977Y-58848D01*
X54015Y-58657D01*
X54015Y-58505D01*
X53977Y-58314D01*
X53939Y-58200D01*
X53901Y-58124D01*
X53824Y-58010D01*
X53786Y-57972D01*
G54D10*
X36858Y-59617D02*
X36853Y-59662D01*
X36840Y-59706D01*
X36818Y-59747D01*
X36789Y-59783D01*
X36753Y-59812D01*
X36713Y-59834D01*
X36669Y-59848D01*
X36623Y-59852D01*
X36578Y-59848D01*
X36534Y-59835D01*
X36493Y-59814D01*
X36457Y-59785D01*
X36428Y-59750D01*
X36406Y-59709D01*
X36392Y-59666D01*
X36387Y-59620D01*
X36390Y-59575D01*
X36403Y-59531D01*
X36424Y-59490D01*
X36453Y-59454D01*
X36488Y-59424D01*
X36528Y-59401D01*
X36572Y-59387D01*
X36618Y-59382D01*
X36662Y-59385D01*
X36707Y-59397D01*
X36748Y-59418D01*
X36784Y-59447D01*
X36814Y-59481D01*
X36837Y-59522D01*
X36852Y-59565D01*
X36857Y-59611D01*
X36858Y-59617D01*
X36386Y-59617D02*
X36858Y-59617D01*
G54D11*
X37401Y-59141D02*
X37477Y-59141D01*
X37553Y-59179D01*
X37591Y-59217D01*
X37629Y-59293D01*
X37668Y-59446D01*
X37668Y-59636D01*
X37629Y-59788D01*
X37591Y-59865D01*
X37553Y-59903D01*
X37477Y-59941D01*
X37401Y-59941D01*
X37325Y-59903D01*
X37287Y-59865D01*
X37248Y-59788D01*
X37210Y-59636D01*
X37210Y-59446D01*
X37248Y-59293D01*
X37287Y-59217D01*
X37325Y-59179D01*
X37401Y-59141D01*
X38010Y-59865D02*
X38049Y-59903D01*
X38010Y-59941D01*
X37972Y-59903D01*
X38010Y-59865D01*
X38010Y-59941D01*
X38544Y-59141D02*
X38620Y-59141D01*
X38696Y-59179D01*
X38734Y-59217D01*
X38772Y-59293D01*
X38811Y-59446D01*
X38811Y-59636D01*
X38772Y-59788D01*
X38734Y-59865D01*
X38696Y-59903D01*
X38620Y-59941D01*
X38544Y-59941D01*
X38468Y-59903D01*
X38430Y-59865D01*
X38391Y-59788D01*
X38353Y-59636D01*
X38353Y-59446D01*
X38391Y-59293D01*
X38430Y-59217D01*
X38468Y-59179D01*
X38544Y-59141D01*
X39496Y-59407D02*
X39496Y-59941D01*
X39306Y-59103D02*
X39115Y-59674D01*
X39611Y-59674D01*
X39839Y-59141D02*
X40373Y-59141D01*
X40030Y-59941D01*
X40639Y-59141D02*
X40639Y-59293D01*
X40944Y-59141D02*
X40944Y-59293D01*
X42469Y-59103D02*
X41783Y-60131D01*
X43765Y-59941D02*
X43307Y-59941D01*
X43536Y-59941D02*
X43536Y-59141D01*
X43460Y-59255D01*
X43384Y-59331D01*
X43307Y-59369D01*
X44107Y-59865D02*
X44146Y-59903D01*
X44107Y-59941D01*
X44069Y-59903D01*
X44107Y-59865D01*
X44107Y-59941D01*
X44450Y-59217D02*
X44488Y-59179D01*
X44565Y-59141D01*
X44755Y-59141D01*
X44831Y-59179D01*
X44869Y-59217D01*
X44908Y-59293D01*
X44908Y-59369D01*
X44869Y-59484D01*
X44412Y-59941D01*
X44908Y-59941D01*
X45403Y-59141D02*
X45479Y-59141D01*
X45555Y-59179D01*
X45593Y-59217D01*
X45631Y-59293D01*
X45670Y-59446D01*
X45670Y-59636D01*
X45631Y-59788D01*
X45593Y-59865D01*
X45555Y-59903D01*
X45479Y-59941D01*
X45403Y-59941D01*
X45327Y-59903D01*
X45289Y-59865D01*
X45250Y-59788D01*
X45212Y-59636D01*
X45212Y-59446D01*
X45250Y-59293D01*
X45289Y-59217D01*
X45327Y-59179D01*
X45403Y-59141D01*
X46012Y-59941D02*
X46012Y-59407D01*
X46012Y-59484D02*
X46051Y-59446D01*
X46127Y-59407D01*
X46241Y-59407D01*
X46317Y-59446D01*
X46355Y-59522D01*
X46355Y-59941D01*
X46355Y-59522D02*
X46393Y-59446D01*
X46470Y-59407D01*
X46584Y-59407D01*
X46660Y-59446D01*
X46698Y-59522D01*
X46698Y-59941D01*
X47079Y-59941D02*
X47079Y-59407D01*
X47079Y-59484D02*
X47118Y-59446D01*
X47194Y-59407D01*
X47308Y-59407D01*
X47384Y-59446D01*
X47422Y-59522D01*
X47422Y-59941D01*
X47422Y-59522D02*
X47460Y-59446D01*
X47537Y-59407D01*
X47651Y-59407D01*
X47727Y-59446D01*
X47765Y-59522D01*
X47765Y-59941D01*
X48985Y-60246D02*
X48947Y-60207D01*
X48871Y-60093D01*
X48833Y-60017D01*
X48795Y-59903D01*
X48756Y-59712D01*
X48756Y-59560D01*
X48795Y-59369D01*
X48833Y-59255D01*
X48871Y-59179D01*
X48947Y-59065D01*
X48985Y-59027D01*
X49709Y-59941D02*
X49251Y-59941D01*
X49480Y-59941D02*
X49480Y-59141D01*
X49404Y-59255D01*
X49328Y-59331D01*
X49251Y-59369D01*
X50204Y-59141D02*
X50280Y-59141D01*
X50356Y-59179D01*
X50394Y-59217D01*
X50432Y-59293D01*
X50471Y-59446D01*
X50471Y-59636D01*
X50432Y-59788D01*
X50394Y-59865D01*
X50356Y-59903D01*
X50280Y-59941D01*
X50204Y-59941D01*
X50128Y-59903D01*
X50090Y-59865D01*
X50051Y-59788D01*
X50013Y-59636D01*
X50013Y-59446D01*
X50051Y-59293D01*
X50090Y-59217D01*
X50128Y-59179D01*
X50204Y-59141D01*
X51423Y-59941D02*
X51423Y-59141D01*
X51766Y-59941D02*
X51766Y-59522D01*
X51728Y-59446D01*
X51652Y-59407D01*
X51538Y-59407D01*
X51462Y-59446D01*
X51423Y-59484D01*
X52262Y-59941D02*
X52186Y-59903D01*
X52147Y-59865D01*
X52109Y-59788D01*
X52109Y-59560D01*
X52147Y-59484D01*
X52186Y-59446D01*
X52262Y-59407D01*
X52376Y-59407D01*
X52452Y-59446D01*
X52490Y-59484D01*
X52528Y-59560D01*
X52528Y-59788D01*
X52490Y-59865D01*
X52452Y-59903D01*
X52376Y-59941D01*
X52262Y-59941D01*
X52986Y-59941D02*
X52910Y-59903D01*
X52871Y-59827D01*
X52871Y-59141D01*
X53595Y-59903D02*
X53519Y-59941D01*
X53367Y-59941D01*
X53290Y-59903D01*
X53252Y-59827D01*
X53252Y-59522D01*
X53290Y-59446D01*
X53367Y-59407D01*
X53519Y-59407D01*
X53595Y-59446D01*
X53633Y-59522D01*
X53633Y-59598D01*
X53252Y-59674D01*
X53938Y-59903D02*
X54015Y-59941D01*
X54167Y-59941D01*
X54243Y-59903D01*
X54281Y-59827D01*
X54281Y-59788D01*
X54243Y-59712D01*
X54167Y-59674D01*
X54053Y-59674D01*
X53976Y-59636D01*
X53938Y-59560D01*
X53938Y-59522D01*
X53976Y-59446D01*
X54053Y-59407D01*
X54167Y-59407D01*
X54243Y-59446D01*
X54548Y-60246D02*
X54586Y-60207D01*
X54663Y-60093D01*
X54701Y-60017D01*
X54739Y-59903D01*
X54777Y-59712D01*
X54777Y-59560D01*
X54739Y-59369D01*
X54701Y-59255D01*
X54663Y-59179D01*
X54586Y-59065D01*
X54548Y-59027D01*
G54D10*
X36857Y-60672D02*
X36851Y-60729D01*
X36834Y-60784D01*
X36807Y-60835D01*
X36771Y-60879D01*
X36726Y-60916D01*
X36676Y-60943D01*
X36621Y-60960D01*
X36564Y-60966D01*
X36507Y-60961D01*
X36452Y-60945D01*
X36401Y-60918D01*
X36356Y-60882D01*
X36319Y-60838D01*
X36291Y-60788D01*
X36274Y-60733D01*
X36268Y-60676D01*
X36272Y-60619D01*
X36288Y-60564D01*
X36315Y-60513D01*
X36350Y-60468D01*
X36394Y-60430D01*
X36444Y-60402D01*
X36499Y-60384D01*
X36556Y-60378D01*
X36613Y-60382D01*
X36668Y-60397D01*
X36720Y-60423D01*
X36765Y-60459D01*
X36803Y-60502D01*
X36831Y-60553D01*
X36849Y-60607D01*
X36856Y-60664D01*
X36857Y-60672D01*
X36562Y-60377D02*
X36562Y-60967D01*
G54D11*
X37401Y-60196D02*
X37477Y-60196D01*
X37553Y-60234D01*
X37591Y-60272D01*
X37629Y-60348D01*
X37668Y-60501D01*
X37668Y-60691D01*
X37629Y-60843D01*
X37591Y-60920D01*
X37553Y-60958D01*
X37477Y-60996D01*
X37401Y-60996D01*
X37325Y-60958D01*
X37287Y-60920D01*
X37248Y-60843D01*
X37210Y-60691D01*
X37210Y-60501D01*
X37248Y-60348D01*
X37287Y-60272D01*
X37325Y-60234D01*
X37401Y-60196D01*
X38010Y-60920D02*
X38049Y-60958D01*
X38010Y-60996D01*
X37972Y-60958D01*
X38010Y-60920D01*
X38010Y-60996D01*
X38544Y-60196D02*
X38620Y-60196D01*
X38696Y-60234D01*
X38734Y-60272D01*
X38772Y-60348D01*
X38811Y-60501D01*
X38811Y-60691D01*
X38772Y-60843D01*
X38734Y-60920D01*
X38696Y-60958D01*
X38620Y-60996D01*
X38544Y-60996D01*
X38468Y-60958D01*
X38430Y-60920D01*
X38391Y-60843D01*
X38353Y-60691D01*
X38353Y-60501D01*
X38391Y-60348D01*
X38430Y-60272D01*
X38468Y-60234D01*
X38544Y-60196D01*
X39534Y-60196D02*
X39153Y-60196D01*
X39115Y-60577D01*
X39153Y-60539D01*
X39230Y-60501D01*
X39420Y-60501D01*
X39496Y-60539D01*
X39534Y-60577D01*
X39573Y-60653D01*
X39573Y-60843D01*
X39534Y-60920D01*
X39496Y-60958D01*
X39420Y-60996D01*
X39230Y-60996D01*
X39153Y-60958D01*
X39115Y-60920D01*
X39954Y-60996D02*
X40106Y-60996D01*
X40182Y-60958D01*
X40220Y-60920D01*
X40296Y-60805D01*
X40335Y-60653D01*
X40335Y-60348D01*
X40296Y-60272D01*
X40258Y-60234D01*
X40182Y-60196D01*
X40030Y-60196D01*
X39954Y-60234D01*
X39915Y-60272D01*
X39877Y-60348D01*
X39877Y-60539D01*
X39915Y-60615D01*
X39954Y-60653D01*
X40030Y-60691D01*
X40182Y-60691D01*
X40258Y-60653D01*
X40296Y-60615D01*
X40335Y-60539D01*
X40639Y-60196D02*
X40639Y-60348D01*
X40944Y-60196D02*
X40944Y-60348D01*
X42469Y-60158D02*
X41783Y-61186D01*
X43765Y-60996D02*
X43307Y-60996D01*
X43536Y-60996D02*
X43536Y-60196D01*
X43460Y-60310D01*
X43384Y-60386D01*
X43307Y-60424D01*
X44107Y-60920D02*
X44146Y-60958D01*
X44107Y-60996D01*
X44069Y-60958D01*
X44107Y-60920D01*
X44107Y-60996D01*
X44869Y-60196D02*
X44488Y-60196D01*
X44450Y-60577D01*
X44488Y-60539D01*
X44565Y-60501D01*
X44755Y-60501D01*
X44831Y-60539D01*
X44869Y-60577D01*
X44908Y-60653D01*
X44908Y-60843D01*
X44869Y-60920D01*
X44831Y-60958D01*
X44755Y-60996D01*
X44565Y-60996D01*
X44488Y-60958D01*
X44450Y-60920D01*
X45403Y-60196D02*
X45479Y-60196D01*
X45555Y-60234D01*
X45593Y-60272D01*
X45631Y-60348D01*
X45670Y-60501D01*
X45670Y-60691D01*
X45631Y-60843D01*
X45593Y-60920D01*
X45555Y-60958D01*
X45479Y-60996D01*
X45403Y-60996D01*
X45327Y-60958D01*
X45289Y-60920D01*
X45250Y-60843D01*
X45212Y-60691D01*
X45212Y-60501D01*
X45250Y-60348D01*
X45289Y-60272D01*
X45327Y-60234D01*
X45403Y-60196D01*
X46012Y-60996D02*
X46012Y-60462D01*
X46012Y-60539D02*
X46051Y-60501D01*
X46127Y-60462D01*
X46241Y-60462D01*
X46317Y-60501D01*
X46355Y-60577D01*
X46355Y-60996D01*
X46355Y-60577D02*
X46393Y-60501D01*
X46470Y-60462D01*
X46584Y-60462D01*
X46660Y-60501D01*
X46698Y-60577D01*
X46698Y-60996D01*
X47079Y-60996D02*
X47079Y-60462D01*
X47079Y-60539D02*
X47118Y-60501D01*
X47194Y-60462D01*
X47308Y-60462D01*
X47384Y-60501D01*
X47422Y-60577D01*
X47422Y-60996D01*
X47422Y-60577D02*
X47460Y-60501D01*
X47537Y-60462D01*
X47651Y-60462D01*
X47727Y-60501D01*
X47765Y-60577D01*
X47765Y-60996D01*
X48985Y-61301D02*
X48947Y-61262D01*
X48871Y-61148D01*
X48833Y-61072D01*
X48795Y-60958D01*
X48756Y-60767D01*
X48756Y-60615D01*
X48795Y-60424D01*
X48833Y-60310D01*
X48871Y-60234D01*
X48947Y-60120D01*
X48985Y-60082D01*
X49251Y-60272D02*
X49289Y-60234D01*
X49366Y-60196D01*
X49556Y-60196D01*
X49632Y-60234D01*
X49670Y-60272D01*
X49709Y-60348D01*
X49709Y-60424D01*
X49670Y-60539D01*
X49213Y-60996D01*
X49709Y-60996D01*
X50661Y-60996D02*
X50661Y-60196D01*
X51004Y-60996D02*
X51004Y-60577D01*
X50966Y-60501D01*
X50890Y-60462D01*
X50776Y-60462D01*
X50700Y-60501D01*
X50661Y-60539D01*
X51500Y-60996D02*
X51424Y-60958D01*
X51385Y-60920D01*
X51347Y-60843D01*
X51347Y-60615D01*
X51385Y-60539D01*
X51424Y-60501D01*
X51500Y-60462D01*
X51614Y-60462D01*
X51690Y-60501D01*
X51728Y-60539D01*
X51766Y-60615D01*
X51766Y-60843D01*
X51728Y-60920D01*
X51690Y-60958D01*
X51614Y-60996D01*
X51500Y-60996D01*
X52224Y-60996D02*
X52148Y-60958D01*
X52109Y-60882D01*
X52109Y-60196D01*
X52833Y-60958D02*
X52757Y-60996D01*
X52605Y-60996D01*
X52528Y-60958D01*
X52490Y-60882D01*
X52490Y-60577D01*
X52528Y-60501D01*
X52605Y-60462D01*
X52757Y-60462D01*
X52833Y-60501D01*
X52871Y-60577D01*
X52871Y-60653D01*
X52490Y-60729D01*
X53176Y-60958D02*
X53253Y-60996D01*
X53405Y-60996D01*
X53481Y-60958D01*
X53519Y-60882D01*
X53519Y-60843D01*
X53481Y-60767D01*
X53405Y-60729D01*
X53291Y-60729D01*
X53214Y-60691D01*
X53176Y-60615D01*
X53176Y-60577D01*
X53214Y-60501D01*
X53291Y-60462D01*
X53405Y-60462D01*
X53481Y-60501D01*
X53786Y-61301D02*
X53824Y-61262D01*
X53901Y-61148D01*
X53939Y-61072D01*
X53977Y-60958D01*
X54015Y-60767D01*
X54015Y-60615D01*
X53977Y-60424D01*
X53939Y-60310D01*
X53901Y-60234D01*
X53824Y-60120D01*
X53786Y-60082D01*
G54D10*
X36714Y-62075D02*
X36714Y-61379D01*
X36018Y-61379D01*
X36018Y-62075D01*
X36714Y-62075D01*
G54D11*
X37401Y-61251D02*
X37477Y-61251D01*
X37553Y-61289D01*
X37591Y-61327D01*
X37629Y-61403D01*
X37668Y-61556D01*
X37668Y-61746D01*
X37629Y-61898D01*
X37591Y-61975D01*
X37553Y-62013D01*
X37477Y-62051D01*
X37401Y-62051D01*
X37325Y-62013D01*
X37287Y-61975D01*
X37248Y-61898D01*
X37210Y-61746D01*
X37210Y-61556D01*
X37248Y-61403D01*
X37287Y-61327D01*
X37325Y-61289D01*
X37401Y-61251D01*
X38010Y-61975D02*
X38049Y-62013D01*
X38010Y-62051D01*
X37972Y-62013D01*
X38010Y-61975D01*
X38010Y-62051D01*
X38544Y-61251D02*
X38620Y-61251D01*
X38696Y-61289D01*
X38734Y-61327D01*
X38772Y-61403D01*
X38811Y-61556D01*
X38811Y-61746D01*
X38772Y-61898D01*
X38734Y-61975D01*
X38696Y-62013D01*
X38620Y-62051D01*
X38544Y-62051D01*
X38468Y-62013D01*
X38430Y-61975D01*
X38391Y-61898D01*
X38353Y-61746D01*
X38353Y-61556D01*
X38391Y-61403D01*
X38430Y-61327D01*
X38468Y-61289D01*
X38544Y-61251D01*
X39192Y-62051D02*
X39344Y-62051D01*
X39420Y-62013D01*
X39458Y-61975D01*
X39534Y-61860D01*
X39573Y-61708D01*
X39573Y-61403D01*
X39534Y-61327D01*
X39496Y-61289D01*
X39420Y-61251D01*
X39268Y-61251D01*
X39192Y-61289D01*
X39153Y-61327D01*
X39115Y-61403D01*
X39115Y-61594D01*
X39153Y-61670D01*
X39192Y-61708D01*
X39268Y-61746D01*
X39420Y-61746D01*
X39496Y-61708D01*
X39534Y-61670D01*
X39573Y-61594D01*
X40030Y-61594D02*
X39954Y-61556D01*
X39915Y-61517D01*
X39877Y-61441D01*
X39877Y-61403D01*
X39915Y-61327D01*
X39954Y-61289D01*
X40030Y-61251D01*
X40182Y-61251D01*
X40258Y-61289D01*
X40296Y-61327D01*
X40335Y-61403D01*
X40335Y-61441D01*
X40296Y-61517D01*
X40258Y-61556D01*
X40182Y-61594D01*
X40030Y-61594D01*
X39954Y-61632D01*
X39915Y-61670D01*
X39877Y-61746D01*
X39877Y-61898D01*
X39915Y-61975D01*
X39954Y-62013D01*
X40030Y-62051D01*
X40182Y-62051D01*
X40258Y-62013D01*
X40296Y-61975D01*
X40335Y-61898D01*
X40335Y-61746D01*
X40296Y-61670D01*
X40258Y-61632D01*
X40182Y-61594D01*
X40639Y-61251D02*
X40639Y-61403D01*
X40944Y-61251D02*
X40944Y-61403D01*
X42469Y-61213D02*
X41783Y-62241D01*
X43307Y-61327D02*
X43345Y-61289D01*
X43422Y-61251D01*
X43612Y-61251D01*
X43688Y-61289D01*
X43726Y-61327D01*
X43765Y-61403D01*
X43765Y-61479D01*
X43726Y-61594D01*
X43269Y-62051D01*
X43765Y-62051D01*
X44107Y-61975D02*
X44146Y-62013D01*
X44107Y-62051D01*
X44069Y-62013D01*
X44107Y-61975D01*
X44107Y-62051D01*
X44869Y-61251D02*
X44488Y-61251D01*
X44450Y-61632D01*
X44488Y-61594D01*
X44565Y-61556D01*
X44755Y-61556D01*
X44831Y-61594D01*
X44869Y-61632D01*
X44908Y-61708D01*
X44908Y-61898D01*
X44869Y-61975D01*
X44831Y-62013D01*
X44755Y-62051D01*
X44565Y-62051D01*
X44488Y-62013D01*
X44450Y-61975D01*
X45403Y-61251D02*
X45479Y-61251D01*
X45555Y-61289D01*
X45593Y-61327D01*
X45631Y-61403D01*
X45670Y-61556D01*
X45670Y-61746D01*
X45631Y-61898D01*
X45593Y-61975D01*
X45555Y-62013D01*
X45479Y-62051D01*
X45403Y-62051D01*
X45327Y-62013D01*
X45289Y-61975D01*
X45250Y-61898D01*
X45212Y-61746D01*
X45212Y-61556D01*
X45250Y-61403D01*
X45289Y-61327D01*
X45327Y-61289D01*
X45403Y-61251D01*
X46012Y-62051D02*
X46012Y-61517D01*
X46012Y-61594D02*
X46051Y-61556D01*
X46127Y-61517D01*
X46241Y-61517D01*
X46317Y-61556D01*
X46355Y-61632D01*
X46355Y-62051D01*
X46355Y-61632D02*
X46393Y-61556D01*
X46470Y-61517D01*
X46584Y-61517D01*
X46660Y-61556D01*
X46698Y-61632D01*
X46698Y-62051D01*
X47079Y-62051D02*
X47079Y-61517D01*
X47079Y-61594D02*
X47118Y-61556D01*
X47194Y-61517D01*
X47308Y-61517D01*
X47384Y-61556D01*
X47422Y-61632D01*
X47422Y-62051D01*
X47422Y-61632D02*
X47460Y-61556D01*
X47537Y-61517D01*
X47651Y-61517D01*
X47727Y-61556D01*
X47765Y-61632D01*
X47765Y-62051D01*
X48985Y-62356D02*
X48947Y-62317D01*
X48871Y-62203D01*
X48833Y-62127D01*
X48795Y-62013D01*
X48756Y-61822D01*
X48756Y-61670D01*
X48795Y-61479D01*
X48833Y-61365D01*
X48871Y-61289D01*
X48947Y-61175D01*
X48985Y-61137D01*
X49251Y-61327D02*
X49289Y-61289D01*
X49366Y-61251D01*
X49556Y-61251D01*
X49632Y-61289D01*
X49670Y-61327D01*
X49709Y-61403D01*
X49709Y-61479D01*
X49670Y-61594D01*
X49213Y-62051D01*
X49709Y-62051D01*
X50661Y-62051D02*
X50661Y-61251D01*
X51004Y-62051D02*
X51004Y-61632D01*
X50966Y-61556D01*
X50890Y-61517D01*
X50776Y-61517D01*
X50700Y-61556D01*
X50661Y-61594D01*
X51500Y-62051D02*
X51424Y-62013D01*
X51385Y-61975D01*
X51347Y-61898D01*
X51347Y-61670D01*
X51385Y-61594D01*
X51424Y-61556D01*
X51500Y-61517D01*
X51614Y-61517D01*
X51690Y-61556D01*
X51728Y-61594D01*
X51766Y-61670D01*
X51766Y-61898D01*
X51728Y-61975D01*
X51690Y-62013D01*
X51614Y-62051D01*
X51500Y-62051D01*
X52224Y-62051D02*
X52148Y-62013D01*
X52109Y-61937D01*
X52109Y-61251D01*
X52833Y-62013D02*
X52757Y-62051D01*
X52605Y-62051D01*
X52528Y-62013D01*
X52490Y-61937D01*
X52490Y-61632D01*
X52528Y-61556D01*
X52605Y-61517D01*
X52757Y-61517D01*
X52833Y-61556D01*
X52871Y-61632D01*
X52871Y-61708D01*
X52490Y-61784D01*
X53176Y-62013D02*
X53253Y-62051D01*
X53405Y-62051D01*
X53481Y-62013D01*
X53519Y-61937D01*
X53519Y-61898D01*
X53481Y-61822D01*
X53405Y-61784D01*
X53291Y-61784D01*
X53214Y-61746D01*
X53176Y-61670D01*
X53176Y-61632D01*
X53214Y-61556D01*
X53291Y-61517D01*
X53405Y-61517D01*
X53481Y-61556D01*
X53786Y-62356D02*
X53824Y-62317D01*
X53901Y-62203D01*
X53939Y-62127D01*
X53977Y-62013D01*
X54015Y-61822D01*
X54015Y-61670D01*
X53977Y-61479D01*
X53939Y-61365D01*
X53901Y-61289D01*
X53824Y-61175D01*
X53786Y-61137D01*
G54D10*
X36258Y-63591D02*
X36858Y-62991D01*
X36258Y-62391D01*
X35658Y-62991D01*
X36258Y-63591D01*
G54D11*
X37401Y-62515D02*
X37477Y-62515D01*
X37553Y-62553D01*
X37591Y-62591D01*
X37629Y-62667D01*
X37668Y-62820D01*
X37668Y-63010D01*
X37629Y-63162D01*
X37591Y-63239D01*
X37553Y-63277D01*
X37477Y-63315D01*
X37401Y-63315D01*
X37325Y-63277D01*
X37287Y-63239D01*
X37248Y-63162D01*
X37210Y-63010D01*
X37210Y-62820D01*
X37248Y-62667D01*
X37287Y-62591D01*
X37325Y-62553D01*
X37401Y-62515D01*
X38010Y-63239D02*
X38049Y-63277D01*
X38010Y-63315D01*
X37972Y-63277D01*
X38010Y-63239D01*
X38010Y-63315D01*
X38811Y-63315D02*
X38353Y-63315D01*
X38582Y-63315D02*
X38582Y-62515D01*
X38506Y-62629D01*
X38430Y-62705D01*
X38353Y-62743D01*
X39115Y-62591D02*
X39153Y-62553D01*
X39230Y-62515D01*
X39420Y-62515D01*
X39496Y-62553D01*
X39534Y-62591D01*
X39573Y-62667D01*
X39573Y-62743D01*
X39534Y-62858D01*
X39077Y-63315D01*
X39573Y-63315D01*
X40068Y-62515D02*
X40144Y-62515D01*
X40220Y-62553D01*
X40258Y-62591D01*
X40296Y-62667D01*
X40335Y-62820D01*
X40335Y-63010D01*
X40296Y-63162D01*
X40258Y-63239D01*
X40220Y-63277D01*
X40144Y-63315D01*
X40068Y-63315D01*
X39992Y-63277D01*
X39954Y-63239D01*
X39915Y-63162D01*
X39877Y-63010D01*
X39877Y-62820D01*
X39915Y-62667D01*
X39954Y-62591D01*
X39992Y-62553D01*
X40068Y-62515D01*
X40639Y-62515D02*
X40639Y-62667D01*
X40944Y-62515D02*
X40944Y-62667D01*
X42469Y-62477D02*
X41783Y-63505D01*
X43269Y-62515D02*
X43765Y-62515D01*
X43498Y-62820D01*
X43612Y-62820D01*
X43688Y-62858D01*
X43726Y-62896D01*
X43765Y-62972D01*
X43765Y-63162D01*
X43726Y-63239D01*
X43688Y-63277D01*
X43612Y-63315D01*
X43384Y-63315D01*
X43307Y-63277D01*
X43269Y-63239D01*
X44107Y-63239D02*
X44146Y-63277D01*
X44107Y-63315D01*
X44069Y-63277D01*
X44107Y-63239D01*
X44107Y-63315D01*
X44641Y-62515D02*
X44717Y-62515D01*
X44793Y-62553D01*
X44831Y-62591D01*
X44869Y-62667D01*
X44908Y-62820D01*
X44908Y-63010D01*
X44869Y-63162D01*
X44831Y-63239D01*
X44793Y-63277D01*
X44717Y-63315D01*
X44641Y-63315D01*
X44565Y-63277D01*
X44527Y-63239D01*
X44488Y-63162D01*
X44450Y-63010D01*
X44450Y-62820D01*
X44488Y-62667D01*
X44527Y-62591D01*
X44565Y-62553D01*
X44641Y-62515D01*
X45631Y-62515D02*
X45250Y-62515D01*
X45212Y-62896D01*
X45250Y-62858D01*
X45327Y-62820D01*
X45517Y-62820D01*
X45593Y-62858D01*
X45631Y-62896D01*
X45670Y-62972D01*
X45670Y-63162D01*
X45631Y-63239D01*
X45593Y-63277D01*
X45517Y-63315D01*
X45327Y-63315D01*
X45250Y-63277D01*
X45212Y-63239D01*
X46012Y-63315D02*
X46012Y-62781D01*
X46012Y-62858D02*
X46051Y-62820D01*
X46127Y-62781D01*
X46241Y-62781D01*
X46317Y-62820D01*
X46355Y-62896D01*
X46355Y-63315D01*
X46355Y-62896D02*
X46393Y-62820D01*
X46470Y-62781D01*
X46584Y-62781D01*
X46660Y-62820D01*
X46698Y-62896D01*
X46698Y-63315D01*
X47079Y-63315D02*
X47079Y-62781D01*
X47079Y-62858D02*
X47118Y-62820D01*
X47194Y-62781D01*
X47308Y-62781D01*
X47384Y-62820D01*
X47422Y-62896D01*
X47422Y-63315D01*
X47422Y-62896D02*
X47460Y-62820D01*
X47537Y-62781D01*
X47651Y-62781D01*
X47727Y-62820D01*
X47765Y-62896D01*
X47765Y-63315D01*
X48985Y-63620D02*
X48947Y-63581D01*
X48871Y-63467D01*
X48833Y-63391D01*
X48795Y-63277D01*
X48756Y-63086D01*
X48756Y-62934D01*
X48795Y-62743D01*
X48833Y-62629D01*
X48871Y-62553D01*
X48947Y-62439D01*
X48985Y-62401D01*
X49632Y-62781D02*
X49632Y-63315D01*
X49442Y-62477D02*
X49251Y-63048D01*
X49747Y-63048D01*
X50661Y-63315D02*
X50661Y-62515D01*
X51004Y-63315D02*
X51004Y-62896D01*
X50966Y-62820D01*
X50890Y-62781D01*
X50776Y-62781D01*
X50700Y-62820D01*
X50661Y-62858D01*
X51500Y-63315D02*
X51424Y-63277D01*
X51385Y-63239D01*
X51347Y-63162D01*
X51347Y-62934D01*
X51385Y-62858D01*
X51424Y-62820D01*
X51500Y-62781D01*
X51614Y-62781D01*
X51690Y-62820D01*
X51728Y-62858D01*
X51766Y-62934D01*
X51766Y-63162D01*
X51728Y-63239D01*
X51690Y-63277D01*
X51614Y-63315D01*
X51500Y-63315D01*
X52224Y-63315D02*
X52148Y-63277D01*
X52109Y-63201D01*
X52109Y-62515D01*
X52833Y-63277D02*
X52757Y-63315D01*
X52605Y-63315D01*
X52528Y-63277D01*
X52490Y-63201D01*
X52490Y-62896D01*
X52528Y-62820D01*
X52605Y-62781D01*
X52757Y-62781D01*
X52833Y-62820D01*
X52871Y-62896D01*
X52871Y-62972D01*
X52490Y-63048D01*
X53176Y-63277D02*
X53253Y-63315D01*
X53405Y-63315D01*
X53481Y-63277D01*
X53519Y-63201D01*
X53519Y-63162D01*
X53481Y-63086D01*
X53405Y-63048D01*
X53291Y-63048D01*
X53214Y-63010D01*
X53176Y-62934D01*
X53176Y-62896D01*
X53214Y-62820D01*
X53291Y-62781D01*
X53405Y-62781D01*
X53481Y-62820D01*
X53786Y-63620D02*
X53824Y-63581D01*
X53901Y-63467D01*
X53939Y-63391D01*
X53977Y-63277D01*
X54015Y-63086D01*
X54015Y-62934D01*
X53977Y-62743D01*
X53939Y-62629D01*
X53901Y-62553D01*
X53824Y-62439D01*
X53786Y-62401D01*
G54D10*
X36627Y-65028D02*
X36627Y-63914D01*
X35513Y-63914D01*
X35513Y-65028D01*
X36627Y-65028D01*
X35283Y-63684D02*
X36857Y-65258D01*
X36857Y-63684D02*
X35283Y-65258D01*
G54D11*
X37401Y-63995D02*
X37477Y-63995D01*
X37553Y-64033D01*
X37591Y-64071D01*
X37629Y-64147D01*
X37668Y-64300D01*
X37668Y-64490D01*
X37629Y-64642D01*
X37591Y-64719D01*
X37553Y-64757D01*
X37477Y-64795D01*
X37401Y-64795D01*
X37325Y-64757D01*
X37287Y-64719D01*
X37248Y-64642D01*
X37210Y-64490D01*
X37210Y-64300D01*
X37248Y-64147D01*
X37287Y-64071D01*
X37325Y-64033D01*
X37401Y-63995D01*
X38010Y-64719D02*
X38049Y-64757D01*
X38010Y-64795D01*
X37972Y-64757D01*
X38010Y-64719D01*
X38010Y-64795D01*
X38811Y-64795D02*
X38353Y-64795D01*
X38582Y-64795D02*
X38582Y-63995D01*
X38506Y-64109D01*
X38430Y-64185D01*
X38353Y-64223D01*
X39534Y-63995D02*
X39153Y-63995D01*
X39115Y-64376D01*
X39153Y-64338D01*
X39230Y-64300D01*
X39420Y-64300D01*
X39496Y-64338D01*
X39534Y-64376D01*
X39573Y-64452D01*
X39573Y-64642D01*
X39534Y-64719D01*
X39496Y-64757D01*
X39420Y-64795D01*
X39230Y-64795D01*
X39153Y-64757D01*
X39115Y-64719D01*
X40030Y-64338D02*
X39954Y-64300D01*
X39915Y-64261D01*
X39877Y-64185D01*
X39877Y-64147D01*
X39915Y-64071D01*
X39954Y-64033D01*
X40030Y-63995D01*
X40182Y-63995D01*
X40258Y-64033D01*
X40296Y-64071D01*
X40335Y-64147D01*
X40335Y-64185D01*
X40296Y-64261D01*
X40258Y-64300D01*
X40182Y-64338D01*
X40030Y-64338D01*
X39954Y-64376D01*
X39915Y-64414D01*
X39877Y-64490D01*
X39877Y-64642D01*
X39915Y-64719D01*
X39954Y-64757D01*
X40030Y-64795D01*
X40182Y-64795D01*
X40258Y-64757D01*
X40296Y-64719D01*
X40335Y-64642D01*
X40335Y-64490D01*
X40296Y-64414D01*
X40258Y-64376D01*
X40182Y-64338D01*
X40639Y-63995D02*
X40639Y-64147D01*
X40944Y-63995D02*
X40944Y-64147D01*
X42469Y-63957D02*
X41783Y-64985D01*
X43688Y-64261D02*
X43688Y-64795D01*
X43498Y-63957D02*
X43307Y-64528D01*
X43803Y-64528D01*
X44107Y-64719D02*
X44146Y-64757D01*
X44107Y-64795D01*
X44069Y-64757D01*
X44107Y-64719D01*
X44107Y-64795D01*
X44641Y-63995D02*
X44717Y-63995D01*
X44793Y-64033D01*
X44831Y-64071D01*
X44869Y-64147D01*
X44908Y-64300D01*
X44908Y-64490D01*
X44869Y-64642D01*
X44831Y-64719D01*
X44793Y-64757D01*
X44717Y-64795D01*
X44641Y-64795D01*
X44565Y-64757D01*
X44527Y-64719D01*
X44488Y-64642D01*
X44450Y-64490D01*
X44450Y-64300D01*
X44488Y-64147D01*
X44527Y-64071D01*
X44565Y-64033D01*
X44641Y-63995D01*
X45403Y-63995D02*
X45479Y-63995D01*
X45555Y-64033D01*
X45593Y-64071D01*
X45631Y-64147D01*
X45670Y-64300D01*
X45670Y-64490D01*
X45631Y-64642D01*
X45593Y-64719D01*
X45555Y-64757D01*
X45479Y-64795D01*
X45403Y-64795D01*
X45327Y-64757D01*
X45289Y-64719D01*
X45250Y-64642D01*
X45212Y-64490D01*
X45212Y-64300D01*
X45250Y-64147D01*
X45289Y-64071D01*
X45327Y-64033D01*
X45403Y-63995D01*
X46012Y-64795D02*
X46012Y-64261D01*
X46012Y-64338D02*
X46051Y-64300D01*
X46127Y-64261D01*
X46241Y-64261D01*
X46317Y-64300D01*
X46355Y-64376D01*
X46355Y-64795D01*
X46355Y-64376D02*
X46393Y-64300D01*
X46470Y-64261D01*
X46584Y-64261D01*
X46660Y-64300D01*
X46698Y-64376D01*
X46698Y-64795D01*
X47079Y-64795D02*
X47079Y-64261D01*
X47079Y-64338D02*
X47118Y-64300D01*
X47194Y-64261D01*
X47308Y-64261D01*
X47384Y-64300D01*
X47422Y-64376D01*
X47422Y-64795D01*
X47422Y-64376D02*
X47460Y-64300D01*
X47537Y-64261D01*
X47651Y-64261D01*
X47727Y-64300D01*
X47765Y-64376D01*
X47765Y-64795D01*
X48985Y-65100D02*
X48947Y-65061D01*
X48871Y-64947D01*
X48833Y-64871D01*
X48795Y-64757D01*
X48756Y-64566D01*
X48756Y-64414D01*
X48795Y-64223D01*
X48833Y-64109D01*
X48871Y-64033D01*
X48947Y-63919D01*
X48985Y-63881D01*
X49213Y-63995D02*
X49709Y-63995D01*
X49442Y-64300D01*
X49556Y-64300D01*
X49632Y-64338D01*
X49670Y-64376D01*
X49709Y-64452D01*
X49709Y-64642D01*
X49670Y-64719D01*
X49632Y-64757D01*
X49556Y-64795D01*
X49328Y-64795D01*
X49251Y-64757D01*
X49213Y-64719D01*
X50661Y-64795D02*
X50661Y-63995D01*
X51004Y-64795D02*
X51004Y-64376D01*
X50966Y-64300D01*
X50890Y-64261D01*
X50776Y-64261D01*
X50700Y-64300D01*
X50661Y-64338D01*
X51500Y-64795D02*
X51424Y-64757D01*
X51385Y-64719D01*
X51347Y-64642D01*
X51347Y-64414D01*
X51385Y-64338D01*
X51424Y-64300D01*
X51500Y-64261D01*
X51614Y-64261D01*
X51690Y-64300D01*
X51728Y-64338D01*
X51766Y-64414D01*
X51766Y-64642D01*
X51728Y-64719D01*
X51690Y-64757D01*
X51614Y-64795D01*
X51500Y-64795D01*
X52224Y-64795D02*
X52148Y-64757D01*
X52109Y-64681D01*
X52109Y-63995D01*
X52833Y-64757D02*
X52757Y-64795D01*
X52605Y-64795D01*
X52528Y-64757D01*
X52490Y-64681D01*
X52490Y-64376D01*
X52528Y-64300D01*
X52605Y-64261D01*
X52757Y-64261D01*
X52833Y-64300D01*
X52871Y-64376D01*
X52871Y-64452D01*
X52490Y-64528D01*
X53176Y-64757D02*
X53253Y-64795D01*
X53405Y-64795D01*
X53481Y-64757D01*
X53519Y-64681D01*
X53519Y-64642D01*
X53481Y-64566D01*
X53405Y-64528D01*
X53291Y-64528D01*
X53214Y-64490D01*
X53176Y-64414D01*
X53176Y-64376D01*
X53214Y-64300D01*
X53291Y-64261D01*
X53405Y-64261D01*
X53481Y-64300D01*
X53786Y-65100D02*
X53824Y-65061D01*
X53901Y-64947D01*
X53939Y-64871D01*
X53977Y-64757D01*
X54015Y-64566D01*
X54015Y-64414D01*
X53977Y-64223D01*
X53939Y-64109D01*
X53901Y-64033D01*
X53824Y-63919D01*
X53786Y-63881D01*
G54D10*
X36021Y-67162D02*
X36857Y-66326D01*
X36021Y-65490D01*
X35185Y-66326D01*
X36021Y-67162D01*
X36021Y-65490D02*
X36021Y-67162D01*
X36857Y-66326D02*
X35185Y-66326D01*
G54D11*
X37401Y-65850D02*
X37477Y-65850D01*
X37553Y-65888D01*
X37591Y-65926D01*
X37629Y-66002D01*
X37668Y-66155D01*
X37668Y-66345D01*
X37629Y-66497D01*
X37591Y-66574D01*
X37553Y-66612D01*
X37477Y-66650D01*
X37401Y-66650D01*
X37325Y-66612D01*
X37287Y-66574D01*
X37248Y-66497D01*
X37210Y-66345D01*
X37210Y-66155D01*
X37248Y-66002D01*
X37287Y-65926D01*
X37325Y-65888D01*
X37401Y-65850D01*
X38010Y-66574D02*
X38049Y-66612D01*
X38010Y-66650D01*
X37972Y-66612D01*
X38010Y-66574D01*
X38010Y-66650D01*
X38811Y-66650D02*
X38353Y-66650D01*
X38582Y-66650D02*
X38582Y-65850D01*
X38506Y-65964D01*
X38430Y-66040D01*
X38353Y-66078D01*
X39496Y-65850D02*
X39344Y-65850D01*
X39268Y-65888D01*
X39230Y-65926D01*
X39153Y-66040D01*
X39115Y-66193D01*
X39115Y-66497D01*
X39153Y-66574D01*
X39192Y-66612D01*
X39268Y-66650D01*
X39420Y-66650D01*
X39496Y-66612D01*
X39534Y-66574D01*
X39573Y-66497D01*
X39573Y-66307D01*
X39534Y-66231D01*
X39496Y-66193D01*
X39420Y-66155D01*
X39268Y-66155D01*
X39192Y-66193D01*
X39153Y-66231D01*
X39115Y-66307D01*
X39839Y-65850D02*
X40373Y-65850D01*
X40030Y-66650D01*
X40639Y-65850D02*
X40639Y-66002D01*
X40944Y-65850D02*
X40944Y-66002D01*
X42469Y-65812D02*
X41783Y-66840D01*
X43688Y-66116D02*
X43688Y-66650D01*
X43498Y-65812D02*
X43307Y-66383D01*
X43803Y-66383D01*
X44107Y-66574D02*
X44146Y-66612D01*
X44107Y-66650D01*
X44069Y-66612D01*
X44107Y-66574D01*
X44107Y-66650D01*
X44450Y-65926D02*
X44488Y-65888D01*
X44565Y-65850D01*
X44755Y-65850D01*
X44831Y-65888D01*
X44869Y-65926D01*
X44908Y-66002D01*
X44908Y-66078D01*
X44869Y-66193D01*
X44412Y-66650D01*
X44908Y-66650D01*
X45631Y-65850D02*
X45250Y-65850D01*
X45212Y-66231D01*
X45250Y-66193D01*
X45327Y-66155D01*
X45517Y-66155D01*
X45593Y-66193D01*
X45631Y-66231D01*
X45670Y-66307D01*
X45670Y-66497D01*
X45631Y-66574D01*
X45593Y-66612D01*
X45517Y-66650D01*
X45327Y-66650D01*
X45250Y-66612D01*
X45212Y-66574D01*
X46012Y-66650D02*
X46012Y-66116D01*
X46012Y-66193D02*
X46051Y-66155D01*
X46127Y-66116D01*
X46241Y-66116D01*
X46317Y-66155D01*
X46355Y-66231D01*
X46355Y-66650D01*
X46355Y-66231D02*
X46393Y-66155D01*
X46470Y-66116D01*
X46584Y-66116D01*
X46660Y-66155D01*
X46698Y-66231D01*
X46698Y-66650D01*
X47079Y-66650D02*
X47079Y-66116D01*
X47079Y-66193D02*
X47118Y-66155D01*
X47194Y-66116D01*
X47308Y-66116D01*
X47384Y-66155D01*
X47422Y-66231D01*
X47422Y-66650D01*
X47422Y-66231D02*
X47460Y-66155D01*
X47537Y-66116D01*
X47651Y-66116D01*
X47727Y-66155D01*
X47765Y-66231D01*
X47765Y-66650D01*
X48985Y-66955D02*
X48947Y-66916D01*
X48871Y-66802D01*
X48833Y-66726D01*
X48795Y-66612D01*
X48756Y-66421D01*
X48756Y-66269D01*
X48795Y-66078D01*
X48833Y-65964D01*
X48871Y-65888D01*
X48947Y-65774D01*
X48985Y-65736D01*
X49632Y-66116D02*
X49632Y-66650D01*
X49442Y-65812D02*
X49251Y-66383D01*
X49747Y-66383D01*
X50661Y-66650D02*
X50661Y-65850D01*
X51004Y-66650D02*
X51004Y-66231D01*
X50966Y-66155D01*
X50890Y-66116D01*
X50776Y-66116D01*
X50700Y-66155D01*
X50661Y-66193D01*
X51500Y-66650D02*
X51424Y-66612D01*
X51385Y-66574D01*
X51347Y-66497D01*
X51347Y-66269D01*
X51385Y-66193D01*
X51424Y-66155D01*
X51500Y-66116D01*
X51614Y-66116D01*
X51690Y-66155D01*
X51728Y-66193D01*
X51766Y-66269D01*
X51766Y-66497D01*
X51728Y-66574D01*
X51690Y-66612D01*
X51614Y-66650D01*
X51500Y-66650D01*
X52224Y-66650D02*
X52148Y-66612D01*
X52109Y-66536D01*
X52109Y-65850D01*
X52833Y-66612D02*
X52757Y-66650D01*
X52605Y-66650D01*
X52528Y-66612D01*
X52490Y-66536D01*
X52490Y-66231D01*
X52528Y-66155D01*
X52605Y-66116D01*
X52757Y-66116D01*
X52833Y-66155D01*
X52871Y-66231D01*
X52871Y-66307D01*
X52490Y-66383D01*
X53176Y-66612D02*
X53253Y-66650D01*
X53405Y-66650D01*
X53481Y-66612D01*
X53519Y-66536D01*
X53519Y-66497D01*
X53481Y-66421D01*
X53405Y-66383D01*
X53291Y-66383D01*
X53214Y-66345D01*
X53176Y-66269D01*
X53176Y-66231D01*
X53214Y-66155D01*
X53291Y-66116D01*
X53405Y-66116D01*
X53481Y-66155D01*
X53786Y-66955D02*
X53824Y-66916D01*
X53901Y-66802D01*
X53939Y-66726D01*
X53977Y-66612D01*
X54015Y-66421D01*
X54015Y-66269D01*
X53977Y-66078D01*
X53939Y-65964D01*
X53901Y-65888D01*
X53824Y-65774D01*
X53786Y-65736D01*
G54D10*
X36569Y-68975D02*
X36569Y-67583D01*
X35177Y-67583D01*
X35177Y-68975D01*
X36569Y-68975D01*
X34889Y-67295D02*
X36857Y-69263D01*
G54D11*
X37401Y-67803D02*
X37477Y-67803D01*
X37553Y-67841D01*
X37591Y-67879D01*
X37629Y-67955D01*
X37668Y-68108D01*
X37668Y-68298D01*
X37629Y-68450D01*
X37591Y-68527D01*
X37553Y-68565D01*
X37477Y-68603D01*
X37401Y-68603D01*
X37325Y-68565D01*
X37287Y-68527D01*
X37248Y-68450D01*
X37210Y-68298D01*
X37210Y-68108D01*
X37248Y-67955D01*
X37287Y-67879D01*
X37325Y-67841D01*
X37401Y-67803D01*
X38010Y-68527D02*
X38049Y-68565D01*
X38010Y-68603D01*
X37972Y-68565D01*
X38010Y-68527D01*
X38010Y-68603D01*
X38811Y-68603D02*
X38353Y-68603D01*
X38582Y-68603D02*
X38582Y-67803D01*
X38506Y-67917D01*
X38430Y-67993D01*
X38353Y-68031D01*
X39192Y-68603D02*
X39344Y-68603D01*
X39420Y-68565D01*
X39458Y-68527D01*
X39534Y-68412D01*
X39573Y-68260D01*
X39573Y-67955D01*
X39534Y-67879D01*
X39496Y-67841D01*
X39420Y-67803D01*
X39268Y-67803D01*
X39192Y-67841D01*
X39153Y-67879D01*
X39115Y-67955D01*
X39115Y-68146D01*
X39153Y-68222D01*
X39192Y-68260D01*
X39268Y-68298D01*
X39420Y-68298D01*
X39496Y-68260D01*
X39534Y-68222D01*
X39573Y-68146D01*
X39839Y-67803D02*
X40373Y-67803D01*
X40030Y-68603D01*
X40639Y-67803D02*
X40639Y-67955D01*
X40944Y-67803D02*
X40944Y-67955D01*
X42469Y-67765D02*
X41783Y-68793D01*
X43726Y-67803D02*
X43345Y-67803D01*
X43307Y-68184D01*
X43345Y-68146D01*
X43422Y-68108D01*
X43612Y-68108D01*
X43688Y-68146D01*
X43726Y-68184D01*
X43765Y-68260D01*
X43765Y-68450D01*
X43726Y-68527D01*
X43688Y-68565D01*
X43612Y-68603D01*
X43422Y-68603D01*
X43345Y-68565D01*
X43307Y-68527D01*
X44107Y-68527D02*
X44146Y-68565D01*
X44107Y-68603D01*
X44069Y-68565D01*
X44107Y-68527D01*
X44107Y-68603D01*
X44641Y-67803D02*
X44717Y-67803D01*
X44793Y-67841D01*
X44831Y-67879D01*
X44869Y-67955D01*
X44908Y-68108D01*
X44908Y-68298D01*
X44869Y-68450D01*
X44831Y-68527D01*
X44793Y-68565D01*
X44717Y-68603D01*
X44641Y-68603D01*
X44565Y-68565D01*
X44527Y-68527D01*
X44488Y-68450D01*
X44450Y-68298D01*
X44450Y-68108D01*
X44488Y-67955D01*
X44527Y-67879D01*
X44565Y-67841D01*
X44641Y-67803D01*
X45403Y-67803D02*
X45479Y-67803D01*
X45555Y-67841D01*
X45593Y-67879D01*
X45631Y-67955D01*
X45670Y-68108D01*
X45670Y-68298D01*
X45631Y-68450D01*
X45593Y-68527D01*
X45555Y-68565D01*
X45479Y-68603D01*
X45403Y-68603D01*
X45327Y-68565D01*
X45289Y-68527D01*
X45250Y-68450D01*
X45212Y-68298D01*
X45212Y-68108D01*
X45250Y-67955D01*
X45289Y-67879D01*
X45327Y-67841D01*
X45403Y-67803D01*
X46012Y-68603D02*
X46012Y-68069D01*
X46012Y-68146D02*
X46051Y-68108D01*
X46127Y-68069D01*
X46241Y-68069D01*
X46317Y-68108D01*
X46355Y-68184D01*
X46355Y-68603D01*
X46355Y-68184D02*
X46393Y-68108D01*
X46470Y-68069D01*
X46584Y-68069D01*
X46660Y-68108D01*
X46698Y-68184D01*
X46698Y-68603D01*
X47079Y-68603D02*
X47079Y-68069D01*
X47079Y-68146D02*
X47118Y-68108D01*
X47194Y-68069D01*
X47308Y-68069D01*
X47384Y-68108D01*
X47422Y-68184D01*
X47422Y-68603D01*
X47422Y-68184D02*
X47460Y-68108D01*
X47537Y-68069D01*
X47651Y-68069D01*
X47727Y-68108D01*
X47765Y-68184D01*
X47765Y-68603D01*
X48985Y-68908D02*
X48947Y-68869D01*
X48871Y-68755D01*
X48833Y-68679D01*
X48795Y-68565D01*
X48756Y-68374D01*
X48756Y-68222D01*
X48795Y-68031D01*
X48833Y-67917D01*
X48871Y-67841D01*
X48947Y-67727D01*
X48985Y-67689D01*
X49251Y-67879D02*
X49289Y-67841D01*
X49366Y-67803D01*
X49556Y-67803D01*
X49632Y-67841D01*
X49670Y-67879D01*
X49709Y-67955D01*
X49709Y-68031D01*
X49670Y-68146D01*
X49213Y-68603D01*
X49709Y-68603D01*
X50661Y-68603D02*
X50661Y-67803D01*
X51004Y-68603D02*
X51004Y-68184D01*
X50966Y-68108D01*
X50890Y-68069D01*
X50776Y-68069D01*
X50700Y-68108D01*
X50661Y-68146D01*
X51500Y-68603D02*
X51424Y-68565D01*
X51385Y-68527D01*
X51347Y-68450D01*
X51347Y-68222D01*
X51385Y-68146D01*
X51424Y-68108D01*
X51500Y-68069D01*
X51614Y-68069D01*
X51690Y-68108D01*
X51728Y-68146D01*
X51766Y-68222D01*
X51766Y-68450D01*
X51728Y-68527D01*
X51690Y-68565D01*
X51614Y-68603D01*
X51500Y-68603D01*
X52224Y-68603D02*
X52148Y-68565D01*
X52109Y-68489D01*
X52109Y-67803D01*
X52833Y-68565D02*
X52757Y-68603D01*
X52605Y-68603D01*
X52528Y-68565D01*
X52490Y-68489D01*
X52490Y-68184D01*
X52528Y-68108D01*
X52605Y-68069D01*
X52757Y-68069D01*
X52833Y-68108D01*
X52871Y-68184D01*
X52871Y-68260D01*
X52490Y-68336D01*
X53176Y-68565D02*
X53253Y-68603D01*
X53405Y-68603D01*
X53481Y-68565D01*
X53519Y-68489D01*
X53519Y-68450D01*
X53481Y-68374D01*
X53405Y-68336D01*
X53291Y-68336D01*
X53214Y-68298D01*
X53176Y-68222D01*
X53176Y-68184D01*
X53214Y-68108D01*
X53291Y-68069D01*
X53405Y-68069D01*
X53481Y-68108D01*
X53786Y-68908D02*
X53824Y-68869D01*
X53901Y-68755D01*
X53939Y-68679D01*
X53977Y-68565D01*
X54015Y-68374D01*
X54015Y-68222D01*
X53977Y-68031D01*
X53939Y-67917D01*
X53901Y-67841D01*
X53824Y-67727D01*
X53786Y-67689D01*
G54D10*
X34791Y-72595D02*
X36858Y-70528D01*
X34791Y-68461D01*
X32724Y-70528D01*
X34791Y-72595D01*
X34791Y-68461D02*
X34791Y-72595D01*
G54D11*
X37401Y-70052D02*
X37477Y-70052D01*
X37553Y-70090D01*
X37591Y-70128D01*
X37629Y-70204D01*
X37668Y-70357D01*
X37668Y-70547D01*
X37629Y-70699D01*
X37591Y-70776D01*
X37553Y-70814D01*
X37477Y-70852D01*
X37401Y-70852D01*
X37325Y-70814D01*
X37287Y-70776D01*
X37248Y-70699D01*
X37210Y-70547D01*
X37210Y-70357D01*
X37248Y-70204D01*
X37287Y-70128D01*
X37325Y-70090D01*
X37401Y-70052D01*
X38010Y-70776D02*
X38049Y-70814D01*
X38010Y-70852D01*
X37972Y-70814D01*
X38010Y-70776D01*
X38010Y-70852D01*
X38734Y-70318D02*
X38734Y-70852D01*
X38544Y-70014D02*
X38353Y-70585D01*
X38849Y-70585D01*
X39573Y-70852D02*
X39115Y-70852D01*
X39344Y-70852D02*
X39344Y-70052D01*
X39268Y-70166D01*
X39192Y-70242D01*
X39115Y-70280D01*
X39839Y-70052D02*
X40335Y-70052D01*
X40068Y-70357D01*
X40182Y-70357D01*
X40258Y-70395D01*
X40296Y-70433D01*
X40335Y-70509D01*
X40335Y-70699D01*
X40296Y-70776D01*
X40258Y-70814D01*
X40182Y-70852D01*
X39954Y-70852D01*
X39877Y-70814D01*
X39839Y-70776D01*
X40639Y-70052D02*
X40639Y-70204D01*
X40944Y-70052D02*
X40944Y-70204D01*
X42469Y-70014D02*
X41783Y-71042D01*
X43765Y-70852D02*
X43307Y-70852D01*
X43536Y-70852D02*
X43536Y-70052D01*
X43460Y-70166D01*
X43384Y-70242D01*
X43307Y-70280D01*
X44260Y-70052D02*
X44336Y-70052D01*
X44412Y-70090D01*
X44450Y-70128D01*
X44488Y-70204D01*
X44527Y-70357D01*
X44527Y-70547D01*
X44488Y-70699D01*
X44450Y-70776D01*
X44412Y-70814D01*
X44336Y-70852D01*
X44260Y-70852D01*
X44184Y-70814D01*
X44146Y-70776D01*
X44107Y-70699D01*
X44069Y-70547D01*
X44069Y-70357D01*
X44107Y-70204D01*
X44146Y-70128D01*
X44184Y-70090D01*
X44260Y-70052D01*
X44869Y-70776D02*
X44908Y-70814D01*
X44869Y-70852D01*
X44831Y-70814D01*
X44869Y-70776D01*
X44869Y-70852D01*
X45631Y-70052D02*
X45250Y-70052D01*
X45212Y-70433D01*
X45250Y-70395D01*
X45327Y-70357D01*
X45517Y-70357D01*
X45593Y-70395D01*
X45631Y-70433D01*
X45670Y-70509D01*
X45670Y-70699D01*
X45631Y-70776D01*
X45593Y-70814D01*
X45517Y-70852D01*
X45327Y-70852D01*
X45250Y-70814D01*
X45212Y-70776D01*
X46165Y-70052D02*
X46241Y-70052D01*
X46317Y-70090D01*
X46355Y-70128D01*
X46393Y-70204D01*
X46432Y-70357D01*
X46432Y-70547D01*
X46393Y-70699D01*
X46355Y-70776D01*
X46317Y-70814D01*
X46241Y-70852D01*
X46165Y-70852D01*
X46089Y-70814D01*
X46051Y-70776D01*
X46012Y-70699D01*
X45974Y-70547D01*
X45974Y-70357D01*
X46012Y-70204D01*
X46051Y-70128D01*
X46089Y-70090D01*
X46165Y-70052D01*
X46774Y-70852D02*
X46774Y-70318D01*
X46774Y-70395D02*
X46813Y-70357D01*
X46889Y-70318D01*
X47003Y-70318D01*
X47079Y-70357D01*
X47117Y-70433D01*
X47117Y-70852D01*
X47117Y-70433D02*
X47155Y-70357D01*
X47232Y-70318D01*
X47346Y-70318D01*
X47422Y-70357D01*
X47460Y-70433D01*
X47460Y-70852D01*
X47841Y-70852D02*
X47841Y-70318D01*
X47841Y-70395D02*
X47880Y-70357D01*
X47956Y-70318D01*
X48070Y-70318D01*
X48146Y-70357D01*
X48184Y-70433D01*
X48184Y-70852D01*
X48184Y-70433D02*
X48222Y-70357D01*
X48299Y-70318D01*
X48413Y-70318D01*
X48489Y-70357D01*
X48527Y-70433D01*
X48527Y-70852D01*
X49747Y-71157D02*
X49709Y-71118D01*
X49633Y-71004D01*
X49595Y-70928D01*
X49557Y-70814D01*
X49518Y-70623D01*
X49518Y-70471D01*
X49557Y-70280D01*
X49595Y-70166D01*
X49633Y-70090D01*
X49709Y-69976D01*
X49747Y-69938D01*
X50471Y-70852D02*
X50013Y-70852D01*
X50242Y-70852D02*
X50242Y-70052D01*
X50166Y-70166D01*
X50090Y-70242D01*
X50013Y-70280D01*
X51423Y-70852D02*
X51423Y-70052D01*
X51766Y-70852D02*
X51766Y-70433D01*
X51728Y-70357D01*
X51652Y-70318D01*
X51538Y-70318D01*
X51462Y-70357D01*
X51423Y-70395D01*
X52262Y-70852D02*
X52186Y-70814D01*
X52147Y-70776D01*
X52109Y-70699D01*
X52109Y-70471D01*
X52147Y-70395D01*
X52186Y-70357D01*
X52262Y-70318D01*
X52376Y-70318D01*
X52452Y-70357D01*
X52490Y-70395D01*
X52528Y-70471D01*
X52528Y-70699D01*
X52490Y-70776D01*
X52452Y-70814D01*
X52376Y-70852D01*
X52262Y-70852D01*
X52986Y-70852D02*
X52910Y-70814D01*
X52871Y-70738D01*
X52871Y-70052D01*
X53595Y-70814D02*
X53519Y-70852D01*
X53367Y-70852D01*
X53290Y-70814D01*
X53252Y-70738D01*
X53252Y-70433D01*
X53290Y-70357D01*
X53367Y-70318D01*
X53519Y-70318D01*
X53595Y-70357D01*
X53633Y-70433D01*
X53633Y-70509D01*
X53252Y-70585D01*
X53900Y-71157D02*
X53938Y-71118D01*
X54015Y-71004D01*
X54053Y-70928D01*
X54091Y-70814D01*
X54129Y-70623D01*
X54129Y-70471D01*
X54091Y-70280D01*
X54053Y-70166D01*
X54015Y-70090D01*
X53938Y-69976D01*
X53900Y-69938D01*
M02*
