M48
INCH,TZ
T1C0.032
T2C0.040
T3C0.050
T4C0.120
T5C0.158
%
G90
G05
T1
X054917Y-038106
X054917Y-041106
X055917Y-038106
X055917Y-041106
X056917Y-038106
X056917Y-041106
X057917Y-038106
X057917Y-041106
T2
X048213Y-027559
X049213Y-027559
X050213Y-027559
X063961Y-027559
X064961Y-027559
X065961Y-027559
T3
X062169Y-034646
X062169Y-037126
X062720Y-045591
X063075Y-041535
X069169Y-034646
X069169Y-037126
X069720Y-045591
X070075Y-041535
T4
X039370Y-015354
X039370Y-050787
X074803Y-015354
X074803Y-050787
T5
X041339Y-025118
X057087Y-025118
X072835Y-025118
T0
M30
