G04 (created by PCBNEW (2012-jan-04)-stable) date Tue 05 Jun 2012 06:44:24 AM CEST*
G01*
G70*
G90*
%MOIN*%
G04 Gerber Fmt 3.4, Leading zero omitted, Abs format*
%FSLAX34Y34*%
G04 APERTURE LIST*
%ADD10C,0.001000*%
%ADD11C,0.008000*%
G04 APERTURE END LIST*
G54D10*
G54D11*
X37402Y-52756D02*
X37402Y-13386D01*
X76772Y-52756D02*
X37402Y-52756D01*
X76772Y-13386D02*
X76772Y-52756D01*
X37402Y-13386D02*
X76772Y-13386D01*
G54D10*
X47450Y-33250D02*
X47650Y-33450D01*
X47650Y-33250D02*
X47450Y-33450D01*
X47450Y-35550D02*
X47650Y-35750D01*
X47650Y-35550D02*
X47450Y-35750D01*
X48200Y-36500D02*
X48400Y-36700D01*
X48400Y-36500D02*
X48200Y-36700D01*
X48200Y-37400D02*
X48400Y-37600D01*
X48400Y-37400D02*
X48200Y-37600D01*
X48200Y-38700D02*
X48400Y-38900D01*
X48400Y-38700D02*
X48200Y-38900D01*
X48200Y-39300D02*
X48400Y-39500D01*
X48400Y-39300D02*
X48200Y-39500D01*
X49700Y-37400D02*
X49900Y-37600D01*
X49900Y-37400D02*
X49700Y-37600D01*
X55120Y-36700D02*
X55117Y-36723D01*
X55110Y-36745D01*
X55099Y-36766D01*
X55085Y-36784D01*
X55067Y-36799D01*
X55046Y-36810D01*
X55024Y-36817D01*
X55000Y-36819D01*
X54978Y-36817D01*
X54956Y-36811D01*
X54935Y-36800D01*
X54917Y-36785D01*
X54901Y-36767D01*
X54890Y-36747D01*
X54883Y-36724D01*
X54881Y-36701D01*
X54882Y-36679D01*
X54889Y-36656D01*
X54900Y-36635D01*
X54914Y-36617D01*
X54932Y-36602D01*
X54952Y-36591D01*
X54975Y-36583D01*
X54998Y-36581D01*
X55020Y-36582D01*
X55043Y-36589D01*
X55064Y-36599D01*
X55082Y-36614D01*
X55098Y-36631D01*
X55109Y-36652D01*
X55117Y-36674D01*
X55119Y-36697D01*
X55120Y-36700D01*
X56120Y-37700D02*
X56117Y-37723D01*
X56110Y-37745D01*
X56099Y-37766D01*
X56085Y-37784D01*
X56067Y-37799D01*
X56046Y-37810D01*
X56024Y-37817D01*
X56000Y-37819D01*
X55978Y-37817D01*
X55956Y-37811D01*
X55935Y-37800D01*
X55917Y-37785D01*
X55901Y-37767D01*
X55890Y-37747D01*
X55883Y-37724D01*
X55881Y-37701D01*
X55882Y-37679D01*
X55889Y-37656D01*
X55900Y-37635D01*
X55914Y-37617D01*
X55932Y-37602D01*
X55952Y-37591D01*
X55975Y-37583D01*
X55998Y-37581D01*
X56020Y-37582D01*
X56043Y-37589D01*
X56064Y-37599D01*
X56082Y-37614D01*
X56098Y-37631D01*
X56109Y-37652D01*
X56117Y-37674D01*
X56119Y-37697D01*
X56120Y-37700D01*
X57120Y-36700D02*
X57117Y-36723D01*
X57110Y-36745D01*
X57099Y-36766D01*
X57085Y-36784D01*
X57067Y-36799D01*
X57046Y-36810D01*
X57024Y-36817D01*
X57000Y-36819D01*
X56978Y-36817D01*
X56956Y-36811D01*
X56935Y-36800D01*
X56917Y-36785D01*
X56901Y-36767D01*
X56890Y-36747D01*
X56883Y-36724D01*
X56881Y-36701D01*
X56882Y-36679D01*
X56889Y-36656D01*
X56900Y-36635D01*
X56914Y-36617D01*
X56932Y-36602D01*
X56952Y-36591D01*
X56975Y-36583D01*
X56998Y-36581D01*
X57020Y-36582D01*
X57043Y-36589D01*
X57064Y-36599D01*
X57082Y-36614D01*
X57098Y-36631D01*
X57109Y-36652D01*
X57117Y-36674D01*
X57119Y-36697D01*
X57120Y-36700D01*
X54425Y-39137D02*
X54425Y-39451D01*
X54582Y-39294D02*
X54268Y-39294D01*
X56000Y-39137D02*
X56000Y-39451D01*
X56157Y-39294D02*
X55843Y-39294D01*
X57575Y-39137D02*
X57575Y-39451D01*
X57732Y-39294D02*
X57418Y-39294D01*
X39806Y-45496D02*
X39802Y-45527D01*
X39793Y-45556D01*
X39779Y-45584D01*
X39759Y-45608D01*
X39735Y-45628D01*
X39708Y-45643D01*
X39678Y-45652D01*
X39647Y-45655D01*
X39617Y-45653D01*
X39587Y-45644D01*
X39559Y-45629D01*
X39535Y-45610D01*
X39514Y-45586D01*
X39499Y-45559D01*
X39490Y-45529D01*
X39487Y-45498D01*
X39489Y-45468D01*
X39498Y-45438D01*
X39512Y-45410D01*
X39531Y-45385D01*
X39555Y-45365D01*
X39582Y-45350D01*
X39612Y-45340D01*
X39643Y-45337D01*
X39673Y-45339D01*
X39703Y-45347D01*
X39731Y-45361D01*
X39756Y-45381D01*
X39776Y-45404D01*
X39792Y-45431D01*
X39802Y-45461D01*
X39805Y-45492D01*
X39806Y-45496D01*
X39486Y-45336D02*
X39806Y-45656D01*
X39806Y-45336D02*
X39486Y-45656D01*
X39806Y-46496D02*
X39802Y-46527D01*
X39793Y-46556D01*
X39779Y-46584D01*
X39759Y-46608D01*
X39735Y-46628D01*
X39708Y-46643D01*
X39678Y-46652D01*
X39647Y-46655D01*
X39617Y-46653D01*
X39587Y-46644D01*
X39559Y-46629D01*
X39535Y-46610D01*
X39514Y-46586D01*
X39499Y-46559D01*
X39490Y-46529D01*
X39487Y-46498D01*
X39489Y-46468D01*
X39498Y-46438D01*
X39512Y-46410D01*
X39531Y-46385D01*
X39555Y-46365D01*
X39582Y-46350D01*
X39612Y-46340D01*
X39643Y-46337D01*
X39673Y-46339D01*
X39703Y-46347D01*
X39731Y-46361D01*
X39756Y-46381D01*
X39776Y-46404D01*
X39792Y-46431D01*
X39802Y-46461D01*
X39805Y-46492D01*
X39806Y-46496D01*
X39486Y-46336D02*
X39806Y-46656D01*
X39806Y-46336D02*
X39486Y-46656D01*
X39806Y-47496D02*
X39802Y-47527D01*
X39793Y-47556D01*
X39779Y-47584D01*
X39759Y-47608D01*
X39735Y-47628D01*
X39708Y-47643D01*
X39678Y-47652D01*
X39647Y-47655D01*
X39617Y-47653D01*
X39587Y-47644D01*
X39559Y-47629D01*
X39535Y-47610D01*
X39514Y-47586D01*
X39499Y-47559D01*
X39490Y-47529D01*
X39487Y-47498D01*
X39489Y-47468D01*
X39498Y-47438D01*
X39512Y-47410D01*
X39531Y-47385D01*
X39555Y-47365D01*
X39582Y-47350D01*
X39612Y-47340D01*
X39643Y-47337D01*
X39673Y-47339D01*
X39703Y-47347D01*
X39731Y-47361D01*
X39756Y-47381D01*
X39776Y-47404D01*
X39792Y-47431D01*
X39802Y-47461D01*
X39805Y-47492D01*
X39806Y-47496D01*
X39486Y-47336D02*
X39806Y-47656D01*
X39806Y-47336D02*
X39486Y-47656D01*
X63060Y-32100D02*
X63056Y-32131D01*
X63047Y-32160D01*
X63033Y-32188D01*
X63013Y-32212D01*
X62989Y-32232D01*
X62962Y-32247D01*
X62932Y-32256D01*
X62901Y-32259D01*
X62871Y-32257D01*
X62841Y-32248D01*
X62813Y-32233D01*
X62789Y-32214D01*
X62768Y-32190D01*
X62753Y-32163D01*
X62744Y-32133D01*
X62741Y-32102D01*
X62743Y-32072D01*
X62752Y-32042D01*
X62766Y-32014D01*
X62785Y-31989D01*
X62809Y-31969D01*
X62836Y-31954D01*
X62866Y-31944D01*
X62897Y-31941D01*
X62927Y-31943D01*
X62957Y-31951D01*
X62985Y-31965D01*
X63010Y-31985D01*
X63030Y-32008D01*
X63046Y-32035D01*
X63056Y-32065D01*
X63059Y-32096D01*
X63060Y-32100D01*
X62740Y-31940D02*
X63060Y-32260D01*
X63060Y-31940D02*
X62740Y-32260D01*
X63060Y-37100D02*
X63056Y-37131D01*
X63047Y-37160D01*
X63033Y-37188D01*
X63013Y-37212D01*
X62989Y-37232D01*
X62962Y-37247D01*
X62932Y-37256D01*
X62901Y-37259D01*
X62871Y-37257D01*
X62841Y-37248D01*
X62813Y-37233D01*
X62789Y-37214D01*
X62768Y-37190D01*
X62753Y-37163D01*
X62744Y-37133D01*
X62741Y-37102D01*
X62743Y-37072D01*
X62752Y-37042D01*
X62766Y-37014D01*
X62785Y-36989D01*
X62809Y-36969D01*
X62836Y-36954D01*
X62866Y-36944D01*
X62897Y-36941D01*
X62927Y-36943D01*
X62957Y-36951D01*
X62985Y-36965D01*
X63010Y-36985D01*
X63030Y-37008D01*
X63046Y-37035D01*
X63056Y-37065D01*
X63059Y-37096D01*
X63060Y-37100D01*
X62740Y-36940D02*
X63060Y-37260D01*
X63060Y-36940D02*
X62740Y-37260D01*
X64560Y-32100D02*
X64556Y-32131D01*
X64547Y-32160D01*
X64533Y-32188D01*
X64513Y-32212D01*
X64489Y-32232D01*
X64462Y-32247D01*
X64432Y-32256D01*
X64401Y-32259D01*
X64371Y-32257D01*
X64341Y-32248D01*
X64313Y-32233D01*
X64289Y-32214D01*
X64268Y-32190D01*
X64253Y-32163D01*
X64244Y-32133D01*
X64241Y-32102D01*
X64243Y-32072D01*
X64252Y-32042D01*
X64266Y-32014D01*
X64285Y-31989D01*
X64309Y-31969D01*
X64336Y-31954D01*
X64366Y-31944D01*
X64397Y-31941D01*
X64427Y-31943D01*
X64457Y-31951D01*
X64485Y-31965D01*
X64510Y-31985D01*
X64530Y-32008D01*
X64546Y-32035D01*
X64556Y-32065D01*
X64559Y-32096D01*
X64560Y-32100D01*
X64240Y-31940D02*
X64560Y-32260D01*
X64560Y-31940D02*
X64240Y-32260D01*
X64560Y-37100D02*
X64556Y-37131D01*
X64547Y-37160D01*
X64533Y-37188D01*
X64513Y-37212D01*
X64489Y-37232D01*
X64462Y-37247D01*
X64432Y-37256D01*
X64401Y-37259D01*
X64371Y-37257D01*
X64341Y-37248D01*
X64313Y-37233D01*
X64289Y-37214D01*
X64268Y-37190D01*
X64253Y-37163D01*
X64244Y-37133D01*
X64241Y-37102D01*
X64243Y-37072D01*
X64252Y-37042D01*
X64266Y-37014D01*
X64285Y-36989D01*
X64309Y-36969D01*
X64336Y-36954D01*
X64366Y-36944D01*
X64397Y-36941D01*
X64427Y-36943D01*
X64457Y-36951D01*
X64485Y-36965D01*
X64510Y-36985D01*
X64530Y-37008D01*
X64546Y-37035D01*
X64556Y-37065D01*
X64559Y-37096D01*
X64560Y-37100D01*
X64240Y-36940D02*
X64560Y-37260D01*
X64560Y-36940D02*
X64240Y-37260D01*
X66360Y-32100D02*
X66356Y-32131D01*
X66347Y-32160D01*
X66333Y-32188D01*
X66313Y-32212D01*
X66289Y-32232D01*
X66262Y-32247D01*
X66232Y-32256D01*
X66201Y-32259D01*
X66171Y-32257D01*
X66141Y-32248D01*
X66113Y-32233D01*
X66089Y-32214D01*
X66068Y-32190D01*
X66053Y-32163D01*
X66044Y-32133D01*
X66041Y-32102D01*
X66043Y-32072D01*
X66052Y-32042D01*
X66066Y-32014D01*
X66085Y-31989D01*
X66109Y-31969D01*
X66136Y-31954D01*
X66166Y-31944D01*
X66197Y-31941D01*
X66227Y-31943D01*
X66257Y-31951D01*
X66285Y-31965D01*
X66310Y-31985D01*
X66330Y-32008D01*
X66346Y-32035D01*
X66356Y-32065D01*
X66359Y-32096D01*
X66360Y-32100D01*
X66040Y-31940D02*
X66360Y-32260D01*
X66360Y-31940D02*
X66040Y-32260D01*
X66360Y-37100D02*
X66356Y-37131D01*
X66347Y-37160D01*
X66333Y-37188D01*
X66313Y-37212D01*
X66289Y-37232D01*
X66262Y-37247D01*
X66232Y-37256D01*
X66201Y-37259D01*
X66171Y-37257D01*
X66141Y-37248D01*
X66113Y-37233D01*
X66089Y-37214D01*
X66068Y-37190D01*
X66053Y-37163D01*
X66044Y-37133D01*
X66041Y-37102D01*
X66043Y-37072D01*
X66052Y-37042D01*
X66066Y-37014D01*
X66085Y-36989D01*
X66109Y-36969D01*
X66136Y-36954D01*
X66166Y-36944D01*
X66197Y-36941D01*
X66227Y-36943D01*
X66257Y-36951D01*
X66285Y-36965D01*
X66310Y-36985D01*
X66330Y-37008D01*
X66346Y-37035D01*
X66356Y-37065D01*
X66359Y-37096D01*
X66360Y-37100D01*
X66040Y-36940D02*
X66360Y-37260D01*
X66360Y-36940D02*
X66040Y-37260D01*
X67860Y-32100D02*
X67856Y-32131D01*
X67847Y-32160D01*
X67833Y-32188D01*
X67813Y-32212D01*
X67789Y-32232D01*
X67762Y-32247D01*
X67732Y-32256D01*
X67701Y-32259D01*
X67671Y-32257D01*
X67641Y-32248D01*
X67613Y-32233D01*
X67589Y-32214D01*
X67568Y-32190D01*
X67553Y-32163D01*
X67544Y-32133D01*
X67541Y-32102D01*
X67543Y-32072D01*
X67552Y-32042D01*
X67566Y-32014D01*
X67585Y-31989D01*
X67609Y-31969D01*
X67636Y-31954D01*
X67666Y-31944D01*
X67697Y-31941D01*
X67727Y-31943D01*
X67757Y-31951D01*
X67785Y-31965D01*
X67810Y-31985D01*
X67830Y-32008D01*
X67846Y-32035D01*
X67856Y-32065D01*
X67859Y-32096D01*
X67860Y-32100D01*
X67540Y-31940D02*
X67860Y-32260D01*
X67860Y-31940D02*
X67540Y-32260D01*
X67860Y-37100D02*
X67856Y-37131D01*
X67847Y-37160D01*
X67833Y-37188D01*
X67813Y-37212D01*
X67789Y-37232D01*
X67762Y-37247D01*
X67732Y-37256D01*
X67701Y-37259D01*
X67671Y-37257D01*
X67641Y-37248D01*
X67613Y-37233D01*
X67589Y-37214D01*
X67568Y-37190D01*
X67553Y-37163D01*
X67544Y-37133D01*
X67541Y-37102D01*
X67543Y-37072D01*
X67552Y-37042D01*
X67566Y-37014D01*
X67585Y-36989D01*
X67609Y-36969D01*
X67636Y-36954D01*
X67666Y-36944D01*
X67697Y-36941D01*
X67727Y-36943D01*
X67757Y-36951D01*
X67785Y-36965D01*
X67810Y-36985D01*
X67830Y-37008D01*
X67846Y-37035D01*
X67856Y-37065D01*
X67859Y-37096D01*
X67860Y-37100D01*
X67540Y-36940D02*
X67860Y-37260D01*
X67860Y-36940D02*
X67540Y-37260D01*
X43439Y-50714D02*
X43435Y-50752D01*
X43424Y-50789D01*
X43406Y-50823D01*
X43381Y-50852D01*
X43352Y-50877D01*
X43318Y-50895D01*
X43281Y-50906D01*
X43243Y-50910D01*
X43206Y-50907D01*
X43169Y-50896D01*
X43135Y-50878D01*
X43105Y-50854D01*
X43080Y-50825D01*
X43061Y-50791D01*
X43050Y-50754D01*
X43046Y-50716D01*
X43049Y-50679D01*
X43059Y-50642D01*
X43077Y-50608D01*
X43101Y-50578D01*
X43130Y-50553D01*
X43164Y-50534D01*
X43200Y-50522D01*
X43238Y-50518D01*
X43276Y-50520D01*
X43313Y-50531D01*
X43347Y-50548D01*
X43377Y-50572D01*
X43402Y-50601D01*
X43421Y-50634D01*
X43434Y-50671D01*
X43438Y-50709D01*
X43439Y-50714D01*
X43045Y-50714D02*
X43439Y-50714D01*
X47455Y-50714D02*
X47451Y-50752D01*
X47440Y-50789D01*
X47422Y-50823D01*
X47397Y-50852D01*
X47368Y-50877D01*
X47334Y-50895D01*
X47297Y-50906D01*
X47259Y-50910D01*
X47222Y-50907D01*
X47185Y-50896D01*
X47151Y-50878D01*
X47121Y-50854D01*
X47096Y-50825D01*
X47077Y-50791D01*
X47066Y-50754D01*
X47062Y-50716D01*
X47065Y-50679D01*
X47075Y-50642D01*
X47093Y-50608D01*
X47117Y-50578D01*
X47146Y-50553D01*
X47180Y-50534D01*
X47216Y-50522D01*
X47254Y-50518D01*
X47292Y-50520D01*
X47329Y-50531D01*
X47363Y-50548D01*
X47393Y-50572D01*
X47418Y-50601D01*
X47437Y-50634D01*
X47450Y-50671D01*
X47454Y-50709D01*
X47455Y-50714D01*
X47061Y-50714D02*
X47455Y-50714D01*
X48413Y-27559D02*
X48409Y-27597D01*
X48397Y-27635D01*
X48379Y-27669D01*
X48354Y-27699D01*
X48324Y-27724D01*
X48290Y-27743D01*
X48253Y-27754D01*
X48214Y-27758D01*
X48176Y-27755D01*
X48139Y-27744D01*
X48104Y-27726D01*
X48074Y-27701D01*
X48048Y-27671D01*
X48030Y-27637D01*
X48018Y-27600D01*
X48014Y-27561D01*
X48017Y-27523D01*
X48028Y-27486D01*
X48045Y-27451D01*
X48070Y-27421D01*
X48099Y-27395D01*
X48133Y-27376D01*
X48171Y-27364D01*
X48209Y-27360D01*
X48247Y-27363D01*
X48285Y-27373D01*
X48320Y-27391D01*
X48350Y-27415D01*
X48376Y-27444D01*
X48395Y-27478D01*
X48408Y-27515D01*
X48412Y-27554D01*
X48413Y-27559D01*
X48213Y-27359D02*
X48213Y-27759D01*
X49413Y-27559D02*
X49409Y-27597D01*
X49397Y-27635D01*
X49379Y-27669D01*
X49354Y-27699D01*
X49324Y-27724D01*
X49290Y-27743D01*
X49253Y-27754D01*
X49214Y-27758D01*
X49176Y-27755D01*
X49139Y-27744D01*
X49104Y-27726D01*
X49074Y-27701D01*
X49048Y-27671D01*
X49030Y-27637D01*
X49018Y-27600D01*
X49014Y-27561D01*
X49017Y-27523D01*
X49028Y-27486D01*
X49045Y-27451D01*
X49070Y-27421D01*
X49099Y-27395D01*
X49133Y-27376D01*
X49171Y-27364D01*
X49209Y-27360D01*
X49247Y-27363D01*
X49285Y-27373D01*
X49320Y-27391D01*
X49350Y-27415D01*
X49376Y-27444D01*
X49395Y-27478D01*
X49408Y-27515D01*
X49412Y-27554D01*
X49413Y-27559D01*
X49213Y-27359D02*
X49213Y-27759D01*
X50413Y-27559D02*
X50409Y-27597D01*
X50397Y-27635D01*
X50379Y-27669D01*
X50354Y-27699D01*
X50324Y-27724D01*
X50290Y-27743D01*
X50253Y-27754D01*
X50214Y-27758D01*
X50176Y-27755D01*
X50139Y-27744D01*
X50104Y-27726D01*
X50074Y-27701D01*
X50048Y-27671D01*
X50030Y-27637D01*
X50018Y-27600D01*
X50014Y-27561D01*
X50017Y-27523D01*
X50028Y-27486D01*
X50045Y-27451D01*
X50070Y-27421D01*
X50099Y-27395D01*
X50133Y-27376D01*
X50171Y-27364D01*
X50209Y-27360D01*
X50247Y-27363D01*
X50285Y-27373D01*
X50320Y-27391D01*
X50350Y-27415D01*
X50376Y-27444D01*
X50395Y-27478D01*
X50408Y-27515D01*
X50412Y-27554D01*
X50413Y-27559D01*
X50213Y-27359D02*
X50213Y-27759D01*
X64161Y-27559D02*
X64157Y-27597D01*
X64145Y-27635D01*
X64127Y-27669D01*
X64102Y-27699D01*
X64072Y-27724D01*
X64038Y-27743D01*
X64001Y-27754D01*
X63962Y-27758D01*
X63924Y-27755D01*
X63887Y-27744D01*
X63852Y-27726D01*
X63822Y-27701D01*
X63796Y-27671D01*
X63778Y-27637D01*
X63766Y-27600D01*
X63762Y-27561D01*
X63765Y-27523D01*
X63776Y-27486D01*
X63793Y-27451D01*
X63818Y-27421D01*
X63847Y-27395D01*
X63881Y-27376D01*
X63919Y-27364D01*
X63957Y-27360D01*
X63995Y-27363D01*
X64033Y-27373D01*
X64068Y-27391D01*
X64098Y-27415D01*
X64124Y-27444D01*
X64143Y-27478D01*
X64156Y-27515D01*
X64160Y-27554D01*
X64161Y-27559D01*
X63961Y-27359D02*
X63961Y-27759D01*
X65161Y-27559D02*
X65157Y-27597D01*
X65145Y-27635D01*
X65127Y-27669D01*
X65102Y-27699D01*
X65072Y-27724D01*
X65038Y-27743D01*
X65001Y-27754D01*
X64962Y-27758D01*
X64924Y-27755D01*
X64887Y-27744D01*
X64852Y-27726D01*
X64822Y-27701D01*
X64796Y-27671D01*
X64778Y-27637D01*
X64766Y-27600D01*
X64762Y-27561D01*
X64765Y-27523D01*
X64776Y-27486D01*
X64793Y-27451D01*
X64818Y-27421D01*
X64847Y-27395D01*
X64881Y-27376D01*
X64919Y-27364D01*
X64957Y-27360D01*
X64995Y-27363D01*
X65033Y-27373D01*
X65068Y-27391D01*
X65098Y-27415D01*
X65124Y-27444D01*
X65143Y-27478D01*
X65156Y-27515D01*
X65160Y-27554D01*
X65161Y-27559D01*
X64961Y-27359D02*
X64961Y-27759D01*
X66161Y-27559D02*
X66157Y-27597D01*
X66145Y-27635D01*
X66127Y-27669D01*
X66102Y-27699D01*
X66072Y-27724D01*
X66038Y-27743D01*
X66001Y-27754D01*
X65962Y-27758D01*
X65924Y-27755D01*
X65887Y-27744D01*
X65852Y-27726D01*
X65822Y-27701D01*
X65796Y-27671D01*
X65778Y-27637D01*
X65766Y-27600D01*
X65762Y-27561D01*
X65765Y-27523D01*
X65776Y-27486D01*
X65793Y-27451D01*
X65818Y-27421D01*
X65847Y-27395D01*
X65881Y-27376D01*
X65919Y-27364D01*
X65957Y-27360D01*
X65995Y-27363D01*
X66033Y-27373D01*
X66068Y-27391D01*
X66098Y-27415D01*
X66124Y-27444D01*
X66143Y-27478D01*
X66156Y-27515D01*
X66160Y-27554D01*
X66161Y-27559D01*
X65961Y-27359D02*
X65961Y-27759D01*
X44829Y-50923D02*
X44829Y-50505D01*
X44411Y-50505D01*
X44411Y-50923D01*
X44829Y-50923D01*
X46089Y-50923D02*
X46089Y-50505D01*
X45671Y-50505D01*
X45671Y-50923D01*
X46089Y-50923D01*
X39370Y-15954D02*
X39970Y-15354D01*
X39370Y-14754D01*
X38770Y-15354D01*
X39370Y-15954D01*
X39370Y-51387D02*
X39970Y-50787D01*
X39370Y-50187D01*
X38770Y-50787D01*
X39370Y-51387D01*
X74803Y-15954D02*
X75403Y-15354D01*
X74803Y-14754D01*
X74203Y-15354D01*
X74803Y-15954D01*
X74803Y-51387D02*
X75403Y-50787D01*
X74803Y-50187D01*
X74203Y-50787D01*
X74803Y-51387D01*
X41896Y-25675D02*
X41896Y-24561D01*
X40782Y-24561D01*
X40782Y-25675D01*
X41896Y-25675D01*
X40552Y-24331D02*
X42126Y-25905D01*
X42126Y-24331D02*
X40552Y-25905D01*
X57644Y-25675D02*
X57644Y-24561D01*
X56530Y-24561D01*
X56530Y-25675D01*
X57644Y-25675D01*
X56300Y-24331D02*
X57874Y-25905D01*
X57874Y-24331D02*
X56300Y-25905D01*
X73392Y-25675D02*
X73392Y-24561D01*
X72278Y-24561D01*
X72278Y-25675D01*
X73392Y-25675D01*
X72048Y-24331D02*
X73622Y-25905D01*
X73622Y-24331D02*
X72048Y-25905D01*
X63400Y-48736D02*
X64236Y-47900D01*
X63400Y-47064D01*
X62564Y-47900D01*
X63400Y-48736D01*
X63400Y-47064D02*
X63400Y-48736D01*
X64236Y-47900D02*
X62564Y-47900D01*
X68800Y-48736D02*
X69636Y-47900D01*
X68800Y-47064D01*
X67964Y-47900D01*
X68800Y-48736D01*
X68800Y-47064D02*
X68800Y-48736D01*
X69636Y-47900D02*
X67964Y-47900D01*
X73500Y-38336D02*
X74336Y-37500D01*
X73500Y-36664D01*
X72664Y-37500D01*
X73500Y-38336D01*
X73500Y-36664D02*
X73500Y-38336D01*
X74336Y-37500D02*
X72664Y-37500D01*
X73500Y-45336D02*
X74336Y-44500D01*
X73500Y-43664D01*
X72664Y-44500D01*
X73500Y-45336D01*
X73500Y-43664D02*
X73500Y-45336D01*
X74336Y-44500D02*
X72664Y-44500D01*
X40631Y-41646D02*
X40631Y-40254D01*
X39239Y-40254D01*
X39239Y-41646D01*
X40631Y-41646D01*
X38951Y-39966D02*
X40919Y-41934D01*
X51261Y-41646D02*
X51261Y-40254D01*
X49869Y-40254D01*
X49869Y-41646D01*
X51261Y-41646D01*
X49581Y-39966D02*
X51549Y-41934D01*
X56000Y-47267D02*
X58067Y-45200D01*
X56000Y-43133D01*
X53933Y-45200D01*
X56000Y-47267D01*
X56000Y-43133D02*
X56000Y-47267D01*
G54D11*
X37711Y-54041D02*
X37711Y-53241D01*
X37902Y-53241D01*
X38016Y-53279D01*
X38092Y-53355D01*
X38131Y-53431D01*
X38169Y-53584D01*
X38169Y-53698D01*
X38131Y-53850D01*
X38092Y-53927D01*
X38016Y-54003D01*
X37902Y-54041D01*
X37711Y-54041D01*
X38511Y-54041D02*
X38511Y-53507D01*
X38511Y-53660D02*
X38550Y-53584D01*
X38588Y-53546D01*
X38664Y-53507D01*
X38740Y-53507D01*
X39006Y-54041D02*
X39006Y-53507D01*
X39006Y-53241D02*
X38968Y-53279D01*
X39006Y-53317D01*
X39045Y-53279D01*
X39006Y-53241D01*
X39006Y-53317D01*
X39502Y-54041D02*
X39426Y-54003D01*
X39387Y-53927D01*
X39387Y-53241D01*
X39921Y-54041D02*
X39845Y-54003D01*
X39806Y-53927D01*
X39806Y-53241D01*
X40835Y-54041D02*
X40835Y-53241D01*
X41102Y-53812D01*
X41369Y-53241D01*
X41369Y-54041D01*
X42092Y-54041D02*
X42092Y-53622D01*
X42054Y-53546D01*
X41978Y-53507D01*
X41826Y-53507D01*
X41749Y-53546D01*
X42092Y-54003D02*
X42016Y-54041D01*
X41826Y-54041D01*
X41749Y-54003D01*
X41711Y-53927D01*
X41711Y-53850D01*
X41749Y-53774D01*
X41826Y-53736D01*
X42016Y-53736D01*
X42092Y-53698D01*
X42473Y-53507D02*
X42473Y-54307D01*
X42473Y-53546D02*
X42550Y-53507D01*
X42702Y-53507D01*
X42778Y-53546D01*
X42816Y-53584D01*
X42854Y-53660D01*
X42854Y-53888D01*
X42816Y-53965D01*
X42778Y-54003D01*
X42702Y-54041D01*
X42550Y-54041D01*
X42473Y-54003D01*
X43197Y-53965D02*
X43236Y-54003D01*
X43197Y-54041D01*
X43159Y-54003D01*
X43197Y-53965D01*
X43197Y-54041D01*
X43197Y-53546D02*
X43236Y-53584D01*
X43197Y-53622D01*
X43159Y-53584D01*
X43197Y-53546D01*
X43197Y-53622D01*
X37121Y-55297D02*
X37321Y-55497D01*
X37321Y-55297D02*
X37121Y-55497D01*
X37864Y-54921D02*
X37940Y-54921D01*
X38016Y-54959D01*
X38054Y-54997D01*
X38092Y-55073D01*
X38131Y-55226D01*
X38131Y-55416D01*
X38092Y-55568D01*
X38054Y-55645D01*
X38016Y-55683D01*
X37940Y-55721D01*
X37864Y-55721D01*
X37788Y-55683D01*
X37750Y-55645D01*
X37711Y-55568D01*
X37673Y-55416D01*
X37673Y-55226D01*
X37711Y-55073D01*
X37750Y-54997D01*
X37788Y-54959D01*
X37864Y-54921D01*
X38473Y-55645D02*
X38512Y-55683D01*
X38473Y-55721D01*
X38435Y-55683D01*
X38473Y-55645D01*
X38473Y-55721D01*
X39007Y-54921D02*
X39083Y-54921D01*
X39159Y-54959D01*
X39197Y-54997D01*
X39235Y-55073D01*
X39274Y-55226D01*
X39274Y-55416D01*
X39235Y-55568D01*
X39197Y-55645D01*
X39159Y-55683D01*
X39083Y-55721D01*
X39007Y-55721D01*
X38931Y-55683D01*
X38893Y-55645D01*
X38854Y-55568D01*
X38816Y-55416D01*
X38816Y-55226D01*
X38854Y-55073D01*
X38893Y-54997D01*
X38931Y-54959D01*
X39007Y-54921D01*
X39578Y-54997D02*
X39616Y-54959D01*
X39693Y-54921D01*
X39883Y-54921D01*
X39959Y-54959D01*
X39997Y-54997D01*
X40036Y-55073D01*
X40036Y-55149D01*
X39997Y-55264D01*
X39540Y-55721D01*
X40036Y-55721D01*
X40531Y-54921D02*
X40607Y-54921D01*
X40683Y-54959D01*
X40721Y-54997D01*
X40759Y-55073D01*
X40798Y-55226D01*
X40798Y-55416D01*
X40759Y-55568D01*
X40721Y-55645D01*
X40683Y-55683D01*
X40607Y-55721D01*
X40531Y-55721D01*
X40455Y-55683D01*
X40417Y-55645D01*
X40378Y-55568D01*
X40340Y-55416D01*
X40340Y-55226D01*
X40378Y-55073D01*
X40417Y-54997D01*
X40455Y-54959D01*
X40531Y-54921D01*
X41102Y-54921D02*
X41102Y-55073D01*
X41407Y-54921D02*
X41407Y-55073D01*
X42932Y-54883D02*
X42246Y-55911D01*
X43961Y-54921D02*
X44037Y-54921D01*
X44113Y-54959D01*
X44151Y-54997D01*
X44189Y-55073D01*
X44228Y-55226D01*
X44228Y-55416D01*
X44189Y-55568D01*
X44151Y-55645D01*
X44113Y-55683D01*
X44037Y-55721D01*
X43961Y-55721D01*
X43885Y-55683D01*
X43847Y-55645D01*
X43808Y-55568D01*
X43770Y-55416D01*
X43770Y-55226D01*
X43808Y-55073D01*
X43847Y-54997D01*
X43885Y-54959D01*
X43961Y-54921D01*
X44570Y-55645D02*
X44609Y-55683D01*
X44570Y-55721D01*
X44532Y-55683D01*
X44570Y-55645D01*
X44570Y-55721D01*
X45332Y-54921D02*
X44951Y-54921D01*
X44913Y-55302D01*
X44951Y-55264D01*
X45028Y-55226D01*
X45218Y-55226D01*
X45294Y-55264D01*
X45332Y-55302D01*
X45371Y-55378D01*
X45371Y-55568D01*
X45332Y-55645D01*
X45294Y-55683D01*
X45218Y-55721D01*
X45028Y-55721D01*
X44951Y-55683D01*
X44913Y-55645D01*
X46133Y-55721D02*
X45675Y-55721D01*
X45904Y-55721D02*
X45904Y-54921D01*
X45828Y-55035D01*
X45752Y-55111D01*
X45675Y-55149D01*
X46475Y-55721D02*
X46475Y-55187D01*
X46475Y-55264D02*
X46514Y-55226D01*
X46590Y-55187D01*
X46704Y-55187D01*
X46780Y-55226D01*
X46818Y-55302D01*
X46818Y-55721D01*
X46818Y-55302D02*
X46856Y-55226D01*
X46933Y-55187D01*
X47047Y-55187D01*
X47123Y-55226D01*
X47161Y-55302D01*
X47161Y-55721D01*
X47542Y-55721D02*
X47542Y-55187D01*
X47542Y-55264D02*
X47581Y-55226D01*
X47657Y-55187D01*
X47771Y-55187D01*
X47847Y-55226D01*
X47885Y-55302D01*
X47885Y-55721D01*
X47885Y-55302D02*
X47923Y-55226D01*
X48000Y-55187D01*
X48114Y-55187D01*
X48190Y-55226D01*
X48228Y-55302D01*
X48228Y-55721D01*
X49448Y-56026D02*
X49410Y-55987D01*
X49334Y-55873D01*
X49296Y-55797D01*
X49258Y-55683D01*
X49219Y-55492D01*
X49219Y-55340D01*
X49258Y-55149D01*
X49296Y-55035D01*
X49334Y-54959D01*
X49410Y-54845D01*
X49448Y-54807D01*
X49676Y-54921D02*
X50210Y-54921D01*
X49867Y-55721D01*
X51124Y-55721D02*
X51124Y-54921D01*
X51467Y-55721D02*
X51467Y-55302D01*
X51429Y-55226D01*
X51353Y-55187D01*
X51239Y-55187D01*
X51163Y-55226D01*
X51124Y-55264D01*
X51963Y-55721D02*
X51887Y-55683D01*
X51848Y-55645D01*
X51810Y-55568D01*
X51810Y-55340D01*
X51848Y-55264D01*
X51887Y-55226D01*
X51963Y-55187D01*
X52077Y-55187D01*
X52153Y-55226D01*
X52191Y-55264D01*
X52229Y-55340D01*
X52229Y-55568D01*
X52191Y-55645D01*
X52153Y-55683D01*
X52077Y-55721D01*
X51963Y-55721D01*
X52687Y-55721D02*
X52611Y-55683D01*
X52572Y-55607D01*
X52572Y-54921D01*
X53296Y-55683D02*
X53220Y-55721D01*
X53068Y-55721D01*
X52991Y-55683D01*
X52953Y-55607D01*
X52953Y-55302D01*
X52991Y-55226D01*
X53068Y-55187D01*
X53220Y-55187D01*
X53296Y-55226D01*
X53334Y-55302D01*
X53334Y-55378D01*
X52953Y-55454D01*
X53639Y-55683D02*
X53716Y-55721D01*
X53868Y-55721D01*
X53944Y-55683D01*
X53982Y-55607D01*
X53982Y-55568D01*
X53944Y-55492D01*
X53868Y-55454D01*
X53754Y-55454D01*
X53677Y-55416D01*
X53639Y-55340D01*
X53639Y-55302D01*
X53677Y-55226D01*
X53754Y-55187D01*
X53868Y-55187D01*
X53944Y-55226D01*
X54249Y-56026D02*
X54287Y-55987D01*
X54364Y-55873D01*
X54402Y-55797D01*
X54440Y-55683D01*
X54478Y-55492D01*
X54478Y-55340D01*
X54440Y-55149D01*
X54402Y-55035D01*
X54364Y-54959D01*
X54287Y-54845D01*
X54249Y-54807D01*
G54D10*
X37321Y-56452D02*
X37318Y-56475D01*
X37311Y-56497D01*
X37300Y-56518D01*
X37286Y-56536D01*
X37268Y-56551D01*
X37247Y-56562D01*
X37225Y-56569D01*
X37201Y-56571D01*
X37179Y-56569D01*
X37157Y-56563D01*
X37136Y-56552D01*
X37118Y-56537D01*
X37102Y-56519D01*
X37091Y-56499D01*
X37084Y-56476D01*
X37082Y-56453D01*
X37083Y-56431D01*
X37090Y-56408D01*
X37101Y-56387D01*
X37115Y-56369D01*
X37133Y-56354D01*
X37153Y-56343D01*
X37176Y-56335D01*
X37199Y-56333D01*
X37221Y-56334D01*
X37244Y-56341D01*
X37265Y-56351D01*
X37283Y-56366D01*
X37299Y-56383D01*
X37310Y-56404D01*
X37318Y-56426D01*
X37320Y-56449D01*
X37321Y-56452D01*
G54D11*
X37864Y-55976D02*
X37940Y-55976D01*
X38016Y-56014D01*
X38054Y-56052D01*
X38092Y-56128D01*
X38131Y-56281D01*
X38131Y-56471D01*
X38092Y-56623D01*
X38054Y-56700D01*
X38016Y-56738D01*
X37940Y-56776D01*
X37864Y-56776D01*
X37788Y-56738D01*
X37750Y-56700D01*
X37711Y-56623D01*
X37673Y-56471D01*
X37673Y-56281D01*
X37711Y-56128D01*
X37750Y-56052D01*
X37788Y-56014D01*
X37864Y-55976D01*
X38473Y-56700D02*
X38512Y-56738D01*
X38473Y-56776D01*
X38435Y-56738D01*
X38473Y-56700D01*
X38473Y-56776D01*
X39007Y-55976D02*
X39083Y-55976D01*
X39159Y-56014D01*
X39197Y-56052D01*
X39235Y-56128D01*
X39274Y-56281D01*
X39274Y-56471D01*
X39235Y-56623D01*
X39197Y-56700D01*
X39159Y-56738D01*
X39083Y-56776D01*
X39007Y-56776D01*
X38931Y-56738D01*
X38893Y-56700D01*
X38854Y-56623D01*
X38816Y-56471D01*
X38816Y-56281D01*
X38854Y-56128D01*
X38893Y-56052D01*
X38931Y-56014D01*
X39007Y-55976D01*
X39578Y-56052D02*
X39616Y-56014D01*
X39693Y-55976D01*
X39883Y-55976D01*
X39959Y-56014D01*
X39997Y-56052D01*
X40036Y-56128D01*
X40036Y-56204D01*
X39997Y-56319D01*
X39540Y-56776D01*
X40036Y-56776D01*
X40721Y-56242D02*
X40721Y-56776D01*
X40531Y-55938D02*
X40340Y-56509D01*
X40836Y-56509D01*
X41102Y-55976D02*
X41102Y-56128D01*
X41407Y-55976D02*
X41407Y-56128D01*
X42932Y-55938D02*
X42246Y-56966D01*
X43961Y-55976D02*
X44037Y-55976D01*
X44113Y-56014D01*
X44151Y-56052D01*
X44189Y-56128D01*
X44228Y-56281D01*
X44228Y-56471D01*
X44189Y-56623D01*
X44151Y-56700D01*
X44113Y-56738D01*
X44037Y-56776D01*
X43961Y-56776D01*
X43885Y-56738D01*
X43847Y-56700D01*
X43808Y-56623D01*
X43770Y-56471D01*
X43770Y-56281D01*
X43808Y-56128D01*
X43847Y-56052D01*
X43885Y-56014D01*
X43961Y-55976D01*
X44570Y-56700D02*
X44609Y-56738D01*
X44570Y-56776D01*
X44532Y-56738D01*
X44570Y-56700D01*
X44570Y-56776D01*
X45294Y-55976D02*
X45142Y-55976D01*
X45066Y-56014D01*
X45028Y-56052D01*
X44951Y-56166D01*
X44913Y-56319D01*
X44913Y-56623D01*
X44951Y-56700D01*
X44990Y-56738D01*
X45066Y-56776D01*
X45218Y-56776D01*
X45294Y-56738D01*
X45332Y-56700D01*
X45371Y-56623D01*
X45371Y-56433D01*
X45332Y-56357D01*
X45294Y-56319D01*
X45218Y-56281D01*
X45066Y-56281D01*
X44990Y-56319D01*
X44951Y-56357D01*
X44913Y-56433D01*
X46133Y-56776D02*
X45675Y-56776D01*
X45904Y-56776D02*
X45904Y-55976D01*
X45828Y-56090D01*
X45752Y-56166D01*
X45675Y-56204D01*
X46475Y-56776D02*
X46475Y-56242D01*
X46475Y-56319D02*
X46514Y-56281D01*
X46590Y-56242D01*
X46704Y-56242D01*
X46780Y-56281D01*
X46818Y-56357D01*
X46818Y-56776D01*
X46818Y-56357D02*
X46856Y-56281D01*
X46933Y-56242D01*
X47047Y-56242D01*
X47123Y-56281D01*
X47161Y-56357D01*
X47161Y-56776D01*
X47542Y-56776D02*
X47542Y-56242D01*
X47542Y-56319D02*
X47581Y-56281D01*
X47657Y-56242D01*
X47771Y-56242D01*
X47847Y-56281D01*
X47885Y-56357D01*
X47885Y-56776D01*
X47885Y-56357D02*
X47923Y-56281D01*
X48000Y-56242D01*
X48114Y-56242D01*
X48190Y-56281D01*
X48228Y-56357D01*
X48228Y-56776D01*
X49448Y-57081D02*
X49410Y-57042D01*
X49334Y-56928D01*
X49296Y-56852D01*
X49258Y-56738D01*
X49219Y-56547D01*
X49219Y-56395D01*
X49258Y-56204D01*
X49296Y-56090D01*
X49334Y-56014D01*
X49410Y-55900D01*
X49448Y-55862D01*
X49676Y-55976D02*
X50172Y-55976D01*
X49905Y-56281D01*
X50019Y-56281D01*
X50095Y-56319D01*
X50133Y-56357D01*
X50172Y-56433D01*
X50172Y-56623D01*
X50133Y-56700D01*
X50095Y-56738D01*
X50019Y-56776D01*
X49791Y-56776D01*
X49714Y-56738D01*
X49676Y-56700D01*
X51124Y-56776D02*
X51124Y-55976D01*
X51467Y-56776D02*
X51467Y-56357D01*
X51429Y-56281D01*
X51353Y-56242D01*
X51239Y-56242D01*
X51163Y-56281D01*
X51124Y-56319D01*
X51963Y-56776D02*
X51887Y-56738D01*
X51848Y-56700D01*
X51810Y-56623D01*
X51810Y-56395D01*
X51848Y-56319D01*
X51887Y-56281D01*
X51963Y-56242D01*
X52077Y-56242D01*
X52153Y-56281D01*
X52191Y-56319D01*
X52229Y-56395D01*
X52229Y-56623D01*
X52191Y-56700D01*
X52153Y-56738D01*
X52077Y-56776D01*
X51963Y-56776D01*
X52687Y-56776D02*
X52611Y-56738D01*
X52572Y-56662D01*
X52572Y-55976D01*
X53296Y-56738D02*
X53220Y-56776D01*
X53068Y-56776D01*
X52991Y-56738D01*
X52953Y-56662D01*
X52953Y-56357D01*
X52991Y-56281D01*
X53068Y-56242D01*
X53220Y-56242D01*
X53296Y-56281D01*
X53334Y-56357D01*
X53334Y-56433D01*
X52953Y-56509D01*
X53639Y-56738D02*
X53716Y-56776D01*
X53868Y-56776D01*
X53944Y-56738D01*
X53982Y-56662D01*
X53982Y-56623D01*
X53944Y-56547D01*
X53868Y-56509D01*
X53754Y-56509D01*
X53677Y-56471D01*
X53639Y-56395D01*
X53639Y-56357D01*
X53677Y-56281D01*
X53754Y-56242D01*
X53868Y-56242D01*
X53944Y-56281D01*
X54249Y-57081D02*
X54287Y-57042D01*
X54364Y-56928D01*
X54402Y-56852D01*
X54440Y-56738D01*
X54478Y-56547D01*
X54478Y-56395D01*
X54440Y-56204D01*
X54402Y-56090D01*
X54364Y-56014D01*
X54287Y-55900D01*
X54249Y-55862D01*
X37163Y-57350D02*
X37163Y-57664D01*
X37320Y-57507D02*
X37006Y-57507D01*
X37864Y-57031D02*
X37940Y-57031D01*
X38016Y-57069D01*
X38054Y-57107D01*
X38092Y-57183D01*
X38131Y-57336D01*
X38131Y-57526D01*
X38092Y-57678D01*
X38054Y-57755D01*
X38016Y-57793D01*
X37940Y-57831D01*
X37864Y-57831D01*
X37788Y-57793D01*
X37750Y-57755D01*
X37711Y-57678D01*
X37673Y-57526D01*
X37673Y-57336D01*
X37711Y-57183D01*
X37750Y-57107D01*
X37788Y-57069D01*
X37864Y-57031D01*
X38473Y-57755D02*
X38512Y-57793D01*
X38473Y-57831D01*
X38435Y-57793D01*
X38473Y-57755D01*
X38473Y-57831D01*
X39007Y-57031D02*
X39083Y-57031D01*
X39159Y-57069D01*
X39197Y-57107D01*
X39235Y-57183D01*
X39274Y-57336D01*
X39274Y-57526D01*
X39235Y-57678D01*
X39197Y-57755D01*
X39159Y-57793D01*
X39083Y-57831D01*
X39007Y-57831D01*
X38931Y-57793D01*
X38893Y-57755D01*
X38854Y-57678D01*
X38816Y-57526D01*
X38816Y-57336D01*
X38854Y-57183D01*
X38893Y-57107D01*
X38931Y-57069D01*
X39007Y-57031D01*
X39540Y-57031D02*
X40036Y-57031D01*
X39769Y-57336D01*
X39883Y-57336D01*
X39959Y-57374D01*
X39997Y-57412D01*
X40036Y-57488D01*
X40036Y-57678D01*
X39997Y-57755D01*
X39959Y-57793D01*
X39883Y-57831D01*
X39655Y-57831D01*
X39578Y-57793D01*
X39540Y-57755D01*
X40340Y-57107D02*
X40378Y-57069D01*
X40455Y-57031D01*
X40645Y-57031D01*
X40721Y-57069D01*
X40759Y-57107D01*
X40798Y-57183D01*
X40798Y-57259D01*
X40759Y-57374D01*
X40302Y-57831D01*
X40798Y-57831D01*
X41102Y-57031D02*
X41102Y-57183D01*
X41407Y-57031D02*
X41407Y-57183D01*
X42932Y-56993D02*
X42246Y-58021D01*
X43961Y-57031D02*
X44037Y-57031D01*
X44113Y-57069D01*
X44151Y-57107D01*
X44189Y-57183D01*
X44228Y-57336D01*
X44228Y-57526D01*
X44189Y-57678D01*
X44151Y-57755D01*
X44113Y-57793D01*
X44037Y-57831D01*
X43961Y-57831D01*
X43885Y-57793D01*
X43847Y-57755D01*
X43808Y-57678D01*
X43770Y-57526D01*
X43770Y-57336D01*
X43808Y-57183D01*
X43847Y-57107D01*
X43885Y-57069D01*
X43961Y-57031D01*
X44570Y-57755D02*
X44609Y-57793D01*
X44570Y-57831D01*
X44532Y-57793D01*
X44570Y-57755D01*
X44570Y-57831D01*
X45066Y-57374D02*
X44990Y-57336D01*
X44951Y-57297D01*
X44913Y-57221D01*
X44913Y-57183D01*
X44951Y-57107D01*
X44990Y-57069D01*
X45066Y-57031D01*
X45218Y-57031D01*
X45294Y-57069D01*
X45332Y-57107D01*
X45371Y-57183D01*
X45371Y-57221D01*
X45332Y-57297D01*
X45294Y-57336D01*
X45218Y-57374D01*
X45066Y-57374D01*
X44990Y-57412D01*
X44951Y-57450D01*
X44913Y-57526D01*
X44913Y-57678D01*
X44951Y-57755D01*
X44990Y-57793D01*
X45066Y-57831D01*
X45218Y-57831D01*
X45294Y-57793D01*
X45332Y-57755D01*
X45371Y-57678D01*
X45371Y-57526D01*
X45332Y-57450D01*
X45294Y-57412D01*
X45218Y-57374D01*
X45866Y-57031D02*
X45942Y-57031D01*
X46018Y-57069D01*
X46056Y-57107D01*
X46094Y-57183D01*
X46133Y-57336D01*
X46133Y-57526D01*
X46094Y-57678D01*
X46056Y-57755D01*
X46018Y-57793D01*
X45942Y-57831D01*
X45866Y-57831D01*
X45790Y-57793D01*
X45752Y-57755D01*
X45713Y-57678D01*
X45675Y-57526D01*
X45675Y-57336D01*
X45713Y-57183D01*
X45752Y-57107D01*
X45790Y-57069D01*
X45866Y-57031D01*
X46475Y-57831D02*
X46475Y-57297D01*
X46475Y-57374D02*
X46514Y-57336D01*
X46590Y-57297D01*
X46704Y-57297D01*
X46780Y-57336D01*
X46818Y-57412D01*
X46818Y-57831D01*
X46818Y-57412D02*
X46856Y-57336D01*
X46933Y-57297D01*
X47047Y-57297D01*
X47123Y-57336D01*
X47161Y-57412D01*
X47161Y-57831D01*
X47542Y-57831D02*
X47542Y-57297D01*
X47542Y-57374D02*
X47581Y-57336D01*
X47657Y-57297D01*
X47771Y-57297D01*
X47847Y-57336D01*
X47885Y-57412D01*
X47885Y-57831D01*
X47885Y-57412D02*
X47923Y-57336D01*
X48000Y-57297D01*
X48114Y-57297D01*
X48190Y-57336D01*
X48228Y-57412D01*
X48228Y-57831D01*
X49448Y-58136D02*
X49410Y-58097D01*
X49334Y-57983D01*
X49296Y-57907D01*
X49258Y-57793D01*
X49219Y-57602D01*
X49219Y-57450D01*
X49258Y-57259D01*
X49296Y-57145D01*
X49334Y-57069D01*
X49410Y-56955D01*
X49448Y-56917D01*
X49676Y-57031D02*
X50172Y-57031D01*
X49905Y-57336D01*
X50019Y-57336D01*
X50095Y-57374D01*
X50133Y-57412D01*
X50172Y-57488D01*
X50172Y-57678D01*
X50133Y-57755D01*
X50095Y-57793D01*
X50019Y-57831D01*
X49791Y-57831D01*
X49714Y-57793D01*
X49676Y-57755D01*
X51124Y-57831D02*
X51124Y-57031D01*
X51467Y-57831D02*
X51467Y-57412D01*
X51429Y-57336D01*
X51353Y-57297D01*
X51239Y-57297D01*
X51163Y-57336D01*
X51124Y-57374D01*
X51963Y-57831D02*
X51887Y-57793D01*
X51848Y-57755D01*
X51810Y-57678D01*
X51810Y-57450D01*
X51848Y-57374D01*
X51887Y-57336D01*
X51963Y-57297D01*
X52077Y-57297D01*
X52153Y-57336D01*
X52191Y-57374D01*
X52229Y-57450D01*
X52229Y-57678D01*
X52191Y-57755D01*
X52153Y-57793D01*
X52077Y-57831D01*
X51963Y-57831D01*
X52687Y-57831D02*
X52611Y-57793D01*
X52572Y-57717D01*
X52572Y-57031D01*
X53296Y-57793D02*
X53220Y-57831D01*
X53068Y-57831D01*
X52991Y-57793D01*
X52953Y-57717D01*
X52953Y-57412D01*
X52991Y-57336D01*
X53068Y-57297D01*
X53220Y-57297D01*
X53296Y-57336D01*
X53334Y-57412D01*
X53334Y-57488D01*
X52953Y-57564D01*
X53639Y-57793D02*
X53716Y-57831D01*
X53868Y-57831D01*
X53944Y-57793D01*
X53982Y-57717D01*
X53982Y-57678D01*
X53944Y-57602D01*
X53868Y-57564D01*
X53754Y-57564D01*
X53677Y-57526D01*
X53639Y-57450D01*
X53639Y-57412D01*
X53677Y-57336D01*
X53754Y-57297D01*
X53868Y-57297D01*
X53944Y-57336D01*
X54249Y-58136D02*
X54287Y-58097D01*
X54364Y-57983D01*
X54402Y-57907D01*
X54440Y-57793D01*
X54478Y-57602D01*
X54478Y-57450D01*
X54440Y-57259D01*
X54402Y-57145D01*
X54364Y-57069D01*
X54287Y-56955D01*
X54249Y-56917D01*
G54D10*
X37321Y-58562D02*
X37317Y-58593D01*
X37308Y-58622D01*
X37294Y-58650D01*
X37274Y-58674D01*
X37250Y-58694D01*
X37223Y-58709D01*
X37193Y-58718D01*
X37162Y-58721D01*
X37132Y-58719D01*
X37102Y-58710D01*
X37074Y-58695D01*
X37050Y-58676D01*
X37029Y-58652D01*
X37014Y-58625D01*
X37005Y-58595D01*
X37002Y-58564D01*
X37004Y-58534D01*
X37013Y-58504D01*
X37027Y-58476D01*
X37046Y-58451D01*
X37070Y-58431D01*
X37097Y-58416D01*
X37127Y-58406D01*
X37158Y-58403D01*
X37188Y-58405D01*
X37218Y-58413D01*
X37246Y-58427D01*
X37271Y-58447D01*
X37291Y-58470D01*
X37307Y-58497D01*
X37317Y-58527D01*
X37320Y-58558D01*
X37321Y-58562D01*
X37001Y-58402D02*
X37321Y-58722D01*
X37321Y-58402D02*
X37001Y-58722D01*
G54D11*
X37864Y-58086D02*
X37940Y-58086D01*
X38016Y-58124D01*
X38054Y-58162D01*
X38092Y-58238D01*
X38131Y-58391D01*
X38131Y-58581D01*
X38092Y-58733D01*
X38054Y-58810D01*
X38016Y-58848D01*
X37940Y-58886D01*
X37864Y-58886D01*
X37788Y-58848D01*
X37750Y-58810D01*
X37711Y-58733D01*
X37673Y-58581D01*
X37673Y-58391D01*
X37711Y-58238D01*
X37750Y-58162D01*
X37788Y-58124D01*
X37864Y-58086D01*
X38473Y-58810D02*
X38512Y-58848D01*
X38473Y-58886D01*
X38435Y-58848D01*
X38473Y-58810D01*
X38473Y-58886D01*
X39007Y-58086D02*
X39083Y-58086D01*
X39159Y-58124D01*
X39197Y-58162D01*
X39235Y-58238D01*
X39274Y-58391D01*
X39274Y-58581D01*
X39235Y-58733D01*
X39197Y-58810D01*
X39159Y-58848D01*
X39083Y-58886D01*
X39007Y-58886D01*
X38931Y-58848D01*
X38893Y-58810D01*
X38854Y-58733D01*
X38816Y-58581D01*
X38816Y-58391D01*
X38854Y-58238D01*
X38893Y-58162D01*
X38931Y-58124D01*
X39007Y-58086D01*
X39540Y-58086D02*
X40036Y-58086D01*
X39769Y-58391D01*
X39883Y-58391D01*
X39959Y-58429D01*
X39997Y-58467D01*
X40036Y-58543D01*
X40036Y-58733D01*
X39997Y-58810D01*
X39959Y-58848D01*
X39883Y-58886D01*
X39655Y-58886D01*
X39578Y-58848D01*
X39540Y-58810D01*
X40340Y-58162D02*
X40378Y-58124D01*
X40455Y-58086D01*
X40645Y-58086D01*
X40721Y-58124D01*
X40759Y-58162D01*
X40798Y-58238D01*
X40798Y-58314D01*
X40759Y-58429D01*
X40302Y-58886D01*
X40798Y-58886D01*
X41102Y-58086D02*
X41102Y-58238D01*
X41407Y-58086D02*
X41407Y-58238D01*
X42932Y-58048D02*
X42246Y-59076D01*
X43961Y-58086D02*
X44037Y-58086D01*
X44113Y-58124D01*
X44151Y-58162D01*
X44189Y-58238D01*
X44228Y-58391D01*
X44228Y-58581D01*
X44189Y-58733D01*
X44151Y-58810D01*
X44113Y-58848D01*
X44037Y-58886D01*
X43961Y-58886D01*
X43885Y-58848D01*
X43847Y-58810D01*
X43808Y-58733D01*
X43770Y-58581D01*
X43770Y-58391D01*
X43808Y-58238D01*
X43847Y-58162D01*
X43885Y-58124D01*
X43961Y-58086D01*
X44570Y-58810D02*
X44609Y-58848D01*
X44570Y-58886D01*
X44532Y-58848D01*
X44570Y-58810D01*
X44570Y-58886D01*
X45066Y-58429D02*
X44990Y-58391D01*
X44951Y-58352D01*
X44913Y-58276D01*
X44913Y-58238D01*
X44951Y-58162D01*
X44990Y-58124D01*
X45066Y-58086D01*
X45218Y-58086D01*
X45294Y-58124D01*
X45332Y-58162D01*
X45371Y-58238D01*
X45371Y-58276D01*
X45332Y-58352D01*
X45294Y-58391D01*
X45218Y-58429D01*
X45066Y-58429D01*
X44990Y-58467D01*
X44951Y-58505D01*
X44913Y-58581D01*
X44913Y-58733D01*
X44951Y-58810D01*
X44990Y-58848D01*
X45066Y-58886D01*
X45218Y-58886D01*
X45294Y-58848D01*
X45332Y-58810D01*
X45371Y-58733D01*
X45371Y-58581D01*
X45332Y-58505D01*
X45294Y-58467D01*
X45218Y-58429D01*
X46133Y-58886D02*
X45675Y-58886D01*
X45904Y-58886D02*
X45904Y-58086D01*
X45828Y-58200D01*
X45752Y-58276D01*
X45675Y-58314D01*
X46475Y-58886D02*
X46475Y-58352D01*
X46475Y-58429D02*
X46514Y-58391D01*
X46590Y-58352D01*
X46704Y-58352D01*
X46780Y-58391D01*
X46818Y-58467D01*
X46818Y-58886D01*
X46818Y-58467D02*
X46856Y-58391D01*
X46933Y-58352D01*
X47047Y-58352D01*
X47123Y-58391D01*
X47161Y-58467D01*
X47161Y-58886D01*
X47542Y-58886D02*
X47542Y-58352D01*
X47542Y-58429D02*
X47581Y-58391D01*
X47657Y-58352D01*
X47771Y-58352D01*
X47847Y-58391D01*
X47885Y-58467D01*
X47885Y-58886D01*
X47885Y-58467D02*
X47923Y-58391D01*
X48000Y-58352D01*
X48114Y-58352D01*
X48190Y-58391D01*
X48228Y-58467D01*
X48228Y-58886D01*
X49448Y-59191D02*
X49410Y-59152D01*
X49334Y-59038D01*
X49296Y-58962D01*
X49258Y-58848D01*
X49219Y-58657D01*
X49219Y-58505D01*
X49258Y-58314D01*
X49296Y-58200D01*
X49334Y-58124D01*
X49410Y-58010D01*
X49448Y-57972D01*
X50172Y-58886D02*
X49714Y-58886D01*
X49943Y-58886D02*
X49943Y-58086D01*
X49867Y-58200D01*
X49791Y-58276D01*
X49714Y-58314D01*
X50934Y-58886D02*
X50476Y-58886D01*
X50705Y-58886D02*
X50705Y-58086D01*
X50629Y-58200D01*
X50553Y-58276D01*
X50476Y-58314D01*
X51886Y-58886D02*
X51886Y-58086D01*
X52229Y-58886D02*
X52229Y-58467D01*
X52191Y-58391D01*
X52115Y-58352D01*
X52001Y-58352D01*
X51925Y-58391D01*
X51886Y-58429D01*
X52725Y-58886D02*
X52649Y-58848D01*
X52610Y-58810D01*
X52572Y-58733D01*
X52572Y-58505D01*
X52610Y-58429D01*
X52649Y-58391D01*
X52725Y-58352D01*
X52839Y-58352D01*
X52915Y-58391D01*
X52953Y-58429D01*
X52991Y-58505D01*
X52991Y-58733D01*
X52953Y-58810D01*
X52915Y-58848D01*
X52839Y-58886D01*
X52725Y-58886D01*
X53449Y-58886D02*
X53373Y-58848D01*
X53334Y-58772D01*
X53334Y-58086D01*
X54058Y-58848D02*
X53982Y-58886D01*
X53830Y-58886D01*
X53753Y-58848D01*
X53715Y-58772D01*
X53715Y-58467D01*
X53753Y-58391D01*
X53830Y-58352D01*
X53982Y-58352D01*
X54058Y-58391D01*
X54096Y-58467D01*
X54096Y-58543D01*
X53715Y-58619D01*
X54401Y-58848D02*
X54478Y-58886D01*
X54630Y-58886D01*
X54706Y-58848D01*
X54744Y-58772D01*
X54744Y-58733D01*
X54706Y-58657D01*
X54630Y-58619D01*
X54516Y-58619D01*
X54439Y-58581D01*
X54401Y-58505D01*
X54401Y-58467D01*
X54439Y-58391D01*
X54516Y-58352D01*
X54630Y-58352D01*
X54706Y-58391D01*
X55011Y-59191D02*
X55049Y-59152D01*
X55126Y-59038D01*
X55164Y-58962D01*
X55202Y-58848D01*
X55240Y-58657D01*
X55240Y-58505D01*
X55202Y-58314D01*
X55164Y-58200D01*
X55126Y-58124D01*
X55049Y-58010D01*
X55011Y-57972D01*
G54D10*
X37321Y-59617D02*
X37317Y-59655D01*
X37306Y-59692D01*
X37288Y-59726D01*
X37263Y-59755D01*
X37234Y-59780D01*
X37200Y-59798D01*
X37163Y-59809D01*
X37125Y-59813D01*
X37088Y-59810D01*
X37051Y-59799D01*
X37017Y-59781D01*
X36987Y-59757D01*
X36962Y-59728D01*
X36943Y-59694D01*
X36932Y-59657D01*
X36928Y-59619D01*
X36931Y-59582D01*
X36941Y-59545D01*
X36959Y-59511D01*
X36983Y-59481D01*
X37012Y-59456D01*
X37046Y-59437D01*
X37082Y-59425D01*
X37120Y-59421D01*
X37158Y-59423D01*
X37195Y-59434D01*
X37229Y-59451D01*
X37259Y-59475D01*
X37284Y-59504D01*
X37303Y-59537D01*
X37316Y-59574D01*
X37320Y-59612D01*
X37321Y-59617D01*
X36927Y-59617D02*
X37321Y-59617D01*
G54D11*
X37864Y-59141D02*
X37940Y-59141D01*
X38016Y-59179D01*
X38054Y-59217D01*
X38092Y-59293D01*
X38131Y-59446D01*
X38131Y-59636D01*
X38092Y-59788D01*
X38054Y-59865D01*
X38016Y-59903D01*
X37940Y-59941D01*
X37864Y-59941D01*
X37788Y-59903D01*
X37750Y-59865D01*
X37711Y-59788D01*
X37673Y-59636D01*
X37673Y-59446D01*
X37711Y-59293D01*
X37750Y-59217D01*
X37788Y-59179D01*
X37864Y-59141D01*
X38473Y-59865D02*
X38512Y-59903D01*
X38473Y-59941D01*
X38435Y-59903D01*
X38473Y-59865D01*
X38473Y-59941D01*
X39007Y-59141D02*
X39083Y-59141D01*
X39159Y-59179D01*
X39197Y-59217D01*
X39235Y-59293D01*
X39274Y-59446D01*
X39274Y-59636D01*
X39235Y-59788D01*
X39197Y-59865D01*
X39159Y-59903D01*
X39083Y-59941D01*
X39007Y-59941D01*
X38931Y-59903D01*
X38893Y-59865D01*
X38854Y-59788D01*
X38816Y-59636D01*
X38816Y-59446D01*
X38854Y-59293D01*
X38893Y-59217D01*
X38931Y-59179D01*
X39007Y-59141D01*
X39540Y-59141D02*
X40036Y-59141D01*
X39769Y-59446D01*
X39883Y-59446D01*
X39959Y-59484D01*
X39997Y-59522D01*
X40036Y-59598D01*
X40036Y-59788D01*
X39997Y-59865D01*
X39959Y-59903D01*
X39883Y-59941D01*
X39655Y-59941D01*
X39578Y-59903D01*
X39540Y-59865D01*
X40417Y-59941D02*
X40569Y-59941D01*
X40645Y-59903D01*
X40683Y-59865D01*
X40759Y-59750D01*
X40798Y-59598D01*
X40798Y-59293D01*
X40759Y-59217D01*
X40721Y-59179D01*
X40645Y-59141D01*
X40493Y-59141D01*
X40417Y-59179D01*
X40378Y-59217D01*
X40340Y-59293D01*
X40340Y-59484D01*
X40378Y-59560D01*
X40417Y-59598D01*
X40493Y-59636D01*
X40645Y-59636D01*
X40721Y-59598D01*
X40759Y-59560D01*
X40798Y-59484D01*
X41102Y-59141D02*
X41102Y-59293D01*
X41407Y-59141D02*
X41407Y-59293D01*
X42932Y-59103D02*
X42246Y-60131D01*
X44228Y-59941D02*
X43770Y-59941D01*
X43999Y-59941D02*
X43999Y-59141D01*
X43923Y-59255D01*
X43847Y-59331D01*
X43770Y-59369D01*
X44570Y-59865D02*
X44609Y-59903D01*
X44570Y-59941D01*
X44532Y-59903D01*
X44570Y-59865D01*
X44570Y-59941D01*
X45104Y-59141D02*
X45180Y-59141D01*
X45256Y-59179D01*
X45294Y-59217D01*
X45332Y-59293D01*
X45371Y-59446D01*
X45371Y-59636D01*
X45332Y-59788D01*
X45294Y-59865D01*
X45256Y-59903D01*
X45180Y-59941D01*
X45104Y-59941D01*
X45028Y-59903D01*
X44990Y-59865D01*
X44951Y-59788D01*
X44913Y-59636D01*
X44913Y-59446D01*
X44951Y-59293D01*
X44990Y-59217D01*
X45028Y-59179D01*
X45104Y-59141D01*
X45866Y-59141D02*
X45942Y-59141D01*
X46018Y-59179D01*
X46056Y-59217D01*
X46094Y-59293D01*
X46133Y-59446D01*
X46133Y-59636D01*
X46094Y-59788D01*
X46056Y-59865D01*
X46018Y-59903D01*
X45942Y-59941D01*
X45866Y-59941D01*
X45790Y-59903D01*
X45752Y-59865D01*
X45713Y-59788D01*
X45675Y-59636D01*
X45675Y-59446D01*
X45713Y-59293D01*
X45752Y-59217D01*
X45790Y-59179D01*
X45866Y-59141D01*
X46475Y-59941D02*
X46475Y-59407D01*
X46475Y-59484D02*
X46514Y-59446D01*
X46590Y-59407D01*
X46704Y-59407D01*
X46780Y-59446D01*
X46818Y-59522D01*
X46818Y-59941D01*
X46818Y-59522D02*
X46856Y-59446D01*
X46933Y-59407D01*
X47047Y-59407D01*
X47123Y-59446D01*
X47161Y-59522D01*
X47161Y-59941D01*
X47542Y-59941D02*
X47542Y-59407D01*
X47542Y-59484D02*
X47581Y-59446D01*
X47657Y-59407D01*
X47771Y-59407D01*
X47847Y-59446D01*
X47885Y-59522D01*
X47885Y-59941D01*
X47885Y-59522D02*
X47923Y-59446D01*
X48000Y-59407D01*
X48114Y-59407D01*
X48190Y-59446D01*
X48228Y-59522D01*
X48228Y-59941D01*
X49448Y-60246D02*
X49410Y-60207D01*
X49334Y-60093D01*
X49296Y-60017D01*
X49258Y-59903D01*
X49219Y-59712D01*
X49219Y-59560D01*
X49258Y-59369D01*
X49296Y-59255D01*
X49334Y-59179D01*
X49410Y-59065D01*
X49448Y-59027D01*
X49714Y-59217D02*
X49752Y-59179D01*
X49829Y-59141D01*
X50019Y-59141D01*
X50095Y-59179D01*
X50133Y-59217D01*
X50172Y-59293D01*
X50172Y-59369D01*
X50133Y-59484D01*
X49676Y-59941D01*
X50172Y-59941D01*
X51124Y-59941D02*
X51124Y-59141D01*
X51467Y-59941D02*
X51467Y-59522D01*
X51429Y-59446D01*
X51353Y-59407D01*
X51239Y-59407D01*
X51163Y-59446D01*
X51124Y-59484D01*
X51963Y-59941D02*
X51887Y-59903D01*
X51848Y-59865D01*
X51810Y-59788D01*
X51810Y-59560D01*
X51848Y-59484D01*
X51887Y-59446D01*
X51963Y-59407D01*
X52077Y-59407D01*
X52153Y-59446D01*
X52191Y-59484D01*
X52229Y-59560D01*
X52229Y-59788D01*
X52191Y-59865D01*
X52153Y-59903D01*
X52077Y-59941D01*
X51963Y-59941D01*
X52687Y-59941D02*
X52611Y-59903D01*
X52572Y-59827D01*
X52572Y-59141D01*
X53296Y-59903D02*
X53220Y-59941D01*
X53068Y-59941D01*
X52991Y-59903D01*
X52953Y-59827D01*
X52953Y-59522D01*
X52991Y-59446D01*
X53068Y-59407D01*
X53220Y-59407D01*
X53296Y-59446D01*
X53334Y-59522D01*
X53334Y-59598D01*
X52953Y-59674D01*
X53639Y-59903D02*
X53716Y-59941D01*
X53868Y-59941D01*
X53944Y-59903D01*
X53982Y-59827D01*
X53982Y-59788D01*
X53944Y-59712D01*
X53868Y-59674D01*
X53754Y-59674D01*
X53677Y-59636D01*
X53639Y-59560D01*
X53639Y-59522D01*
X53677Y-59446D01*
X53754Y-59407D01*
X53868Y-59407D01*
X53944Y-59446D01*
X54249Y-60246D02*
X54287Y-60207D01*
X54364Y-60093D01*
X54402Y-60017D01*
X54440Y-59903D01*
X54478Y-59712D01*
X54478Y-59560D01*
X54440Y-59369D01*
X54402Y-59255D01*
X54364Y-59179D01*
X54287Y-59065D01*
X54249Y-59027D01*
G54D10*
X37321Y-60672D02*
X37317Y-60710D01*
X37305Y-60748D01*
X37287Y-60782D01*
X37262Y-60812D01*
X37232Y-60837D01*
X37198Y-60856D01*
X37161Y-60867D01*
X37122Y-60871D01*
X37084Y-60868D01*
X37047Y-60857D01*
X37012Y-60839D01*
X36982Y-60814D01*
X36956Y-60784D01*
X36938Y-60750D01*
X36926Y-60713D01*
X36922Y-60674D01*
X36925Y-60636D01*
X36936Y-60599D01*
X36953Y-60564D01*
X36978Y-60534D01*
X37007Y-60508D01*
X37041Y-60489D01*
X37079Y-60477D01*
X37117Y-60473D01*
X37155Y-60476D01*
X37193Y-60486D01*
X37228Y-60504D01*
X37258Y-60528D01*
X37284Y-60557D01*
X37303Y-60591D01*
X37316Y-60628D01*
X37320Y-60667D01*
X37321Y-60672D01*
X37121Y-60472D02*
X37121Y-60872D01*
G54D11*
X37864Y-60196D02*
X37940Y-60196D01*
X38016Y-60234D01*
X38054Y-60272D01*
X38092Y-60348D01*
X38131Y-60501D01*
X38131Y-60691D01*
X38092Y-60843D01*
X38054Y-60920D01*
X38016Y-60958D01*
X37940Y-60996D01*
X37864Y-60996D01*
X37788Y-60958D01*
X37750Y-60920D01*
X37711Y-60843D01*
X37673Y-60691D01*
X37673Y-60501D01*
X37711Y-60348D01*
X37750Y-60272D01*
X37788Y-60234D01*
X37864Y-60196D01*
X38473Y-60920D02*
X38512Y-60958D01*
X38473Y-60996D01*
X38435Y-60958D01*
X38473Y-60920D01*
X38473Y-60996D01*
X39007Y-60196D02*
X39083Y-60196D01*
X39159Y-60234D01*
X39197Y-60272D01*
X39235Y-60348D01*
X39274Y-60501D01*
X39274Y-60691D01*
X39235Y-60843D01*
X39197Y-60920D01*
X39159Y-60958D01*
X39083Y-60996D01*
X39007Y-60996D01*
X38931Y-60958D01*
X38893Y-60920D01*
X38854Y-60843D01*
X38816Y-60691D01*
X38816Y-60501D01*
X38854Y-60348D01*
X38893Y-60272D01*
X38931Y-60234D01*
X39007Y-60196D01*
X39959Y-60462D02*
X39959Y-60996D01*
X39769Y-60158D02*
X39578Y-60729D01*
X40074Y-60729D01*
X40531Y-60196D02*
X40607Y-60196D01*
X40683Y-60234D01*
X40721Y-60272D01*
X40759Y-60348D01*
X40798Y-60501D01*
X40798Y-60691D01*
X40759Y-60843D01*
X40721Y-60920D01*
X40683Y-60958D01*
X40607Y-60996D01*
X40531Y-60996D01*
X40455Y-60958D01*
X40417Y-60920D01*
X40378Y-60843D01*
X40340Y-60691D01*
X40340Y-60501D01*
X40378Y-60348D01*
X40417Y-60272D01*
X40455Y-60234D01*
X40531Y-60196D01*
X41102Y-60196D02*
X41102Y-60348D01*
X41407Y-60196D02*
X41407Y-60348D01*
X42932Y-60158D02*
X42246Y-61186D01*
X44228Y-60996D02*
X43770Y-60996D01*
X43999Y-60996D02*
X43999Y-60196D01*
X43923Y-60310D01*
X43847Y-60386D01*
X43770Y-60424D01*
X44570Y-60920D02*
X44609Y-60958D01*
X44570Y-60996D01*
X44532Y-60958D01*
X44570Y-60920D01*
X44570Y-60996D01*
X45104Y-60196D02*
X45180Y-60196D01*
X45256Y-60234D01*
X45294Y-60272D01*
X45332Y-60348D01*
X45371Y-60501D01*
X45371Y-60691D01*
X45332Y-60843D01*
X45294Y-60920D01*
X45256Y-60958D01*
X45180Y-60996D01*
X45104Y-60996D01*
X45028Y-60958D01*
X44990Y-60920D01*
X44951Y-60843D01*
X44913Y-60691D01*
X44913Y-60501D01*
X44951Y-60348D01*
X44990Y-60272D01*
X45028Y-60234D01*
X45104Y-60196D01*
X45675Y-60272D02*
X45713Y-60234D01*
X45790Y-60196D01*
X45980Y-60196D01*
X46056Y-60234D01*
X46094Y-60272D01*
X46133Y-60348D01*
X46133Y-60424D01*
X46094Y-60539D01*
X45637Y-60996D01*
X46133Y-60996D01*
X46475Y-60996D02*
X46475Y-60462D01*
X46475Y-60539D02*
X46514Y-60501D01*
X46590Y-60462D01*
X46704Y-60462D01*
X46780Y-60501D01*
X46818Y-60577D01*
X46818Y-60996D01*
X46818Y-60577D02*
X46856Y-60501D01*
X46933Y-60462D01*
X47047Y-60462D01*
X47123Y-60501D01*
X47161Y-60577D01*
X47161Y-60996D01*
X47542Y-60996D02*
X47542Y-60462D01*
X47542Y-60539D02*
X47581Y-60501D01*
X47657Y-60462D01*
X47771Y-60462D01*
X47847Y-60501D01*
X47885Y-60577D01*
X47885Y-60996D01*
X47885Y-60577D02*
X47923Y-60501D01*
X48000Y-60462D01*
X48114Y-60462D01*
X48190Y-60501D01*
X48228Y-60577D01*
X48228Y-60996D01*
X49448Y-61301D02*
X49410Y-61262D01*
X49334Y-61148D01*
X49296Y-61072D01*
X49258Y-60958D01*
X49219Y-60767D01*
X49219Y-60615D01*
X49258Y-60424D01*
X49296Y-60310D01*
X49334Y-60234D01*
X49410Y-60120D01*
X49448Y-60082D01*
X50095Y-60196D02*
X49943Y-60196D01*
X49867Y-60234D01*
X49829Y-60272D01*
X49752Y-60386D01*
X49714Y-60539D01*
X49714Y-60843D01*
X49752Y-60920D01*
X49791Y-60958D01*
X49867Y-60996D01*
X50019Y-60996D01*
X50095Y-60958D01*
X50133Y-60920D01*
X50172Y-60843D01*
X50172Y-60653D01*
X50133Y-60577D01*
X50095Y-60539D01*
X50019Y-60501D01*
X49867Y-60501D01*
X49791Y-60539D01*
X49752Y-60577D01*
X49714Y-60653D01*
X51124Y-60996D02*
X51124Y-60196D01*
X51467Y-60996D02*
X51467Y-60577D01*
X51429Y-60501D01*
X51353Y-60462D01*
X51239Y-60462D01*
X51163Y-60501D01*
X51124Y-60539D01*
X51963Y-60996D02*
X51887Y-60958D01*
X51848Y-60920D01*
X51810Y-60843D01*
X51810Y-60615D01*
X51848Y-60539D01*
X51887Y-60501D01*
X51963Y-60462D01*
X52077Y-60462D01*
X52153Y-60501D01*
X52191Y-60539D01*
X52229Y-60615D01*
X52229Y-60843D01*
X52191Y-60920D01*
X52153Y-60958D01*
X52077Y-60996D01*
X51963Y-60996D01*
X52687Y-60996D02*
X52611Y-60958D01*
X52572Y-60882D01*
X52572Y-60196D01*
X53296Y-60958D02*
X53220Y-60996D01*
X53068Y-60996D01*
X52991Y-60958D01*
X52953Y-60882D01*
X52953Y-60577D01*
X52991Y-60501D01*
X53068Y-60462D01*
X53220Y-60462D01*
X53296Y-60501D01*
X53334Y-60577D01*
X53334Y-60653D01*
X52953Y-60729D01*
X53639Y-60958D02*
X53716Y-60996D01*
X53868Y-60996D01*
X53944Y-60958D01*
X53982Y-60882D01*
X53982Y-60843D01*
X53944Y-60767D01*
X53868Y-60729D01*
X53754Y-60729D01*
X53677Y-60691D01*
X53639Y-60615D01*
X53639Y-60577D01*
X53677Y-60501D01*
X53754Y-60462D01*
X53868Y-60462D01*
X53944Y-60501D01*
X54249Y-61301D02*
X54287Y-61262D01*
X54364Y-61148D01*
X54402Y-61072D01*
X54440Y-60958D01*
X54478Y-60767D01*
X54478Y-60615D01*
X54440Y-60424D01*
X54402Y-60310D01*
X54364Y-60234D01*
X54287Y-60120D01*
X54249Y-60082D01*
G54D10*
X37234Y-61936D02*
X37234Y-61518D01*
X36816Y-61518D01*
X36816Y-61936D01*
X37234Y-61936D01*
G54D11*
X37864Y-61251D02*
X37940Y-61251D01*
X38016Y-61289D01*
X38054Y-61327D01*
X38092Y-61403D01*
X38131Y-61556D01*
X38131Y-61746D01*
X38092Y-61898D01*
X38054Y-61975D01*
X38016Y-62013D01*
X37940Y-62051D01*
X37864Y-62051D01*
X37788Y-62013D01*
X37750Y-61975D01*
X37711Y-61898D01*
X37673Y-61746D01*
X37673Y-61556D01*
X37711Y-61403D01*
X37750Y-61327D01*
X37788Y-61289D01*
X37864Y-61251D01*
X38473Y-61975D02*
X38512Y-62013D01*
X38473Y-62051D01*
X38435Y-62013D01*
X38473Y-61975D01*
X38473Y-62051D01*
X39007Y-61251D02*
X39083Y-61251D01*
X39159Y-61289D01*
X39197Y-61327D01*
X39235Y-61403D01*
X39274Y-61556D01*
X39274Y-61746D01*
X39235Y-61898D01*
X39197Y-61975D01*
X39159Y-62013D01*
X39083Y-62051D01*
X39007Y-62051D01*
X38931Y-62013D01*
X38893Y-61975D01*
X38854Y-61898D01*
X38816Y-61746D01*
X38816Y-61556D01*
X38854Y-61403D01*
X38893Y-61327D01*
X38931Y-61289D01*
X39007Y-61251D01*
X39997Y-61251D02*
X39616Y-61251D01*
X39578Y-61632D01*
X39616Y-61594D01*
X39693Y-61556D01*
X39883Y-61556D01*
X39959Y-61594D01*
X39997Y-61632D01*
X40036Y-61708D01*
X40036Y-61898D01*
X39997Y-61975D01*
X39959Y-62013D01*
X39883Y-62051D01*
X39693Y-62051D01*
X39616Y-62013D01*
X39578Y-61975D01*
X40417Y-62051D02*
X40569Y-62051D01*
X40645Y-62013D01*
X40683Y-61975D01*
X40759Y-61860D01*
X40798Y-61708D01*
X40798Y-61403D01*
X40759Y-61327D01*
X40721Y-61289D01*
X40645Y-61251D01*
X40493Y-61251D01*
X40417Y-61289D01*
X40378Y-61327D01*
X40340Y-61403D01*
X40340Y-61594D01*
X40378Y-61670D01*
X40417Y-61708D01*
X40493Y-61746D01*
X40645Y-61746D01*
X40721Y-61708D01*
X40759Y-61670D01*
X40798Y-61594D01*
X41102Y-61251D02*
X41102Y-61403D01*
X41407Y-61251D02*
X41407Y-61403D01*
X42932Y-61213D02*
X42246Y-62241D01*
X44228Y-62051D02*
X43770Y-62051D01*
X43999Y-62051D02*
X43999Y-61251D01*
X43923Y-61365D01*
X43847Y-61441D01*
X43770Y-61479D01*
X44570Y-61975D02*
X44609Y-62013D01*
X44570Y-62051D01*
X44532Y-62013D01*
X44570Y-61975D01*
X44570Y-62051D01*
X45332Y-61251D02*
X44951Y-61251D01*
X44913Y-61632D01*
X44951Y-61594D01*
X45028Y-61556D01*
X45218Y-61556D01*
X45294Y-61594D01*
X45332Y-61632D01*
X45371Y-61708D01*
X45371Y-61898D01*
X45332Y-61975D01*
X45294Y-62013D01*
X45218Y-62051D01*
X45028Y-62051D01*
X44951Y-62013D01*
X44913Y-61975D01*
X45866Y-61251D02*
X45942Y-61251D01*
X46018Y-61289D01*
X46056Y-61327D01*
X46094Y-61403D01*
X46133Y-61556D01*
X46133Y-61746D01*
X46094Y-61898D01*
X46056Y-61975D01*
X46018Y-62013D01*
X45942Y-62051D01*
X45866Y-62051D01*
X45790Y-62013D01*
X45752Y-61975D01*
X45713Y-61898D01*
X45675Y-61746D01*
X45675Y-61556D01*
X45713Y-61403D01*
X45752Y-61327D01*
X45790Y-61289D01*
X45866Y-61251D01*
X46475Y-62051D02*
X46475Y-61517D01*
X46475Y-61594D02*
X46514Y-61556D01*
X46590Y-61517D01*
X46704Y-61517D01*
X46780Y-61556D01*
X46818Y-61632D01*
X46818Y-62051D01*
X46818Y-61632D02*
X46856Y-61556D01*
X46933Y-61517D01*
X47047Y-61517D01*
X47123Y-61556D01*
X47161Y-61632D01*
X47161Y-62051D01*
X47542Y-62051D02*
X47542Y-61517D01*
X47542Y-61594D02*
X47581Y-61556D01*
X47657Y-61517D01*
X47771Y-61517D01*
X47847Y-61556D01*
X47885Y-61632D01*
X47885Y-62051D01*
X47885Y-61632D02*
X47923Y-61556D01*
X48000Y-61517D01*
X48114Y-61517D01*
X48190Y-61556D01*
X48228Y-61632D01*
X48228Y-62051D01*
X49448Y-62356D02*
X49410Y-62317D01*
X49334Y-62203D01*
X49296Y-62127D01*
X49258Y-62013D01*
X49219Y-61822D01*
X49219Y-61670D01*
X49258Y-61479D01*
X49296Y-61365D01*
X49334Y-61289D01*
X49410Y-61175D01*
X49448Y-61137D01*
X49714Y-61327D02*
X49752Y-61289D01*
X49829Y-61251D01*
X50019Y-61251D01*
X50095Y-61289D01*
X50133Y-61327D01*
X50172Y-61403D01*
X50172Y-61479D01*
X50133Y-61594D01*
X49676Y-62051D01*
X50172Y-62051D01*
X51124Y-62051D02*
X51124Y-61251D01*
X51467Y-62051D02*
X51467Y-61632D01*
X51429Y-61556D01*
X51353Y-61517D01*
X51239Y-61517D01*
X51163Y-61556D01*
X51124Y-61594D01*
X51963Y-62051D02*
X51887Y-62013D01*
X51848Y-61975D01*
X51810Y-61898D01*
X51810Y-61670D01*
X51848Y-61594D01*
X51887Y-61556D01*
X51963Y-61517D01*
X52077Y-61517D01*
X52153Y-61556D01*
X52191Y-61594D01*
X52229Y-61670D01*
X52229Y-61898D01*
X52191Y-61975D01*
X52153Y-62013D01*
X52077Y-62051D01*
X51963Y-62051D01*
X52687Y-62051D02*
X52611Y-62013D01*
X52572Y-61937D01*
X52572Y-61251D01*
X53296Y-62013D02*
X53220Y-62051D01*
X53068Y-62051D01*
X52991Y-62013D01*
X52953Y-61937D01*
X52953Y-61632D01*
X52991Y-61556D01*
X53068Y-61517D01*
X53220Y-61517D01*
X53296Y-61556D01*
X53334Y-61632D01*
X53334Y-61708D01*
X52953Y-61784D01*
X53639Y-62013D02*
X53716Y-62051D01*
X53868Y-62051D01*
X53944Y-62013D01*
X53982Y-61937D01*
X53982Y-61898D01*
X53944Y-61822D01*
X53868Y-61784D01*
X53754Y-61784D01*
X53677Y-61746D01*
X53639Y-61670D01*
X53639Y-61632D01*
X53677Y-61556D01*
X53754Y-61517D01*
X53868Y-61517D01*
X53944Y-61556D01*
X54249Y-62356D02*
X54287Y-62317D01*
X54364Y-62203D01*
X54402Y-62127D01*
X54440Y-62013D01*
X54478Y-61822D01*
X54478Y-61670D01*
X54440Y-61479D01*
X54402Y-61365D01*
X54364Y-61289D01*
X54287Y-61175D01*
X54249Y-61137D01*
G54D10*
X36721Y-63382D02*
X37321Y-62782D01*
X36721Y-62182D01*
X36121Y-62782D01*
X36721Y-63382D01*
G54D11*
X37864Y-62306D02*
X37940Y-62306D01*
X38016Y-62344D01*
X38054Y-62382D01*
X38092Y-62458D01*
X38131Y-62611D01*
X38131Y-62801D01*
X38092Y-62953D01*
X38054Y-63030D01*
X38016Y-63068D01*
X37940Y-63106D01*
X37864Y-63106D01*
X37788Y-63068D01*
X37750Y-63030D01*
X37711Y-62953D01*
X37673Y-62801D01*
X37673Y-62611D01*
X37711Y-62458D01*
X37750Y-62382D01*
X37788Y-62344D01*
X37864Y-62306D01*
X38473Y-63030D02*
X38512Y-63068D01*
X38473Y-63106D01*
X38435Y-63068D01*
X38473Y-63030D01*
X38473Y-63106D01*
X39274Y-63106D02*
X38816Y-63106D01*
X39045Y-63106D02*
X39045Y-62306D01*
X38969Y-62420D01*
X38893Y-62496D01*
X38816Y-62534D01*
X39578Y-62382D02*
X39616Y-62344D01*
X39693Y-62306D01*
X39883Y-62306D01*
X39959Y-62344D01*
X39997Y-62382D01*
X40036Y-62458D01*
X40036Y-62534D01*
X39997Y-62649D01*
X39540Y-63106D01*
X40036Y-63106D01*
X40531Y-62306D02*
X40607Y-62306D01*
X40683Y-62344D01*
X40721Y-62382D01*
X40759Y-62458D01*
X40798Y-62611D01*
X40798Y-62801D01*
X40759Y-62953D01*
X40721Y-63030D01*
X40683Y-63068D01*
X40607Y-63106D01*
X40531Y-63106D01*
X40455Y-63068D01*
X40417Y-63030D01*
X40378Y-62953D01*
X40340Y-62801D01*
X40340Y-62611D01*
X40378Y-62458D01*
X40417Y-62382D01*
X40455Y-62344D01*
X40531Y-62306D01*
X41102Y-62306D02*
X41102Y-62458D01*
X41407Y-62306D02*
X41407Y-62458D01*
X42932Y-62268D02*
X42246Y-63296D01*
X43732Y-62306D02*
X44228Y-62306D01*
X43961Y-62611D01*
X44075Y-62611D01*
X44151Y-62649D01*
X44189Y-62687D01*
X44228Y-62763D01*
X44228Y-62953D01*
X44189Y-63030D01*
X44151Y-63068D01*
X44075Y-63106D01*
X43847Y-63106D01*
X43770Y-63068D01*
X43732Y-63030D01*
X44570Y-63030D02*
X44609Y-63068D01*
X44570Y-63106D01*
X44532Y-63068D01*
X44570Y-63030D01*
X44570Y-63106D01*
X45104Y-62306D02*
X45180Y-62306D01*
X45256Y-62344D01*
X45294Y-62382D01*
X45332Y-62458D01*
X45371Y-62611D01*
X45371Y-62801D01*
X45332Y-62953D01*
X45294Y-63030D01*
X45256Y-63068D01*
X45180Y-63106D01*
X45104Y-63106D01*
X45028Y-63068D01*
X44990Y-63030D01*
X44951Y-62953D01*
X44913Y-62801D01*
X44913Y-62611D01*
X44951Y-62458D01*
X44990Y-62382D01*
X45028Y-62344D01*
X45104Y-62306D01*
X46094Y-62306D02*
X45713Y-62306D01*
X45675Y-62687D01*
X45713Y-62649D01*
X45790Y-62611D01*
X45980Y-62611D01*
X46056Y-62649D01*
X46094Y-62687D01*
X46133Y-62763D01*
X46133Y-62953D01*
X46094Y-63030D01*
X46056Y-63068D01*
X45980Y-63106D01*
X45790Y-63106D01*
X45713Y-63068D01*
X45675Y-63030D01*
X46475Y-63106D02*
X46475Y-62572D01*
X46475Y-62649D02*
X46514Y-62611D01*
X46590Y-62572D01*
X46704Y-62572D01*
X46780Y-62611D01*
X46818Y-62687D01*
X46818Y-63106D01*
X46818Y-62687D02*
X46856Y-62611D01*
X46933Y-62572D01*
X47047Y-62572D01*
X47123Y-62611D01*
X47161Y-62687D01*
X47161Y-63106D01*
X47542Y-63106D02*
X47542Y-62572D01*
X47542Y-62649D02*
X47581Y-62611D01*
X47657Y-62572D01*
X47771Y-62572D01*
X47847Y-62611D01*
X47885Y-62687D01*
X47885Y-63106D01*
X47885Y-62687D02*
X47923Y-62611D01*
X48000Y-62572D01*
X48114Y-62572D01*
X48190Y-62611D01*
X48228Y-62687D01*
X48228Y-63106D01*
X49448Y-63411D02*
X49410Y-63372D01*
X49334Y-63258D01*
X49296Y-63182D01*
X49258Y-63068D01*
X49219Y-62877D01*
X49219Y-62725D01*
X49258Y-62534D01*
X49296Y-62420D01*
X49334Y-62344D01*
X49410Y-62230D01*
X49448Y-62192D01*
X50095Y-62572D02*
X50095Y-63106D01*
X49905Y-62268D02*
X49714Y-62839D01*
X50210Y-62839D01*
X51124Y-63106D02*
X51124Y-62306D01*
X51467Y-63106D02*
X51467Y-62687D01*
X51429Y-62611D01*
X51353Y-62572D01*
X51239Y-62572D01*
X51163Y-62611D01*
X51124Y-62649D01*
X51963Y-63106D02*
X51887Y-63068D01*
X51848Y-63030D01*
X51810Y-62953D01*
X51810Y-62725D01*
X51848Y-62649D01*
X51887Y-62611D01*
X51963Y-62572D01*
X52077Y-62572D01*
X52153Y-62611D01*
X52191Y-62649D01*
X52229Y-62725D01*
X52229Y-62953D01*
X52191Y-63030D01*
X52153Y-63068D01*
X52077Y-63106D01*
X51963Y-63106D01*
X52687Y-63106D02*
X52611Y-63068D01*
X52572Y-62992D01*
X52572Y-62306D01*
X53296Y-63068D02*
X53220Y-63106D01*
X53068Y-63106D01*
X52991Y-63068D01*
X52953Y-62992D01*
X52953Y-62687D01*
X52991Y-62611D01*
X53068Y-62572D01*
X53220Y-62572D01*
X53296Y-62611D01*
X53334Y-62687D01*
X53334Y-62763D01*
X52953Y-62839D01*
X53639Y-63068D02*
X53716Y-63106D01*
X53868Y-63106D01*
X53944Y-63068D01*
X53982Y-62992D01*
X53982Y-62953D01*
X53944Y-62877D01*
X53868Y-62839D01*
X53754Y-62839D01*
X53677Y-62801D01*
X53639Y-62725D01*
X53639Y-62687D01*
X53677Y-62611D01*
X53754Y-62572D01*
X53868Y-62572D01*
X53944Y-62611D01*
X54249Y-63411D02*
X54287Y-63372D01*
X54364Y-63258D01*
X54402Y-63182D01*
X54440Y-63068D01*
X54478Y-62877D01*
X54478Y-62725D01*
X54440Y-62534D01*
X54402Y-62420D01*
X54364Y-62344D01*
X54287Y-62230D01*
X54249Y-62192D01*
G54D10*
X37090Y-64819D02*
X37090Y-63705D01*
X35976Y-63705D01*
X35976Y-64819D01*
X37090Y-64819D01*
X35746Y-63475D02*
X37320Y-65049D01*
X37320Y-63475D02*
X35746Y-65049D01*
G54D11*
X37864Y-63786D02*
X37940Y-63786D01*
X38016Y-63824D01*
X38054Y-63862D01*
X38092Y-63938D01*
X38131Y-64091D01*
X38131Y-64281D01*
X38092Y-64433D01*
X38054Y-64510D01*
X38016Y-64548D01*
X37940Y-64586D01*
X37864Y-64586D01*
X37788Y-64548D01*
X37750Y-64510D01*
X37711Y-64433D01*
X37673Y-64281D01*
X37673Y-64091D01*
X37711Y-63938D01*
X37750Y-63862D01*
X37788Y-63824D01*
X37864Y-63786D01*
X38473Y-64510D02*
X38512Y-64548D01*
X38473Y-64586D01*
X38435Y-64548D01*
X38473Y-64510D01*
X38473Y-64586D01*
X39274Y-64586D02*
X38816Y-64586D01*
X39045Y-64586D02*
X39045Y-63786D01*
X38969Y-63900D01*
X38893Y-63976D01*
X38816Y-64014D01*
X39997Y-63786D02*
X39616Y-63786D01*
X39578Y-64167D01*
X39616Y-64129D01*
X39693Y-64091D01*
X39883Y-64091D01*
X39959Y-64129D01*
X39997Y-64167D01*
X40036Y-64243D01*
X40036Y-64433D01*
X39997Y-64510D01*
X39959Y-64548D01*
X39883Y-64586D01*
X39693Y-64586D01*
X39616Y-64548D01*
X39578Y-64510D01*
X40493Y-64129D02*
X40417Y-64091D01*
X40378Y-64052D01*
X40340Y-63976D01*
X40340Y-63938D01*
X40378Y-63862D01*
X40417Y-63824D01*
X40493Y-63786D01*
X40645Y-63786D01*
X40721Y-63824D01*
X40759Y-63862D01*
X40798Y-63938D01*
X40798Y-63976D01*
X40759Y-64052D01*
X40721Y-64091D01*
X40645Y-64129D01*
X40493Y-64129D01*
X40417Y-64167D01*
X40378Y-64205D01*
X40340Y-64281D01*
X40340Y-64433D01*
X40378Y-64510D01*
X40417Y-64548D01*
X40493Y-64586D01*
X40645Y-64586D01*
X40721Y-64548D01*
X40759Y-64510D01*
X40798Y-64433D01*
X40798Y-64281D01*
X40759Y-64205D01*
X40721Y-64167D01*
X40645Y-64129D01*
X41102Y-63786D02*
X41102Y-63938D01*
X41407Y-63786D02*
X41407Y-63938D01*
X42932Y-63748D02*
X42246Y-64776D01*
X44151Y-64052D02*
X44151Y-64586D01*
X43961Y-63748D02*
X43770Y-64319D01*
X44266Y-64319D01*
X44570Y-64510D02*
X44609Y-64548D01*
X44570Y-64586D01*
X44532Y-64548D01*
X44570Y-64510D01*
X44570Y-64586D01*
X45104Y-63786D02*
X45180Y-63786D01*
X45256Y-63824D01*
X45294Y-63862D01*
X45332Y-63938D01*
X45371Y-64091D01*
X45371Y-64281D01*
X45332Y-64433D01*
X45294Y-64510D01*
X45256Y-64548D01*
X45180Y-64586D01*
X45104Y-64586D01*
X45028Y-64548D01*
X44990Y-64510D01*
X44951Y-64433D01*
X44913Y-64281D01*
X44913Y-64091D01*
X44951Y-63938D01*
X44990Y-63862D01*
X45028Y-63824D01*
X45104Y-63786D01*
X45866Y-63786D02*
X45942Y-63786D01*
X46018Y-63824D01*
X46056Y-63862D01*
X46094Y-63938D01*
X46133Y-64091D01*
X46133Y-64281D01*
X46094Y-64433D01*
X46056Y-64510D01*
X46018Y-64548D01*
X45942Y-64586D01*
X45866Y-64586D01*
X45790Y-64548D01*
X45752Y-64510D01*
X45713Y-64433D01*
X45675Y-64281D01*
X45675Y-64091D01*
X45713Y-63938D01*
X45752Y-63862D01*
X45790Y-63824D01*
X45866Y-63786D01*
X46475Y-64586D02*
X46475Y-64052D01*
X46475Y-64129D02*
X46514Y-64091D01*
X46590Y-64052D01*
X46704Y-64052D01*
X46780Y-64091D01*
X46818Y-64167D01*
X46818Y-64586D01*
X46818Y-64167D02*
X46856Y-64091D01*
X46933Y-64052D01*
X47047Y-64052D01*
X47123Y-64091D01*
X47161Y-64167D01*
X47161Y-64586D01*
X47542Y-64586D02*
X47542Y-64052D01*
X47542Y-64129D02*
X47581Y-64091D01*
X47657Y-64052D01*
X47771Y-64052D01*
X47847Y-64091D01*
X47885Y-64167D01*
X47885Y-64586D01*
X47885Y-64167D02*
X47923Y-64091D01*
X48000Y-64052D01*
X48114Y-64052D01*
X48190Y-64091D01*
X48228Y-64167D01*
X48228Y-64586D01*
X49448Y-64891D02*
X49410Y-64852D01*
X49334Y-64738D01*
X49296Y-64662D01*
X49258Y-64548D01*
X49219Y-64357D01*
X49219Y-64205D01*
X49258Y-64014D01*
X49296Y-63900D01*
X49334Y-63824D01*
X49410Y-63710D01*
X49448Y-63672D01*
X49676Y-63786D02*
X50172Y-63786D01*
X49905Y-64091D01*
X50019Y-64091D01*
X50095Y-64129D01*
X50133Y-64167D01*
X50172Y-64243D01*
X50172Y-64433D01*
X50133Y-64510D01*
X50095Y-64548D01*
X50019Y-64586D01*
X49791Y-64586D01*
X49714Y-64548D01*
X49676Y-64510D01*
X51124Y-64586D02*
X51124Y-63786D01*
X51467Y-64586D02*
X51467Y-64167D01*
X51429Y-64091D01*
X51353Y-64052D01*
X51239Y-64052D01*
X51163Y-64091D01*
X51124Y-64129D01*
X51963Y-64586D02*
X51887Y-64548D01*
X51848Y-64510D01*
X51810Y-64433D01*
X51810Y-64205D01*
X51848Y-64129D01*
X51887Y-64091D01*
X51963Y-64052D01*
X52077Y-64052D01*
X52153Y-64091D01*
X52191Y-64129D01*
X52229Y-64205D01*
X52229Y-64433D01*
X52191Y-64510D01*
X52153Y-64548D01*
X52077Y-64586D01*
X51963Y-64586D01*
X52687Y-64586D02*
X52611Y-64548D01*
X52572Y-64472D01*
X52572Y-63786D01*
X53296Y-64548D02*
X53220Y-64586D01*
X53068Y-64586D01*
X52991Y-64548D01*
X52953Y-64472D01*
X52953Y-64167D01*
X52991Y-64091D01*
X53068Y-64052D01*
X53220Y-64052D01*
X53296Y-64091D01*
X53334Y-64167D01*
X53334Y-64243D01*
X52953Y-64319D01*
X53639Y-64548D02*
X53716Y-64586D01*
X53868Y-64586D01*
X53944Y-64548D01*
X53982Y-64472D01*
X53982Y-64433D01*
X53944Y-64357D01*
X53868Y-64319D01*
X53754Y-64319D01*
X53677Y-64281D01*
X53639Y-64205D01*
X53639Y-64167D01*
X53677Y-64091D01*
X53754Y-64052D01*
X53868Y-64052D01*
X53944Y-64091D01*
X54249Y-64891D02*
X54287Y-64852D01*
X54364Y-64738D01*
X54402Y-64662D01*
X54440Y-64548D01*
X54478Y-64357D01*
X54478Y-64205D01*
X54440Y-64014D01*
X54402Y-63900D01*
X54364Y-63824D01*
X54287Y-63710D01*
X54249Y-63672D01*
G54D10*
X36484Y-66953D02*
X37320Y-66117D01*
X36484Y-65281D01*
X35648Y-66117D01*
X36484Y-66953D01*
X36484Y-65281D02*
X36484Y-66953D01*
X37320Y-66117D02*
X35648Y-66117D01*
G54D11*
X37864Y-65641D02*
X37940Y-65641D01*
X38016Y-65679D01*
X38054Y-65717D01*
X38092Y-65793D01*
X38131Y-65946D01*
X38131Y-66136D01*
X38092Y-66288D01*
X38054Y-66365D01*
X38016Y-66403D01*
X37940Y-66441D01*
X37864Y-66441D01*
X37788Y-66403D01*
X37750Y-66365D01*
X37711Y-66288D01*
X37673Y-66136D01*
X37673Y-65946D01*
X37711Y-65793D01*
X37750Y-65717D01*
X37788Y-65679D01*
X37864Y-65641D01*
X38473Y-66365D02*
X38512Y-66403D01*
X38473Y-66441D01*
X38435Y-66403D01*
X38473Y-66365D01*
X38473Y-66441D01*
X39274Y-66441D02*
X38816Y-66441D01*
X39045Y-66441D02*
X39045Y-65641D01*
X38969Y-65755D01*
X38893Y-65831D01*
X38816Y-65869D01*
X39959Y-65641D02*
X39807Y-65641D01*
X39731Y-65679D01*
X39693Y-65717D01*
X39616Y-65831D01*
X39578Y-65984D01*
X39578Y-66288D01*
X39616Y-66365D01*
X39655Y-66403D01*
X39731Y-66441D01*
X39883Y-66441D01*
X39959Y-66403D01*
X39997Y-66365D01*
X40036Y-66288D01*
X40036Y-66098D01*
X39997Y-66022D01*
X39959Y-65984D01*
X39883Y-65946D01*
X39731Y-65946D01*
X39655Y-65984D01*
X39616Y-66022D01*
X39578Y-66098D01*
X40302Y-65641D02*
X40836Y-65641D01*
X40493Y-66441D01*
X41102Y-65641D02*
X41102Y-65793D01*
X41407Y-65641D02*
X41407Y-65793D01*
X42932Y-65603D02*
X42246Y-66631D01*
X44151Y-65907D02*
X44151Y-66441D01*
X43961Y-65603D02*
X43770Y-66174D01*
X44266Y-66174D01*
X44570Y-66365D02*
X44609Y-66403D01*
X44570Y-66441D01*
X44532Y-66403D01*
X44570Y-66365D01*
X44570Y-66441D01*
X44913Y-65717D02*
X44951Y-65679D01*
X45028Y-65641D01*
X45218Y-65641D01*
X45294Y-65679D01*
X45332Y-65717D01*
X45371Y-65793D01*
X45371Y-65869D01*
X45332Y-65984D01*
X44875Y-66441D01*
X45371Y-66441D01*
X46094Y-65641D02*
X45713Y-65641D01*
X45675Y-66022D01*
X45713Y-65984D01*
X45790Y-65946D01*
X45980Y-65946D01*
X46056Y-65984D01*
X46094Y-66022D01*
X46133Y-66098D01*
X46133Y-66288D01*
X46094Y-66365D01*
X46056Y-66403D01*
X45980Y-66441D01*
X45790Y-66441D01*
X45713Y-66403D01*
X45675Y-66365D01*
X46475Y-66441D02*
X46475Y-65907D01*
X46475Y-65984D02*
X46514Y-65946D01*
X46590Y-65907D01*
X46704Y-65907D01*
X46780Y-65946D01*
X46818Y-66022D01*
X46818Y-66441D01*
X46818Y-66022D02*
X46856Y-65946D01*
X46933Y-65907D01*
X47047Y-65907D01*
X47123Y-65946D01*
X47161Y-66022D01*
X47161Y-66441D01*
X47542Y-66441D02*
X47542Y-65907D01*
X47542Y-65984D02*
X47581Y-65946D01*
X47657Y-65907D01*
X47771Y-65907D01*
X47847Y-65946D01*
X47885Y-66022D01*
X47885Y-66441D01*
X47885Y-66022D02*
X47923Y-65946D01*
X48000Y-65907D01*
X48114Y-65907D01*
X48190Y-65946D01*
X48228Y-66022D01*
X48228Y-66441D01*
X49448Y-66746D02*
X49410Y-66707D01*
X49334Y-66593D01*
X49296Y-66517D01*
X49258Y-66403D01*
X49219Y-66212D01*
X49219Y-66060D01*
X49258Y-65869D01*
X49296Y-65755D01*
X49334Y-65679D01*
X49410Y-65565D01*
X49448Y-65527D01*
X50095Y-65907D02*
X50095Y-66441D01*
X49905Y-65603D02*
X49714Y-66174D01*
X50210Y-66174D01*
X51124Y-66441D02*
X51124Y-65641D01*
X51467Y-66441D02*
X51467Y-66022D01*
X51429Y-65946D01*
X51353Y-65907D01*
X51239Y-65907D01*
X51163Y-65946D01*
X51124Y-65984D01*
X51963Y-66441D02*
X51887Y-66403D01*
X51848Y-66365D01*
X51810Y-66288D01*
X51810Y-66060D01*
X51848Y-65984D01*
X51887Y-65946D01*
X51963Y-65907D01*
X52077Y-65907D01*
X52153Y-65946D01*
X52191Y-65984D01*
X52229Y-66060D01*
X52229Y-66288D01*
X52191Y-66365D01*
X52153Y-66403D01*
X52077Y-66441D01*
X51963Y-66441D01*
X52687Y-66441D02*
X52611Y-66403D01*
X52572Y-66327D01*
X52572Y-65641D01*
X53296Y-66403D02*
X53220Y-66441D01*
X53068Y-66441D01*
X52991Y-66403D01*
X52953Y-66327D01*
X52953Y-66022D01*
X52991Y-65946D01*
X53068Y-65907D01*
X53220Y-65907D01*
X53296Y-65946D01*
X53334Y-66022D01*
X53334Y-66098D01*
X52953Y-66174D01*
X53639Y-66403D02*
X53716Y-66441D01*
X53868Y-66441D01*
X53944Y-66403D01*
X53982Y-66327D01*
X53982Y-66288D01*
X53944Y-66212D01*
X53868Y-66174D01*
X53754Y-66174D01*
X53677Y-66136D01*
X53639Y-66060D01*
X53639Y-66022D01*
X53677Y-65946D01*
X53754Y-65907D01*
X53868Y-65907D01*
X53944Y-65946D01*
X54249Y-66746D02*
X54287Y-66707D01*
X54364Y-66593D01*
X54402Y-66517D01*
X54440Y-66403D01*
X54478Y-66212D01*
X54478Y-66060D01*
X54440Y-65869D01*
X54402Y-65755D01*
X54364Y-65679D01*
X54287Y-65565D01*
X54249Y-65527D01*
G54D10*
X37032Y-68766D02*
X37032Y-67374D01*
X35640Y-67374D01*
X35640Y-68766D01*
X37032Y-68766D01*
X35352Y-67086D02*
X37320Y-69054D01*
G54D11*
X37864Y-67594D02*
X37940Y-67594D01*
X38016Y-67632D01*
X38054Y-67670D01*
X38092Y-67746D01*
X38131Y-67899D01*
X38131Y-68089D01*
X38092Y-68241D01*
X38054Y-68318D01*
X38016Y-68356D01*
X37940Y-68394D01*
X37864Y-68394D01*
X37788Y-68356D01*
X37750Y-68318D01*
X37711Y-68241D01*
X37673Y-68089D01*
X37673Y-67899D01*
X37711Y-67746D01*
X37750Y-67670D01*
X37788Y-67632D01*
X37864Y-67594D01*
X38473Y-68318D02*
X38512Y-68356D01*
X38473Y-68394D01*
X38435Y-68356D01*
X38473Y-68318D01*
X38473Y-68394D01*
X39274Y-68394D02*
X38816Y-68394D01*
X39045Y-68394D02*
X39045Y-67594D01*
X38969Y-67708D01*
X38893Y-67784D01*
X38816Y-67822D01*
X39655Y-68394D02*
X39807Y-68394D01*
X39883Y-68356D01*
X39921Y-68318D01*
X39997Y-68203D01*
X40036Y-68051D01*
X40036Y-67746D01*
X39997Y-67670D01*
X39959Y-67632D01*
X39883Y-67594D01*
X39731Y-67594D01*
X39655Y-67632D01*
X39616Y-67670D01*
X39578Y-67746D01*
X39578Y-67937D01*
X39616Y-68013D01*
X39655Y-68051D01*
X39731Y-68089D01*
X39883Y-68089D01*
X39959Y-68051D01*
X39997Y-68013D01*
X40036Y-67937D01*
X40302Y-67594D02*
X40836Y-67594D01*
X40493Y-68394D01*
X41102Y-67594D02*
X41102Y-67746D01*
X41407Y-67594D02*
X41407Y-67746D01*
X42932Y-67556D02*
X42246Y-68584D01*
X44189Y-67594D02*
X43808Y-67594D01*
X43770Y-67975D01*
X43808Y-67937D01*
X43885Y-67899D01*
X44075Y-67899D01*
X44151Y-67937D01*
X44189Y-67975D01*
X44228Y-68051D01*
X44228Y-68241D01*
X44189Y-68318D01*
X44151Y-68356D01*
X44075Y-68394D01*
X43885Y-68394D01*
X43808Y-68356D01*
X43770Y-68318D01*
X44570Y-68318D02*
X44609Y-68356D01*
X44570Y-68394D01*
X44532Y-68356D01*
X44570Y-68318D01*
X44570Y-68394D01*
X45104Y-67594D02*
X45180Y-67594D01*
X45256Y-67632D01*
X45294Y-67670D01*
X45332Y-67746D01*
X45371Y-67899D01*
X45371Y-68089D01*
X45332Y-68241D01*
X45294Y-68318D01*
X45256Y-68356D01*
X45180Y-68394D01*
X45104Y-68394D01*
X45028Y-68356D01*
X44990Y-68318D01*
X44951Y-68241D01*
X44913Y-68089D01*
X44913Y-67899D01*
X44951Y-67746D01*
X44990Y-67670D01*
X45028Y-67632D01*
X45104Y-67594D01*
X45866Y-67594D02*
X45942Y-67594D01*
X46018Y-67632D01*
X46056Y-67670D01*
X46094Y-67746D01*
X46133Y-67899D01*
X46133Y-68089D01*
X46094Y-68241D01*
X46056Y-68318D01*
X46018Y-68356D01*
X45942Y-68394D01*
X45866Y-68394D01*
X45790Y-68356D01*
X45752Y-68318D01*
X45713Y-68241D01*
X45675Y-68089D01*
X45675Y-67899D01*
X45713Y-67746D01*
X45752Y-67670D01*
X45790Y-67632D01*
X45866Y-67594D01*
X46475Y-68394D02*
X46475Y-67860D01*
X46475Y-67937D02*
X46514Y-67899D01*
X46590Y-67860D01*
X46704Y-67860D01*
X46780Y-67899D01*
X46818Y-67975D01*
X46818Y-68394D01*
X46818Y-67975D02*
X46856Y-67899D01*
X46933Y-67860D01*
X47047Y-67860D01*
X47123Y-67899D01*
X47161Y-67975D01*
X47161Y-68394D01*
X47542Y-68394D02*
X47542Y-67860D01*
X47542Y-67937D02*
X47581Y-67899D01*
X47657Y-67860D01*
X47771Y-67860D01*
X47847Y-67899D01*
X47885Y-67975D01*
X47885Y-68394D01*
X47885Y-67975D02*
X47923Y-67899D01*
X48000Y-67860D01*
X48114Y-67860D01*
X48190Y-67899D01*
X48228Y-67975D01*
X48228Y-68394D01*
X49448Y-68699D02*
X49410Y-68660D01*
X49334Y-68546D01*
X49296Y-68470D01*
X49258Y-68356D01*
X49219Y-68165D01*
X49219Y-68013D01*
X49258Y-67822D01*
X49296Y-67708D01*
X49334Y-67632D01*
X49410Y-67518D01*
X49448Y-67480D01*
X49714Y-67670D02*
X49752Y-67632D01*
X49829Y-67594D01*
X50019Y-67594D01*
X50095Y-67632D01*
X50133Y-67670D01*
X50172Y-67746D01*
X50172Y-67822D01*
X50133Y-67937D01*
X49676Y-68394D01*
X50172Y-68394D01*
X51124Y-68394D02*
X51124Y-67594D01*
X51467Y-68394D02*
X51467Y-67975D01*
X51429Y-67899D01*
X51353Y-67860D01*
X51239Y-67860D01*
X51163Y-67899D01*
X51124Y-67937D01*
X51963Y-68394D02*
X51887Y-68356D01*
X51848Y-68318D01*
X51810Y-68241D01*
X51810Y-68013D01*
X51848Y-67937D01*
X51887Y-67899D01*
X51963Y-67860D01*
X52077Y-67860D01*
X52153Y-67899D01*
X52191Y-67937D01*
X52229Y-68013D01*
X52229Y-68241D01*
X52191Y-68318D01*
X52153Y-68356D01*
X52077Y-68394D01*
X51963Y-68394D01*
X52687Y-68394D02*
X52611Y-68356D01*
X52572Y-68280D01*
X52572Y-67594D01*
X53296Y-68356D02*
X53220Y-68394D01*
X53068Y-68394D01*
X52991Y-68356D01*
X52953Y-68280D01*
X52953Y-67975D01*
X52991Y-67899D01*
X53068Y-67860D01*
X53220Y-67860D01*
X53296Y-67899D01*
X53334Y-67975D01*
X53334Y-68051D01*
X52953Y-68127D01*
X53639Y-68356D02*
X53716Y-68394D01*
X53868Y-68394D01*
X53944Y-68356D01*
X53982Y-68280D01*
X53982Y-68241D01*
X53944Y-68165D01*
X53868Y-68127D01*
X53754Y-68127D01*
X53677Y-68089D01*
X53639Y-68013D01*
X53639Y-67975D01*
X53677Y-67899D01*
X53754Y-67860D01*
X53868Y-67860D01*
X53944Y-67899D01*
X54249Y-68699D02*
X54287Y-68660D01*
X54364Y-68546D01*
X54402Y-68470D01*
X54440Y-68356D01*
X54478Y-68165D01*
X54478Y-68013D01*
X54440Y-67822D01*
X54402Y-67708D01*
X54364Y-67632D01*
X54287Y-67518D01*
X54249Y-67480D01*
G54D10*
X35254Y-72386D02*
X37321Y-70319D01*
X35254Y-68252D01*
X33187Y-70319D01*
X35254Y-72386D01*
X35254Y-68252D02*
X35254Y-72386D01*
G54D11*
X37864Y-69843D02*
X37940Y-69843D01*
X38016Y-69881D01*
X38054Y-69919D01*
X38092Y-69995D01*
X38131Y-70148D01*
X38131Y-70338D01*
X38092Y-70490D01*
X38054Y-70567D01*
X38016Y-70605D01*
X37940Y-70643D01*
X37864Y-70643D01*
X37788Y-70605D01*
X37750Y-70567D01*
X37711Y-70490D01*
X37673Y-70338D01*
X37673Y-70148D01*
X37711Y-69995D01*
X37750Y-69919D01*
X37788Y-69881D01*
X37864Y-69843D01*
X38473Y-70567D02*
X38512Y-70605D01*
X38473Y-70643D01*
X38435Y-70605D01*
X38473Y-70567D01*
X38473Y-70643D01*
X39197Y-70109D02*
X39197Y-70643D01*
X39007Y-69805D02*
X38816Y-70376D01*
X39312Y-70376D01*
X40036Y-70643D02*
X39578Y-70643D01*
X39807Y-70643D02*
X39807Y-69843D01*
X39731Y-69957D01*
X39655Y-70033D01*
X39578Y-70071D01*
X40302Y-69843D02*
X40798Y-69843D01*
X40531Y-70148D01*
X40645Y-70148D01*
X40721Y-70186D01*
X40759Y-70224D01*
X40798Y-70300D01*
X40798Y-70490D01*
X40759Y-70567D01*
X40721Y-70605D01*
X40645Y-70643D01*
X40417Y-70643D01*
X40340Y-70605D01*
X40302Y-70567D01*
X41102Y-69843D02*
X41102Y-69995D01*
X41407Y-69843D02*
X41407Y-69995D01*
X42932Y-69805D02*
X42246Y-70833D01*
X44228Y-70643D02*
X43770Y-70643D01*
X43999Y-70643D02*
X43999Y-69843D01*
X43923Y-69957D01*
X43847Y-70033D01*
X43770Y-70071D01*
X44723Y-69843D02*
X44799Y-69843D01*
X44875Y-69881D01*
X44913Y-69919D01*
X44951Y-69995D01*
X44990Y-70148D01*
X44990Y-70338D01*
X44951Y-70490D01*
X44913Y-70567D01*
X44875Y-70605D01*
X44799Y-70643D01*
X44723Y-70643D01*
X44647Y-70605D01*
X44609Y-70567D01*
X44570Y-70490D01*
X44532Y-70338D01*
X44532Y-70148D01*
X44570Y-69995D01*
X44609Y-69919D01*
X44647Y-69881D01*
X44723Y-69843D01*
X45332Y-70567D02*
X45371Y-70605D01*
X45332Y-70643D01*
X45294Y-70605D01*
X45332Y-70567D01*
X45332Y-70643D01*
X46094Y-69843D02*
X45713Y-69843D01*
X45675Y-70224D01*
X45713Y-70186D01*
X45790Y-70148D01*
X45980Y-70148D01*
X46056Y-70186D01*
X46094Y-70224D01*
X46133Y-70300D01*
X46133Y-70490D01*
X46094Y-70567D01*
X46056Y-70605D01*
X45980Y-70643D01*
X45790Y-70643D01*
X45713Y-70605D01*
X45675Y-70567D01*
X46628Y-69843D02*
X46704Y-69843D01*
X46780Y-69881D01*
X46818Y-69919D01*
X46856Y-69995D01*
X46895Y-70148D01*
X46895Y-70338D01*
X46856Y-70490D01*
X46818Y-70567D01*
X46780Y-70605D01*
X46704Y-70643D01*
X46628Y-70643D01*
X46552Y-70605D01*
X46514Y-70567D01*
X46475Y-70490D01*
X46437Y-70338D01*
X46437Y-70148D01*
X46475Y-69995D01*
X46514Y-69919D01*
X46552Y-69881D01*
X46628Y-69843D01*
X47237Y-70643D02*
X47237Y-70109D01*
X47237Y-70186D02*
X47276Y-70148D01*
X47352Y-70109D01*
X47466Y-70109D01*
X47542Y-70148D01*
X47580Y-70224D01*
X47580Y-70643D01*
X47580Y-70224D02*
X47618Y-70148D01*
X47695Y-70109D01*
X47809Y-70109D01*
X47885Y-70148D01*
X47923Y-70224D01*
X47923Y-70643D01*
X48304Y-70643D02*
X48304Y-70109D01*
X48304Y-70186D02*
X48343Y-70148D01*
X48419Y-70109D01*
X48533Y-70109D01*
X48609Y-70148D01*
X48647Y-70224D01*
X48647Y-70643D01*
X48647Y-70224D02*
X48685Y-70148D01*
X48762Y-70109D01*
X48876Y-70109D01*
X48952Y-70148D01*
X48990Y-70224D01*
X48990Y-70643D01*
X50210Y-70948D02*
X50172Y-70909D01*
X50096Y-70795D01*
X50058Y-70719D01*
X50020Y-70605D01*
X49981Y-70414D01*
X49981Y-70262D01*
X50020Y-70071D01*
X50058Y-69957D01*
X50096Y-69881D01*
X50172Y-69767D01*
X50210Y-69729D01*
X50934Y-70643D02*
X50476Y-70643D01*
X50705Y-70643D02*
X50705Y-69843D01*
X50629Y-69957D01*
X50553Y-70033D01*
X50476Y-70071D01*
X51886Y-70643D02*
X51886Y-69843D01*
X52229Y-70643D02*
X52229Y-70224D01*
X52191Y-70148D01*
X52115Y-70109D01*
X52001Y-70109D01*
X51925Y-70148D01*
X51886Y-70186D01*
X52725Y-70643D02*
X52649Y-70605D01*
X52610Y-70567D01*
X52572Y-70490D01*
X52572Y-70262D01*
X52610Y-70186D01*
X52649Y-70148D01*
X52725Y-70109D01*
X52839Y-70109D01*
X52915Y-70148D01*
X52953Y-70186D01*
X52991Y-70262D01*
X52991Y-70490D01*
X52953Y-70567D01*
X52915Y-70605D01*
X52839Y-70643D01*
X52725Y-70643D01*
X53449Y-70643D02*
X53373Y-70605D01*
X53334Y-70529D01*
X53334Y-69843D01*
X54058Y-70605D02*
X53982Y-70643D01*
X53830Y-70643D01*
X53753Y-70605D01*
X53715Y-70529D01*
X53715Y-70224D01*
X53753Y-70148D01*
X53830Y-70109D01*
X53982Y-70109D01*
X54058Y-70148D01*
X54096Y-70224D01*
X54096Y-70300D01*
X53715Y-70376D01*
X54363Y-70948D02*
X54401Y-70909D01*
X54478Y-70795D01*
X54516Y-70719D01*
X54554Y-70605D01*
X54592Y-70414D01*
X54592Y-70262D01*
X54554Y-70071D01*
X54516Y-69957D01*
X54478Y-69881D01*
X54401Y-69767D01*
X54363Y-69729D01*
M02*
