G04 (created by PCBNEW (2012-jan-04)-stable) date Sun 03 Jun 2012 01:19:25 AM CEST*
G01*
G70*
G90*
%MOIN*%
G04 Gerber Fmt 3.4, Leading zero omitted, Abs format*
%FSLAX34Y34*%
G04 APERTURE LIST*
%ADD10C,0.001000*%
%ADD11C,0.008000*%
G04 APERTURE END LIST*
G54D10*
G54D11*
X37402Y-52756D02*
X37402Y-13386D01*
X76772Y-52756D02*
X37402Y-52756D01*
X76772Y-13386D02*
X76772Y-52756D01*
X37402Y-13386D02*
X76772Y-13386D01*
G54D10*
X48013Y-27359D02*
X48413Y-27759D01*
X48413Y-27359D02*
X48013Y-27759D01*
X49013Y-27359D02*
X49413Y-27759D01*
X49413Y-27359D02*
X49013Y-27759D01*
X50013Y-27359D02*
X50413Y-27759D01*
X50413Y-27359D02*
X50013Y-27759D01*
X63761Y-27359D02*
X64161Y-27759D01*
X64161Y-27359D02*
X63761Y-27759D01*
X64761Y-27359D02*
X65161Y-27759D01*
X65161Y-27359D02*
X64761Y-27759D01*
X65761Y-27359D02*
X66161Y-27759D01*
X66161Y-27359D02*
X65761Y-27759D01*
X39970Y-15354D02*
X39958Y-15470D01*
X39924Y-15582D01*
X39869Y-15686D01*
X39795Y-15776D01*
X39705Y-15851D01*
X39602Y-15907D01*
X39490Y-15941D01*
X39374Y-15953D01*
X39258Y-15943D01*
X39146Y-15910D01*
X39042Y-15856D01*
X38951Y-15782D01*
X38875Y-15692D01*
X38819Y-15590D01*
X38784Y-15478D01*
X38771Y-15362D01*
X38780Y-15246D01*
X38813Y-15134D01*
X38866Y-15029D01*
X38939Y-14938D01*
X39028Y-14862D01*
X39130Y-14805D01*
X39242Y-14768D01*
X39358Y-14755D01*
X39474Y-14764D01*
X39586Y-14795D01*
X39691Y-14848D01*
X39783Y-14920D01*
X39860Y-15009D01*
X39918Y-15110D01*
X39955Y-15222D01*
X39969Y-15338D01*
X39970Y-15354D01*
X39970Y-50787D02*
X39958Y-50903D01*
X39924Y-51015D01*
X39869Y-51119D01*
X39795Y-51209D01*
X39705Y-51284D01*
X39602Y-51340D01*
X39490Y-51374D01*
X39374Y-51386D01*
X39258Y-51376D01*
X39146Y-51343D01*
X39042Y-51289D01*
X38951Y-51215D01*
X38875Y-51125D01*
X38819Y-51023D01*
X38784Y-50911D01*
X38771Y-50795D01*
X38780Y-50679D01*
X38813Y-50567D01*
X38866Y-50462D01*
X38939Y-50371D01*
X39028Y-50295D01*
X39130Y-50238D01*
X39242Y-50201D01*
X39358Y-50188D01*
X39474Y-50197D01*
X39586Y-50228D01*
X39691Y-50281D01*
X39783Y-50353D01*
X39860Y-50442D01*
X39918Y-50543D01*
X39955Y-50655D01*
X39969Y-50771D01*
X39970Y-50787D01*
X75403Y-15354D02*
X75391Y-15470D01*
X75357Y-15582D01*
X75302Y-15686D01*
X75228Y-15776D01*
X75138Y-15851D01*
X75035Y-15907D01*
X74923Y-15941D01*
X74807Y-15953D01*
X74691Y-15943D01*
X74579Y-15910D01*
X74475Y-15856D01*
X74384Y-15782D01*
X74308Y-15692D01*
X74252Y-15590D01*
X74217Y-15478D01*
X74204Y-15362D01*
X74213Y-15246D01*
X74246Y-15134D01*
X74299Y-15029D01*
X74372Y-14938D01*
X74461Y-14862D01*
X74563Y-14805D01*
X74675Y-14768D01*
X74791Y-14755D01*
X74907Y-14764D01*
X75019Y-14795D01*
X75124Y-14848D01*
X75216Y-14920D01*
X75293Y-15009D01*
X75351Y-15110D01*
X75388Y-15222D01*
X75402Y-15338D01*
X75403Y-15354D01*
X75403Y-50787D02*
X75391Y-50903D01*
X75357Y-51015D01*
X75302Y-51119D01*
X75228Y-51209D01*
X75138Y-51284D01*
X75035Y-51340D01*
X74923Y-51374D01*
X74807Y-51386D01*
X74691Y-51376D01*
X74579Y-51343D01*
X74475Y-51289D01*
X74384Y-51215D01*
X74308Y-51125D01*
X74252Y-51023D01*
X74217Y-50911D01*
X74204Y-50795D01*
X74213Y-50679D01*
X74246Y-50567D01*
X74299Y-50462D01*
X74372Y-50371D01*
X74461Y-50295D01*
X74563Y-50238D01*
X74675Y-50201D01*
X74791Y-50188D01*
X74907Y-50197D01*
X75019Y-50228D01*
X75124Y-50281D01*
X75216Y-50353D01*
X75293Y-50442D01*
X75351Y-50543D01*
X75388Y-50655D01*
X75402Y-50771D01*
X75403Y-50787D01*
X41339Y-24331D02*
X41339Y-25905D01*
X42126Y-25118D02*
X40552Y-25118D01*
X57087Y-24331D02*
X57087Y-25905D01*
X57874Y-25118D02*
X56300Y-25118D01*
X72835Y-24331D02*
X72835Y-25905D01*
X73622Y-25118D02*
X72048Y-25118D01*
G54D11*
X37711Y-54041D02*
X37711Y-53241D01*
X37902Y-53241D01*
X38016Y-53279D01*
X38092Y-53355D01*
X38131Y-53431D01*
X38169Y-53584D01*
X38169Y-53698D01*
X38131Y-53850D01*
X38092Y-53927D01*
X38016Y-54003D01*
X37902Y-54041D01*
X37711Y-54041D01*
X38511Y-54041D02*
X38511Y-53507D01*
X38511Y-53660D02*
X38550Y-53584D01*
X38588Y-53546D01*
X38664Y-53507D01*
X38740Y-53507D01*
X39006Y-54041D02*
X39006Y-53507D01*
X39006Y-53241D02*
X38968Y-53279D01*
X39006Y-53317D01*
X39045Y-53279D01*
X39006Y-53241D01*
X39006Y-53317D01*
X39502Y-54041D02*
X39426Y-54003D01*
X39387Y-53927D01*
X39387Y-53241D01*
X39921Y-54041D02*
X39845Y-54003D01*
X39806Y-53927D01*
X39806Y-53241D01*
X40835Y-54041D02*
X40835Y-53241D01*
X41102Y-53812D01*
X41369Y-53241D01*
X41369Y-54041D01*
X42092Y-54041D02*
X42092Y-53622D01*
X42054Y-53546D01*
X41978Y-53507D01*
X41826Y-53507D01*
X41749Y-53546D01*
X42092Y-54003D02*
X42016Y-54041D01*
X41826Y-54041D01*
X41749Y-54003D01*
X41711Y-53927D01*
X41711Y-53850D01*
X41749Y-53774D01*
X41826Y-53736D01*
X42016Y-53736D01*
X42092Y-53698D01*
X42473Y-53507D02*
X42473Y-54307D01*
X42473Y-53546D02*
X42550Y-53507D01*
X42702Y-53507D01*
X42778Y-53546D01*
X42816Y-53584D01*
X42854Y-53660D01*
X42854Y-53888D01*
X42816Y-53965D01*
X42778Y-54003D01*
X42702Y-54041D01*
X42550Y-54041D01*
X42473Y-54003D01*
X43197Y-53965D02*
X43236Y-54003D01*
X43197Y-54041D01*
X43159Y-54003D01*
X43197Y-53965D01*
X43197Y-54041D01*
X43197Y-53546D02*
X43236Y-53584D01*
X43197Y-53622D01*
X43159Y-53584D01*
X43197Y-53546D01*
X43197Y-53622D01*
X36921Y-55197D02*
X37321Y-55597D01*
X37321Y-55197D02*
X36921Y-55597D01*
X37864Y-54921D02*
X37940Y-54921D01*
X38016Y-54959D01*
X38054Y-54997D01*
X38092Y-55073D01*
X38131Y-55226D01*
X38131Y-55416D01*
X38092Y-55568D01*
X38054Y-55645D01*
X38016Y-55683D01*
X37940Y-55721D01*
X37864Y-55721D01*
X37788Y-55683D01*
X37750Y-55645D01*
X37711Y-55568D01*
X37673Y-55416D01*
X37673Y-55226D01*
X37711Y-55073D01*
X37750Y-54997D01*
X37788Y-54959D01*
X37864Y-54921D01*
X38473Y-55645D02*
X38512Y-55683D01*
X38473Y-55721D01*
X38435Y-55683D01*
X38473Y-55645D01*
X38473Y-55721D01*
X39007Y-54921D02*
X39083Y-54921D01*
X39159Y-54959D01*
X39197Y-54997D01*
X39235Y-55073D01*
X39274Y-55226D01*
X39274Y-55416D01*
X39235Y-55568D01*
X39197Y-55645D01*
X39159Y-55683D01*
X39083Y-55721D01*
X39007Y-55721D01*
X38931Y-55683D01*
X38893Y-55645D01*
X38854Y-55568D01*
X38816Y-55416D01*
X38816Y-55226D01*
X38854Y-55073D01*
X38893Y-54997D01*
X38931Y-54959D01*
X39007Y-54921D01*
X39959Y-55187D02*
X39959Y-55721D01*
X39769Y-54883D02*
X39578Y-55454D01*
X40074Y-55454D01*
X40531Y-54921D02*
X40607Y-54921D01*
X40683Y-54959D01*
X40721Y-54997D01*
X40759Y-55073D01*
X40798Y-55226D01*
X40798Y-55416D01*
X40759Y-55568D01*
X40721Y-55645D01*
X40683Y-55683D01*
X40607Y-55721D01*
X40531Y-55721D01*
X40455Y-55683D01*
X40417Y-55645D01*
X40378Y-55568D01*
X40340Y-55416D01*
X40340Y-55226D01*
X40378Y-55073D01*
X40417Y-54997D01*
X40455Y-54959D01*
X40531Y-54921D01*
X41102Y-54921D02*
X41102Y-55073D01*
X41407Y-54921D02*
X41407Y-55073D01*
X42932Y-54883D02*
X42246Y-55911D01*
X44228Y-55721D02*
X43770Y-55721D01*
X43999Y-55721D02*
X43999Y-54921D01*
X43923Y-55035D01*
X43847Y-55111D01*
X43770Y-55149D01*
X44570Y-55645D02*
X44609Y-55683D01*
X44570Y-55721D01*
X44532Y-55683D01*
X44570Y-55645D01*
X44570Y-55721D01*
X45104Y-54921D02*
X45180Y-54921D01*
X45256Y-54959D01*
X45294Y-54997D01*
X45332Y-55073D01*
X45371Y-55226D01*
X45371Y-55416D01*
X45332Y-55568D01*
X45294Y-55645D01*
X45256Y-55683D01*
X45180Y-55721D01*
X45104Y-55721D01*
X45028Y-55683D01*
X44990Y-55645D01*
X44951Y-55568D01*
X44913Y-55416D01*
X44913Y-55226D01*
X44951Y-55073D01*
X44990Y-54997D01*
X45028Y-54959D01*
X45104Y-54921D01*
X45675Y-54997D02*
X45713Y-54959D01*
X45790Y-54921D01*
X45980Y-54921D01*
X46056Y-54959D01*
X46094Y-54997D01*
X46133Y-55073D01*
X46133Y-55149D01*
X46094Y-55264D01*
X45637Y-55721D01*
X46133Y-55721D01*
X46475Y-55721D02*
X46475Y-55187D01*
X46475Y-55264D02*
X46514Y-55226D01*
X46590Y-55187D01*
X46704Y-55187D01*
X46780Y-55226D01*
X46818Y-55302D01*
X46818Y-55721D01*
X46818Y-55302D02*
X46856Y-55226D01*
X46933Y-55187D01*
X47047Y-55187D01*
X47123Y-55226D01*
X47161Y-55302D01*
X47161Y-55721D01*
X47542Y-55721D02*
X47542Y-55187D01*
X47542Y-55264D02*
X47581Y-55226D01*
X47657Y-55187D01*
X47771Y-55187D01*
X47847Y-55226D01*
X47885Y-55302D01*
X47885Y-55721D01*
X47885Y-55302D02*
X47923Y-55226D01*
X48000Y-55187D01*
X48114Y-55187D01*
X48190Y-55226D01*
X48228Y-55302D01*
X48228Y-55721D01*
X49448Y-56026D02*
X49410Y-55987D01*
X49334Y-55873D01*
X49296Y-55797D01*
X49258Y-55683D01*
X49219Y-55492D01*
X49219Y-55340D01*
X49258Y-55149D01*
X49296Y-55035D01*
X49334Y-54959D01*
X49410Y-54845D01*
X49448Y-54807D01*
X50095Y-54921D02*
X49943Y-54921D01*
X49867Y-54959D01*
X49829Y-54997D01*
X49752Y-55111D01*
X49714Y-55264D01*
X49714Y-55568D01*
X49752Y-55645D01*
X49791Y-55683D01*
X49867Y-55721D01*
X50019Y-55721D01*
X50095Y-55683D01*
X50133Y-55645D01*
X50172Y-55568D01*
X50172Y-55378D01*
X50133Y-55302D01*
X50095Y-55264D01*
X50019Y-55226D01*
X49867Y-55226D01*
X49791Y-55264D01*
X49752Y-55302D01*
X49714Y-55378D01*
X51124Y-55721D02*
X51124Y-54921D01*
X51467Y-55721D02*
X51467Y-55302D01*
X51429Y-55226D01*
X51353Y-55187D01*
X51239Y-55187D01*
X51163Y-55226D01*
X51124Y-55264D01*
X51963Y-55721D02*
X51887Y-55683D01*
X51848Y-55645D01*
X51810Y-55568D01*
X51810Y-55340D01*
X51848Y-55264D01*
X51887Y-55226D01*
X51963Y-55187D01*
X52077Y-55187D01*
X52153Y-55226D01*
X52191Y-55264D01*
X52229Y-55340D01*
X52229Y-55568D01*
X52191Y-55645D01*
X52153Y-55683D01*
X52077Y-55721D01*
X51963Y-55721D01*
X52687Y-55721D02*
X52611Y-55683D01*
X52572Y-55607D01*
X52572Y-54921D01*
X53296Y-55683D02*
X53220Y-55721D01*
X53068Y-55721D01*
X52991Y-55683D01*
X52953Y-55607D01*
X52953Y-55302D01*
X52991Y-55226D01*
X53068Y-55187D01*
X53220Y-55187D01*
X53296Y-55226D01*
X53334Y-55302D01*
X53334Y-55378D01*
X52953Y-55454D01*
X53639Y-55683D02*
X53716Y-55721D01*
X53868Y-55721D01*
X53944Y-55683D01*
X53982Y-55607D01*
X53982Y-55568D01*
X53944Y-55492D01*
X53868Y-55454D01*
X53754Y-55454D01*
X53677Y-55416D01*
X53639Y-55340D01*
X53639Y-55302D01*
X53677Y-55226D01*
X53754Y-55187D01*
X53868Y-55187D01*
X53944Y-55226D01*
X54249Y-56026D02*
X54287Y-55987D01*
X54364Y-55873D01*
X54402Y-55797D01*
X54440Y-55683D01*
X54478Y-55492D01*
X54478Y-55340D01*
X54440Y-55149D01*
X54402Y-55035D01*
X54364Y-54959D01*
X54287Y-54845D01*
X54249Y-54807D01*
G54D10*
X37321Y-56452D02*
X37309Y-56568D01*
X37275Y-56680D01*
X37220Y-56784D01*
X37146Y-56874D01*
X37056Y-56949D01*
X36953Y-57005D01*
X36841Y-57039D01*
X36725Y-57051D01*
X36609Y-57041D01*
X36497Y-57008D01*
X36393Y-56954D01*
X36302Y-56880D01*
X36226Y-56790D01*
X36170Y-56688D01*
X36135Y-56576D01*
X36122Y-56460D01*
X36131Y-56344D01*
X36164Y-56232D01*
X36217Y-56127D01*
X36290Y-56036D01*
X36379Y-55960D01*
X36481Y-55903D01*
X36593Y-55866D01*
X36709Y-55853D01*
X36825Y-55862D01*
X36937Y-55893D01*
X37042Y-55946D01*
X37134Y-56018D01*
X37211Y-56107D01*
X37269Y-56208D01*
X37306Y-56320D01*
X37320Y-56436D01*
X37321Y-56452D01*
G54D11*
X37864Y-55976D02*
X37940Y-55976D01*
X38016Y-56014D01*
X38054Y-56052D01*
X38092Y-56128D01*
X38131Y-56281D01*
X38131Y-56471D01*
X38092Y-56623D01*
X38054Y-56700D01*
X38016Y-56738D01*
X37940Y-56776D01*
X37864Y-56776D01*
X37788Y-56738D01*
X37750Y-56700D01*
X37711Y-56623D01*
X37673Y-56471D01*
X37673Y-56281D01*
X37711Y-56128D01*
X37750Y-56052D01*
X37788Y-56014D01*
X37864Y-55976D01*
X38473Y-56700D02*
X38512Y-56738D01*
X38473Y-56776D01*
X38435Y-56738D01*
X38473Y-56700D01*
X38473Y-56776D01*
X39274Y-56776D02*
X38816Y-56776D01*
X39045Y-56776D02*
X39045Y-55976D01*
X38969Y-56090D01*
X38893Y-56166D01*
X38816Y-56204D01*
X39578Y-56052D02*
X39616Y-56014D01*
X39693Y-55976D01*
X39883Y-55976D01*
X39959Y-56014D01*
X39997Y-56052D01*
X40036Y-56128D01*
X40036Y-56204D01*
X39997Y-56319D01*
X39540Y-56776D01*
X40036Y-56776D01*
X40531Y-55976D02*
X40607Y-55976D01*
X40683Y-56014D01*
X40721Y-56052D01*
X40759Y-56128D01*
X40798Y-56281D01*
X40798Y-56471D01*
X40759Y-56623D01*
X40721Y-56700D01*
X40683Y-56738D01*
X40607Y-56776D01*
X40531Y-56776D01*
X40455Y-56738D01*
X40417Y-56700D01*
X40378Y-56623D01*
X40340Y-56471D01*
X40340Y-56281D01*
X40378Y-56128D01*
X40417Y-56052D01*
X40455Y-56014D01*
X40531Y-55976D01*
X41102Y-55976D02*
X41102Y-56128D01*
X41407Y-55976D02*
X41407Y-56128D01*
X42932Y-55938D02*
X42246Y-56966D01*
X43732Y-55976D02*
X44228Y-55976D01*
X43961Y-56281D01*
X44075Y-56281D01*
X44151Y-56319D01*
X44189Y-56357D01*
X44228Y-56433D01*
X44228Y-56623D01*
X44189Y-56700D01*
X44151Y-56738D01*
X44075Y-56776D01*
X43847Y-56776D01*
X43770Y-56738D01*
X43732Y-56700D01*
X44570Y-56700D02*
X44609Y-56738D01*
X44570Y-56776D01*
X44532Y-56738D01*
X44570Y-56700D01*
X44570Y-56776D01*
X45104Y-55976D02*
X45180Y-55976D01*
X45256Y-56014D01*
X45294Y-56052D01*
X45332Y-56128D01*
X45371Y-56281D01*
X45371Y-56471D01*
X45332Y-56623D01*
X45294Y-56700D01*
X45256Y-56738D01*
X45180Y-56776D01*
X45104Y-56776D01*
X45028Y-56738D01*
X44990Y-56700D01*
X44951Y-56623D01*
X44913Y-56471D01*
X44913Y-56281D01*
X44951Y-56128D01*
X44990Y-56052D01*
X45028Y-56014D01*
X45104Y-55976D01*
X46094Y-55976D02*
X45713Y-55976D01*
X45675Y-56357D01*
X45713Y-56319D01*
X45790Y-56281D01*
X45980Y-56281D01*
X46056Y-56319D01*
X46094Y-56357D01*
X46133Y-56433D01*
X46133Y-56623D01*
X46094Y-56700D01*
X46056Y-56738D01*
X45980Y-56776D01*
X45790Y-56776D01*
X45713Y-56738D01*
X45675Y-56700D01*
X46475Y-56776D02*
X46475Y-56242D01*
X46475Y-56319D02*
X46514Y-56281D01*
X46590Y-56242D01*
X46704Y-56242D01*
X46780Y-56281D01*
X46818Y-56357D01*
X46818Y-56776D01*
X46818Y-56357D02*
X46856Y-56281D01*
X46933Y-56242D01*
X47047Y-56242D01*
X47123Y-56281D01*
X47161Y-56357D01*
X47161Y-56776D01*
X47542Y-56776D02*
X47542Y-56242D01*
X47542Y-56319D02*
X47581Y-56281D01*
X47657Y-56242D01*
X47771Y-56242D01*
X47847Y-56281D01*
X47885Y-56357D01*
X47885Y-56776D01*
X47885Y-56357D02*
X47923Y-56281D01*
X48000Y-56242D01*
X48114Y-56242D01*
X48190Y-56281D01*
X48228Y-56357D01*
X48228Y-56776D01*
X49448Y-57081D02*
X49410Y-57042D01*
X49334Y-56928D01*
X49296Y-56852D01*
X49258Y-56738D01*
X49219Y-56547D01*
X49219Y-56395D01*
X49258Y-56204D01*
X49296Y-56090D01*
X49334Y-56014D01*
X49410Y-55900D01*
X49448Y-55862D01*
X50095Y-56242D02*
X50095Y-56776D01*
X49905Y-55938D02*
X49714Y-56509D01*
X50210Y-56509D01*
X51124Y-56776D02*
X51124Y-55976D01*
X51467Y-56776D02*
X51467Y-56357D01*
X51429Y-56281D01*
X51353Y-56242D01*
X51239Y-56242D01*
X51163Y-56281D01*
X51124Y-56319D01*
X51963Y-56776D02*
X51887Y-56738D01*
X51848Y-56700D01*
X51810Y-56623D01*
X51810Y-56395D01*
X51848Y-56319D01*
X51887Y-56281D01*
X51963Y-56242D01*
X52077Y-56242D01*
X52153Y-56281D01*
X52191Y-56319D01*
X52229Y-56395D01*
X52229Y-56623D01*
X52191Y-56700D01*
X52153Y-56738D01*
X52077Y-56776D01*
X51963Y-56776D01*
X52687Y-56776D02*
X52611Y-56738D01*
X52572Y-56662D01*
X52572Y-55976D01*
X53296Y-56738D02*
X53220Y-56776D01*
X53068Y-56776D01*
X52991Y-56738D01*
X52953Y-56662D01*
X52953Y-56357D01*
X52991Y-56281D01*
X53068Y-56242D01*
X53220Y-56242D01*
X53296Y-56281D01*
X53334Y-56357D01*
X53334Y-56433D01*
X52953Y-56509D01*
X53639Y-56738D02*
X53716Y-56776D01*
X53868Y-56776D01*
X53944Y-56738D01*
X53982Y-56662D01*
X53982Y-56623D01*
X53944Y-56547D01*
X53868Y-56509D01*
X53754Y-56509D01*
X53677Y-56471D01*
X53639Y-56395D01*
X53639Y-56357D01*
X53677Y-56281D01*
X53754Y-56242D01*
X53868Y-56242D01*
X53944Y-56281D01*
X54249Y-57081D02*
X54287Y-57042D01*
X54364Y-56928D01*
X54402Y-56852D01*
X54440Y-56738D01*
X54478Y-56547D01*
X54478Y-56395D01*
X54440Y-56204D01*
X54402Y-56090D01*
X54364Y-56014D01*
X54287Y-55900D01*
X54249Y-55862D01*
X36533Y-57145D02*
X36533Y-58719D01*
X37320Y-57932D02*
X35746Y-57932D01*
X37864Y-57456D02*
X37940Y-57456D01*
X38016Y-57494D01*
X38054Y-57532D01*
X38092Y-57608D01*
X38131Y-57761D01*
X38131Y-57951D01*
X38092Y-58103D01*
X38054Y-58180D01*
X38016Y-58218D01*
X37940Y-58256D01*
X37864Y-58256D01*
X37788Y-58218D01*
X37750Y-58180D01*
X37711Y-58103D01*
X37673Y-57951D01*
X37673Y-57761D01*
X37711Y-57608D01*
X37750Y-57532D01*
X37788Y-57494D01*
X37864Y-57456D01*
X38473Y-58180D02*
X38512Y-58218D01*
X38473Y-58256D01*
X38435Y-58218D01*
X38473Y-58180D01*
X38473Y-58256D01*
X39274Y-58256D02*
X38816Y-58256D01*
X39045Y-58256D02*
X39045Y-57456D01*
X38969Y-57570D01*
X38893Y-57646D01*
X38816Y-57684D01*
X39997Y-57456D02*
X39616Y-57456D01*
X39578Y-57837D01*
X39616Y-57799D01*
X39693Y-57761D01*
X39883Y-57761D01*
X39959Y-57799D01*
X39997Y-57837D01*
X40036Y-57913D01*
X40036Y-58103D01*
X39997Y-58180D01*
X39959Y-58218D01*
X39883Y-58256D01*
X39693Y-58256D01*
X39616Y-58218D01*
X39578Y-58180D01*
X40493Y-57799D02*
X40417Y-57761D01*
X40378Y-57722D01*
X40340Y-57646D01*
X40340Y-57608D01*
X40378Y-57532D01*
X40417Y-57494D01*
X40493Y-57456D01*
X40645Y-57456D01*
X40721Y-57494D01*
X40759Y-57532D01*
X40798Y-57608D01*
X40798Y-57646D01*
X40759Y-57722D01*
X40721Y-57761D01*
X40645Y-57799D01*
X40493Y-57799D01*
X40417Y-57837D01*
X40378Y-57875D01*
X40340Y-57951D01*
X40340Y-58103D01*
X40378Y-58180D01*
X40417Y-58218D01*
X40493Y-58256D01*
X40645Y-58256D01*
X40721Y-58218D01*
X40759Y-58180D01*
X40798Y-58103D01*
X40798Y-57951D01*
X40759Y-57875D01*
X40721Y-57837D01*
X40645Y-57799D01*
X41102Y-57456D02*
X41102Y-57608D01*
X41407Y-57456D02*
X41407Y-57608D01*
X42932Y-57418D02*
X42246Y-58446D01*
X44151Y-57722D02*
X44151Y-58256D01*
X43961Y-57418D02*
X43770Y-57989D01*
X44266Y-57989D01*
X44570Y-58180D02*
X44609Y-58218D01*
X44570Y-58256D01*
X44532Y-58218D01*
X44570Y-58180D01*
X44570Y-58256D01*
X45104Y-57456D02*
X45180Y-57456D01*
X45256Y-57494D01*
X45294Y-57532D01*
X45332Y-57608D01*
X45371Y-57761D01*
X45371Y-57951D01*
X45332Y-58103D01*
X45294Y-58180D01*
X45256Y-58218D01*
X45180Y-58256D01*
X45104Y-58256D01*
X45028Y-58218D01*
X44990Y-58180D01*
X44951Y-58103D01*
X44913Y-57951D01*
X44913Y-57761D01*
X44951Y-57608D01*
X44990Y-57532D01*
X45028Y-57494D01*
X45104Y-57456D01*
X45866Y-57456D02*
X45942Y-57456D01*
X46018Y-57494D01*
X46056Y-57532D01*
X46094Y-57608D01*
X46133Y-57761D01*
X46133Y-57951D01*
X46094Y-58103D01*
X46056Y-58180D01*
X46018Y-58218D01*
X45942Y-58256D01*
X45866Y-58256D01*
X45790Y-58218D01*
X45752Y-58180D01*
X45713Y-58103D01*
X45675Y-57951D01*
X45675Y-57761D01*
X45713Y-57608D01*
X45752Y-57532D01*
X45790Y-57494D01*
X45866Y-57456D01*
X46475Y-58256D02*
X46475Y-57722D01*
X46475Y-57799D02*
X46514Y-57761D01*
X46590Y-57722D01*
X46704Y-57722D01*
X46780Y-57761D01*
X46818Y-57837D01*
X46818Y-58256D01*
X46818Y-57837D02*
X46856Y-57761D01*
X46933Y-57722D01*
X47047Y-57722D01*
X47123Y-57761D01*
X47161Y-57837D01*
X47161Y-58256D01*
X47542Y-58256D02*
X47542Y-57722D01*
X47542Y-57799D02*
X47581Y-57761D01*
X47657Y-57722D01*
X47771Y-57722D01*
X47847Y-57761D01*
X47885Y-57837D01*
X47885Y-58256D01*
X47885Y-57837D02*
X47923Y-57761D01*
X48000Y-57722D01*
X48114Y-57722D01*
X48190Y-57761D01*
X48228Y-57837D01*
X48228Y-58256D01*
X49448Y-58561D02*
X49410Y-58522D01*
X49334Y-58408D01*
X49296Y-58332D01*
X49258Y-58218D01*
X49219Y-58027D01*
X49219Y-57875D01*
X49258Y-57684D01*
X49296Y-57570D01*
X49334Y-57494D01*
X49410Y-57380D01*
X49448Y-57342D01*
X49676Y-57456D02*
X50172Y-57456D01*
X49905Y-57761D01*
X50019Y-57761D01*
X50095Y-57799D01*
X50133Y-57837D01*
X50172Y-57913D01*
X50172Y-58103D01*
X50133Y-58180D01*
X50095Y-58218D01*
X50019Y-58256D01*
X49791Y-58256D01*
X49714Y-58218D01*
X49676Y-58180D01*
X51124Y-58256D02*
X51124Y-57456D01*
X51467Y-58256D02*
X51467Y-57837D01*
X51429Y-57761D01*
X51353Y-57722D01*
X51239Y-57722D01*
X51163Y-57761D01*
X51124Y-57799D01*
X51963Y-58256D02*
X51887Y-58218D01*
X51848Y-58180D01*
X51810Y-58103D01*
X51810Y-57875D01*
X51848Y-57799D01*
X51887Y-57761D01*
X51963Y-57722D01*
X52077Y-57722D01*
X52153Y-57761D01*
X52191Y-57799D01*
X52229Y-57875D01*
X52229Y-58103D01*
X52191Y-58180D01*
X52153Y-58218D01*
X52077Y-58256D01*
X51963Y-58256D01*
X52687Y-58256D02*
X52611Y-58218D01*
X52572Y-58142D01*
X52572Y-57456D01*
X53296Y-58218D02*
X53220Y-58256D01*
X53068Y-58256D01*
X52991Y-58218D01*
X52953Y-58142D01*
X52953Y-57837D01*
X52991Y-57761D01*
X53068Y-57722D01*
X53220Y-57722D01*
X53296Y-57761D01*
X53334Y-57837D01*
X53334Y-57913D01*
X52953Y-57989D01*
X53639Y-58218D02*
X53716Y-58256D01*
X53868Y-58256D01*
X53944Y-58218D01*
X53982Y-58142D01*
X53982Y-58103D01*
X53944Y-58027D01*
X53868Y-57989D01*
X53754Y-57989D01*
X53677Y-57951D01*
X53639Y-57875D01*
X53639Y-57837D01*
X53677Y-57761D01*
X53754Y-57722D01*
X53868Y-57722D01*
X53944Y-57761D01*
X54249Y-58561D02*
X54287Y-58522D01*
X54364Y-58408D01*
X54402Y-58332D01*
X54440Y-58218D01*
X54478Y-58027D01*
X54478Y-57875D01*
X54440Y-57684D01*
X54402Y-57570D01*
X54364Y-57494D01*
X54287Y-57380D01*
X54249Y-57342D01*
M02*
